<?xml version="1.0" encoding="utf-8"?>
<!-- Generator: Adobe Illustrator 16.0.3, SVG Export Plug-In . SVG Version: 6.00 Build 0)  -->
<!DOCTYPE svg PUBLIC "-//W3C//DTD SVG 1.1//EN" "http://www.w3.org/Graphics/SVG/1.1/DTD/svg11.dtd">
<svg version="1.1" xmlns="http://www.w3.org/2000/svg" xmlns:xlink="http://www.w3.org/1999/xlink" x="0px" y="0px"
	 width="1417.32px" height="1417.32px" viewBox="0 0 1417.32 1417.32" enable-background="new 0 0 1417.32 1417.32"
	 xml:space="preserve">
<g id="Ebene_1">
	<path d="M54.672,39.968C219.485,350.809,449.169,600.113,697.671,850.27l10.037,10.381l0.174-0.172
		c60.422,60.707,121.912,121.588,183.823,183.394c-52.197,41.006-107.888,78.063-165.921,111.592l78.982,78.977l190.223-190.223
		c117.197,76.502,211.176,176.186,288.153,292.904l77.687-77.676c-117.565-76.106-220.736-166.663-293.512-287.551l190.828-190.834
		l-78.977-78.977c-30.769,60.493-67.58,116.306-109.261,167.733C948.517,748.572,830.563,632.191,709.695,522.493
		c-0.62-0.562-1.195-1.168-1.815-1.73C508.309,339.797,300.392,176.916,54.672,39.965V39.968z M1360.918,39.968
		C1131.052,168.08,934.277,318.947,746.46,486.08l63.154,59.688l157.261-157.268l36.596,36.505L847.239,581.243l68.081,64.184
		c171.08-185.249,325.541-379.022,445.598-605.462V39.968z M448.712,388.501l555.191,555.107
		c-12.07,12.3-24.472,24.341-37.108,36.075L412.116,425.003L448.712,388.501z M236.418,702.083l-78.894,78.982l190.749,190.746
		c-72.776,120.896-175.864,211.529-293.43,287.636l77.684,77.676c76.976-116.719,170.958-216.402,288.153-292.904l190.225,190.223
		l78.978-78.977c-58.027-33.531-113.718-70.589-165.918-111.595c49.454-49.356,98.575-98.085,147.149-146.632l-68.771-71.018
		L448.792,979.764c-12.637-11.731-24.952-23.862-37.021-36.158l154.588-154.588l-67.904-70.24
		c-50.603,49.429-101.322,99.821-152.688,151.127c-41.711-51.452-78.562-107.29-109.344-167.822H236.418z"/>
</g>
<g id="Ebene_2">
	<path d="M1332.779,654.015"/>
	<path d="M693.602,392.918"/>
	<polyline points="797.133,483.217 797.133,347.851 974.297,392.143 708.55,82.215 442.803,392.143 619.967,347.851 
		619.967,483.217 	"/>
	<path d="M1302.053,698.86"/>
	<path d="M708.55,443.217"/>
</g>
</svg>
