<?xml version="1.0" encoding="utf-8"?>
<!-- Generator: Adobe Illustrator 16.0.3, SVG Export Plug-In . SVG Version: 6.00 Build 0)  -->
<!DOCTYPE svg PUBLIC "-//W3C//DTD SVG 1.1//EN" "http://www.w3.org/Graphics/SVG/1.1/DTD/svg11.dtd">
<svg version="1.1" id="Ebene_4" xmlns="http://www.w3.org/2000/svg" xmlns:xlink="http://www.w3.org/1999/xlink" x="0px" y="0px"
	 width="1417.32px" height="1417.32px" viewBox="0 0 1417.32 1417.32" enable-background="new 0 0 1417.32 1417.32"
	 xml:space="preserve">
<g>
	<path fill="none" d="M221.421,204.208c1.98-6.132,10.806-13.568,17.035-14.085c13.345-1.103,19.438,8.69,20.276,23.12
		c-4.745,6.481-10.071,13.747-16.587,22.639C226.438,228.727,216.433,219.642,221.421,204.208z"/>
	<path fill="none" d="M867.331,482.12c22.241,18.663,44.483,37.326,66.726,55.99c-1.081,1.302-2.161,2.608-3.242,3.911
		c-22.521-18.897-45.041-37.793-67.563-56.691C864.611,484.26,865.969,483.188,867.331,482.12z"/>
	<path fill="none" d="M856.212,1003.25c-9.983-9.765-20.862-20.405-30.248-29.587c8.614-25.469,8.614-25.469,32.313-33.946
		C895.157,962.464,895.339,980.563,856.212,1003.25z"/>
	<path d="M514.269,364.531c2.165,1.569,1.78,4.042-0.184,5.904c-2.586,2.455-6.736,2.417-9.362-0.038
		c-3.084-2.888-4.636-6.391-4.137-11.072C505.726,359.827,510.285,361.645,514.269,364.531z"/>
	<path d="M487.781,342.394c3.321,3.444,5.952,7.384,7.169,12.355c-4.07,1.08-7.561,0.487-10.807-1.723
		c-3.416-2.327-4.347-5.676-2.576-9.283C482.829,341.185,485.829,340.37,487.781,342.394z"/>
	<path d="M261.29,322.363c0,0-9.203,10.966-9.201,10.966L144.868,243.36l-24.623,29.344l85.11,71.416l-64.986,84.313l87.595,73.397
		l17.946-21.389l14.382,12.067l-17.946,21.389l40.948,34.359l17.946-21.389l14.136,11.862l-17.946,21.388l41.191,34.564
		l17.948-21.389l14.137,11.863l-17.947,21.388l41.192,34.564l17.947-21.389l14.137,11.862l-17.947,21.388l41.191,34.565
		l17.947-21.389l13.893,11.658l-17.997,21.449l41.679,34.973l17.998-21.449l13.57,11.386l-17.836,21.585l33.626,28.215l52.19-39.105
		l30.112,31.215l-82.046,79.154c0,0,6.908,13.806,9.724,18.922c2.418,4.389,5.151,8.605,7.296,12.156
		c-13.463,34.45-59.904,76.976-101.902,94.157c-39.112-11.38-39.112-11.38-64.772,8.47c12.519,25.604-23.958,50.736-1.683,81.088
		c8.854,2.688,18.482,5.608,29.864,9.061c4.863,11.633,9.934,23.757,14.706,35.164c-4.429,11.063-8.213,20.515-12.26,30.624
		c4.867,22.99,12.891,42.236,39.565,49.065c9.946,2.546,18.07,12.207,31.523,21.852c12.135-3.981,28.206-9.259,45.435-14.915
		c2.695-30.315,23.223-43.274,45.243-58.396c37.854-26.001,72.024-57.35,107.867-86.299c11.898-9.607,24.191-18.735,33.507-25.929
		c19.077-0.425,34.087-0.758,55.934-1.239c32.561,33.876,105.1,109.348,105.1,109.348s18.414,35.066,10.931,47.616
		c-7.484,12.548-27.212,7.349-30.669,17.739c-3.458,10.39,18.516,18.859,15.635,27.24c-2.882,8.382-20.461,1.939-23.669,11.705
		c-3.212,9.768,10.343,18.371,7.188,27.075c-3.156,8.709-17.614,4.93-26.981,14.207c-26.147,25.894-23.388,46.681,8.249,66.668
		c3.468,2.191,18.343,10.436,22.757,13.329c4.021,8.432-3.082,11.661,1.56,21.397c28.264,21.597,103.882,23.881,103.882,23.881
		s-1.094-14.082,6.21-16.643c13.245-4.644,41.992-12.216,41.992-12.216s11.971-67.147,24.549-142.479
		c0.764-10.651-10.142-14.092-15.296-21.249c1.897-27.667,28.607-19.441,42.923-31.646c21.306-42.123-32.35-43.056-42.988-72.085
		c8.31-8.482,16.912-17.264,23.896-24.389c24.094,20.218,65.587,55.447,65.587,55.447l56.976,27.602c0,0,14.643-1.281,14.645-1.281
		l22.958,6.185l86.658-96.825l-11.69-26.979l-5.438-111.922c0,0-54.375-32.785-55.526-72.667c2.96-7.559,7.047-17.992,11.929-30.453
		c-6.5-7.968-13.472-16.513-25.022-30.674c0.153-9.348,0.403-24.708,0.664-40.829c-35.955-34.397-71.297-68.433-107-102.078
		c-4.346-4.094-10.321-7.582-16.092-8.853c-35.118-7.733-58.2-33.616-83.976-55.173c-121.46-101.585-242.783-203.33-363.647-305.62
		c-10.309-8.725-16.569-22.124-25.302-32.87c-6.371-7.845-13.272-15.38-20.7-22.229c-35.452-32.701-71.199-65.079-106.707-97.722
		c-2.948-2.714-4.878-6.53-7.553-10.206c-0.657-21.789,1.018-42.622,15.276-61.129c8.396-10.896,8.667-22.519-5.75-32.982
		c-40.911,24.494-106.448,96.902-106.448,96.902s-31.439-21.074-47.578-31.158c-32.724,14.004-44.414,52.931-44.414,52.931
		l58.627,49.019l-10.967,13.07L227.406,99.07l-95.95,114.349L261.29,322.363z M242.146,235.881
		c-15.708-7.155-25.713-16.239-20.724-31.674c1.98-6.132,10.806-13.568,17.035-14.085c13.345-1.103,19.438,8.69,20.276,23.12
		C253.988,219.724,248.662,226.989,242.146,235.881z M858.277,939.717c36.88,22.747,37.062,40.847-2.065,63.533
		c-9.983-9.765-20.862-20.405-30.248-29.587C834.578,948.194,834.578,948.194,858.277,939.717z M930.814,542.021
		c-22.521-18.897-45.041-37.793-67.563-56.691c1.359-1.07,2.717-2.142,4.079-3.21c22.241,18.663,44.483,37.326,66.726,55.99
		C932.976,539.413,931.896,540.719,930.814,542.021z M544.381,1066.478l108.418-87.555l22.788,28.216l-108.416,87.557
		L544.381,1066.478z M499.406,1010.786l108.417-87.557l22.79,28.217l-108.42,87.557L499.406,1010.786z M785.596,509.803
		L977.165,670.55l-58.898,70.194l-191.57-160.748L785.596,509.803z M555.292,312.839c-3.276-3.085-9.353,0.369-9.353,0.369
		s-4.693,2.924-7.427,4.543c-4.273-4.299,0,0-4.273-4.299c-4.975-3.46,0,0-4.975-3.46c1.116-2.975,3.183-8.103,3.183-8.103
		s2.348-6.584-1.261-9.276c-1.499-1.117-3.534-0.052-2.314-1.399c1.377-1.641,2.28-2.717,3.656-4.358
		c3.145,2.639,5.399,4.534,9.229,7.746c1.726,1.449,4.292-0.012,5.524-1.481c5.336-6.358,9.781-11.656,12.245-14.593
		c2.771-3.301,0.258-5.41,0.258-5.41l5.206-6.204c0,0,2.411,2.229,3.257,1.22c1.794-2.137,4.152-0.158,4.152-0.158
		s2.357,1.979,0.565,4.115c-0.845,1.009,1.767,2.997,1.767,2.997l-5.205,6.204c0,0-2.513-2.109-5.282,1.192
		c-2.466,2.937-6.911,8.235-12.245,14.593c-1.233,1.469-2.228,4.249-0.501,5.698c3.828,3.212,6.085,5.104,9.23,7.742
		c-1.376,1.641-2.281,2.717-3.657,4.358C555.958,316.311,556.652,314.121,555.292,312.839z M541.883,362.104
		c4.892,1.435,9.673,1.075,13.593-2.439c3.996-3.583,4.981-8.47,3.149-13.251c-1.785-4.657,0.131-7.19,3.446-9.665
		c32.469,27.244,64.84,54.407,97.644,81.933c-3.516,0.67-6.464,0.982-9.255,1.827c-3.331,1.007-5.708,0.109-8.279-2.143
		c-12.083-10.578-24.316-20.982-36.535-31.401c-6.482-5.529-13.044-10.962-19.547-16.417c-1.471,0.948-2.542,1.885-3.094,3.779
		c17.188,16.105,34.487,32.314,52.594,49.279c-9.081,0.981-17.028,1.808-24.968,2.717c-1.828,0.21-2.214-1.204-2.919-2.252
		c-3.434-5.101-6.839-10.221-10.238-15.345c-6.557-9.885-13.105-19.775-19.66-29.67c-2.693,1.245-2.453,2.722-1.398,4.684
		c5.316,9.89,10.541,19.826,15.78,29.756c2.465,4.671,4.885,9.365,7.573,14.525c-6.711,0.828-12.751,1.573-18.877,2.328
		c-4.841-15.046-9.537-29.633-14.216-44.178c-3.55,0.397-2.943,2.464-2.479,4.491c2.631,11.474,5.27,22.947,7.86,34.429
		c0.341,1.507,1.081,3.024,0.32,4.953c-4.543,0.291-9.161,0.588-14.136,0.906c-1.288-13.563-2.542-26.778-3.798-40.008
		c-2.173,0.054-2.354,1.604-2.399,3.327c-0.116,4.415-0.271,8.826-0.422,13.238c-0.258,7.552-0.522,15.104-0.791,22.881
		c-6.105-0.273-11.661-0.582-17.614-1.667c2.973-11.993,5.894-23.771,8.812-35.551c-0.54-0.201-1.081-0.403-1.624-0.604
		c-5.003,11.285-10.007,22.57-15.146,34.158c-3.481-2.421-6.359-4.6-9.412-6.492c-2.495-1.547-2.657-3.036-1.118-5.5
		c4.605-7.37,9.028-14.855,13.383-22.375c0.833-1.436,2.584-2.788,1.249-5.715c-6.567,7.828-12.831,15.292-19.801,23.598
		c-0.768-2.908-1.011-4.515-1.61-5.979c-1.481-3.621-0.787-6.447,2.006-9.323c3.72-3.829,6.811-8.263,10.44-12.189
		c2.578-2.792,3.852-5.829,4.288-9.602C525.594,365.281,534.326,359.889,541.883,362.104z M473.323,374.31
		c3.955,3.319,7.661,6.429,11.606,9.74c-10.934,12.497-19.663,27.029-37.063,32.632C450.342,398.578,462.651,387.112,473.323,374.31
		z M531.117,313.012c13.018,9.072,16.66,23.806,8.896,36.457c-3.353,5.47-8.355,9.334-13.515,12.956
		c-2.78,1.952-4.806,4.053-5.901,7.613c-2.02,6.571-8.051,8.854-13.975,10.833c-3.933,1.314-4.729-2.588-6.863-4.269
		c-0.167-0.131-0.502-0.044-0.762-0.058c-2.435,3.467-7.089,10.462-7.089,10.462s-1.295-1.08-1.833-1.531
		c2.506-4.233,0,0,2.506-4.233c-0.527-0.441-0.719-0.603-1.244-1.043c-1.075,1.281-2.388,2.845-3.119,3.716
		c-0.77-0.645-1.654-1.387-2.474-2.076c1.227-1.461,1.99-2.371,3.118-3.717c-0.654-0.548-1.204-1.011-1.82-1.527
		c-0.936,1.115-2.517,2.999-3.119,3.717c-0.641-0.538-1.385-1.162-2.486-2.086c1.043-1.244,2.043-2.436,3.108-3.703
		c-0.756-0.635-1.065-0.917-1.809-1.541c-0.998,1.188-2.549,3.038-3.119,3.717c-0.974-0.817-1.936-1.625-2.475-2.077
		c0.731-0.871,2.097-2.499,3.118-3.717c-0.47-0.395-1.217-1.022-1.844-1.549c-0.775,0.923-2.334,2.781-3.12,3.717
		c-1.141-0.957-1.807-1.516-2.461-2.065c0.839-1,2.441-2.909,3.12-3.717c-0.385-0.323-0.693-0.582-1.218-1.021
		c-3.749,3.189,0,0-3.749,3.189c-0.762-0.64-1.126-0.946-1.832-1.538c2.667-3.427,6.362-5.889,9.514-8.887
		c-1.913-2.142-5.401-2.083-5.88-5.291c-0.787-5.252,3.819-14.988,8.6-17.086c2.867-1.258,4.426-3.22,5.631-5.842
		c1.005-2.184,2.102-4.331,3.254-6.44C499.753,307.011,516.021,302.49,531.117,313.012z M408.901,208.059
		c33.013,27.702,65.363,54.848,97.791,82.057c-2.119,3.474-3.968,6.134-8.842,5.135c-4.964-1.016-9.672,0.641-12.601,5.19
		c-3.067,4.764-2.349,9.707,0.102,14.512c2.986,5.854-0.51,15.986-6.863,17.789c-5.305,1.507-8.752,4.712-11.91,8.79
		c-2.54,3.277-5.298,6.382-7.979,9.549c-3.997,4.723-8.223,5.589-14.664,2.703c6.313-7.524,12.531-14.935,18.75-22.346
		c-0.354-0.389-0.708-0.778-1.064-1.167c-9.302,6.715-17.226,15.17-26.669,22.288c-3.506-3.473-6.879-6.812-10.612-10.51
		c10.585-7.157,20.773-14.047,30.961-20.937c-0.298-0.478-0.597-0.956-0.894-1.435c-11.121,4.947-22.239,9.896-33.629,14.963
		c-1.666-6.006-3.454-11.298-4.405-17.039c1.531-0.39,2.794-0.761,4.082-1.032c10.211-2.15,20.428-4.276,30.637-6.429
		c1.908-0.403,4.156-0.593,3.306-3.19c-13.438,0.857-26.637,1.7-40.104,2.558c-0.233-4.287-0.493-9.021-0.764-13.966
		c1.322,0.035,2.778,0.042,4.233,0.115c11.891,0.585,23.78,1.176,35.672,1.778c2.196,0.112,4.005-0.137,3.542-3.181
		c-1.712-0.27-3.288-0.547-4.873-0.763c-12.589-1.718-25.182-3.407-37.768-5.161c-1.32-0.182-3.188,0.238-3.31-2.013
		c-0.304-5.647-0.6-11.297-0.916-17.296c1.486,0.396,2.257,0.568,3.009,0.81c14.636,4.686,29.272,9.369,43.9,14.086
		c2.093,0.674,4.175,1.668,5.02-1.732c-1.177-0.591-2.326-1.239-3.526-1.763c-15.065-6.57-30.119-13.166-45.229-19.63
		c-2.37-1.014-3.551-2.263-3.641-4.961c-0.211-6.416-0.753-12.82-1.093-19.231c-0.051-0.948-0.635-2.158,0.855-2.89
		c18.863,14.131,37.764,28.292,56.561,42.376c1.71-1.174,2.708-2.166,2.971-3.701c-0.667-1.486-2.038-2.167-3.151-3.083
		c-18.083-14.879-36.188-29.735-54.271-44.619c-1.01-0.831-2.654-1.47-2.699-2.811C408.67,217.438,408.844,212.997,408.901,208.059z
		"/>
	<path d="M494.579,360.844c0.83,4.667-0.929,6.764-3.409,9.72c-0.348-5.329-0.348-5.329-5.556-4.661
		C488.095,362.946,489.853,360.85,494.579,360.844z"/>
	
		<rect x="726.892" y="579.458" transform="matrix(0.766 0.6428 -0.6428 0.766 601.2353 -401.3253)" display="none" fill="#FFFFFF" width="250.078" height="91.631"/>
	
		<rect x="540.306" y="1018.672" transform="matrix(0.778 -0.6283 0.6283 0.778 -515.9886 613.4443)" display="none" fill="#FFFFFF" width="139.356" height="36.271"/>
	
		<rect x="495.33" y="962.982" transform="matrix(0.778 -0.6283 0.6283 0.778 -490.9761 572.8035)" display="none" fill="#FFFFFF" width="139.359" height="36.269"/>
	<path display="none" d="M541.883,362.104c4.892,1.435,9.673,1.075,13.593-2.439c3.996-3.583,4.981-8.47,3.149-13.251
		c-1.785-4.657,0.131-7.19,3.446-9.665c32.469,27.244,64.84,54.407,97.644,81.933c-3.516,0.67-6.464,0.982-9.255,1.827
		c-3.331,1.007-5.708,0.109-8.279-2.143c-12.083-10.578-24.316-20.982-36.535-31.401c-6.482-5.529-13.044-10.962-19.547-16.417
		c-1.471,0.948-2.542,1.885-3.094,3.779c17.188,16.105,34.487,32.314,52.594,49.279c-9.081,0.981-17.028,1.808-24.968,2.717
		c-1.828,0.21-2.214-1.204-2.919-2.252c-3.434-5.101-6.839-10.221-10.238-15.345c-6.557-9.885-13.105-19.775-19.66-29.67
		c-2.693,1.245-2.453,2.722-1.398,4.684c5.316,9.89,10.541,19.826,15.78,29.756c2.465,4.671,4.885,9.365,7.573,14.525
		c-6.711,0.828-12.751,1.573-18.877,2.328c-4.841-15.046-9.537-29.633-14.216-44.178c-3.55,0.397-2.943,2.464-2.479,4.491
		c2.631,11.474,5.27,22.947,7.86,34.429c0.341,1.507,1.081,3.024,0.32,4.953c-4.543,0.291-9.161,0.588-14.136,0.906
		c-1.288-13.563-2.542-26.778-3.798-40.008c-2.173,0.054-2.354,1.604-2.399,3.327c-0.116,4.415-0.271,8.826-0.422,13.238
		c-0.258,7.552-0.522,15.104-0.791,22.881c-6.105-0.273-11.661-0.582-17.614-1.667c2.973-11.993,5.894-23.771,8.812-35.551
		c-0.54-0.201-1.081-0.403-1.624-0.604c-5.003,11.285-10.007,22.57-15.146,34.158c-3.481-2.421-6.359-4.6-9.412-6.492
		c-2.495-1.547-2.657-3.036-1.118-5.5c4.605-7.37,9.028-14.855,13.383-22.375c0.833-1.436,2.584-2.788,1.249-5.715
		c-6.567,7.828-12.831,15.292-19.801,23.598c-0.768-2.908-1.011-4.515-1.61-5.979c-1.481-3.621-0.787-6.447,2.006-9.323
		c3.72-3.829,6.811-8.263,10.44-12.189c2.578-2.792,3.852-5.829,4.288-9.602C525.594,365.281,534.326,359.889,541.883,362.104z"/>
	<path display="none" d="M497.85,295.25c-4.964-1.016-9.672,0.641-12.601,5.19c-3.067,4.764-2.349,9.707,0.102,14.512
		c2.986,5.854-0.51,15.986-6.863,17.789c-5.305,1.507-8.752,4.712-11.91,8.79c-2.54,3.277-5.298,6.382-7.979,9.549
		c-3.997,4.723-8.223,5.589-14.664,2.703c6.313-7.524,12.531-14.935,18.75-22.346c-0.354-0.389-0.708-0.778-1.064-1.167
		c-9.302,6.715-17.226,15.17-26.669,22.288c-3.506-3.473-6.879-6.812-10.612-10.51c10.585-7.157,20.773-14.047,30.961-20.937
		c-0.298-0.478-0.597-0.956-0.894-1.435c-11.121,4.947-22.239,9.896-33.629,14.963c-1.666-6.006-3.454-11.298-4.405-17.039
		c1.531-0.39,2.794-0.761,4.082-1.032c10.211-2.15,20.428-4.276,30.637-6.429c1.908-0.403,4.156-0.593,3.306-3.19
		c-13.438,0.857-26.637,1.7-40.104,2.558c-0.233-4.287-0.493-9.021-0.764-13.966c1.322,0.035,2.778,0.042,4.233,0.115
		c11.891,0.585,23.78,1.176,35.672,1.778c2.196,0.112,4.005-0.137,3.542-3.181c-1.712-0.27-3.288-0.547-4.873-0.763
		c-12.589-1.718-25.182-3.407-37.768-5.161c-1.32-0.182-3.188,0.238-3.31-2.013c-0.304-5.647-0.6-11.297-0.916-17.296
		c1.486,0.396,2.257,0.568,3.009,0.81c14.636,4.686,29.272,9.369,43.9,14.086c2.093,0.674,4.175,1.668,5.02-1.732
		c-1.177-0.591-2.326-1.239-3.526-1.763c-15.065-6.57-30.119-13.166-45.229-19.63c-2.37-1.014-3.551-2.263-3.641-4.961
		c-0.211-6.416-0.753-12.82-1.093-19.231c-0.051-0.948-0.635-2.158,0.855-2.89c18.863,14.131,37.764,28.292,56.561,42.376
		c1.71-1.174,2.708-2.166,2.971-3.701c-0.667-1.486-2.038-2.167-3.151-3.083c-18.083-14.879-36.188-29.735-54.271-44.619
		c-1.01-0.831-2.654-1.47-2.699-2.811c-0.149-4.432,0.025-8.874,0.082-13.812c33.013,27.702,65.363,54.848,97.791,82.057
		C504.573,293.59,502.724,296.25,497.85,295.25z"/>
	<path display="none" d="M490.276,324.376c-1.152,2.11-2.25,4.257-3.254,6.44c-1.205,2.622-2.764,4.583-5.631,5.842
		c-4.781,2.098-9.387,11.833-8.6,17.086c0.479,3.207,3.967,3.149,5.88,5.291c-3.152,2.998-6.846,5.459-9.514,8.887
		c0.706,0.592,1.07,0.898,1.832,1.538c3.749-3.189,0,0,3.749-3.189c0.525,0.44,0.833,0.699,1.218,1.021
		c-0.679,0.808-2.281,2.717-3.12,3.717c0.654,0.549,1.32,1.108,2.461,2.065c0.786-0.936,2.344-2.794,3.12-3.717
		c0.627,0.527,1.375,1.154,1.844,1.549c-1.021,1.218-2.387,2.846-3.118,3.717c0.539,0.452,1.5,1.26,2.475,2.077
		c0.569-0.679,2.121-2.529,3.119-3.717c0.743,0.623,1.052,0.906,1.809,1.541c-1.064,1.268-2.065,2.459-3.108,3.703
		c1.102,0.925,1.846,1.549,2.486,2.086c0.603-0.718,2.183-2.603,3.119-3.717c0.616,0.517,1.166,0.979,1.82,1.527
		c-1.128,1.346-1.892,2.256-3.118,3.717c0.82,0.688,1.704,1.431,2.474,2.076c0.731-0.871,2.043-2.435,3.119-3.716
		c0.525,0.441,0.717,0.603,1.244,1.043c-2.506,4.233,0,0-2.506,4.233c0.539,0.451,1.833,1.531,1.833,1.531s4.654-6.995,7.089-10.462
		c0.26,0.014,0.595-0.073,0.762,0.058c2.134,1.681,2.931,5.583,6.863,4.269c5.924-1.979,11.956-4.262,13.975-10.833
		c1.095-3.56,3.121-5.661,5.901-7.613c5.16-3.622,10.162-7.486,13.515-12.956c7.763-12.651,4.122-27.385-8.896-36.457
		C516.021,302.49,499.753,307.011,490.276,324.376z M500.586,359.325c5.14,0.502,9.699,2.32,13.683,5.206
		c2.165,1.569,1.78,4.042-0.184,5.904c-2.586,2.455-6.736,2.417-9.362-0.038C501.638,367.509,500.087,364.006,500.586,359.325z
		 M485.614,365.902c2.481-2.957,4.239-5.053,8.965-5.059c0.83,4.667-0.929,6.764-3.409,9.72
		C490.821,365.234,490.821,365.234,485.614,365.902z M487.781,342.394c3.321,3.444,5.952,7.384,7.169,12.355
		c-4.07,1.08-7.561,0.487-10.807-1.723c-3.416-2.327-4.347-5.676-2.576-9.283C482.829,341.185,485.829,340.37,487.781,342.394z"/>
	<path display="none" d="M555.292,312.839c-3.276-3.085-9.353,0.369-9.353,0.369s-4.693,2.924-7.427,4.543
		c-4.273-4.299,0,0-4.273-4.299c-4.975-3.46,0,0-4.975-3.46c1.116-2.975,3.183-8.103,3.183-8.103s2.348-6.584-1.261-9.276
		c-1.499-1.117-3.534-0.052-2.314-1.399c1.377-1.641,2.28-2.717,3.656-4.358c3.145,2.639,5.399,4.534,9.229,7.746
		c1.726,1.449,4.292-0.012,5.524-1.481c5.336-6.358,9.781-11.656,12.245-14.593c2.771-3.301,0.258-5.41,0.258-5.41l5.206-6.204
		c0,0,2.411,2.229,3.257,1.22c1.794-2.137,4.152-0.158,4.152-0.158s2.357,1.979,0.565,4.115c-0.845,1.009,1.767,2.997,1.767,2.997
		l-5.205,6.204c0,0-2.513-2.109-5.282,1.192c-2.466,2.937-6.911,8.235-12.245,14.593c-1.233,1.469-2.228,4.249-0.501,5.698
		c3.828,3.212,6.085,5.104,9.23,7.742c-1.376,1.641-2.281,2.717-3.657,4.358C555.958,316.311,556.652,314.121,555.292,312.839z"/>
	<path display="none" d="M484.929,384.05c-10.934,12.497-19.663,27.029-37.063,32.632c2.476-18.104,14.786-29.569,25.457-42.372
		C477.277,377.629,480.984,380.739,484.929,384.05z"/>
</g>
</svg>
