<?xml version="1.0" encoding="utf-8"?>
<!-- Generator: Adobe Illustrator 16.0.3, SVG Export Plug-In . SVG Version: 6.00 Build 0)  -->
<!DOCTYPE svg PUBLIC "-//W3C//DTD SVG 1.1//EN" "http://www.w3.org/Graphics/SVG/1.1/DTD/svg11.dtd">
<svg version="1.1" id="Ebene_4" xmlns="http://www.w3.org/2000/svg" xmlns:xlink="http://www.w3.org/1999/xlink" x="0px" y="0px"
	 width="1417.32px" height="1417.32px" viewBox="0 0 1417.32 1417.32" enable-background="new 0 0 1417.32 1417.32"
	 xml:space="preserve">
<g>
	<path fill="none" d="M1289.298,464.899c-27.372-0.06-40.767,22.391-40.51,41.543c0.268,20.06,14.113,41.107,40.943,41.291
		c19.382,0.132,40.864-15.215,38.334-40.443C1328.009,481.702,1312.63,464.949,1289.298,464.899z"/>
	<path fill="none" d="M553.546,784.538c3.72-0.349,15.472-1.45,15.472-1.45l2.141-80.534c0,0-30.167,0-45.784,0
		C524.258,705.749,488.788,759.748,553.546,784.538z"/>
	<path d="M961.663,413.04c-4.968,0.526-9.717,1.913-14.025,5.072c2.53,3.596,5.72,5.465,9.799,5.876
		c4.296,0.431,7.287-1.623,8.291-5.698C966.438,415.398,964.585,412.731,961.663,413.04z"/>
	<path d="M925.615,412.97c-2.781-0.197-4.135,2.039-3.814,4.845c0.422,3.701,3.766,6.457,7.514,6.253
		c4.407-0.238,7.998-1.999,10.742-6.078C935.607,414.94,930.74,413.334,925.615,412.97z"/>
	<path d="M943.842,423.237c-3.797,3.176-3.797,6.034-3.797,10.063c3.856-4.029,3.856-4.029,7.574,0
		C947.619,429.271,947.619,426.413,943.842,423.237z"/>
	<path d="M1371.677,415.985c0.008-8.201-1.837-15.364-7.564-19.634c-9.947-5.467-15.694,1.961-21.136,4.162
		c-40.405,0-79.289,0-117.957,0c-2.743-6.346-8.427-19.487-8.427-19.487l97.945-2.587v-74.828c0,0-90.645-0.48-116.72,0
		c-6.274,0.116-18.275-2.989-18.275-2.989s-6.84-20.966-10.395-31.863c-18.632-0.815-37.733-1.65-56.905-2.489
		c-1.423-42.882-2.782-83.871-4.115-124.063c-3.836-6.632-7.097-12.272-9.752-16.864c-20.651,0.95-39.91,1.835-59.494,2.736
		c-9.863,12.088-20.387,23.556-29.289,36.165c-26.245,37.18-64.832,51.211-107.237,55.7c-32.489,3.441-65.419,2.601-98.129,4.152
		c-8.092,0.385-16.092,2.667-22.405,3.775c-4.679,7.625-11.645,18.978-11.645,18.978l-143.463,2.644l-15.674-24.678
		c0,0-6.013-0.641-8.749-0.644c-52.853-0.054-213.606,4.991-213.606,4.991s-29.947,32.178-44.875,49.299
		c-8.934,10.246-18.671,16.972-33.043,15.686c-8.828-0.791-17.792-0.235-26.689-0.059c-5.321,0.106-10.634,0.644-16.538,1.025
		c-1.11,10.268-2.039,18.857-3.145,29.089c-9.688,0-18.603-0.935-27.222,0.26c-8.917,1.235-17.55,4.537-26.307,6.935
		c0.171,0.709,0.343,1.418,0.515,2.127c-6.61,0.458-13.221,0.916-19.115,1.325c-2.08,1.557-3.666,2.334-4.692,3.573
		C151.816,381.55,116.395,424.964,80.21,467.73c-9.576,11.316-17.833,22.569-18.434,37.385c-5.376,2.381-9.839,4.359-16.072,7.121
		c-0.047,45.107-0.183,90.426,0.22,135.506c8.997,3.787,16.005,6.735,20.56,8.652c4.436,13.843,8.101,25.284,11.692,36.492
		c18.3,4.124,35.173,3.259,52.306,2.916c50.61-1.01,101.249-0.535,151.876-0.57c4.854-0.003,9.708,0.476,14.427,0.724
		c0,5.538-0.626,10.068,0.167,14.335c0.889,4.785,3.061,9.334,5.007,14.945c-7.838,7.197-15.514,14.244-23.493,21.57
		c-13.289,1.04-19.558,9.506-24.107,21.557c-7.757,20.553-12.601,42.864-29.739,57.73c-7.457,2.228-14.208,4.242-19.605,5.854
		c-25.766,55.936-50.717,110.105-76.502,166.088c18.199,10.359,34.919,19.878,51.78,29.478c0.427,4.146,0.807,7.845,1.239,12.037
		c4.434,3.384,8.51,7.25,13.24,9.985c38.942,22.538,77.974,44.926,117.06,67.215c9.207,5.251,18.697,9.248,29.889,9.118
		c5.81-0.068,12.061,2.316,17.399,5.009c9.397,4.741,18.11,10.818,27.375,15.852c6.555,3.562,13.543,6.324,20.76,9.638
		c13.531-23.147,18.631-47.058,26.705-71.364c-7.092-9.771-14.375-19.81-19.827-27.322c7.909-23.528,14.931-43.896,21.561-64.387
		c3.15-9.729,0.811-18.679-5.742-26.488c-2.843-3.388-5.805-6.676-8.001-9.196c-4.983-15.223,2.153-27.242,6.959-39.465
		c13.342-33.93,33.893-62.171,67.847-80.829c23.006,6.095,48.961-9.781,73.898,3.724c2.419,5.204,4.956,10.658,7.866,16.915
		c5.961,0.877,11.857,1.744,18.928,2.783c0.95,2.26,1.956,3.722,2.168,5.29c3.474,25.787,6.504,51.637,10.329,77.371
		c5.209,35.043,17.599,67.703,35.552,98.092c16.944,28.684,34.841,56.804,52.254,85.212c3.42,5.579,6.541,11.345,9.802,17.022
		c-1.841,26.281-27.389,33.407-40.448,50.997c14.308,18.919,27.883,36.866,42,55.529c13.079-7.208,24.593-13.553,35.859-19.762
		c6.708,7.066,12.661,13.333,19.564,20.605c14.056-8.786,27.003-16.881,40.369-25.237c-1.792-4.414-3.175-7.364-4.187-10.436
		c-1.164-3.537-2.002-7.181-3.237-11.711c4.743-2.822,8.838-5.262,13.281-7.907c6.59,5.436,12.448,10.271,18.779,15.495
		c13.712-8.926,28.916-14.582,39.971-26.662c-3.11-8.97-8.788-17.484,1.397-24.623c11.724-4.245,14.374,11.399,24.873,11.098
		c12.314-7.492,25.032-15.232,37.286-22.69c-2.94-20.024-2.94-20.024,7.813-25.343c4.838,3.127,9.856,6.37,16.067,10.384
		c13.18-8.172,26.241-16.271,39.442-24.455c-1.952-6.414-3.529-11.597-5.704-18.744c6.827-7.572,13.972-15.499,21.996-24.401
		c-12.919-20.124-25.585-39.854-38.023-59.228c-8.028,3.499-14.39,6.27-21.142,9.213c-34.833-43.245-55.667-90.964-65.315-143.723
		c-1.054-5.771-0.141-11.904-0.141-17.058c8.707-3.321,15.652-5.972,21.835-8.33c0-24.139,0-46.216,0-70.578
		c34.859-2.285,69.735-0.362,103.108-1.279c7.172-3.805,13.002-6.898,19.354-10.27c6.777,3.453,13.126,6.687,18.629,9.49
		c10.266,0,19.628,0,27.9,0c5.752-4.587,10.429-8.316,15.319-12.217c4.107,2.268,7.568,3.938,10.768,6.01
		c3.221,2.088,6.184,4.574,9.437,7.02c10.714,0,21.276-0.213,31.829,0.059c11.025,0.283,19.289-4.633,25.699-13.022
		c3.348-4.388,6.074-9.247,8.813-13.476c1.582-36.095-1.908-71.746,5.206-107.684c2.186,0.125,4.249,0.266,6.313,0.361
		c17.166,0.796,19.439-0.678,26.391-16.393c1.957-4.423,4.333-8.661,6.201-12.36c39.732,0,78.576,0,116.605,0
		c6.104,4.878,8.301,13.985,18.893,11.108c3.449-5.224,7.338-11.117,11.28-17.09C1371.635,542.815,1371.603,479.4,1371.677,415.985z
		 M569.019,783.088c0,0-11.752,1.102-15.472,1.45c-64.758-24.79-29.289-78.789-28.171-81.984c15.618,0,45.784,0,45.784,0
		L569.019,783.088z M924.706,344.516c0-2.237,0-3.705,0-5.94c4.287,0,7.362,0.001,12.58,0.001c2.355,0,3.426-2.892,3.426-4.894
		c0-8.668,0-15.89,0-19.895c0-4.498-3.426-4.498-3.426-4.498v-8.458c0,0,3.426,0.163,3.426-1.212c0-2.913,3.215-2.913,3.215-2.913
		s3.216,0,3.216,2.913c0,1.375,3.424,1.212,3.424,1.212v8.458c0,0-3.424,0-3.424,4.498c0,4.004,0,11.226,0,19.895
		c0,2.002,1.07,4.894,3.424,4.894c5.22,0,8.294-0.001,12.581-0.001c0,2.236,0,3.703,0,5.94c0.072,1.896-0.843-0.321-2.789-0.433
		c-4.694-0.27-7.236,6.573-7.236,6.573s-1.79,5.489-2.893,8.619c-6.303-0.571,0,0-6.303-0.571c-6.303,0.571,0,0-6.303,0.571
		c-1.102-3.13-2.892-8.619-2.892-8.619s-2.542-6.842-7.236-6.573C925.549,344.195,924.635,346.412,924.706,344.516z
		 M747.841,1039.253l-56.556-117.842l29.462-14.139l56.553,117.842L747.841,1039.253z M830.409,999.627l-56.555-117.842
		l29.459-14.139l56.555,117.843L830.409,999.627z M863.505,736.745H628.743v-82.554h234.762V736.745z M911.499,412.87
		c-2.185,3.312-3.205,6.597-3.015,10.56c0.267,5.578-0.235,11.198,0.169,16.759c0.305,4.176-1.038,6.903-4.653,8.805
		c-1.461,0.769-2.736,1.89-5.301,3.702c0-11.324,0-21.499,0-32.168c-3.035,1.446-2.541,3.703-2.839,5.409
		c-1.563,8.939-3.049,17.897-4.313,26.884c-0.422,3.003-1.552,4.085-4.585,3.648c-3.712-0.535-7.477-0.724-11.887-1.124
		c3.667-12.72,7.24-25.107,10.813-37.492c-0.568-0.203-1.139-0.405-1.706-0.606c-5.57,11.383-11.141,22.765-16.812,34.354
		c-5.491-3.129-10.143-6.611-15.211-10.491c5.007-6.402,9.862-12.62,14.728-18.833c2.841-3.63,5.677-7.265,8.547-10.873
		c1.122-1.411,2.018-2.771,0.313-4.273c-9.883,9.74-19.756,19.47-29.891,29.455c-3.766-3.595-7.261-6.932-10.7-10.214
		c0.685-2.055,2.297-2.769,3.582-3.747c9.778-7.448,19.59-14.854,29.396-22.266c1.733-1.31,3.604-2.556,1.031-5.255
		c-13.507,8.493-27.054,17.01-41.026,25.795c-4.394-4.715-8.723-9.365-13.538-14.533c5.615-2.323,10.702-4.453,15.809-6.535
		c10.854-4.428,21.706-8.87,32.596-13.211c2.163-0.862,3.345-1.882,2.027-4.687c-11.886,3.515-23.763,7.033-35.643,10.538
		c-6.158,1.818-12.319,3.628-18.49,5.404c-1.269,0.365-2.525,1.237-3.848-0.157c-5.74-6.057-11.543-12.054-18.148-18.932
		c25.871-1.418,50.59-2.773,75.15-4.12c0.83-1.885,0.603-3.353,0.061-5.1c-8.862,0-17.759-0.058-26.656,0.012
		c-16.768,0.134-33.538,0.246-50.302,0.597c-3.569,0.076-6.073-0.801-8.062-3.843c-1.664-2.548-3.815-4.778-6.177-7.674
		c44.715,0,88.845,0,133.104,0c0.992,4.205,0.825,7.516-3.729,10.046c-4.674,2.595-7.167,7.166-6.376,12.713
		c0.776,5.443,4.36,8.938,9.236,11.075C912.687,395.792,916.052,405.967,911.499,412.87z M943.729,499.261
		c-10.157-16.163-7.385-33.647-7.744-50.984c5.379,0,10.431,0,15.822,0C951.751,465.682,953.9,483.116,943.729,499.261z
		 M971.764,396.953c-0.496,2.461-1.058,4.914-1.721,7.335c-0.795,2.908-0.867,5.522,0.584,8.453
		c2.417,4.888-0.435,15.768-4.588,19.442c-2.538,2.243-5.288-0.145-8.255,0.286c0.508,4.515,1.812,8.961,1.644,13.494
		c-0.961,0-1.459,0-2.499,0c-0.856-5.066,0,0-0.856-5.066c-0.716,0-1.135,0-1.659,0c0,1.101,0,3.703,0,5.066c-0.892,0-1.8,0-3.354,0
		c0-1.275,0-3.81,0-5.066c-0.856,0-1.874,0-2.517,0c0,1.66,0,3.878,0,5.066c-0.733,0-2.045,0-3.372,0c0-0.926,0-3.447,0-5.066
		c-1.013,0-1.45,0.017-2.481,0.017c0,1.73,0,3.355,0,5.049c-1.504,0-2.516,0-3.389,0c0-0.978,0-3.546,0-5.066
		c-0.841,0-1.592,0-2.482,0c0,1.834,0,3.075,0,5.066c-1.118,0-2.323,0-3.372,0c0-1.188,0-3.319,0-5.066c-0.716,0-0.979,0-1.694,0
		c-0.84,5.066,0,0-0.84,5.066c-0.73,0-2.492-0.005-2.492-0.005s0.971-8.719,1.35-13.128c-0.215-0.164-0.427-0.458-0.647-0.464
		c-2.835-0.088-6.092,2.499-8.356-1.193c-3.409-5.559-6.701-11.433-3.907-18.046c1.514-3.581,1.304-6.623,0.39-10.051
		c-1.696-6.36-3.104-12.809-2.115-19.436c2.283-15.33,15.086-24.673,31.589-23.192C965.858,362.164,975.839,376.7,971.764,396.953z
		 M1105.729,369.63c-0.936,1.042-2.679,0.45-4.047,0.436c-24.455-0.232-48.909-0.5-73.363-0.734c-1.505-0.016-3.06-0.391-4.59,0.35
		c-0.819,1.405-0.688,2.867-0.107,4.954c24.49,1.352,49.114,2.711,73.692,4.067c0.7,1.585-0.581,2.162-1.257,2.887
		c-4.576,4.9-9.309,9.66-13.783,14.65c-1.883,2.097-3.667,2.303-6.242,1.524c-16.428-4.971-32.896-9.798-49.356-14.655
		c-1.313-0.387-2.667-0.641-4.005-0.958c-1.607,3.288,0.726,3.89,2.854,4.757c14.866,6.044,29.718,12.123,44.572,18.198
		c0.762,0.312,1.496,0.693,2.951,1.372c-4.282,4.586-8.309,8.909-12.344,13.222c-1.608,1.718-2.822,0.128-4-0.611
		c-11.242-7.045-22.45-14.146-33.675-21.223c-1.414-0.891-2.86-1.727-4.41-2.661c-2.415,2.124-1.134,3.537,0.697,4.923
		c9.918,7.499,19.826,15.006,29.731,22.521c1.211,0.918,2.382,1.891,3.463,2.751c-3.536,3.773-6.922,7.387-9.986,10.659
		c-10.197-9.727-20.189-19.261-30.364-28.965c-2.425,1.507-0.753,3.168,0.502,4.771c6.723,8.576,13.47,17.134,20.193,25.709
		c0.847,1.081,1.609,2.226,2.573,3.563c-4.615,3.955-9.596,6.987-14.963,10.673c-5.709-11.7-11.282-23.121-16.856-34.542
		c-0.559,0.182-1.118,0.366-1.678,0.548c3.525,12.349,7.051,24.699,10.714,37.53c-5.469,0.452-10.409,0.86-15.545,1.285
		c-2.775-12.034-3.44-24.115-6.372-35.732c-0.546,0.073-1.09,0.146-1.636,0.22c0,10.103,0,20.207,0,30.461
		c-7.089-2.014-9.888-5.544-9.914-12.004c-0.02-4.333-0.142-8.67,0.026-12.997c0.211-5.381-0.396-10.257-3.629-15.024
		c-3.869-5.708,0.134-16.159,6.45-18.838c5.188-2.198,9.081-5.669,9.824-11.54c0.711-5.604-1.942-10.091-6.597-12.611
		c-4.569-2.473-4.263-5.84-3.627-10.042c44.205,0,88.306,0,133.31,0C1111.666,362.515,1108.823,366.186,1105.729,369.63z
		 M1289.731,547.733c-26.83-0.184-40.676-21.231-40.943-41.291c-0.257-19.152,13.138-41.603,40.51-41.543
		c23.332,0.05,38.711,16.803,38.768,42.391C1330.596,532.518,1309.113,547.865,1289.731,547.733z"/>
	<rect x="628.743" y="654.191" display="none" fill="#FFFFFF" width="234.762" height="82.554"/>
	
		<rect x="668.937" y="956.925" transform="matrix(-0.4327 -0.9015 0.9015 -0.4327 174.5621 2056.3728)" display="none" fill="#FFFFFF" width="130.71" height="32.676"/>
	
		<rect x="751.506" y="917.299" transform="matrix(-0.4327 -0.9016 0.9016 -0.4327 328.5735 2074.0388)" display="none" fill="#FFFFFF" width="130.71" height="32.676"/>
	<path display="none" d="M905.155,392.492c-4.876-2.136-8.46-5.632-9.236-11.075c-0.791-5.547,1.702-10.118,6.376-12.713
		c4.554-2.53,4.721-5.841,3.729-10.046c-44.26,0-88.39,0-133.104,0c2.361,2.896,4.513,5.126,6.177,7.674
		c1.988,3.042,4.492,3.919,8.062,3.843c16.764-0.352,33.534-0.463,50.302-0.597c8.897-0.07,17.794-0.012,26.656-0.012
		c0.542,1.747,0.77,3.215-0.061,5.1c-24.561,1.347-49.279,2.702-75.15,4.12c6.605,6.878,12.408,12.875,18.148,18.932
		c1.322,1.394,2.579,0.522,3.848,0.157c6.171-1.776,12.332-3.586,18.49-5.404c11.88-3.504,23.757-7.023,35.643-10.538
		c1.317,2.804,0.136,3.824-2.027,4.687c-10.89,4.342-21.741,8.783-32.596,13.211c-5.106,2.082-10.193,4.212-15.809,6.535
		c4.815,5.168,9.145,9.818,13.538,14.533c13.973-8.785,27.52-17.303,41.026-25.795c2.572,2.699,0.702,3.945-1.031,5.255
		c-9.807,7.412-19.618,14.817-29.396,22.266c-1.285,0.978-2.897,1.692-3.582,3.747c3.439,3.283,6.935,6.619,10.7,10.214
		c10.135-9.985,20.008-19.715,29.891-29.455c1.705,1.502,0.81,2.862-0.313,4.273c-2.87,3.608-5.706,7.242-8.547,10.873
		c-4.865,6.213-9.721,12.431-14.728,18.833c5.068,3.88,9.72,7.361,15.211,10.491c5.671-11.589,11.241-22.971,16.812-34.354
		c0.567,0.201,1.138,0.403,1.706,0.606c-3.572,12.385-7.146,24.772-10.813,37.492c4.41,0.399,8.175,0.588,11.887,1.124
		c3.033,0.437,4.163-0.645,4.585-3.648c1.264-8.986,2.75-17.944,4.313-26.884c0.298-1.706-0.196-3.963,2.839-5.409
		c0,10.669,0,20.844,0,32.168c2.564-1.813,3.84-2.934,5.301-3.702c3.615-1.902,4.958-4.629,4.653-8.805
		c-0.404-5.561,0.098-11.181-0.169-16.759c-0.19-3.963,0.83-7.248,3.015-10.56C916.052,405.967,912.687,395.792,905.155,392.492z"/>
	<path display="none" d="M985.254,368.568c4.654,2.52,7.308,7.006,6.597,12.611c-0.743,5.87-4.637,9.342-9.824,11.54
		c-6.316,2.68-10.319,13.131-6.45,18.838c3.233,4.767,3.84,9.643,3.629,15.024c-0.168,4.326-0.046,8.663-0.026,12.997
		c0.026,6.46,2.825,9.99,9.914,12.004c0-10.255,0-20.359,0-30.461c0.546-0.074,1.09-0.147,1.636-0.22
		c2.932,11.617,3.597,23.698,6.372,35.732c5.136-0.425,10.076-0.833,15.545-1.285c-3.663-12.831-7.188-25.181-10.714-37.53
		c0.56-0.182,1.119-0.366,1.678-0.548c5.574,11.421,11.147,22.843,16.856,34.542c5.367-3.686,10.348-6.718,14.963-10.673
		c-0.964-1.338-1.727-2.483-2.573-3.563c-6.724-8.575-13.471-17.133-20.193-25.709c-1.255-1.602-2.927-3.263-0.502-4.771
		c10.175,9.705,20.167,19.238,30.364,28.965c3.064-3.272,6.45-6.886,9.986-10.659c-1.081-0.86-2.252-1.833-3.463-2.751
		c-9.905-7.514-19.813-15.021-29.731-22.521c-1.831-1.386-3.112-2.799-0.697-4.923c1.55,0.934,2.996,1.77,4.41,2.661
		c11.225,7.077,22.433,14.178,33.675,21.223c1.178,0.74,2.392,2.33,4,0.611c4.035-4.313,8.062-8.635,12.344-13.222
		c-1.455-0.679-2.189-1.061-2.951-1.372c-14.854-6.075-29.706-12.154-44.572-18.198c-2.128-0.867-4.461-1.469-2.854-4.757
		c1.338,0.317,2.691,0.571,4.005,0.958c16.46,4.857,32.929,9.684,49.356,14.655c2.575,0.779,4.359,0.573,6.242-1.524
		c4.475-4.991,9.207-9.75,13.783-14.65c0.676-0.726,1.957-1.302,1.257-2.887c-24.578-1.356-49.202-2.715-73.692-4.067
		c-0.58-2.087-0.712-3.549,0.107-4.954c1.53-0.741,3.085-0.366,4.59-0.35c24.454,0.234,48.908,0.502,73.363,0.734
		c1.368,0.014,3.111,0.605,4.047-0.436c3.094-3.445,5.937-7.116,9.207-11.104c-45.004,0-89.104,0-133.31,0
		C980.991,362.729,980.685,366.096,985.254,368.568z"/>
	<path display="none" d="M946.721,360.447c-16.503-1.481-29.306,7.862-31.589,23.192c-0.988,6.627,0.419,13.076,2.115,19.436
		c0.914,3.428,1.124,6.47-0.39,10.051c-2.794,6.613,0.498,12.487,3.907,18.046c2.265,3.692,5.521,1.105,8.356,1.193
		c0.221,0.006,0.433,0.301,0.647,0.464c-0.379,4.409-1.35,13.128-1.35,13.128s1.762,0.005,2.492,0.005c0.84-5.066,0,0,0.84-5.066
		c0.716,0,0.979,0,1.694,0c0,1.747,0,3.878,0,5.066c1.049,0,2.254,0,3.372,0c0-1.992,0-3.232,0-5.066c0.891,0,1.642,0,2.482,0
		c0,1.52,0,4.089,0,5.066c0.873,0,1.885,0,3.389,0c0-1.694,0-3.319,0-5.049c1.031,0,1.469-0.017,2.481-0.017c0,1.62,0,4.14,0,5.066
		c1.327,0,2.639,0,3.372,0c0-1.188,0-3.407,0-5.066c0.643,0,1.66,0,2.517,0c0,1.257,0,3.791,0,5.066c1.555,0,2.463,0,3.354,0
		c0-1.363,0-3.966,0-5.066c0.524,0,0.943,0,1.659,0c0.856,5.066,0,0,0.856,5.066c1.04,0,1.538,0,2.499,0
		c0.168-4.532-1.136-8.979-1.644-13.494c2.967-0.43,5.717,1.958,8.255-0.286c4.153-3.675,7.005-14.555,4.588-19.442
		c-1.451-2.931-1.379-5.545-0.584-8.453c0.663-2.421,1.225-4.874,1.721-7.335C975.839,376.7,965.858,362.164,946.721,360.447z
		 M929.314,424.068c-3.748,0.203-7.092-2.552-7.514-6.253c-0.32-2.806,1.033-5.042,3.814-4.845
		c5.125,0.365,9.992,1.971,14.441,5.021C937.313,422.069,933.722,423.83,929.314,424.068z M940.045,433.3
		c0-4.029,0-6.888,3.797-10.063c3.777,3.176,3.777,6.034,3.777,10.063C943.901,429.271,943.901,429.271,940.045,433.3z
		 M965.728,418.29c-1.004,4.075-3.995,6.128-8.291,5.698c-4.079-0.411-7.269-2.28-9.799-5.876c4.309-3.159,9.058-4.545,14.025-5.072
		C964.585,412.731,966.438,415.398,965.728,418.29z"/>
	<path display="none" d="M927.496,344.083c4.694-0.27,7.236,6.573,7.236,6.573s1.79,5.489,2.892,8.619c6.303-0.571,0,0,6.303-0.571
		c6.303,0.571,0,0,6.303,0.571c1.103-3.13,2.893-8.619,2.893-8.619s2.542-6.842,7.236-6.573c1.946,0.112,2.861,2.329,2.789,0.433
		c0-2.237,0-3.705,0-5.94c-4.287,0-7.361,0.001-12.581,0.001c-2.354,0-3.424-2.892-3.424-4.894c0-8.668,0-15.89,0-19.895
		c0-4.498,3.424-4.498,3.424-4.498v-8.458c0,0-3.424,0.163-3.424-1.212c0-2.913-3.216-2.913-3.216-2.913s-3.215,0-3.215,2.913
		c0,1.375-3.426,1.212-3.426,1.212v8.458c0,0,3.426,0,3.426,4.498c0,4.004,0,11.226,0,19.895c0,2.002-1.07,4.894-3.426,4.894
		c-5.218,0-8.293-0.001-12.58-0.001c0,2.236,0,3.703,0,5.94C924.635,346.412,925.549,344.195,927.496,344.083z"/>
	<path display="none" d="M935.985,448.277c0.359,17.337-2.413,34.821,7.744,50.984c10.171-16.145,8.021-33.579,8.078-50.984
		C946.416,448.277,941.364,448.277,935.985,448.277z"/>
</g>
</svg>
