<?xml version="1.0" encoding="utf-8"?>
<!-- Generator: Adobe Illustrator 16.0.3, SVG Export Plug-In . SVG Version: 6.00 Build 0)  -->
<!DOCTYPE svg PUBLIC "-//W3C//DTD SVG 1.1//EN" "http://www.w3.org/Graphics/SVG/1.1/DTD/svg11.dtd">
<svg version="1.1" id="Ebene_3" xmlns="http://www.w3.org/2000/svg" xmlns:xlink="http://www.w3.org/1999/xlink" x="0px" y="0px"
	 width="1417.32px" height="1417.32px" viewBox="0 0 1417.32 1417.32" enable-background="new 0 0 1417.32 1417.32"
	 xml:space="preserve">
<g>
	<path fill="none" d="M442.186,337.403c6.696,6,7.252,16.298,1.249,22.986c-6.007,6.694-16.297,7.251-22.99,1.25
		c-6.692-6.005-7.249-16.297-1.244-22.991C425.203,331.957,435.496,331.399,442.186,337.403z"/>
	<path fill="none" d="M339.568,135.722c-6.69-6.006-7.248-16.297-1.245-22.991c6.005-6.69,16.295-7.251,22.989-1.248
		c6.693,6.005,7.253,16.299,1.246,22.994C356.557,141.165,346.263,141.726,339.568,135.722z"/>
	<path fill="none" d="M416.553,204.787c-6.694-6.002-7.248-16.293-1.243-22.987c6.001-6.693,16.292-7.249,22.988-1.248
		c6.694,6.006,7.248,16.296,1.243,22.992C433.537,210.234,423.244,210.792,416.553,204.787z"/>
	<path fill="none" d="M286.329,219.443c-6.005,6.693-16.295,7.249-22.991,1.245c-6.691-6.002-7.248-16.298-1.245-22.986
		c6.005-6.695,16.3-7.253,22.989-1.249C291.775,202.455,292.331,212.75,286.329,219.443z"/>
	<path fill="none" d="M360.686,208.956c-6.007,6.694-16.297,7.251-22.993,1.249c-6.69-6.006-7.25-16.296-1.243-22.99
		c6.003-6.695,16.296-7.249,22.987-1.247C366.132,191.973,366.688,202.264,360.686,208.956z"/>
	<path fill="none" d="M441.887,281.809c-6.005,6.693-16.294,7.253-22.989,1.247c-6.695-6.002-7.25-16.295-1.247-22.989
		c6.005-6.691,16.293-7.25,22.99-1.248C447.331,264.824,447.889,275.117,441.887,281.809z"/>
	<circle fill="none" cx="351.194" cy="277.638" r="16.28"/>
	<path fill="none" d="M496.674,276.668c-6.692-6.001-7.252-16.293-1.247-22.987c6.002-6.694,16.298-7.251,22.991-1.248
		c6.693,6.005,7.252,16.297,1.244,22.995C513.658,282.118,503.367,282.675,496.674,276.668z"/>
	<path d="M553.4,1043.73c20.469-5.642,40.924-11.328,61.382-17.009c2.143-0.595,4.286-1.192,6.914-1.922
		c-1.477-3.456-2.657-6.798-4.277-9.908c-4.843-9.307-12.356-15.642-22.383-18.654c-8.098-2.432-15.911-1.037-23.184,3.167
		c-3.715,2.149-7.262,4.593-10.97,6.754c-1.159,0.674-2.579,0.939-3.909,1.272c-1.736,0.43-3.297,0.179-4.85-0.936
		c-2.791-2.005-7.44-1.3-9.564,1.452c-2.107,2.732-4.629,4.604-8.027,5.504c-1.099,0.291-2.135,1.501-2.831,2.538
		c-2.672,3.979-1.916,7.73,1.857,10.568c1.176,0.882,2.78,1.428,3.207,3.408c-6.19,1.066-12.503-0.709-18.582,1.575
		c0.417,1.509,0.82,2.956,1.281,4.621c1.17-0.325,2.3-0.771,3.461-0.909c0.664-0.078,1.823,0.177,1.99,0.591
		c0.428,1.064-0.564,1.422-1.428,1.667c-1.093,0.311-2.192,0.612-3.532,0.984c0.331,1.189,0.521,2.323,0.98,3.332
		c0.201,0.438,0.958,0.867,1.462,0.867c1.138,0.007,2.276-0.36,3.412-0.354c0.472,0.009,0.944,0.58,1.415,0.895
		c-0.325,0.392-0.576,0.991-0.99,1.138c-1.388,0.494-2.837,0.829-4.348,1.25c0.465,1.669,0.872,3.136,1.356,4.884
		c1.457-0.404,2.908-0.876,4.391-1.184c0.467-0.096,1.023,0.248,1.536,0.39c0.292,0.081,0.625,0.299,0.882,0.229
		c4.479-1.227,8.951-2.483,13.421-3.757c0.188-0.055,0.318-0.291,0.718-0.671c-2.699-0.768-5.447-0.185-7.974-2.15
		c0.912-0.499,1.521-1.012,2.209-1.186c4.311-1.064,8.49-1.06,12.427,1.462C551.479,1044.039,552.608,1043.951,553.4,1043.73z
		 M550.737,1038.614c-4.623-4.838-7.584-10.578-9.874-16.905c0.028-1.186-0.391-2.68,0.174-3.49c1.214-1.758,2.78-3.374,4.482-4.677
		c3.977-3.034,9.376-1.708,11.735,2.742c0.265,0.503,0.281,1.215,0.206,1.802c-0.721,5.73-1.417,11.465-2.289,17.173
		c-0.185,1.209-0.903,2.416-1.637,3.44C552.715,1039.842,551.789,1039.71,550.737,1038.614z"/>
	<path d="M559.349,1049.723c3.417,4.504,7.027,8.86,10.535,13.298c0.342,0.427,0.687,0.962,0.748,1.481
		c0.521,4.478-3.305,8.728-7.815,8.543c-1.747-0.065-3.473-0.616-5.211-0.934c-2.033-0.372-2.958-1.578-3.429-3.627
		c-1.619-7.023-2.141-14.007-0.077-21.168C556.416,1047.139,557.988,1047.929,559.349,1049.723z"/>
	<path d="M615.622,1083.167c-17.892,18.274-40.103,24.053-64.637,16.824c-21.603-6.369-33.885-22.767-41.948-43.121
		c6.691-1.859,13.088-3.643,19.502-5.382c0.294-0.081,0.702,0.267,1.057,0.418c-0.26,0.343-0.449,0.882-0.786,0.997
		c-1.396,0.476-2.831,0.822-4.262,1.22c0.365,1.313,0.666,2.394,1.006,3.628c1.31-0.365,2.497-0.797,3.724-0.99
		c0.527-0.083,1.131,0.329,1.703,0.512c-0.36,0.495-0.616,1.178-1.1,1.433c-1.143,0.603-2.393,0.999-3.568,1.468
		c0.46,1.656,0.866,3.12,1.316,4.742c1.329-0.369,2.521-0.766,3.743-1.009c0.461-0.09,0.993,0.173,1.489,0.274
		c-0.313,0.446-0.533,1.092-0.963,1.307c-1.253,0.63-2.596,1.09-3.849,1.595c0.478,1.726,0.897,3.23,1.398,5.039
		c1.791-0.77,3.479-1.326,5.007-2.178c3.449-1.931,6.805-4.033,10.243-5.993c0.433-0.246,1.125-0.031,1.697-0.035
		c-0.056,0.586-0.038,1.19-0.194,1.751c-0.095,0.362-0.461,0.644-0.671,0.983c-2.676,4.299,0.467,11.307,5.456,12.134
		c0.384,0.064,0.812,0.048,1.182-0.057c3.044-0.859,6.024-0.531,8.983,0.39c3.775,1.178,6.82,0.366,9.172-3.024
		c0.808-1.161,2.032-2.245,3.314-2.829c3.958-1.813,8.016-2.429,12.514-1.777c12.228,1.758,22.824-1.476,30.333-11.87
		c6.11-8.457,7.471-18.076,6.055-28.214c-0.258-1.852-0.614-3.691-0.926-5.548c3.37-0.936,6.564-1.823,10.167-2.825
		C636.111,1045.875,631.935,1066.503,615.622,1083.167z"/>
	<path d="M651.199,1022.579c-1.04-3.748-2.047-7.372-3.107-11.188c-2.091,0.271-4.125,0.469-6.132,0.824
		c-0.996,0.174-1.39-0.144-1.813-1.013c-1.997-4.123-4.052-8.214-6.155-12.278c-0.412-0.794-0.474-1.284,0.219-1.919
		c1.271-1.155,2.507-2.361,3.648-3.644c0.305-0.341,0.481-1.226,0.258-1.53c-2.013-2.78-4.125-5.485-6.304-8.34
		c-2.091,1.193-3.848,2.275-5.686,3.197c-0.441,0.218-1.343,0.122-1.708-0.197c-3.666-3.201-7.264-6.478-11.102-9.934
		c0.745-1.936,1.621-4.221,2.632-6.854c-3.407-1.843-6.818-3.682-10.404-5.622c-1.434,1.914-2.895,3.867-4.208,5.623
		c-4.963-1.545-9.772-3.008-14.547-4.572c-0.391-0.127-0.772-0.907-0.799-1.4c-0.103-2.047-0.068-4.104-0.088-6.399
		c-3.945-0.489-7.785-0.97-11.792-1.469c-0.466,2.227-0.833,4.245-1.343,6.227c-0.116,0.456-0.694,1.105-1.094,1.134
		c-5.025,0.329-10.053,0.563-15.316,0.833c-0.561-1.538-1.279-3.337-1.863-5.185c-0.337-1.062-0.783-1.526-1.965-1.179
		c-3.027,0.889-6.071,1.714-9.125,2.512c-0.909,0.241-1.164,0.654-0.984,1.595c0.378,2.021,0.634,4.058,0.903,5.847
		c-4.534,2.362-8.883,4.655-13.271,6.858c-0.39,0.195-1.206-0.031-1.592-0.345c-1.37-1.127-2.603-2.427-3.981-3.544
		c-0.343-0.277-1.214-0.36-1.547-0.122c-2.828,2.037-5.586,4.177-8.504,6.388c1.26,1.878,2.439,3.548,3.503,5.286
		c0.243,0.407,0.328,1.273,0.072,1.566c-3.4,3.855-6.882,7.645-10.489,11.605c-1.917-0.862-4.101-1.851-6.716-3.03
		c-1.894,3.55-3.769,7.063-5.7,10.681c2.083,1.369,4.079,2.685,5.817,3.827c-1.609,5.054-3.13,9.914-4.729,14.744
		c-0.122,0.371-0.785,0.761-1.216,0.785c-1.771,0.097-3.556-0.011-5.328,0.104c-0.453,0.027-1.192,0.549-1.253,0.932
		c-0.581,3.488-1.037,6.997-1.545,10.603c2.271,0.579,4.253,1.116,6.252,1.579c0.878,0.201,1.135,0.618,1.19,1.524
		c0.244,4.573,0.526,9.146,0.94,13.706c0.105,1.166-0.234,1.639-1.244,1.988c-1.787,0.62-3.539,1.331-5.523,2.085
		c1.12,4.025,2.225,8.013,3.368,12.125c2.404-0.516,4.688-1.005,7.098-1.525c1.094,2.421,2.103,4.837,3.275,7.173
		c1.076,2.151,2.243,4.265,3.526,6.296c0.609,0.956,0.477,1.454-0.314,2.137c-1.465,1.271-2.85,2.646-4.546,4.234
		c2.307,2.889,4.556,5.753,6.889,8.546c0.209,0.251,1.063,0.229,1.453,0.022c1.569-0.83,3.054-1.824,4.624-2.649
		c0.37-0.196,1.128-0.181,1.417,0.07c3.837,3.345,7.627,6.748,11.652,10.339c-0.79,1.87-1.722,4.071-2.802,6.626
		c3.468,1.911,6.951,3.833,10.581,5.835c1.433-2.1,2.808-4.11,4.003-5.867c4.937,1.519,9.704,2.961,14.444,4.483
		c0.416,0.136,0.893,0.814,0.927,1.269c0.125,1.77,0.021,3.556,0.151,5.324c0.03,0.448,0.57,1.167,0.958,1.229
		c3.501,0.538,7.02,0.964,10.684,1.438c0.643-2.602,1.224-4.971,1.736-7.058c5.273-0.522,10.333-1.052,15.405-1.476
		c0.431-0.035,1.162,0.561,1.353,1.027c0.729,1.803,1.292,3.668,1.989,5.727c3.977-1.103,7.859-2.183,11.929-3.311
		c-0.366-2.001-0.664-3.908-1.078-5.791c-0.25-1.13,0.002-1.664,1.147-2.193c3.789-1.762,7.533-3.638,11.191-5.661
		c1.208-0.666,1.859-0.58,2.747,0.378c1.284,1.373,2.707,2.616,4.242,4.08c3.075-2.421,6.066-4.785,9.111-7.187
		c-1.159-2.071-2.232-3.893-3.199-5.771c-0.197-0.387-0.192-1.164,0.063-1.456c3.257-3.764,6.573-7.471,10.014-11.345
		c1.962,0.816,4.17,1.742,6.646,2.774c1.897-3.374,3.766-6.69,5.689-10.106c-2.146-1.499-4.111-2.87-5.86-4.091
		c1.559-5.005,3.042-9.873,4.631-14.711c0.131-0.399,0.902-0.782,1.409-0.83c2.045-0.206,4.105-0.271,6.458-0.407
		c0.4-3.567,0.823-7.08,1.14-10.605c0.029-0.314-0.603-0.87-1.028-1.019c-1.678-0.591-3.422-0.989-5.077-1.623
		c-0.46-0.178-0.961-0.894-1.01-1.402c-0.416-4.444-0.686-8.907-1.101-13.353c-0.091-0.973,0.087-1.467,1.036-1.796
		C647.316,1024.118,649.165,1023.359,651.199,1022.579z M640.711,1026.427c0.6,4.957,1.109,9.918,1.564,14.89
		c0.091,0.979,0.556,1.225,1.37,1.39c1.844,0.373,3.67,0.814,5.609,1.25c-0.372,2.86-0.677,5.586-1.127,8.288
		c-0.062,0.37-0.813,0.85-1.271,0.889c-1.597,0.115-3.208,0.126-4.81,0.054c-0.976-0.05-1.409,0.296-1.707,1.221
		c-1.478,4.586-2.987,9.163-4.579,13.709c-0.362,1.037-0.056,1.557,0.71,2.147c1.53,1.176,2.994,2.427,4.521,3.675
		c-1.605,2.688-3.098,5.185-4.612,7.719c-1.792-0.715-3.417-1.456-5.105-1.98c-0.543-0.169-1.49,0.02-1.862,0.414
		c-3.422,3.631-6.742,7.36-10.128,11.025c-0.614,0.666-0.663,1.158-0.146,1.929c1.173,1.743,2.233,3.566,3.401,5.462
		c-2.482,1.912-4.863,3.745-7.258,5.589c-0.617-0.576-1.075-1.004-1.538-1.433c-1.212-1.125-2.311-2.94-3.673-3.172
		c-1.371-0.235-3.02,1.083-4.522,1.779c-3.682,1.703-7.35,3.438-11.084,5.189c0.477,2.42,0.93,4.698,1.391,7.022
		c-3.138,0.871-6.109,1.697-9.259,2.57c-0.727-2.159-1.435-4.258-2.192-6.512c-5.561,0.447-11.099,0.878-16.627,1.389
		c-0.371,0.034-0.839,0.67-0.991,1.119c-0.611,1.769-1.108,3.569-1.66,5.391c-3.033-0.348-5.863-0.669-8.795-1.006
		c0.027-2.102,0.137-4.046,0.028-5.98c-0.031-0.546-0.597-1.365-1.095-1.529c-4.789-1.589-9.621-3.037-14.424-4.589
		c-0.882-0.284-1.346-0.074-1.86,0.627c-1.174,1.601-2.419,3.138-3.237,4.192c-2.898-1.453-5.543-2.781-8.222-4.123
		c0.685-1.865,1.396-3.621,1.945-5.425c0.139-0.46-0.032-1.273-0.37-1.583c-3.642-3.329-7.358-6.575-11.021-9.875
		c-0.672-0.604-1.179-0.641-1.94-0.126c-1.607,1.082-3.297,2.043-5.084,3.138c-1.919-2.545-3.769-4.995-5.695-7.547
		c1.422-1.361,2.699-2.663,4.069-3.858c0.771-0.682,0.916-1.263,0.426-2.2c-2.29-4.365-4.544-8.753-6.736-13.174
		c-0.42-0.843-0.88-1.028-1.736-0.871c-1.577,0.287-3.167,0.546-4.761,0.694c-0.445,0.043-1.221-0.214-1.34-0.527
		c-0.487-1.259-0.776-2.592-1.189-4.079c5.017-1.393,9.789-2.717,14.563-4.045c-8.758-30.271,8.744-67.695,39.648-76.715
		c32.745-9.553,67.516-0.401,83.192,43.289c4.866-1.35,9.65-2.68,14.521-4.03c0.427,1.535,0.802,2.891,1.229,4.424
		c-1.784,0.713-3.512,1.45-5.275,2.085C641.042,1024.934,640.572,1025.277,640.711,1026.427z"/>
	<path d="M149.925,137.282c-27.19-4.99-35.751,17.6-36.76,37.201c-3.132,60.55-11.014,122.487-2.144,181.643
		c12.94,86.272,57.576,102.448,137.053,58.291c30.394,27.271,61.517,55.193,92.924,83.371c11.354-5.319,20.688-9.677,32.577-15.242
		C417.037,521.533,461.24,561.194,506.726,602c-7.273,12.409-13.972,23.838-21.594,36.845c2.832,2.539,5.663,5.079,8.494,7.615
		c21.456-23.912,26.645-29.696,48.507-54.066c3.279,2.945,20.886,18.739,24.165,21.681c-25.326,28.228-32.614,36.354-48.507,54.069
		c4.063,3.646,8.127,7.29,12.188,10.937c15.509-17.288,31.049-34.609,48.508-54.067c2.782,2.492,21.17,18.991,23.952,21.487
		c-21.681,24.164-36.839,41.057-48.509,54.064c4.137,3.71,8.269,7.42,12.403,11.128c18.675-20.814,26.829-29.903,48.504-54.066
		c2.638,2.364,21.527,19.313,24.166,21.679c-17.073,19.031-33.765,37.637-48.505,54.066c4.062,3.646,8.124,7.291,12.188,10.938
		c18.003-20.069,23.184-25.839,48.509-54.069c2.705,2.431,21.88,19.632,24.589,22.064c-18.223,20.314-30.502,34.001-48.503,54.064
		c3.917,3.516,7.836,7.034,11.761,10.553c10.71-11.94,36.995-41.235,48.503-54.066c2.426,2.175,21.529,19.315,23.953,21.489
		c-17.842,19.887-40.769,45.439-48.507,54.063c4.06,3.646,8.124,7.292,12.189,10.938c20.495-22.846,7.262-8.092,48.507-54.063
		c2.993,2.683,21.596,19.374,24.592,22.062c-43.552,48.542-29.258,32.611-48.507,54.066c3.631,3.259,7.271,6.52,10.907,9.782
		c2.849,2.56,5.7,5.115,8.554,7.674c2.85,2.562,5.7,5.118,8.553,7.676c1.01,0.903,2.019,1.81,3.029,2.717
		c10.673-8.308,21.157-16.46,33.592-26.13c8.588,7.7,16.676,14.958,26.478,23.753c-7.231,13.764-16.693,26.642-20.771,41.047
		c-3.703,13.129-1.555,27.911-2.195,48.532c-21.512-12.583-41.625-24.101-61.487-36.034c-27.58-16.587-53.57-18.514-85.639-6.375
		c-53.868,20.389-109.823,36.927-166.264,48.325c-46.012,9.289-83.362,53.828-72.97,99.961c3.702,16.426,8.192,32.733,13.305,48.776
		c18.51,58.116,39.565,75.555,99.309,77.746c11.869,0.431,23.69-11.232,36.268-14.472c55.784-14.362,113.268-23.718,167.147-43.146
		c24.623-8.883,44.507-35.108,62.484-56.813c12.833-15.498,18.915-36.589,28.014-55.181c2.65,2.864,5.306,5.728,7.96,8.6
		c24.047-7.073,48.099-14.148,81.654-24.011c18.278,11.233,47.222,26.34,72.972,45.707c19.818,14.903,32.188,32.459,10.279,60.322
		c-15.622,19.857-20.467,48.199-27.66,66.479c-19.639,8.236-30.817,12.929-42.102,17.664
		c14.135,30.477,88.626,74.224,113.755,64.102c15.357-6.172,30.021-23.191,37.203-38.891c20.355-44.494,20.604-81.762,6.08-137.117
		c13.342-8.679,26.194-17.044,42.563-27.698c46.324,41.557,91.447,82.043,136.485,122.451
		c41.245-24.283,78.854-43.124,80.811-96.542c1.205-32.797,12.574-65.225,21.137-106.214c-5.206-6.119-16.462-19.341-27.202-31.963
		c3.059-13.213,5.977-25.798,6.812-29.416c-53.768-48.236-101.882-91.405-154.333-138.46c-0.012,0.061,1.104-7.974,2.209-16.013
		c-16.038-14.388-31.465-28.229-47.222-42.362c-10.25,3.917-18.826,7.199-26.098,9.981c-3.73-1.312-6.034-1.561-7.637-2.754
		c-59.324-44.228-59.383-44.264-32.751-112.588c10.333-26.515,22.105-52.523,30.992-79.494c3.207-9.752,4.364-25.876-1.25-31.827
		c-23.666-25.109-49.702-48.126-76.323-70.152c-4.131-3.417-15.83,2.311-31.551,5.179c21.326,22.598,36.188,38.341,54.248,57.48
		c-36.475,40.653-72.176,80.447-104.479,116.451c-61.512-10.296-100.62-47.282-140.516-84
		c-67.492-62.099-136.307-122.744-204.424-184.177c-10.05-9.073-19.29-19.064-29.712-29.432c4.182-10.861,7.866-20.42,12.909-33.541
		c-74.387-66.739-149.795-134.391-226.781-203.461c-42.731,47.628-84.436,94.118-128.138,142.826
		c16.526,17.137,31.371,32.536,51.484,53.394c-26.149-1.024-45.233-1.767-69.496-2.71c1.409-26.226,1.607-48.942,4.087-71.402
		C187.04,158.648,174.794,141.856,149.925,137.282z M339.568,135.722c-6.69-6.006-7.248-16.297-1.245-22.991
		c6.005-6.69,16.295-7.251,22.989-1.248c6.693,6.005,7.253,16.299,1.246,22.994C356.557,141.165,346.263,141.726,339.568,135.722z
		 M285.083,196.453c6.692,6.001,7.248,16.297,1.246,22.99c-6.005,6.693-16.295,7.249-22.991,1.245
		c-6.691-6.002-7.248-16.298-1.245-22.986C268.099,191.006,278.394,190.448,285.083,196.453z M359.437,185.968
		c6.695,6.005,7.251,16.296,1.249,22.988c-6.007,6.694-16.297,7.251-22.993,1.249c-6.69-6.006-7.25-16.296-1.243-22.99
		C342.453,180.52,352.746,179.965,359.437,185.968z M416.553,204.787c-6.694-6.002-7.248-16.293-1.243-22.987
		c6.001-6.693,16.292-7.249,22.988-1.248c6.694,6.006,7.248,16.296,1.243,22.992C433.537,210.234,423.244,210.792,416.553,204.787z
		 M970.008,934.286c9.093,12.107,23.66,23.88,21.587,30.22c-5.654,17.315-18.321,32.35-30.191,51.479
		c-15.398-13.817-24.894-22.332-35.842-32.157C940.313,967.387,953.199,953.021,970.008,934.286z M499.032,1159.198
		c0.108,0.389,0.183,0.78,0.273,1.167c-0.25-0.462-0.594-0.903-0.731-1.401c-17.242-62.036-34.466-124.079-51.694-186.122
		c-0.122-0.438-0.261-0.88-0.353-1.327c-0.018-0.063,0.174-0.17,0.272-0.256c0.134,0.437,0.291,0.868,0.414,1.307
		C464.487,1034.78,481.761,1096.988,499.032,1159.198z M653.667,1015.032c13.067,46.599-13.863,94.834-60.169,107.766
		c-46.432,12.968-94.592-13.977-107.474-60.127c-13.043-46.742,13.871-94.747,60.396-107.739
		C592.572,942.041,640.773,969.057,653.667,1015.032z M458.455,386.056c105.519,94.669,208.311,186.891,311.109,279.119
		c-1.133,1.295-2.265,2.592-3.396,3.885c-56.634-50.809-113.269-101.623-168.632-151.292c-12.929,6.578-22.005,11.197-30.389,15.457
		c-44.968-40.349-88.323-79.24-133.374-119.657C442.632,403.698,449.222,396.352,458.455,386.056z M442.186,337.403
		c6.696,6,7.252,16.298,1.249,22.986c-6.007,6.694-16.297,7.251-22.99,1.25c-6.692-6.005-7.249-16.297-1.244-22.991
		C425.203,331.957,435.496,331.399,442.186,337.403z M440.641,258.818c6.69,6.006,7.248,16.299,1.246,22.991
		c-6.005,6.693-16.294,7.253-22.989,1.247c-6.695-6.002-7.25-16.295-1.247-22.989C423.657,253.375,433.945,252.816,440.641,258.818z
		 M496.674,276.668c-6.692-6.001-7.252-16.293-1.247-22.987c6.002-6.694,16.298-7.251,22.991-1.248
		c6.693,6.005,7.252,16.297,1.244,22.995C513.658,282.118,503.367,282.675,496.674,276.668z M182.224,346.688
		c19.002-2.152,38.558,0.622,57.888,1.391c1.41,3.89,2.814,7.779,4.225,11.667c-19.731,9.804-38.767,22.107-59.613,27.885
		c-6.227,1.74-17.513-14.749-26.478-22.893C166.199,358.416,173.656,347.65,182.224,346.688z M362.065,265.52
		c6.694,6.004,7.253,16.297,1.248,22.989c-6.002,6.694-16.295,7.25-22.989,1.248c-6.693-6.006-7.25-16.298-1.248-22.988
		C345.081,260.073,355.373,259.515,362.065,265.52z"/>
	<path d="M540.061,1052.213c-0.424,0.043-1.106-0.245-1.265-0.572c-0.14-0.295,0.151-1.057,0.482-1.268
		c3.477-2.293,6.5-5.505,11.505-5.46c-1.09,1.378-1.954,2.728-3.071,3.823C545.608,1050.8,542.996,1051.931,540.061,1052.213z"/>
	<path display="none" fill="#FFFFFF" d="M766.168,669.06c-56.634-50.809-113.269-101.623-168.632-151.292
		c-12.929,6.578-22.005,11.197-30.389,15.457c-44.968-40.349-88.323-79.24-133.374-119.657c8.858-9.869,15.448-17.215,24.681-27.511
		c105.519,94.669,208.311,186.891,311.109,279.119C768.432,666.47,767.3,667.767,766.168,669.06z"/>
	<path display="none" fill="#FFFFFF" d="M991.595,964.505c-5.654,17.315-18.321,32.35-30.191,51.479
		c-15.398-13.817-24.894-22.332-35.842-32.157c14.751-16.439,27.638-30.806,44.446-49.541
		C979.101,946.393,993.668,958.166,991.595,964.505z"/>
	<path display="none" fill="#FFFFFF" d="M240.112,348.078c1.41,3.89,2.814,7.779,4.225,11.667
		c-19.731,9.804-38.767,22.107-59.613,27.885c-6.227,1.74-17.513-14.749-26.478-22.893c7.954-6.321,15.41-17.086,23.978-18.049
		C201.226,344.536,220.782,347.31,240.112,348.078z"/>
	<path d="M499.306,1160.365c-0.25-0.462-0.594-0.903-0.731-1.401c-17.242-62.036-34.466-124.079-51.694-186.122
		c-0.122-0.438-0.261-0.88-0.353-1.327c-0.018-0.063,0.174-0.17,0.272-0.256c0.134,0.437,0.291,0.868,0.414,1.307
		c17.274,62.215,34.548,124.423,51.819,186.633C499.141,1159.586,499.215,1159.978,499.306,1160.365z"/>
	<path display="none" d="M653.667,1015.032c-12.894-45.975-61.095-72.991-107.248-60.101
		c-46.524,12.992-73.439,60.997-60.396,107.739c12.881,46.15,61.042,73.095,107.474,60.127
		C639.805,1109.866,666.735,1061.63,653.667,1015.032z M648.092,1011.391c1.06,3.815,2.067,7.439,3.107,11.188
		c-2.034,0.78-3.883,1.539-5.769,2.191c-0.949,0.329-1.127,0.823-1.036,1.796c0.415,4.445,0.685,8.908,1.101,13.353
		c0.049,0.509,0.55,1.225,1.01,1.402c1.654,0.634,3.398,1.032,5.077,1.623c0.425,0.148,1.057,0.704,1.028,1.019
		c-0.316,3.525-0.74,7.038-1.14,10.605c-2.353,0.136-4.413,0.201-6.458,0.407c-0.507,0.048-1.278,0.431-1.409,0.83
		c-1.588,4.838-3.072,9.706-4.631,14.711c1.749,1.221,3.713,2.592,5.86,4.091c-1.923,3.416-3.792,6.732-5.689,10.106
		c-2.476-1.032-4.684-1.958-6.646-2.774c-3.441,3.874-6.757,7.581-10.014,11.345c-0.255,0.292-0.26,1.069-0.063,1.456
		c0.967,1.878,2.04,3.699,3.199,5.771c-3.045,2.401-6.036,4.766-9.111,7.187c-1.535-1.464-2.958-2.707-4.242-4.08
		c-0.887-0.958-1.539-1.044-2.747-0.378c-3.658,2.023-7.402,3.899-11.191,5.661c-1.145,0.529-1.397,1.063-1.147,2.193
		c0.414,1.883,0.712,3.79,1.078,5.791c-4.07,1.128-7.952,2.208-11.929,3.311c-0.697-2.059-1.26-3.924-1.989-5.727
		c-0.19-0.467-0.922-1.063-1.353-1.027c-5.073,0.424-10.132,0.953-15.405,1.476c-0.513,2.087-1.094,4.456-1.736,7.058
		c-3.664-0.475-7.183-0.9-10.684-1.438c-0.387-0.063-0.928-0.781-0.958-1.229c-0.13-1.769-0.026-3.555-0.151-5.324
		c-0.035-0.454-0.512-1.133-0.927-1.269c-4.74-1.522-9.508-2.965-14.444-4.483c-1.196,1.757-2.571,3.768-4.003,5.867
		c-3.63-2.002-7.113-3.924-10.581-5.835c1.08-2.555,2.012-4.756,2.802-6.626c-4.025-3.591-7.814-6.994-11.652-10.339
		c-0.29-0.251-1.048-0.267-1.417-0.07c-1.57,0.825-3.054,1.819-4.624,2.649c-0.391,0.207-1.244,0.229-1.453-0.022
		c-2.333-2.793-4.582-5.657-6.889-8.546c1.696-1.589,3.081-2.963,4.546-4.234c0.791-0.683,0.923-1.181,0.314-2.137
		c-1.283-2.031-2.45-4.145-3.526-6.296c-1.172-2.336-2.181-4.752-3.275-7.173c-2.41,0.521-4.694,1.01-7.098,1.525
		c-1.143-4.112-2.248-8.1-3.368-12.125c1.984-0.754,3.736-1.465,5.523-2.085c1.01-0.35,1.349-0.822,1.244-1.988
		c-0.414-4.56-0.696-9.133-0.94-13.706c-0.055-0.906-0.313-1.323-1.19-1.524c-1.999-0.463-3.98-1-6.252-1.579
		c0.508-3.605,0.965-7.114,1.545-10.603c0.062-0.383,0.8-0.904,1.253-0.932c1.772-0.114,3.557-0.007,5.328-0.104
		c0.431-0.024,1.094-0.414,1.216-0.785c1.599-4.83,3.12-9.69,4.729-14.744c-1.738-1.143-3.733-2.458-5.817-3.827
		c1.931-3.618,3.806-7.131,5.7-10.681c2.615,1.18,4.799,2.168,6.716,3.03c3.606-3.961,7.088-7.75,10.489-11.605
		c0.256-0.293,0.171-1.159-0.072-1.566c-1.064-1.738-2.243-3.408-3.503-5.286c2.918-2.211,5.676-4.351,8.504-6.388
		c0.333-0.238,1.205-0.155,1.547,0.122c1.379,1.117,2.612,2.417,3.981,3.544c0.386,0.313,1.202,0.54,1.592,0.345
		c4.389-2.203,8.737-4.496,13.271-6.858c-0.27-1.789-0.525-3.826-0.903-5.847c-0.18-0.94,0.075-1.354,0.984-1.595
		c3.054-0.798,6.098-1.623,9.125-2.512c1.182-0.348,1.628,0.117,1.965,1.179c0.583,1.848,1.302,3.646,1.863,5.185
		c5.264-0.27,10.291-0.504,15.316-0.833c0.4-0.028,0.978-0.678,1.094-1.134c0.51-1.981,0.876-4,1.343-6.227
		c4.007,0.499,7.848,0.979,11.792,1.469c0.02,2.296-0.015,4.353,0.088,6.399c0.027,0.493,0.408,1.273,0.799,1.4
		c4.775,1.564,9.584,3.027,14.547,4.572c1.314-1.756,2.775-3.709,4.208-5.623c3.586,1.94,6.997,3.779,10.404,5.622
		c-1.012,2.633-1.887,4.918-2.632,6.854c3.838,3.456,7.437,6.732,11.102,9.934c0.366,0.319,1.267,0.415,1.708,0.197
		c1.838-0.922,3.595-2.004,5.686-3.197c2.179,2.854,4.291,5.56,6.304,8.34c0.223,0.305,0.047,1.189-0.258,1.53
		c-1.142,1.282-2.377,2.488-3.648,3.644c-0.693,0.635-0.631,1.125-0.219,1.919c2.103,4.064,4.158,8.155,6.155,12.278
		c0.424,0.869,0.818,1.187,1.813,1.013C643.967,1011.86,646,1011.662,648.092,1011.391z"/>
	<path display="none" d="M640.711,1026.427c-0.139-1.15,0.331-1.493,1.252-1.821c1.763-0.635,3.491-1.372,5.275-2.085
		c-0.426-1.533-0.802-2.889-1.229-4.424c-4.871,1.351-9.654,2.681-14.521,4.03c-15.677-43.69-50.448-52.842-83.192-43.289
		c-30.904,9.02-48.407,46.443-39.648,76.715c-4.774,1.328-9.547,2.652-14.563,4.045c0.414,1.487,0.702,2.82,1.189,4.079
		c0.12,0.313,0.896,0.57,1.34,0.527c1.594-0.148,3.184-0.407,4.761-0.694c0.855-0.157,1.316,0.028,1.736,0.871
		c2.192,4.421,4.446,8.809,6.736,13.174c0.49,0.938,0.345,1.519-0.426,2.2c-1.371,1.195-2.647,2.497-4.069,3.858
		c1.927,2.552,3.776,5.002,5.695,7.547c1.788-1.095,3.477-2.056,5.084-3.138c0.761-0.515,1.268-0.478,1.94,0.126
		c3.664,3.3,7.379,6.546,11.021,9.875c0.337,0.31,0.509,1.123,0.37,1.583c-0.548,1.804-1.26,3.56-1.945,5.425
		c2.679,1.342,5.324,2.67,8.222,4.123c0.818-1.055,2.063-2.592,3.237-4.192c0.515-0.701,0.979-0.911,1.86-0.627
		c4.803,1.552,9.635,3,14.424,4.589c0.498,0.164,1.064,0.983,1.095,1.529c0.109,1.935-0.001,3.879-0.028,5.98
		c2.932,0.337,5.762,0.658,8.795,1.006c0.552-1.821,1.049-3.622,1.66-5.391c0.152-0.449,0.621-1.085,0.991-1.119
		c5.528-0.511,11.066-0.941,16.627-1.389c0.757,2.254,1.466,4.353,2.192,6.512c3.15-0.873,6.121-1.699,9.259-2.57
		c-0.461-2.324-0.914-4.603-1.391-7.022c3.735-1.752,7.403-3.486,11.084-5.189c1.503-0.696,3.152-2.015,4.522-1.779
		c1.363,0.231,2.461,2.047,3.673,3.172c0.463,0.429,0.921,0.856,1.538,1.433c2.395-1.844,4.776-3.677,7.258-5.589
		c-1.168-1.896-2.228-3.719-3.401-5.462c-0.517-0.771-0.469-1.263,0.146-1.929c3.386-3.665,6.706-7.395,10.128-11.025
		c0.373-0.395,1.319-0.583,1.862-0.414c1.688,0.524,3.314,1.266,5.105,1.98c1.514-2.534,3.006-5.03,4.612-7.719
		c-1.527-1.248-2.991-2.499-4.521-3.675c-0.766-0.591-1.072-1.11-0.71-2.147c1.591-4.546,3.101-9.123,4.579-13.709
		c0.298-0.925,0.73-1.271,1.707-1.221c1.602,0.072,3.213,0.062,4.81-0.054c0.458-0.039,1.209-0.519,1.271-0.889
		c0.45-2.702,0.756-5.428,1.127-8.288c-1.939-0.436-3.766-0.877-5.609-1.25c-0.814-0.165-1.279-0.411-1.37-1.39
		C641.82,1036.345,641.312,1031.384,640.711,1026.427z M614.782,1026.721c-20.458,5.681-40.913,11.367-61.382,17.009
		c-0.792,0.221-1.921,0.309-2.545-0.092c-3.937-2.521-8.116-2.526-12.427-1.462c-0.688,0.174-1.297,0.687-2.209,1.186
		c2.527,1.966,5.275,1.383,7.974,2.15c-0.4,0.38-0.529,0.616-0.718,0.671c-4.471,1.273-8.943,2.53-13.421,3.757
		c-0.257,0.07-0.59-0.147-0.882-0.229c-0.513-0.142-1.069-0.485-1.536-0.39c-1.483,0.308-2.934,0.779-4.391,1.184
		c-0.485-1.748-0.892-3.215-1.356-4.884c1.511-0.421,2.96-0.756,4.348-1.25c0.414-0.146,0.665-0.746,0.99-1.138
		c-0.471-0.314-0.943-0.886-1.415-0.895c-1.135-0.006-2.273,0.361-3.412,0.354c-0.504,0-1.261-0.43-1.462-0.867
		c-0.459-1.009-0.649-2.143-0.98-3.332c1.34-0.372,2.439-0.674,3.532-0.984c0.864-0.245,1.856-0.603,1.428-1.667
		c-0.167-0.414-1.326-0.669-1.99-0.591c-1.162,0.138-2.292,0.584-3.461,0.909c-0.461-1.665-0.864-3.112-1.281-4.621
		c6.078-2.284,12.391-0.509,18.582-1.575c-0.427-1.98-2.031-2.526-3.207-3.408c-3.772-2.838-4.529-6.589-1.857-10.568
		c0.696-1.037,1.732-2.247,2.831-2.538c3.397-0.899,5.92-2.771,8.027-5.504c2.124-2.752,6.773-3.457,9.564-1.452
		c1.553,1.114,3.114,1.365,4.85,0.936c1.33-0.333,2.75-0.599,3.909-1.272c3.708-2.161,7.255-4.604,10.97-6.754
		c7.273-4.204,15.085-5.599,23.184-3.167c10.026,3.013,17.54,9.348,22.383,18.654c1.621,3.11,2.801,6.452,4.277,9.908
		C619.068,1025.529,616.925,1026.126,614.782,1026.721z M550.783,1044.914c-1.09,1.378-1.954,2.728-3.071,3.823
		c-2.104,2.063-4.716,3.194-7.651,3.477c-0.424,0.043-1.106-0.245-1.265-0.572c-0.14-0.295,0.151-1.057,0.482-1.268
		C542.754,1048.081,545.778,1044.869,550.783,1044.914z M554.098,1047.317c2.318-0.178,3.89,0.612,5.25,2.406
		c3.417,4.504,7.027,8.86,10.535,13.298c0.342,0.427,0.687,0.962,0.748,1.481c0.521,4.478-3.305,8.728-7.815,8.543
		c-1.747-0.065-3.473-0.616-5.211-0.934c-2.033-0.372-2.958-1.578-3.429-3.627C552.556,1061.461,552.034,1054.478,554.098,1047.317z
		 M615.622,1083.167c-17.892,18.274-40.103,24.053-64.637,16.824c-21.603-6.369-33.885-22.767-41.948-43.121
		c6.691-1.859,13.088-3.643,19.502-5.382c0.294-0.081,0.702,0.267,1.057,0.418c-0.26,0.343-0.449,0.882-0.786,0.997
		c-1.396,0.476-2.831,0.822-4.262,1.22c0.365,1.313,0.666,2.394,1.006,3.628c1.31-0.365,2.497-0.797,3.724-0.99
		c0.527-0.083,1.131,0.329,1.703,0.512c-0.36,0.495-0.616,1.178-1.1,1.433c-1.143,0.603-2.393,0.999-3.568,1.468
		c0.46,1.656,0.866,3.12,1.316,4.742c1.329-0.369,2.521-0.766,3.743-1.009c0.461-0.09,0.993,0.173,1.489,0.274
		c-0.313,0.446-0.533,1.092-0.963,1.307c-1.253,0.63-2.596,1.09-3.849,1.595c0.478,1.726,0.897,3.23,1.398,5.039
		c1.791-0.77,3.479-1.326,5.007-2.178c3.449-1.931,6.805-4.033,10.243-5.993c0.433-0.246,1.125-0.031,1.697-0.035
		c-0.056,0.586-0.038,1.19-0.194,1.751c-0.095,0.362-0.461,0.644-0.671,0.983c-2.676,4.299,0.467,11.307,5.456,12.134
		c0.384,0.064,0.812,0.048,1.182-0.057c3.044-0.859,6.024-0.531,8.983,0.39c3.775,1.178,6.82,0.366,9.172-3.024
		c0.808-1.161,2.032-2.245,3.314-2.829c3.958-1.813,8.016-2.429,12.514-1.777c12.228,1.758,22.824-1.476,30.333-11.87
		c6.11-8.457,7.471-18.076,6.055-28.214c-0.258-1.852-0.614-3.691-0.926-5.548c3.37-0.936,6.564-1.823,10.167-2.825
		C636.111,1045.875,631.935,1066.503,615.622,1083.167z"/>
	<path display="none" d="M550.737,1038.614c-4.623-4.838-7.584-10.578-9.874-16.905c0.028-1.186-0.391-2.68,0.174-3.49
		c1.214-1.758,2.78-3.374,4.482-4.677c3.977-3.034,9.376-1.708,11.735,2.742c0.265,0.503,0.281,1.215,0.206,1.802
		c-0.721,5.73-1.417,11.465-2.289,17.173c-0.185,1.209-0.903,2.416-1.637,3.44C552.715,1039.842,551.789,1039.71,550.737,1038.614z"
		/>
</g>
</svg>
