<?xml version="1.0" encoding="utf-8"?>
<!-- Generator: Adobe Illustrator 16.0.3, SVG Export Plug-In . SVG Version: 6.00 Build 0)  -->
<!DOCTYPE svg PUBLIC "-//W3C//DTD SVG 1.1//EN" "http://www.w3.org/Graphics/SVG/1.1/DTD/svg11.dtd">
<svg version="1.1" id="Ebene_2" xmlns="http://www.w3.org/2000/svg" xmlns:xlink="http://www.w3.org/1999/xlink" x="0px" y="0px"
	 width="1417.32px" height="1417.32px" viewBox="0 0 1417.32 1417.32" enable-background="new 0 0 1417.32 1417.32"
	 xml:space="preserve">
<g>
	<path fill="none" d="M946.963,640.192c-19.803,0.615-19.845-3.596-19.914-10.587c-5.577-52.946-5.577-52.946-5.577-52.946
		l-48.047,0.377l0.421,41.25l-50.452,0.515l0.09,8.872l50.454-0.514c0,0,104.907,108.491,132.94,133.005
		c23.852,25.274,57.896,36.84,95.187,30.291c27.525-4.835,55.033-10.334,78.618-25.572c17.107-11.054,50.995-41.675,50.995-41.675
		l-78.785-85.171c0,0-21.871,0.228-33.604,0.342C1066.094,638.922,1000.146,639.515,946.963,640.192z"/>
	<path fill="none" d="M465.242,821.732c-34.163,3.837-34.676-25.141-47.689-40.493c-4.435,0.044-8.972,0.089-15.592,0.157
		c0.162,15.693,0.42,41.34,0.539,52.71l90.631-2.395l-2.133-50.226c0,0-27.192,0.273-38.903,0.393
		C456.611,795.586,460.687,807.916,465.242,821.732z"/>
	<path d="M875.539,1032.541c0.388,0.292,1.219,0.423,1.567,0.195c0.307-0.201,0.478-1.114,0.287-1.521
		c-2.014-4.278-3.046-9.19-7.928-12.12c0.241,1.987,0.283,3.809,0.719,5.533C870.995,1027.878,872.859,1030.523,875.539,1032.541z"
		/>
	<path d="M858.307,1018.68c-5.985,2.345-12.073,4.427-18.11,6.653c-0.582,0.207-1.237,0.521-1.604,0.993
		c-3.16,4.039-1.969,10.424,2.51,12.927c1.742,0.962,3.733,1.46,5.61,2.179c2.198,0.844,3.813,0.225,5.483-1.479
		c5.732-5.854,10.387-12.316,12.634-20.488C862.688,1017.91,860.69,1017.75,858.307,1018.68z"/>
	<path d="M783.878,1017.732c6.518,28.342,24.634,47.131,52.716,54.676c24.734,6.638,46.381-1.982,66.276-16.948
		c-5.388-5.772-10.539-11.292-15.725-16.785c-0.234-0.253-0.838-0.154-1.277-0.218c0.046,0.484-0.085,1.116,0.176,1.427
		c1.069,1.287,2.257,2.479,3.411,3.716c-1.136,1.057-2.066,1.928-3.125,2.917c-1.058-1.133-1.959-2.25-3.031-3.166
		c-0.465-0.397-1.293-0.359-1.954-0.511c0.06,0.686-0.104,1.507,0.215,2.039c0.753,1.263,1.726,2.388,2.592,3.538
		c-1.429,1.334-2.689,2.512-4.094,3.82c-1.071-1.148-1.992-2.235-3.027-3.201c-0.396-0.363-1.071-0.416-1.607-0.615
		c0.037,0.62-0.133,1.37,0.162,1.839c0.837,1.356,1.866,2.601,2.78,3.834c-1.483,1.386-2.781,2.596-4.348,4.058
		c-1.284-1.813-2.585-3.352-3.56-5.087c-2.204-3.92-4.209-7.95-6.387-11.887c-0.271-0.494-1.065-0.707-1.626-1.04
		c-0.288,0.595-0.665,1.174-0.842,1.807c-0.123,0.409,0.06,0.9,0.062,1.357c0.055,5.757-7.155,10.69-12.486,8.533
		c-0.409-0.167-0.815-0.437-1.117-0.761c-2.44-2.636-5.522-4.088-8.94-4.946c-4.357-1.103-6.831-3.693-7.109-8.378
		c-0.091-1.602-0.636-3.383-1.526-4.712c-2.771-4.107-6.34-7.107-11.091-9.15c-12.905-5.546-21.268-14.971-22.379-29.507
		c-0.913-11.833,3.476-21.962,10.866-30.966c1.35-1.641,2.782-3.213,4.189-4.825c-2.715-2.909-5.288-5.665-8.185-8.769
		C786.13,969.406,777.941,991.894,783.878,1017.732z"/>
	<path d="M870.157,1017.815c5.313-0.106,9.369,2.37,12.918,5.958c0.566,0.577,0.85,1.431,1.441,2.458
		c-3.619,0.41-5.938-1.78-9.011-2.645c0.156,0.605,0.152,0.916,0.295,1.081c3.582,3.886,7.179,7.757,10.795,11.611
		c0.199,0.213,0.655,0.205,0.991,0.299c0.586,0.16,1.326,0.162,1.719,0.532c1.257,1.174,2.385,2.495,3.555,3.748
		c1.505-1.405,2.771-2.587,4.216-3.936c-1.215-1.302-2.426-2.484-3.476-3.783c-0.308-0.393-0.2-1.118-0.282-1.695
		c0.642-0.024,1.435-0.3,1.9-0.024c1.105,0.666,1.983,1.698,3.098,2.362c0.493,0.297,1.479,0.335,1.932,0.028
		c1.05-0.705,1.904-1.691,2.93-2.649c-1.078-1.156-1.961-2.102-2.848-3.05c-0.686-0.746-1.435-1.691-0.392-2.462
		c0.405-0.308,1.683,0.138,2.281,0.604c1.054,0.822,1.878,1.929,2.817,2.938c1.438-1.345,2.684-2.507,3.987-3.723
		c-4.539-5.825-11.719-7.85-17.096-12.556c1.591-1.667,3.475-1.244,5.134-1.405c5.346-0.509,8.305-3.697,8.074-9.154
		c-0.06-1.415-0.349-3.2-1.237-4.132c-2.764-2.889-4.102-6.199-4.523-10.104c-0.424-3.928-4.519-7.369-8.414-7.084
		c-2.165,0.158-3.832-0.521-5.26-1.968c-1.096-1.112-2.313-2.215-3.034-3.557c-2.316-4.296-4.308-8.766-6.641-13.052
		c-4.558-8.396-11.306-14.388-20.607-16.826c-11.511-3.027-22.561-1.346-32.78,4.811c-3.416,2.059-6.545,4.596-10.027,7.073
		c2.117,2.268,3.844,4.115,5.569,5.964c16.477,17.651,32.94,35.307,49.446,52.919
		C868.269,1017.086,869.313,1017.839,870.157,1017.815z M870.486,1011.435c-0.104-1.421-0.085-3.026,0.454-4.306
		c2.54-6.055,5.265-12.03,7.968-18.015c0.281-0.616,0.715-1.295,1.272-1.624c4.925-2.919,10.945-1,13.01,4.298
		c0.879,2.272,1.434,4.767,1.568,7.196c0.067,1.121-1.222,2.325-1.899,3.494c-5.979,4.773-12.253,8.587-19.608,10.538
		C871.584,1013.454,870.604,1013.035,870.486,1011.435z"/>
	<path d="M1359.387,633.07l-5.059-6.711l-62.767,43.297c-3.635-3.347-7.301-6.724-11.017-10.137
		c-7.307-6.718-14.866-13.679-23.298-21.436l74.968-5.176l-3.332-244.945c0,0-25.602,0.281-38.016,0.39
		c-112.312,0.986-336.923,3.494-336.923,3.494s-28.087-2.317-29.293,18.98c-0.888,12.883-4.235,57.807-4.235,57.807
		s-30.905,0.316-47.975,0.486c-0.116-11.479-0.311-30.692-0.311-30.692l-28.948,0.078l-26.899,0.277c0,0-1.217-77.781-1.531-108.861
		c27.076-2.248,78.012-2.845,78.012-2.845l-3.23-48.31l-50.959,0.194l-48.77,3.079l-48.42,5.878L633.89,402.06l-414.029-3.054
		c-24.015,0.048-45.277,6.179-64.104,23.28c-15.745,0.157-32.088,0.324-44.55,0.452c-20.599,10.465-6.971,28.131-17.079,43.739
		c-21.14,8.679-25.236,36.993-43.816,53.641c-0.283,6.868-0.563,13.728-0.804,19.583c-5.598,3.094-9.482,5.239-13.223,7.305
		c0.114,11.386,0.219,22.023,0.34,33.648c4.555,5.62,9.614,11.864,15.428,19.034c0.497,49.031,1.003,98.425,1.482,145.323
		c5.55,8.859,12.609,10.551,18.959,13.199c8.29,3.457,5.399,15.736,15.441,18.381c33.563-0.348,67.816-0.695,102.425-1.047
		c7.607-7.197,15.276-14.46,21.534-20.381c11.213-0.115,20.502-0.211,28.318-0.287c18.967,12.73,23.269,32.828,33.063,49.059
		c-17.878,20.186-36.9,32.949-62.527,42.477c-17.869,6.645-30.707,17.369-40.367,35.176
		c-18.233,33.626-27.858,69.831-36.997,106.213c-2.436,9.707-3.829,17.465-12.98,22.759c-13.855,8.005-16.827,23.502-21.921,36.683
		c-4.789,12.387-2.885,20.713,2.164,30.854c5.988,12.021,6.154,23.09,28.799,35.929c25.886,8.536,120.915,39.89,120.915,39.89
		c31.263,9.685,66.703-3.113,74.325-19.314c7.623-16.198-10.22-30.772-22.058-42.021c9.101-23.687,26.732-44.966,10.776-65.847
		c-2.645-22.774,14.287-21.495,25.903-38.943c11.609-17.442-0.273-26.454-0.448-43.327c6.892-16.05,34.186-7.457,24.021-23.344
		c6.245-25.303,27.188-36.994,41.133-54.74c29.155-0.293,57.387-0.579,85.955-0.873c2.357,4.068,4.598,7.963,7.049,12.193
		c31.246-0.319,62.678-0.643,96.255-0.983c-0.241-23.383-0.674-65.927-0.674-65.927s0,0,21.611,0.159
		c6.534,28.011,39.516,18.347,39.516,18.347s0,0,32.894,40.692c-36.23,51.043-24.688,121.695-2.912,155.057
		c21.778,33.365,162.852,176.227,162.852,176.227s52.528,50.336,132.56-3.864c9.569-4.375,37.999-24.692,71.134-83.032
		c33.142-58.343-3.854-103.867-3.854-103.867s-165.336-202.103-189.83-206.382c-41.5-19.787-94.873,16.527-94.873,16.527
		l-20.329-28.806c0,0,55.597-0.57,85.345-0.867c-0.183-18.295-0.338-33.187-0.511-50.079c12.463-0.128,32.854-0.334,32.854-0.334
		l-0.739-36.167c0,0,76.257,112.431,173.739,149.573c96.283,27.127,199.622-39.35,199.622-39.35
		c32.36-27.479,160.1-135.679,160.76-138.393c-4.73-6.296-4.73-6.296-4.73-6.296l8.246-7.296l0.941-16.42l-10.94-18.075
		l-13.562-3.041L1359.387,633.07z M1231.407,441.476c0.163-9.852,8.298-17.692,18.147-17.521
		c9.835,0.178,17.681,8.297,17.505,18.152c-0.179,9.846-8.3,17.68-18.144,17.506C1239.073,459.438,1231.23,451.319,1231.407,441.476
		z M1113.54,439.382c0.177-9.842,8.303-17.683,18.136-17.509c9.854,0.173,17.691,8.298,17.518,18.144
		c-0.17,9.843-8.298,17.68-18.14,17.507C1121.205,457.356,1113.363,449.231,1113.54,439.382z M1171.581,502.513
		c0.185-9.849,8.291-17.685,18.14-17.514c9.846,0.175,17.684,8.297,17.518,18.14c-0.177,9.848-8.297,17.685-18.144,17.516
		C1179.242,520.483,1171.411,512.354,1171.581,502.513z M1229.203,566.463c0.168-9.842,8.286-17.682,18.131-17.504
		c9.848,0.167,17.689,8.294,17.515,18.133c-0.173,9.848-8.296,17.689-18.146,17.515
		C1236.863,584.438,1229.029,576.308,1229.203,566.463z M493.13,831.712l-90.631,2.395c-0.118-11.37-0.377-37.017-0.539-52.71
		c6.62-0.068,11.157-0.113,15.592-0.157c13.013,15.353,13.526,44.33,47.689,40.493c-4.555-13.816-8.631-26.146-13.148-39.854
		c11.711-0.119,38.903-0.393,38.903-0.393L493.13,831.712z M1014.035,1009.348c0.043,0.138,0.161,0.354,0.109,0.402
		c-0.359,0.388-0.75,0.731-1.13,1.086c-53.519,49.96-107.039,99.921-160.561,149.866c-0.437,0.407-1.031,0.624-1.549,0.93
		c0.32-0.324,0.626-0.665,0.953-0.974c53.664-50.094,107.328-100.192,160.995-150.29
		C1013.234,1010.014,1013.641,1009.689,1014.035,1009.348z M927.091,934.4c37.419,40.207,35.043,102.746-5.347,140.346
		c-39.864,37.123-102.573,34.687-139.918-5.442c-37.251-40.014-34.752-102.785,5.568-140.234
		C827.184,892.126,889.966,894.521,927.091,934.4z M508.847,508.602l-308.698,3.148l-0.41-40.214l308.695-3.148L508.847,508.602z
		 M998.082,562.38c0.171-9.843,8.29-17.689,18.135-17.511c9.841,0.174,17.687,8.294,17.512,18.14
		c-0.171,9.85-8.295,17.681-18.143,17.514C1005.743,580.348,997.898,572.227,998.082,562.38z M1231.678,723.208
		c0,0-33.888,30.621-50.995,41.675c-23.585,15.238-51.093,20.737-78.618,25.572c-37.291,6.549-71.335-5.017-95.187-30.291
		c-28.033-24.514-132.94-133.005-132.94-133.005l-50.454,0.514l-0.09-8.872l50.452-0.515l-0.421-41.25l48.047-0.377
		c0,0,0,0,5.577,52.946c0.069,6.991,0.111,11.202,19.914,10.587c53.184-0.677,119.131-1.27,172.325-1.813
		c11.733-0.114,33.604-0.342,33.604-0.342L1231.678,723.208z M1140.826,578.18c-7.442,6.44-18.711,5.632-25.156-1.812
		c-6.45-7.444-5.638-18.704,1.809-25.147c7.451-6.451,18.714-5.639,25.156,1.809C1149.072,560.474,1148.27,571.733,1140.826,578.18z
		 M1087.773,501.027c-0.164,9.848-8.285,17.682-18.143,17.517c-9.841-0.183-17.68-8.295-17.505-18.144
		c0.176-9.848,8.302-17.688,18.134-17.513C1080.121,483.059,1087.951,491.181,1087.773,501.027z M1035.939,438.012
		c-0.177,9.841-8.297,17.686-18.141,17.512c-9.842-0.178-17.687-8.296-17.514-18.142c0.18-9.845,8.298-17.683,18.148-17.511
		C1028.269,420.049,1036.115,428.168,1035.939,438.012z"/>
	<path d="M789.609,943.405c0.729,0.883,0.602,1.468-0.059,2.354c-3.036,4.072-5.955,8.236-8.995,12.303
		c-0.341,0.468-1.256,0.868-1.804,0.76c-1.986-0.363-3.91-1.019-5.89-1.436c-0.504-0.11-1.445,0.057-1.605,0.383
		c-1.786,3.602-3.454,7.259-5.176,10.959c2.2,1.524,4.154,2.817,6.015,4.22c0.47,0.35,0.989,1.183,0.879,1.652
		c-1.334,5.628-2.778,11.233-4.237,17.014c-2.422,0.147-5.135,0.31-8.113,0.491c-0.159,4.45-0.318,8.776-0.473,13.175
		c3.007,0.467,5.701,0.883,8.09,1.25c1.039,5.805,2.058,11.366,2.984,16.948c0.07,0.438-0.383,1.186-0.806,1.451
		c-2.051,1.249-4.17,2.378-6.526,3.697c1.521,4.136,3.034,8.203,4.567,12.378c2.361-0.51,4.487-0.873,6.542-1.445
		c1.425-0.39,2.106-0.098,2.883,1.272c2.354,4.126,4.868,8.17,7.498,12.124c0.798,1.197,0.723,1.862-0.188,2.816
		c-1.516,1.576-2.94,3.251-4.479,4.973c3.276,3.51,6.399,6.856,9.604,10.288c1.899-1.582,3.556-3.058,5.327-4.369
		c0.461-0.339,1.526-0.488,1.929-0.198c4.665,3.41,9.26,6.932,14.066,10.566c-0.739,2.326-1.583,4.979-2.51,7.887
		c3.841,1.707,7.504,3.386,11.223,4.932c0.412,0.178,1.365-0.202,1.655-0.614c1.179-1.646,2.133-3.435,3.308-5.077
		c0.301-0.421,1.162-0.798,1.649-0.684c5.505,1.328,10.984,2.768,16.671,4.221c0.12,2.413,0.257,5.181,0.404,8.069
		c4.711,0.21,9.229,0.41,13.724,0.614c0.47-3.122,0.878-5.807,1.213-8.086c6.039-1.097,11.731-2.148,17.442-3.121
		c0.431-0.067,1.169,0.369,1.418,0.769c1.026,1.739,1.878,3.587,2.907,5.317c0.263,0.43,1.075,0.958,1.431,0.843
		c3.913-1.322,7.791-2.766,11.746-4.197c-0.7-2.558-1.234-4.704-1.903-6.81c-0.359-1.128-0.19-1.688,0.964-2.26
		c2.456-1.208,4.839-2.566,7.16-4.01c2.521-1.576,4.938-3.325,7.435-5.016c2.029,1.93,3.947,3.763,5.98,5.686
		c3.546-3.313,6.986-6.523,10.457-9.764c-1.47-1.907-2.753-3.637-4.121-5.298c-0.771-0.937-0.818-1.596-0.027-2.666
		c3.107-4.178,6.103-8.447,9.048-12.736c0.59-0.85,1.088-1.099,2.059-0.779c2.21,0.746,4.454,1.398,6.995,2.181
		c1.652-3.797,3.293-7.472,4.799-11.199c0.165-0.404-0.241-1.347-0.662-1.657c-1.65-1.157-3.447-2.105-5.112-3.25
		c-0.398-0.273-0.812-1.053-0.713-1.482c1.321-5.636,2.723-11.253,4.165-17.106c2.359-0.079,5.08-0.17,7.913-0.267
		c0.271-4.655,0.538-9.171,0.806-13.739c-3.237-0.411-5.943-0.752-8.314-1.047c-1.145-5.98-2.27-11.722-3.28-17.48
		c-0.081-0.428,0.519-1.23,0.994-1.472c2.063-1.057,4.198-1.982,6.538-3.052c-1.523-3.874-2.93-7.586-4.467-11.244
		c-0.182-0.429-1.076-0.868-1.569-0.797c-2.004,0.261-3.969,0.795-5.966,1.074c-0.559,0.08-1.488-0.192-1.745-0.609
		c-2.951-4.747-5.812-9.547-8.807-14.523c1.317-1.572,2.774-3.406,4.347-5.135c0.728-0.813,0.729-1.362-0.013-2.137
		c-2.48-2.585-4.953-5.19-7.358-7.852c-0.945-1.032-1.649-0.852-2.605-0.016c-1.661,1.439-3.432,2.763-4.881,3.92
		c-4.952-3.384-9.689-6.601-14.37-9.895c-0.365-0.264-0.543-1.233-0.387-1.749c0.683-2.225,1.526-4.399,2.393-6.83
		c-4.183-1.903-8.198-3.713-12.311-5.581c-1.386,2.221-2.567,4.227-3.886,6.158c-0.322,0.469-1.148,0.992-1.601,0.883
		c-5.563-1.316-11.099-2.746-16.824-4.198c-0.239-2.479-0.491-5.239-0.743-7.947c-4.639-0.246-9.029-0.483-13.427-0.722
		c-0.587,3.149-1.09,5.891-1.521,8.213c-5.772,1.068-11.205,2.114-16.656,3.049c-0.553,0.098-1.48-0.349-1.779-0.818
		c-1.233-1.994-2.302-4.081-3.612-6.48c-3.808,1.477-7.469,2.846-11.065,4.343c-0.402,0.169-0.754,1.135-0.657,1.643
		c0.343,1.925,0.827,3.821,1.368,5.701c0.304,1.027-0.051,1.471-0.913,1.99c-4.456,2.699-8.879,5.446-13.264,8.256
		c-0.925,0.595-1.499,0.671-2.358-0.088c-1.737-1.535-3.59-2.934-5.461-4.438c-3.294,3.074-6.419,5.99-9.652,9.009
		C786.821,939.821,788.172,941.652,789.609,943.405z M793.071,945.306c-1.337-1.666-2.573-3.408-3.883-5.151
		c1.324-1.235,2.494-2.328,3.815-3.563c3.922,4.199,7.772,8.324,11.697,12.529c41.129-33.088,80.287-21.339,106.383,7.358
		c24.624,27.079,19.397,73.774-7.06,97.943c3.842,4.115,7.686,8.233,11.727,12.562c-1.281,1.197-2.354,2.32-3.571,3.242
		c-0.299,0.235-1.215,0.03-1.613-0.275c-1.456-1.092-2.846-2.288-4.208-3.504c-0.736-0.651-1.29-0.752-2.2-0.181
		c-4.748,2.988-9.532,5.903-14.349,8.78c-1.033,0.619-1.239,1.273-0.887,2.381c0.615,1.979,1.079,4.001,1.652,6.159
		c-3.376,1.338-6.622,2.613-10.005,3.949c-1.081-2.125-2.151-4.055-3.066-6.058c-0.436-0.954-0.948-1.219-1.952-1.037
		c-5.52,1.035-11.047,1.976-16.558,3.045c-0.507,0.096-1.161,0.786-1.294,1.316c-0.536,2.073-0.89,4.205-1.334,6.41
		c-3.392-0.284-6.747-0.566-10.421-0.875c-0.169-1.501-0.466-3.737-0.65-5.987c-0.082-0.983-0.41-1.467-1.435-1.711
		c-5.576-1.34-11.127-2.807-16.712-4.11c-0.582-0.135-1.62,0.327-1.972,0.835c-1.255,1.812-2.299,3.764-3.522,5.822
		c-3.038-1.417-5.976-2.785-9.13-4.244c0.554-2.09,1.135-4.137,1.589-6.209c0.123-0.528,0.047-1.424-0.297-1.681
		c-5.056-3.781-10.176-7.478-15.305-11.215c-2.073,1.743-4.004,3.358-5.989,5.023c-2.533-2.717-4.925-5.279-7.455-7.992
		c1.82-1.978,3.616-3.921,5.512-5.985c-2.575-3.914-5.111-7.771-7.671-11.61c-1.044-1.563-1.864-3.824-3.328-4.407
		c-1.459-0.588-3.603,0.527-5.447,0.896c-0.706,0.14-1.401,0.29-2.342,0.477c-1.231-3.207-2.455-6.401-3.724-9.725
		c2.26-1.143,4.362-2.282,6.538-3.283c0.959-0.436,1.203-0.946,1.001-1.955c-1.105-5.571-2.119-11.146-3.284-16.701
		c-0.127-0.604-0.93-1.352-1.559-1.504c-1.952-0.501-3.966-0.746-6.128-1.115c0.036-3.353,0.068-6.658,0.108-10.222
		c2.218-0.304,4.387-0.652,6.564-0.88c1.093-0.119,1.696-0.446,1.961-1.665c1.157-5.355,2.413-10.691,3.7-16.018
		c0.26-1.07,0.042-1.659-0.933-2.194c-1.601-0.884-3.152-1.846-4.637-2.907c-0.421-0.308-0.864-1.221-0.703-1.619
		c1.162-2.884,2.482-5.706,3.826-8.704c2.133,0.729,4.169,1.39,6.178,2.116c0.886,0.32,1.481,0.358,2.15-0.539
		c3.397-4.546,6.834-9.061,10.351-13.513C794.018,946.775,793.764,946.17,793.071,945.306z"/>
	
		<rect x="199.935" y="469.961" transform="matrix(-0.9999 0.0102 -0.0102 -0.9999 713.5623 976.499)" display="none" fill="#FFFFFF" width="308.714" height="40.216"/>
	<path display="none" fill="#FFFFFF" d="M1264.849,567.093c0.175-9.839-7.667-17.967-17.515-18.133
		c-9.845-0.178-17.963,7.662-18.131,17.504c-0.174,9.845,7.66,17.975,17.499,18.144
		C1256.553,584.782,1264.676,576.941,1264.849,567.093z"/>
	<path display="none" fill="#FFFFFF" d="M1000.285,437.382c-0.173,9.846,7.672,17.963,17.514,18.142
		c9.844,0.174,17.964-7.671,18.141-17.512c0.176-9.844-7.671-17.963-17.506-18.141
		C1008.583,419.699,1000.465,427.537,1000.285,437.382z"/>
	<path display="none" fill="#FFFFFF" d="M1149.193,440.018c0.174-9.846-7.664-17.971-17.518-18.144
		c-9.833-0.174-17.959,7.667-18.136,17.509c-0.177,9.849,7.665,17.974,17.514,18.143
		C1140.896,457.697,1149.023,449.86,1149.193,440.018z"/>
	<path display="none" fill="#FFFFFF" d="M1033.729,563.009c0.175-9.846-7.671-17.966-17.512-18.14
		c-9.845-0.178-17.964,7.668-18.135,17.511c-0.184,9.847,7.661,17.968,17.504,18.143
		C1025.434,580.689,1033.558,572.858,1033.729,563.009z"/>
	<path display="none" fill="#FFFFFF" d="M1052.126,500.4c-0.175,9.848,7.664,17.96,17.505,18.144
		c9.857,0.166,17.979-7.668,18.143-17.517c0.178-9.846-7.652-17.968-17.514-18.14C1060.428,482.712,1052.302,490.552,1052.126,500.4
		z"/>
	<path display="none" fill="#FFFFFF" d="M1207.238,503.139c0.166-9.843-7.672-17.965-17.518-18.14
		c-9.849-0.171-17.955,7.665-18.14,17.514c-0.17,9.841,7.661,17.97,17.514,18.142
		C1198.941,520.824,1207.062,512.986,1207.238,503.139z"/>
	<path display="none" fill="#FFFFFF" d="M1117.479,551.222c-7.446,6.443-8.259,17.703-1.809,25.147
		c6.445,7.444,17.714,8.251,25.156,1.812c7.443-6.447,8.246-17.707,1.809-25.149C1136.192,545.583,1124.93,544.771,1117.479,551.222
		z"/>
	<path display="none" fill="#FFFFFF" d="M1267.06,442.107c0.176-9.854-7.67-17.974-17.505-18.152
		c-9.85-0.172-17.984,7.669-18.147,17.521c-0.177,9.844,7.666,17.962,17.509,18.137
		C1258.76,459.787,1266.881,451.953,1267.06,442.107z"/>
	<path display="none" d="M850.905,1161.632c0.518-0.306,1.112-0.522,1.549-0.93c53.521-49.945,107.042-99.906,160.561-149.866
		c0.38-0.354,0.771-0.698,1.13-1.086c0.052-0.048-0.066-0.265-0.109-0.402c-0.395,0.342-0.801,0.666-1.182,1.021
		c-53.667,50.098-107.331,100.196-160.995,150.29C851.531,1160.967,851.226,1161.308,850.905,1161.632z"/>
	<path display="none" d="M781.826,1069.304c37.345,40.129,100.054,42.565,139.918,5.442c40.39-37.6,42.766-100.139,5.347-140.346
		c-37.125-39.88-99.907-42.274-139.696-5.331C747.074,966.519,744.575,1029.29,781.826,1069.304z M800.426,933.288
		c0.859,0.759,1.434,0.683,2.358,0.088c4.385-2.81,8.808-5.557,13.264-8.256c0.862-0.52,1.217-0.963,0.913-1.99
		c-0.541-1.88-1.025-3.776-1.368-5.701c-0.097-0.508,0.255-1.474,0.657-1.643c3.597-1.497,7.258-2.866,11.065-4.343
		c1.311,2.399,2.379,4.486,3.612,6.48c0.299,0.47,1.227,0.916,1.779,0.818c5.451-0.935,10.884-1.98,16.656-3.049
		c0.431-2.322,0.934-5.063,1.521-8.213c4.397,0.238,8.788,0.476,13.427,0.722c0.252,2.708,0.504,5.468,0.743,7.947
		c5.726,1.452,11.262,2.882,16.824,4.198c0.452,0.109,1.278-0.414,1.601-0.883c1.318-1.932,2.5-3.938,3.886-6.158
		c4.112,1.868,8.128,3.678,12.311,5.581c-0.866,2.431-1.71,4.605-2.393,6.83c-0.156,0.516,0.021,1.485,0.387,1.749
		c4.681,3.294,9.418,6.511,14.37,9.895c1.449-1.157,3.22-2.48,4.881-3.92c0.956-0.836,1.66-1.017,2.605,0.016
		c2.405,2.661,4.878,5.267,7.358,7.852c0.742,0.774,0.74,1.324,0.013,2.137c-1.572,1.729-3.029,3.563-4.347,5.135
		c2.995,4.977,5.855,9.776,8.807,14.523c0.257,0.417,1.187,0.689,1.745,0.609c1.997-0.279,3.962-0.813,5.966-1.074
		c0.493-0.071,1.388,0.368,1.569,0.797c1.537,3.658,2.943,7.37,4.467,11.244c-2.34,1.069-4.475,1.995-6.538,3.052
		c-0.476,0.241-1.075,1.044-0.994,1.472c1.011,5.759,2.136,11.5,3.28,17.48c2.371,0.295,5.077,0.636,8.314,1.047
		c-0.268,4.568-0.534,9.084-0.806,13.739c-2.833,0.097-5.554,0.188-7.913,0.267c-1.442,5.854-2.844,11.471-4.165,17.106
		c-0.099,0.43,0.314,1.209,0.713,1.482c1.665,1.145,3.462,2.093,5.112,3.25c0.421,0.311,0.827,1.253,0.662,1.657
		c-1.506,3.728-3.146,7.402-4.799,11.199c-2.541-0.782-4.785-1.435-6.995-2.181c-0.971-0.319-1.469-0.07-2.059,0.779
		c-2.945,4.289-5.94,8.559-9.048,12.736c-0.791,1.07-0.743,1.729,0.027,2.666c1.368,1.661,2.651,3.391,4.121,5.298
		c-3.471,3.24-6.911,6.45-10.457,9.764c-2.033-1.923-3.951-3.756-5.98-5.686c-2.496,1.69-4.914,3.439-7.435,5.016
		c-2.321,1.443-4.704,2.802-7.16,4.01c-1.154,0.571-1.323,1.132-0.964,2.26c0.669,2.105,1.203,4.252,1.903,6.81
		c-3.955,1.432-7.833,2.875-11.746,4.197c-0.355,0.115-1.168-0.413-1.431-0.843c-1.029-1.73-1.881-3.578-2.907-5.317
		c-0.249-0.399-0.987-0.836-1.418-0.769c-5.711,0.973-11.403,2.024-17.442,3.121c-0.335,2.279-0.743,4.964-1.213,8.086
		c-4.495-0.204-9.013-0.404-13.724-0.614c-0.147-2.889-0.284-5.656-0.404-8.069c-5.687-1.453-11.166-2.893-16.671-4.221
		c-0.487-0.114-1.349,0.263-1.649,0.684c-1.175,1.643-2.129,3.432-3.308,5.077c-0.29,0.412-1.243,0.792-1.655,0.614
		c-3.719-1.546-7.382-3.225-11.223-4.932c0.927-2.908,1.771-5.561,2.51-7.887c-4.807-3.635-9.401-7.156-14.066-10.566
		c-0.402-0.29-1.468-0.141-1.929,0.198c-1.771,1.312-3.428,2.787-5.327,4.369c-3.204-3.432-6.327-6.778-9.604-10.288
		c1.538-1.722,2.963-3.396,4.479-4.973c0.91-0.954,0.985-1.619,0.188-2.816c-2.63-3.954-5.145-7.998-7.498-12.124
		c-0.776-1.37-1.458-1.662-2.883-1.272c-2.055,0.572-4.181,0.936-6.542,1.445c-1.533-4.175-3.047-8.242-4.567-12.378
		c2.356-1.319,4.476-2.448,6.526-3.697c0.423-0.266,0.876-1.013,0.806-1.451c-0.927-5.582-1.945-11.144-2.984-16.948
		c-2.389-0.367-5.083-0.783-8.09-1.25c0.154-4.398,0.313-8.725,0.473-13.175c2.979-0.182,5.691-0.344,8.113-0.491
		c1.459-5.78,2.903-11.386,4.237-17.014c0.11-0.47-0.409-1.303-0.879-1.652c-1.86-1.402-3.814-2.695-6.015-4.22
		c1.722-3.7,3.39-7.357,5.176-10.959c0.16-0.326,1.102-0.493,1.605-0.383c1.979,0.417,3.903,1.072,5.89,1.436
		c0.548,0.108,1.463-0.292,1.804-0.76c3.04-4.066,5.959-8.23,8.995-12.303c0.66-0.886,0.788-1.471,0.059-2.354
		c-1.438-1.753-2.788-3.584-4.297-5.547c3.233-3.019,6.358-5.935,9.652-9.009C796.836,930.354,798.688,931.753,800.426,933.288z"/>
	<path display="none" d="M782.852,961.323c-0.669,0.897-1.265,0.859-2.15,0.539c-2.009-0.727-4.045-1.388-6.178-2.116
		c-1.344,2.998-2.664,5.82-3.826,8.704c-0.161,0.398,0.282,1.312,0.703,1.619c1.484,1.062,3.036,2.023,4.637,2.907
		c0.975,0.535,1.192,1.124,0.933,2.194c-1.287,5.326-2.543,10.662-3.7,16.018c-0.265,1.219-0.868,1.546-1.961,1.665
		c-2.178,0.228-4.347,0.576-6.564,0.88c-0.04,3.563-0.072,6.869-0.108,10.222c2.162,0.369,4.176,0.614,6.128,1.115
		c0.629,0.152,1.432,0.9,1.559,1.504c1.165,5.555,2.179,11.13,3.284,16.701c0.202,1.009-0.042,1.52-1.001,1.955
		c-2.176,1.001-4.278,2.141-6.538,3.283c1.269,3.323,2.492,6.518,3.724,9.725c0.94-0.187,1.636-0.337,2.342-0.477
		c1.845-0.369,3.988-1.484,5.447-0.896c1.464,0.583,2.284,2.844,3.328,4.407c2.56,3.84,5.096,7.696,7.671,11.61
		c-1.896,2.064-3.691,4.008-5.512,5.985c2.53,2.713,4.922,5.275,7.455,7.992c1.985-1.665,3.916-3.28,5.989-5.023
		c5.129,3.737,10.249,7.434,15.305,11.215c0.344,0.257,0.42,1.152,0.297,1.681c-0.454,2.072-1.035,4.119-1.589,6.209
		c3.154,1.459,6.092,2.827,9.13,4.244c1.224-2.059,2.268-4.011,3.522-5.822c0.352-0.508,1.39-0.97,1.972-0.835
		c5.585,1.304,11.136,2.771,16.712,4.11c1.024,0.244,1.353,0.728,1.435,1.711c0.185,2.25,0.481,4.486,0.65,5.987
		c3.674,0.309,7.029,0.591,10.421,0.875c0.444-2.205,0.798-4.337,1.334-6.41c0.133-0.53,0.787-1.221,1.294-1.316
		c5.511-1.069,11.038-2.01,16.558-3.045c1.004-0.182,1.517,0.083,1.952,1.037c0.915,2.003,1.985,3.933,3.066,6.058
		c3.383-1.336,6.629-2.611,10.005-3.949c-0.573-2.158-1.037-4.18-1.652-6.159c-0.353-1.107-0.146-1.762,0.887-2.381
		c4.816-2.877,9.601-5.792,14.349-8.78c0.91-0.571,1.464-0.471,2.2,0.181c1.362,1.216,2.752,2.412,4.208,3.504
		c0.398,0.306,1.314,0.511,1.613,0.275c1.218-0.922,2.29-2.045,3.571-3.242c-4.041-4.328-7.885-8.446-11.727-12.562
		c26.457-24.169,31.684-70.864,7.06-97.943c-26.096-28.697-65.254-40.446-106.383-7.358c-3.925-4.205-7.775-8.33-11.697-12.529
		c-1.321,1.235-2.491,2.328-3.815,3.563c1.31,1.743,2.546,3.485,3.883,5.151c0.692,0.864,0.946,1.47,0.131,2.505
		C789.686,952.263,786.249,956.777,782.852,961.323z M812.612,957.515c3.482-2.478,6.611-5.015,10.027-7.073
		c10.22-6.156,21.27-7.838,32.78-4.811c9.302,2.438,16.05,8.431,20.607,16.826c2.333,4.286,4.324,8.756,6.641,13.052
		c0.721,1.342,1.938,2.444,3.034,3.557c1.428,1.447,3.095,2.126,5.26,1.968c3.896-0.285,7.99,3.156,8.414,7.084
		c0.422,3.905,1.76,7.216,4.523,10.104c0.889,0.932,1.178,2.717,1.237,4.132c0.23,5.457-2.729,8.646-8.074,9.154
		c-1.659,0.161-3.543-0.262-5.134,1.405c5.377,4.706,12.557,6.73,17.096,12.556c-1.304,1.216-2.549,2.378-3.987,3.723
		c-0.939-1.009-1.764-2.115-2.817-2.938c-0.599-0.467-1.876-0.912-2.281-0.604c-1.043,0.771-0.294,1.716,0.392,2.462
		c0.887,0.948,1.77,1.894,2.848,3.05c-1.025,0.958-1.88,1.944-2.93,2.649c-0.453,0.307-1.438,0.269-1.932-0.028
		c-1.114-0.664-1.992-1.696-3.098-2.362c-0.466-0.275-1.259,0-1.9,0.024c0.082,0.577-0.025,1.303,0.282,1.695
		c1.05,1.299,2.261,2.481,3.476,3.783c-1.444,1.349-2.711,2.53-4.216,3.936c-1.17-1.253-2.298-2.574-3.555-3.748
		c-0.393-0.37-1.133-0.372-1.719-0.532c-0.336-0.094-0.792-0.086-0.991-0.299c-3.616-3.854-7.213-7.726-10.795-11.611
		c-0.143-0.165-0.139-0.476-0.295-1.081c3.072,0.864,5.392,3.055,9.011,2.645c-0.592-1.027-0.875-1.881-1.441-2.458
		c-3.549-3.588-7.605-6.064-12.918-5.958c-0.844,0.023-1.889-0.729-2.529-1.418c-16.506-17.612-32.97-35.268-49.446-52.919
		C816.456,961.63,814.729,959.782,812.612,957.515z M877.394,1031.216c0.19,0.406,0.02,1.319-0.287,1.521
		c-0.349,0.228-1.18,0.097-1.567-0.195c-2.68-2.018-4.544-4.663-5.354-7.912c-0.436-1.725-0.478-3.546-0.719-5.533
		C874.348,1022.025,875.38,1026.938,877.394,1031.216z M852.196,1039.952c-1.671,1.704-3.285,2.323-5.483,1.479
		c-1.877-0.719-3.868-1.217-5.61-2.179c-4.479-2.503-5.67-8.888-2.51-12.927c0.366-0.472,1.021-0.786,1.604-0.993
		c6.037-2.227,12.125-4.309,18.11-6.653c2.384-0.93,4.381-0.77,6.523,0.784C862.583,1027.636,857.929,1034.099,852.196,1039.952z
		 M803.887,949.821c2.896,3.104,5.47,5.859,8.185,8.769c-1.407,1.612-2.84,3.185-4.189,4.825
		c-7.391,9.004-11.779,19.133-10.866,30.966c1.111,14.536,9.474,23.961,22.379,29.507c4.751,2.043,8.32,5.043,11.091,9.15
		c0.891,1.329,1.436,3.11,1.526,4.712c0.278,4.685,2.752,7.275,7.109,8.378c3.418,0.858,6.5,2.311,8.94,4.946
		c0.302,0.324,0.708,0.594,1.117,0.761c5.331,2.157,12.541-2.776,12.486-8.533c-0.002-0.457-0.185-0.948-0.062-1.357
		c0.177-0.633,0.554-1.212,0.842-1.807c0.561,0.333,1.354,0.546,1.626,1.04c2.178,3.937,4.183,7.967,6.387,11.887
		c0.975,1.735,2.275,3.274,3.56,5.087c1.566-1.462,2.864-2.672,4.348-4.058c-0.914-1.233-1.943-2.478-2.78-3.834
		c-0.295-0.469-0.125-1.219-0.162-1.839c0.536,0.199,1.212,0.252,1.607,0.615c1.035,0.966,1.956,2.053,3.027,3.201
		c1.404-1.309,2.665-2.486,4.094-3.82c-0.866-1.15-1.839-2.275-2.592-3.538c-0.319-0.532-0.155-1.354-0.215-2.039
		c0.661,0.151,1.489,0.113,1.954,0.511c1.072,0.916,1.974,2.033,3.031,3.166c1.059-0.989,1.989-1.86,3.125-2.917
		c-1.154-1.236-2.342-2.429-3.411-3.716c-0.261-0.311-0.13-0.942-0.176-1.427c0.439,0.063,1.043-0.035,1.277,0.218
		c5.186,5.493,10.337,11.013,15.725,16.785c-19.896,14.966-41.542,23.586-66.276,16.948c-28.082-7.545-46.198-26.334-52.716-54.676
		C777.941,991.894,786.13,969.406,803.887,949.821z"/>
	<path display="none" d="M873.251,1013.017c7.355-1.951,13.629-5.765,19.608-10.538c0.678-1.169,1.967-2.373,1.899-3.494
		c-0.135-2.43-0.689-4.924-1.568-7.196c-2.064-5.298-8.085-7.217-13.01-4.298c-0.558,0.329-0.991,1.008-1.272,1.624
		c-2.703,5.984-5.428,11.96-7.968,18.015c-0.539,1.279-0.558,2.885-0.454,4.306C870.604,1013.035,871.584,1013.454,873.251,1013.017
		z"/>
</g>
</svg>
