<?xml version="1.0" encoding="utf-8"?>
<!-- Generator: Adobe Illustrator 16.0.3, SVG Export Plug-In . SVG Version: 6.00 Build 0)  -->
<!DOCTYPE svg PUBLIC "-//W3C//DTD SVG 1.1//EN" "http://www.w3.org/Graphics/SVG/1.1/DTD/svg11.dtd">
<svg version="1.1" id="Ebene_4" xmlns="http://www.w3.org/2000/svg" xmlns:xlink="http://www.w3.org/1999/xlink" x="0px" y="0px"
	 width="1417.32px" height="1417.32px" viewBox="0 0 1417.32 1417.32" enable-background="new 0 0 1417.32 1417.32"
	 xml:space="preserve">
<g>
	<path fill="none" d="M422.527,119.049c-6.965-6.488-7.341-17.399-0.86-24.359c6.499-6.965,17.402-7.348,24.369-0.862
		c6.964,6.494,7.342,17.401,0.854,24.366C440.401,125.158,429.49,125.535,422.527,119.049z"/>
	<path fill="none" d="M422.831,427.233c26.154,26.149,51.753,51.743,77.705,77.688c-8.553,16.131-2.466,26.657,9.326,35.987
		c5.316,4.207,9.383,10.074,13.684,15.453c1.692,2.116,2.478,4.963,4.488,9.184c-18.326-6.826-148.583-135.724-152.981-150.957
		C389.698,423.938,399.103,447.093,422.831,427.233z"/>
	<path fill="none" d="M650.891,926.147c17.982,15.984,37.255,39.043,66.956,10.425c9.827,8.855,18.904,17.038,28.835,25.984
		c-4.336,7.946-7.418,14.466-11.265,20.498c-19.328,30.291-19.318,62.829-11.498,96.289c0.525,2.248,2.102,4.521,3.775,6.192
		c16.401,16.402,32.593,33.046,49.681,48.714c3.804,3.492,10.824,3.646,16.463,4.896c2.902,0.649,6.021,0.339,7.737,0.403
		c2.367,12.696,4.447,23.865,7.206,38.664c-2.318,6.04-5.476,15.047-9.28,23.78c-1.545,3.55-3.944,7.139-6.883,9.6
		c-29.961,25.086-63.311,29.114-97.291,9.184c-19.102-11.207-37.355-24.646-53.715-39.566
		c-33.815-30.843-58.549-67.778-64.752-114.425c-6.691-50.225,12.6-92.438,42.49-130.945c1.8-2.32,5.18-3.932,8.139-4.729
		C634.36,929.255,641.425,928.098,650.891,926.147z"/>
	<path fill="none" d="M500.854,314.846c7.809,7.463,14.879,13.807,26.388,5.517c2.676-1.931,9.419-0.363,13.071,1.728
		c4.791,2.748,8.484,7.501,12.449,11.579c20.372,20.939,40.684,41.945,62.245,64.195c-11.71,9.014-8.782,16.58-1.856,24.27
		c8.808,9.777,17.417,19.738,26.433,29.986c-4.373,3.813-7.34,6.396-11.115,9.686c-13.563-11.539-26.7-22.712-39.375-33.496
		c-5.804,2.436-9.854,4.131-14.176,5.941c-3.32-1.949-6.992-3.24-9.497-5.712c-21.716-21.445-43.452-42.879-64.523-64.944
		c-2.946-3.083-4.59-10.548-2.955-14.291c5.242-12.009,0.784-20.104-7.343-28.271c-4.129-4.154-7.029-9.528-11.763-16.133
		C491.971,301.896,495.771,309.99,500.854,314.846z"/>
	<path fill="none" d="M917.96,438.588c-9.789,10.448-19.577,20.895-29.365,31.341c-1.156-1.126-2.304-2.253-3.46-3.381
		c9.95-10.288,19.898-20.573,29.854-30.857C915.978,436.655,916.97,437.621,917.96,438.588z"/>
	
		<rect x="792.444" y="852.88" transform="matrix(0.7193 0.6947 -0.6947 0.7193 831.9705 -341.6948)" fill="none" width="92.751" height="11.608"/>
	<path fill="none" d="M723.672,935.164c0.708-1.042,1.416-2.083,2.122-3.127c7.647,7.651,15.289,15.309,22.934,22.961
		c-0.754,0.792-1.512,1.579-2.27,2.364C738.864,949.959,731.269,942.564,723.672,935.164z"/>
	
		<rect x="803.313" y="841.631" transform="matrix(0.7193 0.6947 -0.6947 0.7193 827.2252 -352.4036)" fill="none" width="92.751" height="11.609"/>
	
		<rect x="781.564" y="864.131" transform="matrix(0.7193 0.6947 -0.6947 0.7193 836.7488 -330.9791)" fill="none" width="92.751" height="11.604"/>
	<path fill="none" d="M455.047,172.207c6.967,6.494,7.342,17.395,0.861,24.361c-6.505,6.967-17.41,7.353-24.369,0.853
		c-6.966-6.489-7.356-17.388-0.854-24.363C437.17,166.102,448.077,165.716,455.047,172.207z"/>
	<path fill="none" d="M376.289,256.707c6.958,6.49,7.35,17.396,0.854,24.363c-6.496,6.962-17.402,7.346-24.367,0.854
		c-6.958-6.495-7.341-17.401-0.851-24.366C358.417,250.595,369.313,250.219,376.289,256.707z"/>
	<path fill="none" d="M214.181,385.711c-12.74,7.235-25.167,15.104-38.323,21.482c-9.225,4.471-19.726,7.062-28.385-1.65
		c-8.504-8.558-8.628-19.266-6.297-33.344c24.452,2.927,48.118,5.764,71.786,8.6C213.368,382.438,213.775,384.076,214.181,385.711z"
		/>
	<path fill="none" d="M347.86,199.162c-6.967-6.492-7.353-17.399-0.855-24.369c6.482-6.955,17.392-7.341,24.356-0.855
		c6.969,6.493,7.354,17.405,0.858,24.367C365.728,205.265,354.817,205.654,347.86,199.162z"/>
	<path fill="none" d="M382.064,339.73c6.965,6.491,7.358,17.399,0.864,24.357c-6.494,6.968-17.402,7.351-24.367,0.855
		c-6.96-6.485-7.347-17.398-0.849-24.36C364.2,333.62,375.106,333.238,382.064,339.73z"/>
	<path fill="none" d="M270.149,282.54c-6.968-6.495-7.347-17.406-0.867-24.366c6.498-6.967,17.412-7.357,24.375-0.854
		c6.965,6.487,7.343,17.396,0.854,24.357C288.019,288.642,277.118,289.028,270.149,282.54z"/>
	<path fill="none" d="M534.451,176.249c6.969,6.485,7.351,17.396,0.858,24.359c-6.498,6.959-17.399,7.351-24.363,0.854
		c-6.965-6.491-7.345-17.4-0.855-24.362C516.579,170.134,527.489,169.756,534.451,176.249z"/>
	<path fill="none" d="M465.206,267.424c0.847,9.482-6.161,17.861-15.639,18.712c-9.481,0.848-17.852-6.157-18.704-15.632
		c-0.854-9.484,6.146-17.862,15.637-18.71C455.982,250.94,464.357,257.937,465.206,267.424z"/>
	<path display="none" d="M1099.551,1306.244c0.345,0.131,0.729,0.325,0.938,0.604c1.828,2.419,1.061,6.186-1.615,7.618
		c-1.033,0.555-2.221,0.829-3.335,1.234c-1.308,0.477-2.254,0.095-3.226-0.932c-3.333-3.517-6.02-7.384-7.265-12.238
		c1.283-0.895,2.463-0.974,3.865-0.396C1092.429,1303.577,1096.006,1304.872,1099.551,1306.244z"/>
	<path display="none" d="M1072.42,1313.548c-0.031,0.286,0.042,0.661-0.115,0.843c-0.646,0.752-1.358,1.443-2.053,2.162
		c0.659,0.636,1.201,1.16,1.819,1.759c0.633-0.659,1.176-1.313,1.819-1.845c0.276-0.229,0.769-0.196,1.161-0.282
		c-0.041,0.407,0.045,0.892-0.146,1.202c-0.458,0.74-1.047,1.396-1.569,2.069c0.834,0.805,1.566,1.512,2.381,2.297
		c0.646-0.667,1.201-1.302,1.826-1.859c0.235-0.209,0.633-0.238,0.958-0.35c-0.031,0.368,0.063,0.814-0.116,1.088
		c-0.51,0.792-1.132,1.518-1.686,2.235c0.866,0.836,1.622,1.565,2.528,2.442c0.776-1.059,1.563-1.957,2.156-2.971
		c1.341-2.295,2.567-4.658,3.894-6.963c0.168-0.291,0.641-0.405,0.974-0.601c0.165,0.358,0.382,0.701,0.482,1.077
		c0.065,0.242-0.047,0.532-0.054,0.801c-0.086,3.404,4.125,6.392,7.298,5.171c0.243-0.096,0.485-0.251,0.67-0.438
		c1.466-1.533,3.306-2.358,5.334-2.836c2.589-0.605,4.075-2.113,4.283-4.882c0.071-0.946,0.41-1.991,0.953-2.768
		c1.677-2.4,3.816-4.139,6.643-5.299c7.688-3.151,12.724-8.642,13.528-17.222c0.655-6.984-1.837-13.021-6.112-18.412
		c-0.782-0.984-1.616-1.931-2.431-2.897c1.634-1.692,3.183-3.294,4.926-5.102c10.3,11.759,14.92,25.134,11.149,40.35
		c-4.135,16.691-15.03,27.615-31.712,31.793c-14.688,3.677-27.397-1.634-39.009-10.678c3.242-3.359,6.343-6.577,9.464-9.771
		C1071.806,1313.521,1072.161,1313.582,1072.42,1313.548z"/>
	<path d="M124.2,206.641c-2.143,18.128-22.358,25.811-23.95,45.554c-2.087,25.829-9.943,51.137-13.685,76.905
		c-5.128,35.353-0.9,69.897,14.615,102.402c2.831,5.938,8.66,10.448,12.74,15.18c33.463,25.145,67.252,20.043,103.783-0.632
		c7.148,5.562,15.167,11.065,22.316,17.526c14.015,12.668,27.543,25.868,42.224,39.748c10.272-10.216,18.447-18.347,28.558-28.406
		c49.178,49.467,97.495,98.063,146.585,147.447c-1.97,7.203-3.858,14.112-6.417,23.47c6.188,6.385,13.333,13.768,20.761,21.433
		c7.617-2.952,13.932-5.394,21.414-8.292c4.426,5.135,8.804,10.218,13.105,15.214c-3.218,5.943-5.857,10.816-8.155,15.069
		c10.884,25.006,23.233,31.69,44.014,21.986c4.564,3.285,10.284,7.398,17.362,12.485c-14.536,15.895-6.283,26.247,3.666,37.487
		c8.422,9.521,7.051,20.493-1.264,31.039c-11.07,14.046-9.852,30.709,2.807,43.7c4.43,4.537,8.141,9.778,12.307,14.856
		c-3.063,4.476-5.29,7.731-7.992,11.685c8.277,23.16-11.67,35.679-21.677,51.82c-14.634,23.598-28.274,47.096-35.495,74.452
		c-6.657,25.226-9.594,50.627-7.437,76.103c1.643,19.399,6.672,38.818,12.621,57.453c5.308,16.637,12.523,33.064,21.497,48.024
		c9.225,15.365,20.462,29.916,32.847,42.891c17.482,18.303,35.813,36.115,55.706,51.682c14.286,11.178,31.312,19.192,47.876,27
		c12.145,5.727,25.523,8.826,35.216,12.053c11.918,0.945,20.655,1.644,29.4,2.33c0.174,0.773,0.352,1.551,0.529,2.327
		c3.116-1.907,6.236-3.813,9.356-5.726c0.198,0.717,0.401,1.427,0.602,2.139c12.286-2.418,24.567-4.831,36.853-7.248
		c0.432,0.756,0.865,1.51,1.303,2.263c21.275-13.923,42.551-27.839,65.996-43.18c7.158-3.423,16.863-8.063,25.679-12.284
		c10.151,1.438,19.88,2.818,31.101,4.409c0.105,0.16,2.312,2.089,2.003,3.436c-3.431,15.003,6.55,23.097,15.634,31.944
		c28.301,27.557,56.55,55.166,84.557,83.021c9.31,9.258,18.216,18.324,31.808,11.92c2.713,1.653,4.205,2.363,5.462,3.361
		c31.384,24.852,62.702,25.146,94.715-0.085c36.972-29.142,69.448-62.733,97.177-100.861c8-10.996,11.832-23.02,10.66-36.676
		c-1.272-14.851,2.032-27.058,14.321-37.917c16.162-14.287,14.053-53.965-1.878-75.173c-3.616-4.807-7.504-9.412-11.482-14.38
		c1.95-2.496,8.868-18.922,18.243-42.34c1.534-3.834-36.795-38.622-36.795-38.622s82.471-119.874,110.771-160.557
		c5.479-7.878,8.941-12.806,9.367-13.297c8.294-9.608,8.094-19.753,0.6-28.935c-22.765-27.858-47.9-53.419-78.813-72.29
		c-4.502-2.747-14.288-2.907-17.754,0.143c-5.386,4.732-8.084,13.027-10.604,20.27c-0.071,0.211-0.123,0.459-0.157,0.733
		c-0.127,1.003-0.019,2.4,0.215,3.924c0.658,4.316,2.299,9.619,2.299,9.619s-64.485,82.587-89.661,114.298
		c-5.56,7.003-9.212,11.537-9.818,12.142c-3.396,3.372-6.217,7.316-11.379,13.526c-12.647-13.43-25.386-25.715-36.211-39.501
		c-2.172-2.768,1.366-12.562,4.975-16.844c5.758-6.834,41.093-48.952,58.722-69.969c1.89-2.249,3.576-4.261,5.002-5.956
		c3.118-3.718,4.985-5.946,4.985-5.946l2.105-19.728c0,0,39.057-20.256-4.637-39.92c-3.61-15.34-3.61-15.34-3.61-15.34
		l-151.858-154.265c6.685-7.197,21.646-22.976,27.659-29.406c9.485-10.748-2.648-18.885-2.648-18.885l-18.845-18.352l-7.7-7.499
		l0.781-5.57l6.324-45.25l9.779-69.927l0.577-13.733l0.095-2.229l-0.843-0.798l-25.686-24.353l-8.298,8.131l-1.767-1.697
		l-31.101-29.917l-142.628-137.19l7.835-8.115l0.986-1.022l-16.141-15.498l-83.975,87.084l-1.492,1.544l0.561,0.506l11.57,10.467
		l4.23,3.826l0.449-0.445l7.881-7.836l174.82,169.157c0,0-17.672,18.343-23.373,24.128c-8.549,8.679-17.363,17.1-26.479,26.028
		c-10.688-7.503-21.17-14.858-32.339-22.698c-3.79,2.779-7.286,5.35-12.148,8.923c-5.271-4.418-10.823-9.076-15.687-13.15
		c6.896-22.29-1.398-37.873-24.047-47.56c-3.056,2.561-6.412,5.374-11.161,9.353c-5.626-4.744-11.486-9.682-16.947-14.286
		c2.945-9.056,5.169-15.915,7.451-22.941c-8.674-6.661-16.844-12.941-25.014-19.22c-4.906,3.445-8.178,5.746-13.53,9.503
		c-12.567-10.709-25.642-21.853-38.822-33.088c-4.814,1.867-8.903,3.453-16.542,6.412c-25.263-25.102-51.517-51.188-78.465-77.966
		c13.199-17.029,5.317-27.95-5.464-39.18c-3.952-4.119-4.548-11.373-7.036-17.039c-2.517-5.722-4.261-12.446-8.426-16.669
		c-45.76-46.393-91.894-92.418-138.063-138.402c-3.594-3.578-8.237-6.097-13.053-9.584c-7.025,5.218-13.11,9.743-20.109,14.939
		c-8.536-4.231-17.331-8.367-25.907-12.903c-8.969-4.75-16.691-4.624-24.212,3.237c-12.667,13.23-26.186,25.654-38.765,38.968
		c-11.646,12.335-11.756,17.467-3.689,32.663c3.574,6.736,6.748,13.688,10.446,21.243c-9.415,9.798-18.075,18.81-27.723,28.849
		c-9.734-4.353-19.641-7.971-28.709-13.069c-8.375-4.71-15.414-4.605-22.115,2.085c-14.401,14.391-28.913,28.678-42.898,43.462
		c-7.482,7.91-8.637,16.822-2.255,26.706c4.355,6.737,7.153,14.484,10.296,21.041c-6.362,13.585-23.497,19.977-19.317,37.941
		c3.494,5.016,7.35,10.553,11.81,16.957c-10.299,8.063-20.35,13.601-32.101,8.663c-12.23-5.132-13.219-16.057-11.355-27.943
		c1.744-11.074,5.101-22.563-3.765-32.648c-1.11-1.263-0.864-3.881-0.92-5.88c-0.557-18.943-14.019-29.242-32.63-24.762
		C127.411,204.303,124.336,205.504,124.2,206.641z M1049.094,1251.621c22.347-23.205,59.484-23.99,82.636-1.752
		c23.465,22.541,24.311,59.674,1.892,82.956c-22.48,23.348-59.574,24.16-82.773,1.816
		C1027.348,1312.011,1026.567,1275.017,1049.094,1251.621z M878.94,883.828l-66.721-64.433l8.063-8.35l66.72,64.43L878.94,883.828z
		 M868.079,895.074l-66.719-64.431l8.063-8.35l66.72,64.431L868.079,895.074z M857.219,906.322l-66.72-64.433l8.063-8.348
		l66.719,64.432L857.219,906.322z M748.728,954.998c-0.754,0.792-1.512,1.579-2.27,2.364c-7.594-7.403-15.189-14.798-22.786-22.198
		c0.708-1.042,1.416-2.083,2.122-3.127C733.441,939.688,741.083,947.346,748.728,954.998z M627.489,931.111
		c6.872-1.856,13.937-3.015,23.401-4.964c17.982,15.984,37.255,39.043,66.956,10.425c9.827,8.855,18.904,17.038,28.835,25.984
		c-4.336,7.946-7.418,14.467-11.265,20.498c-19.328,30.291-19.318,62.829-11.498,96.289c0.525,2.248,2.102,4.521,3.775,6.192
		c16.401,16.402,32.593,33.046,49.681,48.714c3.804,3.492,10.824,3.646,16.463,4.896c2.902,0.649,6.021,0.339,7.737,0.403
		c2.367,12.696,4.447,23.865,7.206,38.664c-2.318,6.04-5.476,15.047-9.28,23.78c-1.545,3.55-3.944,7.139-6.883,9.6
		c-29.961,25.086-63.311,29.114-97.291,9.184c-19.102-11.207-37.355-24.646-53.715-39.566
		c-33.815-30.843-58.549-67.778-64.752-114.425c-6.691-50.225,12.6-92.438,42.49-130.945
		C621.149,933.521,624.53,931.909,627.489,931.111z M885.135,466.548c9.95-10.288,19.898-20.573,29.854-30.857
		c0.989,0.965,1.981,1.931,2.973,2.897c-9.789,10.448-19.577,20.895-29.365,31.341C887.438,468.803,886.291,467.676,885.135,466.548
		z M375.053,414.588c14.646,9.351,24.05,32.505,47.778,12.646c26.154,26.149,51.753,51.743,77.705,77.688
		c-8.553,16.131-2.466,26.657,9.326,35.987c5.316,4.207,9.383,10.074,13.684,15.453c1.692,2.116,2.478,4.963,4.488,9.184
		C509.708,558.719,379.451,429.821,375.053,414.588z M478.834,304.899c13.137-3.004,16.937,5.091,22.021,9.946
		c7.809,7.463,14.879,13.807,26.388,5.517c2.676-1.931,9.419-0.363,13.071,1.728c4.791,2.748,8.484,7.501,12.449,11.579
		c20.372,20.939,40.684,41.945,62.245,64.195c-11.71,9.014-8.782,16.58-1.856,24.27c8.808,9.777,17.417,19.738,26.433,29.986
		c-4.373,3.813-7.34,6.396-11.115,9.686c-13.563-11.539-26.7-22.712-39.375-33.496c-5.804,2.436-9.854,4.131-14.176,5.941
		c-3.32-1.949-6.992-3.24-9.497-5.712c-21.716-21.445-43.452-42.879-64.523-64.944c-2.946-3.083-4.59-10.548-2.955-14.291
		c5.242-12.009,0.784-20.104-7.343-28.271C486.468,316.878,483.568,311.503,478.834,304.899z M446.889,118.194
		c-6.487,6.963-17.398,7.34-24.361,0.855c-6.965-6.488-7.341-17.399-0.86-24.359c6.499-6.965,17.402-7.348,24.369-0.862
		C453,100.322,453.377,111.229,446.889,118.194z M372.219,198.306c-6.491,6.959-17.402,7.349-24.359,0.856
		c-6.967-6.492-7.353-17.399-0.855-24.369c6.482-6.955,17.392-7.341,24.356-0.855C378.33,180.432,378.715,191.343,372.219,198.306z
		 M294.511,281.678c-6.492,6.964-17.393,7.35-24.362,0.862c-6.968-6.495-7.347-17.406-0.867-24.366
		c6.498-6.967,17.412-7.357,24.375-0.854C300.622,263.808,301,274.716,294.511,281.678z M357.712,340.584
		c6.488-6.964,17.394-7.346,24.352-0.854c6.965,6.491,7.358,17.399,0.864,24.357c-6.494,6.968-17.402,7.351-24.367,0.855
		C351.601,358.459,351.215,347.546,357.712,340.584z M446.5,251.793c9.482-0.853,17.857,6.144,18.706,15.63
		c0.847,9.482-6.161,17.861-15.639,18.712c-9.481,0.848-17.852-6.157-18.704-15.632C430.01,261.02,437.009,252.642,446.5,251.793z
		 M510.091,177.1c6.487-6.966,17.397-7.344,24.36-0.851c6.969,6.485,7.351,17.396,0.858,24.359
		c-6.498,6.959-17.399,7.351-24.363,0.854C503.981,194.971,503.602,184.062,510.091,177.1z M351.924,257.559
		c6.494-6.964,17.39-7.339,24.365-0.852c6.958,6.49,7.35,17.396,0.854,24.363c-6.496,6.962-17.402,7.346-24.367,0.854
		C345.817,275.429,345.434,264.523,351.924,257.559z M430.685,173.058c6.485-6.956,17.393-7.342,24.362-0.851
		c6.967,6.494,7.342,17.395,0.861,24.361c-6.505,6.967-17.41,7.353-24.369,0.853C424.573,190.932,424.183,180.033,430.685,173.058z
		 M141.176,372.2c24.452,2.927,48.118,5.764,71.786,8.6c0.406,1.639,0.813,3.276,1.219,4.912
		c-12.74,7.235-25.167,15.104-38.323,21.482c-9.225,4.471-19.726,7.062-28.385-1.65C138.968,396.986,138.845,386.278,141.176,372.2z
		"/>
	<path display="none" d="M1086.472,1236.762c-0.178,1.599-0.357,3.229-0.52,4.693c-3.404,0.798-6.689,1.589-9.988,2.313
		c-0.27,0.061-0.759-0.264-0.939-0.538c-0.76-1.15-1.441-2.354-2.235-3.678c-2.45,1.062-4.842,2.094-7.333,3.17
		c0.49,1.448,0.966,2.744,1.347,4.066c0.089,0.302-0.024,0.877-0.248,1.029c-2.798,1.904-5.633,3.755-8.59,5.705
		c-0.849-0.696-1.882-1.497-2.848-2.365c-0.558-0.503-0.972-0.619-1.539-0.018c-1.453,1.548-2.937,3.063-4.431,4.567
		c-0.445,0.449-0.449,0.778-0.027,1.261c0.909,1.04,1.753,2.137,2.52,3.08c-1.822,2.914-3.56,5.726-5.354,8.5
		c-0.156,0.245-0.708,0.395-1.037,0.341c-1.18-0.183-2.336-0.517-3.517-0.693c-0.291-0.045-0.827,0.205-0.938,0.458
		c-0.942,2.146-1.813,4.324-2.748,6.6c1.371,0.659,2.624,1.225,3.832,1.871c0.28,0.149,0.625,0.624,0.575,0.881
		c-0.659,3.395-1.38,6.775-2.116,10.3c-1.406,0.152-3.008,0.326-4.93,0.535c0.115,2.705,0.229,5.377,0.345,8.132
		c1.671,0.085,3.278,0.163,4.675,0.235c0.79,3.475,1.566,6.81,2.286,10.154c0.056,0.255-0.191,0.71-0.434,0.869
		c-0.995,0.659-2.066,1.206-3.054,1.875c-0.252,0.171-0.504,0.724-0.41,0.969c0.854,2.219,1.788,4.409,2.725,6.67
		c1.512-0.438,2.843-0.803,4.159-1.219c0.577-0.184,0.871-0.028,1.209,0.479c1.702,2.568,3.426,5.12,5.22,7.62
		c0.458,0.639,0.426,1.028-0.042,1.578c-0.823,0.968-1.598,1.976-2.489,3.088c2.021,1.954,4.023,3.888,6.088,5.878
		c1.217-1.116,2.371-2.182,3.592-3.3c1.458,1.024,2.869,2.081,4.343,3.036c1.355,0.877,2.756,1.705,4.192,2.442
		c0.675,0.347,0.771,0.681,0.544,1.348c-0.416,1.236-0.749,2.504-1.188,4.003c2.322,0.887,4.604,1.778,6.905,2.603
		c0.207,0.073,0.693-0.229,0.85-0.483c0.627-1.017,1.148-2.097,1.774-3.112c0.146-0.239,0.593-0.487,0.846-0.439
		c3.364,0.63,6.723,1.31,10.277,2.017c0.179,1.353,0.393,2.944,0.637,4.794c2.66-0.075,5.332-0.15,8.12-0.229
		c0.115-1.705,0.224-3.339,0.318-4.765c3.379-0.804,6.632-1.597,9.897-2.329c0.286-0.063,0.795,0.167,0.97,0.42
		c0.676,0.983,1.224,2.055,1.903,3.034c0.171,0.246,0.729,0.479,0.972,0.384c2.214-0.882,4.396-1.836,6.684-2.81
		c-0.518-1.723-0.988-3.299-1.4-4.681c2.878-2.103,5.627-4.133,8.418-6.108c0.242-0.167,0.868-0.073,1.137,0.133
		c1.036,0.798,1.999,1.687,3.104,2.639c1.93-1.996,3.81-3.942,5.783-5.983c-0.896-1.036-1.719-2.039-2.599-2.988
		c-0.53-0.57-0.567-0.963-0.086-1.662c1.596-2.313,3.123-4.678,4.554-7.096c0.474-0.798,0.879-0.969,1.722-0.72
		c1.212,0.358,2.461,0.593,3.853,0.917c0.951-2.449,1.882-4.841,2.826-7.271c-1.381-0.803-2.625-1.491-3.82-2.252
		c-0.248-0.156-0.512-0.604-0.464-0.864c0.605-3.291,1.265-6.568,1.933-9.989c1.418-0.193,3.014-0.414,4.799-0.658
		c-0.051-2.602-0.101-5.161-0.151-7.796c-1.757-0.136-3.358-0.26-4.79-0.371c-0.804-3.431-1.602-6.758-2.332-10.101
		c-0.062-0.278,0.254-0.763,0.53-0.966c1.116-0.813,2.288-1.557,3.604-2.437c-0.983-2.203-1.935-4.383-2.954-6.529
		c-0.092-0.196-0.646-0.304-0.944-0.243c-1.17,0.229-2.32,0.592-3.493,0.791c-0.328,0.057-0.863-0.189-1.064-0.47
		c-1.755-2.435-3.436-4.922-5.19-7.357c-0.383-0.532-0.452-0.882-0.013-1.396c0.867-1.021,1.683-2.092,2.598-3.235
		c-1.882-1.816-3.703-3.573-5.618-5.426c-1.119,0.874-2.229,1.684-3.272,2.571c-0.515,0.438-0.854,0.391-1.394,0.029
		c-2.563-1.704-5.151-3.373-7.758-5.013c-0.507-0.317-0.709-0.58-0.522-1.185c0.341-1.104,0.646-2.228,0.869-3.357
		c0.061-0.301-0.142-0.872-0.371-0.975c-2.114-0.922-4.261-1.771-6.498-2.68c-0.802,1.403-1.453,2.63-2.204,3.79
		c-0.181,0.275-0.735,0.528-1.059,0.469c-3.213-0.605-6.414-1.276-9.817-1.97c-0.229-1.375-0.501-3-0.813-4.868
		C1091.813,1236.566,1089.211,1236.66,1086.472,1236.762z M1121.3,1261.544c2.36-2.442,4.678-4.843,7.039-7.287
		c0.771,0.745,1.449,1.4,2.223,2.145c-0.793,1.021-1.543,2.039-2.348,3.007c-0.423,0.503-0.577,0.864-0.104,1.482
		c2.037,2.664,4.022,5.368,5.98,8.091c0.388,0.538,0.741,0.523,1.27,0.34c1.193-0.412,2.404-0.779,3.676-1.188
		c0.762,1.787,1.513,3.468,2.174,5.188c0.091,0.234-0.18,0.771-0.436,0.946c-0.885,0.615-1.813,1.17-2.768,1.674
		c-0.582,0.307-0.714,0.652-0.573,1.289c0.709,3.16,1.396,6.327,2.023,9.504c0.145,0.725,0.5,0.923,1.145,1.003
		c1.287,0.159,2.563,0.387,3.871,0.587c-0.013,2.104-0.024,4.062-0.037,6.045c-1.282,0.195-2.477,0.322-3.636,0.592
		c-0.369,0.09-0.857,0.522-0.937,0.878c-0.743,3.271-1.397,6.563-2.109,9.84c-0.129,0.596,0.013,0.896,0.575,1.167
		c1.272,0.612,2.51,1.307,3.834,2.008c-0.787,1.95-1.539,3.825-2.301,5.712c-0.556-0.124-0.969-0.216-1.381-0.307
		c-1.088-0.237-2.34-0.915-3.211-0.586c-0.872,0.334-1.38,1.659-2.013,2.572c-1.553,2.243-3.086,4.502-4.653,6.791
		c1.104,1.235,2.146,2.401,3.201,3.592c-1.522,1.578-2.961,3.067-4.486,4.646c-1.157-1.001-2.282-1.979-3.489-3.026
		c-3.069,2.16-6.13,4.294-9.16,6.479c-0.203,0.146-0.26,0.674-0.196,0.989c0.252,1.23,0.578,2.444,0.881,3.685
		c-1.878,0.834-3.628,1.613-5.438,2.42c-0.702-1.229-1.302-2.393-2.022-3.476c-0.205-0.306-0.812-0.59-1.156-0.516
		c-3.317,0.716-6.611,1.522-9.926,2.262c-0.604,0.138-0.805,0.418-0.861,0.998c-0.136,1.326-0.33,2.645-0.445,3.533
		c-2.173,0.146-4.159,0.279-6.17,0.414c-0.24-1.313-0.426-2.573-0.724-3.806c-0.072-0.315-0.452-0.726-0.755-0.791
		c-3.244-0.686-6.503-1.301-9.752-1.963c-0.596-0.121-0.899,0.031-1.168,0.588c-0.562,1.177-1.212,2.31-1.874,3.553
		c-1.98-0.82-3.889-1.609-5.873-2.434c0.358-1.27,0.655-2.46,1.039-3.621c0.218-0.658,0.101-1.043-0.502-1.42
		c-2.815-1.748-5.619-3.521-8.395-5.333c-0.531-0.346-0.862-0.295-1.304,0.085c-0.816,0.705-1.647,1.396-2.521,2.028
		c-0.243,0.175-0.781,0.289-0.956,0.149c-0.711-0.562-1.335-1.234-2.081-1.957c2.431-2.518,4.744-4.914,7.058-7.31
		c-15.396-14.551-18.021-42.206-3.188-57.969C1074.051,1248.135,1097.316,1241.577,1121.3,1261.544z"/>
	<path display="none" d="M1074.943,1276.372c-0.439,0.784-1.173,1.423-1.83,2.066c-0.856,0.842-1.851,1.229-3.128,1.111
		c-2.303-0.209-4.756,1.786-5.045,4.104c-0.291,2.304-1.113,4.247-2.774,5.927c-0.536,0.544-0.728,1.599-0.773,2.434
		c-0.192,3.219,1.522,5.133,4.682,5.491c0.979,0.109,2.096-0.12,3.021,0.881c-3.224,2.731-7.486,3.854-10.229,7.251
		c0.757,0.73,1.482,1.436,2.317,2.24c0.567-0.589,1.068-1.232,1.698-1.709c0.354-0.268,1.113-0.518,1.351-0.337
		c0.613,0.471,0.16,1.019-0.258,1.455c-0.529,0.556-1.063,1.104-1.711,1.774c0.598,0.577,1.095,1.167,1.705,1.598
		c0.266,0.186,0.847,0.175,1.145,0.001c0.659-0.382,1.193-0.983,1.855-1.366c0.273-0.157,0.742,0.014,1.122,0.035
		c-0.056,0.335,0.004,0.771-0.185,0.997c-0.637,0.76-1.359,1.445-2.093,2.204c0.838,0.811,1.575,1.521,2.452,2.367
		c0.706-0.729,1.386-1.498,2.141-2.182c0.235-0.214,0.676-0.206,1.021-0.299c0.197-0.054,0.465-0.041,0.589-0.167
		c2.178-2.24,4.339-4.492,6.495-6.755c0.091-0.094,0.086-0.276,0.186-0.633c-1.826,0.477-3.219,1.75-5.351,1.473
		c0.355-0.602,0.533-1.104,0.875-1.438c2.135-2.089,4.556-3.513,7.698-3.392c0.495,0.02,1.12-0.418,1.508-0.816
		c9.934-10.248,19.845-20.519,29.759-30.785c1.038-1.077,2.08-2.151,3.354-3.474c-2.037-1.5-3.86-3.031-5.861-4.282
		c-5.978-3.738-12.49-4.846-19.328-3.172c-5.521,1.351-9.572,4.822-12.353,9.739
		C1077.576,1271.229,1076.354,1273.853,1074.943,1276.372z M1076.295,1283.478c0.325,0.196,0.577,0.608,0.733,0.972
		c1.536,3.565,3.089,7.126,4.531,10.729c0.308,0.763,0.302,1.709,0.224,2.551c-0.082,0.941-0.665,1.182-1.646,0.905
		c-4.327-1.225-8.002-3.54-11.486-6.423c-0.389-0.699-1.14-1.423-1.091-2.087c0.105-1.436,0.459-2.901,1.004-4.235
		C1069.833,1282.771,1073.411,1281.701,1076.295,1283.478z"/>
	<path d="M1049.094,1251.621c-22.525,23.396-21.746,60.39,1.753,83.021c23.199,22.345,60.293,21.531,82.773-1.815
		c22.419-23.282,21.573-60.415-1.891-82.956C1108.578,1227.631,1071.438,1228.416,1049.094,1251.621z M1085.952,1241.455
		c0.161-1.465,0.342-3.096,0.52-4.693c2.739-0.102,5.344-0.194,7.944-0.29c0.312,1.868,0.585,3.493,0.813,4.868
		c3.403,0.693,6.604,1.364,9.817,1.97c0.322,0.062,0.878-0.191,1.058-0.469c0.752-1.16,1.403-2.386,2.204-3.79
		c2.238,0.91,4.385,1.758,6.498,2.681c0.23,0.103,0.433,0.674,0.372,0.975c-0.225,1.131-0.529,2.253-0.87,3.357
		c-0.186,0.604,0.018,0.865,0.523,1.185c2.604,1.639,5.194,3.308,7.758,5.012c0.539,0.361,0.879,0.41,1.394-0.028
		c1.045-0.89,2.153-1.697,3.272-2.571c1.915,1.852,3.736,3.607,5.618,5.425c-0.915,1.145-1.729,2.216-2.598,3.236
		c-0.439,0.516-0.37,0.863,0.013,1.396c1.756,2.438,3.437,4.924,5.19,7.358c0.201,0.279,0.736,0.524,1.064,0.47
		c1.173-0.2,2.323-0.563,3.493-0.792c0.298-0.061,0.854,0.047,0.944,0.244c1.021,2.146,1.971,4.326,2.954,6.529
		c-1.315,0.88-2.487,1.621-3.604,2.436c-0.276,0.203-0.593,0.688-0.53,0.966c0.73,3.343,1.528,6.67,2.332,10.102
		c1.432,0.11,3.033,0.234,4.79,0.37c0.052,2.636,0.101,5.194,0.151,7.797c-1.785,0.244-3.381,0.465-4.799,0.657
		c-0.668,3.421-1.326,6.698-1.933,9.989c-0.048,0.26,0.216,0.708,0.464,0.865c1.195,0.76,2.439,1.449,3.82,2.252
		c-0.944,2.429-1.875,4.82-2.826,7.27c-1.392-0.323-2.641-0.559-3.854-0.917c-0.842-0.249-1.248-0.077-1.721,0.721
		c-1.431,2.418-2.958,4.781-4.554,7.096c-0.482,0.699-0.445,1.091,0.086,1.662c0.88,0.948,1.703,1.952,2.599,2.987
		c-1.975,2.041-3.854,3.987-5.783,5.983c-1.105-0.952-2.068-1.841-3.104-2.638c-0.269-0.206-0.895-0.3-1.137-0.133
		c-2.791,1.976-5.54,4.007-8.418,6.107c0.412,1.382,0.884,2.958,1.4,4.682c-2.286,0.974-4.47,1.928-6.684,2.809
		c-0.244,0.097-0.801-0.137-0.972-0.383c-0.682-0.98-1.229-2.051-1.903-3.034c-0.175-0.253-0.684-0.483-0.97-0.42
		c-3.267,0.731-6.52,1.524-9.898,2.329c-0.095,1.426-0.202,3.059-0.317,4.764c-2.788,0.079-5.46,0.154-8.12,0.229
		c-0.244-1.85-0.458-3.441-0.637-4.793c-3.557-0.707-6.913-1.388-10.277-2.018c-0.253-0.047-0.698,0.201-0.846,0.44
		c-0.626,1.016-1.147,2.096-1.774,3.111c-0.155,0.255-0.643,0.559-0.85,0.483c-2.303-0.823-4.583-1.715-6.905-2.602
		c0.439-1.5,0.772-2.768,1.188-4.004c0.227-0.667,0.131-1.001-0.544-1.348c-1.438-0.737-2.838-1.564-4.192-2.442
		c-1.474-0.954-2.885-2.012-4.343-3.036c-1.221,1.118-2.375,2.184-3.592,3.301c-2.063-1.99-4.065-3.924-6.088-5.878
		c0.893-1.112,1.665-2.12,2.489-3.089c0.467-0.55,0.5-0.938,0.042-1.577c-1.794-2.5-3.518-5.053-5.22-7.62
		c-0.338-0.507-0.632-0.661-1.209-0.479c-1.316,0.416-2.647,0.779-4.159,1.22c-0.938-2.262-1.869-4.451-2.725-6.671
		c-0.094-0.245,0.157-0.798,0.41-0.969c0.986-0.669,2.059-1.216,3.054-1.875c0.241-0.159,0.487-0.614,0.434-0.869
		c-0.72-3.345-1.496-6.68-2.286-10.153c-1.396-0.072-3.004-0.15-4.675-0.235c-0.116-2.755-0.229-5.427-0.345-8.132
		c1.922-0.209,3.522-0.383,4.93-0.535c0.736-3.524,1.457-6.906,2.116-10.3c0.05-0.257-0.295-0.731-0.575-0.882
		c-1.208-0.646-2.461-1.212-3.832-1.87c0.936-2.275,1.805-4.454,2.748-6.601c0.111-0.253,0.647-0.503,0.938-0.458
		c1.181,0.179,2.337,0.513,3.517,0.694c0.329,0.053,0.881-0.096,1.037-0.341c1.794-2.775,3.53-5.586,5.354-8.5
		c-0.767-0.944-1.609-2.04-2.52-3.08c-0.422-0.482-0.418-0.813,0.027-1.261c1.493-1.504,2.978-3.021,4.431-4.567
		c0.567-0.603,0.98-0.486,1.539,0.017c0.966,0.868,1.999,1.669,2.848,2.365c2.957-1.95,5.792-3.8,8.59-5.705
		c0.224-0.151,0.336-0.728,0.248-1.029c-0.381-1.321-0.855-2.617-1.347-4.065c2.491-1.076,4.883-2.109,7.333-3.17
		c0.794,1.323,1.477,2.525,2.235,3.677c0.182,0.275,0.671,0.599,0.939,0.539C1079.263,1243.044,1082.548,1242.253,1085.952,1241.455
		z"/>
	<path d="M1058.338,1264.836c-14.832,15.763-12.209,43.418,3.188,57.969c-2.313,2.396-4.627,4.792-7.059,7.31
		c0.746,0.723,1.37,1.396,2.081,1.957c0.175,0.14,0.713,0.024,0.956-0.149c0.874-0.634,1.705-1.323,2.522-2.028
		c0.439-0.38,0.771-0.431,1.303-0.084c2.775,1.811,5.578,3.584,8.396,5.332c0.603,0.377,0.72,0.762,0.502,1.421
		c-0.385,1.161-0.682,2.352-1.039,3.62c1.983,0.823,3.892,1.612,5.873,2.434c0.662-1.243,1.313-2.376,1.874-3.552
		c0.268-0.558,0.571-0.709,1.168-0.589c3.249,0.662,6.508,1.277,9.752,1.964c0.302,0.064,0.682,0.475,0.755,0.79
		c0.297,1.231,0.481,2.491,0.723,3.806c2.011-0.135,3.997-0.271,6.17-0.414c0.115-0.89,0.312-2.207,0.445-3.533
		c0.058-0.579,0.258-0.86,0.862-0.998c3.313-0.738,6.606-1.546,9.926-2.262c0.345-0.074,0.951,0.21,1.156,0.517
		c0.722,1.082,1.319,2.246,2.021,3.475c1.813-0.807,3.563-1.586,5.439-2.42c-0.304-1.239-0.63-2.453-0.882-3.685
		c-0.063-0.315-0.007-0.845,0.196-0.989c3.03-2.185,6.091-4.317,9.16-6.479c1.207,1.048,2.332,2.025,3.489,3.026
		c1.525-1.579,2.964-3.068,4.487-4.646c-1.058-1.188-2.099-2.354-3.201-3.592c1.566-2.289,3.101-4.548,4.652-6.791
		c0.634-0.913,1.142-2.238,2.014-2.572c0.87-0.329,2.123,0.35,3.211,0.586c0.412,0.091,0.825,0.183,1.38,0.307
		c0.762-1.886,1.514-3.761,2.301-5.712c-1.324-0.701-2.561-1.396-3.834-2.008c-0.563-0.271-0.704-0.571-0.575-1.166
		c0.712-3.277,1.366-6.57,2.109-9.841c0.079-0.354,0.567-0.788,0.937-0.878c1.159-0.27,2.354-0.396,3.637-0.592
		c0.012-1.983,0.023-3.939,0.037-6.045c-1.31-0.2-2.584-0.428-3.871-0.587c-0.646-0.08-1-0.278-1.146-1.003
		c-0.628-3.177-1.313-6.344-2.022-9.504c-0.142-0.637-0.01-0.982,0.572-1.288c0.954-0.505,1.884-1.06,2.769-1.675
		c0.255-0.177,0.524-0.712,0.435-0.946c-0.66-1.72-1.412-3.399-2.174-5.188c-1.271,0.409-2.48,0.776-3.676,1.188
		c-0.527,0.185-0.881,0.199-1.27-0.339c-1.957-2.724-3.943-5.428-5.98-8.091c-0.473-0.619-0.318-0.98,0.104-1.483
		c0.806-0.968,1.555-1.986,2.348-3.007c-0.772-0.743-1.451-1.398-2.223-2.145c-2.361,2.444-4.679,4.846-7.038,7.287
		C1097.316,1241.577,1074.051,1248.135,1058.338,1264.836z M1062.201,1323.435c3.243-3.358,6.343-6.576,9.464-9.771
		c0.141-0.144,0.496-0.082,0.755-0.116c-0.031,0.286,0.042,0.661-0.115,0.844c-0.646,0.752-1.358,1.442-2.053,2.161
		c0.659,0.636,1.201,1.16,1.819,1.759c0.633-0.659,1.176-1.313,1.819-1.845c0.276-0.229,0.769-0.195,1.161-0.282
		c-0.041,0.407,0.045,0.892-0.146,1.203c-0.458,0.739-1.047,1.396-1.569,2.068c0.834,0.805,1.566,1.512,2.381,2.297
		c0.646-0.667,1.201-1.302,1.826-1.858c0.235-0.21,0.633-0.239,0.958-0.351c-0.031,0.368,0.063,0.814-0.116,1.088
		c-0.51,0.792-1.132,1.518-1.686,2.235c0.866,0.836,1.622,1.566,2.528,2.442c0.776-1.059,1.563-1.956,2.156-2.971
		c1.341-2.295,2.567-4.657,3.894-6.963c0.168-0.291,0.641-0.404,0.974-0.601c0.165,0.358,0.382,0.701,0.482,1.077
		c0.065,0.243-0.047,0.533-0.054,0.801c-0.086,3.404,4.125,6.392,7.298,5.171c0.243-0.096,0.485-0.251,0.67-0.438
		c1.466-1.533,3.306-2.358,5.334-2.835c2.589-0.606,4.075-2.114,4.283-4.882c0.071-0.947,0.41-1.992,0.953-2.769
		c1.677-2.399,3.816-4.139,6.643-5.299c7.688-3.151,12.724-8.641,13.528-17.222c0.655-6.984-1.837-13.021-6.112-18.412
		c-0.782-0.984-1.616-1.931-2.431-2.897c1.634-1.692,3.183-3.294,4.926-5.102c10.3,11.759,14.92,25.134,11.149,40.35
		c-4.135,16.691-15.03,27.615-31.712,31.793C1086.522,1337.789,1073.813,1332.479,1062.201,1323.435z M1088.915,1302.135
		c3.514,1.442,7.091,2.737,10.636,4.109c0.345,0.131,0.729,0.325,0.938,0.604c1.828,2.419,1.061,6.186-1.615,7.618
		c-1.033,0.555-2.221,0.829-3.335,1.234c-1.308,0.477-2.254,0.095-3.226-0.932c-3.333-3.517-6.02-7.384-7.265-12.238
		C1086.333,1301.638,1087.513,1301.559,1088.915,1302.135z M1082.313,1302.271c-0.164,1.17-0.205,2.247-0.479,3.261
		c-0.516,1.915-1.642,3.46-3.246,4.625c-0.231,0.168-0.725,0.234-0.929,0.1c-0.182-0.124-0.271-0.664-0.155-0.896
		C1078.737,1306.842,1079.396,1303.948,1082.313,1302.271z M1074.943,1276.372c1.411-2.521,2.633-5.145,4.054-7.655
		c2.779-4.917,6.831-8.39,12.353-9.739c6.837-1.674,13.352-0.566,19.328,3.172c2.001,1.252,3.824,2.782,5.861,4.282
		c-1.274,1.321-2.316,2.396-3.354,3.474c-9.914,10.268-19.824,20.537-29.759,30.785c-0.388,0.398-1.013,0.836-1.508,0.816
		c-3.144-0.121-5.563,1.303-7.698,3.393c-0.342,0.334-0.52,0.838-0.875,1.438c2.132,0.277,3.523-0.996,5.35-1.473
		c-0.099,0.355-0.094,0.539-0.185,0.633c-2.156,2.263-4.317,4.515-6.495,6.755c-0.124,0.126-0.392,0.113-0.589,0.167
		c-0.346,0.093-0.785,0.085-1.021,0.299c-0.756,0.684-1.436,1.451-2.142,2.182c-0.877-0.847-1.614-1.558-2.452-2.367
		c0.732-0.759,1.456-1.444,2.094-2.204c0.188-0.228,0.128-0.662,0.184-0.997c-0.38-0.021-0.85-0.192-1.122-0.035
		c-0.662,0.383-1.196,0.984-1.856,1.366c-0.297,0.174-0.878,0.185-1.144-0.001c-0.61-0.431-1.107-1.021-1.705-1.598
		c0.648-0.672,1.183-1.22,1.711-1.774c0.418-0.438,0.871-0.984,0.259-1.455c-0.237-0.181-0.997,0.069-1.352,0.337
		c-0.63,0.477-1.131,1.12-1.698,1.709c-0.835-0.806-1.562-1.51-2.317-2.24c2.743-3.396,7.007-4.52,10.229-7.251
		c-0.925-1.001-2.041-0.771-3.021-0.881c-3.158-0.358-4.874-2.271-4.682-5.491c0.047-0.835,0.237-1.89,0.773-2.434
		c1.661-1.68,2.484-3.623,2.773-5.927c0.289-2.318,2.743-4.313,5.046-4.104c1.277,0.117,2.271-0.271,3.128-1.11
		C1073.771,1277.795,1074.504,1277.156,1074.943,1276.372z"/>
	<path d="M1081.834,1305.53c-0.516,1.915-1.642,3.46-3.246,4.625c-0.231,0.168-0.725,0.234-0.929,0.1
		c-0.182-0.124-0.271-0.664-0.155-0.896c1.233-2.517,1.894-5.409,4.81-7.088C1082.147,1303.438,1082.107,1304.518,1081.834,1305.53z
		"/>
	<path d="M1076.295,1283.478c0.325,0.196,0.577,0.608,0.733,0.972c1.536,3.565,3.089,7.126,4.531,10.729
		c0.308,0.763,0.302,1.709,0.224,2.551c-0.082,0.941-0.665,1.182-1.646,0.905c-4.327-1.225-8.002-3.54-11.486-6.423
		c-0.389-0.699-1.14-1.423-1.091-2.087c0.105-1.436,0.459-2.901,1.004-4.235C1069.833,1282.771,1073.411,1281.701,1076.295,1283.478
		z"/>
</g>
</svg>
