<?xml version="1.0" encoding="utf-8"?>
<!-- Generator: Adobe Illustrator 16.0.3, SVG Export Plug-In . SVG Version: 6.00 Build 0)  -->
<!DOCTYPE svg PUBLIC "-//W3C//DTD SVG 1.1//EN" "http://www.w3.org/Graphics/SVG/1.1/DTD/svg11.dtd">
<svg version="1.1" xmlns="http://www.w3.org/2000/svg" xmlns:xlink="http://www.w3.org/1999/xlink" x="0px" y="0px"
	 width="1417.32px" height="1417.32px" viewBox="0 0 1417.32 1417.32" enable-background="new 0 0 1417.32 1417.32"
	 xml:space="preserve">
<g id="Ebene_1">
</g>
<g id="Ebene_2">
	<g>
		<path fill="none" d="M606.766,407.151c0.232,0.007,0.456,0.318,0.684,0.49c-0.401,4.648-1.425,13.844-1.425,13.844
			s1.856,0.006,2.629,0.006c0.885-5.343,0,0,0.885-5.343c0.755,0,1.03,0,1.787,0c0,1.843,0,4.091,0,5.343c1.105,0,2.376,0,3.557,0
			c0-2.1,0-3.408,0-5.343c0.939,0,1.731,0,2.617,0c0,1.603,0,4.312,0,5.343c0.92,0,1.989,0,3.575,0c0-1.787,0-3.5,0-5.324
			c1.087,0,1.548-0.019,2.616-0.019c0,1.708,0,4.367,0,5.343c1.401,0,2.782,0,3.556,0c0-1.252,0-3.593,0-5.343
			c0.677,0,1.75,0,2.654,0c0,1.326,0,3.999,0,5.343c1.64,0,2.598,0,3.537,0c0-1.437,0-4.183,0-5.343c0.553,0,0.996,0,1.751,0
			c0.904,5.343,0,0,0.904,5.343c1.095,0,1.621,0,2.635,0c0.176-4.779-1.196-9.47-1.734-14.229c3.129-0.454,6.03,2.063,8.705-0.302
			c4.382-3.875,7.387-15.348,4.839-20.502c-1.529-3.092-1.454-5.848-0.615-8.915c0.698-2.553,1.292-5.14,1.814-7.736
			c4.297-21.358-6.228-36.686-26.41-38.497c-17.403-1.563-30.903,8.29-33.312,24.458c-1.042,6.989,0.442,13.788,2.23,20.495
			c0.964,3.616,1.186,6.823-0.411,10.6c-2.947,6.973,0.525,13.168,4.121,19.031C600.342,409.786,603.776,407.058,606.766,407.151z
			 M641.085,386.772c3.08-0.327,5.036,2.486,4.285,5.536c-1.057,4.297-4.213,6.463-8.743,6.008
			c-4.303-0.433-7.667-2.403-10.334-6.196C630.837,388.789,635.846,387.326,641.085,386.772z M622.291,397.525
			c3.982,3.349,3.982,6.363,3.982,10.614c-3.919-4.25-3.919-4.25-7.988,0C618.285,403.888,618.285,400.874,622.291,397.525z
			 M603.07,386.698c5.404,0.386,10.537,2.079,15.229,5.294c-2.893,4.301-6.681,6.159-11.33,6.411
			c-3.951,0.214-7.478-2.692-7.923-6.594C598.708,388.848,600.135,386.49,603.07,386.698z"/>
		<path fill="none" d="M622.172,477.696c10.726-17.026,8.458-35.411,8.518-53.765c-5.687,0-11.013,0-16.686,0
			C614.383,442.213,611.458,460.652,622.172,477.696z"/>
		<path fill="none" d="M660.947,700.082c-0.371-7.408,2.202-15.111-2.072-22.291c-1.151,0.133-2.307,0.268-4.161,0.483
			c0,6.26,0,12.202,0,18.175c-3.866,2.745-7.664,4.774-10.543,7.706c-2.1,2.139-3.395,5.337-4.345,8.291
			c-2.855,8.879-5.352,17.874-8.021,26.814c-0.844,2.827-1.746,5.641-2.696,8.435c-0.719,2.114-1.33,4.31-2.386,6.254
			c-4.218,7.771-4.879,17.136-10.82,24.133c-0.278,0.328-0.09,1.01-0.275,1.463c-3.82,9.34-3.873,20.535-14.024,26.794
			c1.48,7.248-1.779,12.352-5.993,15.457c-1.212,4.17-1.179,7.918-3.03,9.646c-4.045,3.771-6.937,7.725-7.681,13.267
			c-0.148,1.105-1.295,2.093-2.031,3.101c-3.936,5.385-7.886,10.76-11.382,15.525c1.025,3.333,1.663,5.407,2.353,7.652
			c-4.973,6.2-9.804,12.224-13.017,16.229c-8.649,3.072-14.885,5.286-21.273,7.556c-0.313,8.519-6.16,11.29-13.071,13.128
			c-1.323,7.703-5.63,12.167-13.851,12.088c-1.279,8.038-7.525,9.389-13.281,10.417c-3.071,4.191-5.81,7.932-8.399,11.467
			c-3.167,0-5.371,0-7.304,0c-6.369,8.92-6.369,8.92-17.003,10.77c-1.833,2.662-3.644,5.291-5.455,7.921
			c0.102,0.568,0.203,1.135,0.305,1.701c15.348-3.388,30.961-5.901,45.953-10.46c10.946-3.327,21.072-9.35,31.565-14.171
			c1.586-0.728,3.121-1.888,4.776-2.097c12.024-1.532,21.252-8.705,30.039-15.895c8.906-7.288,16.62-16.038,24.767-24.237
			c1.75-1.761,3.158-3.87,4.66-5.866c3.309-4.393,6.588-8.807,9.859-13.226c1.637-2.211,3.539-4.294,4.794-6.707
			c5.049-9.71,11.538-18.982,9.927-30.88c-0.193-1.423,0.598-2.952,0.688-4.447c0.308-5.101,3.079-8.283,7.576-10.312
			c7.955-3.589,12.204-10.36,14.453-18.286c3.764-13.264,7.007-26.677,10.47-40.027c2.658-10.25,4.729-20.557,3.328-31.248
			c-0.159-1.213,0.034-2.5,0.229-3.727c1.09-6.874,2.343-13.725,3.289-20.617c0.297-2.171-0.182-4.447-0.302-6.597
			C665.266,702.291,663.332,701.301,660.947,700.082z"/>
		<path fill="none" d="M665.96,339.875c4.909,2.656,7.708,7.387,6.958,13.298c-0.784,6.189-4.89,9.851-10.36,12.17
			c-6.662,2.824-10.882,13.846-6.802,19.864c3.409,5.027,4.049,10.169,3.827,15.845c-0.179,4.562-0.05,9.135-0.029,13.705
			c0.029,6.813,2.979,10.534,10.456,12.659c0-10.815,0-21.469,0-32.123c0.574-0.078,1.149-0.155,1.723-0.232
			c3.094,12.25,3.794,24.991,6.722,37.681c5.414-0.447,10.625-0.877,16.393-1.355c-3.864-13.53-7.581-26.554-11.299-39.577
			c0.589-0.192,1.18-0.385,1.77-0.579c5.877,12.044,11.755,24.089,17.776,36.427c5.658-3.887,10.912-7.085,15.779-11.255
			c-1.019-1.411-1.819-2.619-2.715-3.758c-7.09-9.043-14.205-18.067-21.292-27.112c-1.325-1.689-3.088-3.441-0.532-5.03
			c10.73,10.234,21.269,20.289,32.021,30.545c3.233-3.452,6.803-7.261,10.531-11.24c-1.14-0.908-2.374-1.933-3.652-2.901
			c-10.445-7.924-20.894-15.842-31.351-23.75c-1.933-1.461-3.282-2.951-0.736-5.192c1.635,0.985,3.16,1.867,4.65,2.806
			c11.836,7.462,23.656,14.952,35.512,22.381c1.242,0.779,2.522,2.457,4.218,0.645c4.254-4.549,8.502-9.107,13.018-13.944
			c-1.536-0.716-2.309-1.118-3.112-1.446c-15.664-6.407-31.326-12.818-47.005-19.191c-2.243-0.913-4.703-1.548-3.008-5.016
			c1.413,0.333,2.838,0.601,4.224,1.009c17.358,5.122,34.727,10.213,52.049,15.455c2.716,0.821,4.597,0.604,6.584-1.609
			c4.72-5.261,9.709-10.28,14.533-15.448c0.714-0.765,2.065-1.373,1.326-3.044c-25.918-1.43-51.885-2.864-77.712-4.289
			c-0.611-2.202-0.752-3.744,0.113-5.224c1.614-0.782,3.252-0.385,4.841-0.37c25.787,0.248,51.575,0.53,77.364,0.774
			c1.442,0.014,3.282,0.638,4.269-0.46c3.263-3.633,6.262-7.504,9.707-11.709c-47.457,0-93.965,0-140.58,0
			C661.466,333.716,661.142,337.267,665.96,339.875z"/>
		<path fill="none" d="M272.036,437.908c-0.738,5.041-1.234,10.28-2.316,15.396c-1.635,7.727-5.867,10.347-13.497,9.13
			c-4.59-0.731-9.223-1.193-15.084-1.934c3.522,5.929,8.495,6.686,12.923,6.798c16.057,0.405,32.156,0.805,48.189,0.099
			c21.221-0.934,26.204-18.122,22.147-30.258C315.449,435.372,277.554,435.856,272.036,437.908z"/>
		<path fill="none" d="M605.054,314.052c4.949-0.284,7.629,6.932,7.629,6.932s1.888,5.787,3.051,9.089c6.646-0.602,0,0,6.646-0.602
			c6.646,0.602,0,0,6.646,0.602c1.163-3.302,3.051-9.089,3.051-9.089s2.681-7.215,7.629-6.932c2.055,0.118,3.018,2.458,2.943,0.457
			c0-2.358,0-3.906,0-6.265c-4.52,0-7.763,0.002-13.267,0.002c-2.482,0-3.612-3.049-3.612-5.162c0-9.14,0-16.756,0-20.979
			c0-4.745,3.612-4.745,3.612-4.745v-8.918c0,0-3.612,0.171-3.612-1.278c0-3.071-3.391-3.071-3.391-3.071s-3.39,0-3.39,3.071
			c0,1.449-3.612,1.278-3.612,1.278v8.918c0,0,3.612,0,3.612,4.745c0,4.223,0,11.839,0,20.979c0,2.113-1.13,5.162-3.612,5.162
			c-5.504,0-8.747-0.002-13.268-0.002c0,2.358,0,3.906,0,6.265C602.035,316.51,603,314.17,605.054,314.052z"/>
		<path fill="none" d="M581.493,365.104c-5.143-2.253-8.922-5.94-9.741-11.679c-0.833-5.851,1.795-10.671,6.724-13.407
			c4.804-2.667,4.979-6.16,3.935-10.594c-46.677,0-93.212,0-140.369,0c2.492,3.053,4.759,5.405,6.514,8.092
			c2.096,3.208,4.736,4.133,8.501,4.054c17.679-0.371,35.363-0.488,53.047-0.63c9.381-0.074,18.765-0.013,28.11-0.013
			c0.572,1.842,0.811,3.391-0.064,5.378c-25.899,1.421-51.967,2.849-79.25,4.345c6.965,7.254,13.084,13.578,19.138,19.965
			c1.394,1.47,2.719,0.552,4.057,0.167c6.507-1.873,13.003-3.782,19.499-5.699c12.528-3.696,25.053-7.406,37.587-11.112
			c1.389,2.957,0.143,4.034-2.137,4.942c-11.484,4.579-22.927,9.263-34.375,13.932c-5.385,2.196-10.75,4.441-16.672,6.892
			c5.078,5.451,9.644,10.353,14.278,15.325c14.734-9.264,29.02-18.247,43.264-27.202c2.712,2.846,0.74,4.161-1.088,5.542
			c-10.342,7.816-20.689,15.626-31.001,23.48c-1.354,1.031-3.054,1.784-3.775,3.951c3.627,3.462,7.312,6.981,11.283,10.771
			c10.687-10.531,21.1-20.791,31.523-31.063c1.796,1.583,0.851,3.019-0.332,4.507c-3.026,3.804-6.018,7.636-9.014,11.464
			c-5.128,6.553-10.25,13.11-15.53,19.862c5.343,4.091,10.25,7.763,16.041,11.063c5.98-12.222,11.855-24.226,17.729-36.229
			c0.599,0.213,1.199,0.425,1.797,0.639c-3.766,13.062-7.533,26.124-11.401,39.537c4.652,0.42,8.621,0.621,12.535,1.185
			c3.2,0.462,4.39-0.681,4.835-3.846c1.333-9.478,2.901-18.923,4.549-28.351c0.315-1.799-0.207-4.18,2.992-5.705
			c0,11.253,0,21.982,0,33.923c2.706-1.911,4.05-3.094,5.591-3.903c3.813-2.006,5.228-4.883,4.908-9.286
			c-0.427-5.864,0.103-11.792-0.179-17.672c-0.2-4.18,0.875-7.644,3.179-11.136C592.985,379.313,589.436,368.584,581.493,365.104z"
			/>
		<path fill="none" d="M1370.872,448.753c-6.528,2.168-12.144,1.283-17.188,0.292c-2.578-4.356-4.684-7.913-7.476-12.629
			c-0.761,5.132-1.262,8.513-1.887,12.717c-5.928,0-11.271,0-17.137,0c0.461,3.388,0.786,5.78,1.152,8.473c5.72,0,10.867,0,15.754,0
			c0.96,2.295,1.675,4.002,2.774,6.635c2.669-3.088,4.724-5.465,7.471-8.645c4.025,0.231,9.215-0.689,13.295,1.029
			c7.47,3.149,14.572,1.612,22.296,1.53c0-3.608,0-6.43,0-9.786C1383.138,448.37,1376.452,446.9,1370.872,448.753z"/>
		<path fill="none" d="M927.696,238.302c-2.874-12.947-4.817-25.901-9.288-39.229c-3.964,1.793-6.972,4.009-10.185,4.366
			c-3.242,0.36-6.688-1.126-10.771-1.95c-4.487,3.946-9.6,2.406-14.595-0.874c-5.201,3.029-10.335,4.773-15.888-0.192
			c-5.944,6.026-12.053,2.492-17.51,0.177c-9.444,3.995-9.444,3.995-17.552,0.687c-8.362,3.823-8.761,3.825-16.114,0.104
			c-6.842,3.451-6.842,3.451-14.689,1.596c-3.59,1.076-6.58,2.943-9.156,2.482c-2.804-0.501-5.224-3.162-7.816-4.884
			c-6.22,5.979-10.829,7.639-16.905,0.667c-3.324,1.441-6.537,4.108-9.291,3.697c-3.177-0.473-5.949-3.664-9.757-6.262
			c-2.869,13.416-5.704,26.674-8.495,39.728c4.233,1.668,7.669,3.024,10.762,4.243c0.692,2.829,1.211,4.95,1.95,7.961
			c51.826-0.979,103.437-1.955,155.17-2.933C911.082,237.863,920.147,240.847,927.696,238.302z"/>
		<path fill="none" d="M1313.439,449.167c-1.836-12.132-10.607-21.229-21.287-22.228c-13.024-1.215-23.296,5.151-26.938,17.948
			c-2.745,9.642-2.254,19.473,3.315,28.36c8.841,14.115,28.11,15.953,38.628,3.701c4.984-5.804,7.045-12.652,6.767-20.268
			C1313.773,454.175,1313.813,451.64,1313.439,449.167z"/>
		<path fill="none" d="M1173.434,452.616c-0.992,0.036-1.968,0.525-2.952,0.803c0.073,0.514,0.147,1.028,0.218,1.542
			c14.495,1.013,29.008,0.605,43.52,0.317c0.141-0.716,0.281-1.433,0.425-2.149c-2.039-0.562-4.087-1.637-6.116-1.601
			C1196.827,451.734,1185.13,452.186,1173.434,452.616z"/>
		<path d="M636.627,398.316c4.529,0.456,7.686-1.71,8.743-6.008c0.751-3.05-1.205-5.863-4.285-5.536
			c-5.239,0.554-10.248,2.016-14.792,5.348C628.96,395.913,632.324,397.884,636.627,398.316z"/>
		<path d="M626.273,408.139c0-4.25,0-7.265-3.982-10.614c-4.005,3.349-4.005,6.363-4.005,10.614
			C622.354,403.888,622.354,403.888,626.273,408.139z"/>
		<path d="M1395.642,467.049c-0.197-20.843-0.003-41.689,0.03-62.534c0.028-19.89,0.031-19.89-14.803-33.502
			c-10.256-9.41-21.044-10.184-32.572-2.419c-0.76,0.512-1.877,0.496-4.189,1.052c-1.23-1.862-2.752-4.163-4.45-6.729
			c-45.493,0-90.634,0-136.259,0c-2.371-8.051-2.477-15.38-0.982-22.933c2.018-0.279,3.241-0.592,4.463-0.595
			c15.818-0.04,31.638,0.086,47.453-0.131c3.943-0.054,8.04-0.673,11.775-1.915c7.235-2.409,8.552-4.677,8.54-12.262
			c-0.005-4.968-0.198-9.939-0.087-14.904c0.189-8.523-1.522-11.217-9.609-13.78c-2.113-0.671-4.445-1.003-6.662-0.942
			c-17.806,0.497-35.606,1.137-53.41,1.682c-0.932,0.029-1.881-0.404-2.656-0.583c-1.426-6.426-2.524-12.583-4.186-18.586
			c-3.066-11.091-7.715-14.541-19.363-15.033c-4.77-0.202-9.387-0.908-13.179-3.641c-1.36-8.296,5.289-10.238,10.765-13.971
			c0-12.231,0.063-24.716-0.02-37.199c-0.081-12.437,0.964-24.962-2.058-37.057c-17.083-2.771-42.946-3.107-55.519,0.66
			c-5.322,7.746-10.42,16.134-16.508,23.726c-5.146,6.416-11.063,12.357-17.34,17.68c-5.846,4.958-13.027,7.022-20.992,6.964
			c-22.622-0.167-45.249,0.058-67.873,0.276c-3.926,0.038-7.846,0.794-12.208,1.267c-2.352,6.036-4.51,11.572-6.854,17.585
			c-5.958,0.13-8.954-5.831-14.753-6.699c-1.436-8.407-2.946-16.527-4.178-24.689c-0.9-5.963,0.797-11.39,4.178-16.348
			c2.26-3.315,4.29-6.793,6.618-10.058c5.738-8.048,4.705-16.237-0.12-23.954c-4.361-6.977-9.472-13.506-14.552-19.998
			c-1.251-1.597-3.583-3.033-5.563-3.256c-9.061-1.02-17.767-0.634-22.399,9.293c-0.173,0.372-0.822,0.522-2.094,1.276
			c-6.429,0-13.703,0.029-20.976-0.027c-1.236-0.01-2.638-0.073-3.675-0.64c-4.727-2.587-9.144-3.374-14.145-0.153
			c-1.779,1.146-4.867,0.369-7.352,0.286c-1.988-0.066-3.977-0.657-5.951-0.59c-8.769,0.296-17.54,1.138-26.295,0.985
			c-4.832-0.083-9.877-3.113-14.389-2.319c-4.846,0.854-9.541,2.497-14.629,2.366c-11.443-0.293-22.893-0.589-34.338-0.549
			c-11.745,0.043-23.488,0.525-35.234,0.716c-1.953,0.031-3.915-0.438-5.472-0.627c-2.144-2.793-3.842-4.921-5.426-6.507
			c-0.303-0.303-0.601-0.58-0.897-0.844c-0.179-0.159-0.357-0.312-0.535-0.458c-1.563-1.279-3.112-2.045-4.992-2.425
			c-0.173-0.035-0.356-0.059-0.536-0.087c-0.145-0.023-0.283-0.052-0.432-0.071c-3.001-0.383-6.873,0.052-12.773,0.876
			c-5.212,3.387-5.939,8.534-6.257,13.625c-0.073,1.175-0.125,2.347-0.204,3.494c-16.633,12.407-20.308,32.295,0.113,47.222
			c1.08,11.718-1.909,22.923-5.581,35.256c-9.376-3.608-14.56,4.099-21.761,6.473c-0.681,2.592-1.327,5.047-2.283,8.683
			c-2.046-2.555-3.527-3.92-4.421-5.598c-5.777-10.84-11.463-21.728-17.094-32.645c-1.744-3.383-3.14-6.989-5.583-7.207
			c-10.137,1.458-18.233,3.596-26.339,3.633c-60.333,0.281-120.672,0.446-181.001-0.157c-10.062-0.1-16.953,2.513-22.088,10.719
			c-0.666,1.063-1.433,2.065-2.166,3.086c-7.885,11.013-15.772,22.025-24.1,33.653c-3.703,0-7.435,0.002-11.168,0
			c-46.757-0.026-93.515,0.055-140.271-0.198c-6.776-0.036-11.505,2.282-15.341,7.607c-3.944,5.475-8.213,10.715-11.555,15.042
			c-6.128,2.022-11.052,3.647-16.503,5.446c-0.714,7.654-1.37,14.679-1.972,21.13c3.275,2.288,5.52,3.854,7.764,5.421
			c-0.176,0.474-0.352,0.946-0.528,1.42c-14.253,0-28.505,0-42.192,0c-1.982,2.468-3.384,4.212-4.604,5.731
			c-3.5-0.751-6.125-1.314-9.763-2.094c-1.474,6.011-2.862,11.675-4.251,17.339c2.551,3.495,7.206,5.092,6.076,9.846
			c-3.071,0.582-5.908,1.117-9.075,1.717c0.267,6.067,0.507,11.54,0.72,16.391c2.568,3.339,4.733,6.154,7.193,9.352
			c-3.258,0.975-5.342,1.598-7.996,2.39c0.33,5.943,0.645,11.608,0.981,17.665c8.885,3.039,9.281,10.478,9.694,17.88
			c0.055,0.986-0.287,1.989-0.313,2.988c-0.156,5.966,1.165,11.373,5.318,16c2.077,2.314,3.56,5.161,4.95,7.227
			c-2.208,5.89-6.722,6.447-10.685,7.825c-9.706,3.376-14.002,9.571-13.697,19.681c0.061,2.007,0.112,4.035-0.107,6.023
			c-0.56,5.054-3.457,8.809-8.33,9.416c-8.58,1.069-12.518,6.575-15.344,13.709c-3.052,7.705-6.257,15.352-9.169,23.108
			c-1.563,4.163-3.886,6.974-8.652,7.011c-3.673,0.029-6.201,1.81-7.553,5.196c-4.935,12.366-9.825,24.749-14.772,37.109
			c-1.777,4.441-0.363,7.894,3.259,10.552c3.037,2.228,6.179,4.333,9.399,6.287c3.677,2.229,5.555,5.314,6.594,9.546
			c1.792,7.3,4.189,14.465,6.625,21.587c0.785,2.293,1.987,5.071,3.863,6.253c8.424,5.303,15.351,13.108,25.547,15.498
			c4.889,1.146,9.732,2.48,14.599,3.716c7.222,1.834,14.349,1.897,21.793-1.604c9.356,6.278,18.87,12.661,28.553,19.157
			c1.552-1.699,3.046-2.611,3.421-3.858c2.961-9.85,6.042-19.689,8.303-29.708c0.613-2.719-0.613-6.722-2.442-8.948
			c-4.132-5.031-5.74-10.354-5.153-16.698c0.3-3.237,0.042-6.531-0.04-9.798c-0.442-17.638-0.315-35.195,6.326-51.979
			c4.061-10.264,7.692-20.719,15.354-29.102c2.971-3.25,6.118-6.065,10.753-6.152c10.021-0.19,20.048-0.43,30.068-0.3
			c17.581,0.227,35.158,0.744,52.738,1.083c6.535,0.127,13.08-0.073,19.604,0.219c2.546,0.114,5.05,1.174,8.109,1.937
			c0,8.301-0.098,15.803,0.056,23.301c0.05,2.449-0.104,5.704,1.309,7.183c6.47,6.776,12.233,14.882,23.5,14.107
			c6.174-0.423,12.417,0.126,19.019,0.244c1.175,4.674,2.142,8.527,3.111,12.379c5.807,23.073,8.421,46.925,17.563,69.21
			c2.263,5.518,5.391,8.18,10.871,8.64c2.745,0.231,5.524,0.032,8.286,0.082c33.903,0.614,67.808,1.166,101.708,1.933
			c5.873,0.133,11.723,1.198,18.639,1.947c0,5.414,0.152,9.885-0.034,14.341c-0.335,8.078,2.11,14.313,10.387,17.155
			c1.152,0.396,2.294,1.155,3.144,2.033c3.085,3.186,6.878,3.742,11.066,3.599c5.199-0.176,10.409-0.042,16.584-0.042
			c0.282,4.85,0.567,8.768,0.723,12.691c0.207,5.183-0.844,10.553,3.266,14.989c0.852,0.919,0.96,2.913,0.786,4.335
			c-0.931,7.589,0.044,15.764-6.473,21.745c-0.853,0.783-1.359,2.182-1.582,3.377c-2.925,15.753-10.167,29.938-16.423,44.429
			c-5.464,12.656-11.29,25.253-18.177,37.171c-5.542,9.596-13.08,17.905-24.836,20.569c-4.896,1.108-7.971,4.413-9.204,9.059
			c-2.245,8.467-7.817,14.378-14.029,20.053c-13.527,12.36-27.097,24.688-40.236,37.453c-17.766,17.26-38.866,27.046-63.725,29.914
			c-0.772-0.563-1.725-1.366-2.777-2.006c-8.06-4.889-16.845-2.712-22.224,5.104c-2.234,3.245-5.179,6.001-7.51,8.65
			c-11.415,1.156-22.152,2.222-32.882,3.338c-3.987,0.416-7.246-0.896-10.459-3.278c-3.389-2.513-7.101-4.695-10.917-6.506
			c-12.708-6.026-25.522-11.826-38.3-17.703c-5.899-2.713-11.99-5.069-17.679-8.167c-11.857-6.455-24.624-11.499-34.042-21.869
			c-2.481-2.731-5.845-4.672-8.85-6.913c-5.217-3.89-10.714-7.444-15.649-11.66c-6.671-5.702-13.096-11.724-19.309-17.926
			c-7.099-7.083-13.607-14.766-20.816-21.728c-7.914-7.643-15.557-15.987-24.731-21.795c-11.089-7.019-23.643-11.732-35.616-17.325
			c-1.221-0.571-2.816-0.34-4.318-0.488c-0.261,1.176-0.723,1.982-0.53,2.576c3.475,10.699,5.84,21.839,12.844,31.117
			c3.016,3.995,5.731,8.233,8.361,12.498c1.469,2.384,1.635,4.809-2.562,6.443c-1.967-1.392-4.828-2.674-6.635-4.837
			c-4.974-5.951-9.849-12.046-14.137-18.498c-7.366-11.086-14.305-22.459-21.33-33.768c-4.571-7.358-11.073-12.729-19.059-15.216
			c-5.942-1.851-10.213-4.865-13.688-9.65c-1.471-2.026-2.928-4.093-4.638-5.911c-2.768-2.945-5.743-5.687-10.292-4.534
			c-2.795,8.213-2.78,8.21-1.368,14.683c5.662,25.959,14.343,50.688,29.421,72.856c3.813,5.607,7.221,11.488,11.034,17.096
			c2.041,2.998,4.546,5.68,6.841,8.506c0.098-0.08,0.196-0.161,0.294-0.243c2.38,3.455,4.76,6.912,7.521,10.916
			c-0.574,2.93-1.287,6.581-2.197,11.233c4.588,4.372,9.429,8.984,14.176,13.507c2.911-1.615,5.382-2.987,8.269-4.59
			c0.968,2.955,1.653,5.047,2.213,6.753c6.305,5.816,12.266,11.313,19.855,18.313c1.146,4.106,6.151,6.56,12.323,7.427
			c3.237,7.375,8.834,11.438,16.515,12.76c5.148,3.494,10.723,6.227,16.089,9.324c5.303,3.059,10.394,6.484,16.709,10.463
			c0.048,0.214,0.476,2.092,0.881,3.875c5.408,3.291,10.536,6.413,15.333,9.336c2.099-0.35,3.57-0.69,5.06-0.827
			c6.315-0.581,12.583-1.193,17.316,4.604c1.014,1.242,2.953,2.071,4.603,2.395c6.588,1.292,13.342,1.872,19.821,3.542
			c7.94,2.046,15.593,5.081,24.037,4.839c1.72-0.051,3.486,1.813,5.244,2.771c3.18,1.734,6.278,2.474,10.064,1.308
			c2.631-0.81,5.757-0.255,8.628,0.029c2.713,0.27,5.375,1.393,8.069,1.432c12,0.176,24.007-0.004,36.007,0.2
			c2.365,0.041,5.27,0.558,6.956,1.996c4.214,3.593,8.857,4.49,14.05,3.919c4.855-0.534,9.433-0.188,13.777,2.55
			c1.805,1.136,4.361,1.93,6.423,1.671c14.322-1.796,28.239,4.035,42.539,2.084c0.699-0.096,1.532,0.155,2.188,0.478
			c6.583,3.233,13.115,2.809,19.487-0.681c5.487,2.744,10.772,3.344,16.126,0.412c1.017-0.557,2.507-0.646,3.687-0.438
			c5.553,0.987,10.83,0.083,16.332-0.988c5.397-1.052,10.935-0.923,15.66-4.414c0.859-0.634,2.462-0.178,3.684-0.419
			c5.027-0.983,10.04-2.043,15.057-3.074c10.177-1.375,10.177-1.375,16.678-6.029c6.778,1.627,11.75-2.379,16.76-6.387
			c6.924,1.143,11.182-3.42,15.591-7.515c7.16,0.451,12.107-2.979,15.658-8.844c6.752,0.372,11.167-2.812,13.674-8.968
			c8.021,0.986,11.952-4.144,15.042-9.803c7.873-2.102,7.982-2.197,12.806-11.091c6.986-0.337,10.31-4.91,11.547-11.886
			c7.713-0.134,10.364-5.224,11.285-12.035c7.087-0.917,9.673-5.767,10.296-11.724c7.573-4.701,7.655-4.82,9.629-13.585
			c6.592-3.834,6.592-3.834,9.026-14.934c11.521-5.812,19.853-14.9,22.186-28.141c0-5.105,0-10.212,0-15.147
			c1.865-2.56,3.605-4.949,5.131-7.044c-0.958-2.756-1.683-4.838-2.419-6.953c2.006-2.513,3.851-4.821,5.747-7.193
			c-0.761-2.637-1.448-5.011-1.817-6.294c2.397-5.718,5.284-10.316,6.193-15.277c1.562-8.519,0.827-17.451,5.483-25.362
			c0.796-1.354,0.479-3.399,0.556-5.132c0.076-1.727-0.274-3.512,0.037-5.185c1.274-6.852,2.772-13.662,4.075-20.509
			c0.226-1.18-0.204-2.468-0.153-3.699c0.344-8.122,0.736-16.241,1.027-22.538c5.046-4.036,8.614-6.889,12.361-9.887
			c0-5.868,0-11.312,0-17.591c4.74-0.374,8.915-0.917,13.097-0.987c9.142-0.154,18.554,1.472,26.646-4.652
			c0.16-0.121,0.491-0.015,1.174-0.015c4.788,1.611,7.677,6.004,10.214,10.149c3.376,5.513,7.744,8.226,14.047,8.257
			c0.388,0.002,0.774,0.557,1.191,0.879c0,4.313,0,8.646,0,13.04c-5.377,0.513-10.009,0.955-15.573,1.486
			c0.811,8.527-2.343,16.562,3.441,24.516c8.219,0.335,16.624,0.678,26.129,1.064c0,5.372-0.109,10.07,0.026,14.763
			c0.233,8.138,2.277,10.11,10.401,10.449c3.902,0.165,7.801,0.375,12.314,0.593c0,7.957-0.097,14.97,0.021,21.981
			c0.229,13.845,1.372,27.858-9.407,39.187c1.504,2.303,2.3,4.213,3.69,5.464c1.6,1.441,3.725,2.3,5.351,3.251
			c1.153,12.35-2.207,35.015-6.13,42.208c7.345,11.605,7.345,11.605-4.71,18.603c-3.939,11.3-8.127,22.856-11.912,34.542
			c-0.797,2.46-0.434,5.441-0.059,8.108c1.001,7.134-0.917,10.949-7.663,12.17c-4.739,0.858-7.691,3.277-9.95,7.151
			c-0.882,1.518-1.551,3.372-2.852,4.397c-5.325,4.196-6.379,9.782-6.268,16.105c0.075,4.26-0.369,8.629-5.485,11.806
			c-9.063-2.644-14.332,4.129-19.995,10.291c-2.546,2.771-5.406,5.253-8.078,7.913c-2.793,2.782-5.529,5.619-7.982,8.118
			c4.948,15.909,2.56,18.284-14.917,15.411c-6.521,4.947-13.419,9.96-20.047,15.309c-3.064,2.473-5.548,5.652-8.39,8.414
			c-2.819,2.74-5.424,5.897-8.708,7.925c-9.188,5.671-18.67,10.869-28.053,16.224c-7.414,4.23-14.57,9.062-22.352,12.456
			c-10.073,4.396-20.683,7.551-31.009,11.381c-8.936,3.313-17.592,7.575-26.739,10.071c-14.266,3.894-28.952,6.235-43.248,10.032
			c-9.836,2.612-19.605,3.777-29.745,3.651c-21.358-0.262-42.744,0.538-64.077-0.256c-12.714-0.471-25.356-3.073-38.013-4.841
			c-10.161-1.418-20.433-2.417-30.413-4.673c-18.119-4.092-36.051-9.01-54.082-13.502c-2.402-0.599-5.194-1.554-7.33-0.868
			c-3.605,1.161-6.384-0.138-9.331-1.409c-14.298-6.171-28.564-12.416-42.862-18.591c-7.579-3.271-15.339-6.162-22.765-9.749
			c-8.364-4.04-16.496-8.576-24.623-13.089c-2.823-1.567-5.263-3.807-7.993-5.564c-8.62-5.55-17.286-11.028-25.966-16.482
			c-0.551-0.347-1.37-0.266-2.049-0.379c-0.477,1.719-0.91,3.28-1.772,6.387c-8.14-7.196-17.355-8.921-26.638-9.792
			c-4.454,3.639-8.658,7.074-12.932,10.565c-2.303-1.9-4-3.298-5.695-4.697c-0.149,0.325-0.299,0.652-0.449,0.979
			c-6.816-2.126-13.631-4.254-20.673-6.45c-3.094,3.158-5.942,6.326-9.065,9.198c-9.528,8.767-19.843,16.487-26.161,28.57
			c-3.696,7.071-6.756,13.306-5.387,21.122c-0.308,5.067-0.617,10.133-1.029,16.898c-2.787,6.244-2.787,6.244,1.252,14.214
			c-1.333,4.14-2.564,7.524-3.502,10.989c-1.083,4.005-1.908,8.08-3.016,12.858c1.124,1.431,2.81,3.575,4.471,5.687
			c-0.21,2.126-0.403,4.076-0.677,6.847c9.149,7.062,18.425,14.218,27.138,20.939c3.108-0.7,5.031-1.134,7.205-1.623
			c4.685,4.815,12.029,6.188,15.285,12.84c0.673,1.373,2.716,2.145,4.225,3.023c3.234,1.885,6.532,3.661,10,5.589
			c0.057,4.69,2.924,7.268,6.706,9.19c9.175,4.661,18.328,9.37,27.489,14.061c0.146-0.428,0.292-0.855,0.438-1.284
			c6.729,1.682,13.46,3.363,22.298,5.572c3.703,1.902,9.454,4.857,15.087,7.752c0.143,2.627,0.26,4.779,0.399,7.344
			c11.438,5.879,22.725,11.681,34.003,17.479c2.157-3.032,3.683-5.175,5.25-7.378c5.064,2.091,9.622,3.973,15.089,6.231
			c4.976-10.06,9.677-19.568,14.722-29.77c3.188,1.977,5.399,3.347,7.301,4.525c-0.864,9.244-5.284,16.996-4.926,25.957
			c6.541,2.049,12.642,3.961,18.852,5.91c-0.351,3.146-0.62,5.566-0.982,8.829c12.26,4.388,24.415,8.737,36.957,13.228
			c2.034-4.107,3.664-7.399,5.558-11.224c4.707,0.844,9.296,1.664,14.805,2.649c2.788-9.958,5.516-19.7,8.361-29.858
			c3.192,0.595,5.254,0.979,7.669,1.431c-1.083,10.228-3.909,19.658-2.968,30.038c6.316,1.122,12.114,2.151,17.878,3.175
			c0.446,3.213,0.815,5.881,1.297,9.353c12.822,2.143,25.521,4.265,38.496,6.433c1.307-3.976,2.284-6.947,3.339-10.156
			c5.253,0.613,10.124,1.181,16.137,1.881c1.541-9.764,2.945-18.669,4.339-27.501c4.197,0,7.32,0,10.726,0
			c0.792,9.111,1.541,17.748,2.349,27.057c7.04,0.386,13.387,0.734,19.541,1.072c0.725,3.452,1.273,6.066,1.875,8.934
			c13.077-1.041,25.854,0.705,38.425-1.232c1.205-3.612,2.125-6.368,2.98-8.932c5.066-0.535,9.687-1.025,15.354-1.624
			c0-10.104,0-19.244,0-28.517c3.142-0.829,5.227-1.38,7.602-2.008c1.192,5.138,2.075,9.784,3.377,14.308
			c1.348,4.681,1.24,10.113,6.233,13.49c6.023-0.782,12.161-1.578,17.821-2.313c6.275,8.309,6.814,8.449,16.416,6.316
			c5.636-1.251,11.341-2.199,16.97-3.484c3.346-0.764,7.101-0.962,9.068-4.718c0-2.399,0-4.87,0-7.683
			c11.678-3.574,23.292-7.131,35.171-10.767c1.372,2.005,2.758,4.028,4.294,6.274c11.833-1.905,32.371-10.321,36.614-15.003
			c-0.546-2.142-1.15-4.513-1.77-6.948c4.305-2.769,8.385-5.395,12.19-7.841c-1.706-9.707-9.413-16.493-7.596-27.858
			c3.372,5.779,5.771,10.102,8.375,14.297c2.701,4.356,4.167,9.831,10.081,11.762c5.261-2.588,10.543-5.186,15.534-7.642
			c2.674,2.498,4.477,4.185,6.13,5.731c8.414-1.65,29.544-13.763,33.591-19.143c-0.738-2.555-1.481-5.131-2.239-7.755
			c4.21-3.192,8.098-6.142,12.294-9.324c-6.212-11.495-11.967-22.146-17.9-33.127c1.612-0.751,2.691-1.251,3.826-1.78
			c9.761,8.859,15.511,21.175,26.561,29.052c5.566-4.147,10.509-7.832,15.438-11.505c3.384,2.234,6.224,4.108,9.319,6.152
			c10.523-7.586,20.963-14.353,30.132-23.225c-2.176-3.52-3.985-6.445-6.11-9.882c3.202-3.271,6.29-6.421,9.334-9.526
			c-1.118-5.782-5.231-8.8-9.088-11.937c-4.379-3.565-7.48-7.61-6.745-14.127c10.418,4.654,15.821,15.413,26.586,19.13
			c4.575-4.329,8.866-8.389,13.085-12.382c3.101,1.654,5.496,2.933,8.36,4.461c9.336-8.464,17.907-17.326,25.037-27.485
			c-2.334-3.554-4.082-6.211-6.059-9.219c3.267-4.265,6.386-8.339,9.896-12.92c-4.566-4.19-8.561-7.856-12.937-11.87
			c1.233-1.773,2.289-3.295,3.671-5.281c6.35,3.101,12.281,5.997,18.671,9.117c3.882-5.882,7.154-10.841,10.339-15.665
			c2.616,0,4.809,0,7.709,0c6.26-10.079,12.567-20.232,18.721-30.142c-1.92-3.044-3.23-5.123-4.618-7.319
			c2.124-4.37,4.164-8.571,6.603-13.593c-5.019-3.609-9.616-6.918-14.215-10.225c2.633-0.167,4.957,0.455,7.288,1.06
			c7.979,2.074,10.243,0.885,13.168-6.728c0.952-2.479,2.118-4.877,3.112-7.142c3.588,0.254,6.275,0.445,8.741,0.621
			c5.216-7.892,11.643-29.882,10.762-36.784c-1.794-1.36-3.755-2.85-5.977-4.536c1.385-5.361,2.744-10.619,4.367-16.893
			c-5.857-2.289-11.194-4.373-17.435-6.812c2.926-2.762,5.055-4.771,6.724-6.346c5.937-0.697,11.098,3.006,16.204-0.07
			c0.411-0.754,1.057-1.396,1.076-2.058c0.19-6.339,3.057-10.807,8.53-14.123c1.842-1.116,3.293-3.848,3.753-6.083
			c1.366-6.621,2.511-13.333,3.064-20.066c0.602-7.314,0.923-14.831-5.673-19.404c-0.363-5.059-0.385-9.346-1.029-13.537
			c-1.359-8.852-2.228-17.358,8.798-21.586c0.235-8.348,0.172-16.372,0.77-24.346c0.593-7.908-0.817-14.445-8.862-17.932
			c-0.379-0.163-0.553-0.804-0.731-1.08c0-3.306,0-6.454,0-9.926c4.661-0.515,8.797-0.972,12.295-1.357
			c6.759-7.569,0.287-16.977,5.256-24.956c6.112,0,12.318,0,18.369,0c6.938-8.098,3.387-16.593,3.353-25.38
			c-5.744-0.473-11.108-0.915-16.75-1.379c0-4.461,0-8.328,0-12.715c8.112-0.17,12.475-4.751,15.905-11.181
			c1.969-3.69,4.891-7.168,8.14-9.815c6.094-4.968,8.227-10.992,7.277-18.575c-0.405-3.226-0.339-6.531-0.25-9.793
			c0.081-2.923,0.488-5.838,0.815-9.455c4.511-0.497,8.432-1.289,12.358-1.306c32.68-0.139,65.363-0.294,98.042-0.058
			c7.944,0.058,12.487-3.807,15.992-10.12c1.08-1.948,2.12-4.236,3.826-5.465c7.01-5.044,9.398-11.756,9.46-20.209
			c0.052-7.25,4.313-10.684,11.641-11.088c2.005-0.11,4.021-0.043,6.033-0.039c25.641,0.059,51.283,0.144,76.924,0.153
			c2.888,0,5.774-0.425,9.091-0.688c0-2.576-0.022-4.294,0.004-6.01c0.089-5.529-0.089-11.08,0.359-16.58
			c0.668-8.153,6.196-13.313,12.944-12.801c6.488,0.494,12.984,0.917,19.484,1.194c7.488,0.319,15.224,1.355,20.836-5.546
			c0.235-0.29,0.951-0.186,1.911-0.341c0.943,0.596,2.288,1.254,3.404,2.183c8.099,6.735,19.03,6.5,26.454-0.721
			c4.324-4.206,8.336-8.753,12.843-12.748c4.495-3.989,6.322-8.576,6.091-14.601
			C1396.278,501.709,1395.806,484.378,1395.642,467.049z M302.251,467.398c-16.034,0.706-32.132,0.306-48.189-0.099
			c-4.428-0.112-9.401-0.869-12.923-6.798c5.861,0.741,10.494,1.202,15.084,1.934c7.63,1.217,11.862-1.403,13.497-9.13
			c1.082-5.116,1.578-10.355,2.316-15.396c5.519-2.052,43.414-2.536,52.362-0.768C328.455,449.276,323.472,466.464,302.251,467.398z
			 M602.11,314.509c0-2.358,0-3.906,0-6.265c4.521,0,7.763,0.002,13.268,0.002c2.481,0,3.612-3.049,3.612-5.162
			c0-9.14,0-16.756,0-20.979c0-4.745-3.612-4.745-3.612-4.745v-8.918c0,0,3.612,0.171,3.612-1.278c0-3.071,3.39-3.071,3.39-3.071
			s3.391,0,3.391,3.071c0,1.449,3.612,1.278,3.612,1.278v8.918c0,0-3.612,0-3.612,4.745c0,4.223,0,11.839,0,20.979
			c0,2.113,1.129,5.162,3.612,5.162c5.503,0,8.747-0.002,13.267-0.002c0,2.358,0,3.906,0,6.265c0.075,2-0.888-0.339-2.943-0.457
			c-4.948-0.284-7.629,6.932-7.629,6.932s-1.888,5.787-3.051,9.089c-6.646-0.602,0,0-6.646-0.602c-6.646,0.602,0,0-6.646,0.602
			c-1.163-3.302-3.051-9.089-3.051-9.089s-2.68-7.215-7.629-6.932C603,314.17,602.035,316.51,602.11,314.509z M588.182,386.593
			c-2.304,3.492-3.379,6.957-3.179,11.136c0.282,5.881-0.248,11.809,0.179,17.672c0.32,4.403-1.095,7.28-4.908,9.286
			c-1.541,0.81-2.885,1.992-5.591,3.903c0-11.941,0-22.67,0-33.923c-3.199,1.525-2.677,3.905-2.992,5.705
			c-1.647,9.428-3.216,18.874-4.549,28.351c-0.445,3.166-1.635,4.308-4.835,3.846c-3.915-0.564-7.883-0.765-12.535-1.185
			c3.868-13.413,7.635-26.476,11.401-39.537c-0.599-0.214-1.198-0.426-1.797-0.639c-5.875,12.003-11.749,24.007-17.729,36.229
			c-5.791-3.3-10.697-6.972-16.041-11.063c5.279-6.751,10.401-13.309,15.53-19.862c2.996-3.828,5.988-7.66,9.014-11.464
			c1.183-1.488,2.128-2.923,0.332-4.507c-10.423,10.271-20.836,20.532-31.523,31.063c-3.972-3.791-7.656-7.31-11.283-10.771
			c0.722-2.167,2.421-2.92,3.775-3.951c10.312-7.854,20.659-15.665,31.001-23.48c1.828-1.381,3.801-2.696,1.088-5.542
			c-14.244,8.956-28.53,17.938-43.264,27.202c-4.634-4.972-9.2-9.874-14.278-15.325c5.922-2.451,11.287-4.696,16.672-6.892
			c11.448-4.669,22.891-9.353,34.375-13.932c2.28-0.909,3.526-1.985,2.137-4.942c-12.535,3.706-25.059,7.417-37.587,11.112
			c-6.496,1.917-12.992,3.826-19.499,5.699c-1.338,0.385-2.663,1.304-4.057-0.167c-6.054-6.387-12.173-12.711-19.138-19.965
			c27.282-1.496,53.35-2.924,79.25-4.345c0.875-1.987,0.636-3.536,0.064-5.378c-9.345,0-18.729-0.062-28.11,0.013
			c-17.684,0.142-35.368,0.259-53.047,0.63c-3.765,0.08-6.405-0.845-8.501-4.054c-1.755-2.687-4.022-5.039-6.514-8.092
			c47.156,0,93.692,0,140.369,0c1.044,4.434,0.869,7.927-3.935,10.594c-4.929,2.736-7.557,7.557-6.724,13.407
			c0.819,5.739,4.598,9.426,9.741,11.679C589.436,368.584,592.985,379.313,588.182,386.593z M593.833,386.863
			c1.597-3.777,1.375-6.984,0.411-10.6c-1.789-6.708-3.272-13.506-2.23-20.495c2.408-16.167,15.908-26.02,33.312-24.458
			c20.183,1.811,30.708,17.139,26.41,38.497c-0.522,2.596-1.116,5.183-1.814,7.736c-0.839,3.066-0.914,5.823,0.615,8.915
			c2.548,5.154-0.457,16.627-4.839,20.502c-2.675,2.365-5.576-0.151-8.705,0.302c0.538,4.759,1.911,9.45,1.734,14.229
			c-1.014,0-1.54,0-2.635,0c-0.904-5.343,0,0-0.904-5.343c-0.755,0-1.198,0-1.751,0c0,1.161,0,3.906,0,5.343
			c-0.939,0-1.896,0-3.537,0c0-1.344,0-4.017,0-5.343c-0.903,0-1.977,0-2.654,0c0,1.75,0,4.091,0,5.343c-0.774,0-2.155,0-3.556,0
			c0-0.977,0-3.635,0-5.343c-1.068,0-1.529,0.019-2.616,0.019c0,1.824,0,3.537,0,5.324c-1.586,0-2.654,0-3.575,0
			c0-1.032,0-3.741,0-5.343c-0.885,0-1.677,0-2.617,0c0,1.935,0,3.243,0,5.343c-1.18,0-2.451,0-3.557,0c0-1.252,0-3.5,0-5.343
			c-0.756,0-1.032,0-1.787,0c-0.885,5.343,0,0-0.885,5.343c-0.773,0-2.629-0.006-2.629-0.006s1.023-9.196,1.425-13.844
			c-0.229-0.172-0.452-0.483-0.684-0.49c-2.99-0.093-6.424,2.635-8.812-1.257C594.358,400.031,590.887,393.836,593.833,386.863z
			 M614.004,423.931c5.672,0,10.999,0,16.686,0c-0.06,18.354,2.208,36.739-8.518,53.765
			C611.458,460.652,614.383,442.213,614.004,423.931z M667.862,710.061c-0.946,6.893-2.199,13.743-3.289,20.617
			c-0.195,1.227-0.388,2.514-0.229,3.727c1.401,10.691-0.669,20.998-3.328,31.248c-3.463,13.351-6.706,26.764-10.47,40.027
			c-2.249,7.926-6.498,14.697-14.453,18.286c-4.497,2.028-7.268,5.211-7.576,10.312c-0.09,1.495-0.881,3.024-0.688,4.447
			c1.611,11.897-4.878,21.17-9.927,30.88c-1.255,2.413-3.157,4.496-4.794,6.707c-3.271,4.419-6.55,8.833-9.859,13.226
			c-1.502,1.996-2.91,4.105-4.66,5.866c-8.147,8.199-15.861,16.949-24.767,24.237c-8.787,7.189-18.015,14.362-30.039,15.895
			c-1.655,0.209-3.19,1.369-4.776,2.097c-10.494,4.821-20.62,10.844-31.565,14.171c-14.992,4.559-30.605,7.072-45.953,10.46
			c-0.102-0.566-0.203-1.133-0.305-1.701c1.811-2.63,3.621-5.259,5.455-7.921c10.634-1.85,10.634-1.85,17.003-10.77
			c1.933,0,4.137,0,7.304,0c2.589-3.535,5.328-7.275,8.399-11.467c5.755-1.028,12.002-2.379,13.281-10.417
			c8.221,0.079,12.528-4.385,13.851-12.088c6.911-1.838,12.758-4.609,13.071-13.128c6.388-2.27,12.624-4.483,21.273-7.556
			c3.212-4.006,8.043-10.029,13.017-16.229c-0.69-2.245-1.328-4.319-2.353-7.652c3.497-4.766,7.447-10.141,11.382-15.525
			c0.736-1.008,1.882-1.995,2.031-3.101c0.744-5.542,3.636-9.496,7.681-13.267c1.852-1.728,1.818-5.476,3.03-9.646
			c4.214-3.105,7.473-8.209,5.993-15.457c10.151-6.259,10.204-17.454,14.024-26.794c0.186-0.453-0.002-1.135,0.275-1.463
			c5.941-6.997,6.602-16.361,10.82-24.133c1.056-1.944,1.667-4.14,2.386-6.254c0.951-2.794,1.853-5.607,2.696-8.435
			c2.669-8.94,5.166-17.936,8.021-26.814c0.95-2.954,2.245-6.152,4.345-8.291c2.879-2.932,6.677-4.961,10.543-7.706
			c0-5.973,0-11.915,0-18.175c1.854-0.216,3.01-0.35,4.161-0.483c4.274,7.18,1.702,14.883,2.072,22.291
			c2.385,1.219,4.319,2.208,6.614,3.381C667.68,705.614,668.16,707.89,667.862,710.061z M793.01,340.994
			c-0.986,1.098-2.826,0.474-4.269,0.46c-25.789-0.244-51.577-0.527-77.364-0.774c-1.589-0.015-3.227-0.412-4.841,0.37
			c-0.865,1.48-0.724,3.022-0.113,5.224c25.827,1.425,51.794,2.859,77.712,4.289c0.739,1.672-0.612,2.28-1.326,3.044
			c-4.824,5.168-9.813,10.187-14.533,15.448c-1.987,2.213-3.868,2.43-6.584,1.609c-17.322-5.242-34.69-10.333-52.049-15.455
			c-1.385-0.408-2.811-0.676-4.224-1.009c-1.694,3.467,0.765,4.103,3.008,5.016c15.679,6.374,31.341,12.785,47.005,19.191
			c0.804,0.328,1.576,0.73,3.112,1.446c-4.516,4.837-8.764,9.395-13.018,13.944c-1.695,1.812-2.976,0.135-4.218-0.645
			c-11.856-7.429-23.676-14.919-35.512-22.381c-1.49-0.939-3.015-1.821-4.65-2.806c-2.546,2.241-1.197,3.731,0.736,5.192
			c10.458,7.907,20.906,15.825,31.351,23.75c1.278,0.968,2.513,1.993,3.652,2.901c-3.729,3.979-7.298,7.789-10.531,11.24
			c-10.752-10.257-21.29-20.311-32.021-30.545c-2.556,1.589-0.793,3.341,0.532,5.03c7.087,9.045,14.203,18.069,21.292,27.112
			c0.896,1.14,1.696,2.347,2.715,3.758c-4.867,4.17-10.121,7.368-15.779,11.255c-6.021-12.338-11.899-24.383-17.776-36.427
			c-0.589,0.193-1.181,0.386-1.77,0.579c3.718,13.022,7.435,26.047,11.299,39.577c-5.768,0.478-10.979,0.908-16.393,1.355
			c-2.928-12.69-3.628-25.43-6.722-37.681c-0.574,0.077-1.149,0.155-1.723,0.232c0,10.654,0,21.308,0,32.123
			c-7.477-2.125-10.427-5.846-10.456-12.659c-0.021-4.57-0.149-9.144,0.029-13.705c0.222-5.676-0.418-10.818-3.827-15.845
			c-4.081-6.018,0.14-17.041,6.802-19.864c5.47-2.319,9.576-5.981,10.36-12.17c0.75-5.911-2.049-10.642-6.958-13.298
			c-4.818-2.608-4.494-6.159-3.823-10.59c46.615,0,93.123,0,140.58,0C799.271,333.489,796.272,337.36,793.01,340.994z
			 M752.396,250.62c-0.739-3.011-1.258-5.132-1.95-7.961c-3.093-1.219-6.528-2.574-10.762-4.243
			c2.791-13.054,5.626-26.312,8.495-39.728c3.808,2.598,6.58,5.789,9.757,6.262c2.754,0.411,5.967-2.256,9.291-3.697
			c6.076,6.972,10.686,5.311,16.905-0.667c2.593,1.722,5.013,4.383,7.816,4.884c2.576,0.46,5.566-1.407,9.156-2.482
			c7.848,1.854,7.848,1.854,14.689-1.596c7.354,3.72,7.752,3.718,16.114-0.104c8.107,3.308,8.107,3.308,17.552-0.687
			c5.457,2.314,11.565,5.849,17.51-0.177c5.553,4.965,10.687,3.221,15.888,0.192c4.995,3.28,10.107,4.82,14.595,0.874
			c4.083,0.823,7.529,2.31,10.771,1.95c3.213-0.356,6.221-2.573,10.185-4.366c4.471,13.328,6.414,26.282,9.288,39.229
			c-7.549,2.544-16.614-0.439-20.131,9.385C855.832,248.665,804.222,249.641,752.396,250.62z M1041.319,558.318H833.688v-90.533
			h207.631V558.318z M1214.219,455.278c-14.512,0.289-29.024,0.696-43.52-0.317c-0.07-0.514-0.145-1.028-0.218-1.542
			c0.984-0.278,1.96-0.767,2.952-0.803c11.696-0.43,23.394-0.882,35.094-1.088c2.029-0.037,4.077,1.039,6.116,1.601
			C1214.5,453.845,1214.359,454.562,1214.219,455.278z M1307.157,476.948c-10.518,12.251-29.787,10.414-38.628-3.701
			c-5.569-8.887-6.061-18.718-3.315-28.36c3.643-12.796,13.914-19.163,26.938-17.948c10.68,0.998,19.451,10.096,21.287,22.228
			c0.373,2.473,0.334,5.008,0.484,7.514C1314.202,464.296,1312.142,471.145,1307.157,476.948z M1389.927,458.156
			c-7.724,0.082-14.826,1.619-22.296-1.53c-4.08-1.719-9.27-0.798-13.295-1.029c-2.747,3.179-4.802,5.556-7.471,8.645
			c-1.1-2.632-1.814-4.339-2.774-6.635c-4.887,0-10.034,0-15.754,0c-0.366-2.693-0.691-5.085-1.152-8.473c5.866,0,11.209,0,17.137,0
			c0.625-4.204,1.126-7.585,1.887-12.717c2.792,4.717,4.897,8.273,7.476,12.629c5.045,0.991,10.66,1.875,17.188-0.292
			c5.58-1.853,12.266-0.383,19.055-0.383C1389.927,451.726,1389.927,454.548,1389.927,458.156z"/>
		<path d="M606.969,398.402c4.648-0.252,8.437-2.109,11.33-6.411c-4.692-3.215-9.825-4.908-15.229-5.294
			c-2.935-0.208-4.361,2.15-4.024,5.11C599.492,395.71,603.019,398.617,606.969,398.402z"/>
		<rect x="833.688" y="467.785" display="none" fill="#FFFFFF" width="207.631" height="90.533"/>
	</g>
</g>
</svg>
