<?xml version="1.0" encoding="utf-8"?>
<!-- Generator: Adobe Illustrator 16.0.3, SVG Export Plug-In . SVG Version: 6.00 Build 0)  -->
<!DOCTYPE svg PUBLIC "-//W3C//DTD SVG 1.1//EN" "http://www.w3.org/Graphics/SVG/1.1/DTD/svg11.dtd">
<svg version="1.1" xmlns="http://www.w3.org/2000/svg" xmlns:xlink="http://www.w3.org/1999/xlink" x="0px" y="0px" width="1001px"
	 height="1001px" viewBox="0 0 1001 1001" enable-background="new 0 0 1001 1001" xml:space="preserve">
<g id="Ebene_4" display="none">
</g>
<g id="Ebene_1">
	<path display="none" fill-rule="evenodd" clip-rule="evenodd" fill="#FFFFFF" d="M-261.423-309.808
		c521.657,0,1043.314,0,1564.974,0c0,521.657,0,1043.314,0,1564.974c-521.658,0-1043.315,0-1564.973,0
		C-261.423,733.508-261.423,211.85-261.423-309.808z M802.111,939.568c42.189-40.926,81.994-79.537,121.607-117.963
		c-0.763-1.678-0.904-2.564-1.423-3.048c-24.034-22.391-48.004-44.853-72.333-66.919c-2.08-1.886-7.09-2.442-9.836-1.348
		c-9.55,3.804-15.953,1.407-22.972-6.173c-16.255-17.559-33.648-34.063-50.864-51.277c2.863-4.353,5.08-8.518,8.049-12.048
		c4.209-5.002,3.369-8.953-0.817-13.465c-5.488-5.914-10.716-12.116-15.509-18.598c-1.207-1.635-1.428-5.889-0.235-7.091
		c6.008-6.062,4.396-10.669-1.563-15.283c-2.044-1.585-3.503-3.953-5.6-5.44c-9.022-6.4-11.425-14.27-7.697-24.951
		c1.12-3.216-0.483-9.051-2.976-11.577c-12.632-12.798-25.898-24.972-39.085-37.212c-5.389-5.001-9.946-11.563-19.22-9.694
		c-1.894,0.381-4.813-2.643-6.779-4.583c-13.733-13.561-27.439-27.153-40.924-40.96c-3.834-3.926-7.195-7.006-12.06-1.576
		c-1.748-1.574-3.138-2.728-4.417-3.992c-41.345-40.903-82.448-82.056-124.201-122.537c-8.965-8.691-13.869-17.417-12.646-30.019
		c0.362-3.724-1.779-8.751-4.475-11.526c-11.076-11.402-22.767-22.209-34.313-33.15c-7.696-7.295-15.53-14.446-25.417-23.625
		c-6.625,8.417-12.895,16.379-19.391,24.63c-39.36-37.451-76.824-73.1-114.481-108.932c-4.386,4.002-7.984,7.287-11.789,10.759
		c-7.284-7.944-14.212-15.5-21.306-23.236c1.29-1.55,3.258-3.914,5.76-6.92c-32.66-33.505-65.115-66.8-99.302-101.872
		c-0.693,6.021-1.214,9.741-1.535,13.477c-1.914,22.289-3.579,44.602-5.81,66.858c-0.532,5.313,0.937,8.859,4.594,12.405
		c17.225,16.701,34.279,33.578,51.414,50.373c1.818,1.782,3.768,3.431,5.797,5.267c3.144-2.623,5.893-4.917,9.201-7.677
		c2.939,3.227,5.607,6.155,8.479,9.308c-6.434,5.739-12.156,10.842-19.022,16.967c-4.783-5.801-9.075-11.007-13.706-16.623
		c-4.676,4.189-8.404,7.411-12.003,10.771c-13.557,12.656-13.542,12.672-0.575,25.977c14.007,14.37,14.138,14.433,5.287,32.915
		c-1.92,4.01-1.444,6.625,1.595,9.595c6.529,6.376,12.564,13.282,19.356,19.353c2.677,2.392,6.781,4.245,10.324,4.406
		c9.935,0.446,17.404,4.188,24.308,11.592c23.826,25.556,48.211,50.593,72.522,75.695
		c51.887,53.576,103.864,107.065,155.779,160.615c1.01,1.044,1.712,2.387,3.109,4.377c-8.302,8.059-16.322,15.866-24.37,23.647
		c-3.59,3.471-7.789,6.545-3.158,12.409c0.633,0.801-1.466,4.538-3.055,6.186c-8.696,9.004-17.459,17.959-26.542,26.567
		c-5.644,5.348-11.897,10.052-17.878,15.046c3.181,3.801,4.237,5.269,5.484,6.551c19.27,19.82,38.511,39.67,57.873,59.401
		c14.117,14.386,14.177,14.296,28.809,0.327c11.831-11.296,23.704-22.544,35.391-33.653c6.661,4.101,6.615,4.052,11.697-0.688
		c7.391-6.895,14.856-13.711,22.12-20.404c1.426,0.657,2.288,0.812,2.791,1.318c12.844,12.974,25.809,25.836,38.27,39.167
		c1.606,1.72,1.742,6.476,0.581,8.861c-9.454,19.436-18.933,38.886-29.297,57.845c-9.135,16.707-19.679,21.278-38.4,18.055
		c-4.597-0.791-7.813-1.459-9.406,4.397c-1.799,6.609,2.979,6.809,6.726,7.944c22.406,6.794,44.964,13.117,67.229,20.348
		c8.14,2.642,11.846,0.401,15.836-6.787c14.28-25.74,29.236-51.109,44.217-76.453c1.432-2.421,4.866-5.285,7.299-5.221
		c15.089,0.398,30.165,1.456,45.223,2.61c2.625,0.201,5.797,1.227,7.602,3.004c19.688,19.367,39.783,38.382,58.473,58.683
		c13.867,15.064,21.596,33.46,22.366,54.516c0.812,22.149-5.432,42.074-16.767,60.803c-1.265,2.091-1.831,6.302-0.601,7.909
		C789.039,925.201,795.325,931.837,802.111,939.568z"/>
	<path display="none" fill-rule="evenodd" clip-rule="evenodd" fill="#FFFFFF" d="M599.167,678.578
		c-5.37-6.184-11.483-11.876-15.941-18.658c-7.434-11.313-1.098-27.269,11.902-31.092c2.005-0.59,5.145,0.479,6.941,1.852
		c3.703,2.826,6.925,6.307,10.222,9.64c8.57,8.662,4.919,20.832-7.246,24.312C592.999,668.076,592.999,668.076,599.167,678.578z"/>
	<path display="none" fill-rule="evenodd" clip-rule="evenodd" fill="#FFFFFF" d="M475.566,625.777
		c10.647-11.873,19.717-21.986,29.261-32.631c2.47,2.198,4.302,3.83,6.538,5.82c-9.008,9.205-17.475,18.162-26.395,26.641
		C483.677,626.837,480.211,625.777,475.566,625.777z"/>
</g>
<g id="Ebene_2">
	<path display="none" fill-rule="evenodd" clip-rule="evenodd" fill="#FFFFFF" d="M44,682c0-54,0-108,0-162c153,0,306,0,459,0
		c0,54,0,108,0,162C350,682,197,682,44,682z M195.421,616.591c0.388,0.142,0.776,0.284,1.164,0.427
		c-0.063,0.917,0.014,1.868-0.208,2.745c-4.21,16.609-8.306,33.251-12.803,49.783c-1.075,3.951-0.015,5.95,3.595,6.399
		c4.556,0.567,9.185,0.679,13.785,0.711c2.933,0.021,4.172-1.696,4.55-4.737c1.681-13.54,3.593-27.051,5.507-40.561
		c0.272-1.923,1.012-3.779,1.535-5.667c0.496,0.091,0.991,0.181,1.486,0.271c0,14.907,0,29.814,0,45.899
		c3.236-2.443,5.317-4.329,7.682-5.737c5.599-3.335,7.077-7.989,7.329-14.51c0.584-15.052-4.177-30.85,5.145-44.915
		c-1.068-7.694-2.021-15.408-3.349-23.057c-0.167-0.958-2.224-1.836-3.562-2.302c-7.234-2.515-11.925-7.932-15.485-14.213
		c-5.009-8.838-0.606-21.008,8.548-24.927c4.3-1.84,5.396-5.095,4.134-12.462c-0.765-4.465-4.357-2.793-6.804-2.797
		c-52.325-0.09-104.651-0.067-156.976-0.066c-1.333,0-2.666,0.01-3.999,0.021c-3.872,0.032-4.374,1.872-2.345,4.714
		c2.709,3.794,5.776,7.344,8.336,11.23c2.264,3.438,5.081,4.586,9.175,4.567c30.328-0.143,60.657-0.074,90.985-0.031
		c2.032,0.003,4.063,0.341,6.094,0.522c0.015,0.583,0.03,1.165,0.045,1.748c-31.187,2.989-62.375,5.979-94.408,9.05
		c1.393,2.256,1.99,3.421,2.767,4.449c5.314,7.026,11.192,13.699,15.805,21.156c2.716,4.391,5.273,4.521,9.353,3.191
		c21.2-6.906,42.432-13.713,63.669-20.506c1.739-0.557,3.595-0.747,5.397-1.107c0.219,0.487,0.438,0.974,0.657,1.46
		c-1.308,0.938-2.514,2.081-3.938,2.78c-19.113,9.386-38.222,18.78-57.419,27.991c-4.004,1.921-4.429,4.121-1.698,7.243
		c3.838,4.389,8.035,8.492,11.563,13.11c2.348,3.074,4.19,2.932,6.968,0.902c12.213-8.922,24.472-17.782,36.784-26.567
		c3.708-2.646,7.641-4.979,11.471-7.454c0.283,0.413,0.566,0.826,0.849,1.239c-0.513,0.793-0.886,1.737-1.558,2.355
		c-11.501,10.583-22.812,21.388-34.638,31.595c-9.928,8.568-10.283,11.018-0.537,19.939c6.956,6.368,7.012,6.415,12.902-0.602
		c7.698-9.171,15.333-18.396,22.918-27.66c2.684-3.278,5.141-6.741,7.622-10.016c4.17,2.072,3.066,4.14,1.446,6.413
		c-5.496,7.714-10.957,15.453-16.375,23.222c-4.374,6.271-8.749,12.546-12.915,18.955c-0.689,1.06-0.955,3.589-0.312,4.133
		c5.447,4.605,11.107,8.965,16.798,13.273c2.568,1.945,4.255,0.974,5.082-2.008c0.887-3.203,1.714-6.437,2.842-9.558
		c3.953-10.943,7.993-21.855,12.076-32.751C193.089,621.39,194.325,619.017,195.421,616.591z M370.361,587.28
		c0.346-0.403,0.69-0.807,1.036-1.209c1.04,0.42,2.206,0.662,3.102,1.29c7.627,5.343,15.216,10.741,22.795,16.152
		c7.711,5.507,15.338,11.137,23.163,16.475c1.129,0.77,3.934,0.921,4.657,0.144c4.525-4.864,8.688-10.067,12.954-15.171
		c2.424-2.898,1.856-4.998-1.594-6.598c-5.587-2.589-11.105-5.323-16.64-8.024c-14.059-6.859-28.119-13.714-42.143-20.645
		c-1.08-0.534-1.87-1.655-2.796-2.504c0.235-0.419,0.471-0.838,0.706-1.257c1.86,0.388,3.774,0.61,5.575,1.187
		c20.757,6.643,41.529,13.237,62.217,20.091c5.028,1.666,8.748,2.069,11.256-3.812c1.192-2.797,3.965-4.888,5.838-7.433
		c3.906-5.31,7.688-10.708,12.352-17.23c-32.42-3.101-63.572-6.08-94.725-9.06c0.027-0.602,0.054-1.204,0.08-1.806
		c2.404-0.179,4.808-0.511,7.212-0.513c26.493-0.031,52.985-0.018,79.478-0.003c16.4,0.009,16.435,0.042,26.084-13.498
		c1.188-1.667,1.789-3.752,2.662-5.644c-1.995-0.445-3.989-1.276-5.985-1.279c-52.985-0.072-105.972-0.075-158.958-0.012
		c-2.372,0.003-5.553-1.234-6.277,2.947c-1.143,6.587,0.037,10.586,3.92,12.221c9.709,4.088,14.114,16.703,8.498,25.617
		c-3.726,5.913-8.211,11.241-15.291,13.782c-1.684,0.604-3.387,2.981-3.837,4.844c-1.324,5.482-2.147,11.099-2.891,16.699
		c-0.222,1.672-0.093,3.873,0.831,5.132c4.983,6.802,4.754,14.503,4.574,22.313c-0.17,7.327-0.04,14.662-0.043,21.993
		c-0.004,8.011,6.055,15.565,15.203,18.174c0-15.226,0-30.247,0-45.27c0.435-0.024,0.87-0.05,1.306-0.074
		c0.46,2.229,1.017,4.442,1.364,6.688c1.834,11.844,3.541,23.708,5.441,35.541c1.503,9.354,3.393,10.696,13.025,9.681
		c1.644-0.174,3.244-0.725,4.877-1.036c3.853-0.733,5.07-2.417,3.932-6.648c-4.408-16.382-8.383-32.882-12.495-49.343
		c-0.252-1.009-0.3-2.068-0.441-3.104c0.399-0.125,0.8-0.249,1.199-0.374c6.645,17.489,13.29,34.979,20.506,53.97
		c7.448-5.89,14.222-11.244,21.048-16.642c-1.029-1.86-1.572-3.082-2.321-4.159c-9.487-13.646-18.977-27.29-28.538-40.885
		c-1.794-2.551-3.25-4.791,1.15-6.694c11.932,14.729,23.827,29.412,36.42,44.956c5.53-5.769,10.719-11.181,16.477-17.187
		C400.557,615.388,385.459,601.334,370.361,587.28z M293.287,639.361c10.666,1.053,12.043,0.036,15.074-9.859
		c0.822-2.685,2.672-5.14,3.072-7.845c0.479-3.218,1.082-7.363-0.471-9.729c-2.867-4.372-3.369-8.6-2.328-13.257
		c1.012-4.535,2.375-8.997,3.69-13.46c5.733-19.441-2.171-33.475-13.833-43.5c-12.283-10.561-27.143-12.392-42.059-4.887
		c-14.506,7.299-22.862,19.331-23.253,35.661c-0.158,6.623,2.092,13.354,3.616,19.951c1.578,6.83,3.633,13.351-1.165,20.023
		c-1.418,1.973-1.038,5.744-0.494,8.496c0.725,3.664,2.636,7.076,3.641,10.706c1.688,6.097,5.66,8.889,11.744,7.887
		c0.902-0.148,1.835-0.106,3.133-0.172c-0.859,5.173-1.692,9.89-2.412,14.625c-0.476,3.128,0.373,5.173,4.134,5.146
		c11.889-0.084,23.778-0.077,35.667-0.012c3.62,0.021,5.336-1.397,4.702-5.135C294.947,649.284,294.16,644.564,293.287,639.361z"/>
	<g>
		<path fill="none" d="M475.566,625.777c4.645,0,8.111,1.06,9.404-0.17c8.92-8.479,17.387-17.436,26.395-26.641
			c-2.236-1.99-4.068-3.622-6.538-5.82C495.283,603.791,486.214,613.904,475.566,625.777z"/>
		<polygon fill="none" points="610.92,500.196 484.418,378.128 480.375,382.171 607.008,504.109 		"/>
		<path fill="none" d="M602.069,630.68c-1.797-1.372-4.937-2.441-6.941-1.852c-13,3.823-19.336,19.779-11.902,31.092
			c4.458,6.782,10.571,12.475,15.941,18.658c-6.168-10.502-6.168-10.502,5.878-13.947c12.165-3.479,15.816-15.649,7.246-24.312
			C608.994,636.986,605.772,633.506,602.069,630.68z"/>
		<path d="M316.226,296.603c-0.368,0.414-0.884,0.854-0.955,1.338c-0.094,0.642-0.048,1.555,0.342,1.969
			c1.312,1.389,3.075,1.838,5.418,1.902c-0.644-1.721-1.72-4.608-1.72-4.608S317.535,295.128,316.226,296.603z"/>
		<path d="M326.98,309.617c0.951-0.737,2.384-1.171,2.154-2.816c-0.033-0.239-0.149-0.596-0.322-0.669
			c-1.837-0.768-3.693-1.488-5.544-2.222c-0.198,0.199-0.396,0.398-0.593,0.598c0.692,1.545,1.318,3.124,2.101,4.622
			C325.244,310.025,326.133,310.273,326.98,309.617z"/>
		<path d="M922.296,818.558c-24.034-22.391-48.004-44.853-72.333-66.919c-2.08-1.886-7.09-2.442-9.836-1.348
			c-9.55,3.804-15.953,1.407-22.972-6.173c-16.255-17.559-33.648-34.063-50.864-51.277c2.863-4.353,5.08-8.518,8.049-12.048
			c4.209-5.002,3.369-8.953-0.817-13.465c-5.488-5.914-10.716-12.116-15.509-18.598c-1.207-1.635-1.428-5.889-0.235-7.091
			c6.008-6.062,4.396-10.669-1.563-15.283c-2.044-1.585-3.503-3.953-5.6-5.44c-9.022-6.4-11.425-14.27-7.697-24.951
			c1.12-3.216-0.483-9.051-2.976-11.577c-12.632-12.798-25.898-24.972-39.085-37.212c-5.389-5.001-9.946-11.563-19.22-9.694
			c-1.894,0.381-4.813-2.643-6.779-4.583c-13.733-13.561-27.439-27.153-40.924-40.96c-3.834-3.926-7.195-7.006-12.06-1.576
			c-1.748-1.574-3.138-2.728-4.417-3.992c-41.345-40.903-82.448-82.056-124.201-122.537c-8.965-8.691-13.869-17.417-12.646-30.019
			c0.362-3.724-1.779-8.751-4.475-11.526c-11.076-11.402-22.767-22.209-34.313-33.15c-7.696-7.295-15.53-14.446-25.417-23.625
			c-6.625,8.417-12.895,16.379-19.391,24.63c-39.36-37.451-76.824-73.1-114.481-108.932c-4.386,4.002-7.984,7.287-11.789,10.759
			c-7.284-7.944-14.212-15.5-21.306-23.236c1.29-1.55,3.258-3.914,5.76-6.92c-32.66-33.505-65.115-66.8-99.302-101.872
			c-0.693,6.021-1.214,9.741-1.535,13.477c-1.914,22.289-3.579,44.602-5.81,66.858c-0.532,5.313,0.937,8.859,4.594,12.405
			c17.225,16.701,34.279,33.578,51.414,50.373c1.818,1.782,3.768,3.431,5.797,5.267c3.144-2.623,5.893-4.917,9.201-7.677
			c2.939,3.227,5.607,6.155,8.479,9.308c-6.434,5.739-12.156,10.842-19.022,16.967c-4.783-5.801-9.075-11.007-13.706-16.623
			c-4.676,4.189-8.404,7.411-12.003,10.771c-13.557,12.656-13.542,12.672-0.575,25.977c14.007,14.37,14.138,14.433,5.287,32.915
			c-1.92,4.01-1.444,6.625,1.595,9.595c6.529,6.376,12.564,13.282,19.356,19.353c2.677,2.392,6.781,4.245,10.324,4.406
			c9.935,0.446,17.404,4.188,24.308,11.592c23.826,25.556,48.211,50.593,72.522,75.695
			c51.887,53.576,103.864,107.065,155.779,160.615c1.01,1.044,1.712,2.387,3.109,4.377c-8.302,8.059-16.322,15.866-24.37,23.647
			c-3.59,3.471-7.789,6.545-3.158,12.409c0.633,0.801-1.466,4.538-3.055,6.186c-8.696,9.004-17.459,17.959-26.542,26.567
			c-5.644,5.348-11.897,10.052-17.878,15.046c3.181,3.801,4.237,5.269,5.484,6.551c19.27,19.82,38.511,39.67,57.873,59.401
			c14.117,14.386,14.177,14.296,28.809,0.327c11.831-11.296,23.704-22.544,35.391-33.653c6.661,4.101,6.615,4.052,11.697-0.688
			c7.391-6.895,14.856-13.711,22.12-20.404c1.426,0.657,2.288,0.812,2.791,1.318c12.844,12.974,25.809,25.836,38.27,39.167
			c1.606,1.72,1.742,6.476,0.581,8.861c-9.454,19.436-18.933,38.886-29.297,57.845c-9.135,16.707-19.679,21.278-38.4,18.055
			c-4.597-0.791-7.813-1.459-9.406,4.397c-1.799,6.609,2.979,6.809,6.726,7.944c22.406,6.794,44.964,13.117,67.229,20.348
			c8.14,2.642,11.846,0.401,15.836-6.787c14.28-25.74,29.236-51.109,44.217-76.453c1.432-2.421,4.866-5.285,7.299-5.221
			c15.089,0.398,30.165,1.456,45.223,2.61c2.625,0.201,5.797,1.227,7.602,3.004c19.688,19.367,39.783,38.382,58.473,58.683
			c13.867,15.064,21.596,33.46,22.366,54.516c0.812,22.149-5.432,42.074-16.767,60.803c-1.265,2.091-1.831,6.302-0.601,7.909
			c5.52,7.222,11.806,13.857,18.592,21.589c42.189-40.926,81.994-79.537,121.607-117.963
			C922.956,819.928,922.814,819.041,922.296,818.558z M231.708,170.215l-73.109-76.695l1.414-20.367l83.139,85.618L231.708,170.215z
			 M304.94,300.614c-1.472,1.362-2.805,2.053-4.747,1.561c-0.82-0.208-1.682-0.25-2.917-0.423c3.497-3.496,6.737-6.736,9.978-9.977
			c-0.088-0.128-0.176-0.255-0.265-0.382c-0.524,0.296-1.088,0.539-1.565,0.898c-3.353,2.521-6.705,5.041-10.014,7.619
			c-0.743,0.579-1.386,0.683-2.019,0.041c-0.993-1.007-1.975-2.037-2.842-3.151c-0.687-0.882-0.483-1.547,0.609-2.173
			c4.571-2.615,9.079-5.343,13.604-8.038c0.239-0.142,0.429-0.365,0.642-0.551c-0.053-0.115-0.107-0.23-0.16-0.346
			c-0.766,0.288-1.55,0.536-2.293,0.874c-3.256,1.48-6.506,2.975-9.744,4.494c-0.924,0.434-1.806,0.956-2.695,1.46
			c-0.828,0.469-1.406,0.313-1.541-0.668c-0.301-2.174-0.583-4.352-0.766-6.537c-0.021-0.258,0.586-0.75,0.966-0.83
			c2.299-0.488,4.614-0.901,6.928-1.313c2.866-0.511,5.736-1.006,8.607-1.488c0.847-0.142,1.536-0.351,1.08-1.708
			c-1.251,0.173-2.538,0.391-3.834,0.521c-3.663,0.365-7.328,0.71-10.994,1.03c-2.806,0.245-2.808,0.223-2.936-2.674
			c-0.179-4.058,0.43-4.513,4.451-4.217c4.79,0.352,9.597,0.462,14.397,0.661c0.281,0.012,0.567-0.112,0.851-0.173
			c0.029-0.151,0.057-0.302,0.085-0.454c-1.371-0.294-2.732-0.642-4.114-0.874c-4.586-0.766-9.176-1.505-13.771-2.221
			c-1.045-0.163-1.477-0.532-1.318-1.71c0.237-1.771,0.216-3.575,0.336-5.363c0.085-1.272,0.656-1.658,1.944-1.206
			c6.175,2.171,12.371,4.282,18.565,6.396c0.462,0.158,0.973,0.171,1.46,0.252c0.058-0.153,0.116-0.307,0.175-0.46
			c-0.47-0.313-0.915-0.676-1.414-0.933c-6.093-3.14-12.188-6.275-18.297-9.382c-1.176-0.598-1.704-1.182-1.339-2.727
			c0.618-2.624,0.791-5.352,1.163-8.035c0.055-0.392,0.178-0.775,0.366-1.568c7.63,6.296,15.06,12.425,22.489,18.554
			c0.123-0.13,0.247-0.26,0.37-0.39c-0.402-0.481-0.771-0.996-1.211-1.438c-6.583-6.602-13.161-13.209-19.784-19.771
			c-0.894-0.886-1.257-1.748-1.001-2.987c0.288-1.401,0.393-2.839,0.629-4.253c0.177-1.059,0.686-1.349,1.535-0.515
			c0.292,0.287,0.583,0.575,0.874,0.865c11.374,11.374,22.753,22.743,34.107,34.136c0.531,0.533,1.675,0.95,0.871,2.087
			c-1.328,1.876-2.273,2.345-3.607,1.811c-2.842-1.138-6.444,0.55-7.276,3.56c-0.592,2.14-0.75,4.337,0.276,6.456
			c0.189,0.392,0.446,1.03,0.274,1.274c-1.374,1.951-2.844,3.835-4.284,5.739C310.738,293,308.339,297.469,304.94,300.614z
			 M318.921,315.632c-0.675,0.95-1.356,0.886-2.139,0.094c-2.57-2.599-5.153-5.185-7.755-7.75c-0.823-0.813-0.563-1.44,0.22-2.018
			c1.186-0.872,2.392-1.717,3.703-2.654c-0.296-0.268-0.49-0.48-0.718-0.644c-1.54-1.105-1.796-2.575-0.838-4.268
			c0.57-1.008,0.897-2.165,1.536-3.118c0.48-0.717,1.217-1.619,1.954-1.74c2.494-0.407,3.464-2.271,4.605-4.099
			c1.103-1.766,2.077-3.718,3.551-5.123c3.634-3.465,8.066-4.264,12.806-2.697c4.874,1.611,7.706,5.239,8.08,10.205
			c0.355,4.714-0.977,9.482-6.449,12.462c-1.256,0.685-2.522,1.357-3.728,2.124c-1.239,0.786-2.049,1.813-2.375,3.388
			c-0.177,0.852-1.209,1.621-2.013,2.217c-0.675,0.501-1.611,0.633-2.373,1.037c-2.81,1.492-3.33,1.414-5.42-1.133
			C320.628,313.236,319.773,314.433,318.921,315.632z M387.473,331.952c-5.041,0.846-5.042,0.831-8.604-2.735
			c-5.755-5.762-11.511-11.523-17.277-17.275c-0.523-0.522-1.118-0.973-1.679-1.456c-0.137,0.125-0.273,0.25-0.41,0.375
			c6.124,7.419,12.248,14.838,18.621,22.56c-2.431,0.403-4.427,0.755-6.43,1.061c-0.961,0.146-2.018-0.003-2.885,0.347
			c-1.823,0.733-2.544-0.163-3.275-1.618c-3.007-5.987-6.089-11.936-9.157-17.892c-0.267-0.517-0.634-0.981-0.954-1.47
			c-0.143,0.04-0.285,0.08-0.427,0.12c0.017,0.385-0.055,0.801,0.063,1.151c1.542,4.555,3.108,9.102,4.673,13.648
			c0.616,1.79,1.221,3.584,1.873,5.361c0.402,1.098,0.069,1.677-1.088,1.78c-2.037,0.182-4.073,0.408-6.113,0.481
			c-0.327,0.012-0.903-0.631-0.981-1.043c-0.541-2.861-0.975-5.743-1.454-8.616c-0.471-2.823-0.947-5.646-1.443-8.466
			c-0.059-0.331-0.259-0.638-0.394-0.955c-0.163,0.013-0.325,0.025-0.488,0.038c0.227,6.336,0.454,12.673,0.69,19.291
			c-2.557,0.054-4.861,0.103-7.317,0.154c0.642-6.116,1.248-11.894,1.855-17.688c-1.37-0.543-1.541,0.261-1.705,1.205
			c-0.876,5.033-1.78,10.062-2.684,15.09c-0.071,0.397-0.219,0.781-0.399,1.409c-2.657-0.311-5.293-0.619-8.193-0.958
			c2.56-5.696,4.917-10.942,7.274-16.188c-0.114-0.06-0.228-0.12-0.342-0.18c-0.194,0.256-0.415,0.497-0.579,0.771
			c-2.684,4.473-5.407,8.923-8.009,13.441c-0.672,1.168-1.303,1.27-2.3,0.592c-0.423-0.288-0.89-0.516-1.285-0.835
			c-2.315-1.874-2.434-2.576-0.727-4.937c2.159-2.984,4.367-5.935,6.542-8.908c0.413-0.563,0.773-1.166,1.157-1.75
			c-0.1-0.09-0.2-0.179-0.3-0.268c-3.266,3.265-6.531,6.53-9.84,9.84c-1.421-2.556-1.096-5.515,0.646-7.255
			c1.594-1.593,3.16-3.216,4.79-4.771c1.737-1.659,3.46-3.283,3.856-5.845c0.073-0.475,0.523-0.98,0.935-1.296
			c1.379-1.056,2.779-2.098,4.258-3.002c0.503-0.307,1.39-0.453,1.887-0.219c2.091,0.987,4.224,0.804,6.319,0.328
			c3.159-0.717,4.943-4.417,3.721-7.415c-0.489-1.2,0.125-2.325,1.804-3.509c1.066-0.752,1.489,0.208,2.005,0.724
			c11.531,11.504,23.048,23.021,34.55,34.555c0.434,0.436,0.687,1.049,1.022,1.579C388.677,331.525,388.093,331.848,387.473,331.952
			z M484.97,625.607c-1.293,1.229-4.759,0.17-9.404,0.17c10.647-11.873,19.717-21.986,29.261-32.631
			c2.47,2.198,4.302,3.83,6.538,5.82C502.357,608.172,493.891,617.129,484.97,625.607z M480.375,382.171l4.042-4.043L610.92,500.196
			l-3.912,3.914L480.375,382.171z M605.045,664.631c-12.046,3.445-12.046,3.445-5.878,13.947
			c-5.37-6.184-11.483-11.876-15.941-18.658c-7.434-11.313-1.098-27.269,11.902-31.092c2.005-0.59,5.145,0.479,6.941,1.852
			c3.703,2.826,6.925,6.307,10.222,9.64C620.861,648.981,617.21,661.151,605.045,664.631z"/>
		<path d="M316.932,305.875c0.734,0.734,1.301,1.301,2.085,2.085c0.421-0.975,0.854-1.977,1.286-2.979
			c-0.146-0.143-0.292-0.284-0.438-0.426C318.835,305.018,317.805,305.482,316.932,305.875z"/>
		<polygon display="none" fill="#FFFFFF" points="158.599,93.521 231.708,170.215 243.151,158.771 160.012,73.154 		"/>
		<path display="none" fill="#FFFFFF" d="M315.822,291.968c1.44-1.904,2.91-3.788,4.284-5.739c0.172-0.244-0.084-0.883-0.274-1.274
			c-1.026-2.119-0.868-4.316-0.276-6.456c0.832-3.01,4.435-4.698,7.276-3.56c1.334,0.535,2.28,0.065,3.607-1.811
			c0.804-1.137-0.34-1.554-0.871-2.087c-11.354-11.393-22.733-22.762-34.107-34.136c-0.29-0.29-0.582-0.578-0.874-0.865
			c-0.849-0.834-1.358-0.544-1.535,0.515c-0.236,1.414-0.341,2.852-0.629,4.253c-0.255,1.24,0.107,2.101,1.001,2.987
			c6.624,6.562,13.201,13.169,19.784,19.771c0.441,0.442,0.809,0.957,1.211,1.438c-0.124,0.13-0.247,0.26-0.37,0.39
			c-7.429-6.129-14.858-12.258-22.489-18.554c-0.188,0.793-0.311,1.176-0.366,1.568c-0.372,2.683-0.545,5.411-1.163,8.035
			c-0.364,1.544,0.164,2.128,1.339,2.727c6.109,3.107,12.204,6.243,18.297,9.382c0.499,0.257,0.944,0.619,1.414,0.933
			c-0.059,0.153-0.117,0.307-0.175,0.46c-0.488-0.081-0.999-0.094-1.46-0.252c-6.195-2.114-12.391-4.226-18.565-6.396
			c-1.288-0.453-1.859-0.067-1.944,1.206c-0.12,1.788-0.099,3.592-0.336,5.363c-0.158,1.178,0.273,1.548,1.318,1.71
			c4.594,0.716,9.185,1.455,13.771,2.221c1.381,0.231,2.743,0.579,4.114,0.874c-0.028,0.151-0.056,0.302-0.085,0.454
			c-0.284,0.061-0.57,0.186-0.851,0.173c-4.8-0.199-9.607-0.31-14.397-0.661c-4.021-0.296-4.63,0.16-4.451,4.217
			c0.128,2.896,0.13,2.919,2.936,2.674c3.667-0.32,7.332-0.665,10.994-1.03c1.296-0.13,2.583-0.348,3.834-0.521
			c0.456,1.357-0.233,1.566-1.08,1.708c-2.871,0.482-5.741,0.978-8.607,1.488c-2.314,0.412-4.629,0.825-6.928,1.313
			c-0.38,0.08-0.987,0.572-0.966,0.83c0.183,2.186,0.465,4.363,0.766,6.537c0.135,0.98,0.713,1.137,1.541,0.668
			c0.889-0.504,1.771-1.026,2.695-1.46c3.238-1.52,6.488-3.014,9.744-4.494c0.743-0.338,1.528-0.586,2.293-0.874
			c0.053,0.115,0.107,0.23,0.16,0.346c-0.213,0.186-0.403,0.409-0.642,0.551c-4.525,2.695-9.033,5.423-13.604,8.038
			c-1.092,0.626-1.296,1.291-0.609,2.173c0.867,1.114,1.849,2.145,2.842,3.151c0.633,0.642,1.275,0.538,2.019-0.041
			c3.309-2.578,6.661-5.099,10.014-7.619c0.478-0.359,1.042-0.603,1.565-0.898c0.088,0.127,0.176,0.254,0.265,0.382
			c-3.241,3.24-6.481,6.48-9.978,9.977c1.235,0.173,2.097,0.215,2.917,0.423c1.942,0.492,3.275-0.198,4.747-1.561
			C308.339,297.469,310.738,293,315.822,291.968z"/>
		<path display="none" fill="#FFFFFF" d="M353.705,295.169c-0.516-0.516-0.939-1.476-2.005-0.724
			c-1.68,1.184-2.293,2.309-1.804,3.509c1.222,2.998-0.563,6.698-3.721,7.415c-2.095,0.476-4.228,0.659-6.319-0.328
			c-0.497-0.234-1.384-0.088-1.887,0.219c-1.479,0.904-2.879,1.946-4.258,3.002c-0.412,0.315-0.862,0.821-0.935,1.296
			c-0.396,2.562-2.119,4.186-3.856,5.845c-1.63,1.556-3.196,3.179-4.79,4.771c-1.742,1.74-2.067,4.699-0.646,7.255
			c3.31-3.31,6.575-6.575,9.84-9.84c0.1,0.089,0.2,0.178,0.3,0.268c-0.384,0.584-0.745,1.187-1.157,1.75
			c-2.176,2.974-4.384,5.924-6.542,8.908c-1.707,2.36-1.588,3.063,0.727,4.937c0.395,0.319,0.862,0.547,1.285,0.835
			c0.997,0.678,1.627,0.576,2.3-0.592c2.603-4.519,5.325-8.969,8.009-13.441c0.165-0.273,0.385-0.515,0.579-0.771
			c0.114,0.06,0.228,0.12,0.342,0.18c-2.357,5.246-4.714,10.492-7.274,16.188c2.899,0.339,5.536,0.647,8.193,0.958
			c0.181-0.628,0.328-1.012,0.399-1.409c0.904-5.028,1.807-10.057,2.684-15.09c0.165-0.944,0.335-1.748,1.705-1.205
			c-0.608,5.795-1.214,11.572-1.855,17.688c2.456-0.052,4.76-0.101,7.317-0.154c-0.237-6.618-0.464-12.955-0.69-19.291
			c0.163-0.013,0.325-0.025,0.488-0.038c0.135,0.317,0.335,0.624,0.394,0.955c0.496,2.819,0.973,5.643,1.443,8.466
			c0.479,2.873,0.914,5.755,1.454,8.616c0.078,0.412,0.655,1.055,0.981,1.043c2.041-0.073,4.077-0.3,6.113-0.481
			c1.157-0.104,1.49-0.683,1.088-1.78c-0.652-1.777-1.257-3.571-1.873-5.361c-1.564-4.547-3.131-9.094-4.673-13.648
			c-0.119-0.351-0.047-0.767-0.063-1.151c0.142-0.04,0.284-0.08,0.427-0.12c0.32,0.488,0.688,0.953,0.954,1.47
			c3.068,5.956,6.149,11.904,9.157,17.892c0.731,1.455,1.452,2.352,3.275,1.618c0.867-0.35,1.924-0.201,2.885-0.347
			c2.003-0.306,3.999-0.657,6.43-1.061c-6.373-7.722-12.497-15.141-18.621-22.56c0.136-0.125,0.273-0.25,0.41-0.375
			c0.562,0.483,1.156,0.934,1.679,1.456c5.766,5.752,11.521,11.514,17.277,17.275c3.563,3.566,3.563,3.581,8.604,2.735
			c0.62-0.104,1.204-0.427,1.805-0.648c-0.336-0.53-0.589-1.144-1.022-1.579C376.753,318.191,365.236,306.673,353.705,295.169z"/>
		<path display="none" fill="#FFFFFF" d="M326.989,313.048c0.762-0.404,1.698-0.536,2.373-1.037
			c0.803-0.596,1.836-1.365,2.013-2.217c0.327-1.574,1.137-2.602,2.375-3.388c1.206-0.767,2.472-1.439,3.728-2.124
			c5.472-2.979,6.804-7.748,6.449-12.462c-0.375-4.966-3.207-8.594-8.08-10.205c-4.74-1.566-9.172-0.768-12.806,2.697
			c-1.474,1.405-2.448,3.357-3.551,5.123c-1.142,1.827-2.112,3.691-4.605,4.099c-0.737,0.121-1.474,1.023-1.954,1.74
			c-0.639,0.953-0.965,2.11-1.536,3.118c-0.958,1.692-0.702,3.162,0.838,4.268c0.229,0.163,0.422,0.376,0.718,0.644
			c-1.311,0.938-2.517,1.782-3.703,2.654c-0.783,0.577-1.043,1.205-0.22,2.018c2.603,2.565,5.186,5.151,7.755,7.75
			c0.783,0.792,1.464,0.856,2.139-0.094c0.852-1.199,1.707-2.396,2.647-3.717C323.659,314.462,324.179,314.541,326.989,313.048z
			 M323.269,303.91c1.851,0.733,3.707,1.454,5.544,2.222c0.173,0.073,0.289,0.43,0.322,0.669c0.229,1.646-1.203,2.079-2.154,2.816
			c-0.848,0.656-1.737,0.408-2.205-0.487c-0.782-1.498-1.409-3.077-2.101-4.622C322.873,304.308,323.071,304.109,323.269,303.91z
			 M319.018,307.959c-0.784-0.784-1.351-1.351-2.085-2.085c0.873-0.393,1.903-0.856,2.934-1.319
			c0.146,0.142,0.292,0.283,0.438,0.426C319.871,305.983,319.438,306.985,319.018,307.959z M315.613,299.91
			c-0.391-0.414-0.436-1.327-0.342-1.969c0.071-0.483,0.586-0.924,0.955-1.338c1.31-1.475,3.086,0.601,3.086,0.601
			s1.076,2.888,1.72,4.608C318.688,301.748,316.925,301.298,315.613,299.91z"/>
	</g>
	<path display="none" fill-rule="evenodd" clip-rule="evenodd" fill="#FFFFFF" d="M321.032,301.812
		c-2.343-0.064-4.107-0.514-5.418-1.902c-0.391-0.414-0.436-1.327-0.342-1.969c0.071-0.483,0.586-0.924,0.955-1.338
		c1.31-1.475,2.434-1.239,3.086,0.601C319.827,298.656,320.388,300.091,321.032,301.812z"/>
	<path display="none" fill-rule="evenodd" clip-rule="evenodd" fill="#FFFFFF" d="M323.269,303.91
		c1.851,0.733,3.707,1.454,5.544,2.222c0.173,0.073,0.289,0.43,0.322,0.669c0.229,1.646-1.203,2.079-2.154,2.816
		c-0.848,0.656-1.737,0.408-2.205-0.487c-0.782-1.498-1.409-3.077-2.101-4.622C322.873,304.308,323.071,304.109,323.269,303.91z"/>
	<path display="none" fill-rule="evenodd" clip-rule="evenodd" fill="#FFFFFF" d="M319.018,307.959
		c-0.784-0.784-1.351-1.351-2.085-2.085c0.873-0.393,1.903-0.856,2.934-1.319c0.146,0.142,0.292,0.283,0.438,0.426
		C319.871,305.983,319.438,306.985,319.018,307.959z"/>
</g>
<g id="Ebene_3" display="none">
	<path display="inline" fill-rule="evenodd" clip-rule="evenodd" d="M321.032,301.792c-0.644-1.721-1.72-4.608-1.72-4.608
		s-1.777-2.075-3.086-0.601c-0.368,0.414-0.884,0.854-0.955,1.338c-0.094,0.642-0.048,1.555,0.342,1.969
		C316.925,301.278,318.688,301.727,321.032,301.792z"/>
	<path display="inline" fill-rule="evenodd" clip-rule="evenodd" d="M323.247,303.868c-0.198,0.199-0.396,0.398-0.593,0.598
		c0.692,1.545,1.318,3.124,2.101,4.622c0.468,0.896,1.357,1.144,2.205,0.487c0.951-0.737,2.384-1.171,2.154-2.816
		c-0.033-0.239-0.149-0.596-0.322-0.669C326.954,305.322,325.098,304.601,323.247,303.868z"/>
	<path display="inline" fill-rule="evenodd" clip-rule="evenodd" d="M319.837,304.597c-1.03,0.463-2.061,0.927-2.934,1.319
		c0.734,0.734,1.301,1.301,2.085,2.085c0.421-0.975,0.854-1.977,1.286-2.979C320.129,304.88,319.983,304.738,319.837,304.597z"/>
</g>
</svg>
