<?xml version="1.0" encoding="utf-8"?>
<!-- Generator: Adobe Illustrator 16.0.3, SVG Export Plug-In . SVG Version: 6.00 Build 0)  -->
<!DOCTYPE svg PUBLIC "-//W3C//DTD SVG 1.1//EN" "http://www.w3.org/Graphics/SVG/1.1/DTD/svg11.dtd">
<svg version="1.1" id="Ebene_2" xmlns="http://www.w3.org/2000/svg" xmlns:xlink="http://www.w3.org/1999/xlink" x="0px" y="0px"
	 width="1417.32px" height="1417.32px" viewBox="0 0 1417.32 1417.32" enable-background="new 0 0 1417.32 1417.32"
	 xml:space="preserve">
<g>
	
		<rect x="557.192" y="725.841" transform="matrix(0.7007 -0.7134 0.7134 0.7007 -348.3608 637.6436)" fill="none" width="57.261" height="16.379"/>
	
		<rect x="623.967" y="751.234" transform="matrix(-0.7134 -0.7008 0.7008 -0.7134 536.6389 1779.2083)" fill="none" width="16.38" height="57.261"/>
	<path d="M1278.56,1242.138c-31.462-28.105-59.959-59.507-90.129-89.09c-47.236-46.318-97.897-88.244-155.388-121.611
		c-28.043-16.274-54.255-34.944-65.035-68.176c-1.561-4.816-4.901-9.251-8.129-13.296c-9.003-11.298-15.949-22.503-4.43-36.342
		c1.285-1.547,0.604-4.604,1.247-6.846c4.746-16.557-11.437-22.242-18.921-35.182c9.707-8.015,19.524-16.119,29.799-24.602
		c-14.395-17.975-26.725-33.376-39.324-49.114c-10.118,6.574-19.016,12.353-26.973,17.524
		c-10.365-16.108-17.646-32.792-29.533-44.985c-59.992-61.522-121.068-121.986-182.148-182.434
		c-5.359-5.306-13.098-9.801-20.405-11.229c-17.908-3.499-31.925-11.856-45.049-24.573c-47.39-45.918-95.838-90.747-143.424-136.467
		c-4.45-4.273-7.13-11.731-8.022-18.078c-1.653-11.762-24.792-35.271-36.449-37.304c-7.26-1.266-15.564-4.204-20.63-9.2
		c-57.802-57.009-114.923-114.708-172.607-171.84c-11.333-11.223-21.031-22.628-24.774-38.729c-1.281-5.509-5.8-10.772-9.989-15.015
		c-31.023-31.414-63.007-61.919-93.237-94.071c-12.247-13.029-24.911-14.778-41.435-11.042c0,32.995-0.066,65.683,0.129,98.37
		c0.015,2.563,1.194,5.775,2.965,7.567c27.288,27.639,54.763,55.094,81.921,82.32c7.296-3.244,13.235-5.884,19.792-8.8
		c66.378,69.557,132.42,138.762,201.372,211.014c-11.127,9.186-20.897,17.254-29.436,24.301
		c13.301,13.403,25.232,25.427,37.528,37.821c2.57-1.9,5.827-4.306,7.436-5.498c63.402,63.428,126.049,126.098,189.059,189.13
		c-4.853,5.25-10.522,11.384-16.351,17.688c6.251,6.729,11.65,12.544,18.961,20.414c-19.716,18.125-38.804,35.674-56.766,52.186
		c33.04,33.351,63.981,64.582,97.034,97.946c17.59-17.8,36.073-36.503,54.791-55.443c6.173,5.781,11.961,11.203,18.198,17.045
		c6.792-6.189,12.9-11.756,19.701-17.954c24.334,24.432,47.908,47.792,70.991,71.628c3.313,3.422,5.539,9.014,6.06,13.842
		c2.801,25.914,13.531,47.026,31.906,66.008c22.633,23.381,47.376,46.419,57.093,78.715c3.923,13.046,4.636,29.888-0.355,42.062
		c-6.171,15.042-19.803,27.024-33.565,44.621c29.275,9.787,57.477,18.884,85.438,28.671c20.17,7.063,36.667,4.018,48.908-14.666
		c4.949-7.557,11.262-6.983,19.675-4.952c15.117,3.645,24.275,13.689,33.418,24.746c24.298,29.375,55.312,54.311,64.57,93.748
		c5.941,25.302,10.818,50.916,14.778,76.609c3.872,25.132,5.976,50.54,8.771,75.059c21.482,5.444,38.878,0.33,51.804-14.815
		c15.317-17.949,29.824-36.745,43.01-56.302c7.828-11.612,16.67-17.266,30.463-16.155c14.875,1.198,29.797,1.842,44.163,2.696
		C1301.905,1276.087,1296.859,1258.486,1278.56,1242.138z M191.896,134.319C88.865,27.49,96.052,34.675,96.052,34.675l5.267-3.753
		l95.435,97.809C196.753,128.731,196.753,128.731,191.896,134.319z M559.918,748.718l40.123-40.853l11.687,11.479l-40.124,40.852
		L559.918,748.718z M617.938,806.03l-11.686-11.479l40.123-40.852l11.687,11.479L617.938,806.03z"/>
	<path display="none" d="M96.052,34.675c0,0-7.187-7.186,95.844,99.644c4.857-5.588,4.857-5.588,4.857-5.588l-95.435-97.809
		L96.052,34.675z"/>
</g>
</svg>
