<?xml version="1.0" encoding="utf-8"?>
<!-- Generator: Adobe Illustrator 16.0.3, SVG Export Plug-In . SVG Version: 6.00 Build 0)  -->
<!DOCTYPE svg PUBLIC "-//W3C//DTD SVG 1.1//EN" "http://www.w3.org/Graphics/SVG/1.1/DTD/svg11.dtd">
<svg version="1.1" id="Ebene_1" xmlns="http://www.w3.org/2000/svg" xmlns:xlink="http://www.w3.org/1999/xlink" x="0px" y="0px"
	 width="1417.32px" height="1417.32px" viewBox="0 0 1417.32 1417.32" enable-background="new 0 0 1417.32 1417.32"
	 xml:space="preserve">
<g>
	<path display="none" fill="#FFFFFF" d="M476.536,487.415c0,157.316,0,314.668,0,472.056c157.317,0,314.668,0,472.056,0
		c0-157.316,0-314.669,0-472.056C791.274,487.415,633.923,487.415,476.536,487.415z M828.77,607.298
		c-1.496-1.282-2.891-2.476-4.38-3.752c-11.852,7.906-23.604,15.746-35.756,23.853c2.206,3.352,4.424,6.359,6.2,9.607
		c0.66,1.208,0.956,3.416,0.292,4.432c-27.265,41.714-54.657,83.344-82.042,124.979c-0.07,0.107-0.26,0.138-0.893,0.449
		c-5.091-6.291-10.269-12.688-15.729-19.435c-17.357,10.441-34.411,20.746-46.767,37.037c-3.611,4.761-5.162,10.114-5.257,16.248
		c-0.326,21.136,1.976,41.75,10.575,61.3c4.408,10.022,10.11,19.241,18.332,26.59c1.774,1.587,4.573,2.59,6.986,2.785
		c5.143,0.417,10.343,0.128,15.864,0.128c0,5.324,0,10.421,0,15.997c-10.906,1.502-21.884,3.249-32.919,4.485
		c-22.807,2.558-45.628,5.011-68.475,7.178c-14.247,1.351-23.867-6.76-25.825-21.219c-0.217-1.604,0.126-3.441,0.72-4.972
		c8.499-21.923,10.886-44.844,10.657-68.072c-0.125-12.693-13.417-23.027-25.574-20.53c-5.214,1.072-10.408,2.447-15.423,4.216
		c-5,1.763-9.765,4.191-15.075,6.522c-11.606-16.764-23.096-33.276-34.424-49.899c-0.814-1.195-0.914-3.301-0.563-4.801
		c6.08-26.001,12.23-51.986,18.564-77.926c0.453-1.853,2.118-3.817,3.765-4.9c7.746-5.096,15.833-9.683,23.487-14.906
		c3.749-2.558,7.191-3.555,11.216-1.349c4.212,2.308,7.738,1.292,11.697-1.172c30.295-18.851,60.79-37.383,91.036-56.313
		c4.942-3.093,9.277-7.355,13.333-11.612c4.868-5.106,9.136-10.786,14.059-16.691c2.716,2.58,5.269,5.005,8.169,7.76
		c7.26-5.625,14.427-11.173,21.589-16.729c2.61-2.025,5.352-3.908,7.777-6.135c3.936-3.61,7.732-6.205,12.994-2.065
		c0.776,0.61,3.224-0.184,4.465-0.993c10.926-7.126,21.752-14.404,33.111-21.972c4.692,6.542,9.337,13.005,13.968,19.478
		c6.593,9.216,6.589,9.218,17.785,4.232c-0.548-1.857-1.089-3.774-1.683-5.673c-0.603-1.931-1.26-3.844-1.997-6.079
		c29.216-17.265,58.268-34.433,87.93-51.961c3.947,22.643,18.834,39.727,27.713,60.191
		C881.853,572.787,855.41,589.979,828.77,607.298z"/>
	<path d="M732.104,548.195c0.721,1.059,1.414,2.458,2.452,2.89c1.378,0.571,3.444,0.987,4.594,0.349
		c3.841-2.145,5.841-5.83,7.309-11.03c-4.206,0.465-7.729,0.906-11.265,1.238C730.711,542.06,729.551,544.438,732.104,548.195z"/>
	<path d="M751.926,544.559c0.455,2.563,0.906,5.126,1.291,7.302c2.056-1.227,3.643-2.172,5.835-3.479
		c-1.939-1.494-3.934-3.027-5.926-4.562C752.726,544.067,752.327,544.313,751.926,544.559z"/>
	<path d="M992.765,216.56c2.276,6.907,4.309,12.821,6.173,18.79c1.835,5.869,3.506,11.794,5.199,17.535
		c-34.609,15.412-34.595,15.403-54.975-13.083c-14.314-20.009-28.672-39.988-43.174-60.208
		c-35.114,23.393-68.58,45.888-102.352,67.916c-3.837,2.502-11.401,4.957-13.801,3.07c-16.265-12.796-28.002-4.774-40.165,6.385
		c-7.498,6.883-15.972,12.704-24.04,18.962c-22.14,17.174-44.294,34.325-66.735,51.712c-8.966-8.518-16.855-16.014-25.251-23.989
		c-15.216,18.254-28.41,35.81-43.457,51.595c-12.537,13.157-25.937,26.335-41.212,35.894
		c-93.494,58.515-187.756,115.799-281.401,174.069c-12.238,7.617-23.136,10.757-36.155,3.623
		c-12.441-6.817-23.081-3.737-34.668,4.17c-23.661,16.147-48.657,30.326-72.6,46.076c-5.09,3.35-10.24,9.423-11.638,15.15
		c-19.578,80.18-38.591,160.504-57.383,240.875c-1.083,4.635-0.776,11.146,1.742,14.839
		c35.016,51.384,70.532,102.425,106.406,154.243c16.415-7.205,31.145-14.712,46.598-20.163c15.503-5.467,31.56-9.716,47.675-13.027
		c37.576-7.72,78.664,24.222,79.05,63.46c0.707,71.802-6.671,142.651-32.941,210.416c-1.835,4.731-2.896,10.412-2.225,15.369
		c6.053,44.693,35.791,69.763,79.827,65.586c70.622-6.697,141.165-14.279,211.664-22.185c34.109-3.821,68.042-9.223,101.754-13.867
		c0-17.235,0-32.99,0-49.447c-17.065,0-33.138,0.896-49.036-0.393c-7.46-0.605-16.11-3.705-21.595-8.611
		c-25.413-22.714-43.039-51.21-56.665-82.19c-26.582-60.431-33.698-124.153-32.689-189.483c0.293-18.96,5.088-35.51,16.251-50.226
		c38.193-50.354,90.908-82.21,144.56-114.484c16.88,20.856,32.883,40.629,48.622,60.074c1.956-0.964,2.543-1.055,2.76-1.388
		c84.649-128.701,169.322-257.382,253.599-386.324c2.052-3.141,1.137-9.965-0.904-13.698c-5.489-10.042-12.344-19.336-19.165-29.698
		c37.564-25.057,73.893-49.291,110.525-73.73c4.603,3.945,8.913,7.636,13.538,11.599c82.349-53.535,164.085-106.677,245.744-159.771
		c-15.223-74.347-42.89-211.347-42.89-211.347S1083.072,163.193,992.765,216.56z M288.51,624.235
		c-8.12-8.303-15.524-15.873-24.34-24.886c106.017-61.183,212.183-122.455,319.843-184.586c4.327,8.106,8.324,15.597,12.995,24.348
		C493.861,501.006,391.162,562.636,288.51,624.235z M609.261,859.735c-20.4-24.493-40.478-48.6-61.798-74.194
		c25.955-12.973,49.736-24.855,72.806-36.382c20.587,20.738,40.389,40.686,61.604,62.058
		C658.393,826.905,634.388,842.944,609.261,859.735z M735.492,587.155c-0.93,1.716-1.512,3.617-2.592,6.277
		c-5.834-9.787-11.244-18.856-16.648-27.924c-0.334,0.125-0.668,0.251-1.002,0.375c0.366,1.337,0.588,2.735,1.12,4.005
		c3.735,8.91,7.474,17.827,11.362,26.673c0.871,1.987,0.74,3.482-1.053,4.533c-2.809,1.65-5.664,3.259-8.643,4.567
		c-2.359,1.033-3.729,0.205-4.509-2.588c-3.261-11.691-6.802-23.302-10.266-34.932c-0.185-0.615-0.575-1.164-0.868-1.746
		c-0.291,0.054-0.577,0.108-0.865,0.164c0.212,1.871,0.324,3.762,0.656,5.615c1.469,8.109,2.968,16.212,4.532,24.306
		c0.446,2.306,1.117,4.575,1.738,6.846c0.579,2.114-0.096,3.315-2.363,3.063c-5.023-0.558-10.049-1.156-15.035-1.981
		c-0.586-0.099-1.342-1.733-1.306-2.627c0.209-5.412,0.594-10.815,0.979-16.219c0.479-6.69,0.995-13.378,1.541-20.065
		c0.162-1.971,0.083-3.63-3.206-3.378c-0.322,2.893-0.561,5.887-1.002,8.857c-1.256,8.387-2.556,16.767-3.914,25.14
		c-1.038,6.405-1.09,6.396-7.629,5.045c-9.167-1.893-9.839-3.512-6.906-12.325c3.493-10.498,6.455-21.173,9.613-31.784
		c0.185-0.622,0.071-1.33,0.094-1.999c-0.321-0.148-0.642-0.299-0.965-0.444c-1.433,2.893-2.982,5.738-4.275,8.693
		c-4.306,9.812-8.549,19.647-12.745,29.507c-0.953,2.24-2.022,2.998-4.563,1.978c-3.825-1.531-7.866-2.506-11.793-3.783
		c-2.792-0.911-3.334-2.401-1.592-5.022c8.338-12.567,16.555-25.214,24.781-37.856c0.613-0.943,0.93-2.073,1.386-3.121
		c-0.309-0.216-0.617-0.431-0.929-0.651c-0.964,0.875-2.025,1.664-2.88,2.634c-10.455,11.835-20.904,23.676-31.301,35.566
		c-1.995,2.289-3.601,3.137-6.847,1.451c-5.511-2.865-11.506-4.792-17.289-7.139c-0.845-0.347-1.63-0.837-3.298-1.703
		c18.377-13.488,36.268-26.62,54.154-39.747c-0.216-0.35-0.437-0.698-0.66-1.048c-1.3,0.627-2.66,1.159-3.896,1.892
		c-18.468,10.977-36.945,21.934-55.345,33.021c-2.482,1.495-4.612,1.82-7.238,0.547c-2.969-1.436-6.12-2.483-9.145-3.81
		c-2.267-0.993-2.628-2.293-0.285-3.717c0.81-0.491,1.618-0.981,2.428-1.463c31.833-18.978,63.66-37.97,95.527-56.895
		c1.49-0.885,3.07-3.204,5.154-0.767c3.439,4.027,3.954,6.403,2.004,9.083c-4.147,5.705-2.413,14.705,3.84,18.267
		c4.446,2.527,9.263,4.123,14.576,3.03c0.985-0.201,2.554-0.413,3.001,0.108c3.582,4.173,6.959,8.519,10.4,12.812
		c-0.569,11.94,8.055,19.823,13.16,29.194C736.898,579.73,737.688,583.098,735.492,587.155z M775.137,557.761
		c-7.255,4.271-14.49,8.578-21.695,12.942c-2.273,1.379-3.534,0.444-4.38-1.632c-1.281-3.141-2.485-6.315-3.834-9.772
		c-0.771,0.51-1.354,0.824-1.848,1.24c-3.339,2.816-6.767,2.56-10.003-0.538c-1.928-1.844-4.33-3.227-6.102-5.195
		c-1.326-1.475-2.928-3.632-2.78-5.348c0.502-5.798-3.114-9.02-6.553-12.604c-3.32-3.46-7.13-6.74-9.437-10.824
		c-5.683-10.081-4.964-20.43,1.215-30.134c6.352-9.973,16.057-14.25,27.359-12.279c10.729,1.87,20.629,7.542,24.192,21.451
		c0.82,3.19,1.61,6.399,2.636,9.527c1.057,3.208,2.896,5.598,6.226,7.22c1.804,0.876,2.938,3.616,3.816,5.75
		c0.736,1.79,0.502,3.955,0.976,5.886c1.744,7.118,1.276,8.236-5.596,11.465c2.417,2.851,4.609,5.436,6.807,8.016
		C777.879,554.975,777.349,556.458,775.137,557.761z M851.335,409.032c-0.961,11.735-0.995,11.729-10.975,17.672
		c-16.124,9.598-32.249,19.201-48.353,28.827c-1.463,0.872-2.805,1.948-4.201,2.927c0.201,0.376,0.404,0.751,0.604,1.127
		c20.036-9.485,40.067-18.972,60.918-28.844c-0.471,5.661-0.815,10.315-1.269,14.965c-0.214,2.226-1.14,4.504-0.853,6.637
		c0.604,4.488-1.805,5.591-5.47,6.404c-15.066,3.332-30.099,6.853-45.135,10.338c-1.309,0.305-2.552,0.863-3.822,1.303
		c0.005,0.341,0.02,0.68,0.024,1.02c0.87,0.181,1.76,0.575,2.611,0.509c11.043-0.87,22.085-1.799,33.125-2.725
		c4.347-0.365,8.696-0.699,13.034-1.153c2.68-0.276,3.781,0.794,3.364,3.438c-0.745,4.651-1.392,9.328-2.381,13.928
		c-0.157,0.736-1.918,1.661-2.885,1.601c-6.698-0.409-13.379-1.069-20.066-1.623c-6.576-0.543-13.148-1.076-19.73-1.558
		c-0.771-0.058-1.567,0.218-2.352,0.342c-0.063,0.367-0.127,0.738-0.193,1.108c14.283,3.075,28.566,6.148,43.482,9.359
		c-1.326,5.742-2.521,10.917-3.792,16.436c-13.299-4.893-25.86-9.51-38.462-14.142c-1.986,2.75-0.288,3.587,1.728,4.489
		c10.748,4.801,21.468,9.661,32.191,14.521c0.847,0.385,1.619,0.932,2.922,1.69c-2.197,5.759-4.375,11.474-6.772,17.759
		c-11.279-8.939-21.663-17.17-32.05-25.398c-0.197,0.221-0.396,0.441-0.593,0.661c0.462,0.582,0.875,1.207,1.397,1.73
		c8.471,8.524,16.871,17.119,25.493,25.488c2.229,2.162,2.098,3.627,0.022,5.469c-0.877,0.784-1.656,1.698-2.593,2.402
		c-5.49,4.111-7.13,3.979-11.437-1.168c-5.448-6.507-10.792-13.107-16.199-19.648c-1.028-1.24-2.167-2.386-3.257-3.576
		c-0.257,0.175-0.515,0.348-0.767,0.521c5.448,9.142,10.894,18.278,16.42,27.542c-6.513,1.73-12.941-0.669-15.846-5.543
		c-2.655-4.461-5.392-8.876-7.948-13.398c-2.722-4.815-5.374-9.586-10.874-11.913c-1.019-0.433-1.896-1.725-2.369-2.825
		c-1.576-3.674-3.113-7.391-4.298-11.204c-0.402-1.299-0.228-3.362,0.581-4.341c3.383-4.113,4.178-8.98,4.302-13.932
		c0.185-7.459-7.072-13.537-14.458-12.501c-2.958,0.414-5.124-1.592-6.823-6.013c-1.072-2.807,1.312-3.208,2.753-4.069
		c32.215-19.257,64.45-38.475,96.716-57.649c1.214-0.72,2.728-0.937,4.102-1.392C851.061,406.096,851.451,407.583,851.335,409.032z
		 M1270.667,189.32c0,0-125.466,66.923-172.115,90.741c-14.012,7.157-23.832,15.694-26.304,31.514
		c-1.875,12.013-9.081,18.9-19.884,24.566c-40.336,21.158-80.129,43.352-121.513,65.912c-4.108-8.328-7.848-15.901-12.187-24.695
		c17.725-10.668,34.656-20.873,51.598-31.051c21.213-12.744,42.545-25.297,63.576-38.33c4.332-2.679,9.411-6.45,10.983-10.851
		c5.514-15.392,17.199-23.467,30.567-31.203c57.953-33.529,115.524-67.713,173.253-101.635c4.5-2.645,14.157-7.876,14.157-7.876
		L1270.667,189.32z"/>
	<path d="M762.185,525.124c-0.557-0.061-1.417-0.004-1.68,0.344c-2.75,3.667-5.409,7.405-8.097,11.125
		c0.335,0.556,0.669,1.111,1.003,1.663c3.838-0.671,7.721-1.175,11.509-2.079c2.263-0.539,3.321-2.386,2.335-4.649
		C766.144,528.988,765.986,525.542,762.185,525.124z"/>
	<path display="none" fill="#FFFFFF" d="M875.408,530.47c-18.676,10.974-37.301,22.033-56.05,32.88
		c-4.325,2.503-8.105,5.115-9.889,10.095c-0.509,1.424-2.152,2.644-3.553,3.51c-6.805,4.216-13.706,8.277-20.568,12.4
		c-5.481,3.293-10.958,6.594-16.692,10.045c1.403,2.845,2.613,5.295,3.942,7.989c13.389-7.298,26.262-14.478,39.311-21.323
		c3.495-1.833,5.826-4.061,6.433-7.948c0.8-5.118,3.977-7.88,8.51-10.195c15.092-7.705,29.729-16.333,45.011-23.618
		c7.48-3.565,10.682-7.881,8.126-16.383C878.36,528.825,876.863,529.614,875.408,530.47z"/>
	<path display="none" fill="#FFFFFF" d="M660.393,611.501c-34.83,20.101-69.175,39.922-103.473,59.716
		c2.852,2.916,5.247,5.365,7.875,8.051c33.208-19.928,66.433-39.866,99.802-59.89C663.085,616.547,661.792,614.124,660.393,611.501z
		"/>
	<path display="none" fill="#FFFFFF" d="M648.568,731.452c6.897,8.28,13.393,16.079,19.992,24.003
		c8.129-5.433,15.895-10.621,23.491-15.696c-6.863-6.914-13.27-13.367-19.929-20.077
		C664.658,723.411,656.965,727.255,648.568,731.452z"/>
	<path display="none" d="M704.88,654.112c-1.113-1.389-2.206-2.795-3.364-4.145c-0.145-0.168-0.652-0.1-0.971-0.035
		c-1.719,0.354-3.277-0.162-4.716-0.98c-2.022-1.152-2.583-4.064-1.242-5.91c0.63-0.867,0.464-1.635-0.648-2.938
		c-0.674-0.789-1.186-0.039-1.668,0.248c-10.309,6.123-20.605,12.267-30.904,18.406c-0.262,0.156-0.523,0.314-0.785,0.474
		c-0.758,0.46-0.641,0.881,0.092,1.203c0.979,0.429,1.998,0.768,2.958,1.232c0.85,0.412,1.539,0.306,2.342-0.177
		c5.952-3.586,11.93-7.132,17.904-10.683c0.4-0.237,0.84-0.409,1.261-0.612c0.072,0.113,0.144,0.226,0.213,0.339
		c-5.786,4.247-11.574,8.495-17.52,12.858c0.54,0.28,0.793,0.439,1.067,0.551c1.871,0.759,3.811,1.383,5.593,2.31
		c1.05,0.545,1.569,0.271,2.215-0.469c3.364-3.847,6.744-7.678,10.126-11.506c0.276-0.314,0.62-0.569,0.932-0.852
		c0.101,0.071,0.201,0.141,0.301,0.211c-0.147,0.338-0.25,0.704-0.449,1.009c-2.661,4.09-5.319,8.182-8.017,12.248
		c-0.563,0.848-0.388,1.33,0.516,1.625c1.271,0.413,2.578,0.729,3.815,1.224c0.822,0.33,1.168,0.085,1.476-0.639
		c1.357-3.19,2.73-6.372,4.124-9.546c0.418-0.957,0.92-1.876,1.383-2.813c0.104,0.047,0.208,0.096,0.312,0.144
		c-0.007,0.216,0.029,0.445-0.031,0.646c-1.021,3.433-1.979,6.887-3.109,10.283c-0.949,2.851-0.731,3.375,2.234,3.987
		c2.116,0.437,2.132,0.44,2.468-1.632c0.439-2.708,0.86-5.419,1.266-8.133c0.143-0.961,0.22-1.93,0.325-2.866
		c1.063-0.082,1.089,0.455,1.037,1.093c-0.176,2.163-0.343,4.327-0.499,6.491c-0.124,1.749-0.249,3.496-0.316,5.247
		c-0.012,0.289,0.233,0.818,0.422,0.85c1.613,0.267,3.239,0.461,4.864,0.642c0.733,0.081,0.952-0.308,0.764-0.992
		c-0.201-0.734-0.417-1.468-0.562-2.214c-0.506-2.618-0.99-5.24-1.466-7.863c-0.107-0.6-0.143-1.211-0.212-1.816
		c0.093-0.018,0.186-0.036,0.28-0.053c0.095,0.188,0.222,0.366,0.281,0.565c1.121,3.763,2.266,7.519,3.321,11.301
		c0.252,0.903,0.695,1.172,1.458,0.837c0.963-0.423,1.887-0.943,2.796-1.477c0.58-0.34,0.623-0.824,0.34-1.466
		c-1.259-2.862-2.467-5.747-3.675-8.629c-0.173-0.411-0.245-0.863-0.363-1.295c0.108-0.04,0.216-0.081,0.325-0.121
		c1.749,2.934,3.499,5.868,5.385,9.034c0.35-0.861,0.539-1.476,0.839-2.031c0.71-1.313,0.455-2.402-0.26-3.715
		C707.486,660.525,704.695,657.975,704.88,654.112z"/>
	<path display="none" d="M745.408,608.673c-10.438,6.203-20.867,12.42-31.289,18.65c-0.467,0.279-1.237,0.408-0.891,1.316
		c0.55,1.43,1.25,2.079,2.208,1.945c2.39-0.335,4.737,1.631,4.677,4.044c-0.039,1.602-0.297,3.176-1.392,4.507
		c-0.262,0.316-0.317,0.984-0.188,1.404c0.385,1.234,0.881,2.436,1.391,3.625c0.153,0.356,0.438,0.773,0.767,0.914
		c1.78,0.753,2.638,2.296,3.519,3.854c0.826,1.463,1.712,2.892,2.571,4.334c0.939,1.577,3.019,2.353,5.126,1.793
		c-1.788-2.997-3.549-5.953-5.313-8.91c0.082-0.057,0.165-0.112,0.248-0.169c0.353,0.385,0.721,0.756,1.055,1.157
		c1.749,2.116,3.478,4.251,5.24,6.357c1.393,1.665,1.924,1.708,3.699,0.377c0.303-0.228,0.555-0.523,0.839-0.777
		c0.671-0.596,0.714-1.07-0.007-1.769c-2.789-2.708-5.508-5.488-8.248-8.246c-0.168-0.169-0.303-0.372-0.451-0.56
		c0.063-0.072,0.128-0.143,0.191-0.214c3.36,2.662,6.72,5.325,10.368,8.217c0.776-2.033,1.48-3.882,2.191-5.746
		c-0.422-0.245-0.672-0.422-0.945-0.546c-3.47-1.572-6.937-3.145-10.415-4.698c-0.651-0.292-1.201-0.563-0.559-1.453
		c4.077,1.499,8.141,2.992,12.443,4.575c0.411-1.785,0.798-3.459,1.227-5.317c-4.826-1.039-9.446-2.033-14.066-3.028
		c0.021-0.12,0.042-0.24,0.063-0.359c0.253-0.04,0.512-0.129,0.76-0.11c2.13,0.156,4.256,0.329,6.383,0.504
		c2.164,0.179,4.325,0.392,6.492,0.524c0.313,0.02,0.883-0.28,0.934-0.518c0.319-1.488,0.529-3.001,0.77-4.506
		c0.136-0.855-0.221-1.202-1.088-1.112c-1.403,0.147-2.811,0.255-4.217,0.373c-3.571,0.3-7.144,0.6-10.716,0.881
		c-0.276,0.021-0.563-0.106-0.845-0.164c-0.002-0.11-0.007-0.22-0.008-0.331c0.41-0.142,0.813-0.323,1.236-0.421
		c4.863-1.127,9.727-2.267,14.602-3.344c1.186-0.263,1.965-0.62,1.77-2.072c-0.094-0.69,0.206-1.427,0.275-2.147
		c0.146-1.504,0.259-3.01,0.41-4.841c-6.745,3.194-13.226,6.263-19.707,9.332c-0.064-0.122-0.131-0.243-0.195-0.365
		c0.451-0.317,0.886-0.665,1.359-0.947c5.209-3.114,10.426-6.221,15.643-9.326c3.229-1.922,3.239-1.92,3.55-5.717
		c0.038-0.469-0.089-0.95-0.139-1.424C746.29,608.37,745.801,608.44,745.408,608.673z"/>
	<path display="none" d="M720.345,653.607c2.224-1.045,2.374-1.406,1.81-3.709c-0.152-0.625-0.077-1.325-0.314-1.904
		c-0.284-0.69-0.651-1.577-1.235-1.86c-1.077-0.525-1.671-1.298-2.014-2.336c-0.332-1.012-0.587-2.05-0.853-3.082
		c-1.153-4.5-4.355-6.334-7.827-6.939c-3.656-0.638-6.796,0.746-8.851,3.972c-1.999,3.14-2.231,6.488-0.393,9.749
		c0.746,1.321,1.979,2.382,3.052,3.501c1.112,1.16,2.283,2.202,2.121,4.078c-0.048,0.555,0.47,1.253,0.899,1.73
		c0.573,0.637,1.35,1.084,1.974,1.681c1.047,1.002,2.156,1.085,3.235,0.174c0.16-0.135,0.35-0.236,0.598-0.401
		c0.437,1.118,0.826,2.145,1.24,3.161c0.274,0.671,0.682,0.974,1.418,0.528c2.331-1.412,4.672-2.805,7.018-4.187
		c0.716-0.421,0.888-0.901,0.324-1.563C721.836,655.366,721.127,654.529,720.345,653.607z M710.58,655.716
		c-0.37,0.206-1.039,0.072-1.485-0.113c-0.336-0.14-0.56-0.593-0.793-0.935c-0.826-1.215-0.451-1.985,0.999-2.12
		c1.145-0.107,2.283-0.25,3.645-0.4C712.471,653.83,711.823,655.022,710.58,655.716z M715.132,655.854
		c-0.124-0.704-0.271-1.533-0.417-2.362c0.129-0.08,0.259-0.159,0.388-0.239c0.645,0.496,1.29,0.992,1.917,1.475
		C716.311,655.151,715.797,655.457,715.132,655.854z M718.918,650.78c-1.225,0.292-2.481,0.456-3.723,0.673
		c-0.108-0.179-0.217-0.358-0.325-0.538c0.87-1.204,1.729-2.413,2.62-3.599c0.084-0.113,0.363-0.131,0.543-0.111
		c1.23,0.135,1.281,1.25,1.641,2.072C719.992,650.008,719.65,650.605,718.918,650.78z"/>
</g>
</svg>
