<?xml version="1.0" encoding="utf-8"?>
<!-- Generator: Adobe Illustrator 16.0.3, SVG Export Plug-In . SVG Version: 6.00 Build 0)  -->
<!DOCTYPE svg PUBLIC "-//W3C//DTD SVG 1.1//EN" "http://www.w3.org/Graphics/SVG/1.1/DTD/svg11.dtd">
<svg version="1.1" id="Ebene_2" xmlns="http://www.w3.org/2000/svg" xmlns:xlink="http://www.w3.org/1999/xlink" x="0px" y="0px"
	 width="1417.32px" height="1417.32px" viewBox="0 0 1417.32 1417.32" enable-background="new 0 0 1417.32 1417.32"
	 xml:space="preserve">
<g>
	<path fill="none" d="M152.729,68.337c43.108,43.146,131.335,131.449,132.033,132.146c1.958-1.959,1.183-1.203,3.691-3.711
		C265.512,173.832,157.25,66.57,155.875,65.195C154.648,66.421,155.163,65.904,152.729,68.337z"/>
	<path fill="none" d="M826.026,883.018c-5.651-4.698-13.16-4.404-16.452-1.674c-16.603,13.782-30.317,27.792-46.721,43.308
		c18.08,18.137,0,0,18.08,18.137c16.078-15.228,0,0,45.604-43.061C829.5,897.945,831.678,887.716,826.026,883.018z"/>
	<path fill="none" d="M810.917,551.07c0,0-140.235-145.417-151.885-154.897c-1.179,1.108-2.356,2.213-3.534,3.319
		c50.249,51.235,100.499,102.473,152.29,155.281C809.124,553.075,810.917,551.07,810.917,551.07z"/>
	<path fill="none" d="M868.535,904.193c-15.473,14.53-30.473,28.615-45.182,42.43c4.478,5.233,8.914,10.42,12.782,14.942
		c15.778-15.879,30.36-30.552,44.223-44.502C876.449,912.81,871.555,907.479,868.535,904.193z"/>
	<path fill="none" d="M875.037,968.088c18.026,17.937,35.3,35.122,53.878,53.608c2.056-2.123,5.161-5.333,9.104-9.406
		c-17.696-18.672-34.352-36.25-51.469-54.312C881.683,962.253,878.022,965.466,875.037,968.088z"/>
	<path d="M729.901,715.56c-0.649,0.708-1.553,1.461-1.68,2.264c-0.166,1.063,0.594,3.236,0.594,3.236s5.387,2.869,9.498,2.849
		c-1.122-2.807-2.102-5.148-3.002-7.52C734.173,713.382,732.203,713.053,729.901,715.56z"/>
	<path d="M748.721,736.483c1.668-1.27,4.184-2.063,3.788-4.766c-0.059-0.396-0.26-0.979-0.565-1.09
		c-3.217-1.168-6.469-2.26-9.715-3.374c-0.348,0.341-0.694,0.682-1.041,1.021c1.206,2.513,2.298,5.089,3.667,7.521
		C745.672,737.248,747.231,737.612,748.721,736.483z"/>
	<path d="M1260.274,1150.662c-6.854-7.488-13.845-10.589-24.031-10.918c-6.952-0.224-15.337-3.641-20.352-8.468
		c-28.785-27.697-56.634-56.364-85.063-84.438c-10.495-10.365-21.704-20.009-32.681-30.066c7.009-8.955,12.053-15.399,17.572-22.454
		c-7.151-7.675-13.055-15.655-20.53-21.691c-14.366-11.599-18.497-25.62-12.585-42.631c3.275-9.424-0.517-15.381-7.04-21.804
		c-33.433-32.922-66.717-66.005-99.478-99.595c-8.382-8.595-16.819-13.961-29.051-12.004c-12.437,1.993-21.253-3.061-28.972-17.896
		c6.275,0.296,11.692-1.098,13.774,0.934c9.068,8.843,19.865,10.839,31.791,11.664c4.998,0.346,10.749,3.008,14.468,6.447
		c20.13,18.596,39.751,37.744,59.481,56.77c2.316,2.232,5.785,4.702,6.086,7.362c2.273,20.05,20.555,25.781,31.861,38.947
		c14.956-13.953,28.747-26.82,44.779-41.779c-13.034-10.264-23.542-23.475-36.861-27.597c-12.564-3.888-22.657-8.538-31.651-17.521
		c-10.846-10.83-22.22-21.13-33.264-31.762c-12.855-12.378-20.493-26.815-20.443-45.403c0.015-5.511-3.813-12.194-7.896-16.368
		c-31.849-32.533-64.258-64.514-96.326-96.832c-7.783-7.844-14.942-16.306-22.514-24.624c-7.79,5.606-13.294,9.567-19.389,13.957
		c-6.476-7.392-12.486-14.253-17.539-20.022c1.842-5.037,5.341-9.87,4.116-12.056c-6.602-11.792-12.795-24.449-22.011-34.039
		c-49.584-51.57-100.01-102.333-150.19-153.332c-2.788-2.834-5.977-5.277-9.313-8.193c-19.415,17.474-37.901,34.11-56.962,51.265
		c12.831,13.439,24.321,25.52,35.86,37.556c11.896,12.407,23.848,24.763,35.757,37.156c11.587,12.062,23.499,23.834,34.626,36.307
		c10.803,12.107,24.597,21.947,32.443,36.432c-1.313,1.157-2.622,2.314-3.935,3.472c-45.64-47.41-91.279-94.819-137.36-142.689
		c-8.319,7.555-15.349,13.937-24.725,22.451c37.942,37.752,74.648,74.274,111.739,111.177c-4.129,3.863-8.342,7.806-12.787,11.966
		c-94.708-92.804-188.277-184.481-281.784-276.221c-1.874-1.838-4.408-6.306-4.294-6.39c9.826-7.283-2.427-10.061-3.33-15.231
		c4.042-3.248,7.979-6.412,14.023-11.269c-8.081-4.544-13.767-7.744-19.958-11.223c8.475-9.918,5.248-18.007-3.862-25.767
		c-5.618-4.787-10.725-10.409-15.092-16.366c-5.685-7.757-12.701-10.651-21.643-7.827c-9.318,2.943-15.4-0.754-21.88-7.289
		C260.871,159.315,207.565,106.179,154.31,52.995c-3.271-3.267-6.922-6.153-10.396-9.216c-1.552,0.591-3.104,1.185-4.656,1.775
		c0,33.889-0.458,67.789,0.378,101.656c0.171,6.954,3.512,15.334,8.23,20.428c32.826,35.446,66.674,69.947,99.448,105.44
		c4.987,5.402,6.695,14.202,8.857,21.735c2.088,7.27,0.587,16.524,4.583,22.095c8.298,11.571,19.193,21.277,28.603,31.308
		c23.061-13.24,44.258-7.417,60.232,8.62c56.389,56.604,114.281,111.71,171.568,167.419c3.188,3.098,6.08,6.504,9.365,10.041
		c-9.627,10.978-18.384,20.964-26.218,29.895c27.247,30.173,53.307,59.294,79.696,88.113c9.553,10.434,19.938,20.104,29.868,30.197
		c51.155,51.994,102.289,104.008,153.411,156.035c3.134,3.188,6.088,6.557,9.721,10.482c-17.269,16.45-33.898,32.294-50.437,48.047
		c4.989,5.873,8.785,10.341,14.931,17.572c-14.075,12.309-27.597,24.136-41.853,36.605c29.812,31.798,57.947,61.808,88.147,94.017
		c11.479-12.418,21.752-23.72,32.269-34.788c2.788-2.935,7.78-8.018,9.27-7.253c9.227,4.727,11.182-3.597,15.182-7.615
		c2.502-2.513,3.836-6.188,6.311-10.387c18.169,19.739,32.54,37.505,49.162,52.83c17.893,16.494,20.385,36.195,18.174,58.249
		c-4.208,41.988-24.717,75.257-55.057,103.208c-3.581,3.302-8.397,5.263-12.643,7.844c1.816,0.822,3.632,1.646,5.449,2.469
		c4.803,8.201,14.688,23.693,14.688,23.693l70.492,32.08c0,0,9.218-1.689,17.155-3.145s22.811-13.227,22.811-13.227
		s-9.458-11.696-6.538-20.6c10.534-32.133,20.849-64.385,29.651-97.019c4.789-17.755,8.293-36.226-6.883-52.589
		c-2.994-3.229-2.368-14.882,0.941-17.939c9.853-9.099,28.569,0.079,33.327,12.867c2.323,6.243,10.138,14.475,15.695,14.654
		c11.988,0.386,19.935,5.325,27.806,12.986c49.38,48.061,84.416,105.53,112.064,168.144c7.155,16.202,7.439,29.404-8.293,40.695
		c11.212,14.931,22.027,29.337,34.169,45.507c43.711-39.85,86.13-78.521,129.261-117.843
		C1314.167,1208.246,1286.902,1179.745,1260.274,1150.662z M284.762,200.484c-0.698-0.697-88.925-89.001-132.033-132.146
		c2.433-2.433,1.919-1.916,3.146-3.143c1.375,1.375,109.637,108.637,132.578,131.578
		C285.945,199.281,286.721,198.525,284.762,200.484z M655.498,399.491c1.178-1.105,2.355-2.211,3.534-3.319
		c11.65,9.48,151.885,154.897,151.885,154.897s-1.793,2.005-3.129,3.703C755.997,501.964,705.747,450.726,655.498,399.491z
		 M710.095,722.792c-2.587,2.331-4.927,3.545-8.328,2.836c-1.441-0.301-2.952-0.325-5.116-0.541
		c6.146-5.964,11.839-11.494,17.531-17.019c-0.154-0.205-0.31-0.41-0.462-0.615c-0.92,0.517-1.911,0.948-2.75,1.566
		c-5.887,4.343-11.776,8.689-17.586,13.126c-1.307,0.994-2.434,1.201-3.543,0.174c-1.738-1.609-3.456-3.258-4.973-5.051
		c-1.199-1.423-0.842-2.531,1.075-3.623c8.026-4.568,15.943-9.314,23.887-14.009c0.421-0.25,0.754-0.628,1.129-0.945
		c-0.094-0.189-0.187-0.376-0.281-0.563c-1.342,0.518-2.717,0.97-4.024,1.566c-5.714,2.621-11.419,5.263-17.104,7.948
		c-1.62,0.765-3.171,1.678-4.732,2.556c-1.454,0.82-2.465,0.593-2.699-1.021c-0.519-3.573-1.009-7.156-1.323-10.758
		c-0.036-0.423,1.03-1.27,1.697-1.421c4.034-0.93,8.094-1.737,12.155-2.543c5.028-0.999,10.062-1.971,15.1-2.921
		c1.485-0.28,2.696-0.664,1.9-2.88c-2.196,0.352-4.451,0.781-6.725,1.066c-6.425,0.798-12.853,1.565-19.286,2.292
		c-4.922,0.556-4.925,0.518-5.139-4.259c-0.301-6.694,0.77-7.479,7.82-7.206c8.396,0.325,16.828,0.247,25.246,0.318
		c0.493,0.005,0.995-0.215,1.493-0.332c0.051-0.25,0.103-0.502,0.148-0.753c-2.399-0.414-4.788-0.917-7.209-1.222
		c-8.043-1.021-16.089-1.994-24.146-2.93c-1.831-0.213-2.589-0.799-2.306-2.753c0.421-2.94,0.393-5.92,0.606-8.88
		c0.156-2.106,1.155-2.775,3.414-2.095c10.823,3.254,21.682,6.408,32.54,9.57c0.81,0.234,1.703,0.229,2.561,0.335
		c0.104-0.256,0.205-0.512,0.309-0.769c-0.824-0.491-1.604-1.066-2.478-1.463c-10.675-4.858-21.354-9.711-32.059-14.518
		c-2.06-0.922-2.983-1.861-2.341-4.433c1.095-4.368,1.406-8.883,2.067-13.335c0.1-0.652,0.316-1.29,0.646-2.611
		c13.363,9.99,26.375,19.718,39.38,29.441c0.219-0.218,0.435-0.439,0.651-0.663c-0.703-0.771-1.349-1.603-2.118-2.31
		c-11.526-10.553-23.04-21.114-34.635-31.599c-1.564-1.413-2.198-2.817-1.745-4.88c0.51-2.331,0.698-4.712,1.118-7.061
		c0.313-1.759,1.205-2.267,2.691-0.934c0.512,0.46,1.529,1.383,1.529,1.383s39.83,36.348,59.707,54.559
		c0.93,0.852,2.935,1.481,1.521,3.401c-2.334,3.169-3.993,3.996-6.334,3.184c-4.98-1.727-11.304,1.255-12.774,6.272
		c-1.042,3.565-1.327,7.203,0.464,10.649c0.331,0.639,0.778,1.679,0.477,2.09c-2.417,3.297-5,6.487-7.531,9.712
		C720.289,709.903,716.067,717.413,710.095,722.792z M739.22,740.569c-1.657,2.232-3.158,4.257-4.656,6.283
		c-1.186,1.606-2.378,1.537-3.751,0.27c-4.496-4.152-9.018-8.284-13.574-12.387c-1.44-1.293-0.982-2.348,0.393-3.344
		c2.082-1.505,4.202-2.965,6.504-4.581c-0.519-0.43-0.858-0.77-1.257-1.028c-2.698-1.742-3.145-4.156-1.457-7.002
		c1.005-1.694,1.58-3.625,2.705-5.236c0.844-1.207,2.139-2.74,3.434-2.978c4.373-0.805,6.082-3.938,8.091-7.02
		c1.938-2.976,3.654-6.253,6.241-8.653c6.391-5.918,22.475-5.144,22.475-5.144s13.496,8.241,14.135,16.423
		c0.607,7.767-1.745,15.717-11.354,20.934c-2.203,1.199-4.426,2.381-6.546,3.708c-2.172,1.365-3.596,3.107-4.176,5.724
		c-0.313,1.418-2.126,2.744-3.538,3.772c-1.186,0.862-2.827,1.132-4.165,1.842C743.79,744.767,742.878,744.667,739.22,740.569z
		 M776.752,780.514c1.147-10.14,2.229-19.713,3.313-29.32c-2.398-0.822-2.702,0.515-2.994,2.083
		c-1.553,8.361-3.154,16.716-4.755,25.071c-0.128,0.66-0.389,1.301-0.706,2.351c-4.66-0.372-9.282-0.739-14.366-1.145
		c4.51-9.549,8.662-18.339,12.812-27.133c-0.2-0.093-0.399-0.187-0.598-0.278c-0.344,0.434-0.729,0.843-1.02,1.306
		c-4.723,7.532-9.512,15.028-14.093,22.633c-1.183,1.964-2.289,2.165-4.034,1.101c-0.74-0.449-1.56-0.805-2.254-1.312
		c-4.052-2.968-4.259-4.124-1.256-8.115c3.795-5.047,7.676-10.04,11.503-15.065c0.726-0.955,1.361-1.969,2.037-2.955
		c-0.177-0.143-0.353-0.287-0.525-0.426c-5.741,5.57-11.477,11.138-17.292,16.785c-2.484-4.146-1.904-9.055,1.155-12.023
		c2.801-2.716,5.555-5.479,8.419-8.139c3.051-2.831,6.082-5.605,6.78-9.858c0.132-0.79,0.923-1.65,1.646-2.194
		c2.421-1.815,4.881-3.613,7.476-5.187c0.885-0.534,2.44-0.824,3.313-0.462c3.663,1.517,7.404,1.099,11.083,0.202
		c5.541-1.354,8.684-7.562,6.55-12.448c-0.854-1.957,0.227-3.848,3.175-5.897c1.874-1.296,2.612,0.269,3.515,1.091
		c20.187,18.386,40.349,36.792,60.483,55.229c0.756,0.693,1.198,1.695,1.788,2.552c-1.053,0.401-2.079,0.966-3.169,1.173
		c-8.843,1.666-8.845,1.642-15.082-4.059c-10.074-9.21-20.151-18.42-30.242-27.609c-0.916-0.837-1.958-1.548-2.94-2.315
		c-0.239,0.213-0.479,0.427-0.72,0.64c10.715,11.929,21.433,23.854,32.584,36.268c-4.268,0.8-7.767,1.485-11.283,2.097
		c-1.684,0.294-3.537,0.107-5.059,0.729c-3.203,1.308-4.463-0.134-5.742-2.499c-5.251-9.725-10.637-19.389-15.996-29.063
		c-0.467-0.842-1.109-1.587-1.67-2.375c-0.251,0.07-0.499,0.148-0.749,0.219c0.028,0.636-0.098,1.327,0.108,1.9
		c2.688,7.439,5.421,14.867,8.15,22.293c1.075,2.925,2.128,5.856,3.267,8.757c0.699,1.793,0.114,2.765-1.915,3.001
		c-3.572,0.41-7.145,0.892-10.724,1.123c-0.573,0.037-1.583-0.993-1.717-1.671c-0.939-4.698-1.69-9.436-2.521-14.154
		c-0.818-4.641-1.642-9.277-2.505-13.91c-0.101-0.543-0.452-1.037-0.689-1.553c-0.282,0.028-0.568,0.059-0.854,0.086
		c0.378,10.456,0.755,20.911,1.148,31.83C785.104,780.092,781.062,780.295,776.752,780.514z M780.934,942.789
		c-18.08-18.137,0,0-18.08-18.137c16.403-15.516,30.118-29.525,46.721-43.308c3.292-2.73,10.801-3.024,16.452,1.674
		s3.474,14.927,0.511,16.71C780.934,942.789,797.012,927.561,780.934,942.789z M836.136,961.565
		c-3.868-4.522-8.305-9.709-12.782-14.942c14.709-13.814,29.709-27.899,45.182-42.43c3.02,3.286,7.914,8.617,11.823,12.87
		C866.496,931.013,851.914,945.686,836.136,961.565z M928.915,1021.697c-18.578-18.486-35.852-35.672-53.878-53.608
		c2.985-2.622,6.646-5.835,11.513-10.109c17.117,18.062,33.772,35.64,51.469,54.312
		C934.076,1016.364,930.971,1019.574,928.915,1021.697z"/>
	<path d="M731.107,730.841c1.287,1.174,2.278,2.079,3.649,3.332c0.743-1.633,1.506-3.313,2.27-4.991
		c-0.256-0.227-0.512-0.453-0.769-0.681C734.452,729.324,732.643,730.144,731.107,730.841z"/>
	<path display="none" d="M729.211,707.926c2.531-3.225,5.114-6.415,7.531-9.712c0.302-0.411-0.146-1.451-0.477-2.09
		c-1.791-3.446-1.506-7.084-0.464-10.649c1.471-5.018,7.794-7.999,12.774-6.272c2.341,0.813,4-0.015,6.334-3.184
		c1.414-1.92-0.591-2.55-1.521-3.401c-19.877-18.211-59.707-54.559-59.707-54.559s-1.018-0.922-1.529-1.383
		c-1.486-1.333-2.379-0.826-2.691,0.934c-0.42,2.349-0.608,4.729-1.118,7.061c-0.453,2.063,0.181,3.467,1.745,4.88
		c11.595,10.484,23.108,21.046,34.635,31.599c0.77,0.707,1.415,1.538,2.118,2.31c-0.217,0.224-0.433,0.445-0.651,0.663
		c-13.005-9.724-26.017-19.451-39.38-29.441c-0.33,1.321-0.547,1.959-0.646,2.611c-0.661,4.452-0.973,8.967-2.067,13.335
		c-0.643,2.571,0.281,3.511,2.341,4.433c10.705,4.807,21.384,9.659,32.059,14.518c0.874,0.396,1.653,0.972,2.478,1.463
		c-0.104,0.257-0.205,0.513-0.309,0.769c-0.857-0.105-1.751-0.101-2.561-0.335c-10.858-3.162-21.717-6.316-32.54-9.57
		c-2.259-0.681-3.258-0.012-3.414,2.095c-0.214,2.96-0.186,5.939-0.606,8.88c-0.283,1.954,0.475,2.54,2.306,2.753
		c8.058,0.936,16.104,1.908,24.146,2.93c2.421,0.305,4.81,0.808,7.209,1.222c-0.046,0.251-0.098,0.503-0.148,0.753
		c-0.498,0.117-1,0.337-1.493,0.332c-8.418-0.071-16.85,0.007-25.246-0.318c-7.051-0.273-8.121,0.512-7.82,7.206
		c0.214,4.776,0.217,4.814,5.139,4.259c6.434-0.727,12.861-1.494,19.286-2.292c2.273-0.285,4.528-0.715,6.725-1.066
		c0.796,2.216-0.415,2.6-1.9,2.88c-5.038,0.95-10.071,1.922-15.1,2.921c-4.062,0.806-8.121,1.613-12.155,2.543
		c-0.667,0.151-1.733,0.998-1.697,1.421c0.314,3.602,0.805,7.185,1.323,10.758c0.234,1.613,1.245,1.841,2.699,1.021
		c1.562-0.878,3.112-1.791,4.732-2.556c5.686-2.686,11.391-5.327,17.104-7.948c1.308-0.597,2.683-1.049,4.024-1.566
		c0.095,0.188,0.188,0.374,0.281,0.563c-0.375,0.317-0.708,0.695-1.129,0.945c-7.943,4.694-15.86,9.44-23.887,14.009
		c-1.917,1.092-2.274,2.2-1.075,3.623c1.517,1.793,3.234,3.441,4.973,5.051c1.109,1.027,2.236,0.82,3.543-0.174
		c5.81-4.437,11.699-8.783,17.586-13.126c0.839-0.618,1.83-1.05,2.75-1.566c0.152,0.205,0.308,0.41,0.462,0.615
		c-5.692,5.524-11.386,11.055-17.531,17.019c2.164,0.216,3.675,0.24,5.116,0.541c3.401,0.709,5.741-0.505,8.328-2.836
		C716.067,717.413,720.289,709.903,729.211,707.926z"/>
	<path display="none" d="M748.722,742.152c1.338-0.71,2.979-0.979,4.165-1.842c1.412-1.028,3.226-2.354,3.538-3.772
		c0.58-2.616,2.004-4.358,4.176-5.724c2.12-1.327,4.343-2.509,6.546-3.708c9.609-5.217,11.962-13.167,11.354-20.934
		c-0.639-8.182-14.135-16.423-14.135-16.423s-16.084-0.774-22.475,5.144c-2.587,2.4-4.303,5.678-6.241,8.653
		c-2.009,3.082-3.718,6.215-8.091,7.02c-1.295,0.237-2.59,1.771-3.434,2.978c-1.125,1.611-1.7,3.542-2.705,5.236
		c-1.688,2.846-1.241,5.26,1.457,7.002c0.398,0.259,0.738,0.599,1.257,1.028c-2.302,1.616-4.422,3.076-6.504,4.581
		c-1.375,0.996-1.833,2.051-0.393,3.344c4.557,4.103,9.078,8.234,13.574,12.387c1.373,1.268,2.565,1.337,3.751-0.27
		c1.498-2.026,2.999-4.051,4.656-6.283C742.878,744.667,743.79,744.767,748.722,742.152z M734.757,734.173
		c-1.371-1.253-2.362-2.158-3.649-3.332c1.535-0.697,3.345-1.518,5.15-2.34c0.257,0.228,0.513,0.454,0.769,0.681
		C736.263,730.86,735.5,732.541,734.757,734.173z M728.815,721.06c0,0-0.76-2.174-0.594-3.236c0.127-0.803,1.03-1.556,1.68-2.264
		c2.302-2.507,4.271-2.178,5.41,0.829c0.9,2.371,1.88,4.713,3.002,7.52C734.202,723.929,728.815,721.06,728.815,721.06z
		 M742.229,727.253c3.246,1.114,6.498,2.206,9.715,3.374c0.306,0.111,0.507,0.693,0.565,1.09c0.396,2.703-2.12,3.496-3.788,4.766
		c-1.489,1.129-3.049,0.765-3.866-0.688c-1.369-2.432-2.461-5.008-3.667-7.521C741.534,727.935,741.881,727.594,742.229,727.253z"/>
	<path display="none" d="M788.44,748.035c0.286-0.027,0.572-0.058,0.854-0.086c0.237,0.516,0.589,1.01,0.689,1.553
		c0.863,4.633,1.687,9.27,2.505,13.91c0.83,4.719,1.581,9.456,2.521,14.154c0.134,0.678,1.144,1.708,1.717,1.671
		c3.579-0.231,7.151-0.713,10.724-1.123c2.029-0.236,2.614-1.208,1.915-3.001c-1.139-2.9-2.191-5.832-3.267-8.757
		c-2.729-7.426-5.462-14.854-8.15-22.293c-0.206-0.573-0.08-1.265-0.108-1.9c0.25-0.07,0.498-0.148,0.749-0.219
		c0.561,0.788,1.203,1.533,1.67,2.375c5.359,9.674,10.745,19.338,15.996,29.063c1.279,2.365,2.539,3.807,5.742,2.499
		c1.521-0.621,3.375-0.435,5.059-0.729c3.517-0.611,7.016-1.297,11.283-2.097c-11.151-12.413-21.869-24.339-32.584-36.268
		c0.241-0.213,0.48-0.427,0.72-0.64c0.982,0.768,2.024,1.479,2.94,2.315c10.091,9.189,20.168,18.399,30.242,27.609
		c6.237,5.7,6.239,5.725,15.082,4.059c1.09-0.207,2.116-0.771,3.169-1.173c-0.59-0.856-1.032-1.858-1.788-2.552
		c-20.135-18.437-40.297-36.843-60.483-55.229c-0.902-0.822-1.641-2.387-3.515-1.091c-2.948,2.05-4.028,3.94-3.175,5.897
		c2.134,4.887-1.009,11.095-6.55,12.448c-3.679,0.896-7.42,1.314-11.083-0.202c-0.873-0.362-2.429-0.072-3.313,0.462
		c-2.595,1.573-5.055,3.371-7.476,5.187c-0.724,0.544-1.515,1.404-1.646,2.194c-0.698,4.253-3.729,7.027-6.78,9.858
		c-2.864,2.66-5.618,5.423-8.419,8.139c-3.06,2.969-3.64,7.877-1.155,12.023c5.815-5.647,11.551-11.215,17.292-16.785
		c0.173,0.139,0.349,0.283,0.525,0.426c-0.676,0.986-1.312,2-2.037,2.955c-3.827,5.025-7.708,10.019-11.503,15.065
		c-3.003,3.991-2.796,5.147,1.256,8.115c0.694,0.507,1.514,0.862,2.254,1.312c1.745,1.064,2.852,0.863,4.034-1.101
		c4.581-7.604,9.37-15.101,14.093-22.633c0.29-0.463,0.676-0.872,1.02-1.306c0.198,0.092,0.397,0.186,0.598,0.278
		c-4.149,8.794-8.302,17.584-12.812,27.133c5.084,0.405,9.706,0.772,14.366,1.145c0.317-1.05,0.578-1.69,0.706-2.351
		c1.601-8.355,3.202-16.71,4.755-25.071c0.292-1.568,0.596-2.905,2.994-2.083c-1.085,9.607-2.166,19.181-3.313,29.32
		c4.31-0.219,8.352-0.422,12.837-0.649C789.195,768.946,788.818,758.491,788.44,748.035z"/>
</g>
</svg>
