<?xml version="1.0" encoding="utf-8"?>
<!-- Generator: Adobe Illustrator 16.0.3, SVG Export Plug-In . SVG Version: 6.00 Build 0)  -->
<!DOCTYPE svg PUBLIC "-//W3C//DTD SVG 1.1//EN" "http://www.w3.org/Graphics/SVG/1.1/DTD/svg11.dtd">
<svg version="1.1" id="Ebene_4" xmlns="http://www.w3.org/2000/svg" xmlns:xlink="http://www.w3.org/1999/xlink" x="0px" y="0px"
	 width="1417.32px" height="1417.32px" viewBox="0 0 1417.32 1417.32" enable-background="new 0 0 1417.32 1417.32"
	 xml:space="preserve">
<g>
	<path display="none" fill="none" d="M893.189,1051.566c-13.119-13.583-26.095-27.02-40.101-41.525
		c13.469-13.006,25.903-25.014,39.103-37.762c14.755,15.279,28.252,29.255,42.77,44.288
		C932.926,1040.544,921.219,1050.206,893.189,1051.566z"/>
	<path display="none" fill="none" d="M807.086,602.688c0,0-16.03-16.635-24.331-25.196c-24.395-25.169-48.726-50.402-73.081-75.608
		c-7.169-7.418-14.335-14.844-22.409-23.204c25.378-24.507,49.382-47.688,74.229-71.683
		c73.458,76.067,219.371,227.165,219.371,227.165l-62.141,60.008l-83.049-85.998L807.086,602.688z"/>
	<path display="none" fill="none" d="M643.926,923.8c6.131,7.232,12.019,14.181,16.625,19.619c-1.577,9-2.828,16.134-4.116,23.476
		c-7.961,2.006-16.714,4.439-25.577,6.356c-4.909,1.063-10.498,2.912-14.937,1.585c-27.385-8.188-51.998-21.129-71.996-42.37
		c-19.404-20.609-36.517-42.345-50.265-67.473c-22.31-40.783-37.963-83.451-44.978-129.221c-1.343-8.774,0.964-18.109,1.833-30.773
		c67.87,70.281,132.283,136.98,196.443,203.42C645.823,914.181,644.895,918.897,643.926,923.8z"/>
	<path display="none" d="M1013.719,874.35c0.305,0.289,0.252,0.947-0.089,1.252c-0.341,0.302-1.015,0.263-1.358-0.091
		c-0.277-0.289-0.251-0.975,0.038-1.278C1012.596,873.927,1013.362,873.98,1013.719,874.35z"/>
	<path d="M216.923,28.704c-35.771,34.544-71.932,69.463-109.002,105.263c3.422,5.359,6.945,10.876,11.255,17.624
		c-4.759,6.243-9.831,12.89-15.932,20.888c87.127,90.224,174.013,180.196,262.026,271.335c7.65-4.917,14.643-9.412,22.447-14.427
		c2.73,2.124,5.487,4.27,5.931,4.615c1.131,26.526,2.159,50.647,3.183,74.642c-9.735,2.325-20.088,2.683-28.167,7.153
		c-18.68,10.335-28.104,26.249-25.058,48.926c5.806,43.195,7.536,87.186,16.649,129.626c10.969,51.072,16.867,103.6,37.579,152.402
		c25.678,60.503,58.04,116.803,108.863,159.535c36.019,30.282,77.693,51.211,125.006,58.853c2.997,0.484,5.881,1.648,9.664,2.74
		c1.427,4.938,2.927,10.131,5,17.31c10.196-1.208,20.261-2.404,30.693-3.64c12.437-22.253,38.033-23.173,56.26-37.237
		c5.779,3.725,10.816,6.972,16.399,10.574c4.224-0.959,8.893-2.019,13.82-3.135c7.179,5.964,14.127,11.738,23.29,19.354
		c14.258-13.77,27.686-26.736,42.271-40.819c6.306,5.031,10.805,7.938,14.473,11.661c16.852,17.099,33.733,34.177,50.079,51.748
		c11.95,12.846,16.875,28.324,13.809,45.91c-2.218,12.714-4.58,25.405-6.876,38.107c-4.824,26.702-17.435,48.346-42.267,63.568
		c-5.224,0.059-11.844,0.135-20.294,0.231c-1.306,5.071-2.551,9.911-4.296,16.702c19.538,9.139,37.613,17.892,55.938,26.083
		c21.83,9.759,43.881,19.024,65.822,28.534c12.019,5.207,12.946,4.97,23.096-7.015c-2.067-4.489-4.311-9.361-6.502-14.12
		c20.17-62.432,44.151-124.478,11.62-192.313c5.462-4.234,11.314-8.772,16.663-12.92c74.819,56.153,111.86,136.659,95.575,221.813
		c25.797,29.899,55.041,57.022,85.829,78.707c21.787-2.909,28.22-15.001,28.679-32.099c18.919-1.343,33.434-7.395,33.193-28.812
		c9.213-3.686,17.629-7.052,26.426-10.57c2.578-7.36,4.986-14.224,7.777-22.192c17.591-2.327,30.424-10.887,30.82-30.576
		c9.145-3.176,17.607-6.114,26.277-9.129c2.824-7.719,5.336-14.578,8.278-22.616c2.83-0.52,6.329-0.91,9.688-1.816
		c20.069-5.401,26.959-26.075,12.885-41.695c-31.126-34.544-62.53-68.872-94.951-102.189c-7.034-7.23-18.365-11.707-28.514-14.169
		c-18.817-4.563-36.013-10.062-49.565-25.415c-17.833-20.198-37.252-39-57.093-59.547c6.05-7.012,10.737-12.444,16.429-19.04
		c-1.912-4.64-4.171-10.126-7.541-18.311c15.739-15.199,32.308-31.198,50.132-48.412c-9.103-11.172-16.639-20.42-24.259-29.772
		c5.027-7.768,9.543-14.739,15.107-23.332c-30.573-31.66-60.344-62.488-90.362-93.572c5.984-26.068,11.599-50.518,18.004-78.426
		c-30.326-31.405-378.127-391.563-378.127-391.563s-77.789,12.952-114.391,19.224c-13.136-13.602-24.813-25.694-37.555-38.89
		c-23.151,22.357-45.053,43.509-67.851,65.523c-5.101-4.176-8.574-7.015-12.919-10.572c5.742-7.677,10.732-14.352,16.795-22.458
		c-87.244-90.345-174.167-180.355-262.339-271.66c-6.689,4.802-13.458,9.663-21.264,15.268
		C230.221,36.894,224.659,33.468,216.923,28.704z M991.21,854.738c0.036,1.021,0.124,2.072,0.187,3.122
		c-0.002,0.109-0.016,0.229-0.048,0.419c-0.98-0.8-1.909-1.542-2.824-2.27c-0.359-0.291-0.359-0.291-0.727-0.04
		c-0.65,0.419-1.331,0.811-2.21,1.104c0.319-1.473,0.48-2.868,1.026-4.165c0.056-0.105,0.111-0.213,0.194-0.318
		c0.371-0.464,0.682-0.527,1.201-0.235c0.613,0.361,1.236,0.708,1.839,1.08c0.344,0.224,0.677,0.457,1.022,0.679
		C991.098,854.265,991.186,854.469,991.21,854.738z M1001.421,860.739c-0.165,0.214-0.341,0.251-0.566,0.124
		c-0.278-0.178-0.586-0.332-0.852-0.551c-0.703-0.564-1.519-0.779-2.395-0.782c-0.674-0.012-1.345,0.058-2.021,0.126
		c-0.593,0.071-1.122,0.317-1.585,0.686c-0.53,0.406-1.102,0.774-1.66,1.155c-0.657-0.873-0.755-1.44-0.364-2.348
		c0.296-0.682,0.496-1.377,0.576-2.115c0.096-0.857,0.03-1.667-0.375-2.441c-0.117-0.229-0.287-0.406-0.379-0.639
		c-0.051-0.106-0.033-0.311,0.021-0.362c0.436-0.423,0.9-0.792,1.351-1.173c1.262,0.95,8.438,7.316,8.675,7.723
		C1001.711,860.328,1001.573,860.541,1001.421,860.739z M999.085,868.231c-0.081,0.025-0.177,0.063-0.243,0.103
		c-1.814,0.641-3.615,1.297-5.429,1.938c-0.096,0.036-0.229,0.063-0.38,0.101c-0.009-0.201-0.007-0.337-0.004-0.471
		c0.092-1.413,0.17-2.81,0.262-4.219c0.059-1.008,0.104-2.003,0.147-2.997c0.021-0.498,0.216-0.897,0.64-1.173
		c1.087-0.733,2.291-1.021,3.605-0.92c0.24,0.031,0.482,0.117,0.71,0.162c0.06,0.47,0.094,0.862,0.153,1.253
		c0.305,1.849,0.608,3.696,0.912,5.544C999.531,868.009,999.518,868.05,999.085,868.231z M1001.137,869.343
		c1.623,0.204,3.261,0.394,4.884,0.596c0.296,0.06,0.563,0.145,0.806,0.175c0.496,1.611,0.214,3.919-0.646,5.358
		c-0.878,0.156-7.827,0.656-8.214,0.58c0.174-0.723,2.732-6.26,3.075-6.696C1001.07,869.355,1001.108,869.343,1001.137,869.343z
		 M1015.593,877.963c-2.73-0.802-5.446-1.588-8.189-2.406c-0.053-0.081-0.065-0.119-0.039-0.147
		c0.099-0.226,0.196-0.453,0.283-0.693c0.735-2.059,1.119-4.096-0.027-6.134c-0.354-0.61-0.215-0.877,0.466-1.297
		c0.568,0.508,1.152,1.001,1.721,1.51c1.472,1.329,2.899,2.674,4.37,4.004c0.742,0.686,1.48,1.371,2.251,2.057
		c0.198,0.178,0.234,0.353,0.136,0.607c-0.28,0.749-0.551,1.51-0.834,2.259C1015.703,877.802,1015.634,877.867,1015.593,877.963z
		 M1015.719,882.28c0.229,0.785,0.076,1.01-0.717,1.037c-0.081-0.002-0.176,0.011-0.269-0.005c-1.213,0.033-2.422,0.065-3.621,0.086
		c-0.079-0.004-0.173-0.019-0.294-0.031c0.285-0.277,0.506-0.543,0.779-0.753c0.749-0.566,0.842-1.237,0.534-2.077
		c-0.31-0.84-0.576-1.691-0.858-2.529c-0.051-0.163-0.102-0.326-0.164-0.583c1.084,0.356,2.073,0.696,3.077,0.997
		c0.214,0.056,0.251,0.232,0.302,0.393C1014.899,879.98,1015.31,881.116,1015.719,882.28z M1047.166,923.825
		c-3.146-4.734-6.276-9.483-9.422-14.22c-3.905-5.879-7.797-11.77-11.703-17.648c-0.091-0.149-0.197-0.258-0.303-0.396
		c-0.04,0.014-0.082,0.025-0.135,0.052c-0.002,0.161-0.048,0.335-0.021,0.471c0.021,0.16,0.129,0.297,0.193,0.445
		c0.769,1.426,1.55,2.838,2.318,4.265c1.747,3.203,3.48,6.421,5.227,9.627c0.718,1.317,1.461,2.609,2.179,3.925
		c0.664,1.209,1.302,2.417,1.94,3.625c0.039,0.067,0.078,0.11,0.118,0.178c0.247,0.422,0.51,0.856,0.758,1.279
		c0.39,0.679,0.743,1.37,1.135,2.05c0.287,0.515,0.614,0.992,0.913,1.494c0.132,0.219,0.221,0.477,0.337,0.705
		c0.313,0.599,0.681,1.169,0.938,1.793c0.35,0.853,0.846,1.644,1.248,2.47c0.091,0.176,0.184,0.38,0.351,0.719
		c-0.24-0.058-0.389-0.101-0.508-0.118c-2.565-0.191-5.159-0.386-7.739-0.563c-0.227-0.018-0.47-0.021-0.712-0.027
		c-0.525,0.006-0.885-0.203-1.05-0.703c-0.089-0.258-0.207-0.487-0.311-0.732c-3.641-8.698-7.255-17.396-10.895-26.093
		c-0.066-0.149-0.143-0.313-0.221-0.477c-0.492,0.368-0.574,0.477-0.448,1.015c0.163,0.661,0.381,1.299,0.557,1.948
		c1.787,6.311,3.546,12.622,5.333,18.936c0.379,1.379,0.798,2.742,1.193,4.11c0.1,0.35,0.229,0.703,0.192,1.131
		c-2.927-0.292-5.785-0.57-8.726-0.851c-0.51-3.977-0.748-8.003-1.164-12.019c-0.399-4.002-0.759-8.015-1.146-12.058
		c-0.229,0.038-0.418,0.062-0.607,0.085c-0.016,0.173-0.031,0.32-0.047,0.469c-0.134,3.724-0.253,7.461-0.385,11.183
		c-0.13,3.59-0.26,7.206-0.404,10.808c-0.003,0.19-0.032,0.378-0.035,0.563c-2.211-0.535-4.367-1.043-6.51-1.565
		c-0.563-0.144-0.576-0.155-0.486-0.721c0-0.025,0.015-0.069,0.016-0.095c0.704-4.856,1.422-9.699,2.124-14.555
		c0.245-1.665,0.488-3.354,0.72-5.032c0.031-0.241,0.129-0.496-0.243-0.689c-0.099,0.225-0.21,0.438-0.268,0.682
		c-1.03,3.585-2.05,7.158-3.052,10.747c-0.661,2.354-1.321,4.71-1.993,7.053c-0.072,0.254-0.104,0.548-0.351,0.733
		c-0.053-0.027-0.092-0.042-0.119-0.042c-1.566-1.212-3.146-2.41-4.697-3.633c-0.253-0.205-0.491-0.452-0.729-0.673
		c0.157-0.387,0.295-0.706,0.45-1.04c1.881-4.567,3.775-9.122,5.657-13.688c0.213-0.521,0.423-1.013,0.606-1.535
		c0.226-0.643,0.031-0.982-0.705-1.143c-0.127,0.199-0.264,0.412-0.377,0.625c-2.434,4.679-4.868,9.357-7.305,14.035
		c-0.07,0.121-0.152,0.227-0.234,0.36c-0.039-0.068-0.052-0.108-0.064-0.151c-0.376-2.466-0.748-4.934-1.122-7.402
		c-0.072-0.458,0.042-0.885,0.305-1.271c0.359-0.532,0.73-1.051,1.077-1.597c1.271-1.913,2.541-3.829,3.798-5.756
		c0.305-0.399,0.553-0.798,0.804-1.224c0.152-0.281,0.115-0.535-0.216-0.797c-1.934,2.13-3.868,4.235-5.842,6.406
		c-0.038-0.147-0.051-0.188-0.048-0.242c0.121-1.599,0.28-6.223,0.924-6.816c0.26-0.226,0.494-0.474,0.737-0.688
		c0.74-0.66,1.463-1.306,2.201-1.965c0.288-0.251,0.331-0.479,0.2-0.696c-0.117-0.178-0.332-0.207-0.672-0.011
		c-0.72,0.378-1.441,0.781-2.16,1.186c-0.107,0.051-0.189,0.104-0.394,0.222c0.031-0.295,0.023-0.498,0.066-0.698
		c0.205-0.91,0.447-1.835,0.628-2.772c0.118-0.672,0.33-1.272,0.941-1.653c0.055-0.024,0.084-0.078,0.11-0.104
		c0.398-0.464,0.229-1.57-0.54-1.436c-0.202,0.038-0.365,0.169-0.477,0.329c-0.083,0.132-0.152,0.253-0.195,0.399
		c-0.127,0.361-0.241,0.735-0.33,1.137c-0.32,1.474-0.655,2.961-0.964,4.449c-0.41,1.93-0.808,3.847-1.231,5.763
		c-0.219,0.979-0.326,1.029-1.264,0.798c-1.77-0.435-3.535-0.869-5.29-1.316c-0.134-0.027-0.253-0.072-0.429-0.115
		c0.098-0.227,0.17-0.398,0.24-0.573c2.443-5.325,4.894-10.647,7.324-15.986c0.113-0.239,0.237-0.413,0.414-0.53
		c0.407-0.235,4.36-0.112,5.488-0.119l0.93-0.105c0.531,1.206,1.275,3.345,1.805,4.55c0.814,1.885,1.587,3.808,2.85,5.471
		c0.566,0.751,1.131,1.498,1.82,2.157c1.534,1.481,3.365,2.115,5.466,1.938c0.619-0.043,1.255-0.152,1.822-0.385
		c2.061-0.88,3.646-2.251,4.436-4.415c0.099-0.254,0.21-0.496,0.281-0.748c0.128-0.47,0.272-0.924,0.321-1.394
		c0.141-1.194,0.243-2.377,0.33-3.573c0.035-0.43,0.043-0.86-0.018-1.277c-0.183-1.119-0.485-2.229-0.965-3.272l2.052-1.979
		c0.172,0.178,0.317,0.327,0.463,0.478c1.899,2.077,3.869,4.089,5.756,6.18c1.202,1.327,2.431,2.599,3.645,3.91
		c2.204,2.339,4.422,4.717,6.642,7.072c1.161,1.229,2.324,2.459,3.475,3.704c2.243,2.407,4.515,4.813,6.758,7.22
		c1.189,1.258,2.364,2.527,3.552,3.787c2.244,2.379,4.479,4.746,6.723,7.125c2.588,2.734,5.19,5.482,7.778,8.246
		c0.291,0.3,0.54,0.642,0.817,0.957c-0.028,0.052-0.041,0.064-0.058,0.133c-0.12,0.012-0.228,0.036-0.349,0.047
		c-0.634,0.057-1.281,0.098-1.913,0.155c-0.391,0.032-0.796,0.16-1.186,0.142c-1.398-0.079-2.785,0.017-4.135,0.317
		c-0.864,0.2-1.467,0.096-1.982-0.52c-0.751-0.914-1.515-1.788-2.295-2.677c-1.753-1.98-3.494-3.947-5.248-5.929
		c-2.081-2.377-4.168-4.753-6.251-7.104c-1.055-1.201-2.124-2.418-3.179-3.62c-1.833-2.09-3.667-4.179-5.498-6.269
		c-1.255-1.435-2.521-2.855-3.785-4.303c-1.677-1.9-3.336-3.811-5.011-5.711c-0.079-0.081-0.16-0.162-0.239-0.246
		c-0.167,0.322-0.321,0.6-0.488,0.947c9.665,11.977,19.45,23.863,29.193,35.869c-0.216,0.023-0.337,0.034-0.459,0.047
		c-1.249-0.008-2.502-0.018-3.738-0.012c-1.345,0.004-2.703,0.021-4.063,0.037c-0.619,0.016-1.114-0.141-1.4-0.738
		C1047.271,923.988,1047.22,923.907,1047.166,923.825z M978.797,904.823c0.082-0.185,0.153-0.387,0.21-0.6
		c0.556-1.888,1.103-3.761,1.659-5.648c0.029-0.134,0.101-0.253,0.172-0.454c1.434,0.2,2.854,0.387,4.32,0.587
		c-0.117,0.321-0.201,0.561-0.299,0.814c-0.776,2.071-1.564,4.13-2.301,6.214c-0.481,1.392-0.572,1.134,0.592,2.284
		c1.007,0.986,2.011,1.972,3.031,2.944c0.104,0.11,0.196,0.233,0.301,0.369c-1.619,1.144-3.215,2.258-4.793,3.358
		c-0.036-0.174,0.005-0.294,0.048-0.415c0.243-0.816,0.473-1.646,0.716-2.463c0.07-0.228,0.088-0.456-0.097-0.647
		c-0.41-0.423-0.806-0.833-1.255-1.299c-0.071,0.173-0.113,0.293-0.141,0.4c-0.687,2.194-1.396,4.388-2.08,6.581
		c-0.071,0.255-0.171,0.509-0.268,0.763c-0.241,0.626-0.731,0.941-1.375,0.903c-0.443-0.021-0.872-0.136-1.3-0.251
		c-1.245-0.357-1.995-1.353-2.935-2.271c0.31-0.008,0.539-0.045,0.755-0.041c0.498,0.023,0.994,0.072,1.505,0.054
		c0.93-0.026,1.284-0.315,1.515-1.197c0.288-1.151,0.592-2.317,0.883-3.468c0.145-0.615,0.303-1.246,0.461-1.875
		c-0.308-0.046-0.578-0.078-0.858-0.15c-0.333-0.073-0.579,0.002-0.744,0.352c-0.502,0.985-1.003,1.972-1.506,2.958
		c-0.054,0.108-0.109,0.187-0.235,0.386c-0.047-0.296-0.1-0.485-0.123-0.674c-0.229-1.523-0.444-3.035-0.659-4.545
		c-0.012-0.12-0.051-0.242-0.047-0.376c-0.031-0.525,0.093-0.752,0.567-0.972c0.246-0.159,0.556-0.273,0.868-0.336
		c0.768-0.163,1.537-0.323,2.32-0.443C978.23,905.581,978.585,905.293,978.797,904.823z M892.191,972.279
		c14.755,15.279,28.252,29.255,42.77,44.288c-2.035,23.977-13.742,33.639-41.771,34.999c-13.119-13.583-26.095-27.02-40.101-41.525
		C866.558,997.035,878.992,985.027,892.191,972.279z M963.604,891.229c0.044-0.227,0.142-0.401,0.386-0.477
		c0.218-0.078,0.434-0.181,0.651-0.258c2.273-0.795,4.546-1.56,6.818-2.357c0.067-0.01,0.122-0.063,0.231-0.115
		c0.016-0.122,0.017-0.257,0.021-0.391c-0.092-1.764-0.195-3.512-0.299-5.292c-0.063-1.049,0.007-1.167,0.954-1.555
		c7.005-2.904,14.022-5.821,21.014-8.739c1.721-0.709,3.413-1.42,5.135-2.131c0.015-0.013,0.041-0.011,0.054-0.024l0.039,0.12
		c-0.769,1.696-1.538,3.363-2.308,5.058c-3.147,6.899-6.307,13.812-9.468,20.695c-0.433,0.948-0.54,1.001-1.588,0.9
		c-1.76-0.178-3.519-0.329-5.278-0.479c-0.134-0.003-0.269-0.006-0.389,0.005c-0.057,0.108-0.085,0.16-0.125,0.228
		c-0.875,2.244-1.72,4.487-2.593,6.732c-0.085,0.214-0.184,0.414-0.281,0.641c-0.084,0.214-0.261,0.331-0.477,0.381
		c-0.326,0.077-1.615,0.053-2.018-0.061c0.07-0.176,0.128-0.335,0.184-0.495c0.8-1.881,1.588-3.778,2.386-5.662
		c0.113-0.292,0.279-0.586,0.179-0.91c-0.549-0.185-0.657-0.132-0.938,0.454c-0.947,1.892-1.896,3.787-2.83,5.693
		c-0.208,0.414-0.495,0.691-0.967,0.722c-0.62,0.044-1.24,0.088-1.844,0.144c-0.197-0.312-0.02-0.537,0.092-0.776
		c0.947-1.868,1.909-3.746,2.855-5.613c0.209-0.387,0.365-0.801,0.561-1.2c-0.524-0.022-0.553-0.023-0.747,0.321
		c-0.414,0.667-0.828,1.332-1.205,2.011c-0.859,1.518-1.721,3.035-2.581,4.555c-0.265,0.466-0.645,0.728-1.183,0.771
		c-1.078,0.117-3.592-0.021-4.679-0.081l-0.069,0.067c0-0.029,0.001-0.055-0.013-0.068c-0.027,0-0.053,0.001-0.066-0.016
		l0.068-0.065c-0.008-1.075-0.072-3.604,0.082-4.679c0.075-0.55,0.339-0.909,0.813-1.155c1.546-0.809,3.108-1.601,4.642-2.421
		c0.691-0.378,1.385-0.755,2.052-1.134c0.339-0.197,0.352-0.21,0.35-0.735c-0.421,0.168-0.827,0.321-1.222,0.518
		c-1.898,0.882-3.81,1.778-5.708,2.659c-0.231,0.114-0.463,0.287-0.78,0.064c0.076-0.603,0.142-1.22,0.206-1.84
		c0.049-0.47,0.337-0.746,0.756-0.938c1.938-0.867,3.864-1.75,5.79-2.63c0.582-0.274,0.638-0.38,0.487-0.919
		c-0.335-0.129-0.619,0.016-0.918,0.145c-1.921,0.718-3.833,1.453-5.742,2.187c-0.175,0.064-0.337,0.114-0.5,0.166
		C963.51,892.829,963.52,891.551,963.604,891.229z M958.549,886.569c-0.476-0.52-0.871-0.93-1.281-1.354
		c-0.186-0.192-0.414-0.182-0.643-0.119c-0.825,0.215-1.662,0.416-2.486,0.63c-0.121,0.037-0.23,0.061-0.418,0.033
		c1.156-1.54,2.327-3.093,3.524-4.674c0.134,0.11,0.251,0.207,0.358,0.315c0.95,1.04,1.901,2.078,2.839,3.129
		c1.106,1.203,0.854,1.106,2.259,0.673c2.111-0.663,4.195-1.379,6.29-2.082c0.258-0.091,0.5-0.167,0.826-0.269
		c0.15,1.468,0.286,2.895,0.435,4.338c-0.188,0.052-0.312,0.117-0.458,0.153c-1.906,0.492-3.799,0.97-5.702,1.462
		c-0.216,0.05-0.42,0.114-0.608,0.189c-0.475,0.194-0.777,0.541-0.879,1.061c-0.163,0.765-0.337,1.543-0.524,2.305
		c-0.073,0.309-0.2,0.617-0.339,0.91c-0.224,0.452-0.469,0.585-0.993,0.534c-0.121-0.017-0.252-0.045-0.375-0.061
		c-1.501-0.269-3.016-0.552-4.518-0.819c-0.187-0.03-0.374-0.088-0.67-0.146c0.188-0.103,0.285-0.169,0.395-0.22
		c1.004-0.468,1.993-0.948,3.01-1.401c0.325-0.156,0.423-0.384,0.377-0.733c-0.051-0.27-0.071-0.567-0.121-0.862
		c-0.635,0.134-1.255,0.259-1.89,0.396c-1.161,0.249-2.336,0.51-3.497,0.759c-0.891,0.201-1.206,0.531-1.249,1.473
		c-0.022,0.496,0.009,0.996,0,1.506c-0.003,0.215-0.034,0.456-0.067,0.753c-0.883-0.972-1.853-1.755-2.165-3.011
		c-0.102-0.432-0.2-0.864-0.206-1.309c-0.016-0.646,0.315-1.126,0.951-1.342c0.257-0.089,0.5-0.167,0.771-0.243
		c2.217-0.605,4.434-1.24,6.65-1.849C958.266,886.659,958.372,886.632,958.549,886.569z M947.319,797.105
		c-0.003,0.013-0.005,0.027-0.008,0.042c0.009-0.003,0.017-0.006,0.034-0.015c0.304,0.287,0.636,0.55,0.927,0.85
		c2.656,2.695,5.3,5.378,7.968,8.061c2.302,2.327,4.587,4.64,6.902,6.953c1.216,1.232,2.443,2.451,3.661,3.684
		c2.325,2.325,4.651,4.68,6.977,7.008c1.19,1.203,2.382,2.408,3.584,3.599c2.285,2.313,4.56,4.612,6.859,6.912
		c1.256,1.272,2.497,2.532,3.782,3.778c2.022,1.959,3.979,3.983,5.974,5.969c0.146,0.15,0.291,0.301,0.463,0.479l-2.011,1.943
		c-1.027-0.517-2.124-0.859-3.236-1.08c-0.416-0.075-0.847-0.081-1.277-0.062c-1.197,0.046-2.396,0.118-3.58,0.206
		c-0.473,0.032-0.944,0.172-1.404,0.271c-0.258,0.063-0.502,0.168-0.755,0.257c-2.192,0.714-3.647,2.248-4.569,4.278
		c-0.253,0.56-0.384,1.19-0.448,1.807c-0.251,2.095,0.321,3.948,1.745,5.533c0.635,0.709,1.364,1.3,2.092,1.892
		c1.633,1.307,3.515,2.161,5.369,3.038c1.199,0.561,3.297,1.392,4.483,1.963l-0.136,0.925c-0.047,1.131-0.049,5.098-0.311,5.482
		c-0.111,0.161-0.303,0.291-0.547,0.396c-5.418,2.244-10.824,4.502-16.229,6.764c-0.179,0.063-0.366,0.142-0.583,0.219
		c-0.052-0.163-0.075-0.298-0.101-0.432c-0.372-1.782-0.758-3.551-1.129-5.334c-0.2-0.945-0.145-1.053,0.84-1.236
		c1.933-0.355,3.859-0.686,5.802-1.029c1.484-0.269,2.982-0.524,4.48-0.808c0.377-0.076,0.755-0.176,1.147-0.289
		c0.136-0.052,0.272-0.104,0.408-0.181c0.163-0.105,0.299-0.265,0.345-0.467c0.159-0.764-0.938-0.969-1.418-0.589
		c-0.04,0.04-0.094,0.065-0.107,0.105c-0.402,0.598-1.01,0.79-1.685,0.886c-0.943,0.145-1.849,0.358-2.795,0.528
		c-0.2,0.037-0.402,0.02-0.699,0.042c0.112-0.187,0.168-0.293,0.237-0.385c0.429-0.707,0.843-1.398,1.261-2.116
		c0.192-0.32,0.185-0.55,0.011-0.676c-0.213-0.135-0.441-0.099-0.701,0.178c-0.687,0.716-1.357,1.417-2.042,2.13
		c-0.232,0.252-0.493,0.476-0.711,0.714c-0.604,0.609-5.229,0.608-6.846,0.688c-0.067,0.013-0.094-0.017-0.241-0.06
		c2.225-1.883,4.41-3.754,6.608-5.613c-0.237-0.327-0.506-0.386-0.789-0.243c-0.422,0.223-0.843,0.47-1.237,0.719
		c-1.957,1.204-3.93,2.394-5.887,3.597c-0.544,0.341-1.087,0.679-1.631,1.021c-0.396,0.248-0.813,0.336-1.284,0.261
		c-2.451-0.461-4.905-0.92-7.359-1.382c-0.026,0.001-0.052-0.026-0.147-0.068c0.137-0.078,0.245-0.157,0.368-0.222
		c4.761-2.271,9.521-4.543,14.281-6.813c0.216-0.104,0.436-0.233,0.639-0.352c-0.148-0.73-0.467-0.951-1.117-0.745
		c-0.526,0.165-1.056,0.358-1.555,0.551c-4.631,1.722-9.248,3.456-13.878,5.178c-0.327,0.129-0.662,0.245-1.056,0.412
		c-0.213-0.246-0.462-0.479-0.646-0.752c-1.155-1.606-2.312-3.213-3.467-4.819c-0.026-0.03-0.026-0.056-0.037-0.124
		c0.192-0.239,0.489-0.259,0.743-0.322c2.366-0.592,4.743-1.169,7.119-1.747c3.605-0.892,7.242-1.78,10.85-2.673
		c0.229-0.063,0.445-0.168,0.689-0.246c-0.182-0.377-0.438-0.288-0.681-0.268c-1.686,0.174-3.37,0.348-5.056,0.544
		c-4.875,0.535-9.742,1.082-14.619,1.615c-0.028,0-0.069,0.013-0.096,0.013c-0.553,0.058-0.58,0.056-0.704-0.512
		c-0.446-2.159-0.879-4.331-1.338-6.56c0.202-0.009,0.377-0.02,0.565-0.016c3.604-0.019,7.195-0.022,10.814-0.026
		c3.726-0.003,7.449-0.005,11.189,0.006c0.135,0.003,0.283-0.008,0.472-0.032c0.03-0.186,0.062-0.375,0.105-0.604
		c-4.025-0.527-8.025-1.026-12.011-1.567c-3.985-0.54-8.001-0.92-11.971-1.58c-0.177-2.949-0.37-5.831-0.546-8.752
		c0.443-0.033,0.777,0.121,1.125,0.234c1.353,0.44,2.714,0.895,4.066,1.336c6.244,2.005,12.492,3.983,18.738,5.99
		c0.642,0.197,1.282,0.45,1.926,0.625c0.535,0.143,0.657,0.077,1.029-0.413c-0.161-0.083-0.319-0.168-0.466-0.236
		c-8.566-3.943-17.134-7.858-25.7-11.803c-0.239-0.111-0.479-0.249-0.722-0.335c-0.493-0.183-0.688-0.55-0.665-1.075
		c0.005-0.239,0.007-0.483-0.001-0.712c-0.09-2.584-0.192-5.153-0.294-7.751c0-0.135-0.05-0.271-0.101-0.514
		c0.335,0.18,0.508,0.277,0.707,0.375c0.813,0.432,1.57,0.943,2.426,1.335c0.614,0.28,1.17,0.666,1.758,1
		c0.226,0.124,0.479,0.221,0.692,0.36c0.491,0.317,0.97,0.648,1.464,0.966c0.664,0.417,1.343,0.793,2.01,1.207
		c0.426,0.25,0.838,0.539,1.25,0.801c0.065,0.042,0.104,0.082,0.172,0.123c1.184,0.682,2.383,1.373,3.555,2.067
		c1.291,0.763,2.557,1.55,3.847,2.314c3.143,1.856,6.299,3.7,9.44,5.557c1.396,0.817,2.781,1.65,4.179,2.467
		c0.135,0.084,0.279,0.181,0.442,0.212c0.158,0.027,0.321,0.004,0.469-0.007c0.015-0.039,0.028-0.081,0.057-0.134
		c-0.133-0.11-0.237-0.219-0.385-0.314c-5.738-4.11-11.492-8.205-17.229-12.313c-4.624-3.309-9.261-6.604-13.885-9.913
		c-0.078-0.056-0.146-0.097-0.238-0.139c-0.588-0.278-0.714-0.793-0.688-1.425c0.063-1.358,0.127-2.715,0.179-4.059
		c0.047-1.236,0.071-2.5,0.117-3.736c0.003-0.108,0.031-0.24,0.063-0.457c11.658,10.157,23.198,20.353,34.843,30.415
		c0.338-0.17,0.609-0.3,0.961-0.456c-0.078-0.081-0.157-0.162-0.235-0.245c-1.84-1.742-3.694-3.468-5.531-5.207
		c-1.391-1.304-2.767-2.619-4.168-3.935c-2.027-1.904-4.05-3.809-6.073-5.714c-1.166-1.096-2.343-2.206-3.508-3.303
		c-2.302-2.165-4.604-4.331-6.879-6.496c-1.921-1.821-3.824-3.631-5.743-5.452c-0.861-0.808-1.72-1.617-2.596-2.386
		c-0.597-0.508-0.68-1.114-0.448-1.998c0.359-1.353,0.491-2.722,0.46-4.121c-0.019-0.403,0.136-0.793,0.185-1.181
		c0.077-0.63,0.154-1.263,0.22-1.906c0.014-0.107,0.037-0.203,0.053-0.307C947.296,797.152,947.294,797.148,947.319,797.105z
		 M918.724,694.169l-83.049-85.998l-28.589-5.483c0,0-16.03-16.635-24.331-25.196c-24.395-25.169-48.726-50.402-73.081-75.608
		c-7.169-7.418-14.335-14.844-22.409-23.204c25.378-24.507,49.382-47.688,74.229-71.683
		c73.458,76.067,219.371,227.165,219.371,227.165L918.724,694.169z M450.517,705c67.87,70.281,132.283,136.98,196.443,203.42
		c-1.137,5.761-2.065,10.478-3.034,15.38c6.131,7.232,12.019,14.181,16.625,19.619c-1.577,9-2.828,16.134-4.116,23.476
		c-7.961,2.006-16.714,4.439-25.577,6.356c-4.909,1.063-10.498,2.912-14.937,1.585c-27.385-8.188-51.998-21.129-71.996-42.37
		c-19.404-20.609-36.517-42.345-50.265-67.473c-22.31-40.783-37.963-83.451-44.978-129.221
		C447.341,726.998,449.648,717.663,450.517,705z M472.406,385.749l269.402,278.975l-20.685,19.974L451.722,405.723L472.406,385.749z
		 M404.784,261.392L293.376,146.027l23.524-22.717l111.407,115.365L404.784,261.392z M422.924,375.902L311.518,260.537
		l23.525-22.718l111.406,115.366L422.924,375.902z M222.965,214.024l111.406,115.364l-23.523,22.717L199.44,236.74L222.965,214.024z
		 M203.406,101.507l111.407,115.365l-23.524,22.718L179.881,124.225L203.406,101.507z"/>
	
		<rect x="280.654" y="176" transform="matrix(-0.6947 -0.7193 0.7193 -0.6947 473.1394 585.5374)" display="none" fill="#FFFFFF" width="160.376" height="32.702"/>
	
		<rect x="298.796" y="290.509" transform="matrix(-0.6947 -0.7193 0.7193 -0.6947 421.507 792.6426)" display="none" fill="#FFFFFF" width="160.376" height="32.703"/>
	
		<rect x="167.159" y="154.197" transform="matrix(0.6947 0.7193 -0.7193 0.6947 198.207 -125.8512)" display="none" fill="#FFFFFF" width="160.377" height="32.703"/>
	
		<rect x="186.718" y="266.714" transform="matrix(0.6947 0.7193 -0.7193 0.6947 285.1168 -105.5649)" display="none" fill="#FFFFFF" width="160.377" height="32.702"/>
	
		<rect x="402.855" y="520.846" transform="matrix(0.6947 0.7193 -0.7193 0.6947 567.2261 -265.8506)" display="none" fill="#FFFFFF" width="387.819" height="28.754"/>
	<path display="none" d="M1026.041,891.957c-0.091-0.149-0.197-0.258-0.303-0.396c-0.04,0.014-0.082,0.025-0.135,0.052
		c-0.002,0.161-0.048,0.335-0.021,0.471c0.021,0.16,0.129,0.297,0.193,0.445c0.769,1.426,1.55,2.838,2.318,4.265
		c1.747,3.203,3.48,6.421,5.227,9.627c0.718,1.317,1.461,2.609,2.179,3.925c0.664,1.209,1.302,2.417,1.94,3.625
		c0.039,0.067,0.078,0.11,0.118,0.178c0.247,0.422,0.51,0.856,0.758,1.279c0.39,0.679,0.743,1.37,1.135,2.05
		c0.287,0.515,0.614,0.992,0.913,1.494c0.132,0.219,0.221,0.477,0.337,0.705c0.313,0.599,0.681,1.169,0.938,1.793
		c0.35,0.853,0.846,1.644,1.248,2.47c0.091,0.176,0.184,0.38,0.351,0.719c-0.24-0.058-0.389-0.101-0.508-0.118
		c-2.565-0.191-5.159-0.386-7.739-0.563c-0.227-0.018-0.47-0.021-0.712-0.027c-0.525,0.006-0.885-0.203-1.05-0.703
		c-0.089-0.258-0.207-0.487-0.311-0.732c-3.641-8.698-7.255-17.396-10.895-26.093c-0.066-0.149-0.143-0.313-0.221-0.477
		c-0.492,0.368-0.574,0.477-0.448,1.015c0.163,0.661,0.381,1.299,0.557,1.948c1.787,6.311,3.546,12.622,5.333,18.936
		c0.379,1.379,0.798,2.742,1.193,4.11c0.1,0.35,0.229,0.703,0.192,1.131c-2.927-0.292-5.785-0.57-8.726-0.851
		c-0.51-3.977-0.748-8.003-1.164-12.019c-0.399-4.002-0.759-8.015-1.146-12.058c-0.229,0.038-0.418,0.062-0.607,0.085
		c-0.016,0.173-0.031,0.32-0.047,0.469c-0.134,3.724-0.253,7.461-0.385,11.183c-0.13,3.59-0.26,7.206-0.404,10.808
		c-0.003,0.19-0.032,0.378-0.035,0.563c-2.211-0.535-4.367-1.043-6.51-1.565c-0.563-0.144-0.576-0.155-0.486-0.721
		c0-0.025,0.015-0.069,0.016-0.095c0.704-4.856,1.422-9.699,2.124-14.555c0.245-1.665,0.488-3.354,0.72-5.032
		c0.031-0.241,0.129-0.496-0.243-0.689c-0.099,0.225-0.21,0.438-0.268,0.682c-1.03,3.585-2.05,7.158-3.052,10.747
		c-0.661,2.354-1.321,4.71-1.993,7.053c-0.072,0.254-0.104,0.548-0.351,0.733c-0.053-0.027-0.092-0.042-0.119-0.042
		c-1.566-1.212-3.146-2.41-4.697-3.633c-0.253-0.205-0.491-0.452-0.729-0.673c0.157-0.387,0.295-0.706,0.45-1.04
		c1.881-4.567,3.775-9.122,5.657-13.688c0.213-0.521,0.423-1.013,0.606-1.535c0.226-0.643,0.031-0.982-0.705-1.143
		c-0.127,0.199-0.264,0.412-0.377,0.625c-2.434,4.679-4.868,9.357-7.305,14.035c-0.07,0.121-0.152,0.227-0.234,0.36
		c-0.039-0.068-0.052-0.108-0.064-0.151c-0.376-2.466-0.748-4.934-1.122-7.402c-0.072-0.458,0.042-0.885,0.305-1.271
		c0.359-0.532,0.73-1.051,1.077-1.597c1.271-1.913,2.541-3.829,3.798-5.756c0.305-0.399,0.553-0.798,0.804-1.224
		c0.152-0.281,0.115-0.535-0.216-0.797c-1.934,2.13-3.868,4.235-5.842,6.406c-0.038-0.147-0.051-0.188-0.048-0.242
		c0.121-1.599,0.28-6.223,0.924-6.816c0.26-0.226,0.494-0.474,0.737-0.688c0.74-0.66,1.463-1.306,2.201-1.965
		c0.288-0.251,0.331-0.479,0.2-0.696c-0.117-0.178-0.332-0.207-0.672-0.011c-0.72,0.378-1.441,0.781-2.16,1.186
		c-0.107,0.051-0.189,0.104-0.394,0.222c0.031-0.295,0.023-0.498,0.066-0.698c0.205-0.91,0.447-1.835,0.628-2.772
		c0.118-0.672,0.33-1.272,0.941-1.653c0.055-0.024,0.084-0.078,0.11-0.104c0.398-0.464,0.229-1.57-0.54-1.436
		c-0.202,0.038-0.365,0.169-0.477,0.329c-0.083,0.132-0.152,0.253-0.195,0.399c-0.127,0.361-0.241,0.735-0.33,1.137
		c-0.32,1.474-0.655,2.961-0.964,4.449c-0.41,1.93-0.808,3.847-1.231,5.763c-0.219,0.979-0.326,1.029-1.264,0.798
		c-1.77-0.435-3.535-0.869-5.29-1.316c-0.134-0.027-0.253-0.072-0.429-0.115c0.098-0.227,0.17-0.398,0.24-0.573
		c2.443-5.325,4.894-10.647,7.324-15.986c0.113-0.239,0.237-0.413,0.414-0.53c0.407-0.235,4.36-0.112,5.488-0.119l0.93-0.105
		c0.531,1.206,1.275,3.345,1.805,4.55c0.814,1.885,1.587,3.808,2.85,5.471c0.566,0.751,1.131,1.498,1.82,2.157
		c1.534,1.481,3.365,2.115,5.466,1.938c0.619-0.043,1.255-0.152,1.822-0.385c2.061-0.88,3.646-2.251,4.436-4.415
		c0.099-0.254,0.21-0.496,0.281-0.748c0.128-0.47,0.272-0.924,0.321-1.394c0.141-1.194,0.243-2.377,0.33-3.573
		c0.035-0.43,0.043-0.86-0.018-1.277c-0.183-1.119-0.485-2.229-0.965-3.272l2.052-1.979c0.172,0.178,0.317,0.327,0.463,0.478
		c1.899,2.077,3.869,4.089,5.756,6.18c1.202,1.327,2.431,2.599,3.645,3.91c2.204,2.339,4.422,4.717,6.642,7.072
		c1.161,1.229,2.324,2.459,3.475,3.704c2.243,2.407,4.515,4.813,6.758,7.22c1.189,1.258,2.364,2.527,3.552,3.787
		c2.244,2.379,4.479,4.746,6.723,7.125c2.588,2.734,5.19,5.482,7.778,8.246c0.291,0.3,0.54,0.642,0.817,0.957
		c-0.028,0.052-0.041,0.064-0.058,0.133c-0.12,0.012-0.228,0.036-0.349,0.047c-0.634,0.057-1.281,0.098-1.913,0.155
		c-0.391,0.032-0.796,0.16-1.186,0.142c-1.398-0.079-2.785,0.017-4.135,0.317c-0.864,0.2-1.467,0.096-1.982-0.52
		c-0.751-0.914-1.515-1.788-2.295-2.677c-1.753-1.98-3.494-3.947-5.248-5.929c-2.081-2.377-4.168-4.753-6.251-7.104
		c-1.055-1.201-2.124-2.418-3.179-3.62c-1.833-2.09-3.667-4.179-5.498-6.269c-1.255-1.435-2.521-2.855-3.785-4.303
		c-1.677-1.9-3.336-3.811-5.011-5.711c-0.079-0.081-0.16-0.162-0.239-0.246c-0.167,0.322-0.321,0.6-0.488,0.947
		c9.665,11.977,19.45,23.863,29.193,35.869c-0.216,0.023-0.337,0.034-0.459,0.047c-1.249-0.008-2.502-0.018-3.738-0.012
		c-1.345,0.004-2.703,0.021-4.063,0.037c-0.619,0.016-1.114-0.141-1.4-0.738c-0.024-0.081-0.075-0.162-0.129-0.244
		c-3.146-4.734-6.276-9.483-9.422-14.22C1033.839,903.727,1029.947,897.836,1026.041,891.957z"/>
	<path display="none" d="M979.007,904.224c0.556-1.888,1.103-3.761,1.659-5.648c0.029-0.134,0.101-0.253,0.172-0.454
		c1.434,0.2,2.854,0.387,4.32,0.587c-0.117,0.321-0.201,0.561-0.299,0.814c-0.776,2.071-1.564,4.13-2.301,6.214
		c-0.481,1.392-0.572,1.134,0.592,2.284c1.007,0.986,2.011,1.972,3.031,2.944c0.104,0.11,0.196,0.233,0.301,0.369
		c-1.619,1.144-3.215,2.258-4.793,3.358c-0.036-0.174,0.005-0.294,0.048-0.415c0.243-0.816,0.473-1.646,0.716-2.463
		c0.07-0.228,0.088-0.456-0.097-0.647c-0.41-0.423-0.806-0.833-1.255-1.299c-0.071,0.173-0.113,0.293-0.141,0.4
		c-0.687,2.194-1.396,4.388-2.08,6.581c-0.071,0.255-0.171,0.509-0.268,0.763c-0.241,0.626-0.731,0.941-1.375,0.903
		c-0.443-0.021-0.872-0.136-1.3-0.251c-1.245-0.357-1.995-1.353-2.935-2.271c0.31-0.008,0.539-0.045,0.755-0.041
		c0.498,0.023,0.994,0.072,1.505,0.054c0.93-0.026,1.284-0.315,1.515-1.197c0.288-1.151,0.592-2.317,0.883-3.468
		c0.145-0.615,0.303-1.246,0.461-1.875c-0.308-0.046-0.578-0.078-0.858-0.15c-0.333-0.073-0.579,0.002-0.744,0.352
		c-0.502,0.985-1.003,1.972-1.506,2.958c-0.054,0.108-0.109,0.187-0.235,0.386c-0.047-0.296-0.1-0.485-0.123-0.674
		c-0.229-1.523-0.444-3.035-0.659-4.545c-0.012-0.12-0.051-0.242-0.047-0.376c-0.031-0.525,0.093-0.752,0.567-0.972
		c0.246-0.159,0.556-0.273,0.868-0.336c0.768-0.163,1.537-0.323,2.32-0.443c0.525-0.085,0.88-0.373,1.092-0.843
		C978.879,904.639,978.95,904.437,979.007,904.224z"/>
	<path display="none" d="M998.842,868.334c-1.814,0.641-3.615,1.297-5.429,1.938c-0.096,0.036-0.229,0.063-0.38,0.101
		c-0.009-0.201-0.007-0.337-0.004-0.471c0.092-1.413,0.17-2.81,0.262-4.219c0.059-1.008,0.104-2.003,0.147-2.997
		c0.021-0.498,0.216-0.897,0.64-1.173c1.087-0.733,2.291-1.021,3.605-0.92c0.24,0.031,0.482,0.117,0.71,0.162
		c0.06,0.47,0.094,0.862,0.153,1.253c0.305,1.849,0.608,3.696,0.912,5.544c0.072,0.457,0.059,0.498-0.374,0.68
		C999.004,868.257,998.908,868.294,998.842,868.334z"/>
	<path display="none" d="M1007.403,875.557c2.743,0.818,5.459,1.604,8.189,2.406c0.041-0.096,0.11-0.161,0.137-0.241
		c0.283-0.749,0.554-1.51,0.834-2.259c0.099-0.255,0.063-0.43-0.136-0.607c-0.771-0.686-1.509-1.371-2.251-2.057
		c-1.471-1.33-2.898-2.675-4.37-4.004c-0.568-0.509-1.152-1.002-1.721-1.51c-0.681,0.42-0.819,0.687-0.466,1.297
		c1.146,2.038,0.763,4.075,0.027,6.134c-0.087,0.24-0.185,0.468-0.283,0.693C1007.338,875.438,1007.351,875.476,1007.403,875.557z
		 M1012.31,874.232c0.286-0.306,1.053-0.252,1.409,0.117c0.305,0.289,0.252,0.947-0.089,1.252c-0.341,0.302-1.015,0.263-1.358-0.091
		C1011.994,875.222,1012.021,874.536,1012.31,874.232z"/>
	<path display="none" d="M1006.826,870.113c0.496,1.611,0.214,3.919-0.646,5.358c-0.878,0.156-7.827,0.656-8.214,0.58
		c0.174-0.723,2.732-6.26,3.075-6.696c0.028,0,0.066-0.013,0.095-0.013c1.623,0.204,3.261,0.394,4.884,0.596
		C1006.316,869.998,1006.584,870.083,1006.826,870.113z"/>
	<path display="none" d="M1000.854,860.863c-0.278-0.178-0.586-0.332-0.852-0.551c-0.703-0.564-1.519-0.779-2.395-0.782
		c-0.674-0.012-1.345,0.058-2.021,0.126c-0.593,0.071-1.122,0.317-1.585,0.686c-0.53,0.406-1.102,0.774-1.66,1.155
		c-0.657-0.873-0.755-1.44-0.364-2.348c0.296-0.682,0.496-1.377,0.576-2.115c0.096-0.857,0.03-1.667-0.375-2.441
		c-0.117-0.229-0.287-0.406-0.379-0.639c-0.051-0.106-0.033-0.311,0.021-0.362c0.436-0.423,0.9-0.792,1.351-1.173
		c1.262,0.95,8.438,7.316,8.675,7.723c-0.137,0.187-0.274,0.399-0.427,0.598C1001.256,860.953,1001.08,860.99,1000.854,860.863z"/>
	<path display="none" d="M991.396,857.86c-0.002,0.109-0.016,0.229-0.048,0.419c-0.98-0.8-1.909-1.542-2.824-2.27
		c-0.359-0.291-0.359-0.291-0.727-0.04c-0.65,0.419-1.331,0.811-2.21,1.104c0.319-1.473,0.48-2.868,1.026-4.165
		c0.056-0.105,0.111-0.213,0.194-0.318c0.371-0.464,0.682-0.527,1.201-0.235c0.613,0.361,1.236,0.708,1.839,1.08
		c0.344,0.224,0.677,0.457,1.022,0.679c0.227,0.151,0.314,0.355,0.339,0.625C991.246,855.76,991.334,856.811,991.396,857.86z"/>
	<path display="none" d="M1015.002,883.317c-0.081-0.002-0.176,0.011-0.269-0.005c-1.213,0.033-2.422,0.065-3.621,0.086
		c-0.079-0.004-0.173-0.019-0.294-0.031c0.285-0.277,0.506-0.543,0.779-0.753c0.749-0.566,0.842-1.237,0.534-2.077
		c-0.31-0.84-0.576-1.691-0.858-2.529c-0.051-0.163-0.102-0.326-0.164-0.583c1.084,0.356,2.073,0.696,3.077,0.997
		c0.214,0.056,0.251,0.232,0.302,0.393c0.411,1.166,0.821,2.302,1.23,3.466C1015.947,883.065,1015.795,883.29,1015.002,883.317z"/>
	<path display="none" d="M963.99,890.753c0.218-0.078,0.434-0.181,0.651-0.258c2.273-0.795,4.546-1.56,6.818-2.357
		c0.067-0.01,0.122-0.063,0.231-0.115c0.016-0.122,0.017-0.257,0.021-0.391c-0.092-1.764-0.195-3.512-0.299-5.292
		c-0.063-1.049,0.007-1.167,0.954-1.555c7.005-2.904,14.022-5.821,21.014-8.739c1.721-0.709,3.413-1.42,5.135-2.131
		c0.015-0.013,0.041-0.011,0.054-0.024l0.039,0.12c-0.769,1.696-1.538,3.363-2.308,5.058c-3.147,6.899-6.307,13.812-9.468,20.695
		c-0.433,0.948-0.54,1.001-1.588,0.9c-1.76-0.178-3.519-0.329-5.278-0.479c-0.134-0.003-0.269-0.006-0.389,0.005
		c-0.057,0.108-0.085,0.16-0.125,0.228c-0.875,2.244-1.72,4.487-2.593,6.732c-0.085,0.214-0.184,0.414-0.281,0.641
		c-0.084,0.214-0.261,0.331-0.477,0.381c-0.326,0.077-1.615,0.053-2.018-0.061c0.07-0.176,0.128-0.335,0.184-0.495
		c0.8-1.881,1.588-3.778,2.386-5.662c0.113-0.292,0.279-0.586,0.179-0.91c-0.549-0.185-0.657-0.132-0.938,0.454
		c-0.947,1.892-1.896,3.787-2.83,5.693c-0.208,0.414-0.495,0.691-0.967,0.722c-0.62,0.044-1.24,0.088-1.844,0.144
		c-0.197-0.312-0.02-0.537,0.092-0.776c0.947-1.868,1.909-3.746,2.855-5.613c0.209-0.387,0.365-0.801,0.561-1.2
		c-0.524-0.022-0.553-0.023-0.747,0.321c-0.414,0.667-0.828,1.332-1.205,2.011c-0.859,1.518-1.721,3.035-2.581,4.555
		c-0.265,0.466-0.645,0.728-1.183,0.771c-1.078,0.117-3.592-0.021-4.679-0.081l-0.069,0.067c0-0.029,0.001-0.055-0.013-0.068
		c-0.027,0-0.053,0.001-0.066-0.016l0.068-0.065c-0.008-1.075-0.072-3.604,0.082-4.679c0.075-0.55,0.339-0.909,0.813-1.155
		c1.546-0.809,3.108-1.601,4.642-2.421c0.691-0.378,1.385-0.755,2.052-1.134c0.339-0.197,0.352-0.21,0.35-0.735
		c-0.421,0.168-0.827,0.321-1.222,0.518c-1.898,0.882-3.81,1.778-5.708,2.659c-0.231,0.114-0.463,0.287-0.78,0.064
		c0.076-0.603,0.142-1.22,0.206-1.84c0.049-0.47,0.337-0.746,0.756-0.938c1.938-0.867,3.864-1.75,5.79-2.63
		c0.582-0.274,0.638-0.38,0.487-0.919c-0.335-0.129-0.619,0.016-0.918,0.145c-1.921,0.718-3.833,1.453-5.742,2.187
		c-0.175,0.064-0.337,0.114-0.5,0.166c-0.087-0.419-0.077-1.697,0.008-2.019C963.648,891.003,963.746,890.828,963.99,890.753z"/>
	<path display="none" d="M956.625,885.096c-0.825,0.215-1.662,0.416-2.486,0.63c-0.121,0.037-0.23,0.061-0.418,0.033
		c1.156-1.54,2.327-3.093,3.524-4.674c0.134,0.11,0.251,0.207,0.358,0.315c0.95,1.04,1.901,2.078,2.839,3.129
		c1.106,1.203,0.854,1.106,2.259,0.673c2.111-0.663,4.195-1.379,6.29-2.082c0.258-0.091,0.5-0.167,0.826-0.269
		c0.15,1.468,0.286,2.895,0.435,4.338c-0.188,0.052-0.312,0.117-0.458,0.153c-1.906,0.492-3.799,0.97-5.702,1.462
		c-0.216,0.05-0.42,0.114-0.608,0.189c-0.475,0.194-0.777,0.541-0.879,1.061c-0.163,0.765-0.337,1.543-0.524,2.305
		c-0.073,0.309-0.2,0.617-0.339,0.91c-0.224,0.452-0.469,0.585-0.993,0.534c-0.121-0.017-0.252-0.045-0.375-0.061
		c-1.501-0.269-3.016-0.552-4.518-0.819c-0.187-0.03-0.374-0.088-0.67-0.146c0.188-0.103,0.285-0.169,0.395-0.22
		c1.004-0.468,1.993-0.948,3.01-1.401c0.325-0.156,0.423-0.384,0.377-0.733c-0.051-0.27-0.071-0.567-0.121-0.862
		c-0.635,0.134-1.255,0.259-1.89,0.396c-1.161,0.249-2.336,0.51-3.497,0.759c-0.891,0.201-1.206,0.531-1.249,1.473
		c-0.022,0.496,0.009,0.996,0,1.506c-0.003,0.215-0.034,0.456-0.067,0.753c-0.883-0.972-1.853-1.755-2.165-3.011
		c-0.102-0.432-0.2-0.864-0.206-1.309c-0.016-0.646,0.315-1.126,0.951-1.342c0.257-0.089,0.5-0.167,0.771-0.243
		c2.217-0.605,4.434-1.24,6.65-1.849c0.122-0.035,0.229-0.063,0.405-0.125c-0.476-0.52-0.871-0.93-1.281-1.354
		C957.082,885.022,956.854,885.033,956.625,885.096z"/>
	<path display="none" d="M948.272,797.982c2.656,2.695,5.3,5.378,7.968,8.061c2.302,2.327,4.587,4.64,6.902,6.953
		c1.216,1.232,2.443,2.451,3.661,3.684c2.325,2.325,4.651,4.68,6.977,7.008c1.19,1.203,2.382,2.408,3.584,3.599
		c2.285,2.313,4.56,4.612,6.859,6.912c1.256,1.272,2.497,2.532,3.782,3.778c2.022,1.959,3.979,3.983,5.974,5.969
		c0.146,0.15,0.291,0.301,0.463,0.479l-2.011,1.943c-1.027-0.517-2.124-0.859-3.236-1.08c-0.416-0.075-0.847-0.081-1.277-0.062
		c-1.197,0.046-2.396,0.118-3.58,0.206c-0.473,0.032-0.944,0.172-1.404,0.271c-0.258,0.063-0.502,0.168-0.755,0.257
		c-2.192,0.714-3.647,2.248-4.569,4.278c-0.253,0.56-0.384,1.19-0.448,1.807c-0.251,2.095,0.321,3.948,1.745,5.533
		c0.635,0.709,1.364,1.3,2.092,1.892c1.633,1.307,3.515,2.161,5.369,3.038c1.199,0.561,3.297,1.392,4.483,1.963l-0.136,0.925
		c-0.047,1.131-0.049,5.098-0.311,5.482c-0.111,0.161-0.303,0.291-0.547,0.396c-5.418,2.244-10.824,4.502-16.229,6.764
		c-0.179,0.063-0.366,0.142-0.583,0.219c-0.052-0.163-0.075-0.298-0.101-0.432c-0.372-1.782-0.758-3.551-1.129-5.334
		c-0.2-0.945-0.145-1.053,0.84-1.236c1.933-0.355,3.859-0.686,5.802-1.029c1.484-0.269,2.982-0.524,4.48-0.808
		c0.377-0.076,0.755-0.176,1.147-0.289c0.136-0.052,0.272-0.104,0.408-0.181c0.163-0.105,0.299-0.265,0.345-0.467
		c0.159-0.764-0.938-0.969-1.418-0.589c-0.04,0.04-0.094,0.065-0.107,0.105c-0.402,0.598-1.01,0.79-1.685,0.886
		c-0.943,0.145-1.849,0.358-2.795,0.528c-0.2,0.037-0.402,0.02-0.699,0.042c0.112-0.187,0.168-0.293,0.237-0.385
		c0.429-0.707,0.843-1.398,1.261-2.116c0.192-0.32,0.185-0.55,0.011-0.676c-0.213-0.135-0.441-0.099-0.701,0.178
		c-0.687,0.716-1.357,1.417-2.042,2.13c-0.232,0.252-0.493,0.476-0.711,0.714c-0.604,0.609-5.229,0.608-6.846,0.688
		c-0.067,0.013-0.094-0.017-0.241-0.06c2.225-1.883,4.41-3.754,6.608-5.613c-0.237-0.327-0.506-0.386-0.789-0.243
		c-0.422,0.223-0.843,0.47-1.237,0.719c-1.957,1.204-3.93,2.394-5.887,3.597c-0.544,0.341-1.087,0.679-1.631,1.021
		c-0.396,0.248-0.813,0.336-1.284,0.261c-2.451-0.461-4.905-0.92-7.359-1.382c-0.026,0.001-0.052-0.026-0.147-0.068
		c0.137-0.078,0.245-0.157,0.368-0.222c4.761-2.271,9.521-4.543,14.281-6.813c0.216-0.104,0.436-0.233,0.639-0.352
		c-0.148-0.73-0.467-0.951-1.117-0.745c-0.526,0.165-1.056,0.358-1.555,0.551c-4.631,1.722-9.248,3.456-13.878,5.178
		c-0.327,0.129-0.662,0.245-1.056,0.412c-0.213-0.246-0.462-0.479-0.646-0.752c-1.155-1.606-2.312-3.213-3.467-4.819
		c-0.026-0.03-0.026-0.056-0.037-0.124c0.192-0.239,0.489-0.259,0.743-0.322c2.366-0.592,4.743-1.169,7.119-1.747
		c3.605-0.892,7.242-1.78,10.85-2.673c0.229-0.063,0.445-0.168,0.689-0.246c-0.182-0.377-0.438-0.288-0.681-0.268
		c-1.686,0.174-3.37,0.348-5.056,0.544c-4.875,0.535-9.742,1.082-14.619,1.615c-0.028,0-0.069,0.013-0.096,0.013
		c-0.553,0.058-0.58,0.056-0.704-0.512c-0.446-2.159-0.879-4.331-1.338-6.56c0.202-0.009,0.377-0.02,0.565-0.016
		c3.604-0.019,7.195-0.022,10.814-0.026c3.726-0.003,7.449-0.005,11.189,0.006c0.135,0.003,0.283-0.008,0.472-0.032
		c0.03-0.186,0.062-0.375,0.105-0.604c-4.025-0.527-8.025-1.026-12.011-1.567c-3.985-0.54-8.001-0.92-11.971-1.58
		c-0.177-2.949-0.37-5.831-0.546-8.752c0.443-0.033,0.777,0.121,1.125,0.234c1.353,0.44,2.714,0.895,4.066,1.336
		c6.244,2.005,12.492,3.983,18.738,5.99c0.642,0.197,1.282,0.45,1.926,0.625c0.535,0.143,0.657,0.077,1.029-0.413
		c-0.161-0.083-0.319-0.168-0.466-0.236c-8.566-3.943-17.134-7.858-25.7-11.803c-0.239-0.111-0.479-0.249-0.722-0.335
		c-0.493-0.183-0.688-0.55-0.665-1.075c0.005-0.239,0.007-0.483-0.001-0.712c-0.09-2.584-0.192-5.153-0.294-7.751
		c0-0.135-0.05-0.271-0.101-0.514c0.335,0.18,0.508,0.277,0.707,0.375c0.813,0.432,1.57,0.943,2.426,1.335
		c0.614,0.28,1.17,0.666,1.758,1c0.226,0.124,0.479,0.221,0.692,0.36c0.491,0.317,0.97,0.648,1.464,0.966
		c0.664,0.417,1.343,0.793,2.01,1.207c0.426,0.25,0.838,0.539,1.25,0.801c0.065,0.042,0.104,0.082,0.172,0.123
		c1.184,0.682,2.383,1.373,3.555,2.067c1.291,0.763,2.557,1.55,3.847,2.314c3.143,1.856,6.299,3.7,9.44,5.557
		c1.396,0.817,2.781,1.65,4.179,2.467c0.135,0.084,0.279,0.181,0.442,0.212c0.158,0.027,0.321,0.004,0.469-0.007
		c0.015-0.039,0.028-0.081,0.057-0.134c-0.133-0.11-0.237-0.219-0.385-0.314c-5.738-4.11-11.492-8.205-17.229-12.313
		c-4.624-3.309-9.261-6.604-13.885-9.913c-0.078-0.056-0.146-0.097-0.238-0.139c-0.588-0.278-0.714-0.793-0.688-1.425
		c0.063-1.358,0.127-2.715,0.179-4.059c0.047-1.236,0.071-2.5,0.117-3.736c0.003-0.108,0.031-0.24,0.063-0.457
		c11.658,10.157,23.198,20.353,34.843,30.415c0.338-0.17,0.609-0.3,0.961-0.456c-0.078-0.081-0.157-0.162-0.235-0.245
		c-1.84-1.742-3.694-3.468-5.531-5.207c-1.391-1.304-2.767-2.619-4.168-3.935c-2.027-1.904-4.05-3.809-6.073-5.714
		c-1.166-1.096-2.343-2.206-3.508-3.303c-2.302-2.165-4.604-4.331-6.879-6.496c-1.921-1.821-3.824-3.631-5.743-5.452
		c-0.861-0.808-1.72-1.617-2.596-2.386c-0.597-0.508-0.68-1.114-0.448-1.998c0.359-1.353,0.491-2.722,0.46-4.121
		c-0.019-0.403,0.136-0.793,0.185-1.181c0.077-0.63,0.154-1.263,0.22-1.906c0.014-0.107,0.037-0.203,0.053-0.307
		c0.009-0.003,0.017-0.006,0.034-0.015C947.649,797.42,947.981,797.683,948.272,797.982z"/>
	<path display="none" d="M947.319,797.105c-0.003,0.013-0.005,0.027-0.008,0.042C947.296,797.152,947.294,797.148,947.319,797.105z"
		/>
</g>
</svg>
