<?xml version="1.0" encoding="utf-8"?>
<!-- Generator: Adobe Illustrator 16.0.3, SVG Export Plug-In . SVG Version: 6.00 Build 0)  -->
<!DOCTYPE svg PUBLIC "-//W3C//DTD SVG 1.1//EN" "http://www.w3.org/Graphics/SVG/1.1/DTD/svg11.dtd">
<svg version="1.1" id="Ebene_4" xmlns="http://www.w3.org/2000/svg" xmlns:xlink="http://www.w3.org/1999/xlink" x="0px" y="0px"
	 width="1417.32px" height="1417.32px" viewBox="0 0 1417.32 1417.32" enable-background="new 0 0 1417.32 1417.32"
	 xml:space="preserve">
<g>
	<path display="none" fill="none" d="M723.264,973.923c0.289,0.353,0.228,0.998,0.422,1.971c-1.152,1.008-2.484,2.169-4.671,4.077
		c-10.536-8.24-22.539-13.668-27.628-27.126c0.795-1.901,1.68-4.013,2.532-6.049C700.317,948.469,709.239,956.81,723.264,973.923z"
		/>
	<path display="none" d="M658.173,1087.123C654.55,1092.079,657.54,1087.707,658.173,1087.123L658.173,1087.123z"/>
	<path display="none" d="M510.995,371.218c0.394,0.376,0.326,1.231-0.12,1.624c-0.444,0.396-1.318,0.343-1.764-0.12
		c-0.359-0.375-0.324-1.266,0.051-1.661C509.537,370.666,510.531,370.738,510.995,371.218z"/>
	<path d="M127.82,184.514c-3.039,2.922-7.45,7.107-10.084,9.64c-4.125,3.967-19.655-12.186-19.655-12.186l-27.103,26.06
		l9.608,21.848l25.82,123.404l-17.355,16.688l23.607,28.744c0,0,94.107,98.515,106.897,111.817
		c13.405,4.808,22.112,22.959,23.591,24.5c26.891,27.988,97.709,101.654,97.709,101.654l11.364-10.925l24.909,25.906l-11.362,10.925
		l24.473,25.452l11.362-10.925l24.91,25.907l-11.363,10.925l24.911,25.906l11.362-10.925l24.473,25.451l-11.362,10.926
		l25.347,26.361l11.364-10.925l24.472,25.451l-11.362,10.926c0,0,15.241,15.85,24.472,25.452c4.446,2.052,25.86-3.568,33.58-7.169
		c7.194-2.734,14.248,1.417,14.67,16.87c-1.311,8.823-24.153,75.198-23.851,75.524c7.889,8.459,15.257,17.524,23.939,25.079
		c14.997,14.013,27.722,8.923,32.005,9.531c-0.434-3.528-4.043-13.011-4.043-13.011s31.962-4.506,36.355,0.958
		c0.471,0.586,3.283,3.317,4.027,3.562c10.838,3.57,15.763,13.477,21.694,22.699c0.976,1.515,2.561,2.775,4.114,3.759
		c7.968,5.041,13.896,12.221,17.679,20.433c2.695,5.864,3.409,13.015,3.497,19.609c0.093,7.135,0.784,17.546-2.505,21.732
		c-3.288,4.188-5.151,0.833-9.546,6.978c-0.321,14.472-10.616,14.711-12.967,18.847c-2.349,4.138-0.095,6.397-2.874,9.919
		c-2.779,3.519-10.019,0.407-15.548,8.026c-0.33,0.453-0.618,0.854-0.876,1.205c0.08-0.073,0.126-0.09,0.109-0.015
		c-1.715,8.886-8.037,14.565-14.589,19.638c-3.174,2.46-7.829,3.028-11.846,4.354c-0.725,0.241-1.605,0.007-2.415,0.008
		c-14.058,0.031-15.933,1.399-19.74,13.568c0.174,5.087,0.62,9.111,0.386,13.098c-0.672,11.518,5.658,19.153,13.955,25.639
		c6.269,4.906,14.081,6.501,21.367,9.162c4.749,1.733,9.701,2.902,14.465,4.595c11.08,3.939,22.099,8.043,32.684,11.914
		c13.771-1.694,26.32-5.061,38.177-11.447c3.122-6.016,5.391-12.372,6.784-19.332c3.203-15.998,9.573-30.883,17.945-44.953
		c5.438-9.143,9.926-18.773,12.784-29.12c1.516-5.495,3.872-10.292,9.748-13.06c3.108-1.464,5.384-5.008,7.608-7.938
		c1.761-2.318,2.867-5.132,4.099-7.412c0.829-5.605,2.052-10.854,2.26-16.145c0.205-5.201-0.618-10.446-1.004-15.848
		c6.075-2.556,10.615,0.246,15.089,3.272c3.091,2.09,9.208,6.367,9.208,6.367s4.737,3.507,6.769,5.592l31.357,32.546l26.94-12.432
		l20.548,19.173c0,0,2.551-0.249,3.605-0.911c5.867-3.672,17.41-11.316,17.41-11.316l12.323-3.531l5.541,5.682l-7.577,14.267
		l25.128,30.692c0,0-0.529,2.178-1.052,2.643c-12.695,11.251-33.456,36.487-33.456,36.487l5.201,15.41
		c0,0,10.384,20.709,10.737,22.8c-3.044,3.412-8.922,10.001-8.922,10.001s10.344,11.423,45.448,46.99
		c3.71-2.673,81.552-175.582,367.915-128.805c0.758-0.899,2.138-1.803,2.378-2.945c1.631-7.783,0.423-62.301-0.624-70.281
		c-9.834-4.459-29.447-6.999-29.447-6.999s0,0-11.061-19.808c-61.871-19.206-204.041,10.78-261.837,42.094
		c-7.329,3.753-17.23-6.454-17.23-6.454l-11.587-12.135l-5.753,5.446l-11.771-12.654l5.623-5.327l-12.731-13.056l5.188-5.136
		l0.085-5.183l20.755-19.957l1.945-36.64l27.937-16.734l-0.697-13.614l29.536-0.745l-1.184-76.966l-30.627-1.554l-0.514-13.509
		l-27.991-15.13l-0.099-22.912l-76.332-79.387l-17.568,6.512c0,0-20.5-14.398-29.331-21.645c-6.005-4.926-10.936-11.146-16.5-16.631
		c-7.478-7.377-13.947-15.497-19.383-24.496c-1.366-2.261-3.518-4.063-5.382-6.005c-49.667-51.705-155.001-161.392-155.001-161.392
		l14.103-14.711l-42.788-45.596c0,0,3.11-12.096,4.571-17.779c-0.777-0.974-1.267-2.088-2.12-2.583
		c-8.072-4.687-118.16-114.78-120.344-116.542c-3.447,0.969-6.019,1.711-8.602,2.418c-7.408,2.027-14.055,0.208-19.208-5.165
		c-4.976-5.189-73.087-69.718-121.904-117.121c-1.432-1.489-168.411-81.513-168.411-81.513s0,0-5.678,5.579
		c-3.868,3.6-19.397-12.553-19.397-12.553l-88.197,84.802C115.987,164.75,131.518,180.903,127.82,184.514z M693.918,946.796
		c6.399,1.673,15.321,10.014,29.346,27.127c0.289,0.353,0.228,0.998,0.422,1.971c-1.152,1.008-2.484,2.169-4.671,4.077
		c-10.536-8.24-22.539-13.668-27.628-27.126C692.182,950.943,693.066,948.832,693.918,946.796z M660.127,762.343
		c12.803-12.31,33.158-11.909,45.468,0.892c12.31,12.801,11.911,33.157-0.891,45.467c-12.803,12.311-33.159,11.909-45.468-0.892
		C646.928,795.009,647.326,774.652,660.127,762.343z M597.199,696.895c12.802-12.309,33.158-11.909,45.466,0.891
		c12.309,12.802,11.912,33.159-0.891,45.469c-12.803,12.309-33.159,11.91-45.467-0.894C584,729.56,584.397,709.204,597.199,696.895z
		 M535.509,632.622c12.803-12.309,33.159-11.909,45.467,0.892c12.308,12.802,11.91,33.158-0.892,45.467
		c-12.801,12.311-33.158,11.91-45.466-0.892C522.309,665.289,522.707,644.932,535.509,632.622z M473.452,568.083
		c12.803-12.309,33.159-11.91,45.468,0.891c12.309,12.802,11.91,33.159-0.892,45.468c-12.802,12.31-33.158,11.91-45.467-0.892
		C460.251,600.75,460.65,580.393,473.452,568.083z M360.648,203.37l-125.862-61.231l7.448-15.308l125.863,61.233L360.648,203.37z
		 M302.372,272.956L205.36,172.062l12.269-11.799l97.012,100.894L302.372,272.956z M481.351,344.848
		c0.292,0.197,0.409,0.462,0.438,0.813c0.043,1.329,0.156,2.695,0.236,4.062c-0.006,0.139-0.025,0.296-0.065,0.539
		c-1.273-1.037-2.478-2.006-3.666-2.956c-0.465-0.376-0.465-0.376-0.943-0.053c-0.851,0.542-1.733,1.049-2.878,1.429
		c0.423-1.914,0.633-3.729,1.349-5.411c0.072-0.139,0.144-0.277,0.253-0.415c0.483-0.603,0.887-0.682,1.561-0.301
		c0.796,0.47,1.609,0.923,2.385,1.409C480.47,344.251,480.899,344.558,481.351,344.848z M494.308,353.652
		c-0.362-0.235-0.76-0.435-1.103-0.722c-0.914-0.735-1.976-1.019-3.111-1.021c-0.875-0.018-1.75,0.069-2.626,0.159
		c-0.771,0.088-1.46,0.406-2.063,0.885c-0.692,0.529-1.436,1.003-2.164,1.497c-0.851-1.137-0.977-1.873-0.465-3.053
		c0.386-0.884,0.647-1.788,0.753-2.748c0.128-1.117,0.043-2.167-0.479-3.174c-0.151-0.301-0.375-0.532-0.491-0.832
		c-0.066-0.142-0.044-0.403,0.027-0.472c0.57-0.549,1.173-1.026,1.76-1.522c1.637,1.239,10.953,9.536,11.258,10.065
		c-0.181,0.241-0.362,0.518-0.559,0.776C494.831,353.766,494.603,353.815,494.308,353.652z M491.986,363.224
		c-0.104,0.033-0.229,0.082-0.317,0.134c-2.359,0.828-4.701,1.674-7.061,2.501c-0.123,0.05-0.298,0.081-0.493,0.129
		c-0.01-0.262-0.007-0.437-0.005-0.612c0.124-1.833,0.23-3.65,0.352-5.484c0.08-1.31,0.138-2.602,0.199-3.895
		c0.031-0.646,0.286-1.165,0.834-1.522c1.416-0.952,2.98-1.323,4.692-1.185c0.313,0.042,0.626,0.152,0.921,0.21
		c0.077,0.613,0.119,1.122,0.196,1.63c0.39,2.404,0.781,4.806,1.171,7.21C492.57,362.937,492.552,362.99,491.986,363.224z
		 M494.652,364.674c2.109,0.268,4.238,0.52,6.348,0.789c0.384,0.077,0.731,0.188,1.046,0.23c0.64,2.093,0.267,5.094-0.854,6.96
		c-1.141,0.205-10.176,0.831-10.68,0.734c0.227-0.94,3.569-8.131,4.018-8.698C494.563,364.689,494.618,364.673,494.652,364.674z
		 M513.419,375.918c-3.547-1.048-7.075-2.08-10.639-3.146c-0.067-0.106-0.085-0.16-0.048-0.194c0.128-0.293,0.256-0.588,0.367-0.901
		c0.962-2.675,1.47-5.321-0.018-7.973c-0.457-0.796-0.275-1.144,0.609-1.685c0.74,0.661,1.496,1.306,2.237,1.966
		c1.906,1.733,3.762,3.484,5.668,5.217c0.961,0.894,1.922,1.787,2.919,2.68c0.258,0.233,0.306,0.462,0.178,0.792
		c-0.369,0.972-0.721,1.962-1.09,2.934C513.564,375.711,513.476,375.797,513.419,375.918z M513.573,381.533
		c0.294,1.021,0.096,1.315-0.936,1.346c-0.106-0.001-0.227,0.014-0.351-0.006c-1.575,0.038-3.148,0.077-4.706,0.1
		c-0.104-0.003-0.226-0.023-0.383-0.042c0.375-0.36,0.661-0.705,1.016-0.977c0.976-0.734,1.098-1.605,0.7-2.697
		c-0.399-1.092-0.744-2.201-1.106-3.292c-0.066-0.21-0.132-0.422-0.214-0.755c1.409,0.464,2.693,0.911,3.996,1.302
		c0.279,0.076,0.328,0.305,0.395,0.515C512.512,378.54,513.044,380.021,513.573,381.533z M491.544,405.39
		c1.658-2.486,3.316-4.971,4.956-7.476c0.397-0.516,0.72-1.034,1.044-1.587c0.201-0.363,0.156-0.696-0.275-1.036
		c-2.52,2.764-5.038,5.496-7.611,8.313c-0.049-0.193-0.066-0.247-0.064-0.317c0.163-2.077,0.386-8.088,1.222-8.859
		c0.338-0.291,0.642-0.616,0.961-0.891c0.962-0.854,1.905-1.692,2.867-2.549c0.373-0.325,0.431-0.621,0.262-0.904
		c-0.153-0.23-0.43-0.27-0.874-0.017c-0.936,0.489-1.873,1.012-2.81,1.537c-0.141,0.065-0.247,0.134-0.514,0.287
		c0.043-0.385,0.03-0.648,0.088-0.908c0.269-1.184,0.588-2.384,0.823-3.604c0.156-0.871,0.434-1.651,1.23-2.143
		c0.071-0.034,0.108-0.104,0.144-0.138c0.517-0.601,0.301-2.04-0.699-1.866c-0.262,0.047-0.475,0.218-0.62,0.424
		c-0.107,0.172-0.198,0.328-0.255,0.52c-0.166,0.468-0.315,0.955-0.431,1.477c-0.422,1.917-0.863,3.849-1.266,5.781
		c-0.541,2.508-1.06,4.998-1.619,7.488c-0.287,1.27-0.428,1.337-1.646,1.034c-2.297-0.569-4.593-1.141-6.874-1.727
		c-0.172-0.038-0.327-0.094-0.555-0.15c0.127-0.296,0.219-0.521,0.312-0.748c3.197-6.913,6.391-13.826,9.57-20.759
		c0.146-0.312,0.309-0.535,0.537-0.689c0.531-0.304,5.669-0.133,7.137-0.139l1.209-0.134c0.687,1.57,1.646,4.352,2.333,5.92
		c1.053,2.452,2.053,4.954,3.689,7.12c0.733,0.975,1.465,1.952,2.357,2.808c1.992,1.928,4.369,2.76,7.103,2.535
		c0.805-0.055,1.629-0.194,2.369-0.495c2.681-1.138,4.744-2.916,5.779-5.727c0.127-0.331,0.275-0.643,0.368-0.973
		c0.169-0.609,0.355-1.199,0.419-1.809c0.188-1.553,0.323-3.089,0.442-4.644c0.043-0.558,0.057-1.119-0.021-1.661
		c-0.232-1.457-0.624-2.897-1.245-4.256l2.673-2.57c0.223,0.231,0.411,0.427,0.6,0.624c2.464,2.706,5.02,5.326,7.465,8.05
		c1.558,1.727,3.15,3.383,4.728,5.093c2.86,3.047,5.737,6.146,8.615,9.21c1.507,1.603,3.014,3.207,4.503,4.826
		c2.91,3.134,5.858,6.27,8.769,9.404c1.54,1.639,3.064,3.295,4.605,4.933c2.913,3.101,5.807,6.182,8.718,9.281
		c3.357,3.563,6.732,7.144,10.087,10.743c0.378,0.392,0.703,0.835,1.062,1.244c-0.035,0.07-0.054,0.086-0.073,0.174
		c-0.159,0.013-0.297,0.046-0.458,0.06c-0.823,0.071-1.663,0.125-2.486,0.196c-0.509,0.042-1.037,0.207-1.542,0.179
		c-1.816-0.104-3.62,0.019-5.376,0.403c-1.123,0.257-1.907,0.12-2.574-0.682c-0.974-1.188-1.966-2.329-2.974-3.485
		c-2.275-2.579-4.533-5.14-6.809-7.721c-2.703-3.096-5.403-6.191-8.106-9.251c-1.369-1.566-2.754-3.149-4.121-4.715
		c-2.377-2.721-4.755-5.444-7.132-8.165c-1.624-1.867-3.267-3.718-4.909-5.604c-2.171-2.474-4.327-4.964-6.498-7.437
		c-0.104-0.107-0.206-0.214-0.31-0.321c-0.218,0.415-0.417,0.779-0.635,1.229c12.529,15.598,25.216,31.078,37.848,46.711
		c-0.279,0.03-0.438,0.044-0.595,0.058c-1.625-0.014-3.25-0.028-4.859-0.025c-1.75,0.001-3.516,0.018-5.283,0.038
		c-0.804,0.019-1.447-0.187-1.818-0.964c-0.032-0.105-0.098-0.211-0.167-0.318c-4.076-6.165-8.134-12.346-12.21-18.512
		c-5.059-7.652-10.103-15.323-15.164-22.976c-0.117-0.195-0.254-0.338-0.39-0.514c-0.054,0.014-0.108,0.032-0.178,0.064
		c-0.004,0.211-0.061,0.437-0.029,0.613c0.029,0.21,0.167,0.389,0.251,0.583c0.995,1.854,2.006,3.693,3.004,5.549
		c2.261,4.171,4.504,8.359,6.765,12.53c0.927,1.714,1.892,3.393,2.819,5.107c0.86,1.573,1.688,3.146,2.513,4.719
		c0.051,0.089,0.103,0.142,0.153,0.23c0.323,0.549,0.662,1.115,0.983,1.663c0.506,0.884,0.962,1.785,1.468,2.669
		c0.372,0.671,0.797,1.292,1.185,1.947c0.171,0.283,0.286,0.616,0.437,0.917c0.404,0.778,0.88,1.521,1.215,2.333
		c0.451,1.109,1.092,2.137,1.615,3.213c0.119,0.23,0.235,0.495,0.454,0.936c-0.314-0.077-0.506-0.132-0.663-0.152
		c-3.335-0.259-6.704-0.516-10.057-0.757c-0.295-0.022-0.612-0.029-0.926-0.035c-0.683,0.004-1.149-0.268-1.363-0.918
		c-0.117-0.335-0.268-0.634-0.401-0.953c-4.709-11.318-9.383-22.635-14.092-33.955c-0.085-0.192-0.185-0.405-0.287-0.618
		c-0.638,0.478-0.746,0.616-0.584,1.319c0.209,0.859,0.492,1.688,0.719,2.531c2.304,8.211,4.574,16.421,6.878,24.632
		c0.489,1.793,1.031,3.57,1.539,5.346c0.131,0.457,0.297,0.917,0.251,1.474c-3.805-0.389-7.523-0.76-11.344-1.131
		c-0.649-5.172-0.95-10.405-1.476-15.627c-0.51-5.203-0.968-10.422-1.458-15.678c-0.299,0.047-0.544,0.078-0.79,0.107
		c-0.021,0.228-0.042,0.419-0.063,0.612c-0.183,4.839-0.347,9.697-0.531,14.538c-0.177,4.665-0.357,9.364-0.555,14.047
		c-0.004,0.244-0.045,0.489-0.049,0.734c-2.871-0.704-5.673-1.371-8.457-2.055c-0.731-0.188-0.749-0.207-0.629-0.939
		c0-0.036,0.018-0.088,0.019-0.123c0.931-6.311,1.875-12.604,2.803-18.917c0.322-2.162,0.645-4.357,0.95-6.539
		c0.042-0.314,0.17-0.644-0.314-0.898c-0.129,0.295-0.272,0.572-0.35,0.885c-1.351,4.661-2.683,9.302-3.999,13.963
		c-0.864,3.059-1.728,6.121-2.609,9.164c-0.096,0.33-0.138,0.713-0.456,0.952c-0.069-0.038-0.122-0.054-0.156-0.055
		c-2.032-1.579-4.083-3.14-6.098-4.737c-0.326-0.268-0.635-0.589-0.944-0.875c0.201-0.504,0.385-0.92,0.586-1.353
		c2.459-5.933,4.934-11.846,7.394-17.777c0.277-0.678,0.552-1.318,0.791-1.996c0.297-0.833,0.043-1.275-0.914-1.487
		c-0.163,0.259-0.343,0.537-0.488,0.812c-3.179,6.077-6.357,12.151-9.538,18.226c-0.09,0.157-0.197,0.294-0.306,0.467
		c-0.051-0.087-0.067-0.141-0.084-0.193c-0.479-3.21-0.958-6.419-1.436-9.629c-0.094-0.596,0.057-1.153,0.399-1.652
		C490.608,406.771,491.092,406.097,491.544,405.39z M459.943,412.831c0.318-0.204,0.723-0.354,1.127-0.433
		c0.999-0.207,2.001-0.416,3.019-0.571c0.684-0.108,1.146-0.483,1.42-1.09c0.109-0.243,0.203-0.504,0.278-0.782
		c0.73-2.451,1.441-4.885,2.171-7.336c0.04-0.174,0.129-0.331,0.221-0.591c1.867,0.265,3.715,0.51,5.616,0.775
		c-0.147,0.417-0.261,0.729-0.388,1.06c-1.016,2.689-2.045,5.363-3.008,8.07c-0.631,1.808-0.745,1.472,0.763,2.97
		c1.305,1.284,2.606,2.569,3.929,3.836c0.138,0.143,0.257,0.303,0.392,0.479c-2.108,1.48-4.183,2.925-6.239,4.354
		c-0.049-0.228,0.006-0.384,0.062-0.541c0.318-1.06,0.618-2.139,0.936-3.199c0.094-0.295,0.119-0.593-0.121-0.842
		c-0.531-0.552-1.046-1.088-1.628-1.693c-0.093,0.226-0.149,0.383-0.185,0.522c-0.896,2.85-1.826,5.7-2.721,8.549
		c-0.096,0.33-0.223,0.66-0.352,0.989c-0.312,0.816-0.95,1.222-1.788,1.172c-0.578-0.029-1.134-0.18-1.69-0.331
		c-1.619-0.469-2.588-1.765-3.807-2.96c0.401-0.009,0.702-0.056,0.98-0.051c0.646,0.03,1.292,0.096,1.957,0.073
		c1.207-0.028,1.67-0.403,1.971-1.551c0.379-1.498,0.776-3.01,1.156-4.507c0.19-0.8,0.398-1.618,0.608-2.434
		c-0.402-0.062-0.75-0.104-1.116-0.197c-0.435-0.096-0.751,0.002-0.971,0.454c-0.654,1.28-1.31,2.561-1.964,3.842
		c-0.073,0.139-0.144,0.242-0.306,0.501c-0.063-0.386-0.127-0.632-0.159-0.878c-0.292-1.981-0.569-3.945-0.846-5.909
		c-0.014-0.158-0.064-0.315-0.06-0.49C459.16,413.409,459.325,413.116,459.943,412.831z M445.802,393.021
		c0.059-0.295,0.184-0.521,0.5-0.619c0.283-0.1,0.565-0.233,0.847-0.333c2.957-1.027,5.914-2.017,8.871-3.042
		c0.087-0.018,0.159-0.086,0.3-0.152c0.021-0.158,0.025-0.332,0.028-0.506c-0.112-2.294-0.243-4.569-0.372-6.881
		c-0.078-1.366,0.013-1.521,1.246-2.02c9.114-3.756,18.245-7.529,27.342-11.303c2.239-0.917,4.442-1.834,6.68-2.753
		c0.019-0.017,0.053-0.017,0.071-0.034l0.05,0.159c-1.006,2.201-2.009,4.367-3.014,6.568c-4.109,8.959-8.238,17.936-12.365,26.878
		c-0.566,1.23-0.708,1.296-2.069,1.166c-2.285-0.238-4.571-0.44-6.859-0.642c-0.175-0.003-0.35-0.007-0.508,0.007
		c-0.073,0.139-0.108,0.209-0.163,0.295c-1.141,2.914-2.248,5.83-3.389,8.746c-0.11,0.276-0.239,0.537-0.366,0.832
		c-0.111,0.277-0.34,0.43-0.621,0.494c-0.423,0.098-2.102,0.065-2.622-0.086c0.09-0.226,0.165-0.434,0.239-0.643
		c1.045-2.445,2.074-4.908,3.119-7.353c0.147-0.382,0.363-0.763,0.231-1.184c-0.713-0.242-0.853-0.175-1.217,0.587
		c-1.238,2.459-2.475,4.918-3.694,7.394c-0.273,0.536-0.649,0.897-1.261,0.937c-0.806,0.055-1.611,0.108-2.398,0.18
		c-0.253-0.407-0.021-0.7,0.124-1.01c1.237-2.424,2.49-4.865,3.728-7.29c0.272-0.5,0.477-1.04,0.73-1.558
		c-0.681-0.031-0.715-0.032-0.968,0.418c-0.543,0.864-1.084,1.727-1.574,2.609c-1.123,1.972-2.246,3.943-3.366,5.915
		c-0.347,0.605-0.842,0.945-1.542,1.002c-1.401,0.146-4.667-0.039-6.083-0.12l-0.088,0.085c0-0.036,0-0.07-0.017-0.087
		c-0.033-0.001-0.069-0.001-0.086-0.019l0.088-0.086c-0.007-1.398-0.082-4.688,0.12-6.082c0.102-0.715,0.442-1.18,1.061-1.501
		c2.014-1.044,4.045-2.071,6.042-3.133c0.9-0.49,1.803-0.979,2.669-1.47c0.442-0.252,0.46-0.27,0.455-0.952
		c-0.545,0.217-1.074,0.417-1.586,0.667c-2.47,1.143-4.958,2.3-7.429,3.44c-0.3,0.151-0.603,0.371-1.014,0.084
		c0.102-0.784,0.186-1.586,0.272-2.391c0.065-0.609,0.44-0.971,0.986-1.221c2.522-1.122,5.028-2.263,7.533-3.402
		c0.759-0.352,0.831-0.49,0.635-1.193c-0.433-0.167-0.804,0.019-1.192,0.186c-2.502,0.93-4.985,1.878-7.47,2.826
		c-0.228,0.083-0.438,0.148-0.65,0.215C445.671,395.1,445.686,393.439,445.802,393.021z M439.24,386.948
		c-0.616-0.678-1.13-1.212-1.662-1.764c-0.24-0.25-0.537-0.238-0.837-0.156c-1.071,0.275-2.16,0.534-3.233,0.81
		c-0.158,0.05-0.299,0.083-0.542,0.042c1.507-1.998,3.033-4.014,4.596-6.064c0.17,0.143,0.325,0.268,0.462,0.411
		c1.233,1.353,2.464,2.706,3.681,4.076c1.437,1.568,1.107,1.438,2.938,0.879c2.745-0.855,5.455-1.781,8.184-2.688
		c0.332-0.117,0.651-0.216,1.072-0.346c0.19,1.908,0.362,3.765,0.554,5.64c-0.246,0.065-0.403,0.15-0.598,0.198
		c-2.478,0.634-4.938,1.25-7.417,1.883c-0.28,0.064-0.544,0.147-0.791,0.248c-0.618,0.25-1.011,0.697-1.146,1.375
		c-0.213,0.994-0.442,2.002-0.688,2.995c-0.095,0.4-0.261,0.799-0.443,1.181c-0.292,0.59-0.608,0.758-1.29,0.692
		c-0.158-0.021-0.332-0.058-0.488-0.079c-1.953-0.354-3.922-0.725-5.871-1.077c-0.245-0.042-0.49-0.116-0.873-0.193
		c0.249-0.135,0.373-0.22,0.513-0.288c1.308-0.603,2.593-1.226,3.918-1.813c0.424-0.2,0.552-0.496,0.491-0.951
		c-0.064-0.351-0.09-0.735-0.154-1.123c-0.825,0.177-1.633,0.336-2.458,0.512c-1.509,0.319-3.037,0.656-4.548,0.977
		c-1.158,0.257-1.569,0.686-1.628,1.909c-0.029,0.646,0.01,1.295-0.002,1.959c-0.005,0.279-0.047,0.594-0.088,0.978
		c-1.149-1.264-2.403-2.286-2.81-3.919c-0.129-0.562-0.257-1.125-0.264-1.704c-0.017-0.837,0.414-1.458,1.241-1.74
		c0.334-0.116,0.651-0.216,1.003-0.313c2.882-0.784,5.766-1.601,8.651-2.384C438.871,387.063,439.012,387.031,439.24,386.948z
		 M424.893,270.615c-0.001,0.019-0.008,0.036-0.009,0.053c0.009-0.003,0.019-0.006,0.042-0.017c0.396,0.375,0.826,0.716,1.201,1.107
		c3.447,3.511,6.875,7.006,10.339,10.5c2.983,3.032,5.949,6.046,8.95,9.059c1.578,1.604,3.172,3.192,4.75,4.798
		c3.018,3.03,6.035,6.097,9.054,9.13c1.542,1.568,3.085,3.137,4.647,4.689c2.964,3.014,5.914,6.009,8.897,9.005
		c1.628,1.659,3.24,3.298,4.904,4.922c2.626,2.554,5.163,5.191,7.751,7.775c0.189,0.198,0.378,0.394,0.601,0.625l-2.618,2.52
		c-1.334-0.675-2.761-1.123-4.206-1.413c-0.539-0.098-1.099-0.109-1.658-0.085c-1.559,0.056-3.118,0.148-4.658,0.258
		c-0.614,0.04-1.229,0.221-1.826,0.35c-0.335,0.08-0.651,0.214-0.985,0.329c-2.851,0.923-4.744,2.916-5.949,5.549
		c-0.33,0.728-0.501,1.547-0.588,2.349c-0.333,2.722,0.408,5.131,2.254,7.195c0.822,0.925,1.769,1.697,2.715,2.466
		c2.116,1.703,4.561,2.819,6.969,3.966c1.558,0.73,4.283,1.815,5.825,2.563l-0.18,1.204c-0.066,1.467-0.08,6.625-0.421,7.125
		c-0.145,0.207-0.391,0.376-0.708,0.509c-7.054,2.905-14.086,5.828-21.121,8.75c-0.228,0.083-0.474,0.183-0.758,0.283
		c-0.064-0.211-0.096-0.387-0.127-0.562c-0.478-2.317-0.976-4.617-1.455-6.936c-0.256-1.229-0.183-1.367,1.098-1.604
		c2.509-0.458,5.019-0.883,7.544-1.322c1.931-0.346,3.878-0.675,5.826-1.039c0.49-0.096,0.983-0.225,1.493-0.374
		c0.176-0.066,0.352-0.133,0.53-0.235c0.212-0.136,0.39-0.341,0.448-0.603c0.212-0.993-1.216-1.266-1.838-0.77
		c-0.053,0.05-0.124,0.084-0.143,0.136c-0.522,0.777-1.313,1.024-2.191,1.147c-1.227,0.185-2.404,0.46-3.631,0.681
		c-0.264,0.047-0.524,0.024-0.911,0.052c0.145-0.242,0.217-0.38,0.307-0.5c0.56-0.918,1.102-1.814,1.645-2.749
		c0.252-0.415,0.241-0.713,0.019-0.875c-0.277-0.181-0.575-0.133-0.917,0.226c-0.889,0.927-1.766,1.837-2.658,2.764
		c-0.304,0.327-0.642,0.618-0.927,0.927c-0.786,0.788-6.8,0.776-8.9,0.874c-0.087,0.016-0.122-0.021-0.313-0.076
		c2.898-2.443,5.743-4.87,8.606-7.28c-0.306-0.425-0.656-0.501-1.026-0.317c-0.549,0.285-1.097,0.607-1.61,0.931
		c-2.547,1.557-5.113,3.099-7.661,4.658c-0.709,0.441-1.417,0.881-2.125,1.321c-0.513,0.323-1.057,0.436-1.668,0.336
		c-3.188-0.604-6.376-1.209-9.563-1.814c-0.035,0-0.069-0.036-0.191-0.09c0.177-0.103,0.318-0.206,0.478-0.29
		c6.195-2.938,12.391-5.876,18.584-8.815c0.284-0.135,0.567-0.303,0.831-0.456c-0.19-0.947-0.605-1.236-1.45-0.973
		c-0.686,0.213-1.372,0.463-2.024,0.713c-6.023,2.224-12.03,4.468-18.053,6.692c-0.423,0.167-0.864,0.314-1.376,0.533
		c-0.271-0.32-0.6-0.624-0.836-0.979c-1.499-2.092-2.997-4.185-4.494-6.278c-0.034-0.036-0.032-0.071-0.049-0.158
		c0.251-0.31,0.636-0.336,0.97-0.417c3.075-0.762,6.169-1.505,9.258-2.25c4.692-1.149,9.418-2.298,14.11-3.447
		c0.299-0.083,0.583-0.216,0.897-0.315c-0.234-0.494-0.568-0.378-0.884-0.349c-2.19,0.219-4.381,0.438-6.572,0.692
		c-6.342,0.681-12.668,1.378-19.011,2.058c-0.035,0-0.088,0.015-0.124,0.015c-0.718,0.072-0.751,0.073-0.913-0.665
		c-0.575-2.81-1.132-5.635-1.721-8.532c0.262-0.014,0.49-0.025,0.735-0.02c4.687-0.013,9.355-0.009,14.058-0.004
		c4.844,0.007,9.686,0.014,14.547,0.041c0.174,0.002,0.367-0.012,0.612-0.042c0.041-0.242,0.081-0.486,0.139-0.782
		c-5.232-0.698-10.43-1.36-15.608-2.072c-5.18-0.714-10.398-1.219-15.557-2.089c-0.22-3.835-0.462-7.581-0.685-11.379
		c0.578-0.042,1.011,0.16,1.462,0.309c1.756,0.576,3.526,1.171,5.281,1.747c8.114,2.625,16.229,5.214,24.343,7.838
		c0.835,0.262,1.668,0.594,2.502,0.82c0.696,0.187,0.855,0.103,1.341-0.535c-0.21-0.108-0.417-0.218-0.606-0.309
		c-11.126-5.148-22.251-10.264-33.375-15.413c-0.313-0.146-0.625-0.328-0.936-0.438c-0.643-0.24-0.895-0.717-0.864-1.398
		c0.004-0.314,0.011-0.629,0-0.927c-0.108-3.358-0.235-6.701-0.361-10.078c0.003-0.174-0.063-0.351-0.128-0.667
		c0.434,0.236,0.66,0.364,0.919,0.491c1.055,0.562,2.038,1.228,3.147,1.74c0.797,0.365,1.523,0.869,2.283,1.303
		c0.295,0.163,0.624,0.293,0.9,0.473c0.638,0.414,1.26,0.847,1.899,1.261c0.863,0.543,1.745,1.031,2.608,1.573
		c0.555,0.327,1.088,0.704,1.624,1.046c0.086,0.054,0.138,0.108,0.225,0.162c1.537,0.886,3.094,1.792,4.615,2.696
		c1.677,0.995,3.319,2.023,4.993,3.018c4.08,2.422,8.178,4.83,12.256,7.252c1.816,1.068,3.612,2.152,5.428,3.219
		c0.173,0.108,0.363,0.234,0.572,0.273c0.21,0.039,0.419,0.007,0.612-0.005c0.018-0.052,0.038-0.105,0.073-0.174
		c-0.173-0.145-0.309-0.286-0.5-0.413c-7.448-5.356-14.916-10.696-22.363-16.053c-6-4.314-12.018-8.611-18.021-12.926
		c-0.102-0.071-0.189-0.126-0.309-0.18c-0.764-0.365-0.925-1.033-0.892-1.854c0.087-1.765,0.175-3.528,0.244-5.275
		c0.066-1.608,0.098-3.252,0.166-4.858c0.002-0.14,0.042-0.314,0.082-0.594c15.128,13.235,30.096,26.522,45.208,39.635
		c0.443-0.219,0.796-0.387,1.255-0.587c-0.103-0.108-0.207-0.214-0.309-0.321c-2.386-2.268-4.79-4.518-7.175-6.785
		c-1.803-1.696-3.587-3.41-5.408-5.124c-2.628-2.482-5.253-4.964-7.881-7.446c-1.511-1.428-3.038-2.875-4.549-4.304
		c-2.987-2.822-5.973-5.643-8.925-8.463c-2.489-2.373-4.962-4.73-7.451-7.104c-1.115-1.054-2.23-2.108-3.365-3.109
		c-0.776-0.663-0.881-1.451-0.58-2.6c0.472-1.757,0.648-3.536,0.614-5.355c-0.026-0.525,0.176-1.027,0.239-1.534
		c0.103-0.82,0.208-1.641,0.294-2.478c0.017-0.139,0.048-0.263,0.069-0.4C424.862,270.677,424.857,270.671,424.893,270.615z
		 M252.515,320.894L155.503,220l12.27-11.799l97.012,100.894L252.515,320.894z M119.895,241.548l16.661-3.497l28.749,136.986
		l-16.661,3.494L119.895,241.548z"/>
	
		<rect x="190.017" y="208.099" transform="matrix(-0.6931 -0.7208 0.7208 -0.6931 284.0676 554.1603)" display="none" fill="#FFFFFF" width="139.968" height="17.021"/>
	
		<rect x="140.16" y="256.036" transform="matrix(-0.6931 -0.7208 0.7208 -0.6931 165.1003 599.3859)" display="none" fill="#FFFFFF" width="139.967" height="17.022"/>
	
		<rect x="231.457" y="156.589" transform="matrix(-0.8992 -0.4375 0.4375 -0.8992 500.2777 445.438)" display="none" fill="#FFFFFF" width="139.968" height="17.023"/>
	
		<rect x="134.088" y="238.309" transform="matrix(0.9787 -0.2052 0.2052 0.9787 -60.2342 35.8271)" display="none" fill="#FFFFFF" width="17.023" height="139.967"/>
	<circle display="none" fill="#FFFFFF" cx="619.486" cy="720.073" r="32.156"/>
	<circle display="none" fill="#FFFFFF" cx="557.797" cy="655.802" r="32.156"/>
	<circle display="none" fill="#FFFFFF" cx="495.74" cy="591.263" r="32.157"/>
	<circle display="none" fill="#FFFFFF" cx="682.416" cy="785.522" r="32.156"/>
	<path display="none" d="M497.544,396.327c0.201-0.363,0.156-0.696-0.275-1.036c-2.52,2.764-5.038,5.496-7.611,8.313
		c-0.049-0.193-0.066-0.247-0.064-0.317c0.163-2.077,0.386-8.088,1.222-8.859c0.338-0.291,0.642-0.616,0.961-0.891
		c0.962-0.854,1.905-1.692,2.867-2.549c0.373-0.325,0.431-0.621,0.262-0.904c-0.153-0.23-0.43-0.27-0.874-0.017
		c-0.936,0.489-1.873,1.012-2.81,1.537c-0.141,0.065-0.247,0.134-0.514,0.287c0.043-0.385,0.03-0.648,0.088-0.908
		c0.269-1.184,0.588-2.384,0.823-3.604c0.156-0.871,0.434-1.651,1.23-2.143c0.071-0.034,0.108-0.104,0.144-0.138
		c0.517-0.601,0.301-2.04-0.699-1.866c-0.262,0.047-0.475,0.218-0.62,0.424c-0.107,0.172-0.198,0.328-0.255,0.52
		c-0.166,0.468-0.315,0.955-0.431,1.477c-0.422,1.917-0.863,3.849-1.266,5.781c-0.541,2.508-1.06,4.998-1.619,7.488
		c-0.287,1.27-0.428,1.337-1.646,1.034c-2.297-0.569-4.593-1.141-6.874-1.727c-0.172-0.038-0.327-0.094-0.555-0.15
		c0.127-0.296,0.219-0.521,0.312-0.748c3.197-6.913,6.391-13.826,9.57-20.759c0.146-0.312,0.309-0.535,0.537-0.689
		c0.531-0.304,5.669-0.133,7.137-0.139l1.209-0.134c0.687,1.57,1.646,4.352,2.333,5.92c1.053,2.452,2.053,4.954,3.689,7.12
		c0.733,0.975,1.465,1.952,2.357,2.808c1.992,1.928,4.369,2.76,7.103,2.535c0.805-0.055,1.629-0.194,2.369-0.495
		c2.681-1.138,4.744-2.916,5.779-5.727c0.127-0.331,0.275-0.643,0.368-0.973c0.169-0.609,0.355-1.199,0.419-1.809
		c0.188-1.553,0.323-3.089,0.442-4.644c0.043-0.558,0.057-1.119-0.021-1.661c-0.232-1.457-0.624-2.897-1.245-4.256l2.673-2.57
		c0.223,0.231,0.411,0.427,0.6,0.624c2.464,2.706,5.02,5.326,7.465,8.05c1.558,1.727,3.15,3.383,4.728,5.093
		c2.86,3.047,5.737,6.146,8.615,9.21c1.507,1.603,3.014,3.207,4.503,4.826c2.91,3.134,5.858,6.27,8.769,9.404
		c1.54,1.639,3.064,3.295,4.605,4.933c2.913,3.101,5.807,6.182,8.718,9.281c3.357,3.563,6.732,7.144,10.087,10.743
		c0.378,0.392,0.703,0.835,1.062,1.244c-0.035,0.07-0.054,0.086-0.073,0.174c-0.159,0.013-0.297,0.046-0.458,0.06
		c-0.823,0.071-1.663,0.125-2.486,0.196c-0.509,0.042-1.037,0.207-1.542,0.179c-1.816-0.104-3.62,0.019-5.376,0.403
		c-1.123,0.257-1.907,0.12-2.574-0.682c-0.974-1.188-1.966-2.329-2.974-3.485c-2.275-2.579-4.533-5.14-6.809-7.721
		c-2.703-3.096-5.403-6.191-8.106-9.251c-1.369-1.566-2.754-3.149-4.121-4.715c-2.377-2.721-4.755-5.444-7.132-8.165
		c-1.624-1.867-3.267-3.718-4.909-5.604c-2.171-2.474-4.327-4.964-6.498-7.437c-0.104-0.107-0.206-0.214-0.31-0.321
		c-0.218,0.415-0.417,0.779-0.635,1.229c12.529,15.598,25.216,31.078,37.848,46.711c-0.279,0.03-0.438,0.044-0.595,0.058
		c-1.625-0.014-3.25-0.028-4.859-0.025c-1.75,0.001-3.516,0.018-5.283,0.038c-0.804,0.019-1.447-0.187-1.818-0.964
		c-0.032-0.105-0.098-0.211-0.167-0.318c-4.076-6.165-8.134-12.346-12.21-18.512c-5.059-7.652-10.103-15.323-15.164-22.976
		c-0.117-0.195-0.254-0.338-0.39-0.514c-0.054,0.014-0.108,0.032-0.178,0.064c-0.004,0.211-0.061,0.437-0.029,0.613
		c0.029,0.21,0.167,0.389,0.251,0.583c0.995,1.854,2.006,3.693,3.004,5.549c2.261,4.171,4.504,8.359,6.765,12.53
		c0.927,1.714,1.892,3.393,2.819,5.107c0.86,1.573,1.688,3.146,2.513,4.719c0.051,0.089,0.103,0.142,0.153,0.23
		c0.323,0.549,0.662,1.115,0.983,1.663c0.506,0.884,0.962,1.785,1.468,2.669c0.372,0.671,0.797,1.292,1.185,1.947
		c0.171,0.283,0.286,0.616,0.437,0.917c0.404,0.778,0.88,1.521,1.215,2.333c0.451,1.109,1.092,2.137,1.615,3.213
		c0.119,0.23,0.235,0.495,0.454,0.936c-0.314-0.077-0.506-0.132-0.663-0.152c-3.335-0.259-6.704-0.516-10.057-0.757
		c-0.295-0.022-0.612-0.029-0.926-0.035c-0.683,0.004-1.149-0.268-1.363-0.918c-0.117-0.335-0.268-0.634-0.401-0.953
		c-4.709-11.318-9.383-22.635-14.092-33.955c-0.085-0.192-0.185-0.405-0.287-0.618c-0.638,0.478-0.746,0.616-0.584,1.319
		c0.209,0.859,0.492,1.688,0.719,2.531c2.304,8.211,4.574,16.421,6.878,24.632c0.489,1.793,1.031,3.57,1.539,5.346
		c0.131,0.457,0.297,0.917,0.251,1.474c-3.805-0.389-7.523-0.76-11.344-1.131c-0.649-5.172-0.95-10.405-1.476-15.627
		c-0.51-5.203-0.968-10.422-1.458-15.678c-0.299,0.047-0.544,0.078-0.79,0.107c-0.021,0.228-0.042,0.419-0.063,0.612
		c-0.183,4.839-0.347,9.697-0.531,14.538c-0.177,4.665-0.357,9.364-0.555,14.047c-0.004,0.244-0.045,0.489-0.049,0.734
		c-2.871-0.704-5.673-1.371-8.457-2.055c-0.731-0.188-0.749-0.207-0.629-0.939c0-0.036,0.018-0.088,0.019-0.123
		c0.931-6.311,1.875-12.604,2.803-18.917c0.322-2.162,0.645-4.357,0.95-6.539c0.042-0.314,0.17-0.644-0.314-0.898
		c-0.129,0.295-0.272,0.572-0.35,0.885c-1.351,4.661-2.683,9.302-3.999,13.963c-0.864,3.059-1.728,6.121-2.609,9.164
		c-0.096,0.33-0.138,0.713-0.456,0.952c-0.069-0.038-0.122-0.054-0.156-0.055c-2.032-1.579-4.083-3.14-6.098-4.737
		c-0.326-0.268-0.635-0.589-0.944-0.875c0.201-0.504,0.385-0.92,0.586-1.353c2.459-5.933,4.934-11.846,7.394-17.777
		c0.277-0.678,0.552-1.318,0.791-1.996c0.297-0.833,0.043-1.275-0.914-1.487c-0.163,0.259-0.343,0.537-0.488,0.812
		c-3.179,6.077-6.357,12.151-9.538,18.226c-0.09,0.157-0.197,0.294-0.306,0.467c-0.051-0.087-0.067-0.141-0.084-0.193
		c-0.479-3.21-0.958-6.419-1.436-9.629c-0.094-0.596,0.057-1.153,0.399-1.652c0.468-0.69,0.952-1.364,1.403-2.071
		c1.658-2.486,3.316-4.971,4.956-7.476C496.897,397.399,497.219,396.88,497.544,396.327z"/>
	<path display="none" d="M461.07,412.398c0.999-0.207,2.001-0.416,3.019-0.571c0.684-0.108,1.146-0.483,1.42-1.09
		c0.109-0.243,0.203-0.504,0.278-0.782c0.73-2.451,1.441-4.885,2.171-7.336c0.04-0.174,0.129-0.331,0.221-0.591
		c1.867,0.265,3.715,0.51,5.616,0.775c-0.147,0.417-0.261,0.729-0.388,1.06c-1.016,2.689-2.045,5.363-3.008,8.07
		c-0.631,1.808-0.745,1.472,0.763,2.97c1.305,1.284,2.606,2.569,3.929,3.836c0.138,0.143,0.257,0.303,0.392,0.479
		c-2.108,1.48-4.183,2.925-6.239,4.354c-0.049-0.228,0.006-0.384,0.062-0.541c0.318-1.06,0.618-2.139,0.936-3.199
		c0.094-0.295,0.119-0.593-0.121-0.842c-0.531-0.552-1.046-1.088-1.628-1.693c-0.093,0.226-0.149,0.383-0.185,0.522
		c-0.896,2.85-1.826,5.7-2.721,8.549c-0.096,0.33-0.223,0.66-0.352,0.989c-0.312,0.816-0.95,1.222-1.788,1.172
		c-0.578-0.029-1.134-0.18-1.69-0.331c-1.619-0.469-2.588-1.765-3.807-2.96c0.401-0.009,0.702-0.056,0.98-0.051
		c0.646,0.03,1.292,0.096,1.957,0.073c1.207-0.028,1.67-0.403,1.971-1.551c0.379-1.498,0.776-3.01,1.156-4.507
		c0.19-0.8,0.398-1.618,0.608-2.434c-0.402-0.062-0.75-0.104-1.116-0.197c-0.435-0.096-0.751,0.002-0.971,0.454
		c-0.654,1.28-1.31,2.561-1.964,3.842c-0.073,0.139-0.144,0.242-0.306,0.501c-0.063-0.386-0.127-0.632-0.159-0.878
		c-0.292-1.981-0.569-3.945-0.846-5.909c-0.014-0.158-0.064-0.315-0.06-0.49c-0.041-0.684,0.125-0.977,0.742-1.262
		C460.261,412.627,460.666,412.477,461.07,412.398z"/>
	<path display="none" d="M491.669,363.357c-2.359,0.828-4.701,1.674-7.061,2.501c-0.123,0.05-0.298,0.081-0.493,0.129
		c-0.01-0.262-0.007-0.437-0.005-0.612c0.124-1.833,0.23-3.65,0.352-5.484c0.08-1.31,0.138-2.602,0.199-3.895
		c0.031-0.646,0.286-1.165,0.834-1.522c1.416-0.952,2.98-1.323,4.692-1.185c0.313,0.042,0.626,0.152,0.921,0.21
		c0.077,0.613,0.119,1.122,0.196,1.63c0.39,2.404,0.781,4.806,1.171,7.21c0.092,0.596,0.074,0.649-0.491,0.883
		C491.883,363.256,491.758,363.305,491.669,363.357z"/>
	<path display="none" d="M502.78,372.771c3.564,1.067,7.092,2.098,10.639,3.146c0.057-0.121,0.145-0.207,0.182-0.311
		c0.369-0.971,0.721-1.962,1.09-2.934c0.128-0.33,0.081-0.558-0.178-0.792c-0.997-0.893-1.958-1.787-2.919-2.68
		c-1.906-1.733-3.762-3.484-5.668-5.217c-0.741-0.661-1.497-1.305-2.237-1.966c-0.884,0.542-1.065,0.889-0.609,1.685
		c1.488,2.651,0.979,5.298,0.018,7.973c-0.11,0.313-0.239,0.608-0.367,0.901C502.695,372.612,502.713,372.666,502.78,372.771z
		 M509.162,371.062c0.375-0.396,1.369-0.324,1.833,0.157c0.394,0.376,0.326,1.231-0.12,1.624c-0.444,0.396-1.318,0.343-1.764-0.12
		C508.751,372.347,508.787,371.456,509.162,371.062z"/>
	<path display="none" d="M502.046,365.693c0.64,2.093,0.267,5.094-0.854,6.96c-1.141,0.205-10.176,0.831-10.68,0.734
		c0.227-0.94,3.569-8.131,4.018-8.698c0.033,0,0.088-0.017,0.123-0.016c2.109,0.268,4.238,0.52,6.348,0.789
		C501.384,365.541,501.731,365.651,502.046,365.693z"/>
	<path display="none" d="M494.308,353.652c-0.362-0.235-0.76-0.435-1.103-0.722c-0.914-0.735-1.976-1.019-3.111-1.021
		c-0.875-0.018-1.75,0.069-2.626,0.159c-0.771,0.088-1.46,0.406-2.063,0.885c-0.692,0.529-1.436,1.003-2.164,1.497
		c-0.851-1.137-0.977-1.873-0.465-3.053c0.386-0.884,0.647-1.788,0.753-2.748c0.128-1.117,0.043-2.167-0.479-3.174
		c-0.151-0.301-0.375-0.532-0.491-0.832c-0.066-0.142-0.044-0.403,0.027-0.472c0.57-0.549,1.173-1.026,1.76-1.522
		c1.637,1.239,10.953,9.536,11.258,10.065c-0.181,0.241-0.362,0.518-0.559,0.776C494.831,353.766,494.603,353.815,494.308,353.652z"
		/>
	<path display="none" d="M482.025,349.722c-0.006,0.139-0.025,0.296-0.065,0.539c-1.273-1.037-2.478-2.006-3.666-2.956
		c-0.465-0.376-0.465-0.376-0.943-0.053c-0.851,0.542-1.733,1.049-2.878,1.429c0.423-1.914,0.633-3.729,1.349-5.411
		c0.072-0.139,0.144-0.277,0.253-0.415c0.483-0.603,0.887-0.682,1.561-0.301c0.796,0.47,1.609,0.923,2.385,1.409
		c0.451,0.289,0.88,0.595,1.332,0.885c0.292,0.197,0.409,0.462,0.438,0.813C481.832,346.989,481.944,348.355,482.025,349.722z"/>
	<path display="none" d="M512.638,382.879c-0.106-0.001-0.227,0.014-0.351-0.006c-1.575,0.038-3.148,0.077-4.706,0.1
		c-0.104-0.003-0.226-0.023-0.383-0.042c0.375-0.36,0.661-0.705,1.016-0.977c0.976-0.734,1.098-1.605,0.7-2.697
		c-0.399-1.092-0.744-2.201-1.106-3.292c-0.066-0.21-0.132-0.422-0.214-0.755c1.409,0.464,2.693,0.911,3.996,1.302
		c0.279,0.076,0.328,0.305,0.395,0.515c0.528,1.514,1.061,2.995,1.59,4.507C513.868,382.554,513.669,382.848,512.638,382.879z"/>
	<path display="none" d="M446.302,392.402c0.283-0.1,0.565-0.233,0.847-0.333c2.957-1.027,5.914-2.017,8.871-3.042
		c0.087-0.018,0.159-0.086,0.3-0.152c0.021-0.158,0.025-0.332,0.028-0.506c-0.112-2.294-0.243-4.569-0.372-6.881
		c-0.078-1.366,0.013-1.521,1.246-2.02c9.114-3.756,18.245-7.529,27.342-11.303c2.239-0.917,4.442-1.834,6.68-2.753
		c0.019-0.017,0.053-0.017,0.071-0.034l0.05,0.159c-1.006,2.201-2.009,4.367-3.014,6.568c-4.109,8.959-8.238,17.936-12.365,26.878
		c-0.566,1.23-0.708,1.296-2.069,1.166c-2.285-0.238-4.571-0.44-6.859-0.642c-0.175-0.003-0.35-0.007-0.508,0.007
		c-0.073,0.139-0.108,0.209-0.163,0.295c-1.141,2.914-2.248,5.83-3.389,8.746c-0.11,0.276-0.239,0.537-0.366,0.832
		c-0.111,0.277-0.34,0.43-0.621,0.494c-0.423,0.098-2.102,0.065-2.622-0.086c0.09-0.226,0.165-0.434,0.239-0.643
		c1.045-2.445,2.074-4.908,3.119-7.353c0.147-0.382,0.363-0.763,0.231-1.184c-0.713-0.242-0.853-0.175-1.217,0.587
		c-1.238,2.459-2.475,4.918-3.694,7.394c-0.273,0.536-0.649,0.897-1.261,0.937c-0.806,0.055-1.611,0.108-2.398,0.18
		c-0.253-0.407-0.021-0.7,0.124-1.01c1.237-2.424,2.49-4.865,3.728-7.29c0.272-0.5,0.477-1.04,0.73-1.558
		c-0.681-0.031-0.715-0.032-0.968,0.418c-0.543,0.864-1.084,1.727-1.574,2.609c-1.123,1.972-2.246,3.943-3.366,5.915
		c-0.347,0.605-0.842,0.945-1.542,1.002c-1.401,0.146-4.667-0.039-6.083-0.12l-0.088,0.085c0-0.036,0-0.07-0.017-0.087
		c-0.033-0.001-0.069-0.001-0.086-0.019l0.088-0.086c-0.007-1.398-0.082-4.688,0.12-6.082c0.102-0.715,0.442-1.18,1.061-1.501
		c2.014-1.044,4.045-2.071,6.042-3.133c0.9-0.49,1.803-0.979,2.669-1.47c0.442-0.252,0.46-0.27,0.455-0.952
		c-0.545,0.217-1.074,0.417-1.586,0.667c-2.47,1.143-4.958,2.3-7.429,3.44c-0.3,0.151-0.603,0.371-1.014,0.084
		c0.102-0.784,0.186-1.586,0.272-2.391c0.065-0.609,0.44-0.971,0.986-1.221c2.522-1.122,5.028-2.263,7.533-3.402
		c0.759-0.352,0.831-0.49,0.635-1.193c-0.433-0.167-0.804,0.019-1.192,0.186c-2.502,0.93-4.985,1.878-7.47,2.826
		c-0.228,0.083-0.438,0.148-0.65,0.215c-0.112-0.544-0.098-2.206,0.018-2.624C445.86,392.726,445.986,392.5,446.302,392.402z"/>
	<path display="none" d="M436.741,385.028c-1.071,0.275-2.16,0.534-3.233,0.81c-0.158,0.05-0.299,0.083-0.542,0.042
		c1.507-1.998,3.033-4.014,4.596-6.064c0.17,0.143,0.325,0.268,0.462,0.411c1.233,1.353,2.464,2.706,3.681,4.076
		c1.437,1.568,1.107,1.438,2.938,0.879c2.745-0.855,5.455-1.781,8.184-2.688c0.332-0.117,0.651-0.216,1.072-0.346
		c0.19,1.908,0.362,3.765,0.554,5.64c-0.246,0.065-0.403,0.15-0.598,0.198c-2.478,0.634-4.938,1.25-7.417,1.883
		c-0.28,0.064-0.544,0.147-0.791,0.248c-0.618,0.25-1.011,0.697-1.146,1.375c-0.213,0.994-0.442,2.002-0.688,2.995
		c-0.095,0.4-0.261,0.799-0.443,1.181c-0.292,0.59-0.608,0.758-1.29,0.692c-0.158-0.021-0.332-0.058-0.488-0.079
		c-1.953-0.354-3.922-0.725-5.871-1.077c-0.245-0.042-0.49-0.116-0.873-0.193c0.249-0.135,0.373-0.22,0.513-0.288
		c1.308-0.603,2.593-1.226,3.918-1.813c0.424-0.2,0.552-0.496,0.491-0.951c-0.064-0.351-0.09-0.735-0.154-1.123
		c-0.825,0.177-1.633,0.336-2.458,0.512c-1.509,0.319-3.037,0.656-4.548,0.977c-1.158,0.257-1.569,0.686-1.628,1.909
		c-0.029,0.646,0.01,1.295-0.002,1.959c-0.005,0.279-0.047,0.594-0.088,0.978c-1.149-1.264-2.403-2.286-2.81-3.919
		c-0.129-0.562-0.257-1.125-0.264-1.704c-0.017-0.837,0.414-1.458,1.241-1.74c0.334-0.116,0.651-0.216,1.003-0.313
		c2.882-0.784,5.766-1.601,8.651-2.384c0.157-0.049,0.298-0.081,0.526-0.164c-0.616-0.678-1.13-1.212-1.662-1.764
		C437.338,384.935,437.041,384.947,436.741,385.028z"/>
	<path display="none" d="M426.128,271.758c3.447,3.511,6.875,7.006,10.339,10.5c2.983,3.032,5.949,6.046,8.95,9.059
		c1.578,1.604,3.172,3.192,4.75,4.798c3.018,3.03,6.035,6.097,9.054,9.13c1.542,1.568,3.085,3.137,4.647,4.689
		c2.964,3.014,5.914,6.009,8.897,9.005c1.628,1.659,3.24,3.298,4.904,4.922c2.626,2.554,5.163,5.191,7.751,7.775
		c0.189,0.198,0.378,0.394,0.601,0.625l-2.618,2.52c-1.334-0.675-2.761-1.123-4.206-1.413c-0.539-0.098-1.099-0.109-1.658-0.085
		c-1.559,0.056-3.118,0.148-4.658,0.258c-0.614,0.04-1.229,0.221-1.826,0.35c-0.335,0.08-0.651,0.214-0.985,0.329
		c-2.851,0.923-4.744,2.916-5.949,5.549c-0.33,0.728-0.501,1.547-0.588,2.349c-0.333,2.722,0.408,5.131,2.254,7.195
		c0.822,0.925,1.769,1.697,2.715,2.466c2.116,1.703,4.561,2.819,6.969,3.966c1.558,0.73,4.283,1.815,5.825,2.563l-0.18,1.204
		c-0.066,1.467-0.08,6.625-0.421,7.125c-0.145,0.207-0.391,0.376-0.708,0.509c-7.054,2.905-14.086,5.828-21.121,8.75
		c-0.228,0.083-0.474,0.183-0.758,0.283c-0.064-0.211-0.096-0.387-0.127-0.562c-0.478-2.317-0.976-4.617-1.455-6.936
		c-0.256-1.229-0.183-1.367,1.098-1.604c2.509-0.458,5.019-0.883,7.544-1.322c1.931-0.346,3.878-0.675,5.826-1.039
		c0.49-0.096,0.983-0.225,1.493-0.374c0.176-0.066,0.352-0.133,0.53-0.235c0.212-0.136,0.39-0.341,0.448-0.603
		c0.212-0.993-1.216-1.266-1.838-0.77c-0.053,0.05-0.124,0.084-0.143,0.136c-0.522,0.777-1.313,1.024-2.191,1.147
		c-1.227,0.185-2.404,0.46-3.631,0.681c-0.264,0.047-0.524,0.024-0.911,0.052c0.145-0.242,0.217-0.38,0.307-0.5
		c0.56-0.918,1.102-1.814,1.645-2.749c0.252-0.415,0.241-0.713,0.019-0.875c-0.277-0.181-0.575-0.133-0.917,0.226
		c-0.889,0.927-1.766,1.837-2.658,2.764c-0.304,0.327-0.642,0.618-0.927,0.927c-0.786,0.788-6.8,0.776-8.9,0.874
		c-0.087,0.016-0.122-0.021-0.313-0.076c2.898-2.443,5.743-4.87,8.606-7.28c-0.306-0.425-0.656-0.501-1.026-0.317
		c-0.549,0.285-1.097,0.607-1.61,0.931c-2.547,1.557-5.113,3.099-7.661,4.658c-0.709,0.441-1.417,0.881-2.125,1.321
		c-0.513,0.323-1.057,0.436-1.668,0.336c-3.188-0.604-6.376-1.209-9.563-1.814c-0.035,0-0.069-0.036-0.191-0.09
		c0.177-0.103,0.318-0.206,0.478-0.29c6.195-2.938,12.391-5.876,18.584-8.815c0.284-0.135,0.567-0.303,0.831-0.456
		c-0.19-0.947-0.605-1.236-1.45-0.973c-0.686,0.213-1.372,0.463-2.024,0.713c-6.023,2.224-12.03,4.468-18.053,6.692
		c-0.423,0.167-0.864,0.314-1.376,0.533c-0.271-0.32-0.6-0.624-0.836-0.979c-1.499-2.092-2.997-4.185-4.494-6.278
		c-0.034-0.036-0.032-0.071-0.049-0.158c0.251-0.31,0.636-0.336,0.97-0.417c3.075-0.762,6.169-1.505,9.258-2.25
		c4.692-1.149,9.418-2.298,14.11-3.447c0.299-0.083,0.583-0.216,0.897-0.315c-0.234-0.494-0.568-0.378-0.884-0.349
		c-2.19,0.219-4.381,0.438-6.572,0.692c-6.342,0.681-12.668,1.378-19.011,2.058c-0.035,0-0.088,0.015-0.124,0.015
		c-0.718,0.072-0.751,0.073-0.913-0.665c-0.575-2.81-1.132-5.635-1.721-8.532c0.262-0.014,0.49-0.025,0.735-0.02
		c4.687-0.013,9.355-0.009,14.058-0.004c4.844,0.007,9.686,0.014,14.547,0.041c0.174,0.002,0.367-0.012,0.612-0.042
		c0.041-0.242,0.081-0.486,0.139-0.782c-5.232-0.698-10.43-1.36-15.608-2.072c-5.18-0.714-10.398-1.219-15.557-2.089
		c-0.22-3.835-0.462-7.581-0.685-11.379c0.578-0.042,1.011,0.16,1.462,0.309c1.756,0.576,3.526,1.171,5.281,1.747
		c8.114,2.625,16.229,5.214,24.343,7.838c0.835,0.262,1.668,0.594,2.502,0.82c0.696,0.187,0.855,0.103,1.341-0.535
		c-0.21-0.108-0.417-0.218-0.606-0.309c-11.126-5.148-22.251-10.264-33.375-15.413c-0.313-0.146-0.625-0.328-0.936-0.438
		c-0.643-0.24-0.895-0.717-0.864-1.398c0.004-0.314,0.011-0.629,0-0.927c-0.108-3.358-0.235-6.701-0.361-10.078
		c0.003-0.174-0.063-0.351-0.128-0.667c0.434,0.236,0.66,0.364,0.919,0.491c1.055,0.562,2.038,1.228,3.147,1.74
		c0.797,0.365,1.523,0.869,2.283,1.303c0.295,0.163,0.624,0.293,0.9,0.473c0.638,0.414,1.26,0.847,1.899,1.261
		c0.863,0.543,1.745,1.031,2.608,1.573c0.555,0.327,1.088,0.704,1.624,1.046c0.086,0.054,0.138,0.108,0.225,0.162
		c1.537,0.886,3.094,1.792,4.615,2.696c1.677,0.995,3.319,2.023,4.993,3.018c4.08,2.422,8.178,4.83,12.256,7.252
		c1.816,1.068,3.612,2.152,5.428,3.219c0.173,0.108,0.363,0.234,0.572,0.273c0.21,0.039,0.419,0.007,0.612-0.005
		c0.018-0.052,0.038-0.105,0.073-0.174c-0.173-0.145-0.309-0.286-0.5-0.413c-7.448-5.356-14.916-10.696-22.363-16.053
		c-6-4.314-12.018-8.611-18.021-12.926c-0.102-0.071-0.189-0.126-0.309-0.18c-0.764-0.365-0.925-1.033-0.892-1.854
		c0.087-1.765,0.175-3.528,0.244-5.275c0.066-1.608,0.098-3.252,0.166-4.858c0.002-0.14,0.042-0.314,0.082-0.594
		c15.128,13.235,30.096,26.522,45.208,39.635c0.443-0.219,0.796-0.387,1.255-0.587c-0.103-0.108-0.207-0.214-0.309-0.321
		c-2.386-2.268-4.79-4.518-7.175-6.785c-1.803-1.696-3.587-3.41-5.408-5.124c-2.628-2.482-5.253-4.964-7.881-7.446
		c-1.511-1.428-3.038-2.875-4.549-4.304c-2.987-2.822-5.973-5.643-8.925-8.463c-2.489-2.373-4.962-4.73-7.451-7.104
		c-1.115-1.054-2.23-2.108-3.365-3.109c-0.776-0.663-0.881-1.451-0.58-2.6c0.472-1.757,0.648-3.536,0.614-5.355
		c-0.026-0.525,0.176-1.027,0.239-1.534c0.103-0.82,0.208-1.641,0.294-2.478c0.017-0.139,0.048-0.263,0.069-0.4
		c0.009-0.003,0.019-0.006,0.042-0.017C425.323,271.025,425.753,271.367,426.128,271.758z"/>
	<path display="none" d="M424.893,270.615c-0.001,0.019-0.008,0.036-0.009,0.053C424.862,270.677,424.857,270.671,424.893,270.615z"
		/>
</g>
</svg>
