<?xml version="1.0" encoding="utf-8"?>
<!-- Generator: Adobe Illustrator 16.0.3, SVG Export Plug-In . SVG Version: 6.00 Build 0)  -->
<!DOCTYPE svg PUBLIC "-//W3C//DTD SVG 1.1//EN" "http://www.w3.org/Graphics/SVG/1.1/DTD/svg11.dtd">
<svg version="1.1" id="Ebene_4" xmlns="http://www.w3.org/2000/svg" xmlns:xlink="http://www.w3.org/1999/xlink" x="0px" y="0px"
	 width="1417.32px" height="1417.32px" viewBox="0 0 1417.32 1417.32" enable-background="new 0 0 1417.32 1417.32"
	 xml:space="preserve">
<g>
	<path display="none" fill="none" d="M397.409,686.702c13.764,12.872,33.293,20.726,44.651,17.153
		c-3.717-4.632-7.646-8.846-10.761-13.594c-3.212-4.897-5.633-10.315-8.178-15.086c2.063-12.654,1.716-25.747,13.132-35.89
		c5.67,0.5,12.232,1.14,18.805,1.629c2.562,0.191,5.152,0.125,7.724,0.036c11.061-0.387,22.115-0.972,33.178-1.175
		c4.668-0.085,8.967,1.811,11.236,6.033c7.006,13.038,9.701,26.407,1.021,39.844c-3.39,5.248-7.288,10.167-10.006,13.924
		c-14.423,9.198-27.905,15.705-44.026,10.911c-1.026-0.305-2.211-0.094-3.322-0.101c-16.302-0.102-32.611-0.539-48.9-0.164
		c-9.019,0.208-16.752-1.224-22.942-8.474c-4.511-5.284-9.967-9.757-14.489-15.031c-2.063-2.406-3.791-5.776-4.118-8.875
		c-1.39-13.135,2.772-24.396,13.348-34.716C382.927,673.541,386.503,676.502,397.409,686.702z"/>
	<path display="none" d="M213.065,570.301c0.28-0.013,0.572,0.317,0.559,0.622c-0.013,0.305-0.344,0.609-0.674,0.609
		c-0.266,0-0.583-0.331-0.597-0.609C212.341,570.643,212.722,570.301,213.065,570.301z"/>
	<path d="M34.976,977.95c5.068,4.733,9.782,9.848,13.967,14.093c2.156,9.688,0.063,19.435,8.32,25.836
		c24.57,7.378,49.288,14.75,73.971,22.232c20.465,6.202,40.827,12.756,61.36,18.721c10.35,3.006,21.123,3.453,31.889,2.837
		c7.701-0.44,15.534-0.204,23.068-1.582c13.716-2.511,19.795-13.02,20.934-25.401c1.437-15.652-1.059-30.449-12.565-43.268
		c-7.747-8.63-14.681-18.587-18.201-30.143c-1.042-3.419-1.613-6.979-2.581-11.276c10.974,1.978,16.758-4.622,21.726-11.245
		c4.787-6.382,9.267-13.535,5.976-22.06c7.406-10.914,22.863-4.076,30.909-15.201c-2.13-6.279-3.896-13.051-6.685-19.371
		c-5.846-13.252-7.692-26.201,1.202-39.119c1.172,0.633,2.759,1.489,4.35,2.347c20.417-9.881,30.283-31.105,21.983-47.284
		c15.941-21.739,38.18-34.644,63.166-42.395c10.656-3.305,22.019-5.438,33.687-5.806c9.897-0.312,19.514-1.383,29.577-0.011
		c8.55,1.167,17.543-1.255,26.36-1.624c11.509-0.481,22.916,0.063,33.552,8.374c0.279,4.589,0.189,10.68,1.11,16.611
		c1.581,10.177,3.7,20.275,5.765,30.369c2.162,10.562,9.312,17.37,17.943,22.579c5.111,12.872,12.337,23.765,22.032,33.282
		c5.195,5.099,9.026,11.668,13.066,17.842c4.817,7.362,11.402,9.521,19.947,9.237c17.771-0.588,35.573-0.124,53.347-0.63
		c28.063-0.802,56.112-2.046,85.377-3.148c1.979-1.287,5.063-3.295,9.06-5.897c3.568-7.926,7.479-16.618,11.39-25.31
		c0.082,0.051,0.162,0.103,0.244,0.153c4.271-8.5,8.543-17,13.18-26.228c2.473-1.429,5.664-3.273,7.579-4.38
		c17.131-15.56,13.204-36.067,16.37-56.433c2.442,2.546,4.597,3.721,4.772,5.14c1.771,14.259,3.402,28.543,4.664,42.856
		c0.557,6.319,2.47,11.487,8.725,15.353c46.368,0,93.392,0,140.6,0c5.559,6.127,12.671,7.193,20.328,6.911
		c23.262-0.859,46.59-0.812,69.773-2.614c17.246-1.341,34.458-3.165,51.726-4.515c16.415-1.285,32.632-5.193,48.914-8.066
		c12.675-2.234,25.349-4.502,37.966-7.042c7.209-1.45,14.289-3.521,21.448-5.227c15.017-3.578,30.149-6.717,45.037-10.761
		c13.471-3.661,26.503-8.256,38.988-15.134c18.1-9.974,37.337-17.876,56.061-26.719c6.986-3.302,13.982-6.604,20.784-10.26
		c1.8-0.968,3.004-3.172,4.279-4.951c2.083-2.905,4-5.932,5.562-8.271c6.428-1.823,16.555-8.51,16.555-8.51l0.233-66.279
		l-4.453-7.925c0,0-8.174-0.875-12.5-1.339c-0.438-6.92-1.287-20.373-1.287-20.373l31.377-13.848c0,0,0.451-6.461,0.453-9.692
		c0.045-50.763,0.257-101.527-0.095-152.288c-0.074-10.891-2.213-21.768-3.275-31.523c-10.563-8.807-33.819-10.444-33.819-10.444
		l-4-0.147c0,0-1.919-9.753-2.962-15.742c-7.173-3.025-13.628-5.693-20.039-8.462c-24.14-10.425-49.318-17.66-74.735-24.069
		c-27.499-6.935-54.911-14.315-83.224-17.509c-9.871-1.113-19.604-3.396-29.457-4.711c-17.134-2.287-34.313-4.248-51.476-6.329
		c-17.168-2.083-34.302-4.56-51.519-6.07c-10.671-0.935-21.472-0.462-32.214-0.5c-17.043-0.062-34.099-0.428-51.127,0.083
		c-18.745,0.563-37.451-0.582-56.182-0.319c-18.894,0.265-37.793,0.071-56.691,0.068c-18.896-0.002-37.793-0.014-56.689-0.021
		c-3.666-0.002-7.332,0-9.597,0c-11.498,8.194-12.467,29.913-12.467,29.913l-338.773,0.057c0,0-9.903-19.294-14.838-28.906
		c-16.366-2.058-145.502-1.229-158.441,0.953c0.218-4.6,0.706-14.906,0.706-14.906l-3.666-5.12c0,0-5.784-2.955-8.111-4.143
		c-13.512,5.904-23.953,15.254-34.782,24.736c-3.728-3.169-7.054-5.996-11.561-9.826c-5.24,1.219-11.178,2.604-18.371,4.279
		c-3.846-2.763-8.867-6.37-13.622-9.786c-19.255,7.495-52.761,39.439-60.723,58.218c3.194,4.917,6.742,10.381,10.422,16.046
		c-4.863,9.138-14.001,16.063-13.021,27.949c-2.014,1.487-4.071,3.005-7.079,5.224c8.354,11.464,16.107,22.105,23.854,32.736
		c-0.587,3.603-1.174,7.208-1.761,10.811c-0.362-0.373-12.912,12.078-18.423,18.225c-0.447,1.337-0.865,2.026-0.885,2.729
		c-0.913,30.649-1.79,61.298-2.61,89.805c4.74,6.971,8.21,12.073,12.178,17.909c-2.062,0.864-3.193,1.34-4.874,2.045
		c0.031,8.016,7.634,9.896,13.475,15.906c0.712,7.045,1.593,15.782,2.598,25.733c1.724,4.573,6.552,5.985,12.004,5.592
		c1.737,3.122,3.137,5.637,4.937,8.871c34.147,0,68.521,0,103.048,0c1.872,3.432,3.434,6.298,4.799,8.805
		c-0.604,4.541-1.136,8.543-1.604,12.068c-4.757,7.232-11.08,9.822-19.142,10.052c-8.816,0.253-17.667,1.176-26.388,2.532
		c-16.144,2.512-25.969,13.113-29.823,29.899c-2.62,11.416-5.296,22.743-12.325,32.881c-3.228,4.651-6.226,10.028-8.801,15.366
		c-2.719,5.642-5.764,11.134-8.292,16.856c-1.593,3.605-2.497,7.515-4.525,13.826c-6.794,9.001-9.342,22.712-16.378,38.716
		c-5.397,6.534-10.64,17.459-14.671,30.971c-8.276,7.923-11.338,20.222-13.924,32.723c-2.494,3.073-4.988,6.146-7.707,9.496
		c-4.889-1.144-10.117-2.371-13.886-3.254c-12.904,5.579-19.443,14.813-24.011,25.653c-2.571,6.098-5.05,12.3-6.797,18.666
		C22.6,958.091,25.362,968.972,34.976,977.95z M1143.858,669.452c27.049,0,125.482,0,168.982,0c18.589,15.058,0,30.116,0,30.116
		h-168.982C1143.858,699.567,1119.32,686.461,1143.858,669.452z M1143.858,590.258c27.049,0,125.482,0,168.982,0
		c18.589,15.058,0,30.116,0,30.116h-168.982C1143.858,620.374,1119.32,607.269,1143.858,590.258z M1143.858,495.45
		c27.049,0,125.482,0,168.982,0c18.589,15.058,0,30.116,0,30.116h-168.982C1143.858,525.566,1119.32,512.46,1143.858,495.45z
		 M1143.858,415.979c27.049,0,125.482,0,168.982,0c18.589,15.058,0,30.116,0,30.116h-168.982
		C1143.858,446.094,1119.32,432.988,1143.858,415.979z M835.335,357.699h11.991v88.395h-11.991V357.699z M820.092,357.699h11.991
		v88.395h-11.991V357.699z M805.034,357.699h11.99v88.395h-11.99V357.699z M789.837,357.699h11.991v88.395h-11.991V357.699z
		 M774.616,357.699h11.99v88.395h-11.99V357.699z M759.373,357.699h11.99v88.395h-11.99V357.699z M744.315,357.699h11.99v88.395
		h-11.99V357.699z M729.118,357.699h11.991v88.395h-11.991V357.699z M713.99,357.699h11.99v88.395h-11.99V357.699z M698.748,357.699
		h11.99v88.395h-11.99V357.699z M683.689,357.699h11.991v88.395h-11.991V357.699z M668.493,357.699h11.99v88.395h-11.99V357.699z
		 M653.271,357.699h11.99v88.395h-11.99V357.699z M638.028,357.699h11.99v88.395h-11.99V357.699z M622.971,357.699h11.99v88.395
		h-11.99V357.699z M607.773,357.699h11.991v88.395h-11.991V357.699z M592.458,357.699h11.99v88.395h-11.99V357.699z
		 M577.215,357.699h11.991v88.395h-11.991V357.699z M562.157,357.699h11.991v88.395h-11.991V357.699z M376.887,446.094h-11.99
		v-88.395h11.99V446.094z M392.084,446.094h-11.991v-88.395h11.991V446.094z M407.142,446.094h-11.991v-88.395h11.991V446.094z
		 M422.385,446.094h-11.991v-88.395h11.991V446.094z M437.606,446.094h-11.991v-88.395h11.991V446.094z M452.803,446.094h-11.991
		v-88.395h11.991V446.094z M467.861,446.094h-11.99v-88.395h11.99V446.094z M483.104,446.094h-11.99v-88.395h11.99V446.094z
		 M498.231,446.094h-11.991v-88.395h11.991V446.094z M513.429,446.094h-11.991v-88.395h11.991V446.094z M546.96,357.699h11.991
		v88.395H546.96V357.699z M531.739,357.699h11.99v88.395h-11.99V357.699z M516.496,357.699h11.991v88.395h-11.991V357.699z
		 M373.76,643.128c9.167,30.413,12.743,33.374,23.649,43.574c13.764,12.872,33.293,20.726,44.651,17.153
		c-3.717-4.632-7.646-8.846-10.761-13.594c-3.212-4.897-5.633-10.315-8.178-15.086c2.063-12.654,1.716-25.747,13.132-35.89
		c5.67,0.5,12.232,1.14,18.805,1.629c2.562,0.191,5.152,0.125,7.724,0.036c11.061-0.387,22.115-0.972,33.178-1.175
		c4.668-0.085,8.967,1.811,11.236,6.033c7.006,13.038,9.701,26.407,1.021,39.844c-3.39,5.248-7.288,10.167-10.006,13.924
		c-14.423,9.198-27.905,15.705-44.026,10.911c-1.026-0.305-2.211-0.094-3.322-0.101c-16.302-0.102-32.611-0.539-48.9-0.164
		c-9.019,0.208-16.752-1.224-22.942-8.474c-4.511-5.284-9.967-9.757-14.489-15.031c-2.063-2.406-3.791-5.776-4.118-8.875
		C359.022,664.709,363.184,653.448,373.76,643.128z M210.298,603.998c0.039-0.19,0.128-0.394,0.241-0.571
		c0.28-0.444,0.559-0.888,0.863-1.32c0.204-0.292,0.229-0.597,0.103-0.914c-0.051-0.127-0.115-0.253-0.19-0.381
		c-0.647-1.142-1.295-2.271-1.942-3.414c-0.05-0.076-0.076-0.165-0.139-0.292c0.761-0.597,1.51-1.193,2.285-1.803
		c0.101,0.204,0.176,0.356,0.253,0.521c0.635,1.333,1.256,2.666,1.917,3.985c0.444,0.875,0.279,0.799,1.371,0.774
		c0.939-0.024,1.879-0.051,2.818-0.088c0.101,0,0.204,0.013,0.317,0.025c-0.203,1.307-0.405,2.588-0.608,3.858
		c-0.103-0.064-0.14-0.14-0.178-0.216c-0.279-0.495-0.571-0.99-0.85-1.484c-0.077-0.14-0.179-0.254-0.356-0.254
		c-0.393,0-0.774,0-1.206,0c0.051,0.115,0.089,0.191,0.127,0.254c0.736,1.345,1.46,2.703,2.195,4.048
		c0.09,0.153,0.166,0.317,0.242,0.482c0.191,0.406,0.115,0.787-0.202,1.079c-0.216,0.203-0.471,0.355-0.724,0.508
		c-0.749,0.431-1.575,0.331-2.451,0.355c0.141-0.152,0.229-0.279,0.332-0.381c0.241-0.229,0.494-0.444,0.723-0.697
		c0.419-0.458,0.444-0.762,0.127-1.282c-0.418-0.673-0.838-1.358-1.257-2.031c-0.228-0.355-0.457-0.724-0.685-1.091
		c-0.165,0.127-0.304,0.241-0.47,0.342c-0.189,0.127-0.266,0.28-0.177,0.521c0.241,0.698,0.482,1.396,0.723,2.094
		c0.025,0.076,0.038,0.139,0.076,0.292c-0.164-0.115-0.279-0.179-0.38-0.254c-0.838-0.597-1.663-1.193-2.488-1.79
		c-0.063-0.05-0.139-0.088-0.203-0.152C210.233,604.494,210.184,604.328,210.298,603.998z M193.354,602.45
		c-0.47-0.013-0.85-0.013-1.243-0.013c-0.179,0-0.28,0.115-0.356,0.254c-0.279,0.495-0.571,0.99-0.851,1.484
		c-0.037,0.077-0.076,0.14-0.178,0.216c-0.202-1.269-0.406-2.551-0.608-3.858c0.114-0.012,0.215-0.025,0.317-0.025
		c0.938,0.025,1.879,0.051,2.818,0.089c1.091,0.025,0.927,0.102,1.37-0.774c0.661-1.32,1.283-2.653,1.917-3.985
		c0.076-0.165,0.152-0.317,0.254-0.52c0.774,0.609,1.523,1.205,2.284,1.802c-0.063,0.114-0.089,0.203-0.14,0.292
		c-0.647,1.142-1.294,2.271-1.94,3.414c-0.077,0.127-0.14,0.254-0.192,0.381c-0.126,0.317-0.101,0.622,0.102,0.914
		c0.292,0.432,0.584,0.876,0.863,1.32c0.115,0.178,0.203,0.381,0.279,0.584c0.116,0.317,0.064,0.495-0.203,0.723
		c-0.063,0.051-0.139,0.102-0.203,0.153c-0.825,0.595-1.662,1.192-2.488,1.788c-0.102,0.077-0.215,0.141-0.381,0.254
		c0.038-0.14,0.051-0.216,0.076-0.292c0.242-0.697,0.471-1.396,0.724-2.094c0.076-0.228,0.013-0.381-0.177-0.521
		c-0.151-0.102-0.304-0.228-0.47-0.342c-0.229,0.368-0.457,0.723-0.685,1.091c-0.419,0.672-0.837,1.358-1.256,2.03
		c-0.318,0.52-0.305,0.825,0.126,1.282c0.229,0.241,0.483,0.457,0.724,0.698c0.101,0.102,0.204,0.229,0.33,0.381
		c-0.875-0.025-1.7,0.076-2.45-0.355c-0.253-0.152-0.507-0.304-0.723-0.507c-0.317-0.292-0.393-0.673-0.203-1.079
		c0.077-0.165,0.153-0.317,0.241-0.483c0.736-1.346,1.46-2.704,2.196-4.048C193.265,602.627,193.304,602.564,193.354,602.45z
		 M189.763,567.547c-0.725,0.254-1.396,0.622-2.019,1.053c-0.228,0.165-0.432,0.368-0.622,0.584
		c-0.534,0.596-1.053,1.206-1.561,1.815c-0.204,0.241-0.355,0.533-0.52,0.799c-0.089,0.153-0.153,0.317-0.229,0.482
		c-0.672,1.384-0.609,2.792-0.063,4.176c0.152,0.381,0.394,0.736,0.66,1.054c0.889,1.091,2.043,1.675,3.465,1.726
		c0.635,0.025,1.256-0.051,1.878-0.127c1.383-0.177,2.666-0.685,3.947-1.167c0.825-0.317,2.195-0.939,3.021-1.244l0.381,0.495
		c0.52,0.546,2.424,2.386,2.487,2.691c0.025,0.126,0,0.278-0.063,0.443c-1.435,3.643-2.856,7.286-4.278,10.928
		c-0.051,0.115-0.101,0.242-0.165,0.381c-0.101-0.051-0.177-0.102-0.253-0.152c-1.028-0.648-2.057-1.282-3.084-1.929
		c-0.546-0.343-0.571-0.419-0.203-0.978c0.723-1.091,1.46-2.17,2.195-3.261c0.559-0.838,1.129-1.675,1.688-2.525
		c0.14-0.216,0.267-0.445,0.394-0.686c0.039-0.089,0.076-0.178,0.102-0.279c0.025-0.127,0.013-0.267-0.063-0.38
		c-0.292-0.432-0.902,0-0.939,0.406c0,0.039-0.012,0.076,0,0.102c0.101,0.47-0.088,0.85-0.356,1.219
		c-0.367,0.52-0.684,1.054-1.04,1.586c-0.075,0.114-0.178,0.203-0.304,0.355c-0.038-0.139-0.064-0.216-0.076-0.292
		c-0.139-0.534-0.28-1.053-0.433-1.586c-0.063-0.242-0.177-0.343-0.316-0.318c-0.165,0.038-0.254,0.166-0.241,0.419
		c0.025,0.659,0.051,1.307,0.076,1.967c0.012,0.229,0,0.457,0.012,0.672c0.013,0.571-2.131,2.793-2.843,3.604
		c-0.025,0.038-0.05,0.038-0.14,0.089c0.127-1.942,0.242-3.858,0.368-5.775c-0.267-0.038-0.418,0.063-0.482,0.267
		c-0.088,0.305-0.165,0.622-0.228,0.927c-0.331,1.497-0.673,2.995-1.003,4.493c-0.088,0.419-0.178,0.837-0.267,1.256
		c-0.063,0.305-0.215,0.546-0.469,0.736c-1.358,0.965-2.716,1.929-4.074,2.894c-0.013,0.013-0.038,0.013-0.101,0.038
		c0.025-0.101,0.038-0.19,0.063-0.279c1.118-3.337,2.234-6.676,3.351-10.014c0.051-0.152,0.089-0.317,0.127-0.47
		c-0.419-0.266-0.673-0.215-0.876,0.191c-0.165,0.33-0.316,0.672-0.457,1.002c-1.32,3.021-2.627,6.042-3.947,9.062
		c-0.088,0.216-0.19,0.432-0.292,0.698c-0.215-0.012-0.443,0-0.66-0.038c-1.307-0.191-2.614-0.381-3.921-0.571
		c-0.025,0-0.038-0.013-0.076-0.039c-0.025-0.203,0.101-0.355,0.19-0.507c0.813-1.409,1.637-2.817,2.462-4.227
		c1.244-2.146,2.5-4.302,3.744-6.447c0.077-0.14,0.127-0.292,0.203-0.444c-0.265-0.089-0.343,0.076-0.444,0.203
		c-0.697,0.889-1.396,1.777-2.081,2.678c-2.006,2.589-3.998,5.178-6.003,7.767c-0.013,0.013-0.026,0.038-0.039,0.051
		c-0.229,0.292-0.241,0.305-0.57,0.102c-1.244-0.787-2.488-1.587-3.77-2.399c0.088-0.101,0.165-0.19,0.253-0.279
		c1.663-1.739,3.326-3.465,5.001-5.204c1.727-1.789,3.452-3.579,5.191-5.369c0.063-0.064,0.126-0.139,0.203-0.241
		c-0.076-0.101-0.152-0.203-0.24-0.33c-2.12,1.688-4.215,3.376-6.322,5.038c-2.107,1.663-4.149,3.415-6.308,5.014
		c-1.498-1.282-2.97-2.526-4.455-3.795c0.19-0.228,0.418-0.317,0.634-0.431c0.837-0.444,1.688-0.888,2.526-1.333
		c3.859-2.069,7.704-4.15,11.563-6.219c0.394-0.215,0.813-0.406,1.194-0.635c0.317-0.19,0.342-0.279,0.278-0.685
		c-0.114,0.038-0.229,0.076-0.33,0.114c-5.863,2.284-11.715,4.583-17.579,6.867c-0.166,0.063-0.343,0.114-0.494,0.19
		c-0.318,0.152-0.585,0.076-0.826-0.178c-0.114-0.114-0.229-0.229-0.342-0.33c-1.283-1.155-2.564-2.297-3.859-3.453
		c-0.063-0.063-0.153-0.101-0.292-0.19c0.241-0.076,0.368-0.114,0.508-0.165c0.583-0.19,1.181-0.317,1.764-0.546
		c0.418-0.165,0.863-0.254,1.294-0.381c0.166-0.051,0.33-0.127,0.496-0.166c0.38-0.088,0.762-0.165,1.142-0.253
		c0.508-0.127,1.003-0.279,1.511-0.406c0.317-0.089,0.647-0.152,0.965-0.229c0.05-0.013,0.088-0.013,0.139-0.025
		c0.876-0.254,1.764-0.508,2.64-0.749c0.965-0.267,1.93-0.508,2.894-0.774c2.349-0.647,4.695-1.308,7.044-1.954
		c1.042-0.292,2.082-0.572,3.123-0.864c0.102-0.025,0.216-0.05,0.304-0.114c0.09-0.064,0.152-0.152,0.216-0.229
		c-0.013-0.025-0.025-0.051-0.038-0.089c-0.114,0.013-0.216,0.013-0.33,0.039c-4.633,0.85-9.266,1.713-13.898,2.563
		c-3.73,0.686-7.462,1.384-11.194,2.069c-0.063,0.013-0.114,0.025-0.177,0.05c-0.406,0.153-0.711-0.025-1.003-0.33
		c-0.622-0.66-1.243-1.32-1.866-1.967c-0.571-0.597-1.167-1.193-1.739-1.79c-0.049-0.05-0.101-0.127-0.19-0.24
		c10.282-0.889,20.524-1.701,30.754-2.628c0.076-0.241,0.139-0.432,0.228-0.673c-0.077,0-0.152,0-0.228,0
		c-1.688,0.076-3.377,0.165-5.065,0.241c-1.269,0.064-2.538,0.115-3.82,0.177c-1.853,0.089-3.706,0.178-5.559,0.267
		c-1.066,0.051-2.146,0.102-3.211,0.152c-2.107,0.102-4.214,0.203-6.309,0.292c-1.764,0.077-3.515,0.153-5.28,0.229
		c-0.787,0.038-1.574,0.076-2.347,0.14c-0.521,0.051-0.852-0.19-1.168-0.711c-0.483-0.8-1.079-1.498-1.764-2.132
		c-0.204-0.178-0.318-0.431-0.482-0.634c-0.267-0.33-0.534-0.66-0.813-0.991c-0.044-0.055-0.081-0.112-0.123-0.167
		c0.002-0.005,0.005-0.01,0.009-0.023c0.279-0.013,0.559-0.051,0.837-0.051c2.526-0.025,5.039-0.05,7.565-0.088
		c2.183-0.025,4.354-0.051,6.537-0.089c1.155-0.013,2.311-0.038,3.465-0.051c2.196-0.038,4.403-0.063,6.6-0.102
		c1.129-0.013,2.259-0.025,3.389-0.051c2.17-0.025,4.329-0.051,6.498-0.089c1.193-0.013,2.374-0.025,3.566-0.063
		c1.879-0.064,3.758-0.064,5.636-0.102c0.139,0,0.278,0,0.444,0V567.547z M192.758,571.888c0.177-0.039,0.316,0.012,0.456,0.126
		c0.508,0.457,1.054,0.901,1.588,1.358c0.049,0.051,0.101,0.114,0.177,0.215c-0.838,0.102-1.625,0.203-2.399,0.305
		c-0.305,0.038-0.305,0.038-0.356,0.33c-0.102,0.507-0.228,1.015-0.495,1.574c-0.559-0.838-1.155-1.562-1.522-2.424
		c-0.026-0.077-0.051-0.152-0.064-0.242c-0.05-0.394,0.064-0.571,0.444-0.686c0.457-0.126,0.914-0.266,1.372-0.38
		C192.224,572.001,192.491,571.951,192.758,571.888z M200.829,569.895c0.026,0.178-0.037,0.279-0.202,0.33
		c-0.216,0.051-0.432,0.127-0.66,0.152c-0.597,0.076-1.078,0.369-1.485,0.787c-0.317,0.317-0.597,0.673-0.877,1.027
		c-0.241,0.318-0.367,0.687-0.405,1.08c-0.05,0.444-0.139,0.888-0.215,1.333c-0.724-0.089-1.042-0.305-1.294-0.914
		c-0.192-0.457-0.433-0.875-0.75-1.257c-0.369-0.443-0.788-0.787-1.345-0.951c-0.166-0.051-0.331-0.051-0.483-0.114
		c-0.076-0.026-0.164-0.127-0.164-0.178c0-0.406,0.038-0.8,0.063-1.194c1.041-0.164,7.425-0.659,7.729-0.583
		C200.766,569.564,200.804,569.729,200.829,569.895z M203.343,574.489c-0.026,0.051-0.051,0.115-0.064,0.166
		c-0.533,1.167-1.053,2.335-1.586,3.503c-0.025,0.063-0.076,0.14-0.127,0.229c-0.102-0.089-0.165-0.152-0.229-0.216
		c-0.634-0.698-1.268-1.383-1.903-2.081c-0.458-0.495-0.914-0.977-1.372-1.459c-0.229-0.241-0.329-0.521-0.266-0.851
		c0.153-0.863,0.571-1.574,1.231-2.157c0.126-0.102,0.279-0.178,0.406-0.267c0.253,0.19,0.456,0.356,0.672,0.508
		c1.028,0.711,2.057,1.421,3.085,2.132C203.444,574.172,203.457,574.197,203.343,574.489z M203.977,575.542
		c0.458,1.155,0.902,2.297,1.358,3.453c1.853,4.708,3.707,9.43,5.547,14.139c0.253,0.647,0.229,0.724-0.304,1.181
		c-0.902,0.762-1.791,1.536-2.68,2.31c-0.063,0.063-0.126,0.126-0.176,0.19c0.025,0.076,0.037,0.114,0.05,0.165
		c0.673,1.46,1.358,2.906,2.03,4.366c0.064,0.14,0.115,0.279,0.179,0.431c0.063,0.14,0.037,0.28-0.038,0.406
		c-0.115,0.191-0.725,0.8-0.965,0.939c-0.051-0.114-0.102-0.216-0.152-0.317c-0.533-1.257-1.079-2.513-1.611-3.77
		c-0.089-0.19-0.153-0.406-0.356-0.507c-0.343,0.178-0.368,0.253-0.215,0.66c0.469,1.333,0.94,2.665,1.421,3.998
		c0.103,0.292,0.103,0.559-0.102,0.8c-0.267,0.316-0.532,0.634-0.787,0.952c-0.241-0.051-0.266-0.242-0.329-0.406
		c-0.458-1.32-0.915-2.653-1.372-3.972c-0.088-0.28-0.215-0.546-0.316-0.826c-0.254,0.241-0.267,0.254-0.191,0.508
		c0.127,0.508,0.254,1.015,0.406,1.51c0.33,1.117,0.66,2.234,0.99,3.351c0.101,0.343,0.051,0.647-0.178,0.927
		c-0.444,0.571-1.675,1.713-2.209,2.209v0.063c-0.013-0.013-0.025-0.024-0.037-0.024c-0.013,0.012-0.026,0.024-0.039,0.024v-0.063
		c-0.521-0.496-1.765-1.638-2.208-2.209c-0.229-0.292-0.28-0.584-0.177-0.927c0.33-1.116,0.672-2.234,0.989-3.351
		c0.14-0.508,0.279-1.015,0.407-1.51c0.063-0.254,0.063-0.267-0.192-0.508c-0.113,0.28-0.227,0.546-0.315,0.826
		c-0.458,1.319-0.915,2.652-1.372,3.972c-0.051,0.165-0.076,0.355-0.33,0.406c-0.253-0.318-0.521-0.635-0.786-0.952
		c-0.204-0.241-0.204-0.509-0.103-0.8c0.482-1.333,0.952-2.665,1.422-3.998c0.14-0.407,0.114-0.482-0.216-0.66
		c-0.216,0.101-0.279,0.304-0.355,0.507c-0.546,1.257-1.08,2.513-1.612,3.77c-0.051,0.114-0.102,0.215-0.152,0.317
		c-0.242-0.152-0.851-0.749-0.964-0.939c-0.09-0.126-0.128-0.253-0.051-0.406c0.064-0.139,0.114-0.292,0.177-0.431
		c0.673-1.46,1.358-2.906,2.03-4.366c0.026-0.038,0.026-0.088,0.052-0.165c-0.052-0.064-0.116-0.127-0.178-0.19
		c-0.889-0.774-1.776-1.536-2.677-2.31c-0.534-0.457-0.559-0.546-0.305-1.181c1.853-4.709,3.705-9.43,5.546-14.139
		c0.457-1.155,0.901-2.298,1.358-3.453c0-0.013,0.012-0.025,0.012-0.038L203.977,575.542z M204.828,574.02
		c0.851-0.685,1.701-1.383,2.551-2.068c0.165-0.114,0.33-0.203,0.457-0.305c1.003,0.508,1.98,1.713,2.272,2.792
		c-0.33,0.495-3.312,4.062-3.528,4.214c-0.267-0.419-1.74-4.214-1.79-4.582C204.803,574.058,204.816,574.032,204.828,574.02z
		 M215.667,571.075c-1.65,0.939-3.288,1.878-4.95,2.817c-0.063-0.013-0.089-0.025-0.089-0.051c-0.063-0.152-0.127-0.305-0.203-0.457
		c-0.648-1.307-1.448-2.437-2.958-2.83c-0.457-0.114-0.521-0.305-0.406-0.825c0.508-0.038,1.016-0.088,1.523-0.127
		c1.32-0.089,2.627-0.152,3.947-0.241c0.673-0.038,1.345-0.076,2.031-0.127c0.178-0.013,0.279,0.051,0.355,0.216
		c0.229,0.482,0.471,0.965,0.698,1.447C215.641,570.948,215.641,571.012,215.667,571.075z M217.8,573.017
		c0.481,0.254,0.52,0.431,0.164,0.825c-0.038,0.038-0.076,0.089-0.127,0.127c-0.545,0.596-1.091,1.193-1.637,1.776
		c-0.039,0.038-0.088,0.076-0.151,0.126c0-0.266-0.026-0.494,0-0.723c0.076-0.622-0.204-0.977-0.75-1.219
		c-0.545-0.241-1.078-0.507-1.612-0.762c-0.102-0.05-0.203-0.102-0.355-0.19c0.673-0.356,1.294-0.673,1.904-1.016
		c0.127-0.075,0.229-0.012,0.331,0.038C216.314,572.344,217.05,572.675,217.8,573.017z M232.928,593.299
		c-0.33,0.203-0.343,0.203-0.572-0.101c-0.012-0.013-0.025-0.039-0.037-0.051c-2.006-2.589-3.999-5.178-6.003-7.769
		c-0.686-0.888-1.384-1.79-2.082-2.678c-0.102-0.126-0.177-0.292-0.444-0.203c0.064,0.153,0.114,0.305,0.204,0.445
		c1.244,2.157,2.488,4.302,3.744,6.448c0.825,1.409,1.65,2.817,2.463,4.226c0.088,0.152,0.215,0.305,0.189,0.508
		c-0.037,0.013-0.063,0.025-0.077,0.038c-1.307,0.19-2.614,0.393-3.921,0.571c-0.216,0.025-0.444,0.025-0.66,0.038
		c-0.113-0.254-0.203-0.47-0.292-0.698c-1.32-3.021-2.627-6.042-3.947-9.062c-0.153-0.343-0.292-0.672-0.456-1.003
		c-0.204-0.406-0.458-0.47-0.876-0.19c0.039,0.152,0.075,0.317,0.126,0.469c1.116,3.338,2.234,6.676,3.351,10.014
		c0.025,0.089,0.038,0.178,0.063,0.28c-0.051-0.013-0.076-0.026-0.102-0.039c-1.357-0.964-2.715-1.929-4.074-2.893
		c-0.254-0.178-0.407-0.432-0.47-0.737c-0.088-0.418-0.165-0.837-0.267-1.256c-0.33-1.498-0.66-2.995-1.002-4.493
		c-0.051-0.33-0.126-0.634-0.216-0.952c-0.063-0.203-0.204-0.304-0.483-0.266c0.128,1.917,0.242,3.821,0.37,5.775
		c-0.09-0.051-0.115-0.063-0.141-0.089c-0.71-0.8-2.854-3.021-2.843-3.604c0.013-0.229,0-0.457,0.013-0.673
		c0.026-0.66,0.051-1.308,0.076-1.967c0.013-0.253-0.076-0.381-0.24-0.418c-0.141-0.025-0.254,0.063-0.317,0.317
		c-0.152,0.52-0.292,1.054-0.433,1.586c-0.025,0.076-0.038,0.14-0.076,0.292c-0.126-0.152-0.228-0.24-0.304-0.355
		c-0.343-0.521-0.673-1.067-1.041-1.586c-0.266-0.368-0.458-0.749-0.355-1.219c0.013-0.038,0-0.076,0-0.101
		c-0.038-0.406-0.647-0.838-0.939-0.406c-0.076,0.114-0.089,0.253-0.063,0.381c0.025,0.102,0.05,0.19,0.102,0.279
		c0.114,0.229,0.24,0.457,0.393,0.685c0.558,0.839,1.117,1.689,1.688,2.526c0.736,1.092,1.472,2.17,2.196,3.262
		c0.368,0.559,0.342,0.635-0.204,0.978c-1.028,0.647-2.055,1.294-3.084,1.929c-0.076,0.051-0.152,0.089-0.255,0.152
		c-0.063-0.152-0.113-0.266-0.164-0.38c-1.422-3.643-2.843-7.286-4.277-10.928c-0.063-0.166-0.09-0.305-0.063-0.445
		c0.076-0.305,1.967-2.145,2.488-2.691l0.38-0.495c0.826,0.305,2.196,0.939,3.021,1.244c1.283,0.482,2.564,1.003,3.947,1.167
		c0.623,0.077,1.244,0.152,1.879,0.127c1.421-0.05,2.576-0.634,3.464-1.726c0.266-0.317,0.508-0.672,0.66-1.053
		c0.533-1.396,0.609-2.792-0.063-4.176c-0.076-0.165-0.141-0.331-0.229-0.483c-0.166-0.279-0.317-0.558-0.521-0.799
		c-0.508-0.622-1.028-1.218-1.561-1.815c-0.191-0.216-0.393-0.419-0.622-0.583c-0.622-0.432-1.294-0.799-2.019-1.053v-1.904
		c0.165,0,0.304,0,0.444,0c1.879,0.051,3.757,0.038,5.635,0.102c1.193,0.038,2.375,0.038,3.567,0.063
		c2.145,0.026,4.314,0.064,6.473,0.09c1.128,0.013,2.259,0.025,3.388,0.051c2.196,0.038,4.405,0.063,6.601,0.101
		c1.155,0.013,2.31,0.038,3.465,0.051c2.183,0.025,4.354,0.05,6.536,0.076c2.513,0.026,5.039,0.051,7.564,0.088
		c0.279,0,0.559,0.039,0.839,0.051c0.012,0.038,0.012,0.051,0.037,0.089c-0.05,0.063-0.088,0.126-0.139,0.19
		c-0.266,0.33-0.546,0.66-0.813,0.99c-0.165,0.203-0.292,0.457-0.481,0.634c-0.687,0.635-1.283,1.346-1.765,2.132
		c-0.305,0.508-0.634,0.749-1.167,0.711c-0.787-0.063-1.561-0.101-2.348-0.139c-1.764-0.077-3.516-0.152-5.28-0.228
		c-2.107-0.103-4.215-0.204-6.308-0.293c-1.066-0.051-2.146-0.101-3.211-0.152c-1.853-0.089-3.706-0.178-5.56-0.267
		c-1.269-0.063-2.538-0.114-3.82-0.178c-1.688-0.076-3.375-0.165-5.063-0.241c-0.076,0-0.153,0-0.229,0
		c0.076,0.228,0.139,0.432,0.229,0.672c10.23,0.914,20.471,1.726,30.752,2.614c-0.088,0.115-0.14,0.179-0.19,0.241
		c-0.584,0.597-1.167,1.193-1.738,1.79c-0.622,0.646-1.244,1.307-1.866,1.967c-0.28,0.304-0.584,0.469-1.003,0.33
		c-0.05-0.025-0.113-0.038-0.178-0.051c-3.731-0.686-7.462-1.383-11.194-2.068c-4.632-0.851-9.265-1.714-13.897-2.564
		c-0.115-0.025-0.215-0.025-0.33-0.038c-0.013,0.026-0.025,0.051-0.038,0.089c0.076,0.077,0.14,0.178,0.215,0.229
		c0.088,0.063,0.204,0.075,0.305,0.113c1.04,0.292,2.082,0.572,3.122,0.863c2.349,0.647,4.696,1.308,7.044,1.955
		c0.965,0.266,1.93,0.508,2.894,0.773c0.888,0.241,1.763,0.495,2.64,0.749c0.051,0.013,0.089,0.013,0.139,0.026
		c0.318,0.076,0.648,0.152,0.965,0.228c0.507,0.126,1.003,0.28,1.51,0.406c0.38,0.102,0.762,0.165,1.143,0.254
		c0.165,0.038,0.33,0.114,0.495,0.165c0.432,0.127,0.876,0.216,1.294,0.381c0.572,0.228,1.181,0.355,1.765,0.545
		c0.126,0.038,0.267,0.089,0.508,0.165c-0.139,0.089-0.229,0.14-0.292,0.191c-1.282,1.142-2.577,2.297-3.858,3.452
		c-0.115,0.101-0.229,0.216-0.342,0.33c-0.242,0.254-0.509,0.33-0.825,0.178c-0.166-0.076-0.331-0.126-0.495-0.19
		c-5.865-2.285-11.716-4.582-17.579-6.866c-0.102-0.038-0.217-0.076-0.331-0.114c-0.05,0.406-0.038,0.495,0.279,0.686
		c0.395,0.229,0.801,0.418,1.194,0.635c3.858,2.068,7.704,4.15,11.562,6.218c0.838,0.458,1.689,0.889,2.526,1.333
		c0.215,0.114,0.444,0.216,0.634,0.432c-1.497,1.269-2.957,2.513-4.455,3.795c-2.143-1.599-4.187-3.35-6.307-5.013
		c-2.108-1.663-4.203-3.351-6.322-5.039c-0.088,0.127-0.165,0.229-0.241,0.33c0.076,0.089,0.14,0.165,0.204,0.242
		c1.725,1.789,3.465,3.579,5.191,5.368c1.662,1.727,3.337,3.465,5,5.204c0.089,0.089,0.166,0.191,0.255,0.28
		C235.415,591.712,234.171,592.512,232.928,593.299z"/>
	<path display="none" d="M232.356,593.198c-0.012-0.013-0.025-0.039-0.037-0.051c-2.006-2.589-3.999-5.178-6.003-7.769
		c-0.686-0.888-1.384-1.79-2.082-2.678c-0.102-0.126-0.177-0.292-0.444-0.203c0.064,0.153,0.114,0.305,0.204,0.445
		c1.244,2.157,2.488,4.302,3.744,6.448c0.825,1.409,1.65,2.817,2.463,4.226c0.088,0.152,0.215,0.305,0.189,0.508
		c-0.037,0.013-0.063,0.025-0.077,0.038c-1.307,0.19-2.614,0.393-3.921,0.571c-0.216,0.025-0.444,0.025-0.66,0.038
		c-0.113-0.254-0.203-0.47-0.292-0.698c-1.32-3.021-2.627-6.042-3.947-9.062c-0.153-0.343-0.292-0.672-0.456-1.003
		c-0.204-0.406-0.458-0.47-0.876-0.19c0.039,0.152,0.075,0.317,0.126,0.469c1.116,3.338,2.234,6.676,3.351,10.014
		c0.025,0.089,0.038,0.178,0.063,0.28c-0.051-0.013-0.076-0.026-0.102-0.039c-1.357-0.964-2.715-1.929-4.074-2.893
		c-0.254-0.178-0.407-0.432-0.47-0.737c-0.088-0.418-0.165-0.837-0.267-1.256c-0.33-1.498-0.66-2.995-1.002-4.493
		c-0.051-0.33-0.126-0.634-0.216-0.952c-0.063-0.203-0.204-0.304-0.483-0.266c0.128,1.917,0.242,3.821,0.37,5.775
		c-0.09-0.051-0.115-0.063-0.141-0.089c-0.71-0.8-2.854-3.021-2.843-3.604c0.013-0.229,0-0.457,0.013-0.673
		c0.026-0.66,0.051-1.308,0.076-1.967c0.013-0.253-0.076-0.381-0.24-0.418c-0.141-0.025-0.254,0.063-0.317,0.317
		c-0.152,0.52-0.292,1.054-0.433,1.586c-0.025,0.076-0.038,0.14-0.076,0.292c-0.126-0.152-0.228-0.24-0.304-0.355
		c-0.343-0.521-0.673-1.067-1.041-1.586c-0.266-0.368-0.458-0.749-0.355-1.219c0.013-0.038,0-0.076,0-0.101
		c-0.038-0.406-0.647-0.838-0.939-0.406c-0.076,0.114-0.089,0.253-0.063,0.381c0.025,0.102,0.05,0.19,0.102,0.279
		c0.114,0.229,0.24,0.457,0.393,0.685c0.558,0.839,1.117,1.689,1.688,2.526c0.736,1.092,1.472,2.17,2.196,3.262
		c0.368,0.559,0.342,0.635-0.204,0.978c-1.028,0.647-2.055,1.294-3.084,1.929c-0.076,0.051-0.152,0.089-0.255,0.152
		c-0.063-0.152-0.113-0.266-0.164-0.38c-1.422-3.643-2.843-7.286-4.277-10.928c-0.063-0.166-0.09-0.305-0.063-0.445
		c0.076-0.305,1.967-2.145,2.488-2.691l0.38-0.495c0.826,0.305,2.196,0.939,3.021,1.244c1.283,0.482,2.564,1.003,3.947,1.167
		c0.623,0.077,1.244,0.152,1.879,0.127c1.421-0.05,2.576-0.634,3.464-1.726c0.266-0.317,0.508-0.672,0.66-1.053
		c0.533-1.396,0.609-2.792-0.063-4.176c-0.076-0.165-0.141-0.331-0.229-0.483c-0.166-0.279-0.317-0.558-0.521-0.799
		c-0.508-0.622-1.028-1.218-1.561-1.815c-0.191-0.216-0.393-0.419-0.622-0.583c-0.622-0.432-1.294-0.799-2.019-1.053v-1.904
		c0.165,0,0.304,0,0.444,0c1.879,0.051,3.757,0.038,5.635,0.102c1.193,0.038,2.375,0.038,3.567,0.063
		c2.145,0.026,4.314,0.064,6.473,0.09c1.128,0.013,2.259,0.025,3.388,0.051c2.196,0.038,4.405,0.063,6.601,0.101
		c1.155,0.013,2.31,0.038,3.465,0.051c2.183,0.025,4.354,0.05,6.536,0.076c2.513,0.026,5.039,0.051,7.564,0.088
		c0.279,0,0.559,0.039,0.839,0.051c0.012,0.038,0.012,0.051,0.037,0.089c-0.05,0.063-0.088,0.126-0.139,0.19
		c-0.266,0.33-0.546,0.66-0.813,0.99c-0.165,0.203-0.292,0.457-0.481,0.634c-0.687,0.635-1.283,1.346-1.765,2.132
		c-0.305,0.508-0.634,0.749-1.167,0.711c-0.787-0.063-1.561-0.101-2.348-0.139c-1.764-0.077-3.516-0.152-5.28-0.228
		c-2.107-0.103-4.215-0.204-6.308-0.293c-1.066-0.051-2.146-0.101-3.211-0.152c-1.853-0.089-3.706-0.178-5.56-0.267
		c-1.269-0.063-2.538-0.114-3.82-0.178c-1.688-0.076-3.375-0.165-5.063-0.241c-0.076,0-0.153,0-0.229,0
		c0.076,0.228,0.139,0.432,0.229,0.672c10.23,0.914,20.471,1.726,30.752,2.614c-0.088,0.115-0.14,0.179-0.19,0.241
		c-0.584,0.597-1.167,1.193-1.738,1.79c-0.622,0.646-1.244,1.307-1.866,1.967c-0.28,0.304-0.584,0.469-1.003,0.33
		c-0.05-0.025-0.113-0.038-0.178-0.051c-3.731-0.686-7.462-1.383-11.194-2.068c-4.632-0.851-9.265-1.714-13.897-2.564
		c-0.115-0.025-0.215-0.025-0.33-0.038c-0.013,0.026-0.025,0.051-0.038,0.089c0.076,0.077,0.14,0.178,0.215,0.229
		c0.088,0.063,0.204,0.075,0.305,0.113c1.04,0.292,2.082,0.572,3.122,0.863c2.349,0.647,4.696,1.308,7.044,1.955
		c0.965,0.266,1.93,0.508,2.894,0.773c0.888,0.241,1.763,0.495,2.64,0.749c0.051,0.013,0.089,0.013,0.139,0.026
		c0.318,0.076,0.648,0.152,0.965,0.228c0.507,0.126,1.003,0.28,1.51,0.406c0.38,0.102,0.762,0.165,1.143,0.254
		c0.165,0.038,0.33,0.114,0.495,0.165c0.432,0.127,0.876,0.216,1.294,0.381c0.572,0.228,1.181,0.355,1.765,0.545
		c0.126,0.038,0.267,0.089,0.508,0.165c-0.139,0.089-0.229,0.14-0.292,0.191c-1.282,1.142-2.577,2.297-3.858,3.452
		c-0.115,0.101-0.229,0.216-0.342,0.33c-0.242,0.254-0.509,0.33-0.825,0.178c-0.166-0.076-0.331-0.126-0.495-0.19
		c-5.865-2.285-11.716-4.582-17.579-6.866c-0.102-0.038-0.217-0.076-0.331-0.114c-0.05,0.406-0.038,0.495,0.279,0.686
		c0.395,0.229,0.801,0.418,1.194,0.635c3.858,2.068,7.704,4.15,11.562,6.218c0.838,0.458,1.689,0.889,2.526,1.333
		c0.215,0.114,0.444,0.216,0.634,0.432c-1.497,1.269-2.957,2.513-4.455,3.795c-2.143-1.599-4.187-3.35-6.307-5.013
		c-2.108-1.663-4.203-3.351-6.322-5.039c-0.088,0.127-0.165,0.229-0.241,0.33c0.076,0.089,0.14,0.165,0.204,0.242
		c1.725,1.789,3.465,3.579,5.191,5.368c1.662,1.727,3.337,3.465,5,5.204c0.089,0.089,0.166,0.191,0.255,0.28
		c-1.283,0.812-2.527,1.611-3.77,2.398C232.598,593.502,232.585,593.502,232.356,593.198z"/>
	<path display="none" d="M210.539,603.427c0.28-0.444,0.559-0.888,0.863-1.32c0.204-0.292,0.229-0.597,0.103-0.914
		c-0.051-0.127-0.115-0.253-0.19-0.381c-0.647-1.142-1.295-2.271-1.942-3.414c-0.05-0.076-0.076-0.165-0.139-0.292
		c0.761-0.597,1.51-1.193,2.285-1.803c0.101,0.204,0.176,0.356,0.253,0.521c0.635,1.333,1.256,2.666,1.917,3.985
		c0.444,0.875,0.279,0.799,1.371,0.774c0.939-0.024,1.879-0.051,2.818-0.088c0.101,0,0.204,0.013,0.317,0.025
		c-0.203,1.307-0.405,2.588-0.608,3.858c-0.103-0.064-0.14-0.14-0.178-0.216c-0.279-0.495-0.571-0.99-0.85-1.484
		c-0.077-0.14-0.179-0.254-0.356-0.254c-0.393,0-0.774,0-1.206,0c0.051,0.115,0.089,0.191,0.127,0.254
		c0.736,1.345,1.46,2.703,2.195,4.048c0.09,0.153,0.166,0.317,0.242,0.482c0.191,0.406,0.115,0.787-0.202,1.079
		c-0.216,0.203-0.471,0.355-0.724,0.508c-0.749,0.431-1.575,0.331-2.451,0.355c0.141-0.152,0.229-0.279,0.332-0.381
		c0.241-0.229,0.494-0.444,0.723-0.697c0.419-0.458,0.444-0.762,0.127-1.282c-0.418-0.673-0.838-1.358-1.257-2.031
		c-0.228-0.355-0.457-0.724-0.685-1.091c-0.165,0.127-0.304,0.241-0.47,0.342c-0.189,0.127-0.266,0.28-0.177,0.521
		c0.241,0.698,0.482,1.396,0.723,2.094c0.025,0.076,0.038,0.139,0.076,0.292c-0.164-0.115-0.279-0.179-0.38-0.254
		c-0.838-0.597-1.663-1.193-2.488-1.79c-0.063-0.05-0.139-0.088-0.203-0.152c-0.268-0.228-0.317-0.394-0.204-0.724
		C210.336,603.808,210.426,603.604,210.539,603.427z"/>
	<path display="none" d="M203.279,574.654c-0.533,1.167-1.053,2.335-1.586,3.503c-0.025,0.063-0.076,0.14-0.127,0.229
		c-0.102-0.089-0.165-0.152-0.229-0.216c-0.634-0.698-1.268-1.383-1.903-2.081c-0.458-0.495-0.914-0.977-1.372-1.459
		c-0.229-0.241-0.329-0.521-0.266-0.851c0.153-0.863,0.571-1.574,1.231-2.157c0.126-0.102,0.279-0.178,0.406-0.267
		c0.253,0.19,0.456,0.356,0.672,0.508c1.028,0.711,2.057,1.421,3.085,2.132c0.253,0.178,0.266,0.203,0.152,0.495
		C203.317,574.54,203.292,574.604,203.279,574.654z"/>
	<path display="none" d="M210.717,573.893c1.662-0.939,3.3-1.878,4.95-2.817c-0.026-0.063-0.026-0.127-0.051-0.178
		c-0.228-0.482-0.469-0.964-0.698-1.447c-0.076-0.165-0.177-0.229-0.355-0.216c-0.686,0.051-1.357,0.089-2.031,0.127
		c-1.32,0.089-2.627,0.152-3.947,0.241c-0.508,0.039-1.016,0.089-1.523,0.127c-0.115,0.52-0.051,0.711,0.406,0.825
		c1.511,0.393,2.31,1.523,2.958,2.83c0.076,0.152,0.139,0.305,0.203,0.457C210.628,573.867,210.654,573.88,210.717,573.893z
		 M212.354,570.923c-0.012-0.28,0.368-0.622,0.711-0.622c0.28-0.013,0.572,0.317,0.559,0.622c-0.013,0.305-0.344,0.609-0.674,0.609
		C212.685,571.532,212.367,571.202,212.354,570.923z"/>
	<path display="none" d="M207.835,571.646c1.003,0.508,1.98,1.713,2.272,2.792c-0.33,0.495-3.312,4.062-3.528,4.214
		c-0.267-0.419-1.74-4.214-1.79-4.582c0.013-0.013,0.026-0.039,0.038-0.051c0.851-0.685,1.701-1.383,2.551-2.068
		C207.543,571.837,207.709,571.748,207.835,571.646z"/>
	<path display="none" d="M200.627,570.225c-0.216,0.051-0.432,0.127-0.66,0.152c-0.597,0.076-1.078,0.369-1.485,0.787
		c-0.317,0.317-0.597,0.673-0.877,1.027c-0.241,0.318-0.367,0.687-0.405,1.08c-0.05,0.444-0.139,0.888-0.215,1.333
		c-0.724-0.089-1.042-0.305-1.294-0.914c-0.192-0.457-0.433-0.875-0.75-1.257c-0.369-0.443-0.788-0.787-1.345-0.951
		c-0.166-0.051-0.331-0.051-0.483-0.114c-0.076-0.026-0.164-0.127-0.164-0.178c0-0.406,0.038-0.8,0.063-1.194
		c1.041-0.164,7.425-0.659,7.729-0.583c0.025,0.152,0.063,0.317,0.088,0.482C200.855,570.072,200.792,570.174,200.627,570.225z"/>
	<path display="none" d="M194.802,573.373c0.049,0.051,0.101,0.114,0.177,0.215c-0.838,0.102-1.625,0.203-2.399,0.305
		c-0.305,0.038-0.305,0.038-0.356,0.33c-0.102,0.507-0.228,1.015-0.495,1.574c-0.559-0.838-1.155-1.562-1.522-2.424
		c-0.026-0.077-0.051-0.152-0.064-0.242c-0.05-0.394,0.064-0.571,0.444-0.686c0.457-0.126,0.914-0.266,1.372-0.38
		c0.266-0.064,0.533-0.114,0.8-0.177c0.177-0.039,0.316,0.012,0.456,0.126C193.722,572.471,194.268,572.916,194.802,573.373z"/>
	<path display="none" d="M217.964,573.842c-0.038,0.038-0.076,0.089-0.127,0.127c-0.545,0.596-1.091,1.193-1.637,1.776
		c-0.039,0.038-0.088,0.076-0.151,0.126c0-0.266-0.026-0.494,0-0.723c0.076-0.622-0.204-0.977-0.75-1.219
		c-0.545-0.241-1.078-0.507-1.612-0.762c-0.102-0.05-0.203-0.102-0.355-0.19c0.673-0.356,1.294-0.673,1.904-1.016
		c0.127-0.075,0.229-0.012,0.331,0.038c0.748,0.343,1.484,0.674,2.234,1.016C218.281,573.271,218.319,573.448,217.964,573.842z"/>
	<path display="none" d="M210.882,593.134c0.253,0.647,0.229,0.724-0.304,1.181c-0.902,0.762-1.791,1.536-2.68,2.31
		c-0.063,0.063-0.126,0.126-0.176,0.19c0.025,0.076,0.037,0.114,0.05,0.165c0.673,1.46,1.358,2.906,2.03,4.366
		c0.064,0.14,0.115,0.279,0.179,0.431c0.063,0.14,0.037,0.28-0.038,0.406c-0.115,0.191-0.725,0.8-0.965,0.939
		c-0.051-0.114-0.102-0.216-0.152-0.317c-0.533-1.257-1.079-2.513-1.611-3.77c-0.089-0.19-0.153-0.406-0.356-0.507
		c-0.343,0.178-0.368,0.253-0.215,0.66c0.469,1.333,0.94,2.665,1.421,3.998c0.103,0.292,0.103,0.559-0.102,0.8
		c-0.267,0.316-0.532,0.634-0.787,0.952c-0.241-0.051-0.266-0.242-0.329-0.406c-0.458-1.32-0.915-2.653-1.372-3.972
		c-0.088-0.28-0.215-0.546-0.316-0.826c-0.254,0.241-0.267,0.254-0.191,0.508c0.127,0.508,0.254,1.015,0.406,1.51
		c0.33,1.117,0.66,2.234,0.99,3.351c0.101,0.343,0.051,0.647-0.178,0.927c-0.444,0.571-1.675,1.713-2.209,2.209v0.063
		c-0.013-0.013-0.025-0.024-0.037-0.024c-0.013,0.012-0.026,0.024-0.039,0.024v-0.063c-0.521-0.496-1.765-1.638-2.208-2.209
		c-0.229-0.292-0.28-0.584-0.177-0.927c0.33-1.116,0.672-2.234,0.989-3.351c0.14-0.508,0.279-1.015,0.407-1.51
		c0.063-0.254,0.063-0.267-0.192-0.508c-0.113,0.28-0.227,0.546-0.315,0.826c-0.458,1.319-0.915,2.652-1.372,3.972
		c-0.051,0.165-0.076,0.355-0.33,0.406c-0.253-0.318-0.521-0.635-0.786-0.952c-0.204-0.241-0.204-0.509-0.103-0.8
		c0.482-1.333,0.952-2.665,1.422-3.998c0.14-0.407,0.114-0.482-0.216-0.66c-0.216,0.101-0.279,0.304-0.355,0.507
		c-0.546,1.257-1.08,2.513-1.612,3.77c-0.051,0.114-0.102,0.215-0.152,0.317c-0.242-0.152-0.851-0.749-0.964-0.939
		c-0.09-0.126-0.128-0.253-0.051-0.406c0.064-0.139,0.114-0.292,0.177-0.431c0.673-1.46,1.358-2.906,2.03-4.366
		c0.026-0.038,0.026-0.088,0.052-0.165c-0.052-0.064-0.116-0.127-0.178-0.19c-0.889-0.774-1.776-1.536-2.677-2.31
		c-0.534-0.457-0.559-0.546-0.305-1.181c1.853-4.709,3.705-9.43,5.546-14.139c0.457-1.155,0.901-2.298,1.358-3.453
		c0-0.013,0.012-0.025,0.012-0.038l0.076,0.038c0.458,1.155,0.902,2.297,1.358,3.453
		C207.188,583.704,209.042,588.425,210.882,593.134z"/>
	<path display="none" d="M191.755,602.691c-0.279,0.495-0.571,0.99-0.851,1.484c-0.037,0.077-0.076,0.14-0.178,0.216
		c-0.202-1.269-0.406-2.551-0.608-3.858c0.114-0.012,0.215-0.025,0.317-0.025c0.938,0.025,1.879,0.051,2.818,0.089
		c1.091,0.025,0.927,0.102,1.37-0.774c0.661-1.32,1.283-2.653,1.917-3.985c0.076-0.165,0.152-0.317,0.254-0.52
		c0.774,0.609,1.523,1.205,2.284,1.802c-0.063,0.114-0.089,0.203-0.14,0.292c-0.647,1.142-1.294,2.271-1.94,3.414
		c-0.077,0.127-0.14,0.254-0.192,0.381c-0.126,0.317-0.101,0.622,0.102,0.914c0.292,0.432,0.584,0.876,0.863,1.32
		c0.115,0.178,0.203,0.381,0.279,0.584c0.116,0.317,0.064,0.495-0.203,0.723c-0.063,0.051-0.139,0.102-0.203,0.153
		c-0.825,0.595-1.662,1.192-2.488,1.788c-0.102,0.077-0.215,0.141-0.381,0.254c0.038-0.14,0.051-0.216,0.076-0.292
		c0.242-0.697,0.471-1.396,0.724-2.094c0.076-0.228,0.013-0.381-0.177-0.521c-0.151-0.102-0.304-0.228-0.47-0.342
		c-0.229,0.368-0.457,0.723-0.685,1.091c-0.419,0.672-0.837,1.358-1.256,2.03c-0.318,0.52-0.305,0.825,0.126,1.282
		c0.229,0.241,0.483,0.457,0.724,0.698c0.101,0.102,0.204,0.229,0.33,0.381c-0.875-0.025-1.7,0.076-2.45-0.355
		c-0.253-0.152-0.507-0.304-0.723-0.507c-0.317-0.292-0.393-0.673-0.203-1.079c0.077-0.165,0.153-0.317,0.241-0.483
		c0.736-1.346,1.46-2.704,2.196-4.048c0.038-0.077,0.077-0.14,0.127-0.254c-0.47-0.013-0.85-0.013-1.243-0.013
		C191.932,602.437,191.831,602.552,191.755,602.691z"/>
	<path display="none" d="M187.122,569.184c-0.534,0.596-1.053,1.206-1.561,1.815c-0.204,0.241-0.355,0.533-0.52,0.799
		c-0.089,0.153-0.153,0.317-0.229,0.482c-0.672,1.384-0.609,2.792-0.063,4.176c0.152,0.381,0.394,0.736,0.66,1.054
		c0.889,1.091,2.043,1.675,3.465,1.726c0.635,0.025,1.256-0.051,1.878-0.127c1.383-0.177,2.666-0.685,3.947-1.167
		c0.825-0.317,2.195-0.939,3.021-1.244l0.381,0.495c0.52,0.546,2.424,2.386,2.487,2.691c0.025,0.126,0,0.278-0.063,0.443
		c-1.435,3.643-2.856,7.286-4.278,10.928c-0.051,0.115-0.101,0.242-0.165,0.381c-0.101-0.051-0.177-0.102-0.253-0.152
		c-1.028-0.648-2.057-1.282-3.084-1.929c-0.546-0.343-0.571-0.419-0.203-0.978c0.723-1.091,1.46-2.17,2.195-3.261
		c0.559-0.838,1.129-1.675,1.688-2.525c0.14-0.216,0.267-0.445,0.394-0.686c0.039-0.089,0.076-0.178,0.102-0.279
		c0.025-0.127,0.013-0.267-0.063-0.38c-0.292-0.432-0.902,0-0.939,0.406c0,0.039-0.012,0.076,0,0.102
		c0.101,0.47-0.088,0.85-0.356,1.219c-0.367,0.52-0.684,1.054-1.04,1.586c-0.075,0.114-0.178,0.203-0.304,0.355
		c-0.038-0.139-0.064-0.216-0.076-0.292c-0.139-0.534-0.28-1.053-0.433-1.586c-0.063-0.242-0.177-0.343-0.316-0.318
		c-0.165,0.038-0.254,0.166-0.241,0.419c0.025,0.659,0.051,1.307,0.076,1.967c0.012,0.229,0,0.457,0.012,0.672
		c0.013,0.571-2.131,2.793-2.843,3.604c-0.025,0.038-0.05,0.038-0.14,0.089c0.127-1.942,0.242-3.858,0.368-5.775
		c-0.267-0.038-0.418,0.063-0.482,0.267c-0.088,0.305-0.165,0.622-0.228,0.927c-0.331,1.497-0.673,2.995-1.003,4.493
		c-0.088,0.419-0.178,0.837-0.267,1.256c-0.063,0.305-0.215,0.546-0.469,0.736c-1.358,0.965-2.716,1.929-4.074,2.894
		c-0.013,0.013-0.038,0.013-0.101,0.038c0.025-0.101,0.038-0.19,0.063-0.279c1.118-3.337,2.234-6.676,3.351-10.014
		c0.051-0.152,0.089-0.317,0.127-0.47c-0.419-0.266-0.673-0.215-0.876,0.191c-0.165,0.33-0.316,0.672-0.457,1.002
		c-1.32,3.021-2.627,6.042-3.947,9.062c-0.088,0.216-0.19,0.432-0.292,0.698c-0.215-0.012-0.443,0-0.66-0.038
		c-1.307-0.191-2.614-0.381-3.921-0.571c-0.025,0-0.038-0.013-0.076-0.039c-0.025-0.203,0.101-0.355,0.19-0.507
		c0.813-1.409,1.637-2.817,2.462-4.227c1.244-2.146,2.5-4.302,3.744-6.447c0.077-0.14,0.127-0.292,0.203-0.444
		c-0.265-0.089-0.343,0.076-0.444,0.203c-0.697,0.889-1.396,1.777-2.081,2.678c-2.006,2.589-3.998,5.178-6.003,7.767
		c-0.013,0.013-0.026,0.038-0.039,0.051c-0.229,0.292-0.241,0.305-0.57,0.102c-1.244-0.787-2.488-1.587-3.77-2.399
		c0.088-0.101,0.165-0.19,0.253-0.279c1.663-1.739,3.326-3.465,5.001-5.204c1.727-1.789,3.452-3.579,5.191-5.369
		c0.063-0.064,0.126-0.139,0.203-0.241c-0.076-0.101-0.152-0.203-0.24-0.33c-2.12,1.688-4.215,3.376-6.322,5.038
		c-2.107,1.663-4.149,3.415-6.308,5.014c-1.498-1.282-2.97-2.526-4.455-3.795c0.19-0.228,0.418-0.317,0.634-0.431
		c0.837-0.444,1.688-0.888,2.526-1.333c3.859-2.069,7.704-4.15,11.563-6.219c0.394-0.215,0.813-0.406,1.194-0.635
		c0.317-0.19,0.342-0.279,0.278-0.685c-0.114,0.038-0.229,0.076-0.33,0.114c-5.863,2.284-11.715,4.583-17.579,6.867
		c-0.166,0.063-0.343,0.114-0.494,0.19c-0.318,0.152-0.585,0.076-0.826-0.178c-0.114-0.114-0.229-0.229-0.342-0.33
		c-1.283-1.155-2.564-2.297-3.859-3.453c-0.063-0.063-0.153-0.101-0.292-0.19c0.241-0.076,0.368-0.114,0.508-0.165
		c0.583-0.19,1.181-0.317,1.764-0.546c0.418-0.165,0.863-0.254,1.294-0.381c0.166-0.051,0.33-0.127,0.496-0.166
		c0.38-0.088,0.762-0.165,1.142-0.253c0.508-0.127,1.003-0.279,1.511-0.406c0.317-0.089,0.647-0.152,0.965-0.229
		c0.05-0.013,0.088-0.013,0.139-0.025c0.876-0.254,1.764-0.508,2.64-0.749c0.965-0.267,1.93-0.508,2.894-0.774
		c2.349-0.647,4.695-1.308,7.044-1.954c1.042-0.292,2.082-0.572,3.123-0.864c0.102-0.025,0.216-0.05,0.304-0.114
		c0.09-0.064,0.152-0.152,0.216-0.229c-0.013-0.025-0.025-0.051-0.038-0.089c-0.114,0.013-0.216,0.013-0.33,0.039
		c-4.633,0.85-9.266,1.713-13.898,2.563c-3.73,0.686-7.462,1.384-11.194,2.069c-0.063,0.013-0.114,0.025-0.177,0.05
		c-0.406,0.153-0.711-0.025-1.003-0.33c-0.622-0.66-1.243-1.32-1.866-1.967c-0.571-0.597-1.167-1.193-1.739-1.79
		c-0.049-0.05-0.101-0.127-0.19-0.24c10.282-0.889,20.524-1.701,30.754-2.628c0.076-0.241,0.139-0.432,0.228-0.673
		c-0.077,0-0.152,0-0.228,0c-1.688,0.076-3.377,0.165-5.065,0.241c-1.269,0.064-2.538,0.115-3.82,0.177
		c-1.853,0.089-3.706,0.178-5.559,0.267c-1.066,0.051-2.146,0.102-3.211,0.152c-2.107,0.102-4.214,0.203-6.309,0.292
		c-1.764,0.077-3.515,0.153-5.28,0.229c-0.787,0.038-1.574,0.076-2.347,0.14c-0.521,0.051-0.852-0.19-1.168-0.711
		c-0.483-0.8-1.079-1.498-1.764-2.132c-0.204-0.178-0.318-0.431-0.482-0.634c-0.267-0.33-0.534-0.66-0.813-0.991
		c-0.044-0.055-0.081-0.112-0.123-0.167c0.002-0.005,0.005-0.01,0.009-0.023c0.279-0.013,0.559-0.051,0.837-0.051
		c2.526-0.025,5.039-0.05,7.565-0.088c2.183-0.025,4.354-0.051,6.537-0.089c1.155-0.013,2.311-0.038,3.465-0.051
		c2.196-0.038,4.403-0.063,6.6-0.102c1.129-0.013,2.259-0.025,3.389-0.051c2.17-0.025,4.329-0.051,6.498-0.089
		c1.193-0.013,2.374-0.025,3.566-0.063c1.879-0.064,3.758-0.064,5.636-0.102c0.139,0,0.278,0,0.444,0v1.866
		c-0.725,0.254-1.396,0.622-2.019,1.053C187.517,568.765,187.313,568.968,187.122,569.184z"/>
	<path display="none" fill="#FFFFFF" d="M1143.858,415.979c27.049,0,125.482,0,168.982,0c18.589,15.058,0,30.116,0,30.116h-168.982
		C1143.858,446.094,1119.32,432.988,1143.858,415.979z"/>
	<path display="none" fill="#FFFFFF" d="M1143.858,495.45c27.049,0,125.482,0,168.982,0c18.589,15.058,0,30.116,0,30.116h-168.982
		C1143.858,525.566,1119.32,512.46,1143.858,495.45z"/>
	<path display="none" fill="#FFFFFF" d="M1143.858,590.258c27.049,0,125.482,0,168.982,0c18.589,15.058,0,30.116,0,30.116h-168.982
		C1143.858,620.374,1119.32,607.269,1143.858,590.258z"/>
	<path display="none" fill="#FFFFFF" d="M1143.858,669.452c27.049,0,125.482,0,168.982,0c18.589,15.058,0,30.116,0,30.116h-168.982
		C1143.858,699.567,1119.32,686.461,1143.858,669.452z"/>
	<rect x="410.395" y="357.699" display="none" fill="#FFFFFF" width="11.991" height="88.395"/>
	<rect x="395.151" y="357.699" display="none" fill="#FFFFFF" width="11.991" height="88.395"/>
	<rect x="380.094" y="357.699" display="none" fill="#FFFFFF" width="11.991" height="88.395"/>
	<rect x="364.896" y="357.699" display="none" fill="#FFFFFF" width="11.99" height="88.395"/>
	<rect x="471.114" y="357.699" display="none" fill="#FFFFFF" width="11.99" height="88.395"/>
	<rect x="455.871" y="357.699" display="none" fill="#FFFFFF" width="11.99" height="88.395"/>
	<rect x="440.813" y="357.699" display="none" fill="#FFFFFF" width="11.991" height="88.395"/>
	<rect x="425.616" y="357.699" display="none" fill="#FFFFFF" width="11.991" height="88.395"/>
	<rect x="531.739" y="357.699" display="none" fill="#FFFFFF" width="11.99" height="88.395"/>
	<rect x="516.496" y="357.699" display="none" fill="#FFFFFF" width="11.991" height="88.395"/>
	<rect x="501.438" y="357.699" display="none" fill="#FFFFFF" width="11.991" height="88.395"/>
	<rect x="486.241" y="357.699" display="none" fill="#FFFFFF" width="11.991" height="88.395"/>
	<rect x="592.458" y="357.699" display="none" fill="#FFFFFF" width="11.99" height="88.395"/>
	<rect x="577.215" y="357.699" display="none" fill="#FFFFFF" width="11.991" height="88.395"/>
	<rect x="562.157" y="357.699" display="none" fill="#FFFFFF" width="11.991" height="88.395"/>
	<rect x="546.96" y="357.699" display="none" fill="#FFFFFF" width="11.991" height="88.395"/>
	<rect x="653.271" y="357.699" display="none" fill="#FFFFFF" width="11.99" height="88.395"/>
	<rect x="638.028" y="357.699" display="none" fill="#FFFFFF" width="11.99" height="88.395"/>
	<rect x="622.971" y="357.699" display="none" fill="#FFFFFF" width="11.99" height="88.395"/>
	<rect x="607.773" y="357.699" display="none" fill="#FFFFFF" width="11.991" height="88.395"/>
	<rect x="713.99" y="357.699" display="none" fill="#FFFFFF" width="11.99" height="88.395"/>
	<rect x="698.748" y="357.699" display="none" fill="#FFFFFF" width="11.99" height="88.395"/>
	<rect x="683.689" y="357.699" display="none" fill="#FFFFFF" width="11.991" height="88.395"/>
	<rect x="668.493" y="357.699" display="none" fill="#FFFFFF" width="11.99" height="88.395"/>
	<rect x="774.616" y="357.699" display="none" fill="#FFFFFF" width="11.99" height="88.395"/>
	<rect x="759.373" y="357.699" display="none" fill="#FFFFFF" width="11.99" height="88.395"/>
	<rect x="744.315" y="357.699" display="none" fill="#FFFFFF" width="11.99" height="88.395"/>
	<rect x="729.118" y="357.699" display="none" fill="#FFFFFF" width="11.991" height="88.395"/>
	<rect x="835.335" y="357.699" display="none" fill="#FFFFFF" width="11.991" height="88.395"/>
	<rect x="820.092" y="357.699" display="none" fill="#FFFFFF" width="11.991" height="88.395"/>
	<rect x="805.034" y="357.699" display="none" fill="#FFFFFF" width="11.99" height="88.395"/>
	<rect x="789.837" y="357.699" display="none" fill="#FFFFFF" width="11.991" height="88.395"/>
</g>
</svg>
