<?xml version="1.0" encoding="utf-8"?>
<!-- Generator: Adobe Illustrator 16.0.3, SVG Export Plug-In . SVG Version: 6.00 Build 0)  -->
<!DOCTYPE svg PUBLIC "-//W3C//DTD SVG 1.1//EN" "http://www.w3.org/Graphics/SVG/1.1/DTD/svg11.dtd">
<svg version="1.1" id="Ebene_5" xmlns="http://www.w3.org/2000/svg" xmlns:xlink="http://www.w3.org/1999/xlink" x="0px" y="0px"
	 width="1417.32px" height="1417.32px" viewBox="0 0 1417.32 1417.32" enable-background="new 0 0 1417.32 1417.32"
	 xml:space="preserve">
<g>
	<polygon fill="none" points="528.166,730.938 537.159,740.629 553.516,725.449 543.123,716.988 	"/>
	<path d="M569.934,938.333l-0.638-2.86c-2.062,3.886-4.571,7.403-7.404,10.419L569.934,938.333z"/>
	<path d="M424.525,872.556c-0.549,0.468-0.523,1.603,0.036,2.157c0.558,0.555,1.715,0.553,2.34-0.028
		c0.504-0.468,0.525-1.647,0.059-2.197C426.495,871.936,425.175,871.955,424.525,872.556z"/>
	<path d="M1264.749,65.405c0,0-704.177,653.949-707.523,656.602c-4.466-3.27-13.687-10.128-13.687-10.128l-17.725,16.449
		l-11.795-2.215c0,0-18.958,17.591-29,26.91c-5.844-5.129-15.566-13.663-15.566-13.663l-26.644,24.801l8.338,8.985l-13.224,12.334
		l-8.368-9.021l-13.295,12.337l8.369,9.019l-13.233,12.282l-8.368-9.019l-13.313,12.354l8.368,9.019l-13.31,12.355l-8.37-9.019
		l-30.928,28.702c0,0,4.337,4.657-2.006,10.544c-6.344,5.888-10.602,1.155-10.602,1.155l-24.47,22.71l20.542,22.136l-43.327,40.209
		l31.688,34.146l-185.632,172.04l-34.505,16.845c0,0,3.701,8.161,4.807,10.947c-124.667,32.09,8.44,164.48,44.424,47.867
		c11.396,14.979,10.66,5.72,10.66,5.72l19.153-33.388l187.207-173.735c0,0,23.509,25.525,33.969,36.636
		c10.354-1.649,13.428-15.314,25.68-10.602c-2.608,4.421-4.246,8.726-7.155,11.848c-10.157,10.901-20.228,21.98-31.301,31.909
		c-18.155,16.282-37.054,31.741-55.675,47.503c-6.982,5.908-14.349,11.393-21.033,17.615c-7.69,7.156-14.82,14.914-22.189,22.416
		c-10.698,10.888-21.657,21.534-32,32.75c-7.375,7.999-7.146,21.121-0.418,30.156c5.007,6.722,20.769,10.475,30.021,7.149
		c7.937-2.856,12.516-12.212,11.465-23.567c-0.403-4.363-0.938-8.719-1.398-12.947c22.395-31.669,53.021-54.673,80.83-80.424
		c17.169-15.895,35.51-30.535,53.515-45.512c13.835-11.508,25.265-24.643,30.471-42.776c5.753-2.071,11.373-4.095,18.671-6.72
		c-7.922-9.191-15.239-17.683-23.055-26.752c3.336-3.438,5.907-6.028,8.411-8.679c3.722-3.939,7.511-7.823,11.075-11.899
		c11.015-12.6,14.707-13.944,27.997-9.259c6.687,2.357,16.948-3.608,16.948-3.608l39.747-37.363
		c-3.497,2.884-7.332,5.049-11.323,6.297c-1.495-6.78-6.831-31.037-6.831-31.037l24.669-10.831l-0.822-3.69l733.945-681.125
		l-2.768-131.322L1264.749,65.405z M465.705,839.948c0.615-0.348,1.208-0.719,1.823-1.065c1.064-0.586,2.173-1.123,3.259-1.685
		c0.92-0.452,1.448-0.316,2.042,0.518c0.131,0.19,0.217,0.378,0.303,0.567c0.817,2.277,0.958,4.69,1.371,7.252
		c-1.482-0.587-2.614-1.324-3.695-2.106c-0.608-0.461-0.608-0.461-1.251,0c-1.644,1.164-3.308,2.353-5.07,3.63
		c-0.035-0.326-0.049-0.534-0.043-0.72c0.208-1.799,0.46-3.597,0.62-5.351C465.128,840.529,465.302,840.188,465.705,839.948z
		 M446.948,850.335c-0.241-0.356-0.458-0.735-0.677-1.067c0.442-0.679,13.381-10.938,15.637-12.45c0.739,0.7,1.5,1.376,2.213,2.145
		c0.088,0.095,0.1,0.443,0,0.626c-0.177,0.387-0.489,0.677-0.712,1.061c-0.767,1.293-0.958,2.675-0.874,4.159
		c0.067,1.277,0.346,2.49,0.787,3.689c0.588,1.596,0.367,2.56-0.845,3.997c-0.923-0.705-1.871-1.389-2.745-2.142
		c-0.762-0.677-1.648-1.149-2.659-1.327c-1.152-0.184-2.303-0.365-3.46-0.408c-1.501-0.079-2.924,0.213-4.188,1.116
		c-0.476,0.354-1.018,0.588-1.514,0.869C447.51,850.796,447.211,850.715,446.948,850.335z M449.673,862.226
		c0.698-3.146,1.395-6.293,2.091-9.439c0.141-0.666,0.237-1.335,0.382-2.141c0.396-0.054,0.818-0.177,1.235-0.208
		c2.273-0.054,4.311,0.556,6.11,1.922c0.7,0.512,0.997,1.218,0.989,2.075c-0.019,1.712-0.037,3.426-0.033,5.163
		c0.024,2.431,0.026,4.841,0.05,7.274c-0.009,0.231-0.018,0.46-0.054,0.808c-0.251-0.078-0.48-0.133-0.64-0.209
		c-3.056-1.273-6.086-2.568-9.142-3.842c-0.113-0.073-0.273-0.148-0.41-0.2C449.525,863.077,449.504,863.007,449.673,862.226z
		 M446.782,865.174c0.55,0.784,4.421,10.543,4.651,11.8c-0.674,0.091-12.568-1.422-14.061-1.779
		c-1.34-2.552-1.606-6.544-0.601-9.263c0.418-0.032,0.886-0.151,1.398-0.225c2.809-0.195,5.642-0.367,8.451-0.562
		C446.667,865.146,446.737,865.173,446.782,865.174z M420.749,878.158c-0.414-1.312-0.804-2.647-1.217-3.96
		c-0.146-0.446-0.065-0.743,0.293-1.031c1.384-1.105,2.723-2.213,4.062-3.32c2.651-2.147,5.235-4.319,7.886-6.466
		c1.026-0.818,2.076-1.612,3.103-2.432c1.128,0.783,1.343,1.257,0.678,2.273c-2.165,3.393-1.697,6.93-0.628,10.536
		c0.123,0.421,0.27,0.821,0.418,1.22c0.043,0.048,0.018,0.118-0.079,0.252c-4.791,1.14-9.533,2.234-14.3,3.354
		C420.9,878.419,420.79,878.299,420.749,878.158z M422.781,880.157c0.103-0.273,0.184-0.572,0.557-0.65
		c1.752-0.421,3.484-0.911,5.38-1.42c-0.132,0.437-0.235,0.71-0.338,0.984c-0.563,1.415-1.103,2.853-1.711,4.267
		c-0.61,1.412-0.516,2.575,0.719,3.617c0.45,0.386,0.802,0.863,1.269,1.366c-0.209,0.018-0.372,0.032-0.51,0.028
		c-2.056-0.147-4.133-0.318-6.211-0.488c-0.164,0.017-0.323-0.014-0.462-0.02c-1.363-0.118-1.603-0.521-1.136-1.85
		C421.152,884.033,421.966,882.118,422.781,880.157z M449.343,922.034c0.414,0.688,0.569,1.434,0.402,2.216
		c-0.876,4.204-1.752,8.41-2.628,12.614c-0.027,0.069-0.053,0.136-0.125,0.251c-0.131-0.236-0.262-0.427-0.37-0.641
		c-3.742-8.269-7.483-16.539-11.224-24.808c-0.171-0.377-0.389-0.757-0.583-1.112c-1.281,0.207-1.651,0.772-1.323,1.896
		c0.267,0.913,0.581,1.782,0.894,2.697c2.802,8.026,5.626,16.029,8.427,24.055c0.233,0.588,0.444,1.151,0.672,1.833
		c-0.431,0.354-0.861,0.755-1.314,1.083c-2.783,1.958-5.611,3.867-8.417,5.798c-0.046,0-0.117,0.02-0.21,0.063
		c-0.405-0.34-0.431-0.851-0.531-1.294c-0.935-4.087-1.844-8.196-2.755-12.31c-1.385-6.257-2.796-12.495-4.227-18.754
		c-0.076-0.421-0.248-0.798-0.395-1.196c-0.66,0.298-0.515,0.744-0.483,1.162c0.237,2.904,0.499,5.83,0.76,8.714
		c0.748,8.411,1.521,16.8,2.27,25.214c-0.003,0.044,0.02,0.113,0.016,0.162c0.103,0.975,0.079,0.998-0.901,1.193
		c-3.732,0.692-7.486,1.361-11.334,2.074c0.013-0.323-0.021-0.648-0.01-0.974c0.095-6.203,0.213-12.429,0.331-18.607
		c0.126-6.41,0.276-12.843,0.401-19.254c-0.013-0.257-0.027-0.51-0.039-0.811c-0.322-0.061-0.645-0.118-1.035-0.201
		c-1.047,6.908-2.046,13.771-3.116,20.608c-1.092,6.861-1.884,13.757-3.134,20.541c-5.081,0.203-10.021,0.41-15.078,0.637
		c-0.018-0.742,0.235-1.335,0.442-1.928c0.806-2.311,1.657-4.617,2.439-6.949c3.667-10.679,7.29-21.355,10.957-32.035
		c0.365-1.098,0.8-2.171,1.143-3.291c0.266-0.917,0.135-1.107-0.674-1.785c-0.15,0.272-0.299,0.544-0.425,0.795
		c-7.08,14.602-14.116,29.204-21.196,43.805c-0.2,0.41-0.423,0.796-0.602,1.23c-0.333,0.844-0.97,1.166-1.871,1.109
		c-0.417-0.015-0.833-0.032-1.228-0.022c-4.448,0.063-8.921,0.149-13.349,0.237c-0.209,0.017-0.466,0.075-0.886,0.152
		c0.322-0.565,0.499-0.907,0.671-1.202c0.77-1.385,1.7-2.691,2.377-4.123c0.503-1.05,1.188-1.995,1.781-2.993
		c0.223-0.384,0.402-0.817,0.646-1.18c0.564-0.835,1.173-1.622,1.716-2.482c0.737-1.13,1.405-2.285,2.142-3.417
		c0.468-0.699,0.958-1.423,1.425-2.122c0.074-0.112,0.146-0.181,0.219-0.294c1.211-2.017,2.422-4.031,3.679-6.044
		c1.356-2.196,2.757-4.343,4.114-6.54c3.305-5.342,6.587-10.704,9.89-16.047c1.457-2.376,2.935-4.729,4.393-7.106
		c0.124-0.25,0.317-0.475,0.375-0.75c0.054-0.229-0.003-0.531,0.006-0.809c-0.091-0.052-0.158-0.076-0.227-0.104
		c-0.194,0.225-0.386,0.401-0.558,0.651c-7.268,9.73-14.513,19.486-21.781,29.216c-5.854,7.84-11.686,15.703-17.538,23.543
		c-0.097,0.136-0.195,0.27-0.249,0.407c-0.546,0.997-1.411,1.222-2.473,1.132c-2.333-0.155-4.667-0.313-6.978-0.446
		c-2.125-0.126-4.276-0.23-6.426-0.334c-0.206-0.032-0.414-0.063-0.783-0.122c17.881-19.707,35.824-39.202,53.563-58.87
		c-0.256-0.61-0.491-1.106-0.748-1.672c-0.144,0.134-0.289,0.267-0.432,0.4c-3.059,3.104-6.094,6.233-9.152,9.337
		c-2.313,2.367-4.624,4.689-6.912,7.035c-3.348,3.418-6.695,6.833-10.043,10.252c-1.925,1.965-3.878,3.953-5.804,5.918
		c-3.805,3.84-7.61,7.726-11.416,11.613c-3.201,3.236-6.38,6.453-9.582,9.689c-1.422,1.453-2.818,2.882-4.194,4.382
		c-0.941,1.008-1.989,1.131-3.454,0.704c-2.292-0.644-4.666-0.94-7.076-0.938c-0.67-0.004-1.356-0.261-2.024-0.355
		c-1.083-0.154-2.188-0.291-3.272-0.445c-0.207-0.034-0.391-0.086-0.598-0.116c-0.019-0.118-0.042-0.142-0.083-0.235
		c0.506-0.514,0.966-1.076,1.496-1.565c4.707-4.499,9.439-8.978,14.146-13.432c4.083-3.875,8.142-7.73,12.226-11.605
		c2.162-2.049,4.301-4.122,6.462-6.171c4.084-3.924,8.216-7.844,12.301-11.766c2.092-2.029,4.206-4.034,6.319-6.038
		c4.035-3.833,8.071-7.709,12.083-11.52c2.211-2.139,4.442-4.208,6.633-6.373c3.44-3.414,7.014-6.684,10.477-10.073
		c0.263-0.244,0.527-0.489,0.839-0.779l3.338,3.6c-0.922,1.747-1.549,3.624-1.968,5.53c-0.143,0.712-0.171,1.453-0.151,2.194
		c0.037,2.063,0.099,4.103,0.23,6.171c0.039,0.812,0.24,1.606,0.417,2.423c0.1,0.444,0.268,0.868,0.414,1.313
		c1.155,3.796,3.747,6.301,7.203,8.004c0.956,0.454,2.034,0.703,3.095,0.835c3.594,0.508,6.801-0.414,9.578-2.811
		c1.245-1.065,2.288-2.3,3.33-3.535c2.326-2.737,3.837-5.968,5.415-9.13c1.025-2.021,2.504-5.624,3.529-7.646l1.59,0.268
		c1.94,0.12,8.742,0.282,9.421,0.726c0.293,0.22,0.49,0.528,0.659,0.951c3.675,9.402,7.375,18.783,11.074,28.164
		c0.105,0.303,0.209,0.608,0.355,1.008c-0.302,0.059-0.513,0.119-0.747,0.158c-3.056,0.602-6.135,1.181-9.214,1.758
		c-1.633,0.312-1.814,0.21-2.097-1.49c-0.545-3.332-1.046-6.663-1.567-10.019c-0.39-2.583-0.825-5.172-1.238-7.733
		c-0.113-0.7-0.273-1.354-0.458-1.988c-0.06-0.256-0.167-0.468-0.296-0.705c-0.175-0.283-0.444-0.525-0.789-0.609
		c-1.31-0.303-1.705,1.581-1.064,2.416c0.044,0.047,0.087,0.143,0.178,0.191c1.016,0.71,1.323,1.764,1.465,2.928
		c0.216,1.63,0.549,3.238,0.815,4.824c0.055,0.349,0.02,0.695,0.045,1.205c-0.338-0.221-0.473-0.317-0.656-0.417
		c-1.198-0.763-2.396-1.527-3.597-2.243c-0.565-0.369-0.937-0.337-1.156-0.045c-0.246,0.362-0.19,0.759,0.277,1.217
		c1.205,1.202,2.389,2.383,3.595,3.584c0.403,0.387,0.779,0.84,1.204,1.251c1.047,1.081,0.886,9.042,0.944,11.799
		c-0.004,0.096-0.029,0.161-0.108,0.414c-3.188-3.917-6.31-7.718-9.43-11.563c-0.595,0.417-0.681,0.854-0.444,1.348
		c0.388,0.758,0.777,1.467,1.26,2.179c1.979,3.433,3.98,6.844,5.983,10.256C448.185,920.16,448.776,921.088,449.343,922.034z
		 M489.73,933.144c-0.01,0.23-0.085,0.435-0.117,0.644c-0.513,2.574-1.028,5.15-1.564,7.745c-0.059,0.323-0.164,0.644-0.276,1.148
		c-0.195-0.354-0.282-0.496-0.368-0.686c-0.768-1.743-1.535-3.484-2.304-5.229c-0.254-0.61-0.665-0.766-1.249-0.672
		c-0.489,0.098-0.955,0.125-1.489,0.177c0.215,1.097,0.427,2.191,0.619,3.265c0.388,2.006,0.796,4.037,1.185,6.042
		c0.313,1.54,0.894,2.072,2.487,2.202c0.877,0.079,1.736,0.042,2.592,0.052c0.37,0.015,0.76,0.099,1.291,0.139
		c-1.701,1.488-3.082,3.128-5.254,3.625c-0.747,0.158-1.494,0.315-2.258,0.309c-1.111,0.005-1.923-0.581-2.275-1.683
		c-0.146-0.446-0.291-0.892-0.391-1.335c-0.968-3.835-1.98-7.671-2.947-11.506c-0.04-0.188-0.102-0.398-0.205-0.703
		c-0.817,0.757-1.536,1.426-2.279,2.114c-0.337,0.313-0.33,0.705-0.228,1.104c0.341,1.424,0.656,2.872,0.996,4.298
		c0.062,0.211,0.123,0.422,0.043,0.721c-2.61-2.045-5.242-4.112-7.918-6.228c0.193-0.225,0.364-0.428,0.556-0.604
		c1.842-1.576,3.663-3.174,5.482-4.773c2.109-1.865,1.93-1.434,1.235-3.867c-1.067-3.652-2.229-7.265-3.365-10.897
		c-0.145-0.444-0.267-0.865-0.432-1.428c2.532-0.206,4.993-0.391,7.479-0.598c0.103,0.352,0.21,0.563,0.247,0.795
		c0.78,3.297,1.537,6.567,2.316,9.862c0.078,0.372,0.182,0.724,0.307,1.053c0.317,0.822,0.899,1.354,1.794,1.55
		c1.332,0.281,2.639,0.633,3.948,0.982c0.527,0.135,1.05,0.365,1.457,0.658C489.641,931.844,489.834,932.243,489.73,933.144z
		 M508.86,909.778c-0.273-0.103-0.547-0.206-0.843-0.334c-3.211-1.439-6.423-2.882-9.658-4.298c-0.5-0.254-0.977-0.525-1.562-0.338
		c-0.313,0.914-0.227,1.102,0.75,1.626c3.224,1.695,6.449,3.393,9.698,5.065c0.704,0.375,1.171,0.878,1.21,1.691
		c0.052,1.066,0.106,2.134,0.181,3.18c-0.569,0.348-0.951,0.033-1.336-0.19c-3.178-1.694-6.379-3.413-9.557-5.107
		c-0.658-0.372-1.341-0.677-2.047-1.004c-0.058,0.9-0.035,0.925,0.53,1.293c1.108,0.715,2.262,1.429,3.416,2.145
		c2.559,1.555,5.166,3.066,7.748,4.599c0.793,0.472,1.209,1.111,1.29,2.064c0.161,1.859-0.188,6.2-0.304,8.048l0.112,0.121
		c-0.024,0.022-0.071,0.02-0.116,0.018c-0.025,0.023-0.027,0.067-0.028,0.114l-0.111-0.118c-1.877-0.002-6.207-0.004-8.048-0.305
		c-0.921-0.129-1.552-0.614-1.96-1.44c-1.334-2.689-2.67-5.381-4.004-8.071c-0.581-1.204-1.229-2.384-1.881-3.566
		c-0.3-0.614-0.347-0.616-1.25-0.627c0.298,0.706,0.526,1.431,0.847,2.115c1.451,3.297,2.924,6.619,4.374,9.916
		c0.17,0.423,0.455,0.827,0.088,1.347c-1.036-0.154-2.097-0.287-3.156-0.42c-0.807-0.101-1.275-0.604-1.595-1.334
		c-1.425-3.367-2.874-6.709-4.323-10.053c-0.424-1.034-0.606-1.134-1.565-0.868c-0.206,0.546,0.053,1.065,0.217,1.582
		c1.196,3.31,2.368,6.644,3.563,9.953c0.083,0.281,0.164,0.563,0.269,0.867c-0.701,0.16-2.921,0.076-3.471-0.085
		c-0.366-0.105-0.659-0.326-0.784-0.699c-0.146-0.401-0.296-0.754-0.422-1.129c-1.286-3.938-2.528-7.876-3.815-11.815
		c-0.065-0.118-0.108-0.213-0.193-0.4c-0.207-0.031-0.439-0.041-0.67-0.05c-3.037,0.095-6.074,0.188-9.114,0.329
		c-1.809,0.071-1.99-0.029-2.645-1.697c-4.777-12.13-9.554-24.308-14.307-36.46c-1.16-2.983-2.325-5.924-3.486-8.908l0.078-0.206
		c0.022,0.024,0.066,0.028,0.09,0.051c2.89,1.382,5.732,2.763,8.622,4.146c11.737,5.676,23.519,11.354,35.281,17.008
		c1.592,0.754,1.7,0.968,1.493,2.766c-0.347,3.043-0.69,6.043-1.013,9.063c-0.009,0.23-0.018,0.461-0.002,0.672
		c0.181,0.1,0.27,0.194,0.385,0.222c3.831,1.58,7.665,3.117,11.494,4.696c0.365,0.151,0.729,0.35,1.094,0.503
		c0.411,0.156,0.561,0.461,0.616,0.857C509.155,906.87,509.05,909.067,508.86,909.778z M518.853,899.037
		c3.752,1.254,7.501,2.553,11.251,3.807c0.458,0.155,0.869,0.31,1.302,0.489c1.072,0.435,1.596,1.288,1.509,2.395
		c-0.052,0.762-0.265,1.495-0.479,2.229c-0.658,2.13-2.397,3.383-4.008,4.967c-0.027-0.511-0.059-0.927-0.044-1.3
		c0.033-0.876,0.135-1.729,0.144-2.586c0.014-1.622-0.497-2.22-2.008-2.646c-1.972-0.538-3.966-1.101-5.938-1.636
		c-1.077-0.297-2.131-0.569-3.209-0.864c-0.112,0.506-0.176,1.014-0.287,1.473c-0.116,0.598,0.033,0.999,0.577,1.295
		c1.705,0.874,3.36,1.796,5.04,2.691c0.181,0.101,0.34,0.221,0.655,0.417c-0.511,0.076-0.838,0.155-1.165,0.189
		c-2.605,0.318-5.235,0.661-7.841,0.978c-0.208,0.016-0.441,0.053-0.65,0.069c-0.905,0.036-1.313-0.213-1.652-1.013
		c-0.212-0.516-0.4-1.058-0.496-1.593c-0.251-1.331-0.478-2.683-0.683-4.009c-0.128-0.908-0.615-1.53-1.411-1.907
		c-0.319-0.15-0.661-0.279-1.027-0.385c-3.228-1.026-6.432-2.026-9.658-3.05c-0.252-0.081-0.456-0.204-0.777-0.308
		c0.394-2.464,0.764-4.905,1.159-7.413c0.549,0.203,0.959,0.359,1.393,0.536c3.537,1.409,7.05,2.838,10.612,4.175
		c2.375,0.879,1.93,1.022,3.95-0.938c1.709-1.719,3.44-3.414,5.171-5.107c0.191-0.179,0.406-0.332,0.645-0.509
		c1.909,2.826,3.772,5.608,5.614,8.363c-0.325,0.034-0.509-0.02-0.715-0.098c-1.396-0.444-2.816-0.869-4.21-1.316
		c-0.39-0.13-0.782-0.167-1.119,0.144c-0.744,0.69-1.464,1.357-2.329,2.205C518.464,898.908,518.647,898.961,518.853,899.037z
		 M545.952,746.189c0.018,0.181,0.048,0.348,0.062,0.533c0.049,1.113,0.125,2.204,0.2,3.295c0.045,0.674,0.274,1.354,0.201,2.046
		c-0.184,2.401-0.086,4.768,0.404,7.124c0.312,1.543,0.111,2.576-0.963,3.394c-1.574,1.237-3.128,2.545-4.683,3.853
		c-3.47,2.949-6.915,5.877-10.383,8.827c-4.115,3.504-8.277,7.006-12.44,10.508c-2.104,1.774-4.233,3.571-6.338,5.343
		c-3.66,3.084-7.318,6.164-10.978,9.245c-2.537,2.126-5.025,4.257-7.537,6.361c-3.323,2.816-6.671,5.608-9.998,8.425
		c-0.144,0.133-0.287,0.267-0.431,0.4c0.59,0.301,1.044,0.549,1.611,0.872c20.966-16.188,41.758-32.61,62.753-48.959
		c0.032,0.373,0.069,0.605,0.063,0.791c-0.034,2.13-0.115,4.303-0.149,6.433c-0.041,2.314-0.059,4.652-0.079,6.992
		c-0.018,1.086-0.282,1.957-1.317,2.382c-0.165,0.062-0.282,0.128-0.425,0.215c-8.257,5.247-16.537,10.471-24.793,15.719
		c-10.251,6.515-20.523,13.006-30.773,19.521c-0.261,0.152-0.452,0.331-0.69,0.507c0.042,0.094,0.063,0.164,0.083,0.233
		c0.253,0.033,0.529,0.09,0.809,0.054c0.28-0.035,0.54-0.188,0.777-0.318c2.479-1.272,4.937-2.568,7.417-3.842
		c5.573-2.894,11.17-5.764,16.744-8.656c2.292-1.188,4.54-2.424,6.83-3.61c2.078-1.08,4.203-2.157,6.306-3.214
		c0.118-0.065,0.189-0.131,0.308-0.196c0.733-0.414,1.469-0.871,2.225-1.26c1.183-0.65,2.386-1.231,3.568-1.881
		c0.875-0.5,1.729-1.023,2.604-1.522c0.38-0.218,0.825-0.363,1.225-0.556c1.04-0.519,2.035-1.128,3.116-1.551
		c1.505-0.592,2.854-1.397,4.292-2.062c0.354-0.149,0.66-0.299,1.25-0.578c-0.108,0.412-0.209,0.64-0.217,0.87
		c-0.423,4.455-0.844,8.863-1.242,13.295c-0.039,0.393-0.055,0.809-0.069,1.226c-0.011,0.903-0.382,1.514-1.249,1.782
		c-0.422,0.122-0.847,0.338-1.27,0.508c-15.093,5.96-30.184,11.878-45.276,17.841c-0.26,0.106-0.543,0.234-0.825,0.364
		c0.592,0.878,0.796,1.001,1.731,0.804c1.119-0.234,2.246-0.607,3.368-0.891c10.923-2.854,21.843-5.663,32.766-8.516
		c2.363-0.631,4.75-1.28,7.113-1.91c0.609-0.164,1.197-0.394,1.956-0.297c-0.582,5.004-1.185,9.938-1.768,14.988
		c-6.885,0.759-13.82,1.03-20.72,1.581c-6.897,0.551-13.818,1.03-20.785,1.556c0.055,0.396,0.088,0.722,0.123,1.047
		c0.323,0.059,0.576,0.091,0.807,0.099c6.425,0.336,12.828,0.692,19.23,1.051c6.216,0.351,12.386,0.698,18.581,1.069
		c0.321,0.013,0.622,0.047,0.967,0.083c-0.998,3.783-1.949,7.476-2.919,11.146c-0.269,0.962-0.316,0.96-1.258,0.809
		c-0.046-0.001-0.115-0.025-0.163-0.027c-8.33-1.381-16.638-2.782-24.97-4.161c-2.876-0.503-5.754-0.959-8.632-1.414
		c-0.415-0.062-0.848-0.241-1.196,0.395c0.411,0.156,0.774,0.354,1.164,0.483c6.112,1.875,12.271,3.752,18.384,5.628
		c4.03,1.216,8.06,2.432,12.066,3.673c0.436,0.131,0.942,0.196,1.251,0.625c-0.027,0.114-0.029,0.16-0.077,0.205
		c-2.139,2.654-4.276,5.306-6.414,7.958c-0.342,0.449-0.795,0.827-1.182,1.228c-0.659-0.325-1.229-0.554-1.776-0.807
		c-7.792-3.397-15.561-6.817-23.353-10.213c-0.843-0.378-1.732-0.761-2.622-1.094c-1.097-0.412-1.665-0.063-1.991,1.174
		c0.339,0.223,0.702,0.467,1.065,0.667c7.964,4.354,15.93,8.705,23.894,13.06c0.205,0.122,0.384,0.269,0.61,0.416
		c-0.166,0.063-0.213,0.106-0.259,0.105c-4.259,0.558-8.518,1.115-12.778,1.672c-0.814,0.086-1.524-0.103-2.179-0.568
		c-0.902-0.636-1.805-1.271-2.706-1.909c-3.25-2.253-6.524-4.483-9.775-6.736c-0.653-0.463-1.355-0.931-2.056-1.352
		c-0.476-0.271-0.941-0.196-1.378,0.343c3.601,3.401,7.176,6.825,10.821,10.274c-0.255,0.059-0.305,0.104-0.419,0.076
		c-2.768-0.29-10.719-0.729-11.695-1.831c-0.355-0.431-0.779-0.84-1.156-1.293c-1.109-1.294-2.196-2.561-3.306-3.854
		c-0.422-0.502-0.812-0.586-1.19-0.37c-0.308,0.198-0.346,0.59-0.043,1.158c0.647,1.275,1.295,2.503,1.965,3.756
		c0.11,0.166,0.196,0.354,0.37,0.685c-0.508-0.065-0.856-0.055-1.201-0.137c-1.606-0.386-3.141-0.835-4.75-1.175
		c-1.148-0.229-2.176-0.614-2.808-1.68c-0.021-0.071-0.112-0.122-0.179-0.193c-0.784-0.702-2.692-0.449-2.487,0.879
		c0.057,0.35,0.277,0.636,0.548,0.832c0.227,0.147,0.452,0.248,0.681,0.349c0.665,0.233,1.304,0.443,1.945,0.606
		c2.548,0.628,5.097,1.212,7.621,1.816c3.307,0.772,6.59,1.521,9.872,2.315c1.675,0.412,1.76,0.6,1.33,2.204
		c-0.809,3.027-1.641,6.03-2.449,9.057c-0.056,0.229-0.11,0.46-0.213,0.731c-0.364-0.152-0.683-0.302-0.979-0.43
		c-9.075-4.394-18.151-8.789-27.25-13.163c-0.408-0.2-0.723-0.443-0.897-0.728c-0.415-0.688-0.042-7.505-0.015-9.449l-0.149-1.604
		c2.095-0.87,5.777-2.099,7.893-2.945c3.269-1.335,6.583-2.623,9.511-4.712c1.309-0.947,2.619-1.894,3.774-3.055
		c2.599-2.588,3.759-5.718,3.524-9.339c-0.051-1.067-0.219-2.163-0.598-3.149c-1.395-3.572-3.745-6.348-7.442-7.784
		c-0.434-0.179-0.844-0.379-1.278-0.512c-0.78-0.214-1.58-0.499-2.387-0.599c-2.028-0.262-4.079-0.502-6.134-0.694
		c-0.738-0.074-1.478-0.103-2.199-0.012c-1.932,0.272-3.85,0.756-5.663,1.545l-3.272-3.527c0.313-0.29,0.577-0.533,0.841-0.78
		c3.618-3.222,7.168-6.515,10.833-9.688c2.323-2.021,4.577-4.064,6.855-6.135c4.17-3.734,8.294-7.469,12.442-11.228
		c2.181-1.933,4.338-3.888,6.497-5.846c4.219-3.778,8.438-7.603,12.657-11.381c2.206-2.001,4.434-3.978,6.64-5.979
		c4.194-3.757,8.342-7.514,12.514-11.295c4.843-4.355,9.639-8.715,14.459-13.096c0.528-0.488,1.124-0.907,1.673-1.371
		C545.926,746.179,545.938,746.183,545.952,746.189c-0.002-0.023-0.006-0.047-0.009-0.071
		C545.987,746.193,545.979,746.202,545.952,746.189z M537.159,740.629l-8.993-9.69l14.957-13.95l10.394,8.461L537.159,740.629z"/>
	<path d="M1288.646,289.396c13.479-9.981,19.782-33.088,11.72-53.392l-28.36,26.318
		C1272.005,262.323,1285.007,283.484,1288.646,289.396z"/>
	<path d="M1245.895,329.07c13.482-9.985,19.785-33.092,11.722-53.392l-28.36,26.317
		C1229.256,301.996,1242.256,323.158,1245.895,329.07z"/>
	<path d="M1203.242,368.655c13.479-9.984,19.783-33.09,11.718-53.391l-28.355,26.317
		C1186.604,341.581,1199.604,362.743,1203.242,368.655z"/>
	<path d="M1118.156,447.619c13.479-9.985,19.78-33.09,11.719-53.391l-28.358,26.316
		C1101.517,420.544,1114.518,441.705,1118.156,447.619z"/>
	<path d="M1160.65,408.182c13.479-9.983,19.781-33.09,11.717-53.391l-28.357,26.316
		C1144.01,381.107,1157.011,402.268,1160.65,408.182z"/>
	<path d="M1075.372,487.324c13.477-9.985,19.782-33.093,11.72-53.391l-28.361,26.317
		C1058.73,460.25,1071.734,481.409,1075.372,487.324z"/>
	<path d="M1032.717,526.909c13.48-9.984,19.78-33.091,11.721-53.391l-28.359,26.316
		C1016.078,499.833,1029.076,520.996,1032.717,526.909z"/>
	<path d="M947.626,605.874c13.485-9.987,19.784-33.091,11.725-53.394l-28.36,26.317C930.99,578.796,943.991,599.959,947.626,605.874
		z"/>
	<path d="M990.124,566.437c13.48-9.985,19.78-33.09,11.718-53.394l-28.358,26.317C973.483,539.36,986.487,560.522,990.124,566.437z"
		/>
	<path d="M904.496,645.903c13.48-9.984,19.78-33.092,11.719-53.393l-28.357,26.316C887.857,618.827,900.856,639.991,904.496,645.903
		z"/>
	<path d="M861.746,685.575c13.48-9.984,19.783-33.092,11.72-53.393L845.108,658.5C845.108,658.5,858.108,679.663,861.746,685.575z"
		/>
	<path d="M819.091,725.161c13.481-9.983,19.782-33.092,11.721-53.392l-28.36,26.317
		C802.451,698.087,815.451,719.248,819.091,725.161z"/>
	<path d="M734.005,804.123c13.48-9.983,19.782-33.09,11.719-53.39l-28.36,26.315C717.363,777.049,730.364,798.211,734.005,804.123z"
		/>
	<path d="M776.499,764.688c13.481-9.984,19.781-33.092,11.719-53.393l-28.357,26.316
		C759.86,737.612,772.859,758.773,776.499,764.688z"/>
	<path d="M691.222,843.83c13.481-9.985,19.782-33.093,11.719-53.394l-28.359,26.317C674.582,816.754,687.583,837.914,691.222,843.83
		z"/>
	<path d="M648.566,883.415c13.48-9.985,19.782-33.093,11.72-53.393l-28.359,26.316C631.927,856.339,644.927,877.5,648.566,883.415z"
		/>
	<path d="M546.666,955.857c3.991-1.248,7.826-3.413,11.323-6.297c1.356-1.119,2.66-2.346,3.903-3.669
		c2.833-3.016,5.342-6.533,7.404-10.419c4.062-7.656,6.379-16.737,5.964-26.207l-10.755,4.724l-24.669,10.831
		C539.835,924.82,545.171,949.077,546.666,955.857z"/>
	<path d="M605.975,922.94c13.48-9.983,19.783-33.091,11.719-53.392l-28.359,26.317C589.334,895.866,602.335,917.027,605.975,922.94z
		"/>
	<path d="M1303.053,157.482c0,0,24.454,4.352,31.286,5.567c1.503-16.711-11.566-36.776-32.093-44.251L1303.053,157.482z"/>
	<path d="M1304.271,215.659c0,0,24.452,4.357,31.288,5.57c1.501-16.711-11.571-36.775-32.097-44.249L1304.271,215.659z"/>
	<path display="none" d="M440.4,906.758c-0.236-0.494-0.151-0.931,0.444-1.348c3.12,3.846,6.243,7.646,9.43,11.563
		c0.079-0.253,0.104-0.318,0.108-0.414c-0.059-2.757,0.103-10.718-0.944-11.799c-0.425-0.411-0.801-0.864-1.204-1.251
		c-1.206-1.201-2.39-2.382-3.595-3.584c-0.468-0.458-0.523-0.854-0.277-1.217c0.22-0.292,0.591-0.324,1.156,0.045
		c1.201,0.716,2.399,1.48,3.597,2.243c0.183,0.1,0.318,0.196,0.656,0.417c-0.026-0.51,0.009-0.856-0.045-1.205
		c-0.266-1.586-0.599-3.194-0.815-4.824c-0.142-1.164-0.45-2.218-1.465-2.928c-0.091-0.049-0.133-0.145-0.178-0.191
		c-0.641-0.835-0.246-2.719,1.064-2.416c0.344,0.084,0.613,0.326,0.789,0.609c0.128,0.237,0.236,0.449,0.296,0.705
		c0.186,0.634,0.346,1.288,0.458,1.988c0.413,2.562,0.848,5.15,1.238,7.733c0.521,3.355,1.022,6.687,1.567,10.019
		c0.283,1.7,0.464,1.802,2.097,1.49c3.079-0.577,6.159-1.156,9.214-1.758c0.233-0.039,0.444-0.1,0.747-0.158
		c-0.146-0.399-0.25-0.705-0.355-1.008c-3.699-9.381-7.398-18.762-11.074-28.164c-0.169-0.423-0.366-0.731-0.659-0.951
		c-0.679-0.443-7.481-0.605-9.421-0.726l-1.59-0.268c-1.025,2.022-2.504,5.626-3.529,7.646c-1.578,3.162-3.089,6.393-5.415,9.13
		c-1.042,1.235-2.085,2.47-3.33,3.535c-2.777,2.396-5.984,3.318-9.578,2.811c-1.061-0.132-2.139-0.381-3.095-0.835
		c-3.456-1.703-6.048-4.208-7.203-8.004c-0.146-0.445-0.314-0.869-0.414-1.313c-0.177-0.816-0.379-1.611-0.417-2.423
		c-0.131-2.068-0.193-4.108-0.23-6.171c-0.02-0.741,0.009-1.482,0.151-2.194c0.419-1.906,1.046-3.783,1.968-5.53l-3.338-3.6
		c-0.313,0.29-0.576,0.535-0.839,0.779c-3.463,3.39-7.037,6.659-10.477,10.073c-2.19,2.165-4.421,4.234-6.633,6.373
		c-4.012,3.811-8.048,7.687-12.083,11.52c-2.113,2.004-4.227,4.009-6.319,6.038c-4.084,3.922-8.216,7.842-12.301,11.766
		c-2.161,2.049-4.3,4.122-6.462,6.171c-4.083,3.875-8.143,7.73-12.226,11.605c-4.707,4.454-9.438,8.933-14.146,13.432
		c-0.529,0.489-0.99,1.052-1.496,1.565c0.042,0.094,0.065,0.117,0.083,0.235c0.207,0.03,0.391,0.082,0.598,0.116
		c1.084,0.154,2.189,0.291,3.272,0.445c0.668,0.095,1.354,0.352,2.024,0.355c2.41-0.003,4.783,0.294,7.076,0.938
		c1.465,0.427,2.513,0.304,3.454-0.704c1.376-1.5,2.772-2.929,4.194-4.382c3.202-3.236,6.38-6.453,9.582-9.689
		c3.806-3.888,7.611-7.773,11.416-11.613c1.926-1.965,3.879-3.953,5.804-5.918c3.348-3.419,6.696-6.834,10.043-10.252
		c2.289-2.346,4.599-4.668,6.912-7.035c3.059-3.104,6.093-6.232,9.152-9.337c0.143-0.134,0.288-0.267,0.432-0.4
		c0.256,0.565,0.492,1.062,0.748,1.672c-17.739,19.668-35.682,39.163-53.563,58.87c0.369,0.06,0.577,0.09,0.783,0.122
		c2.15,0.104,4.301,0.208,6.426,0.334c2.312,0.134,4.645,0.291,6.978,0.446c1.062,0.09,1.927-0.135,2.473-1.132
		c0.053-0.138,0.151-0.271,0.249-0.407c5.853-7.84,11.685-15.703,17.538-23.543c7.269-9.729,14.514-19.485,21.781-29.216
		c0.171-0.25,0.363-0.427,0.558-0.651c0.069,0.027,0.136,0.052,0.227,0.104c-0.01,0.277,0.048,0.579-0.006,0.809
		c-0.057,0.275-0.25,0.5-0.375,0.75c-1.458,2.377-2.936,4.73-4.393,7.106c-3.303,5.343-6.585,10.705-9.89,16.047
		c-1.357,2.197-2.758,4.344-4.114,6.54c-1.256,2.013-2.468,4.027-3.679,6.044c-0.073,0.113-0.145,0.182-0.219,0.294
		c-0.467,0.699-0.957,1.423-1.425,2.122c-0.737,1.132-1.405,2.287-2.142,3.417c-0.542,0.86-1.151,1.647-1.716,2.482
		c-0.244,0.362-0.423,0.796-0.646,1.18c-0.593,0.998-1.278,1.943-1.781,2.993c-0.678,1.432-1.608,2.738-2.377,4.123
		c-0.173,0.295-0.35,0.637-0.671,1.202c0.419-0.077,0.677-0.136,0.886-0.152c4.427-0.088,8.901-0.175,13.349-0.237
		c0.395-0.01,0.811,0.008,1.228,0.022c0.901,0.057,1.538-0.266,1.871-1.109c0.179-0.435,0.402-0.82,0.602-1.23
		c7.08-14.601,14.116-29.203,21.196-43.805c0.126-0.251,0.274-0.522,0.425-0.795c0.809,0.678,0.939,0.868,0.674,1.785
		c-0.343,1.12-0.778,2.193-1.143,3.291c-3.667,10.68-7.29,21.356-10.957,32.035c-0.783,2.332-1.634,4.639-2.439,6.949
		c-0.208,0.593-0.46,1.186-0.442,1.928c5.057-0.227,9.998-0.434,15.078-0.637c1.25-6.784,2.042-13.68,3.134-20.541
		c1.069-6.838,2.068-13.7,3.116-20.608c0.39,0.083,0.713,0.141,1.035,0.201c0.012,0.301,0.026,0.554,0.039,0.811
		c-0.125,6.411-0.275,12.844-0.401,19.254c-0.117,6.179-0.236,12.404-0.331,18.607c-0.011,0.325,0.022,0.65,0.01,0.974
		c3.848-0.713,7.602-1.382,11.334-2.074c0.98-0.195,1.004-0.219,0.901-1.193c0.003-0.049-0.019-0.118-0.016-0.162
		c-0.749-8.414-1.522-16.803-2.27-25.214c-0.261-2.884-0.522-5.81-0.76-8.714c-0.031-0.418-0.177-0.864,0.483-1.162
		c0.147,0.398,0.318,0.775,0.395,1.196c1.431,6.259,2.842,12.497,4.227,18.754c0.911,4.113,1.821,8.223,2.755,12.31
		c0.1,0.443,0.125,0.954,0.531,1.294c0.093-0.043,0.164-0.063,0.21-0.063c2.806-1.931,5.634-3.84,8.417-5.798
		c0.453-0.328,0.884-0.729,1.314-1.083c-0.228-0.682-0.439-1.245-0.672-1.833c-2.801-8.025-5.625-16.028-8.427-24.055
		c-0.313-0.915-0.627-1.784-0.894-2.697c-0.328-1.124,0.042-1.689,1.323-1.896c0.194,0.355,0.412,0.735,0.583,1.112
		c3.741,8.269,7.482,16.539,11.224,24.808c0.107,0.214,0.239,0.404,0.37,0.641c0.073-0.115,0.099-0.182,0.125-0.251
		c0.876-4.204,1.752-8.41,2.628-12.614c0.167-0.782,0.012-1.528-0.402-2.216c-0.567-0.946-1.158-1.874-1.699-2.842
		c-2.003-3.412-4.005-6.823-5.983-10.256C441.177,908.225,440.788,907.516,440.4,906.758z"/>
	<path display="none" d="M487.39,930.762c-1.309-0.35-2.616-0.701-3.948-0.982c-0.895-0.195-1.478-0.728-1.794-1.55
		c-0.125-0.329-0.229-0.681-0.307-1.053c-0.779-3.295-1.536-6.565-2.316-9.862c-0.037-0.232-0.145-0.443-0.247-0.795
		c-2.487,0.207-4.948,0.392-7.479,0.598c0.165,0.563,0.287,0.983,0.432,1.428c1.136,3.633,2.298,7.245,3.365,10.897
		c0.695,2.434,0.874,2.002-1.235,3.867c-1.819,1.6-3.64,3.197-5.482,4.773c-0.192,0.177-0.363,0.38-0.556,0.604
		c2.677,2.115,5.309,4.183,7.918,6.228c0.08-0.299,0.019-0.51-0.043-0.721c-0.34-1.426-0.655-2.874-0.996-4.298
		c-0.102-0.399-0.109-0.792,0.228-1.104c0.743-0.688,1.462-1.357,2.279-2.114c0.103,0.305,0.165,0.516,0.205,0.703
		c0.967,3.835,1.979,7.671,2.947,11.506c0.1,0.443,0.245,0.889,0.391,1.335c0.352,1.102,1.164,1.688,2.275,1.683
		c0.764,0.007,1.511-0.15,2.258-0.309c2.173-0.497,3.554-2.137,5.254-3.625c-0.531-0.04-0.921-0.124-1.291-0.139
		c-0.856-0.01-1.715,0.027-2.592-0.052c-1.593-0.13-2.175-0.662-2.487-2.202c-0.388-2.005-0.797-4.036-1.185-6.042
		c-0.192-1.073-0.404-2.168-0.619-3.265c0.534-0.052,1-0.079,1.489-0.177c0.583-0.094,0.995,0.062,1.249,0.672
		c0.769,1.744,1.536,3.485,2.304,5.229c0.086,0.189,0.173,0.331,0.368,0.686c0.112-0.505,0.217-0.825,0.276-1.148
		c0.537-2.595,1.051-5.171,1.564-7.745c0.031-0.209,0.107-0.413,0.117-0.644c0.104-0.9-0.09-1.3-0.884-1.724
		C488.44,931.127,487.917,930.896,487.39,930.762z"/>
	<path display="none" d="M450.663,863.629c3.056,1.273,6.086,2.568,9.142,3.842c0.159,0.076,0.388,0.131,0.64,0.209
		c0.036-0.348,0.045-0.576,0.054-0.808c-0.024-2.434-0.026-4.844-0.05-7.274c-0.004-1.737,0.014-3.451,0.033-5.163
		c0.008-0.857-0.289-1.563-0.989-2.075c-1.799-1.366-3.837-1.976-6.11-1.922c-0.417,0.031-0.838,0.154-1.235,0.208
		c-0.145,0.806-0.241,1.475-0.382,2.141c-0.696,3.146-1.394,6.293-2.091,9.439c-0.169,0.781-0.148,0.852,0.58,1.203
		C450.39,863.48,450.55,863.556,450.663,863.629z"/>
	<path display="none" d="M435.344,874.979c-0.148-0.398-0.295-0.799-0.418-1.22c-1.068-3.606-1.536-7.144,0.628-10.536
		c0.666-1.017,0.45-1.49-0.678-2.273c-1.027,0.819-2.077,1.613-3.103,2.432c-2.651,2.146-5.235,4.318-7.886,6.466
		c-1.339,1.107-2.678,2.215-4.062,3.32c-0.358,0.288-0.44,0.585-0.293,1.031c0.413,1.313,0.803,2.648,1.217,3.96
		c0.041,0.141,0.151,0.261,0.216,0.427c4.767-1.12,9.51-2.215,14.3-3.354C435.362,875.097,435.387,875.026,435.344,874.979z
		 M426.901,874.685c-0.625,0.581-1.782,0.583-2.34,0.028c-0.559-0.555-0.585-1.689-0.036-2.157c0.649-0.601,1.97-0.62,2.435-0.068
		C427.426,873.037,427.406,874.217,426.901,874.685z"/>
	<path display="none" d="M436.772,865.932c-1.005,2.719-0.74,6.711,0.601,9.263c1.493,0.357,13.387,1.87,14.061,1.779
		c-0.23-1.257-4.101-11.016-4.651-11.8c-0.045-0.001-0.115-0.027-0.161-0.028c-2.809,0.194-5.642,0.366-8.451,0.562
		C437.659,865.78,437.19,865.899,436.772,865.932z"/>
	<path display="none" d="M447.911,850.603c0.497-0.281,1.039-0.516,1.514-0.869c1.263-0.903,2.686-1.195,4.188-1.116
		c1.158,0.043,2.308,0.225,3.46,0.408c1.011,0.178,1.897,0.65,2.659,1.327c0.874,0.753,1.822,1.437,2.745,2.142
		c1.211-1.438,1.433-2.401,0.845-3.997c-0.441-1.199-0.72-2.412-0.787-3.689c-0.083-1.484,0.107-2.866,0.874-4.159
		c0.223-0.384,0.535-0.674,0.712-1.061c0.101-0.183,0.089-0.531,0-0.626c-0.712-0.769-1.474-1.444-2.213-2.145
		c-2.256,1.513-15.195,11.771-15.637,12.45c0.219,0.332,0.437,0.711,0.677,1.067C447.211,850.715,447.51,850.796,447.911,850.603z"
		/>
	<path display="none" d="M464.444,846.339c-0.006,0.186,0.009,0.394,0.043,0.72c1.762-1.277,3.426-2.466,5.07-3.63
		c0.643-0.461,0.643-0.461,1.251,0c1.081,0.782,2.213,1.52,3.695,2.106c-0.414-2.562-0.554-4.975-1.371-7.252
		c-0.086-0.189-0.171-0.377-0.303-0.567c-0.594-0.834-1.122-0.97-2.042-0.518c-1.086,0.562-2.195,1.099-3.259,1.685
		c-0.615,0.347-1.208,0.718-1.823,1.065c-0.402,0.24-0.577,0.581-0.641,1.04C464.904,842.742,464.652,844.54,464.444,846.339z"/>
	<path display="none" d="M421.473,887.842c0.139,0.006,0.298,0.036,0.462,0.02c2.078,0.17,4.155,0.341,6.211,0.488
		c0.138,0.004,0.301-0.011,0.51-0.028c-0.467-0.503-0.818-0.98-1.269-1.366c-1.234-1.042-1.329-2.205-0.719-3.617
		c0.608-1.414,1.148-2.852,1.711-4.267c0.103-0.274,0.206-0.548,0.338-0.984c-1.896,0.509-3.627,0.999-5.38,1.42
		c-0.374,0.078-0.454,0.377-0.557,0.65c-0.815,1.961-1.629,3.876-2.444,5.835C419.871,887.32,420.11,887.724,421.473,887.842z"/>
	<path display="none" d="M508.421,905.453c-0.365-0.153-0.729-0.352-1.094-0.503c-3.83-1.579-7.664-3.116-11.494-4.696
		c-0.116-0.027-0.204-0.122-0.385-0.222c-0.016-0.211-0.007-0.441,0.002-0.672c0.322-3.021,0.666-6.021,1.013-9.063
		c0.207-1.798,0.099-2.012-1.493-2.766c-11.762-5.654-23.544-11.332-35.281-17.008c-2.89-1.383-5.731-2.764-8.622-4.146
		c-0.023-0.022-0.068-0.026-0.09-0.051l-0.078,0.206c1.161,2.984,2.326,5.925,3.486,8.908c4.753,12.152,9.529,24.33,14.307,36.46
		c0.655,1.668,0.836,1.769,2.645,1.697c3.04-0.141,6.077-0.234,9.114-0.329c0.231,0.009,0.463,0.019,0.67,0.05
		c0.085,0.188,0.128,0.282,0.193,0.4c1.287,3.939,2.529,7.878,3.815,11.815c0.125,0.375,0.276,0.728,0.422,1.129
		c0.125,0.373,0.418,0.594,0.784,0.699c0.549,0.161,2.77,0.245,3.471,0.085c-0.105-0.304-0.186-0.586-0.269-0.867
		c-1.195-3.31-2.367-6.644-3.563-9.953c-0.165-0.517-0.423-1.036-0.217-1.582c0.959-0.266,1.141-0.166,1.565,0.868
		c1.45,3.344,2.898,6.686,4.323,10.053c0.32,0.73,0.788,1.233,1.595,1.334c1.059,0.133,2.12,0.266,3.156,0.42
		c0.367-0.52,0.082-0.924-0.088-1.347c-1.45-3.297-2.923-6.619-4.374-9.916c-0.321-0.685-0.549-1.409-0.847-2.115
		c0.903,0.011,0.95,0.013,1.25,0.627c0.651,1.183,1.3,2.362,1.881,3.566c1.334,2.69,2.67,5.382,4.004,8.071
		c0.408,0.826,1.04,1.312,1.96,1.44c1.842,0.301,6.171,0.303,8.048,0.305l0.111,0.118c0.001-0.047,0.003-0.091,0.028-0.114
		c0.045,0.002,0.092,0.005,0.116-0.018l-0.112-0.121c0.115-1.848,0.465-6.188,0.304-8.048c-0.08-0.953-0.497-1.593-1.29-2.064
		c-2.582-1.532-5.188-3.044-7.748-4.599c-1.154-0.716-2.308-1.43-3.416-2.145c-0.565-0.368-0.588-0.393-0.53-1.293
		c0.706,0.327,1.389,0.632,2.047,1.004c3.178,1.694,6.379,3.413,9.557,5.107c0.386,0.224,0.767,0.538,1.336,0.19
		c-0.075-1.046-0.129-2.113-0.181-3.18c-0.039-0.813-0.506-1.316-1.21-1.691c-3.249-1.673-6.474-3.37-9.698-5.065
		c-0.977-0.524-1.063-0.712-0.75-1.626c0.585-0.188,1.063,0.084,1.562,0.338c3.235,1.416,6.447,2.858,9.658,4.298
		c0.296,0.128,0.57,0.231,0.843,0.334c0.19-0.711,0.295-2.908,0.178-3.468C508.982,905.914,508.832,905.609,508.421,905.453z"/>
	<path display="none" d="M521.616,896.432c1.394,0.447,2.814,0.872,4.21,1.316c0.206,0.078,0.39,0.132,0.715,0.098
		c-1.842-2.755-3.705-5.537-5.614-8.363c-0.238,0.177-0.453,0.33-0.645,0.509c-1.731,1.693-3.462,3.389-5.171,5.107
		c-2.021,1.961-1.575,1.817-3.95,0.938c-3.563-1.337-7.075-2.766-10.612-4.175c-0.433-0.177-0.843-0.333-1.393-0.536
		c-0.395,2.508-0.765,4.949-1.159,7.413c0.322,0.104,0.525,0.227,0.777,0.308c3.226,1.023,6.43,2.023,9.658,3.05
		c0.367,0.105,0.708,0.234,1.027,0.385c0.795,0.377,1.283,0.999,1.411,1.907c0.205,1.326,0.431,2.678,0.683,4.009
		c0.096,0.535,0.284,1.077,0.496,1.593c0.34,0.8,0.748,1.049,1.652,1.013c0.209-0.017,0.442-0.054,0.65-0.069
		c2.606-0.316,5.236-0.659,7.841-0.978c0.327-0.034,0.654-0.113,1.165-0.189c-0.315-0.196-0.475-0.316-0.655-0.417
		c-1.68-0.896-3.335-1.817-5.04-2.691c-0.543-0.296-0.692-0.697-0.577-1.295c0.111-0.459,0.175-0.967,0.287-1.473
		c1.078,0.295,2.132,0.567,3.209,0.864c1.972,0.535,3.965,1.098,5.938,1.636c1.511,0.427,2.022,1.024,2.008,2.646
		c-0.009,0.857-0.111,1.71-0.144,2.586c-0.015,0.373,0.017,0.789,0.044,1.3c1.611-1.584,3.35-2.837,4.008-4.967
		c0.213-0.733,0.427-1.467,0.479-2.229c0.087-1.106-0.437-1.96-1.509-2.395c-0.434-0.18-0.844-0.334-1.302-0.489
		c-3.75-1.254-7.499-2.553-11.251-3.807c-0.205-0.076-0.388-0.129-0.685-0.257c0.865-0.848,1.585-1.515,2.329-2.205
		C520.833,896.265,521.226,896.302,521.616,896.432z"/>
	<path display="none" d="M544.222,747.534c-4.82,4.381-9.616,8.74-14.459,13.096c-4.171,3.781-8.319,7.538-12.514,11.295
		c-2.207,2.002-4.435,3.979-6.64,5.979c-4.22,3.778-8.438,7.603-12.657,11.381c-2.159,1.958-4.316,3.913-6.497,5.846
		c-4.147,3.759-8.272,7.493-12.442,11.228c-2.278,2.07-4.532,4.114-6.855,6.135c-3.664,3.173-7.215,6.466-10.833,9.688
		c-0.265,0.247-0.529,0.49-0.841,0.78l3.272,3.527c1.813-0.789,3.73-1.272,5.663-1.545c0.721-0.091,1.461-0.063,2.199,0.012
		c2.055,0.192,4.106,0.433,6.134,0.694c0.807,0.1,1.607,0.385,2.387,0.599c0.435,0.133,0.844,0.333,1.278,0.512
		c3.697,1.437,6.047,4.212,7.442,7.784c0.379,0.986,0.547,2.082,0.598,3.149c0.235,3.621-0.925,6.751-3.524,9.339
		c-1.156,1.161-2.465,2.107-3.774,3.055c-2.927,2.089-6.242,3.377-9.511,4.712c-2.116,0.847-5.798,2.075-7.893,2.945l0.149,1.604
		c-0.027,1.944-0.399,8.762,0.015,9.449c0.174,0.284,0.489,0.527,0.897,0.728c9.099,4.374,18.175,8.77,27.25,13.163
		c0.296,0.128,0.615,0.277,0.979,0.43c0.104-0.271,0.157-0.503,0.213-0.731c0.808-3.026,1.64-6.029,2.449-9.057
		c0.43-1.604,0.345-1.792-1.33-2.204c-3.282-0.794-6.565-1.543-9.872-2.315c-2.524-0.604-5.073-1.188-7.621-1.816
		c-0.642-0.163-1.281-0.373-1.945-0.606c-0.229-0.101-0.454-0.201-0.681-0.349c-0.271-0.196-0.492-0.482-0.548-0.832
		c-0.205-1.328,1.704-1.581,2.487-0.879c0.067,0.071,0.158,0.122,0.179,0.193c0.632,1.065,1.66,1.45,2.808,1.68
		c1.609,0.34,3.144,0.789,4.75,1.175c0.344,0.082,0.692,0.071,1.201,0.137c-0.174-0.33-0.259-0.519-0.37-0.685
		c-0.67-1.253-1.318-2.48-1.965-3.756c-0.303-0.568-0.265-0.96,0.043-1.158c0.378-0.216,0.768-0.132,1.19,0.37
		c1.11,1.293,2.197,2.56,3.306,3.854c0.377,0.453,0.801,0.862,1.156,1.293c0.976,1.102,8.927,1.541,11.695,1.831
		c0.114,0.028,0.164-0.018,0.419-0.076c-3.645-3.449-7.22-6.873-10.821-10.274c0.437-0.539,0.902-0.613,1.378-0.343
		c0.701,0.421,1.403,0.889,2.056,1.352c3.251,2.253,6.525,4.483,9.775,6.736c0.901,0.638,1.804,1.273,2.706,1.909
		c0.655,0.466,1.365,0.654,2.179,0.568c4.26-0.557,8.519-1.114,12.778-1.672c0.046,0.001,0.094-0.043,0.259-0.105
		c-0.226-0.147-0.405-0.294-0.61-0.416c-7.964-4.354-15.93-8.706-23.894-13.06c-0.363-0.2-0.726-0.444-1.065-0.667
		c0.326-1.236,0.895-1.586,1.991-1.174c0.89,0.333,1.778,0.716,2.622,1.094c7.792,3.396,15.561,6.815,23.353,10.213
		c0.547,0.253,1.117,0.481,1.776,0.807c0.387-0.4,0.84-0.778,1.182-1.228c2.138-2.652,4.275-5.304,6.414-7.958
		c0.048-0.045,0.05-0.091,0.077-0.205c-0.31-0.429-0.815-0.494-1.251-0.625c-4.006-1.241-8.036-2.457-12.066-3.673
		c-6.112-1.876-12.272-3.753-18.384-5.628c-0.39-0.129-0.753-0.327-1.164-0.483c0.349-0.636,0.782-0.456,1.196-0.395
		c2.877,0.455,5.756,0.911,8.632,1.414c8.332,1.379,16.64,2.78,24.97,4.161c0.047,0.002,0.116,0.026,0.163,0.027
		c0.942,0.151,0.989,0.153,1.258-0.809c0.97-3.671,1.921-7.363,2.919-11.146c-0.345-0.036-0.646-0.07-0.967-0.083
		c-6.195-0.371-12.365-0.719-18.581-1.069c-6.402-0.358-12.805-0.715-19.23-1.051c-0.231-0.008-0.484-0.04-0.807-0.099
		c-0.034-0.325-0.068-0.65-0.123-1.047c6.967-0.525,13.888-1.005,20.785-1.556c6.9-0.551,13.835-0.822,20.72-1.581
		c0.583-5.051,1.186-9.984,1.768-14.988c-0.759-0.097-1.347,0.133-1.956,0.297c-2.362,0.63-4.75,1.279-7.113,1.91
		c-10.923,2.853-21.843,5.661-32.766,8.516c-1.123,0.283-2.249,0.656-3.368,0.891c-0.935,0.197-1.139,0.074-1.731-0.804
		c0.282-0.13,0.565-0.258,0.825-0.364c15.092-5.963,30.184-11.881,45.276-17.841c0.423-0.17,0.848-0.386,1.27-0.508
		c0.866-0.269,1.237-0.879,1.249-1.782c0.015-0.417,0.031-0.833,0.069-1.226c0.398-4.432,0.819-8.84,1.242-13.295
		c0.008-0.23,0.109-0.458,0.217-0.87c-0.589,0.279-0.896,0.429-1.25,0.578c-1.438,0.664-2.787,1.47-4.292,2.062
		c-1.081,0.423-2.077,1.032-3.116,1.551c-0.4,0.192-0.845,0.338-1.225,0.556c-0.875,0.499-1.729,1.022-2.604,1.522
		c-1.183,0.649-2.385,1.23-3.568,1.881c-0.756,0.389-1.491,0.846-2.225,1.26c-0.118,0.065-0.19,0.131-0.308,0.196
		c-2.103,1.057-4.228,2.134-6.306,3.214c-2.29,1.187-4.538,2.423-6.83,3.61c-5.573,2.893-11.171,5.763-16.744,8.656
		c-2.48,1.273-4.939,2.569-7.417,3.842c-0.237,0.13-0.497,0.283-0.777,0.318c-0.279,0.036-0.556-0.021-0.809-0.054
		c-0.021-0.069-0.042-0.14-0.083-0.233c0.238-0.176,0.429-0.354,0.69-0.507c10.25-6.516,20.522-13.007,30.773-19.521
		c8.257-5.248,16.537-10.472,24.793-15.719c0.144-0.087,0.261-0.153,0.425-0.215c1.035-0.425,1.299-1.296,1.317-2.382
		c0.02-2.34,0.038-4.678,0.079-6.992c0.034-2.13,0.116-4.303,0.149-6.433c0.006-0.186-0.031-0.418-0.063-0.791
		c-20.996,16.349-41.787,32.771-62.753,48.959c-0.567-0.323-1.021-0.571-1.611-0.872c0.144-0.134,0.287-0.268,0.431-0.4
		c3.326-2.816,6.674-5.608,9.998-8.425c2.511-2.104,5-4.235,7.537-6.361c3.659-3.081,7.317-6.161,10.978-9.245
		c2.105-1.771,4.234-3.568,6.338-5.343c4.163-3.502,8.325-7.004,12.44-10.508c3.469-2.95,6.914-5.878,10.383-8.827
		c1.555-1.308,3.109-2.615,4.683-3.853c1.074-0.817,1.275-1.851,0.963-3.394c-0.491-2.356-0.588-4.723-0.404-7.124
		c0.074-0.691-0.156-1.372-0.201-2.046c-0.075-1.091-0.15-2.182-0.2-3.295c-0.014-0.186-0.044-0.353-0.062-0.533
		c-0.014-0.007-0.026-0.011-0.056-0.026C545.346,746.627,544.75,747.046,544.222,747.534z"/>
	<path display="none" d="M545.943,746.118c0.003,0.024,0.006,0.048,0.009,0.071C545.979,746.202,545.987,746.193,545.943,746.118z"
		/>
</g>
</svg>
