<?xml version="1.0" encoding="utf-8"?>
<!-- Generator: Adobe Illustrator 16.0.3, SVG Export Plug-In . SVG Version: 6.00 Build 0)  -->
<!DOCTYPE svg PUBLIC "-//W3C//DTD SVG 1.1//EN" "http://www.w3.org/Graphics/SVG/1.1/DTD/svg11.dtd">
<svg version="1.1" id="Ebene_3" xmlns="http://www.w3.org/2000/svg" xmlns:xlink="http://www.w3.org/1999/xlink" x="0px" y="0px"
	 width="1417.32px" height="1417.32px" viewBox="0 0 1417.32 1417.32" enable-background="new 0 0 1417.32 1417.32"
	 xml:space="preserve">
<g>
	<path d="M27.362,1319.197c21.403,16.642,42.594,33.535,63.9,50.288c1.553,1.218,4.609,3.182,5.021,2.784
		c7.892-7.616,14.301-2.01,21.287,1.578c1.153,0.589,4.699-2.001,6.227-3.868c12.448-15.22,24.822-30.502,36.773-46.103
		c1.317-1.714,0.786-6.114-0.519-8.28c-2.006-3.313-5.432-5.766-8.877-9.207c111.867-141.697,223.322-282.878,334.617-423.848
		c17.449,8.524,17.385,8.479,28.648-7.179c2.935-4.08,6.412-7.771,10.078-12.167c-0.962-1.396-1.799-3.229-3.163-4.493
		c-10.235-9.493-10.342-9.519-1.406-20.806c9.259-11.705,18.375-23.549,28.248-34.72c2.608-2.951,7.841-5.225,11.75-5.056
		c8.732,0.383,17.379,2.624,26.096,3.857c3.473,0.492,7.047,0.316,12.993,0.534c-4.534-10.625-7.735-19.432-11.972-27.707
		c-4.424-8.65-5.082-15.686,1.838-23.963c16.748-20.027,32.266-41.073,48.913-61.183c2.544-3.07,8.539-4.867,12.796-4.631
		c11.659,0.647,23.239,2.689,37.753,4.55c-3.552-9.046-5.521-15.757-8.699-21.833c-9.259-17.688-9.066-20.491,3.819-35.794
		c4.585-5.439,9.197-10.959,12.938-16.973c3.714-5.963,7.302-7.727,12.591-2.263c6.653,6.867,11.288,4.142,16.175-2.55
		c7.375-10.099,15.441-19.697,23.948-30.432c7.529,4.933,14.729,9.651,22.56,14.777c21.948-27.356,43.586-54.173,65.053-81.123
		c26.609-33.408,52.965-67.021,79.66-100.364c14.384-17.963,14.603-17.857-3.063-32.146c-2.366-1.916-4.92-3.603-7.325-5.474
		c-12.08-9.4-12.088-11.261,1.539-23.625c14.004,13.097,31.2,24.343,41.718,40.059c19.138,28.599,18.772,60.458-1.42,88.741
		c-23.602,33.053-49.697,64.33-74.874,96.245c-8.68,11.005,0.847,20.384,0.847,20.384l66.979,51.204l407.945-180.556l11.931-83.961
		c0,0-135.156-109.721-190.615-153.202c-27.193-21.323-54.069-43.057-81.366-64.249c-5.855-4.545-7.134-8.362-2.023-13.934
		c2.055-2.241,3.665-4.882,5.662-7.18c6.629-7.627,12.606-15.094,0.169-22.987c-1.183-0.751-2.134-4.181-1.449-5.193
		c4.797-7.101-0.416-10.637-4.85-14.161c-19.607-15.593-39.354-31.016-59.036-46.519c-4.138-3.256-7.758-6.129-13.329-1.336
		c-1.596,1.374-7.439-0.488-10.151-2.479c-5.351-3.924-8.988-3.421-12.588,1.921c-2.08,3.083-4.657,5.824-6.892,8.81
		c-8.416,11.244-8.25,10.944-21.08,4.959c-2.259-1.054-8.072,0.794-9.264,2.95c-6.179,11.146-14.461,12.477-26.284,9.825
		C886.3,71.864,844.783,63.641,803.361,55c-17.887-3.731-35.752-7.572-53.652-11.251c-2.844-0.583-5.812-0.571-11.473-1.084
		c9.7,15.81,18.223,29.696,26.74,43.584c25.951,42.309,52.018,84.551,77.581,127.095c1.698,2.822,0.932,8.843-1.029,11.845
		c-7.969,12.188-16.411,24.132-25.549,35.467c-6.366,7.902-6.757,13.593,1.576,20.309c4.54,3.659,12.566,7.336,5.415,16.167
		c-4.086,5.045-7.188,7.898-12.984,2.723c-2.205-1.969-5.039-3.238-8.642-5.49c-6.304,14.539-13.745,8.446-21.721,1.81
		c-4.535-3.77-9.893-6.549-15.351-10.081c-4.833,7.271-9.096,13.681-13.589,20.444c3.041,3.466,5.82,6.637,9.551,10.89
		c-3.114,1.062-6.005,2.913-6.887,2.216c-9.282-7.319-13.078-0.165-17.173,6.17c-2.38,3.682-4.518,7.52-6.281,10.481
		c2.261,5.034,4.251,9.462,6.242,13.889c-4.603-1.019-9.209-2.034-14.108-3.116c-16.382,18.526-16.637,19.561-7.723,33.512
		c-4.499-0.638-8.994-1.281-15.464-2.202c-14.938,20.932-31.178,43.694-48.161,67.493c5.73,5.412,11.714,11.065,18.049,17.049
		c-4.917,6.174-9.301,12.165-14.27,17.625c-1.476,1.621-4.629,2.557-6.943,2.44c-13.749-0.685-23.326,7.786-23.867,21.556
		c-0.643,16.451-0.643,16.451-10.466,29.164c0.173,0.643,0.16,1.48,0.567,1.891c12.233,12.288,12.219,12.266,1.143,25.932
		c-3.841,4.742-8.214,9.211-11.186,14.462c-5.292,9.359-12.737,10.68-22.403,8.699c-9.245-1.894-18.726-2.672-28.108-3.869
		c-0.563-0.071-1.211,0.495-3.327,1.433c2.504,5.994,4.646,12.247,7.641,18.055c6.914,13.399,9.967,25.057-2.626,38.327
		c-15.342,16.164-28.358,34.594-41.81,52.472c-5.501,7.314-11.279,9.133-20.087,7.021c-9.991-2.4-20.404-3.026-33.126-4.763
		c2.185,6.417,3.308,10.403,4.889,14.199c3.624,8.707,7.751,17.214,11.02,26.044c0.706,1.905-0.743,5.299-2.227,7.208
		c-10.831,13.91-22.057,27.51-32.867,41.435c-4.368,5.625-8.477,7.387-13.979,1.694c-4.387-4.532-8.146-3.33-11.734,1.349
		c-5.765,7.51-11.768,14.824-17.405,21.886c0.237,1.317,0.126,2.187,0.509,2.594c11.238,12.051,11.178,11.984,0.727,25.184
		c-59.559,75.228-119.113,150.465-178.607,225.746c-46.229,58.506-92.441,117.033-138.459,175.702
		c-5.084,6.487-9.174,10.417-17.046,3.6c-1.648-1.419-7.987-0.328-9.686,1.687c-13.704,16.328-26.821,33.146-41.125,51.087
		c3.336,3.061,6.462,5.207,8.561,8.098c1.415,1.943,2.684,5.632,1.774,7.336C21.424,1313.392,23.291,1316.035,27.362,1319.197z
		 M1114.347,259.45l-3.272,3.894c-1.953-0.74-4.002-1.149-6.057-1.343c-0.767-0.057-1.546,0.014-2.321,0.129
		c-2.16,0.31-4.313,0.669-6.44,1.05c-0.848,0.146-1.679,0.489-2.488,0.755c-0.454,0.162-0.875,0.395-1.321,0.607
		c-3.831,1.705-6.171,4.757-7.457,8.603c-0.351,1.06-0.472,2.226-0.472,3.352c-0.06,3.838,1.328,7.083,4.206,9.68
		c1.276,1.167,2.708,2.098,4.138,3.03c3.203,2.056,6.768,3.244,10.29,4.485c2.275,0.784,6.226,1.889,8.481,2.702l-0.072,1.7
		c0.129,2.051,0.873,9.231,0.473,9.978c-0.171,0.309-0.491,0.584-0.913,0.817c-9.378,5.084-18.734,10.192-28.088,15.302
		c-0.307,0.148-0.635,0.325-1.013,0.505c-0.122-0.283-0.192-0.525-0.262-0.763c-1.009-3.153-2.041-6.28-3.055-9.435
		c-0.538-1.673-0.457-1.875,1.293-2.396c3.422-1.01,6.852-1.969,10.302-2.954c2.632-0.769,5.296-1.515,7.95-2.311
		c0.669-0.205,1.335-0.459,2.023-0.74c0.234-0.12,0.47-0.237,0.703-0.405c0.275-0.22,0.492-0.533,0.535-0.906
		c0.147-1.413-1.884-1.579-2.674-0.798c-0.066,0.079-0.16,0.135-0.18,0.211c-0.61,1.158-1.674,1.619-2.876,1.918
		c-1.68,0.44-3.278,0.996-4.954,1.485c-0.359,0.104-0.727,0.112-1.259,0.208c0.165-0.359,0.245-0.562,0.353-0.743
		c0.643-1.356,1.264-2.688,1.881-4.067c0.293-0.616,0.232-1.027-0.104-1.218c-0.413-0.21-0.821-0.101-1.238,0.45
		c-1.104,1.421-2.187,2.817-3.293,4.238c-0.373,0.501-0.801,0.953-1.152,1.427c-0.976,1.215-9.346,2.088-12.254,2.537
		c-0.12,0.034-0.173-0.01-0.448-0.061c3.672-3.829,7.272-7.627,10.898-11.405c-0.489-0.548-0.987-0.602-1.476-0.29
		c-0.721,0.48-1.436,1.008-2.1,1.531c-3.314,2.548-6.657,5.072-9.975,7.618c-0.919,0.72-1.841,1.438-2.76,2.156
		c-0.664,0.524-1.406,0.761-2.271,0.711c-4.527-0.369-9.05-0.737-13.575-1.107c-0.047,0.005-0.101-0.04-0.279-0.097
		c0.23-0.167,0.415-0.331,0.623-0.472c8.185-5.007,16.369-10.013,24.552-15.019c0.375-0.23,0.743-0.508,1.09-0.759
		c-0.405-1.29-1.026-1.63-2.161-1.14c-0.923,0.401-1.842,0.849-2.714,1.292c-8.05,3.991-16.076,8-24.127,11.989
		c-0.564,0.295-1.153,0.567-1.835,0.945c-0.425-0.405-0.926-0.779-1.31-1.238c-2.393-2.69-4.788-5.379-7.181-8.069
		c-0.056-0.045-0.059-0.094-0.093-0.212c0.302-0.469,0.835-0.563,1.287-0.726c4.165-1.515,8.358-3.009,12.55-4.502
		c6.354-2.293,12.764-4.593,19.119-6.887c0.403-0.158,0.777-0.387,1.203-0.57c-0.4-0.653-0.848-0.444-1.284-0.356
		c-3.015,0.629-6.027,1.26-9.038,1.937c-8.726,1.887-17.425,3.796-26.148,5.683c-0.051,0.003-0.119,0.036-0.172,0.038
		c-0.987,0.209-1.035,0.213-1.37-0.789c-1.213-3.824-2.406-7.673-3.657-11.616c0.364-0.058,0.682-0.108,1.019-0.138
		c6.521-0.713,13.018-1.398,19.562-2.087c6.743-0.709,13.481-1.417,20.248-2.103c0.242-0.021,0.51-0.069,0.846-0.147
		c0.02-0.345,0.038-0.689,0.077-1.11c-7.384-0.194-14.715-0.345-22.027-0.567c-7.312-0.228-14.647-0.156-21.958-0.603
		c-0.874-5.302-1.766-10.48-2.638-15.733c0.799-0.142,1.432,0.073,2.081,0.212c2.529,0.543,5.081,1.107,7.607,1.648
		c11.681,2.449,23.354,4.852,35.034,7.299c1.2,0.241,2.407,0.579,3.603,0.77c0.996,0.16,1.206,0.017,1.782-0.94
		c-0.301-0.124-0.605-0.244-0.886-0.341c-16.24-5.517-32.482-10.983-48.725-16.5c-0.456-0.157-0.916-0.362-1.366-0.471
		c-0.928-0.239-1.352-0.866-1.408-1.817c-0.04-0.438-0.075-0.877-0.139-1.29c-0.649-4.659-1.321-9.291-1.996-13.971
		c-0.02-0.243-0.14-0.48-0.275-0.909c0.638,0.264,0.968,0.408,1.349,0.545c1.553,0.626,3.021,1.408,4.638,1.956
		c1.164,0.39,2.247,0.983,3.368,1.476c0.436,0.184,0.914,0.314,1.325,0.524c0.949,0.483,1.878,0.991,2.828,1.475
		c1.282,0.624,2.581,1.174,3.864,1.8c0.815,0.37,1.615,0.817,2.412,1.214c0.128,0.063,0.207,0.128,0.337,0.192
		c2.271,1.006,4.57,2.034,6.823,3.067c2.477,1.135,4.914,2.324,7.396,3.458c6.033,2.767,12.09,5.508,18.125,8.276
		c2.685,1.215,5.347,2.457,8.028,3.674c0.257,0.123,0.541,0.273,0.838,0.296c0.295,0.021,0.582-0.05,0.85-0.1
		c0.02-0.076,0.039-0.151,0.076-0.252c-0.261-0.174-0.47-0.352-0.755-0.499c-11.158-6.349-22.34-12.673-33.497-19.022
		c-8.988-5.115-18.001-10.2-26.987-15.314c-0.154-0.085-0.283-0.147-0.461-0.206c-1.112-0.394-1.438-1.3-1.515-2.447
		c-0.14-2.468-0.278-4.936-0.441-7.377c-0.146-2.247-0.346-4.539-0.491-6.783c-0.016-0.196,0.012-0.443,0.025-0.838
		c23.012,16.175,45.81,32.442,68.782,48.449c0.581-0.368,1.048-0.655,1.657-1.002c-0.161-0.133-0.32-0.267-0.479-0.401
		c-3.655-2.801-7.334-5.576-10.989-8.378c-2.762-2.094-5.499-4.213-8.284-6.329c-4.022-3.064-8.047-6.127-12.067-9.192
		c-2.314-1.763-4.657-3.549-6.968-5.313c-4.576-3.484-9.149-6.966-13.676-10.455c-3.816-2.934-7.604-5.847-11.419-8.781
		c-1.708-1.302-3.415-2.602-5.146-3.826c-1.174-0.808-1.439-1.891-1.188-3.53c0.396-2.514,0.375-5.019,0.057-7.544
		c-0.11-0.727,0.097-1.458,0.106-2.169c0.024-1.157,0.047-2.313,0.042-3.492c0.005-0.193,0.026-0.374,0.037-0.565
		c-0.03,0.016-0.037,0.007,0.005-0.076c-0.002,0.027-0.005,0.05-0.005,0.076c0.014-0.007,0.027-0.013,0.057-0.031
		c0.609,0.462,1.256,0.874,1.839,1.362c5.315,4.375,10.604,8.732,15.939,13.08c4.602,3.777,9.176,7.528,13.798,11.277
		c2.431,1.998,4.886,3.973,7.318,5.972c4.647,3.771,9.302,7.59,13.949,11.363c2.382,1.952,4.76,3.906,7.161,5.835
		c4.575,3.753,9.121,7.485,13.72,11.211c2.508,2.066,4.995,4.109,7.55,6.123c4.032,3.162,7.951,6.455,11.938,9.67
		C1113.711,258.914,1114.004,259.161,1114.347,259.45z M1104.505,281.594c-1.1,0.881-2.257,1.717-3.794,2.414
		c0.307-2.725,0.328-5.282,1.077-7.729c0.08-0.204,0.16-0.407,0.291-0.615c0.583-0.91,1.134-1.08,2.126-0.651
		c1.177,0.537,2.375,1.046,3.53,1.611c0.665,0.334,1.313,0.696,1.979,1.03c0.436,0.232,0.639,0.583,0.729,1.066
		c0.261,1.843,0.621,3.729,0.932,5.617c0.016,0.194,0.011,0.416-0.008,0.761c-1.927-1.258-3.746-2.425-5.541-3.57
		C1105.125,281.074,1105.125,281.074,1104.505,281.594z M1116.602,305.811c-0.104-2.568-0.224-5.112-0.322-7.684
		c-0.088-1.833-0.193-3.64-0.303-5.449c-0.054-0.903,0.224-1.664,0.933-2.241c1.834-1.535,3.954-2.284,6.356-2.343
		c0.443,0.01,0.895,0.117,1.314,0.156c0.195,0.844,0.33,1.543,0.515,2.239c0.898,3.285,1.798,6.572,2.696,9.858
		c0.219,0.816,0.198,0.891-0.551,1.299c-0.144,0.061-0.306,0.151-0.423,0.233c-3.16,1.501-6.293,3.025-9.454,4.527
		c-0.162,0.088-0.402,0.156-0.665,0.254C1116.643,306.299,1116.621,306.054,1116.602,305.811z M1130.713,286.49
		c-0.213,0.363-0.423,0.774-0.66,1.163c-0.258,0.416-0.568,0.516-1.002,0.333c-0.54-0.272-1.124-0.492-1.645-0.841
		c-1.381-0.885-2.897-1.123-4.479-0.962c-1.22,0.107-2.425,0.36-3.631,0.61c-1.058,0.24-1.972,0.785-2.742,1.539
		c-0.883,0.837-1.846,1.611-2.785,2.401c-1.354-1.453-1.637-2.46-1.1-4.177c0.405-1.286,0.637-2.582,0.643-3.934
		c0.011-1.572-0.265-3.021-1.14-4.344c-0.253-0.397-0.598-0.686-0.806-1.085c-0.113-0.188-0.121-0.555-0.033-0.66
		c0.715-0.848,1.483-1.603,2.227-2.379C1116.021,275.633,1130.211,285.797,1130.713,286.49z M1141.603,303.595
		c1.2,2.815,1.125,7.046-0.157,9.81c-1.557,0.455-14.035,2.666-14.752,2.605c0.177-1.343,3.762-11.842,4.301-12.7
		c0.049-0.003,0.119-0.035,0.169-0.039c2.976,0.061,5.974,0.096,8.95,0.158C1140.657,303.479,1141.159,303.583,1141.603,303.595z
		 M1160.23,311.433c-0.369,1.407-0.712,2.836-1.08,4.242c-0.037,0.15-0.149,0.283-0.206,0.46
		c-5.091-0.933-10.154-1.845-15.271-2.801c-0.109-0.137-0.142-0.21-0.095-0.263c0.135-0.43,0.268-0.857,0.377-1.308
		c0.941-3.862,1.254-7.623-1.208-11.093c-0.753-1.04-0.554-1.547,0.599-2.434c1.128,0.813,2.275,1.595,3.399,2.407
		c2.91,2.129,5.75,4.29,8.661,6.419c1.471,1.1,2.94,2.2,4.462,3.296C1160.259,310.644,1160.36,310.954,1160.23,311.433z
		 M1157.107,317.89c0.962,2.028,1.919,4.007,2.879,6.037c0.563,1.376,0.33,1.813-1.101,2.01c-0.147,0.014-0.317,0.054-0.485,0.043
		c-2.189,0.288-4.374,0.577-6.534,0.837c-0.146,0.013-0.317,0.004-0.541-0.002c0.467-0.557,0.813-1.077,1.269-1.51
		c1.251-1.164,1.291-2.395,0.574-3.854c-0.715-1.462-1.362-2.951-2.027-4.417c-0.125-0.283-0.246-0.568-0.408-1.02
		c2.025,0.438,3.881,0.866,5.756,1.219C1156.885,317.296,1156.982,317.607,1157.107,317.89z M1114.377,352.067
		c0.134-0.428,0.228-0.755,0.322-1.083c3.423-10.094,6.843-20.188,10.236-30.303c0.156-0.456,0.352-0.792,0.646-1.038
		c0.693-0.503,7.869-1.028,9.91-1.253l1.664-0.364c1.188,2.082,2.935,5.81,4.124,7.891c1.824,3.256,3.59,6.589,6.187,9.36
		c1.164,1.25,2.329,2.499,3.697,3.559c3.055,2.387,6.49,3.194,10.259,2.474c1.112-0.194,2.237-0.513,3.224-1.039
		c3.559-1.978,6.168-4.759,7.189-8.826c0.132-0.478,0.288-0.935,0.372-1.407c0.143-0.872,0.315-1.723,0.315-2.582
		c0.031-2.188-0.011-4.346-0.078-6.524c-0.016-0.785-0.084-1.565-0.271-2.31c-0.54-1.991-1.299-3.938-2.363-5.736l3.338-3.974
		c0.346,0.289,0.635,0.535,0.928,0.778c3.83,3.399,7.773,6.668,11.579,10.095c2.424,2.172,4.888,4.242,7.332,6.386
		c4.431,3.815,8.893,7.701,13.353,11.537c2.335,2.008,4.67,4.016,6.983,6.05c4.515,3.931,9.078,7.855,13.591,11.786
		c2.39,2.051,4.756,4.13,7.143,6.182c4.51,3.88,8.996,7.742,13.507,11.622c5.2,4.461,10.426,8.942,15.629,13.452
		c0.584,0.49,1.099,1.058,1.658,1.575c-0.04,0.102-0.062,0.128-0.075,0.252c-0.216,0.043-0.408,0.109-0.626,0.152
		c-1.134,0.221-2.296,0.42-3.429,0.641c-0.699,0.134-1.41,0.441-2.12,0.477c-2.547,0.124-5.036,0.56-7.422,1.357
		c-1.524,0.525-2.635,0.45-3.682-0.566c-1.53-1.511-3.081-2.949-4.657-4.409c-3.545-3.251-7.068-6.482-10.616-9.735
		c-4.218-3.906-8.438-7.813-12.651-11.671c-2.135-1.976-4.298-3.973-6.435-5.949c-3.708-3.437-7.421-6.871-11.132-10.305
		c-2.536-2.359-5.096-4.69-7.66-7.07c-3.387-3.121-6.755-6.265-10.143-9.385c-0.16-0.132-0.32-0.268-0.479-0.4
		c-0.242,0.609-0.467,1.145-0.702,1.805c19.745,19.846,39.692,39.503,59.587,59.386c-0.383,0.083-0.601,0.125-0.82,0.169
		c-2.263,0.221-4.528,0.441-6.766,0.686c-2.433,0.259-4.89,0.547-7.344,0.833c-1.115,0.146-2.041-0.045-2.672-1.071
		c-0.063-0.143-0.171-0.28-0.28-0.417c-6.585-7.975-13.148-15.976-19.732-23.949c-8.178-9.899-16.328-19.824-24.507-29.722
		c-0.193-0.254-0.403-0.432-0.62-0.659c-0.069,0.03-0.143,0.062-0.235,0.118c0.024,0.293-0.021,0.617,0.049,0.855
		c0.073,0.29,0.29,0.516,0.438,0.772c1.658,2.435,3.342,4.842,5.002,7.277c3.764,5.468,7.505,10.964,11.271,16.432
		c1.544,2.247,3.136,4.442,4.682,6.692c1.428,2.06,2.813,4.125,4.192,6.191c0.086,0.115,0.164,0.18,0.248,0.297
		c0.531,0.716,1.084,1.453,1.612,2.169c0.84,1.155,1.604,2.34,2.441,3.496c0.614,0.881,1.299,1.681,1.938,2.534
		c0.277,0.368,0.488,0.817,0.743,1.21c0.679,1.022,1.45,1.986,2.034,3.067c0.79,1.477,1.839,2.81,2.725,4.231
		c0.198,0.302,0.399,0.653,0.771,1.236c-0.446-0.06-0.724-0.111-0.945-0.116c-4.679,0.135-9.404,0.275-14.104,0.436
		c-0.418,0.013-0.856,0.05-1.295,0.089c-0.947,0.107-1.637-0.202-2.034-1.077c-0.211-0.449-0.463-0.843-0.698-1.265
		c-8.229-15.051-16.409-30.105-24.639-45.156c-0.147-0.256-0.318-0.537-0.489-0.816c-0.82,0.758-0.947,0.968-0.62,1.919
		c0.422,1.167,0.934,2.278,1.378,3.417c4.424,11.083,8.798,22.17,13.222,33.252c0.945,2.425,1.965,4.816,2.934,7.212
		c0.247,0.618,0.548,1.23,0.567,2.012c-5.352,0.022-10.578,0.058-15.954,0.108c-1.668-7.1-2.859-14.339-4.371-21.523
		c-1.478-7.166-2.886-14.361-4.351-21.6c-0.409,0.108-0.747,0.186-1.083,0.264c0.004,0.319,0.001,0.59,0,0.861
		c0.465,6.762,0.956,13.544,1.416,20.307c0.445,6.517,0.894,13.082,1.312,19.628c0.027,0.341,0.011,0.687,0.041,1.027
		c-4.103-0.551-8.099-1.065-12.073-1.605c-1.044-0.154-1.072-0.177-1.013-1.214c-0.005-0.048,0.011-0.122,0.009-0.171
		c0.354-8.92,0.737-17.817,1.095-26.736c0.128-3.057,0.251-6.163,0.353-9.24c0.012-0.442,0.141-0.92-0.571-1.203
		c-0.134,0.43-0.295,0.836-0.354,1.282c-1.189,6.686-2.355,13.343-3.496,20.021c-0.749,4.388-1.496,8.775-2.272,13.136
		c-0.082,0.476-0.085,1.015-0.493,1.396c-0.101-0.042-0.179-0.06-0.227-0.056c-3.061-1.893-6.146-3.763-9.186-5.686
		c-0.493-0.326-0.97-0.726-1.443-1.078c0.207-0.73,0.401-1.335,0.614-1.968c2.545-8.619,5.114-17.216,7.659-25.834
		c0.28-0.981,0.567-1.916,0.803-2.893c0.288-1.203-0.129-1.782-1.497-1.935c-0.183,0.385-0.394,0.799-0.557,1.205
		c-3.522,8.923-7.048,17.849-10.569,26.772c-0.101,0.229-0.234,0.437-0.356,0.693c-0.085-0.114-0.115-0.186-0.146-0.256
		c-1.143-4.396-2.283-8.79-3.427-13.183c-0.217-0.817-0.088-1.614,0.313-2.361c0.55-1.029,1.125-2.038,1.646-3.089
		c1.938-3.704,3.877-7.408,5.789-11.134c0.473-0.778,0.846-1.548,1.218-2.364c0.225-0.537,0.111-0.994-0.539-1.404
		c-3.097,4.224-6.194,8.395-9.359,12.699c-0.098-0.265-0.127-0.335-0.136-0.432c-0.08-2.914-0.663-11.311,0.388-12.507
		c0.43-0.455,0.801-0.954,1.207-1.382c1.211-1.332,2.398-2.639,3.607-3.972c0.473-0.507,0.512-0.928,0.231-1.295
		c-0.244-0.3-0.64-0.313-1.219,0.105c-1.228,0.818-2.453,1.686-3.681,2.552c-0.186,0.117-0.323,0.225-0.671,0.476
		c0.001-0.54-0.055-0.903-0.011-1.275c0.196-1.686,0.465-3.403,0.608-5.136c0.089-1.235,0.36-2.364,1.396-3.165
		c0.092-0.057,0.132-0.159,0.178-0.212c0.634-0.915,0.117-2.884-1.246-2.494c-0.363,0.104-0.633,0.373-0.804,0.683
		c-0.123,0.256-0.229,0.486-0.276,0.76c-0.161,0.678-0.299,1.377-0.382,2.121c-0.304,2.728-0.63,5.48-0.907,8.231
		c-0.378,3.567-0.735,7.11-1.14,10.657c-0.211,1.812-0.396,1.924-2.138,1.683c-3.279-0.453-6.559-0.904-9.815-1.384
		C1114.926,352.168,1114.698,352.114,1114.377,352.067z M1089.072,392.986c0.558-0.073,0.965-0.183,1.354-0.215
		c0.904-0.055,1.813-0.06,2.736-0.188c1.673-0.219,2.263-0.813,2.512-2.453c0.307-2.139,0.634-4.304,0.938-6.441
		c0.146-1.143,0.316-2.31,0.486-3.48c-0.568-0.025-1.061-0.03-1.579-0.108c-0.622-0.069-1.048,0.115-1.286,0.774
		c-0.722,1.88-1.442,3.759-2.164,5.639c-0.079,0.203-0.164,0.357-0.353,0.743c-0.143-0.528-0.271-0.86-0.348-1.197
		c-0.703-2.714-1.379-5.405-2.055-8.096c-0.041-0.218-0.133-0.433-0.155-0.674c-0.157-0.944,0.027-1.38,0.845-1.867
		c0.414-0.33,0.957-0.599,1.506-0.769c1.36-0.438,2.721-0.875,4.116-1.242c0.932-0.252,1.521-0.844,1.814-1.729
		c0.114-0.353,0.205-0.729,0.269-1.129c0.652-3.517,1.283-7.01,1.936-10.528c0.028-0.25,0.131-0.479,0.221-0.854
		c2.634,0.092,5.242,0.159,7.926,0.245c-0.142,0.602-0.252,1.054-0.379,1.53c-1.015,3.895-2.056,7.768-2.993,11.679
		c-0.605,2.607-0.817,2.158,1.504,4.019c2.004,1.594,4.009,3.188,6.036,4.756c0.212,0.177,0.402,0.381,0.616,0.609
		c-2.715,2.372-5.388,4.692-8.037,6.982c-0.101-0.31-0.047-0.535,0.009-0.76c0.286-1.523,0.545-3.068,0.83-4.591
		c0.085-0.424,0.072-0.841-0.297-1.153c-0.819-0.689-1.615-1.357-2.517-2.114c-0.096,0.328-0.147,0.555-0.181,0.752
		c-0.822,4.098-1.695,8.201-2.519,12.299c-0.081,0.475-0.212,0.952-0.341,1.43c-0.319,1.181-1.145,1.843-2.317,1.896
		c-0.806,0.045-1.604-0.083-2.402-0.21C1092.487,396.128,1090.944,394.467,1089.072,392.986z M1069.233,373.196
		c-0.048,0.004-0.096,0.008-0.125-0.012l0.111-0.134c-0.217-1.945-0.809-6.51-0.735-8.48c0.037-1.01,0.441-1.708,1.255-2.246
		c2.646-1.752,5.322-3.482,7.943-5.255c1.18-0.814,2.362-1.628,3.497-2.44c0.574-0.418,0.598-0.444,0.492-1.393
		c-0.729,0.383-1.434,0.738-2.11,1.165c-3.267,1.954-6.56,3.935-9.827,5.887c-0.395,0.254-0.782,0.606-1.399,0.269
		c0.024-1.108,0.027-2.238,0.028-3.367c-0.004-0.86,0.462-1.416,1.187-1.848c3.344-1.934,6.664-3.892,9.98-5.849
		c1.003-0.603,1.084-0.807,0.706-1.756c-0.629-0.166-1.117,0.146-1.631,0.438c-3.344,1.664-6.659,3.351-9.976,5.038
		c-0.306,0.148-0.588,0.271-0.875,0.395c-0.236-0.741-0.459-3.055-0.364-3.651c0.037-0.423,0.178-0.752,0.605-0.937
		c0.379-0.181,0.75-0.41,1.126-0.589c3.965-1.866,7.937-3.683,11.897-5.549c0.117-0.035,0.208-0.142,0.396-0.256
		c0.002-0.221-0.019-0.465-0.039-0.708c-0.496-3.174-1.014-6.322-1.535-9.517c-0.313-1.889-0.212-2.119,1.434-2.998
		c12.124-6.576,24.27-13.18,36.368-19.777c2.979-1.61,5.908-3.214,8.89-4.822c0.021-0.027,0.069-0.031,0.092-0.058l0.092,0.212
		c-1.071,3.212-2.147,6.375-3.219,9.585c-4.393,13.076-8.806,26.178-13.222,39.23c-0.607,1.797-0.791,1.912-2.706,1.931
		c-3.218,0.01-6.431,0.066-9.64,0.124c-0.242,0.021-0.487,0.044-0.704,0.087c-0.081,0.201-0.12,0.303-0.185,0.432
		c-1.154,4.226-2.264,8.446-3.42,12.672c-0.109,0.402-0.249,0.782-0.384,1.212c-0.114,0.403-0.41,0.648-0.791,0.781
		c-0.573,0.197-2.912,0.4-3.66,0.268c0.095-0.329,0.165-0.627,0.239-0.93c1.089-3.557,2.152-7.135,3.244-10.693
		c0.149-0.552,0.396-1.115,0.149-1.682c-1.027-0.229-1.215-0.115-1.607,0.999c-1.356,3.604-2.715,7.21-4.045,10.835
		c-0.302,0.789-0.769,1.344-1.612,1.491c-1.115,0.196-2.227,0.39-3.313,0.607c-0.416-0.529-0.136-0.97,0.022-1.427
		c1.36-3.554,2.746-7.138,4.106-10.692c0.306-0.739,0.507-1.518,0.786-2.278c-0.951,0.059-1.002,0.063-1.29,0.725
		c-0.623,1.283-1.251,2.564-1.8,3.865c-1.269,2.908-2.539,5.819-3.81,8.727c-0.389,0.894-1.03,1.44-1.997,1.624
		c-1.928,0.411-6.5,0.636-8.479,0.733l-0.113,0.133C1069.265,373.267,1069.26,373.218,1069.233,373.196z M1042.772,352.901
		c-0.265-0.764-0.527-1.525-0.618-2.328c-0.153-1.167,0.357-2.095,1.466-2.607c0.447-0.211,0.874-0.397,1.35-0.584
		c3.895-1.519,7.785-3.083,11.681-4.6c0.213-0.092,0.404-0.156,0.712-0.305c-0.957-0.852-1.754-1.518-2.575-2.208
		c-0.369-0.312-0.783-0.251-1.187-0.096c-1.451,0.545-2.927,1.065-4.378,1.609c-0.214,0.092-0.402,0.157-0.749,0.14
		c1.802-3.006,3.627-6.038,5.495-9.122c0.262,0.174,0.496,0.325,0.707,0.503c1.916,1.7,3.831,3.4,5.725,5.127
		c2.231,1.967,1.755,1.836,4.221,0.79c3.688-1.599,7.322-3.29,10.984-4.955c0.447-0.211,0.874-0.396,1.442-0.643
		c0.548,2.628,1.063,5.188,1.608,7.768c-0.334,0.128-0.542,0.266-0.807,0.366c-3.353,1.248-6.685,2.469-10.036,3.719
		c-0.382,0.13-0.735,0.282-1.066,0.459c-0.821,0.439-1.303,1.119-1.392,2.084c-0.149,1.414-0.316,2.853-0.514,4.269
		c-0.073,0.572-0.245,1.151-0.44,1.709c-0.318,0.862-0.735,1.143-1.694,1.154c-0.219-0.005-0.468-0.033-0.689-0.039
		c-2.768-0.203-5.563-0.425-8.328-0.629c-0.348-0.019-0.695-0.086-1.242-0.138c0.325-0.224,0.486-0.363,0.673-0.475
		c1.726-1.034,3.427-2.091,5.182-3.103c0.561-0.343,0.694-0.773,0.541-1.398c-0.139-0.479-0.233-1.009-0.379-1.537
		c-1.122,0.367-2.22,0.708-3.343,1.074c-2.054,0.67-4.13,1.366-6.184,2.035c-1.576,0.53-2.083,1.188-1.985,2.897
		c0.056,0.904,0.207,1.798,0.286,2.726c0.034,0.391,0.024,0.833,0.021,1.373C1045.478,356.35,1043.578,355.114,1042.772,352.901z"/>
	<path d="M1154.946,312.233c-0.559,0.613-1.782,0.67-2.472,0.093c-0.556-0.468-0.64-1.712-0.176-2.319
		c0.463-0.604,1.857-0.651,2.573-0.05C1155.476,310.42,1155.506,311.62,1154.946,312.233z"/>
	<path d="M1351.604,476.613c1.728,37.087-21.183,70.745-48.373,79.336c-2.58-11.521-11.768-52.726-11.768-52.726L1351.604,476.613z"
		/>
	<path d="M1178.314,553.294c1.731,37.089-21.179,70.744-48.371,79.332c-2.579-11.52-11.769-52.725-11.769-52.725L1178.314,553.294z"
		/>
	<path d="M1264.906,514.975c1.727,37.09-21.182,70.747-48.373,79.339c-2.576-11.524-11.766-52.727-11.766-52.727L1264.906,514.975z"
		/>
	<path d="M1091.636,591.649c1.729,37.09-21.187,70.745-48.376,79.338c-2.575-11.523-11.768-52.727-11.768-52.727L1091.636,591.649z"
		/>
	<path d="M1005.092,629.947c1.729,37.087-21.183,70.743-48.374,79.337c-2.574-11.524-11.767-52.729-11.767-52.729L1005.092,629.947z
		"/>
	<path d="M1410.123,477.329c-11.136-3.909-50.961-17.918-50.961-17.918l9.252-65.115
		C1400.798,412.46,1417.228,449.71,1410.123,477.329z"/>
	<path d="M928.26,644.372c-31.64,19.425-72.176,15.618-92.835-4.041c8.847-7.823,40.489-35.771,40.489-35.771L928.26,644.372z"/>
	<path display="none" d="M1124.936,320.681c0.156-0.456,0.352-0.792,0.646-1.038c0.693-0.503,7.869-1.028,9.91-1.253l1.664-0.364
		c1.188,2.082,2.935,5.81,4.124,7.891c1.824,3.256,3.59,6.589,6.187,9.36c1.164,1.25,2.329,2.499,3.697,3.559
		c3.055,2.387,6.49,3.194,10.259,2.474c1.112-0.194,2.237-0.513,3.224-1.039c3.559-1.978,6.168-4.759,7.189-8.826
		c0.132-0.478,0.288-0.935,0.372-1.407c0.143-0.872,0.315-1.723,0.315-2.582c0.031-2.188-0.011-4.346-0.078-6.524
		c-0.016-0.785-0.084-1.565-0.271-2.31c-0.54-1.991-1.299-3.938-2.363-5.736l3.338-3.974c0.346,0.289,0.635,0.535,0.928,0.778
		c3.83,3.399,7.773,6.668,11.579,10.095c2.424,2.172,4.888,4.242,7.332,6.386c4.431,3.815,8.893,7.701,13.353,11.537
		c2.335,2.008,4.67,4.016,6.983,6.05c4.515,3.931,9.078,7.855,13.591,11.786c2.39,2.051,4.756,4.13,7.143,6.182
		c4.51,3.88,8.996,7.742,13.507,11.622c5.2,4.461,10.426,8.942,15.629,13.452c0.584,0.49,1.099,1.058,1.658,1.575
		c-0.04,0.102-0.062,0.128-0.075,0.252c-0.216,0.043-0.408,0.109-0.626,0.152c-1.134,0.221-2.296,0.42-3.429,0.641
		c-0.699,0.134-1.41,0.441-2.12,0.477c-2.547,0.124-5.036,0.56-7.422,1.357c-1.524,0.525-2.635,0.45-3.682-0.566
		c-1.53-1.511-3.081-2.949-4.657-4.409c-3.545-3.251-7.068-6.482-10.616-9.735c-4.218-3.906-8.438-7.813-12.651-11.671
		c-2.135-1.976-4.298-3.973-6.435-5.949c-3.708-3.437-7.421-6.871-11.132-10.305c-2.536-2.359-5.096-4.69-7.66-7.07
		c-3.387-3.121-6.755-6.265-10.143-9.385c-0.16-0.132-0.32-0.268-0.479-0.4c-0.242,0.609-0.467,1.145-0.702,1.805
		c19.745,19.846,39.692,39.503,59.587,59.386c-0.383,0.083-0.601,0.125-0.82,0.169c-2.263,0.221-4.528,0.441-6.766,0.686
		c-2.433,0.259-4.89,0.547-7.344,0.833c-1.115,0.146-2.041-0.045-2.672-1.071c-0.063-0.143-0.171-0.28-0.28-0.417
		c-6.585-7.975-13.148-15.976-19.732-23.949c-8.178-9.899-16.328-19.824-24.507-29.722c-0.193-0.254-0.403-0.432-0.62-0.659
		c-0.069,0.03-0.143,0.062-0.235,0.118c0.024,0.293-0.021,0.617,0.049,0.855c0.073,0.29,0.29,0.516,0.438,0.772
		c1.658,2.435,3.342,4.842,5.002,7.277c3.764,5.468,7.505,10.964,11.271,16.432c1.544,2.247,3.136,4.442,4.682,6.692
		c1.428,2.06,2.813,4.125,4.192,6.191c0.086,0.115,0.164,0.18,0.248,0.297c0.531,0.716,1.084,1.453,1.612,2.169
		c0.84,1.155,1.604,2.34,2.441,3.496c0.614,0.881,1.299,1.681,1.938,2.534c0.277,0.368,0.488,0.817,0.743,1.21
		c0.679,1.022,1.45,1.986,2.034,3.067c0.79,1.477,1.839,2.81,2.725,4.231c0.198,0.302,0.399,0.653,0.771,1.236
		c-0.446-0.06-0.724-0.111-0.945-0.116c-4.679,0.135-9.404,0.275-14.104,0.436c-0.418,0.013-0.856,0.05-1.295,0.089
		c-0.947,0.107-1.637-0.202-2.034-1.077c-0.211-0.449-0.463-0.843-0.698-1.265c-8.229-15.051-16.409-30.105-24.639-45.156
		c-0.147-0.256-0.318-0.537-0.489-0.816c-0.82,0.758-0.947,0.968-0.62,1.919c0.422,1.167,0.934,2.278,1.378,3.417
		c4.424,11.083,8.798,22.17,13.222,33.252c0.945,2.425,1.965,4.816,2.934,7.212c0.247,0.618,0.548,1.23,0.567,2.012
		c-5.352,0.022-10.578,0.058-15.954,0.108c-1.668-7.1-2.859-14.339-4.371-21.523c-1.478-7.166-2.886-14.361-4.351-21.6
		c-0.409,0.108-0.747,0.186-1.083,0.264c0.004,0.319,0.001,0.59,0,0.861c0.465,6.762,0.956,13.544,1.416,20.307
		c0.445,6.517,0.894,13.082,1.312,19.628c0.027,0.341,0.011,0.687,0.041,1.027c-4.103-0.551-8.099-1.065-12.073-1.605
		c-1.044-0.154-1.072-0.177-1.013-1.214c-0.005-0.048,0.011-0.122,0.009-0.171c0.354-8.92,0.737-17.817,1.095-26.736
		c0.128-3.057,0.251-6.163,0.353-9.24c0.012-0.442,0.141-0.92-0.571-1.203c-0.134,0.43-0.295,0.836-0.354,1.282
		c-1.189,6.686-2.355,13.343-3.496,20.021c-0.749,4.388-1.496,8.775-2.272,13.136c-0.082,0.476-0.085,1.015-0.493,1.396
		c-0.101-0.042-0.179-0.06-0.227-0.056c-3.061-1.893-6.146-3.763-9.186-5.686c-0.493-0.326-0.97-0.726-1.443-1.078
		c0.207-0.73,0.401-1.335,0.614-1.968c2.545-8.619,5.114-17.216,7.659-25.834c0.28-0.981,0.567-1.916,0.803-2.893
		c0.288-1.203-0.129-1.782-1.497-1.935c-0.183,0.385-0.394,0.799-0.557,1.205c-3.522,8.923-7.048,17.849-10.569,26.772
		c-0.101,0.229-0.234,0.437-0.356,0.693c-0.085-0.114-0.115-0.186-0.146-0.256c-1.143-4.396-2.283-8.79-3.427-13.183
		c-0.217-0.817-0.088-1.614,0.313-2.361c0.55-1.029,1.125-2.038,1.646-3.089c1.938-3.704,3.877-7.408,5.789-11.134
		c0.473-0.778,0.846-1.548,1.218-2.364c0.225-0.537,0.111-0.994-0.539-1.404c-3.097,4.224-6.194,8.395-9.359,12.699
		c-0.098-0.265-0.127-0.335-0.136-0.432c-0.08-2.914-0.663-11.311,0.388-12.507c0.43-0.455,0.801-0.954,1.207-1.382
		c1.211-1.332,2.398-2.639,3.607-3.972c0.473-0.507,0.512-0.928,0.231-1.295c-0.244-0.3-0.64-0.313-1.219,0.105
		c-1.228,0.818-2.453,1.686-3.681,2.552c-0.186,0.117-0.323,0.225-0.671,0.476c0.001-0.54-0.055-0.903-0.011-1.275
		c0.196-1.686,0.465-3.403,0.608-5.136c0.089-1.235,0.36-2.364,1.396-3.165c0.092-0.057,0.132-0.159,0.178-0.212
		c0.634-0.915,0.117-2.884-1.246-2.494c-0.363,0.104-0.633,0.373-0.804,0.683c-0.123,0.256-0.229,0.486-0.276,0.76
		c-0.161,0.678-0.299,1.377-0.382,2.121c-0.304,2.728-0.63,5.48-0.907,8.231c-0.378,3.567-0.735,7.11-1.14,10.657
		c-0.211,1.812-0.396,1.924-2.138,1.683c-3.279-0.453-6.559-0.904-9.815-1.384c-0.247-0.027-0.475-0.081-0.796-0.127
		c0.134-0.428,0.228-0.755,0.322-1.083C1118.122,340.89,1121.542,330.796,1124.936,320.681z"/>
	<path display="none" d="M1093.163,392.583c1.673-0.219,2.263-0.813,2.512-2.453c0.307-2.139,0.634-4.304,0.938-6.441
		c0.146-1.143,0.316-2.31,0.486-3.48c-0.568-0.025-1.061-0.03-1.579-0.108c-0.622-0.069-1.048,0.115-1.286,0.774
		c-0.722,1.88-1.442,3.759-2.164,5.639c-0.079,0.203-0.164,0.357-0.353,0.743c-0.143-0.528-0.271-0.86-0.348-1.197
		c-0.703-2.714-1.379-5.405-2.055-8.096c-0.041-0.218-0.133-0.433-0.155-0.674c-0.157-0.944,0.027-1.38,0.845-1.867
		c0.414-0.33,0.957-0.599,1.506-0.769c1.36-0.438,2.721-0.875,4.116-1.242c0.932-0.252,1.521-0.844,1.814-1.729
		c0.114-0.353,0.205-0.729,0.269-1.129c0.652-3.517,1.283-7.01,1.936-10.528c0.028-0.25,0.131-0.479,0.221-0.854
		c2.634,0.092,5.242,0.159,7.926,0.245c-0.142,0.602-0.252,1.054-0.379,1.53c-1.015,3.895-2.056,7.768-2.993,11.679
		c-0.605,2.607-0.817,2.158,1.504,4.019c2.004,1.594,4.009,3.188,6.036,4.756c0.212,0.177,0.402,0.381,0.616,0.609
		c-2.715,2.372-5.388,4.692-8.037,6.982c-0.101-0.31-0.047-0.535,0.009-0.76c0.286-1.523,0.545-3.068,0.83-4.591
		c0.085-0.424,0.072-0.841-0.297-1.153c-0.819-0.689-1.615-1.357-2.517-2.114c-0.096,0.328-0.147,0.555-0.181,0.752
		c-0.822,4.098-1.695,8.201-2.519,12.299c-0.081,0.475-0.212,0.952-0.341,1.43c-0.319,1.181-1.145,1.843-2.317,1.896
		c-0.806,0.045-1.604-0.083-2.402-0.21c-2.316-0.412-3.859-2.072-5.731-3.553c0.558-0.073,0.965-0.183,1.354-0.215
		C1091.331,392.716,1092.24,392.711,1093.163,392.583z"/>
	<path display="none" d="M1116.279,298.127c-0.088-1.833-0.193-3.64-0.303-5.449c-0.054-0.903,0.224-1.664,0.933-2.241
		c1.834-1.535,3.954-2.284,6.356-2.343c0.443,0.01,0.895,0.117,1.314,0.156c0.195,0.844,0.33,1.543,0.515,2.239
		c0.898,3.285,1.798,6.572,2.696,9.858c0.219,0.816,0.198,0.891-0.551,1.299c-0.144,0.061-0.306,0.151-0.423,0.233
		c-3.16,1.501-6.293,3.025-9.454,4.527c-0.162,0.088-0.402,0.156-0.665,0.254c-0.056-0.363-0.077-0.607-0.097-0.851
		C1116.498,303.243,1116.378,300.699,1116.279,298.127z"/>
	<path display="none" d="M1160.23,311.433c0.13-0.479,0.028-0.789-0.362-1.075c-1.521-1.096-2.991-2.196-4.462-3.296
		c-2.911-2.129-5.751-4.29-8.661-6.419c-1.124-0.812-2.271-1.594-3.399-2.407c-1.152,0.887-1.352,1.395-0.599,2.434
		c2.462,3.47,2.149,7.231,1.208,11.093c-0.109,0.451-0.242,0.878-0.377,1.308c-0.047,0.053-0.015,0.126,0.095,0.263
		c5.117,0.956,10.181,1.868,15.271,2.801c0.057-0.178,0.169-0.31,0.206-0.46C1159.519,314.269,1159.861,312.84,1160.23,311.433z
		 M1154.946,312.233c-0.559,0.613-1.782,0.67-2.472,0.093c-0.556-0.468-0.64-1.712-0.176-2.319c0.463-0.604,1.857-0.651,2.573-0.05
		C1155.476,310.42,1155.506,311.62,1154.946,312.233z"/>
	<path display="none" d="M1126.693,316.01c0.177-1.343,3.762-11.842,4.301-12.7c0.049-0.003,0.119-0.035,0.169-0.039
		c2.976,0.061,5.974,0.096,8.95,0.158c0.544,0.05,1.046,0.153,1.489,0.166c1.2,2.815,1.125,7.046-0.157,9.81
		C1139.889,313.859,1127.41,316.07,1126.693,316.01z"/>
	<path display="none" d="M1129.051,287.985c-0.54-0.272-1.124-0.492-1.645-0.841c-1.381-0.885-2.897-1.123-4.479-0.962
		c-1.22,0.107-2.425,0.36-3.631,0.61c-1.058,0.24-1.972,0.785-2.742,1.539c-0.883,0.837-1.846,1.611-2.785,2.401
		c-1.354-1.453-1.637-2.46-1.1-4.177c0.405-1.286,0.637-2.582,0.643-3.934c0.011-1.572-0.265-3.021-1.14-4.344
		c-0.253-0.397-0.598-0.686-0.806-1.085c-0.113-0.188-0.121-0.555-0.033-0.66c0.715-0.848,1.483-1.603,2.227-2.379
		c2.461,1.48,16.65,11.645,17.152,12.337c-0.213,0.363-0.423,0.774-0.66,1.163C1129.795,288.068,1129.484,288.168,1129.051,287.985z
		"/>
	<path display="none" d="M1104.505,281.594c-1.1,0.881-2.257,1.717-3.794,2.414c0.307-2.725,0.328-5.282,1.077-7.729
		c0.08-0.204,0.16-0.407,0.291-0.615c0.583-0.91,1.134-1.08,2.126-0.651c1.177,0.537,2.375,1.046,3.53,1.611
		c0.665,0.334,1.313,0.696,1.979,1.03c0.436,0.232,0.639,0.583,0.729,1.066c0.261,1.843,0.621,3.729,0.932,5.617
		c0.016,0.194,0.011,0.416-0.008,0.761c-1.927-1.258-3.746-2.425-5.541-3.57C1105.125,281.074,1105.125,281.074,1104.505,281.594z"
		/>
	<path display="none" d="M1158.886,325.937c-0.147,0.014-0.317,0.054-0.485,0.043c-2.189,0.288-4.374,0.577-6.534,0.837
		c-0.146,0.013-0.317,0.004-0.541-0.002c0.467-0.557,0.813-1.077,1.269-1.51c1.251-1.164,1.291-2.395,0.574-3.854
		c-0.715-1.462-1.362-2.951-2.027-4.417c-0.125-0.283-0.246-0.568-0.408-1.02c2.025,0.438,3.881,0.866,5.756,1.219
		c0.396,0.064,0.494,0.375,0.619,0.658c0.962,2.028,1.919,4.007,2.879,6.037C1160.549,325.303,1160.316,325.739,1158.886,325.937z"
		/>
	<path display="none" d="M1069.22,373.05c-0.217-1.945-0.809-6.51-0.735-8.48c0.037-1.01,0.441-1.708,1.255-2.246
		c2.646-1.752,5.322-3.482,7.943-5.255c1.18-0.814,2.362-1.628,3.497-2.44c0.574-0.418,0.598-0.444,0.492-1.393
		c-0.729,0.383-1.434,0.738-2.11,1.165c-3.267,1.954-6.56,3.935-9.827,5.887c-0.395,0.254-0.782,0.606-1.399,0.269
		c0.024-1.108,0.027-2.238,0.028-3.367c-0.004-0.86,0.462-1.416,1.187-1.848c3.344-1.934,6.664-3.892,9.98-5.849
		c1.003-0.603,1.084-0.807,0.706-1.756c-0.629-0.166-1.117,0.146-1.631,0.438c-3.344,1.664-6.659,3.351-9.976,5.038
		c-0.306,0.148-0.588,0.271-0.875,0.395c-0.236-0.741-0.459-3.055-0.364-3.651c0.037-0.423,0.178-0.752,0.605-0.937
		c0.379-0.181,0.75-0.41,1.126-0.589c3.965-1.866,7.937-3.683,11.897-5.549c0.117-0.035,0.208-0.142,0.396-0.256
		c0.002-0.221-0.019-0.465-0.039-0.708c-0.496-3.174-1.014-6.322-1.535-9.517c-0.313-1.889-0.212-2.119,1.434-2.998
		c12.124-6.576,24.27-13.18,36.368-19.777c2.979-1.61,5.908-3.214,8.89-4.822c0.021-0.027,0.069-0.031,0.092-0.058l0.092,0.212
		c-1.071,3.212-2.147,6.375-3.219,9.585c-4.393,13.076-8.806,26.178-13.222,39.23c-0.607,1.797-0.791,1.912-2.706,1.931
		c-3.218,0.01-6.431,0.066-9.64,0.124c-0.242,0.021-0.487,0.044-0.704,0.087c-0.081,0.201-0.12,0.303-0.185,0.432
		c-1.154,4.226-2.264,8.446-3.42,12.672c-0.109,0.402-0.249,0.782-0.384,1.212c-0.114,0.403-0.41,0.648-0.791,0.781
		c-0.573,0.197-2.912,0.4-3.66,0.268c0.095-0.329,0.165-0.627,0.239-0.93c1.089-3.557,2.152-7.135,3.244-10.693
		c0.149-0.552,0.396-1.115,0.149-1.682c-1.027-0.229-1.215-0.115-1.607,0.999c-1.356,3.604-2.715,7.21-4.045,10.835
		c-0.302,0.789-0.769,1.344-1.612,1.491c-1.115,0.196-2.227,0.39-3.313,0.607c-0.416-0.529-0.136-0.97,0.022-1.427
		c1.36-3.554,2.746-7.138,4.106-10.692c0.306-0.739,0.507-1.518,0.786-2.278c-0.951,0.059-1.002,0.063-1.29,0.725
		c-0.623,1.283-1.251,2.564-1.8,3.865c-1.269,2.908-2.539,5.819-3.81,8.727c-0.389,0.894-1.03,1.44-1.997,1.624
		c-1.928,0.411-6.5,0.636-8.479,0.733l-0.113,0.133c-0.003-0.049-0.008-0.099-0.034-0.121c-0.048,0.004-0.096,0.008-0.125-0.012
		L1069.22,373.05z"/>
	<path display="none" d="M1043.62,347.967c0.447-0.211,0.874-0.397,1.35-0.584c3.895-1.519,7.785-3.083,11.681-4.6
		c0.213-0.092,0.404-0.156,0.712-0.305c-0.957-0.852-1.754-1.518-2.575-2.208c-0.369-0.312-0.783-0.251-1.187-0.096
		c-1.451,0.545-2.927,1.065-4.378,1.609c-0.214,0.092-0.402,0.157-0.749,0.14c1.802-3.006,3.627-6.038,5.495-9.122
		c0.262,0.174,0.496,0.325,0.707,0.503c1.916,1.7,3.831,3.4,5.725,5.127c2.231,1.967,1.755,1.836,4.221,0.79
		c3.688-1.599,7.322-3.29,10.984-4.955c0.447-0.211,0.874-0.396,1.442-0.643c0.548,2.628,1.063,5.188,1.608,7.768
		c-0.334,0.128-0.542,0.266-0.807,0.366c-3.353,1.248-6.685,2.469-10.036,3.719c-0.382,0.13-0.735,0.282-1.066,0.459
		c-0.821,0.439-1.303,1.119-1.392,2.084c-0.149,1.414-0.316,2.853-0.514,4.269c-0.073,0.572-0.245,1.151-0.44,1.709
		c-0.318,0.862-0.735,1.143-1.694,1.154c-0.219-0.005-0.468-0.033-0.689-0.039c-2.768-0.203-5.563-0.425-8.328-0.629
		c-0.348-0.019-0.695-0.086-1.242-0.138c0.325-0.224,0.486-0.363,0.673-0.475c1.726-1.034,3.427-2.091,5.182-3.103
		c0.561-0.343,0.694-0.773,0.541-1.398c-0.139-0.479-0.233-1.009-0.379-1.537c-1.122,0.367-2.22,0.708-3.343,1.074
		c-2.054,0.67-4.13,1.366-6.184,2.035c-1.576,0.53-2.083,1.188-1.985,2.897c0.056,0.904,0.207,1.798,0.286,2.726
		c0.034,0.391,0.024,0.833,0.021,1.373c-1.782-1.588-3.682-2.823-4.487-5.036c-0.265-0.764-0.527-1.525-0.618-2.328
		C1042.001,349.406,1042.512,348.479,1043.62,347.967z"/>
	<path display="none" d="M1105.018,262.001c-0.767-0.057-1.546,0.014-2.321,0.129c-2.16,0.31-4.313,0.669-6.44,1.05
		c-0.848,0.146-1.679,0.489-2.488,0.755c-0.454,0.162-0.875,0.395-1.321,0.607c-3.831,1.705-6.171,4.757-7.457,8.603
		c-0.351,1.06-0.472,2.226-0.472,3.352c-0.06,3.838,1.328,7.083,4.206,9.68c1.276,1.167,2.708,2.098,4.138,3.03
		c3.203,2.056,6.768,3.244,10.29,4.485c2.275,0.784,6.226,1.889,8.481,2.702l-0.072,1.7c0.129,2.051,0.873,9.231,0.473,9.978
		c-0.171,0.309-0.491,0.584-0.913,0.817c-9.378,5.084-18.734,10.192-28.088,15.302c-0.307,0.148-0.635,0.325-1.013,0.505
		c-0.122-0.283-0.192-0.525-0.262-0.763c-1.009-3.153-2.041-6.28-3.055-9.435c-0.538-1.673-0.457-1.875,1.293-2.396
		c3.422-1.01,6.852-1.969,10.302-2.954c2.632-0.769,5.296-1.515,7.95-2.311c0.669-0.205,1.335-0.459,2.023-0.74
		c0.234-0.12,0.47-0.237,0.703-0.405c0.275-0.22,0.492-0.533,0.535-0.906c0.147-1.413-1.884-1.579-2.674-0.798
		c-0.066,0.079-0.16,0.135-0.18,0.211c-0.61,1.158-1.674,1.619-2.876,1.918c-1.68,0.44-3.278,0.996-4.954,1.485
		c-0.359,0.104-0.727,0.112-1.259,0.208c0.165-0.359,0.245-0.562,0.353-0.743c0.643-1.356,1.264-2.688,1.881-4.067
		c0.293-0.616,0.232-1.027-0.104-1.218c-0.413-0.21-0.821-0.101-1.238,0.45c-1.104,1.421-2.187,2.817-3.293,4.238
		c-0.373,0.501-0.801,0.953-1.152,1.427c-0.976,1.215-9.346,2.088-12.254,2.537c-0.12,0.034-0.173-0.01-0.448-0.061
		c3.672-3.829,7.272-7.627,10.898-11.405c-0.489-0.548-0.987-0.602-1.476-0.29c-0.721,0.48-1.436,1.008-2.1,1.531
		c-3.314,2.548-6.657,5.072-9.975,7.618c-0.919,0.72-1.841,1.438-2.76,2.156c-0.664,0.524-1.406,0.761-2.271,0.711
		c-4.527-0.369-9.05-0.737-13.575-1.107c-0.047,0.005-0.101-0.04-0.279-0.097c0.23-0.167,0.415-0.331,0.623-0.472
		c8.185-5.007,16.369-10.013,24.552-15.019c0.375-0.23,0.743-0.508,1.09-0.759c-0.405-1.29-1.026-1.63-2.161-1.14
		c-0.923,0.401-1.842,0.849-2.714,1.292c-8.05,3.991-16.076,8-24.127,11.989c-0.564,0.295-1.153,0.567-1.835,0.945
		c-0.425-0.405-0.926-0.779-1.31-1.238c-2.393-2.69-4.788-5.379-7.181-8.069c-0.056-0.045-0.059-0.094-0.093-0.212
		c0.302-0.469,0.835-0.563,1.287-0.726c4.165-1.515,8.358-3.009,12.55-4.502c6.354-2.293,12.764-4.593,19.119-6.887
		c0.403-0.158,0.777-0.387,1.203-0.57c-0.4-0.653-0.848-0.444-1.284-0.356c-3.015,0.629-6.027,1.26-9.038,1.937
		c-8.726,1.887-17.425,3.796-26.148,5.683c-0.051,0.003-0.119,0.036-0.172,0.038c-0.987,0.209-1.035,0.213-1.37-0.789
		c-1.213-3.824-2.406-7.673-3.657-11.616c0.364-0.058,0.682-0.108,1.019-0.138c6.521-0.713,13.018-1.398,19.562-2.087
		c6.743-0.709,13.481-1.417,20.248-2.103c0.242-0.021,0.51-0.069,0.846-0.147c0.02-0.345,0.038-0.689,0.077-1.11
		c-7.384-0.194-14.715-0.345-22.027-0.567c-7.312-0.228-14.647-0.156-21.958-0.603c-0.874-5.302-1.766-10.48-2.638-15.733
		c0.799-0.142,1.432,0.073,2.081,0.212c2.529,0.543,5.081,1.107,7.607,1.648c11.681,2.449,23.354,4.852,35.034,7.299
		c1.2,0.241,2.407,0.579,3.603,0.77c0.996,0.16,1.206,0.017,1.782-0.94c-0.301-0.124-0.605-0.244-0.886-0.341
		c-16.24-5.517-32.482-10.983-48.725-16.5c-0.456-0.157-0.916-0.362-1.366-0.471c-0.928-0.239-1.352-0.866-1.408-1.817
		c-0.04-0.438-0.075-0.877-0.139-1.29c-0.649-4.659-1.321-9.291-1.996-13.971c-0.02-0.243-0.14-0.48-0.275-0.909
		c0.638,0.264,0.968,0.408,1.349,0.545c1.553,0.626,3.021,1.408,4.638,1.956c1.164,0.39,2.247,0.983,3.368,1.476
		c0.436,0.184,0.914,0.314,1.325,0.524c0.949,0.483,1.878,0.991,2.828,1.475c1.282,0.624,2.581,1.174,3.864,1.8
		c0.815,0.37,1.615,0.817,2.412,1.214c0.128,0.063,0.207,0.128,0.337,0.192c2.271,1.006,4.57,2.034,6.823,3.067
		c2.477,1.135,4.914,2.324,7.396,3.458c6.033,2.767,12.09,5.508,18.125,8.276c2.685,1.215,5.347,2.457,8.028,3.674
		c0.257,0.123,0.541,0.273,0.838,0.296c0.295,0.021,0.582-0.05,0.85-0.1c0.02-0.076,0.039-0.151,0.076-0.252
		c-0.261-0.174-0.47-0.352-0.755-0.499c-11.158-6.349-22.34-12.673-33.497-19.022c-8.988-5.115-18.001-10.2-26.987-15.314
		c-0.154-0.085-0.283-0.147-0.461-0.206c-1.112-0.394-1.438-1.3-1.515-2.447c-0.14-2.468-0.278-4.936-0.441-7.377
		c-0.146-2.247-0.346-4.539-0.491-6.783c-0.016-0.196,0.012-0.443,0.025-0.838c23.012,16.175,45.81,32.442,68.782,48.449
		c0.581-0.368,1.048-0.655,1.657-1.002c-0.161-0.133-0.32-0.267-0.479-0.401c-3.655-2.801-7.334-5.576-10.989-8.378
		c-2.762-2.094-5.499-4.213-8.284-6.329c-4.022-3.064-8.047-6.127-12.067-9.192c-2.314-1.763-4.657-3.549-6.968-5.313
		c-4.576-3.484-9.149-6.966-13.676-10.455c-3.816-2.934-7.604-5.847-11.419-8.781c-1.708-1.302-3.415-2.602-5.146-3.826
		c-1.174-0.808-1.439-1.891-1.188-3.53c0.396-2.514,0.375-5.019,0.057-7.544c-0.11-0.727,0.097-1.458,0.106-2.169
		c0.024-1.157,0.047-2.313,0.042-3.492c0.005-0.193,0.026-0.374,0.037-0.565c0.014-0.007,0.027-0.013,0.057-0.031
		c0.609,0.462,1.256,0.874,1.839,1.362c5.315,4.375,10.604,8.732,15.939,13.08c4.602,3.777,9.176,7.528,13.798,11.277
		c2.431,1.998,4.886,3.973,7.318,5.972c4.647,3.771,9.302,7.59,13.949,11.363c2.382,1.952,4.76,3.906,7.161,5.835
		c4.575,3.753,9.121,7.485,13.72,11.211c2.508,2.066,4.995,4.109,7.55,6.123c4.032,3.162,7.951,6.455,11.938,9.67
		c0.29,0.243,0.583,0.49,0.926,0.779l-3.272,3.894C1109.121,262.604,1107.072,262.194,1105.018,262.001z"/>
	<path display="none" d="M1020.156,182.733c-0.002,0.027-0.005,0.05-0.005,0.076
		C1020.121,182.825,1020.114,182.816,1020.156,182.733z"/>
</g>
</svg>
