<?xml version="1.0" encoding="utf-8"?>
<!-- Generator: Adobe Illustrator 16.0.3, SVG Export Plug-In . SVG Version: 6.00 Build 0)  -->
<!DOCTYPE svg PUBLIC "-//W3C//DTD SVG 1.1//EN" "http://www.w3.org/Graphics/SVG/1.1/DTD/svg11.dtd">
<svg version="1.1" id="Ebene_2" xmlns="http://www.w3.org/2000/svg" xmlns:xlink="http://www.w3.org/1999/xlink" x="0px" y="0px"
	 width="1417.32px" height="1417.32px" viewBox="0 0 1417.32 1417.32" enable-background="new 0 0 1417.32 1417.32"
	 xml:space="preserve">
<g>
	<path display="none" fill="#FFFFFF" d="M-286.174,413.236c113.232,364.79,226.465,729.58,339.697,1094.37
		c555.998-172.585,1111.996-345.17,1667.992-517.754c-113.232-364.79-226.464-729.579-339.695-1094.369
		C825.821,68.067,269.824,240.652-286.174,413.236z M86.95,1231.074c6.735-10.418,13.989-20.531,24.151-28.16
		c4.238-3.183,7.893-7.144,11.407-10.375c-1.604-5.172-4.518-9.657-3.715-13.331c0.82-3.745,5.296-6.688,8.182-9.995
		c2.964,1.661,4.559,2.454,6.054,3.409c6.924,4.427,8.246,4.319,14.158-0.938c3.597-3.198,7.342-6.225,10.953-9.405
		c3.927-3.46,7.606-3.586,11.761-0.108c2.93,2.455,6.439,4.221,9.672,6.28c2.732-2.411,4.593-3.915,6.297-5.579
		c11.043-10.791,22.039-21.632,33.079-32.43c40.281-39.406,80.567-78.812,120.865-118.198
		c29.259-28.598,58.553-57.157,87.785-85.778c1.652-1.617,2.904-3.641,4.342-5.477c-0.7-0.165-1.399-0.332-2.1-0.498
		c0.125-5.544-0.586-11.262,0.527-16.602c3.728-17.854,8.274-35.541,12.094-53.38c0.739-3.456,0.768-7.979-0.896-10.831
		c-2.773-4.755-2.19-8.29,0.217-12.772c16.957-31.556,36.793-61.113,60.574-87.938c4.309-4.86,9.352-9.064,13.992-13.635
		c0.974-0.957,1.694-2.18,2.492-3.308c2.282-3.224,4.121-6.884,6.875-9.63c25.988-25.907,52.154-51.635,78.208-77.477
		c5.632-5.586,11.021-11.418,16.377-16.987c-1.516-3.558-2.671-6.267-4.334-10.174c3.734-3.13,7.256-6.556,11.249-9.294
		c4.243-2.908,9.284-4.7,13.371-7.782c23.205-17.502,46.028-35.518,72.163-48.706c9.123-4.602,17.843-10,26.854-14.832
		c7.826-4.197,10.805-3.822,17.24,2.055c7.105,6.489,14.004,13.206,21.077,19.729c1.967,1.813,4.239,3.292,7.069,5.458
		c3.235-3.359,5.878-6.104,8.458-8.783c-4.765-11.597-19.319-15.14-20.082-28.395c10.258-6.749,20.106-2.935,30.116,0.931
		c1.985-0.616,4.045-1.255,6.288-1.951c2.088,2.009,4.051,3.9,5.986,5.76c1.223-0.379,2.39-0.411,3.059-1.004
		c3.899-3.454,7.734-6.986,11.495-10.593c6.065-5.817,5.915-6.882,0.235-13.207c-5.654-6.297-10.997-12.873-16.596-19.468
		c7.865-5.285,13.036-6.201,20.7-4.49c6.036,1.348,11.946,5.607,17.973,0.186c2.607,2.813,4.711,5.077,7.564,8.152
		c6.499-6.631,12.527-12.782,18.555-18.932c-5.469-11.241-17.906-16.198-20.048-28.659c5.829-3.574,12.042-4.573,18.846-3.034
		c5.877,1.329,11.842,2.255,17.77,3.36c0.137-0.408,0.271-0.815,0.408-1.224c1.672,1.902,3.342,3.804,6.036,6.868
		c5.37-5.016,10.36-9.73,15.409-14.378c3.55-3.267,3.464-6.39,0.101-9.78c-4.378-4.413-8.861-8.769-12.785-13.57
		c-2.076-2.544-3.067-5.977-4.558-9.026c11.604-8.416,21.435-2.648,31.339,0.559c2.212-1.065,4.339-2.088,6.657-3.203
		c2.298,2.055,4.46,3.992,7.687,6.877c5.881-5.772,11.733-11.105,16.936-17.013c0.899-1.021-0.292-5.021-1.672-6.688
		c-3.309-3.993-7.605-7.164-10.929-11.146c-2.782-3.335-4.754-7.349-7.192-11.233c7.747-4.404,14.335-5.389,21.57-3.416
		c5.218,1.422,10.658,2.035,15.998,3.01c0.082-0.339,0.166-0.677,0.248-1.015c2.16,1.907,4.323,3.814,7.373,6.505
		c6.413-6.628,12.38-12.795,18.019-18.625c-5.712-11.807-18.722-16.318-21.152-28.511c11.115-6.992,21.397-2.759,31.684,0.592
		c2.262-0.947,4.436-1.857,6.784-2.84c2.24,2.157,4.337,4.175,7.339,7.065c5.3-4.958,10.333-9.681,15.384-14.387
		c3.313-3.088,3.232-6.129,0.097-9.331c-4.068-4.157-8.292-8.204-11.957-12.7c-2.252-2.762-3.586-6.274-5.246-9.298
		c5.919-5,11.317-6.254,17.728-4.504c6.228,1.702,12.648,2.685,18.987,3.982c0.114-0.38,0.229-0.759,0.343-1.14
		c1.986,1.871,3.971,3.74,6.927,6.524c6.354-6.539,12.332-12.69,18.153-18.682c-5.382-11.533-18.898-15.929-20.084-28.855
		c10.637-6.75,20.68-2.633,30.194,0.908c2.9-1.128,5.25-2.044,7.589-2.956c2.244,2.424,4.09,4.417,7.059,7.624
		c6.639-6.72,12.891-13.051,19.043-19.277c-6.937-10.954-19.141-16.036-21.693-30.438c6.714-0.326,12.753-1.246,18.669-0.737
		c6.372,0.549,12.633,2.435,18.943,3.738c0.142-0.408,0.282-0.814,0.423-1.222c1.963,1.886,3.927,3.772,6.568,6.308
		c6.467-6.383,12.613-12.449,18.431-18.189c-4.299-12.335-19.178-15.66-20.043-29.032c5.958-3.261,11.881-4.563,18.581-2.996
		c6.309,1.478,12.8,2.175,19.212,3.217c0.115-0.532,0.231-1.064,0.349-1.596c2.145,1.937,4.288,3.873,7.242,6.541
		c6.438-6.617,12.428-12.773,18.505-19.016c-8.027-9.781-15.15-18.465-22.517-27.441c11.672-7.458,21.957-3.902,32.229-0.178
		c1.953-0.606,3.838-1.191,5.922-1.838c2.214,2.225,4.377,4.399,7.284,7.316c6.57-6.539,12.66-12.601,18.684-18.594
		c-5.894-11.21-18.106-16.28-20.174-28.407c11.34-6.466,23.181-4.949,32.04,3.885c2.772,2.767,5.703,5.374,7.67,7.219
		c9.058-0.421,16.087-11.191,25.066-1.355c-2.459,3.023-4.399,5.404-7.05,8.659c7.416,5.784,14.366,11.203,22.055,17.198
		c6.922-8.454,13.086-15.982,19.301-23.571c2.019-0.287,3.945-0.561,5.688-0.809c7.7,11.199,7.131,23.518-1.151,33.482
		c-3.698,4.447-7.183,9.072-11.244,14.227c2.159,2.414,4.613,4.307,5.867,6.803c1.223,2.435,1.219,5.485,1.889,8.968
		c-4.732-0.141-7.658-0.229-12.01-0.36c-0.738,9.146-1.454,18.017-2.184,27.053c12.166,2.83,23.975,1.14,33.701,8.709
		c-5.729,13.799-17.292,17.445-30.208,17.067c-1.389,4.212-2.507,7.602-3.688,11.18c-3.788-1.122-6.415-1.901-10.357-3.068
		c-3.129,8.213-6.167,16.186-9.269,24.33c10.214,6.88,22.704,7.527,29.384,18.209c-7.077,11.288-18.839,9.9-29.449,10.349
		c-2.029,2.258-3.722,4.146-5.465,6.09c-2.941-1.164-5.483-2.168-8.028-3.176c-4.238,7.718-8.256,15.034-13.112,23.875
		c9.069,3.468,17.289,6.611,25.508,9.754c-0.703,1.025-1.404,2.05-2.106,3.076c1.354,2.188,2.705,4.375,4.222,6.831
		c-7.981,9.32-19.016,8.283-29.283,7.89c-2.265,1.911-4.063,3.428-6.899,5.822c-2.194-1.837-4.473-3.749-7.55-6.327
		c-4.934,8.638-9.215,16.131-13.608,23.821c8.548,8.904,21.745,10.541,26.403,22.541c-9.837,9.511-21.338,8.626-32.554,4.851
		c-2.461,2.872-4.52,5.271-6.691,7.805c-3.361-2.59-5.797-4.468-8.952-6.9c-6.155,5.967-11.938,11.574-18.13,17.579
		c5.829,10.909,17.895,16.596,19.491,29.237c-6.427,4.685-13.328,3.771-20.539,1.898c-4.94-1.285-10.098-1.755-15.157-2.589
		c-0.179,0.572-0.356,1.144-0.535,1.715c-2.026-1.816-4.054-3.633-6.997-6.273c-6.421,6.356-12.637,12.507-18.633,18.442
		c5.797,11.038,18.121,15.758,19.637,27.815c-9.249,5.414-10.354,5.483-19.354,3.33c-5.792-1.384-11.672-2.398-17.513-3.579
		c-0.121,0.457-0.24,0.915-0.36,1.372c-2.07-1.732-4.14-3.464-7.105-5.947c-6.11,6.305-11.829,12.206-17.643,18.205
		c7.308,10.002,13.883,18.997,20.68,28.298c-7.31,3.987-13.11,4.794-19.549,3.193c-5.94-1.478-12.105-2.049-18.17-3.021
		c-0.144,0.558-0.289,1.115-0.434,1.673c-2.014-1.808-4.028-3.615-7.023-6.302c-6.438,6.398-12.474,12.397-18.409,18.296
		c6.617,10.883,18.637,16.188,19.81,28.919c-7.024,4.404-14.134,3.81-21.544,1.725c-4.951-1.393-10.107-2.067-15.172-3.063
		c-0.148,0.476-0.299,0.953-0.448,1.429c-2.016-1.802-4.035-3.604-6.82-6.093c-4.127,4.095-7.867,7.855-11.66,11.561
		c-7.782,7.598-7.797,7.789-0.21,15.752c1.798,1.889,3.823,3.612,5.345,5.703c3.083,4.229,5.893,8.661,9.042,13.35
		c-6.907,3.91-12.616,5.188-19.097,3.67c-6.223-1.457-12.609-2.211-18.923-3.275c-0.102,0.417-0.203,0.832-0.303,1.248
		c-2.085-1.736-4.168-3.472-6.764-5.635c-3.72,3.436-7.129,6.458-10.395,9.627c-8.934,8.669-8.932,9.409-0.59,18.171
		c1.938,2.034,4.17,3.867,5.734,6.156c2.713,3.982,5.009,8.249,7.602,12.596c-7.18,3.627-13.157,4.747-19.797,2.836
		c-5.949-1.713-12.123-2.65-18.197-3.929c-0.148,0.464-0.295,0.928-0.443,1.392c-1.738-1.58-3.478-3.158-6.119-5.556
		c-4.879,4.526-9.561,9.042-14.437,13.336c-4.328,3.811-4.006,7.207-0.042,11.123c5.689,5.622,11.087,11.536,16.274,16.974
		c-0.58,2.411-0.996,4.15-1.34,5.581c-6.591,3.22-12.842,4.067-19.66,2.171c-5.349-1.486-10.979-1.947-16.486-2.864
		c-0.138,0.478-0.275,0.956-0.413,1.434c-2.016-1.814-4.03-3.628-6.8-6.122c-4.974,4.968-9.493,9.676-14.23,14.153
		c-3.674,3.474-3.829,6.621-0.222,10.248c5.512,5.541,10.836,11.266,16.162,16.831c-0.19,2.337-0.354,4.376-0.485,5.98
		c-10.547,6.186-20.214,3.117-29.58-1.198c-2.522,0.783-4.769,1.479-7.047,2.187c-2.354-2.054-4.532-3.954-7.408-6.462
		c-6.503,6.247-12.575,12.083-18.653,17.921c5.883,11.09,17.854,16.382,20.026,28.287c-10.422,7.054-20.408,3.16-29.57,0.145
		c-2.862,0.888-4.928,1.529-7.131,2.214c-2.017-2.038-3.929-3.973-6.719-6.797c-6.465,6.243-12.643,12.209-18.898,18.251
		c5.598,11.081,17.753,16.312,19.882,28.142c-10.456,8.507-21.359,1.631-32.062-0.017c-0.325,0.777-0.651,1.553-0.976,2.328
		c1.658,2.23,2.992,4.827,5.026,6.636c20.927,18.623,34.965,42.158,47.713,66.604c1.24,2.38,2.613,5.612,1.971,7.896
		c-3.524,12.527-7.576,24.908-11.67,37.265c-0.592,1.785-2.238,3.313-3.635,4.723c-7.057,7.124-14.114,14.246-21.307,21.229
		c-28.065,27.24-56.24,54.367-84.259,81.654c-18.531,18.049-36.664,36.511-55.391,54.348c-7.04,6.706-15.011,12.526-22.991,18.132
		c-13.999,9.832-29.011,12.142-46.119,8.163c-13.668-3.18-27.68-1.393-37.18,11.687c-0.58,0.8-1.424,1.406-2.144,2.106
		c-37.811,36.775-75.66,73.513-113.413,110.348c-15.786,15.404-31.138,31.259-47.121,46.453
		c-9.684,9.207-19.442,18.701-30.541,25.969c-12.853,8.414-27.154,14.643-40.944,21.588c-7.844,3.952-15.592,8.746-23.964,10.855
		c-15.32,3.859-31.017,6.331-46.652,8.797c-23.014,3.627-15.971,6.411-35.638-9.071c-5.358-4.217-10.69-8.466-16.095-12.624
		c-1.219-0.938-2.697-1.537-4.659-2.628c-2.16,1.953-4.48,3.542-6.156,5.645c-9.123,11.457-20.573,20.179-32.588,28.271
		c-9.193,6.189-19.476,5.802-27.358-1.716c-4.639-4.424-9.529-6.271-15.791-4.993c-5.099,1.041-9.386-0.531-13.043-4.357
		c-10.25-10.713-20.821-21.127-30.824-32.064c-2.688-2.936-5.665-7.524-5.273-10.988c1.046-9.279-2.478-16.221-7.762-23.105
		C81.308,1246.631,82.218,1238.396,86.95,1231.074z"/>
	<path display="none" d="M632.769,744.077c-0.417,0.4-1.406,0.36-1.846-0.058c-0.439-0.417-0.357-1.521,0.18-2.036
		c0.416-0.438,1.367-0.36,1.804,0.134C633.344,742.612,633.284,743.584,632.769,744.077z"/>
	<path d="M87.06,1254.127c5.284,6.885,8.808,13.826,7.762,23.105c-0.391,3.464,2.586,8.053,5.273,10.988
		c10.003,10.938,20.575,21.352,30.824,32.064c3.657,3.826,7.944,5.398,13.043,4.357c6.262-1.278,11.152,0.569,15.791,4.993
		c7.882,7.518,18.165,7.905,27.358,1.716c12.015-8.092,23.465-16.813,32.588-28.271c1.676-2.103,3.996-3.691,6.156-5.645
		c1.962,1.091,3.44,1.69,4.659,2.628c5.405,4.158,10.736,8.407,16.095,12.624c19.667,15.482,12.625,12.698,35.638,9.071
		c15.635-2.466,31.332-4.938,46.652-8.797c8.372-2.109,16.12-6.903,23.964-10.855c13.791-6.945,28.091-13.174,40.944-21.588
		c11.099-7.268,20.856-16.762,30.541-25.969c15.983-15.194,31.335-31.049,47.121-46.453
		c37.753-36.835,75.603-73.572,113.413-110.348c0.72-0.7,1.564-1.307,2.144-2.106c9.5-13.079,23.511-14.866,37.18-11.687
		c17.107,3.979,32.12,1.669,46.119-8.163c7.98-5.605,15.952-11.426,22.991-18.132c18.727-17.837,36.859-36.299,55.391-54.348
		c28.019-27.287,56.193-54.414,84.259-81.654c7.192-6.982,14.25-14.104,21.307-21.229c1.396-1.409,3.043-2.938,3.635-4.723
		c4.094-12.356,8.146-24.737,11.67-37.265c0.643-2.284-0.73-5.517-1.971-7.896c-12.748-24.445-26.786-47.98-47.713-66.604
		c-2.034-1.809-3.368-4.405-5.026-6.636c0.324-0.775,0.65-1.551,0.976-2.328c10.702,1.647,21.605,8.523,32.062,0.017
		c-2.129-11.83-14.284-17.061-19.882-28.142c6.256-6.042,12.434-12.008,18.898-18.251c2.79,2.824,4.702,4.759,6.719,6.797
		c2.203-0.685,4.269-1.326,7.131-2.214c9.162,3.016,19.148,6.909,29.57-0.145c-2.173-11.905-14.144-17.197-20.026-28.287
		c6.078-5.838,12.15-11.674,18.653-17.921c2.876,2.509,5.054,4.408,7.408,6.462c2.278-0.708,4.524-1.404,7.047-2.187
		c9.366,4.315,19.033,7.384,29.58,1.198c0.132-1.604,0.295-3.643,0.485-5.98c-5.326-5.564-10.65-11.29-16.162-16.831
		c-3.607-3.627-3.452-6.774,0.222-10.248c4.737-4.477,9.257-9.185,14.23-14.153c2.77,2.494,4.784,4.308,6.8,6.122
		c0.138-0.478,0.275-0.956,0.413-1.434c5.507,0.917,11.138,1.378,16.486,2.864c6.818,1.896,13.069,1.049,19.66-2.171
		c0.344-1.431,0.76-3.17,1.34-5.581c-5.188-5.438-10.585-11.353-16.274-16.974c-3.964-3.916-4.286-7.312,0.042-11.123
		c4.876-4.293,9.558-8.81,14.437-13.336c2.642,2.398,4.381,3.976,6.119,5.556c0.148-0.464,0.295-0.928,0.443-1.392
		c6.074,1.279,12.248,2.216,18.197,3.929c6.64,1.911,12.617,0.791,19.797-2.836c-2.593-4.347-4.889-8.614-7.602-12.596
		c-1.564-2.29-3.796-4.122-5.734-6.156c-8.342-8.762-8.344-9.501,0.59-18.171c3.266-3.169,6.675-6.191,10.395-9.627
		c2.596,2.163,4.679,3.898,6.764,5.635c0.1-0.416,0.201-0.831,0.303-1.248c6.313,1.063,12.7,1.818,18.923,3.275
		c6.48,1.518,12.189,0.24,19.097-3.67c-3.149-4.689-5.959-9.12-9.042-13.35c-1.521-2.091-3.547-3.814-5.345-5.703
		c-7.587-7.963-7.572-8.154,0.21-15.752c3.793-3.705,7.533-7.465,11.66-11.561c2.785,2.489,4.805,4.292,6.82,6.093
		c0.149-0.476,0.3-0.954,0.448-1.429c5.064,0.996,10.221,1.669,15.172,3.063c7.41,2.085,14.52,2.679,21.544-1.725
		c-1.173-12.731-13.192-18.036-19.81-28.919c5.936-5.898,11.971-11.898,18.409-18.296c2.995,2.687,5.01,4.495,7.023,6.302
		c0.145-0.558,0.29-1.116,0.434-1.673c6.064,0.972,12.229,1.543,18.17,3.021c6.438,1.601,12.239,0.793,19.549-3.193
		c-6.797-9.301-13.372-18.296-20.68-28.298c5.813-5.999,11.532-11.899,17.643-18.205c2.966,2.483,5.035,4.215,7.105,5.947
		c0.12-0.458,0.239-0.916,0.36-1.372c5.841,1.18,11.721,2.194,17.513,3.579c9,2.153,10.105,2.084,19.354-3.33
		c-1.516-12.057-13.84-16.777-19.637-27.815c5.996-5.935,12.212-12.086,18.633-18.442c2.943,2.64,4.971,4.457,6.997,6.273
		c0.179-0.572,0.356-1.143,0.535-1.715c5.06,0.834,10.217,1.304,15.157,2.589c7.211,1.873,14.112,2.786,20.539-1.898
		c-1.597-12.641-13.662-18.328-19.491-29.237c6.191-6.005,11.975-11.612,18.13-17.579c3.155,2.433,5.591,4.31,8.952,6.9
		c2.172-2.534,4.23-4.933,6.691-7.805c11.216,3.776,22.717,4.661,32.554-4.851c-4.658-12-17.855-13.637-26.403-22.541
		c4.394-7.69,8.675-15.183,13.608-23.821c3.077,2.578,5.355,4.489,7.55,6.327c2.837-2.394,4.635-3.911,6.899-5.822
		c10.268,0.394,21.302,1.431,29.283-7.89c-1.517-2.456-2.867-4.643-4.222-6.831c0.702-1.025,1.403-2.051,2.106-3.076
		c-8.219-3.144-16.438-6.286-25.508-9.754c4.856-8.841,8.874-16.157,13.112-23.875c2.545,1.008,5.087,2.013,8.028,3.176
		c1.743-1.944,3.436-3.833,5.465-6.09c10.61-0.449,22.372,0.938,29.449-10.349c-6.68-10.682-19.17-11.329-29.384-18.209
		c3.102-8.144,6.14-16.116,9.269-24.33c3.942,1.167,6.569,1.946,10.357,3.068c1.182-3.578,2.3-6.968,3.688-11.18
		c12.916,0.377,24.479-3.268,30.208-17.067c-9.727-7.569-21.535-5.879-33.701-8.709c0.729-9.036,1.445-17.907,2.184-27.053
		c4.352,0.13,7.277,0.219,12.01,0.36c-0.67-3.483-0.666-6.533-1.889-8.968c-1.254-2.496-3.708-4.39-5.867-6.803
		c4.062-5.155,7.546-9.78,11.244-14.227c8.282-9.965,8.852-22.283,1.151-33.482c-1.743,0.248-3.67,0.521-5.688,0.809
		c-6.215,7.589-12.379,15.117-19.301,23.571c-7.688-5.995-14.639-11.415-22.055-17.198c2.65-3.254,4.591-5.636,7.05-8.659
		c-8.979-9.835-16.009,0.935-25.066,1.355c-1.967-1.845-4.897-4.452-7.67-7.219c-8.859-8.834-20.7-10.351-32.04-3.885
		c2.067,12.126,14.28,17.196,20.174,28.407c-6.023,5.993-12.113,12.055-18.684,18.594c-2.907-2.917-5.07-5.091-7.284-7.316
		c-2.084,0.647-3.969,1.232-5.922,1.838c-10.272-3.724-20.558-7.28-32.229,0.178c7.366,8.976,14.489,17.66,22.517,27.441
		c-6.077,6.243-12.067,12.399-18.505,19.016c-2.954-2.668-5.098-4.604-7.242-6.541c-0.117,0.531-0.233,1.063-0.349,1.596
		c-6.412-1.042-12.903-1.739-19.212-3.217c-6.7-1.567-12.623-0.266-18.581,2.996c0.865,13.372,15.744,16.697,20.043,29.032
		c-5.817,5.741-11.964,11.806-18.431,18.189c-2.642-2.536-4.605-4.422-6.568-6.308c-0.141,0.408-0.281,0.814-0.423,1.222
		c-6.311-1.303-12.571-3.189-18.943-3.738c-5.916-0.508-11.955,0.412-18.669,0.737c2.553,14.403,14.757,19.484,21.693,30.438
		c-6.152,6.226-12.404,12.557-19.043,19.277c-2.969-3.206-4.814-5.199-7.059-7.624c-2.339,0.912-4.688,1.827-7.589,2.956
		c-9.515-3.541-19.558-7.659-30.194-0.908c1.186,12.927,14.702,17.322,20.084,28.855c-5.821,5.992-11.8,12.144-18.153,18.682
		c-2.956-2.784-4.94-4.653-6.927-6.524c-0.114,0.381-0.229,0.76-0.343,1.14c-6.339-1.298-12.76-2.281-18.987-3.982
		c-6.41-1.75-11.809-0.496-17.728,4.504c1.66,3.023,2.994,6.536,5.246,9.298c3.665,4.496,7.889,8.542,11.957,12.7
		c3.136,3.202,3.216,6.243-0.097,9.331c-5.051,4.706-10.084,9.429-15.384,14.387c-3.002-2.89-5.099-4.908-7.339-7.065
		c-2.349,0.983-4.522,1.893-6.784,2.84c-10.286-3.351-20.568-7.584-31.684-0.592c2.431,12.193,15.44,16.704,21.152,28.511
		c-5.639,5.83-11.605,11.997-18.019,18.625c-3.05-2.691-5.213-4.598-7.373-6.505c-0.082,0.337-0.166,0.676-0.248,1.015
		c-5.34-0.976-10.78-1.588-15.998-3.01c-7.235-1.973-13.823-0.988-21.57,3.416c2.438,3.884,4.41,7.898,7.192,11.233
		c3.323,3.983,7.62,7.154,10.929,11.146c1.38,1.667,2.571,5.667,1.672,6.688c-5.202,5.907-11.055,11.24-16.936,17.013
		c-3.227-2.885-5.389-4.822-7.687-6.877c-2.318,1.115-4.445,2.138-6.657,3.203c-9.904-3.207-19.734-8.975-31.339-0.559
		c1.49,3.05,2.481,6.482,4.558,9.026c3.924,4.801,8.407,9.157,12.785,13.57c3.363,3.391,3.449,6.514-0.101,9.78
		c-5.049,4.648-10.039,9.362-15.409,14.378c-2.694-3.063-4.364-4.966-6.036-6.868c-0.137,0.409-0.271,0.816-0.408,1.224
		c-5.928-1.105-11.893-2.031-17.77-3.36c-6.804-1.539-13.017-0.54-18.846,3.034c2.142,12.461,14.579,17.418,20.048,28.659
		c-6.027,6.15-12.056,12.301-18.555,18.932c-2.854-3.075-4.957-5.34-7.564-8.152c-6.026,5.421-11.937,1.162-17.973-0.186
		c-7.664-1.711-12.835-0.795-20.7,4.49c5.599,6.595,10.941,13.171,16.596,19.468c5.68,6.325,5.83,7.39-0.235,13.207
		c-3.761,3.606-7.596,7.139-11.495,10.593c-0.669,0.593-1.836,0.625-3.059,1.004c-1.936-1.86-3.898-3.751-5.986-5.76
		c-2.243,0.696-4.303,1.335-6.288,1.951c-10.01-3.865-19.858-7.679-30.116-0.931c0.763,13.255,15.317,16.798,20.082,28.395
		c-2.58,2.679-5.223,5.424-8.458,8.783c-2.83-2.166-5.103-3.645-7.069-5.458c-7.073-6.523-13.972-13.24-21.077-19.729
		c-6.436-5.876-9.414-6.251-17.24-2.055c-9.012,4.832-17.731,10.23-26.854,14.832c-26.134,13.188-48.958,31.203-72.163,48.706
		c-4.087,3.083-9.127,4.875-13.371,7.782c-3.993,2.738-7.515,6.164-11.249,9.294c1.663,3.907,2.818,6.616,4.334,10.174
		c-5.356,5.569-10.745,11.401-16.377,16.987c-26.054,25.842-52.22,51.57-78.208,77.477c-2.755,2.746-4.594,6.406-6.875,9.63
		c-0.798,1.128-1.518,2.351-2.492,3.308c-4.64,4.57-9.683,8.774-13.992,13.635c-23.781,26.824-43.617,56.382-60.574,87.938
		c-2.407,4.482-2.99,8.018-0.217,12.772c1.663,2.853,1.635,7.375,0.896,10.831c-3.819,17.839-8.366,35.525-12.094,53.38
		c-1.113,5.34-0.402,11.058-0.527,16.602c0.701,0.166,1.4,0.333,2.1,0.498c-1.438,1.836-2.69,3.859-4.342,5.477
		c-29.232,28.621-58.525,57.181-87.785,85.778c-40.298,39.387-80.584,78.792-120.865,118.198
		c-11.04,10.798-22.036,21.639-33.079,32.43c-1.705,1.664-3.565,3.168-6.297,5.579c-3.233-2.06-6.742-3.825-9.672-6.28
		c-4.154-3.478-7.834-3.352-11.761,0.108c-3.61,3.181-7.356,6.207-10.953,9.405c-5.912,5.257-7.234,5.364-14.158,0.938
		c-1.495-0.955-3.09-1.748-6.054-3.409c-2.885,3.307-7.362,6.25-8.182,9.995c-0.803,3.674,2.11,8.159,3.715,13.331
		c-3.514,3.231-7.169,7.192-11.407,10.375c-10.162,7.629-17.417,17.742-24.151,28.16
		C82.218,1238.396,81.308,1246.631,87.06,1254.127z M606.71,792.195c1.029-0.912,1.886-1.962,2.744-3.014
		c1.894-2.352,3.136-5.065,4.416-7.74c0.811-1.731,2.021-4.757,2.852-6.469l1.337,0.202c1.632,0.072,7.364,0.094,7.918,0.474
		c0.231,0.162,0.418,0.437,0.567,0.79c3.219,7.837,6.458,15.657,9.697,23.477c0.091,0.256,0.203,0.529,0.313,0.843
		c-0.234,0.072-0.429,0.109-0.625,0.143c-2.576,0.531-5.132,1.08-7.708,1.611c-1.366,0.281-1.521,0.2-1.783-1.223
		c-0.505-2.79-0.973-5.58-1.46-8.388c-0.382-2.145-0.745-4.309-1.149-6.474c-0.104-0.548-0.25-1.092-0.412-1.66
		c-0.075-0.196-0.147-0.392-0.26-0.588c-0.151-0.235-0.378-0.437-0.67-0.5c-1.102-0.236-1.407,1.352-0.858,2.041
		c0.057,0.06,0.094,0.139,0.152,0.16c0.863,0.58,1.137,1.46,1.272,2.436c0.205,1.363,0.508,2.672,0.752,4.037
		c0.053,0.293,0.026,0.585,0.057,1.012c-0.269-0.16-0.422-0.241-0.557-0.342c-1.017-0.623-2.015-1.227-3.052-1.832
		c-0.461-0.28-0.791-0.268-0.971-0.017c-0.201,0.305-0.149,0.635,0.251,1.013c1.029,0.993,2.039,1.967,3.067,2.959
		c0.364,0.337,0.684,0.714,1.029,1.031c0.876,0.873,0.854,7.558,0.961,9.892c0.018,0.097-0.022,0.136-0.084,0.347
		c-2.712-3.222-5.405-6.386-8.08-9.57c-0.473,0.34-0.559,0.727-0.354,1.139c0.317,0.609,0.674,1.22,1.031,1.79
		c1.73,2.834,3.439,5.688,5.169,8.521c0.489,0.788,0.978,1.572,1.465,2.361c0.358,0.57,0.48,1.176,0.371,1.854
		c-0.676,3.541-1.352,7.084-2.026,10.626c-0.001,0.038-0.041,0.076-0.103,0.212c-0.111-0.197-0.224-0.354-0.318-0.531
		c-3.259-6.887-6.517-13.775-9.776-20.662c-0.149-0.314-0.336-0.629-0.505-0.927c-1.054,0.214-1.375,0.674-1.083,1.613
		c0.238,0.762,0.513,1.524,0.79,2.249c2.465,6.697,4.951,13.376,7.416,20.071c0.185,0.471,0.35,0.958,0.591,1.526
		c-0.356,0.305-0.693,0.667-1.087,0.931c-2.328,1.661-4.655,3.324-6.982,4.985c-0.04,0.038-0.079,0.037-0.175,0.054
		c-0.344-0.279-0.375-0.707-0.464-1.078c-0.844-3.417-1.666-6.853-2.489-10.289c-1.272-5.216-2.543-10.469-3.815-15.684
		c-0.092-0.331-0.239-0.647-0.349-0.997c-0.55,0.26-0.421,0.633-0.39,0.981c0.241,2.436,0.483,4.868,0.762,7.304
		c0.75,7.05,1.518,14.079,2.266,21.128c0,0.039,0.017,0.098,0.019,0.138c0.078,0.797,0.078,0.837-0.742,1.014
		c-3.122,0.636-6.262,1.252-9.482,1.903c-0.014-0.292-0.028-0.546-0.022-0.816c-0.009-5.207,0-10.396,0.011-15.623
		c0.014-5.382,0.026-10.764,0.062-16.163c0.003-0.195-0.012-0.411-0.044-0.683c-0.271-0.045-0.542-0.088-0.871-0.154
		c-0.78,5.814-1.521,11.589-2.321,17.344c-0.798,5.755-1.365,11.552-2.338,17.283c-4.26,0.243-8.425,0.507-12.645,0.749
		c-0.046-0.642,0.178-1.122,0.343-1.623c0.643-1.95,1.305-3.918,1.948-5.868c2.925-9.013,5.812-18.028,8.738-27.042
		c0.292-0.927,0.66-1.853,0.914-2.78c0.209-0.772,0.116-0.949-0.591-1.487c-0.123,0.229-0.243,0.461-0.345,0.673
		c-5.735,12.356-11.43,24.711-17.164,37.07c-0.163,0.345-0.363,0.691-0.488,1.038c-0.269,0.713-0.797,0.993-1.556,0.959
		c-0.35-0.007-0.699-0.015-1.03-0.002c-3.733,0.118-7.446,0.255-11.201,0.391c-0.193-0.003-0.39,0.07-0.74,0.142
		c0.263-0.481,0.404-0.731,0.546-1.021c0.625-1.172,1.368-2.264,1.937-3.496c0.407-0.886,0.967-1.688,1.451-2.534
		c0.182-0.327,0.325-0.692,0.526-1c0.46-0.709,0.942-1.398,1.402-2.107c0.604-0.96,1.148-1.94,1.75-2.899
		c0.364-0.613,0.783-1.208,1.166-1.802c0.06-0.097,0.119-0.153,0.18-0.249c0.986-1.709,1.993-3.438,3-5.126
		c1.107-1.863,2.252-3.684,3.359-5.547c2.698-4.53,5.376-9.08,8.072-13.609c1.189-2.016,2.396-4.012,3.583-6.027
		c0.121-0.192,0.26-0.403,0.305-0.636c0.044-0.232,0.009-0.465-0.005-0.68c-0.058-0.021-0.117-0.042-0.194-0.082
		c-0.158,0.191-0.316,0.344-0.456,0.555c-5.962,8.271-11.904,16.562-17.864,24.833c-4.802,6.664-9.584,13.346-14.384,20.009
		c-0.08,0.114-0.14,0.212-0.201,0.345c-0.406,0.849-1.149,1.026-2.061,0.988c-1.961-0.099-3.922-0.197-5.863-0.277
		c-1.787-0.075-3.612-0.112-5.397-0.188c-0.156-0.003-0.349-0.045-0.66-0.09c14.726-16.798,29.506-33.416,44.095-50.194
		c-0.242-0.491-0.428-0.886-0.651-1.394c-0.119,0.114-0.237,0.228-0.356,0.343c-2.524,2.649-5.027,5.315-7.548,7.964
		c-1.888,2.004-3.794,3.983-5.701,6.006c-2.76,2.915-5.521,5.831-8.283,8.747c-1.588,1.678-3.198,3.374-4.787,5.05
		c-3.139,3.316-6.277,6.634-9.415,9.911c-2.641,2.764-5.262,5.508-7.904,8.27c-1.171,1.238-2.344,2.479-3.457,3.737
		c-0.738,0.859-1.614,0.977-2.889,0.641c-1.953-0.525-3.929-0.722-5.952-0.688c-0.583,0.027-1.142-0.198-1.704-0.269
		c-0.91-0.115-1.821-0.231-2.752-0.328c-0.154-0.021-0.295-0.055-0.443-0.078c0.009,0.024,0.003,0.031-0.06-0.01
		c0.02,0.002,0.039,0.007,0.06,0.01c-0.004-0.011-0.008-0.021-0.021-0.048c0.417-0.438,0.797-0.916,1.232-1.335
		c3.907-3.825,7.793-7.631,11.681-11.476c3.372-3.314,6.725-6.604,10.077-9.936c1.784-1.751,3.55-3.521,5.334-5.273
		c3.374-3.35,6.784-6.699,10.157-10.049c1.746-1.712,3.492-3.426,5.217-5.158c3.351-3.293,6.683-6.565,10.016-9.877
		c1.845-1.809,3.67-3.598,5.475-5.445c2.839-2.915,5.774-5.73,8.65-8.605c0.217-0.208,0.437-0.418,0.693-0.666l2.797,2.916
		c-0.749,1.479-1.248,3.063-1.573,4.669c-0.109,0.6-0.122,1.222-0.098,1.844c0.063,1.73,0.163,3.461,0.283,5.175
		c0.044,0.682,0.245,1.366,0.385,2.028c0.089,0.371,0.237,0.724,0.366,1.097c1.023,3.169,3.234,5.273,6.159,6.615
		c0.809,0.365,1.719,0.563,2.61,0.657C601.734,795.065,604.413,794.246,606.71,792.195z M648.499,821.737
		c-0.752,0.685-1.347,1.255-1.962,1.844c-0.278,0.268-0.265,0.598-0.174,0.932c0.306,1.19,0.592,2.399,0.898,3.592
		c0.054,0.175,0.09,0.333,0.045,0.604c-2.219-1.679-4.458-3.376-6.732-5.114c0.158-0.19,0.297-0.363,0.456-0.514
		c1.506-1.37,3.01-2.737,4.535-4.083c1.743-1.599,1.598-1.23,0.979-3.265c-0.947-3.05-1.972-6.064-2.979-9.098
		c-0.127-0.372-0.238-0.725-0.384-1.193c2.123-0.209,4.186-0.4,6.27-0.61c0.074,0.275,0.167,0.451,0.219,0.666
		c0.703,2.756,1.385,5.49,2.085,8.243c0.071,0.313,0.164,0.605,0.275,0.881c0.277,0.686,0.773,1.124,1.528,1.274
		c1.102,0.237,2.224,0.493,3.325,0.769c0.445,0.105,0.889,0.291,1.311,0.492c0.655,0.327,0.842,0.679,0.768,1.436
		c-0.024,0.175-0.066,0.369-0.089,0.542c-0.396,2.17-0.808,4.356-1.204,6.524c-0.044,0.271-0.126,0.54-0.214,0.967
		c-0.149-0.275-0.242-0.413-0.319-0.569c-0.668-1.453-1.357-2.886-2.007-4.355c-0.224-0.473-0.551-0.614-1.058-0.547
		c-0.391,0.068-0.819,0.1-1.248,0.168c0.194,0.918,0.371,1.815,0.564,2.731c0.355,1.678,0.727,3.378,1.082,5.055
		c0.284,1.29,0.76,1.745,2.12,1.813c0.719,0.034,1.437-0.011,2.176,0.006c0.311,0.008,0.66,0.052,1.085,0.099
		c-1.405,1.275-2.542,2.669-4.357,3.118c-0.625,0.141-1.251,0.284-1.891,0.29c-0.934,0.021-1.623-0.46-1.935-1.38
		c-0.128-0.373-0.237-0.724-0.347-1.115c-0.867-3.204-1.771-6.411-2.637-9.613C648.627,822.148,648.591,821.991,648.499,821.737z
		 M600.779,776.374c0.321-0.5,0.661-0.979,0.982-1.477c0.222-0.326,0.515-0.456,0.904-0.487c1.479-0.048,2.996-0.171,4.513-0.256
		c0.156,0.003,0.331,0.025,0.602,0.07c-1.156,1.413-2.233,2.752-3.29,4.071c-0.419,0.515-0.419,0.515-0.061,1.049
		c0.603,0.943,1.166,1.926,1.586,3.198c-2.127-0.47-4.145-0.707-6.012-1.503c-0.154-0.081-0.308-0.162-0.459-0.282
		c-0.669-0.538-0.759-0.987-0.335-1.736C599.732,778.14,600.237,777.236,600.779,776.374z M611.56,760.507
		c-0.26,0.401-0.483,0.846-0.802,1.228c-0.817,1.012-1.133,2.19-1.141,3.453c-0.019,0.973,0.077,1.944,0.174,2.918
		c0.099,0.857,0.452,1.623,0.982,2.294c0.586,0.769,1.113,1.598,1.66,2.403c-1.263,0.947-2.082,1.086-3.392,0.516
		c-0.982-0.43-1.987-0.722-3.052-0.842c-1.24-0.141-2.408-0.048-3.528,0.53c-0.334,0.167-0.591,0.414-0.924,0.544
		c-0.156,0.074-0.447,0.05-0.524-0.029c-0.609-0.635-1.139-1.305-1.689-1.959c1.379-1.817,10.607-12.158,11.198-12.496
		c0.269,0.199,0.576,0.399,0.861,0.619C611.688,759.926,611.742,760.18,611.56,760.507z M625.114,771.298
		c0.057,0.138,0.091,0.333,0.145,0.547c-0.292,0.014-0.486,0.009-0.68,0.006c-2.038-0.14-4.056-0.259-6.094-0.398
		c-1.455-0.088-2.892-0.156-4.328-0.226c-0.719-0.033-1.295-0.316-1.691-0.928c-1.057-1.576-1.467-3.313-1.312-5.216
		c0.046-0.348,0.17-0.695,0.235-1.024c0.682-0.084,1.246-0.13,1.812-0.215c2.67-0.432,5.342-0.861,8.013-1.292
		c0.662-0.104,0.721-0.084,0.979,0.544c0.037,0.117,0.092,0.256,0.149,0.353C623.261,766.072,624.198,768.676,625.114,771.298z
		 M624.764,763.791c2.445,1.118,4.851,2.236,7.294,3.355c9.951,4.577,19.924,9.176,29.855,13.771c1.365,0.63,1.439,0.787,1.292,2.3
		c-0.267,2.539-0.493,5.081-0.721,7.621c-0.003,0.195-0.008,0.388,0.008,0.564c0.153,0.079,0.23,0.121,0.327,0.181
		c3.238,1.272,6.477,2.505,9.714,3.776c0.31,0.123,0.597,0.265,0.924,0.407c0.308,0.122,0.478,0.38,0.549,0.691
		c0.107,0.469,0.069,2.334-0.099,2.912c-0.25-0.103-0.481-0.184-0.713-0.266c-2.716-1.164-5.453-2.309-8.167-3.473
		c-0.425-0.165-0.848-0.406-1.316-0.26c-0.27,0.791-0.195,0.946,0.651,1.354c2.732,1.378,5.462,2.756,8.211,4.115
		c0.597,0.303,0.996,0.718,1.041,1.399c0.059,0.895,0.119,1.791,0.197,2.666c-0.453,0.28-0.777,0.022-1.125-0.14
		c-2.692-1.377-5.401-2.773-8.093-4.15c-0.558-0.303-1.157-0.528-1.731-0.812c-0.037,0.756-0.037,0.795,0.462,1.077
		c0.959,0.604,1.919,1.205,2.898,1.75c2.188,1.25,4.378,2.501,6.568,3.751c0.671,0.383,1.049,0.934,1.11,1.712
		c0.163,1.559-0.048,5.187-0.139,6.76l0.094,0.099c-0.038-0.001-0.077,0-0.096,0.019c0,0.038-0.002,0.077-0.021,0.097l-0.097-0.101
		c-1.554,0.009-5.208,0.088-6.758-0.139c-0.794-0.113-1.311-0.492-1.667-1.181c-1.159-2.24-2.298-4.497-3.477-6.716
		c-0.541-1.003-1.084-2.006-1.628-2.969c-0.28-0.492-0.3-0.512-1.058-0.51c0.239,0.608,0.461,1.198,0.74,1.767
		c1.266,2.745,2.549,5.51,3.813,8.26c0.168,0.334,0.415,0.667,0.093,1.127c-0.872-0.114-1.764-0.21-2.655-0.307
		c-0.679-0.073-1.079-0.488-1.357-1.097c-1.244-2.805-2.508-5.589-3.771-8.376c-0.391-0.843-0.545-0.923-1.326-0.707
		c-0.185,0.482,0.02,0.894,0.204,1.325c1.031,2.782,2.082,5.543,3.132,8.305c0.093,0.253,0.166,0.488,0.238,0.724
		c-0.605,0.124-2.451,0.105-2.915-0.021c-0.327-0.066-0.578-0.207-0.688-0.56c-0.109-0.313-0.258-0.628-0.368-0.94
		c-1.138-3.288-2.235-6.576-3.373-9.862c-0.019-0.098-0.093-0.178-0.168-0.335c-0.175-0.021-0.368-0.026-0.563-0.029
		c-2.548,0.121-5.076,0.264-7.645,0.404c-1.518,0.087-1.691-0.014-2.245-1.387c-4.164-10.131-8.345-20.281-12.528-30.396
		c-1.019-2.488-2.036-4.938-3.053-7.427c-0.019-0.021-0.018-0.06-0.037-0.078L624.764,763.791z M674.963,792.572
		c-0.269-0.12-0.559-0.224-0.869-0.309c-2.724-0.814-5.426-1.609-8.149-2.422c-0.193-0.043-0.367-0.145-0.656-0.248
		c0.297-2.071,0.571-4.126,0.867-6.238c0.465,0.166,0.811,0.29,1.177,0.434c2.989,1.131,5.958,2.277,8.966,3.352
		c2.007,0.702,1.635,0.831,3.302-0.845c1.429-1.446,2.858-2.895,4.269-4.361c0.159-0.153,0.335-0.285,0.534-0.438
		c1.641,2.35,3.244,4.652,4.832,6.941c-0.255,0.053-0.428-0.009-0.602-0.071c-1.179-0.354-2.376-0.69-3.554-1.044
		c-0.328-0.104-0.659-0.131-0.936,0.136c-0.615,0.589-1.209,1.159-1.882,1.807c0.25,0.103,0.422,0.165,0.579,0.206
		c3.165,0.997,6.331,2.035,9.496,3.033c0.368,0.105,0.735,0.249,1.101,0.393c0.905,0.348,1.358,1.057,1.3,1.989
		c-0.033,0.639-0.201,1.259-0.369,1.876c-0.523,1.798-1.963,2.876-3.292,4.227c-0.011-0.446-0.063-0.777-0.057-1.088
		c0.035-0.72,0.107-1.436,0.084-2.177c-0.03-1.339-0.447-1.854-1.723-2.191c-1.662-0.423-3.343-0.865-5.006-1.287
		c-0.889-0.213-1.799-0.446-2.708-0.68c-0.066,0.447-0.112,0.833-0.218,1.24c-0.107,0.483,0.002,0.835,0.502,1.079
		c1.422,0.729,2.845,1.459,4.27,2.187c0.152,0.079,0.266,0.16,0.554,0.342c-0.428,0.069-0.702,0.141-0.973,0.174
		c-2.204,0.323-4.386,0.628-6.567,0.934c-0.176,0.016-0.353,0.07-0.547,0.066c-0.758,0.044-1.084-0.139-1.4-0.825
		c-0.227-0.355-0.393-0.806-0.48-1.255c-0.229-1.111-0.459-2.224-0.63-3.354C676.054,793.393,675.638,792.879,674.963,792.572z
		 M623.809,760.137c0.302-2.345,0.583-4.709,0.885-7.055c0.085-0.425,0.21-0.812,0.257-1.16c2.327-0.71,5.659-0.291,7.733,0.956
		c0.226,1.269,0.913,11.31,0.804,11.87c-1.043-0.256-9.03-3.977-9.661-4.475C623.828,760.233,623.808,760.177,623.809,760.137z
		 M632.721,737.878c1.08,0.411,2.179,0.802,3.258,1.213c0.117,0.043,0.211,0.142,0.347,0.203c-1.17,3.939-2.319,7.86-3.507,11.818
		c-0.119,0.076-0.179,0.095-0.217,0.054c-0.327-0.143-0.653-0.285-1-0.408c-2.971-1.072-5.914-1.638-8.862,0.01
		c-0.885,0.508-1.269,0.305-1.87-0.679c0.734-0.82,1.453-1.66,2.188-2.48c1.93-2.118,3.875-4.176,5.803-6.293
		c0.994-1.066,1.987-2.136,2.983-3.243C632.102,737.787,632.355,737.734,632.721,737.878z M636.983,741.328
		c0.085-0.311,0.338-0.363,0.573-0.436c1.684-0.586,3.328-1.175,5.011-1.763c1.133-0.325,1.46-0.105,1.493,1.042
		c-0.001,0.116,0.015,0.253-0.006,0.389c0.041,1.749,0.082,3.499,0.106,5.229c-0.004,0.116-0.026,0.253-0.049,0.426
		c-0.399-0.415-0.781-0.735-1.085-1.129c-0.813-1.086-1.781-1.223-2.996-0.78c-1.213,0.44-2.445,0.823-3.658,1.226
		c-0.235,0.072-0.469,0.146-0.842,0.235C636.05,744.203,636.545,742.775,636.983,741.328z M702.551,661.886
		c0.015,0.175,0.05,0.331,0.067,0.506c0.079,0.915,0.136,1.85,0.215,2.765c0.046,0.564,0.228,1.15,0.197,1.713
		c-0.119,2.019,0.015,4.023,0.44,5.975c0.285,1.25,0.132,2.121-0.757,2.86c-1.325,1.081-2.592,2.182-3.878,3.302
		c-2.87,2.525-5.719,5.031-8.588,7.556c-3.443,2.999-6.886,5.999-10.29,8.998c-1.742,1.52-3.503,3.056-5.244,4.576
		c-3.026,2.638-6.055,5.277-9.082,7.915c-2.078,1.803-4.136,3.626-6.233,5.448c-2.751,2.411-5.521,4.803-8.271,7.215
		c-0.118,0.112-0.237,0.227-0.357,0.342c0.462,0.242,0.866,0.464,1.365,0.707c17.348-13.905,34.562-27.985,51.952-42.007
		c0.033,0.311,0.048,0.487,0.063,0.663c-0.018,1.806-0.035,3.612-0.033,5.401c-0.002,1.943,0.016,3.906,0.034,5.868
		c0.021,0.895-0.208,1.608-1.072,2.019c-0.116,0.036-0.235,0.112-0.353,0.188c-6.854,4.521-13.73,9.023-20.585,13.546
		c-8.51,5.615-17.04,11.21-25.549,16.825c-0.217,0.131-0.375,0.283-0.573,0.435c0.019,0.059,0.037,0.118,0.073,0.196
		c0.233,0.006,0.484,0.068,0.68,0.034c0.234-0.035,0.431-0.187,0.646-0.279c2.063-1.103,4.107-2.228,6.171-3.331
		c4.637-2.508,9.293-4.996,13.931-7.505c1.906-1.028,3.773-2.099,5.679-3.127c1.75-0.955,3.499-1.872,5.246-2.788
		c0.099-0.056,0.158-0.113,0.256-0.17c0.61-0.357,1.24-0.732,1.85-1.089c0.983-0.562,1.984-1.066,2.967-1.629
		c0.748-0.412,1.436-0.883,2.165-1.315c0.315-0.188,0.687-0.315,1.02-0.483c0.865-0.448,1.692-0.976,2.594-1.346
		c1.234-0.499,2.375-1.214,3.574-1.791c0.254-0.132,0.548-0.261,1.039-0.504c-0.085,0.348-0.148,0.559-0.17,0.734
		c-0.291,3.705-0.581,7.449-0.854,11.175c-0.025,0.33-0.033,0.679-0.039,1.028c0.003,0.759-0.3,1.276-1.023,1.515
		c-0.371,0.129-0.705,0.296-1.057,0.445c-12.583,5.22-25.165,10.401-37.747,15.62c-0.215,0.093-0.451,0.204-0.686,0.315
		c0.529,0.712,0.682,0.832,1.462,0.652c0.958-0.232,1.877-0.544,2.815-0.797c9.128-2.552,18.253-5.064,27.38-7.615
		c1.994-0.542,3.967-1.142,5.941-1.704c0.509-0.144,1.018-0.327,1.641-0.276c-0.438,4.228-0.854,8.355-1.272,12.604
		c-5.746,0.718-11.563,1.044-17.365,1.623c-5.782,0.562-11.583,1.064-17.423,1.604c0.05,0.331,0.084,0.604,0.118,0.877
		c0.251,0.024,0.465,0.048,0.677,0.072c5.379,0.208,10.776,0.397,16.154,0.604c5.185,0.205,10.408,0.41,15.611,0.633
		c0.271,0.006,0.541,0.051,0.815,0.056c-0.785,3.19-1.529,6.304-2.292,9.396c-0.211,0.813-0.231,0.831-1.045,0.699
		c-0.038-0.002-0.096-0.021-0.135-0.022c-7.013-1.038-14.005-2.096-21.017-3.136c-2.404-0.358-4.843-0.721-7.266-1.063
		c-0.348-0.046-0.715-0.189-0.998,0.35c0.327,0.142,0.635,0.303,0.983,0.389c5.176,1.506,10.334,2.991,15.511,4.458
		c3.399,0.966,6.8,1.928,10.18,2.911c0.367,0.104,0.794,0.153,1.058,0.508c-0.04,0.076-0.061,0.135-0.063,0.174
		c-1.757,2.256-3.492,4.533-5.268,6.77c-0.299,0.363-0.655,0.706-0.973,1.049c-0.559-0.226-1.021-0.43-1.503-0.652
		c-6.589-2.74-13.157-5.498-19.747-8.238c-0.751-0.307-1.464-0.612-2.215-0.881c-0.927-0.33-1.418-0.049-1.654,1.016
		c0.289,0.18,0.595,0.381,0.902,0.542c6.748,3.54,13.494,7.079,20.242,10.619c0.172,0.101,0.324,0.22,0.517,0.341
		c-0.097,0.057-0.156,0.074-0.216,0.093c-3.567,0.529-7.134,1.058-10.701,1.586c-0.662,0.104-1.28-0.065-1.835-0.446
		c-0.768-0.519-1.514-1.061-2.301-1.563c-2.759-1.844-5.52-3.689-8.3-5.515c-0.573-0.439-1.148-0.801-1.763-1.164
		c-0.403-0.222-0.774-0.17-1.152,0.308c3.07,2.804,6.101,5.605,9.228,8.467c-0.214,0.055-0.272,0.073-0.35,0.071
		c-2.309-0.184-8.988-0.438-9.843-1.368c-0.322-0.375-0.685-0.714-0.988-1.07c-0.949-1.068-1.881-2.117-2.829-3.186
		c-0.36-0.416-0.69-0.481-1.004-0.294c-0.256,0.17-0.302,0.479-0.021,0.972c0.542,1.041,1.124,2.082,1.705,3.125
		c0.075,0.156,0.149,0.274,0.319,0.569c-0.427-0.049-0.719-0.034-1.009-0.098c-1.314-0.3-2.649-0.658-4.003-0.919
		c-0.967-0.175-1.835-0.485-2.381-1.371c-0.037-0.077-0.114-0.118-0.152-0.158c-0.667-0.576-2.266-0.338-2.075,0.773
		c0.053,0.292,0.241,0.53,0.471,0.689c0.191,0.121,0.366,0.222,0.577,0.284c0.522,0.186,1.063,0.353,1.643,0.48
		c2.127,0.471,4.273,0.963,6.421,1.416c2.787,0.601,5.553,1.182,8.317,1.804c1.413,0.319,1.487,0.478,1.149,1.831
		c-0.637,2.551-1.273,5.104-1.926,7.634c-0.043,0.193-0.105,0.368-0.169,0.618c-0.327-0.141-0.577-0.244-0.829-0.346
		c-7.679-3.559-15.357-7.119-23.058-10.658c-0.347-0.163-0.596-0.343-0.765-0.599c-0.336-0.591-0.142-6.299-0.146-7.932
		l-0.147-1.343c1.744-0.76,4.835-1.825,6.582-2.585c2.725-1.168,5.507-2.276,7.916-4.092c1.085-0.813,2.171-1.626,3.124-2.616
		c2.144-2.21,3.072-4.854,2.824-7.891c-0.058-0.895-0.215-1.812-0.548-2.634c-1.26-2.979-3.233-5.273-6.357-6.427
		c-0.367-0.144-0.713-0.306-1.08-0.411c-0.676-0.188-1.333-0.396-2.011-0.469c-1.726-0.21-3.431-0.361-5.158-0.495
		c-0.621-0.052-1.243-0.063-1.847,0.021c-1.617,0.258-3.22,0.691-4.73,1.379l-2.853-2.975c0.258-0.246,0.476-0.455,0.693-0.665
		c3.009-2.736,5.926-5.571,8.954-8.286c1.92-1.729,3.765-3.498,5.665-5.246c3.389-3.176,6.835-6.369,10.244-9.563
		c1.784-1.674,3.566-3.346,5.368-5c3.487-3.23,6.975-6.501,10.46-9.732c1.824-1.711,3.666-3.402,5.488-5.114
		c3.447-3.232,6.875-6.445,10.323-9.678c3.964-3.726,7.947-7.472,11.948-11.199c0.438-0.418,0.93-0.777,1.384-1.176
		C702.434,661.845,702.453,661.865,702.551,661.886z M241.212,1279.794c6.775-7.749,13.29-15.202,19.84-22.692
		c-2.287-3.999-4.044-7.074-6.421-11.234c6.204-6.431,11.993-12.743,18.11-18.716c35.158-34.323,70.417-68.546,105.596-102.848
		c13.64-13.301,27.152-26.73,40.741-40.08c27.751-27.264,55.533-54.495,83.253-81.789c3.48-3.425,6.668-3.095,9.918,0.081
		c3.441,3.361,6.974,6.65,10.197,10.215c4.585,5.072,9.84,5.834,16.34,4.296c18.905-4.475,37.892-8.618,56.919-12.534
		c2.591-0.533,6.224,0.137,8.291,1.69c5.076,3.813,9.99,3.986,15.102,0.951c24.631-14.614,51.012-26.473,73.077-45.141
		c11.998-10.149,26.839-17.01,35.833-30.682c0.496-0.754,1.658-1.052,2.477-1.613c3.761-2.58,7.944-4.72,11.192-7.837
		c27.785-26.662,55.388-53.514,83.085-80.267c1.937-1.868,4.187-3.411,6.174-5.014c1.402,0.826,2.278,1.071,2.727,1.648
		c8.266,10.604,17.655,20.871,10.384,36.022c-1.02,2.125-0.902,4.79-1.891,6.939c-1.472,3.196-2.895,6.723-5.314,9.13
		c-28.577,28.421-57.292,56.707-86.063,84.933c-28.49,27.948-56.993,55.883-85.693,83.611c-8.341,8.058-17.87,13.458-30.338,9.622
		c-14.097-4.338-27.738-0.281-41.458,2.696c-6.166,1.338-10.945,4.312-15.378,8.678c-36.01,35.453-72.145,70.783-108.242,106.147
		c-23.922,23.438-47.884,46.833-71.745,70.332c-7.03,6.925-14.266,13.31-23.401,17.573c-12.711,5.933-24.942,12.896-37.632,18.88
		c-6.826,3.217-14.016,6.029-21.341,7.747c-11.494,2.693-23.205,4.553-34.902,6.228c-3.53,0.505-8.141,0.412-10.829-1.457
		c-8.668-6.031-16.741-12.936-24.87-19.711C243.396,1284.305,242.632,1282.063,241.212,1279.794z"/>
	<path display="none" fill="#FFFFFF" d="M254.632,1245.867c6.204-6.431,11.993-12.743,18.11-18.716
		c35.158-34.323,70.417-68.546,105.596-102.848c13.64-13.301,27.152-26.73,40.741-40.08c27.751-27.264,55.533-54.495,83.253-81.789
		c3.48-3.425,6.668-3.095,9.918,0.081c3.441,3.361,6.974,6.65,10.197,10.215c4.585,5.072,9.84,5.834,16.34,4.296
		c18.905-4.475,37.892-8.618,56.919-12.534c2.591-0.533,6.224,0.137,8.291,1.69c5.076,3.813,9.99,3.986,15.102,0.951
		c24.631-14.614,51.012-26.473,73.077-45.141c11.998-10.149,26.839-17.01,35.833-30.682c0.496-0.754,1.658-1.052,2.477-1.613
		c3.761-2.58,7.944-4.72,11.192-7.837c27.785-26.662,55.388-53.514,83.085-80.267c1.937-1.868,4.187-3.411,6.174-5.014
		c1.402,0.826,2.278,1.071,2.727,1.648c8.266,10.604,17.655,20.871,10.384,36.022c-1.02,2.125-0.902,4.79-1.891,6.939
		c-1.472,3.196-2.895,6.723-5.314,9.13c-28.577,28.421-57.292,56.707-86.063,84.933c-28.49,27.948-56.993,55.883-85.693,83.611
		c-8.341,8.058-17.87,13.458-30.338,9.622c-14.097-4.338-27.738-0.281-41.458,2.696c-6.166,1.338-10.945,4.312-15.378,8.678
		c-36.01,35.453-72.145,70.783-108.242,106.147c-23.922,23.438-47.884,46.833-71.745,70.332c-7.03,6.925-14.266,13.31-23.401,17.573
		c-12.711,5.933-24.942,12.896-37.632,18.88c-6.826,3.217-14.016,6.029-21.341,7.747c-11.494,2.693-23.205,4.553-34.902,6.228
		c-3.53,0.505-8.141,0.412-10.829-1.457c-8.668-6.031-16.741-12.936-24.87-19.711c-1.556-1.296-2.319-3.537-3.739-5.807
		c6.775-7.749,13.29-15.202,19.84-22.692C258.766,1253.103,257.008,1250.027,254.632,1245.867z"/>
	<path display="none" d="M702.833,665.156c0.046,0.564,0.228,1.15,0.197,1.713c-0.119,2.019,0.015,4.023,0.44,5.975
		c0.285,1.25,0.132,2.121-0.757,2.86c-1.325,1.081-2.592,2.182-3.878,3.302c-2.87,2.525-5.719,5.031-8.588,7.556
		c-3.443,2.999-6.886,5.999-10.29,8.998c-1.742,1.52-3.503,3.056-5.244,4.576c-3.026,2.638-6.055,5.277-9.082,7.915
		c-2.078,1.803-4.136,3.626-6.233,5.448c-2.751,2.411-5.521,4.803-8.271,7.215c-0.118,0.112-0.237,0.227-0.357,0.342
		c0.462,0.242,0.866,0.464,1.365,0.707c17.348-13.905,34.562-27.985,51.952-42.007c0.033,0.311,0.048,0.487,0.063,0.663
		c-0.018,1.806-0.035,3.612-0.033,5.401c-0.002,1.943,0.016,3.906,0.034,5.868c0.021,0.895-0.208,1.608-1.072,2.019
		c-0.116,0.036-0.235,0.112-0.353,0.188c-6.854,4.521-13.73,9.023-20.585,13.546c-8.51,5.615-17.04,11.21-25.549,16.825
		c-0.217,0.131-0.375,0.283-0.573,0.435c0.019,0.059,0.037,0.118,0.073,0.196c0.233,0.006,0.484,0.068,0.68,0.034
		c0.234-0.035,0.431-0.187,0.646-0.279c2.063-1.103,4.107-2.228,6.171-3.331c4.637-2.508,9.293-4.996,13.931-7.505
		c1.906-1.028,3.773-2.099,5.679-3.127c1.75-0.955,3.499-1.872,5.246-2.788c0.099-0.056,0.158-0.113,0.256-0.17
		c0.61-0.357,1.24-0.732,1.85-1.089c0.983-0.562,1.984-1.066,2.967-1.629c0.748-0.412,1.436-0.883,2.165-1.315
		c0.315-0.188,0.687-0.315,1.02-0.483c0.865-0.448,1.692-0.976,2.594-1.346c1.234-0.499,2.375-1.214,3.574-1.791
		c0.254-0.132,0.548-0.261,1.039-0.504c-0.085,0.348-0.148,0.559-0.17,0.734c-0.291,3.705-0.581,7.449-0.854,11.175
		c-0.025,0.33-0.033,0.679-0.039,1.028c0.003,0.759-0.3,1.276-1.023,1.515c-0.371,0.129-0.705,0.296-1.057,0.445
		c-12.583,5.22-25.165,10.401-37.747,15.62c-0.215,0.093-0.451,0.204-0.686,0.315c0.529,0.712,0.682,0.832,1.462,0.652
		c0.958-0.232,1.877-0.544,2.815-0.797c9.128-2.552,18.253-5.064,27.38-7.615c1.994-0.542,3.967-1.142,5.941-1.704
		c0.509-0.144,1.018-0.327,1.641-0.276c-0.438,4.228-0.854,8.355-1.272,12.604c-5.746,0.718-11.563,1.044-17.365,1.623
		c-5.782,0.562-11.583,1.064-17.423,1.604c0.05,0.331,0.084,0.604,0.118,0.877c0.251,0.024,0.465,0.048,0.677,0.072
		c5.379,0.208,10.776,0.397,16.154,0.604c5.185,0.205,10.408,0.41,15.611,0.633c0.271,0.006,0.541,0.051,0.815,0.056
		c-0.785,3.19-1.529,6.304-2.292,9.396c-0.211,0.813-0.231,0.831-1.045,0.699c-0.038-0.002-0.096-0.021-0.135-0.022
		c-7.013-1.038-14.005-2.096-21.017-3.136c-2.404-0.358-4.843-0.721-7.266-1.063c-0.348-0.046-0.715-0.189-0.998,0.35
		c0.327,0.142,0.635,0.303,0.983,0.389c5.176,1.506,10.334,2.991,15.511,4.458c3.399,0.966,6.8,1.928,10.18,2.911
		c0.367,0.104,0.794,0.153,1.058,0.508c-0.04,0.076-0.061,0.135-0.063,0.174c-1.757,2.256-3.492,4.533-5.268,6.77
		c-0.299,0.363-0.655,0.706-0.973,1.049c-0.559-0.226-1.021-0.43-1.503-0.652c-6.589-2.74-13.157-5.498-19.747-8.238
		c-0.751-0.307-1.464-0.612-2.215-0.881c-0.927-0.33-1.418-0.049-1.654,1.016c0.289,0.18,0.595,0.381,0.902,0.542
		c6.748,3.54,13.494,7.079,20.242,10.619c0.172,0.101,0.324,0.22,0.517,0.341c-0.097,0.057-0.156,0.074-0.216,0.093
		c-3.567,0.529-7.134,1.058-10.701,1.586c-0.662,0.104-1.28-0.065-1.835-0.446c-0.768-0.519-1.514-1.061-2.301-1.563
		c-2.759-1.844-5.52-3.689-8.3-5.515c-0.573-0.439-1.148-0.801-1.763-1.164c-0.403-0.222-0.774-0.17-1.152,0.308
		c3.07,2.804,6.101,5.605,9.228,8.467c-0.214,0.055-0.272,0.073-0.35,0.071c-2.309-0.184-8.988-0.438-9.843-1.368
		c-0.322-0.375-0.685-0.714-0.988-1.07c-0.949-1.068-1.881-2.117-2.829-3.186c-0.36-0.416-0.69-0.481-1.004-0.294
		c-0.256,0.17-0.302,0.479-0.021,0.972c0.542,1.041,1.124,2.082,1.705,3.125c0.075,0.156,0.149,0.274,0.319,0.569
		c-0.427-0.049-0.719-0.034-1.009-0.098c-1.314-0.3-2.649-0.658-4.003-0.919c-0.967-0.175-1.835-0.485-2.381-1.371
		c-0.037-0.077-0.114-0.118-0.152-0.158c-0.667-0.576-2.266-0.338-2.075,0.773c0.053,0.292,0.241,0.53,0.471,0.689
		c0.191,0.121,0.366,0.222,0.577,0.284c0.522,0.186,1.063,0.353,1.643,0.48c2.127,0.471,4.273,0.963,6.421,1.416
		c2.787,0.601,5.553,1.182,8.317,1.804c1.413,0.319,1.487,0.478,1.149,1.831c-0.637,2.551-1.273,5.104-1.926,7.634
		c-0.043,0.193-0.105,0.368-0.169,0.618c-0.327-0.141-0.577-0.244-0.829-0.346c-7.679-3.559-15.357-7.119-23.058-10.658
		c-0.347-0.163-0.596-0.343-0.765-0.599c-0.336-0.591-0.142-6.299-0.146-7.932l-0.147-1.343c1.744-0.76,4.835-1.825,6.582-2.585
		c2.725-1.168,5.507-2.276,7.916-4.092c1.085-0.813,2.171-1.626,3.124-2.616c2.144-2.21,3.072-4.854,2.824-7.891
		c-0.058-0.895-0.215-1.812-0.548-2.634c-1.26-2.979-3.233-5.273-6.357-6.427c-0.367-0.144-0.713-0.306-1.08-0.411
		c-0.676-0.188-1.333-0.396-2.011-0.469c-1.726-0.21-3.431-0.361-5.158-0.495c-0.621-0.052-1.243-0.063-1.847,0.021
		c-1.617,0.258-3.22,0.691-4.73,1.379l-2.853-2.975c0.258-0.246,0.476-0.455,0.693-0.665c3.009-2.736,5.926-5.571,8.954-8.286
		c1.92-1.729,3.765-3.498,5.665-5.246c3.389-3.176,6.835-6.369,10.244-9.563c1.784-1.674,3.566-3.346,5.368-5
		c3.487-3.23,6.975-6.501,10.46-9.732c1.824-1.711,3.666-3.402,5.488-5.114c3.447-3.232,6.875-6.445,10.323-9.678
		c3.964-3.726,7.947-7.472,11.948-11.199c0.438-0.418,0.93-0.777,1.384-1.176c0.078,0.041,0.097,0.061,0.194,0.082
		c0.015,0.175,0.05,0.331,0.067,0.506C702.696,663.306,702.754,664.242,702.833,665.156z"/>
	<path display="none" d="M674.094,792.264c-2.724-0.814-5.426-1.609-8.149-2.422c-0.193-0.043-0.367-0.145-0.656-0.248
		c0.297-2.071,0.571-4.126,0.867-6.238c0.465,0.166,0.811,0.29,1.177,0.434c2.989,1.131,5.958,2.277,8.966,3.352
		c2.007,0.702,1.635,0.831,3.302-0.845c1.429-1.446,2.858-2.895,4.269-4.361c0.159-0.153,0.335-0.285,0.534-0.438
		c1.641,2.35,3.244,4.652,4.832,6.941c-0.255,0.053-0.428-0.009-0.602-0.071c-1.179-0.354-2.376-0.69-3.554-1.044
		c-0.328-0.104-0.659-0.131-0.936,0.136c-0.615,0.589-1.209,1.159-1.882,1.807c0.25,0.103,0.422,0.165,0.579,0.206
		c3.165,0.997,6.331,2.035,9.496,3.033c0.368,0.105,0.735,0.249,1.101,0.393c0.905,0.348,1.358,1.057,1.3,1.989
		c-0.033,0.639-0.201,1.259-0.369,1.876c-0.523,1.798-1.963,2.876-3.292,4.227c-0.011-0.446-0.063-0.777-0.057-1.088
		c0.035-0.72,0.107-1.436,0.084-2.177c-0.03-1.339-0.447-1.854-1.723-2.191c-1.662-0.423-3.343-0.865-5.006-1.287
		c-0.889-0.213-1.799-0.446-2.708-0.68c-0.066,0.447-0.112,0.833-0.218,1.24c-0.107,0.483,0.002,0.835,0.502,1.079
		c1.422,0.729,2.845,1.459,4.27,2.187c0.152,0.079,0.266,0.16,0.554,0.342c-0.428,0.069-0.702,0.141-0.973,0.174
		c-2.204,0.323-4.386,0.628-6.567,0.934c-0.176,0.016-0.353,0.07-0.547,0.066c-0.758,0.044-1.084-0.139-1.4-0.825
		c-0.227-0.355-0.393-0.806-0.48-1.255c-0.229-1.111-0.459-2.224-0.63-3.354c-0.12-0.76-0.536-1.273-1.211-1.58
		C674.694,792.452,674.404,792.349,674.094,792.264z"/>
	<path display="none" d="M624.579,771.851c-2.038-0.14-4.056-0.259-6.094-0.398c-1.455-0.088-2.892-0.156-4.328-0.226
		c-0.719-0.033-1.295-0.316-1.691-0.928c-1.057-1.576-1.467-3.313-1.312-5.216c0.046-0.348,0.17-0.695,0.235-1.024
		c0.682-0.084,1.246-0.13,1.812-0.215c2.67-0.432,5.342-0.861,8.013-1.292c0.662-0.104,0.721-0.084,0.979,0.544
		c0.037,0.117,0.092,0.256,0.149,0.353c0.918,2.624,1.855,5.228,2.771,7.85c0.057,0.138,0.091,0.333,0.145,0.547
		C624.967,771.858,624.773,771.854,624.579,771.851z"/>
	<path display="none" d="M635.979,739.091c-1.079-0.411-2.178-0.802-3.258-1.213c-0.366-0.144-0.62-0.091-0.878,0.194
		c-0.996,1.107-1.989,2.177-2.983,3.243c-1.929,2.117-3.874,4.175-5.803,6.293c-0.735,0.82-1.454,1.66-2.188,2.48
		c0.602,0.983,0.985,1.187,1.87,0.679c2.948-1.647,5.891-1.082,8.862-0.01c0.348,0.123,0.674,0.266,1,0.408
		c0.038,0.041,0.098,0.022,0.217-0.054c1.188-3.958,2.337-7.879,3.507-11.818C636.19,739.232,636.096,739.134,635.979,739.091z
		 M632.769,744.077c-0.417,0.4-1.406,0.36-1.846-0.058c-0.439-0.417-0.357-1.521,0.18-2.036c0.416-0.438,1.367-0.36,1.804,0.134
		C633.344,742.612,633.284,743.584,632.769,744.077z"/>
	<path display="none" d="M624.951,751.922c2.327-0.71,5.659-0.291,7.733,0.956c0.226,1.269,0.913,11.31,0.804,11.87
		c-1.043-0.256-9.03-3.977-9.661-4.475c0.001-0.04-0.019-0.097-0.018-0.137c0.302-2.345,0.583-4.709,0.885-7.055
		C624.779,752.657,624.904,752.271,624.951,751.922z"/>
	<path display="none" d="M610.758,761.734c-0.817,1.012-1.133,2.19-1.141,3.453c-0.019,0.973,0.077,1.944,0.174,2.918
		c0.099,0.857,0.452,1.623,0.982,2.294c0.586,0.769,1.113,1.598,1.66,2.403c-1.263,0.947-2.082,1.086-3.392,0.516
		c-0.982-0.43-1.987-0.722-3.052-0.842c-1.24-0.141-2.408-0.048-3.528,0.53c-0.334,0.167-0.591,0.414-0.924,0.544
		c-0.156,0.074-0.447,0.05-0.524-0.029c-0.609-0.635-1.139-1.305-1.689-1.959c1.379-1.817,10.607-12.158,11.198-12.496
		c0.269,0.199,0.576,0.399,0.861,0.619c0.306,0.24,0.36,0.494,0.177,0.821C611.3,760.908,611.076,761.353,610.758,761.734z"/>
	<path display="none" d="M602.665,774.41c1.479-0.048,2.996-0.171,4.513-0.256c0.156,0.003,0.331,0.025,0.602,0.07
		c-1.156,1.413-2.233,2.752-3.29,4.071c-0.419,0.515-0.419,0.515-0.061,1.049c0.603,0.943,1.166,1.926,1.586,3.198
		c-2.127-0.47-4.145-0.707-6.012-1.503c-0.154-0.081-0.308-0.162-0.459-0.282c-0.669-0.538-0.759-0.987-0.335-1.736
		c0.524-0.882,1.029-1.785,1.571-2.647c0.321-0.5,0.661-0.979,0.982-1.477C601.983,774.571,602.276,774.441,602.665,774.41z"/>
	<path display="none" d="M637.556,740.893c1.684-0.586,3.328-1.175,5.011-1.763c1.133-0.325,1.46-0.105,1.493,1.042
		c-0.001,0.116,0.015,0.253-0.006,0.389c0.041,1.749,0.082,3.499,0.106,5.229c-0.004,0.116-0.026,0.253-0.049,0.426
		c-0.399-0.415-0.781-0.735-1.085-1.129c-0.813-1.086-1.781-1.223-2.996-0.78c-1.213,0.44-2.445,0.823-3.658,1.226
		c-0.235,0.072-0.469,0.146-0.842,0.235c0.519-1.563,1.015-2.991,1.452-4.438C637.068,741.018,637.321,740.965,637.556,740.893z"/>
	<path display="none" d="M661.914,780.918c1.365,0.63,1.439,0.787,1.292,2.3c-0.267,2.539-0.493,5.081-0.721,7.621
		c-0.003,0.195-0.008,0.388,0.008,0.564c0.153,0.079,0.23,0.121,0.327,0.181c3.238,1.272,6.477,2.505,9.714,3.776
		c0.31,0.123,0.597,0.265,0.924,0.407c0.308,0.122,0.478,0.38,0.549,0.691c0.107,0.469,0.069,2.334-0.099,2.912
		c-0.25-0.103-0.481-0.184-0.713-0.266c-2.716-1.164-5.453-2.309-8.167-3.473c-0.425-0.165-0.848-0.406-1.316-0.26
		c-0.27,0.791-0.195,0.946,0.651,1.354c2.732,1.378,5.462,2.756,8.211,4.115c0.597,0.303,0.996,0.718,1.041,1.399
		c0.059,0.895,0.119,1.791,0.197,2.666c-0.453,0.28-0.777,0.022-1.125-0.14c-2.692-1.377-5.401-2.773-8.093-4.15
		c-0.558-0.303-1.157-0.528-1.731-0.812c-0.037,0.756-0.037,0.795,0.462,1.077c0.959,0.604,1.919,1.205,2.898,1.75
		c2.188,1.25,4.378,2.501,6.568,3.751c0.671,0.383,1.049,0.934,1.11,1.712c0.163,1.559-0.048,5.187-0.139,6.76l0.094,0.099
		c-0.038-0.001-0.077,0-0.096,0.019c0,0.038-0.002,0.077-0.021,0.097l-0.097-0.101c-1.554,0.009-5.208,0.088-6.758-0.139
		c-0.794-0.113-1.311-0.492-1.667-1.181c-1.159-2.24-2.298-4.497-3.477-6.716c-0.541-1.003-1.084-2.006-1.628-2.969
		c-0.28-0.492-0.3-0.512-1.058-0.51c0.239,0.608,0.461,1.198,0.74,1.767c1.266,2.745,2.549,5.51,3.813,8.26
		c0.168,0.334,0.415,0.667,0.093,1.127c-0.872-0.114-1.764-0.21-2.655-0.307c-0.679-0.073-1.079-0.488-1.357-1.097
		c-1.244-2.805-2.508-5.589-3.771-8.376c-0.391-0.843-0.545-0.923-1.326-0.707c-0.185,0.482,0.02,0.894,0.204,1.325
		c1.031,2.782,2.082,5.543,3.132,8.305c0.093,0.253,0.166,0.488,0.238,0.724c-0.605,0.124-2.451,0.105-2.915-0.021
		c-0.327-0.066-0.578-0.207-0.688-0.56c-0.109-0.313-0.258-0.628-0.368-0.94c-1.138-3.288-2.235-6.576-3.373-9.862
		c-0.019-0.098-0.093-0.178-0.168-0.335c-0.175-0.021-0.368-0.026-0.563-0.029c-2.548,0.121-5.076,0.264-7.645,0.404
		c-1.518,0.087-1.691-0.014-2.245-1.387c-4.164-10.131-8.345-20.281-12.528-30.396c-1.019-2.488-2.036-4.938-3.053-7.427
		c-0.019-0.021-0.018-0.06-0.037-0.078l0.176-0.055c2.445,1.118,4.851,2.236,7.294,3.355
		C642.01,771.724,651.982,776.322,661.914,780.918z"/>
	<path display="none" d="M646.537,823.581c-0.278,0.268-0.265,0.598-0.174,0.932c0.306,1.19,0.592,2.399,0.898,3.592
		c0.054,0.175,0.09,0.333,0.045,0.604c-2.219-1.679-4.458-3.376-6.732-5.114c0.158-0.19,0.297-0.363,0.456-0.514
		c1.506-1.37,3.01-2.737,4.535-4.083c1.743-1.599,1.598-1.23,0.979-3.265c-0.947-3.05-1.972-6.064-2.979-9.098
		c-0.127-0.372-0.238-0.725-0.384-1.193c2.123-0.209,4.186-0.4,6.27-0.61c0.074,0.275,0.167,0.451,0.219,0.666
		c0.703,2.756,1.385,5.49,2.085,8.243c0.071,0.313,0.164,0.605,0.275,0.881c0.277,0.686,0.773,1.124,1.528,1.274
		c1.102,0.237,2.224,0.493,3.325,0.769c0.445,0.105,0.889,0.291,1.311,0.492c0.655,0.327,0.842,0.679,0.768,1.436
		c-0.024,0.175-0.066,0.369-0.089,0.542c-0.396,2.17-0.808,4.356-1.204,6.524c-0.044,0.271-0.126,0.54-0.214,0.967
		c-0.149-0.275-0.242-0.413-0.319-0.569c-0.668-1.453-1.357-2.886-2.007-4.355c-0.224-0.473-0.551-0.614-1.058-0.547
		c-0.391,0.068-0.819,0.1-1.248,0.168c0.194,0.918,0.371,1.815,0.564,2.731c0.355,1.678,0.727,3.378,1.082,5.055
		c0.284,1.29,0.76,1.745,2.12,1.813c0.719,0.034,1.437-0.011,2.176,0.006c0.311,0.008,0.66,0.052,1.085,0.099
		c-1.405,1.275-2.542,2.669-4.357,3.118c-0.625,0.141-1.251,0.284-1.891,0.29c-0.934,0.021-1.623-0.46-1.935-1.38
		c-0.128-0.373-0.237-0.724-0.347-1.115c-0.867-3.204-1.771-6.411-2.637-9.613c-0.055-0.177-0.091-0.334-0.183-0.588
		C647.747,822.422,647.152,822.992,646.537,823.581z"/>
	<path display="none" d="M519.21,837.55c0.02,0.002,0.039,0.007,0.06,0.01C519.279,837.584,519.272,837.591,519.21,837.55z"/>
	<path display="none" d="M609.454,789.182c1.894-2.352,3.136-5.065,4.416-7.74c0.811-1.731,2.021-4.757,2.852-6.469l1.337,0.202
		c1.632,0.072,7.364,0.094,7.918,0.474c0.231,0.162,0.418,0.437,0.567,0.79c3.219,7.837,6.458,15.657,9.697,23.477
		c0.091,0.256,0.203,0.529,0.313,0.843c-0.234,0.072-0.429,0.109-0.625,0.143c-2.576,0.531-5.132,1.08-7.708,1.611
		c-1.366,0.281-1.521,0.2-1.783-1.223c-0.505-2.79-0.973-5.58-1.46-8.388c-0.382-2.145-0.745-4.309-1.149-6.474
		c-0.104-0.548-0.25-1.092-0.412-1.66c-0.075-0.196-0.147-0.392-0.26-0.588c-0.151-0.235-0.378-0.437-0.67-0.5
		c-1.102-0.236-1.407,1.352-0.858,2.041c0.057,0.06,0.094,0.139,0.152,0.16c0.863,0.58,1.137,1.46,1.272,2.436
		c0.205,1.363,0.508,2.672,0.752,4.037c0.053,0.293,0.026,0.585,0.057,1.012c-0.269-0.16-0.422-0.241-0.557-0.342
		c-1.017-0.623-2.015-1.227-3.052-1.832c-0.461-0.28-0.791-0.268-0.971-0.017c-0.201,0.305-0.149,0.635,0.251,1.013
		c1.029,0.993,2.039,1.967,3.067,2.959c0.364,0.337,0.684,0.714,1.029,1.031c0.876,0.873,0.854,7.558,0.961,9.892
		c0.018,0.097-0.022,0.136-0.084,0.347c-2.712-3.222-5.405-6.386-8.08-9.57c-0.473,0.34-0.559,0.727-0.354,1.139
		c0.317,0.609,0.674,1.22,1.031,1.79c1.73,2.834,3.439,5.688,5.169,8.521c0.489,0.788,0.978,1.572,1.465,2.361
		c0.358,0.57,0.48,1.176,0.371,1.854c-0.676,3.541-1.352,7.084-2.026,10.626c-0.001,0.038-0.041,0.076-0.103,0.212
		c-0.111-0.197-0.224-0.354-0.318-0.531c-3.259-6.887-6.517-13.775-9.776-20.662c-0.149-0.314-0.336-0.629-0.505-0.927
		c-1.054,0.214-1.375,0.674-1.083,1.613c0.238,0.762,0.513,1.524,0.79,2.249c2.465,6.697,4.951,13.376,7.416,20.071
		c0.185,0.471,0.35,0.958,0.591,1.526c-0.356,0.305-0.693,0.667-1.087,0.931c-2.328,1.661-4.655,3.324-6.982,4.985
		c-0.04,0.038-0.079,0.037-0.175,0.054c-0.344-0.279-0.375-0.707-0.464-1.078c-0.844-3.417-1.666-6.853-2.489-10.289
		c-1.272-5.216-2.543-10.469-3.815-15.684c-0.092-0.331-0.239-0.647-0.349-0.997c-0.55,0.26-0.421,0.633-0.39,0.981
		c0.241,2.436,0.483,4.868,0.762,7.304c0.75,7.05,1.518,14.079,2.266,21.128c0,0.039,0.017,0.098,0.019,0.138
		c0.078,0.797,0.078,0.837-0.742,1.014c-3.122,0.636-6.262,1.252-9.482,1.903c-0.014-0.292-0.028-0.546-0.022-0.816
		c-0.009-5.207,0-10.396,0.011-15.623c0.014-5.382,0.026-10.764,0.062-16.163c0.003-0.195-0.012-0.411-0.044-0.683
		c-0.271-0.045-0.542-0.088-0.871-0.154c-0.78,5.814-1.521,11.589-2.321,17.344c-0.798,5.755-1.365,11.552-2.338,17.283
		c-4.26,0.243-8.425,0.507-12.645,0.749c-0.046-0.642,0.178-1.122,0.343-1.623c0.643-1.95,1.305-3.918,1.948-5.868
		c2.925-9.013,5.812-18.028,8.738-27.042c0.292-0.927,0.66-1.853,0.914-2.78c0.209-0.772,0.116-0.949-0.591-1.487
		c-0.123,0.229-0.243,0.461-0.345,0.673c-5.735,12.356-11.43,24.711-17.164,37.07c-0.163,0.345-0.363,0.691-0.488,1.038
		c-0.269,0.713-0.797,0.993-1.556,0.959c-0.35-0.007-0.699-0.015-1.03-0.002c-3.733,0.118-7.446,0.255-11.201,0.391
		c-0.193-0.003-0.39,0.07-0.74,0.142c0.263-0.481,0.404-0.731,0.546-1.021c0.625-1.172,1.368-2.264,1.937-3.496
		c0.407-0.886,0.967-1.688,1.451-2.534c0.182-0.327,0.325-0.692,0.526-1c0.46-0.709,0.942-1.398,1.402-2.107
		c0.604-0.96,1.148-1.94,1.75-2.899c0.364-0.613,0.783-1.208,1.166-1.802c0.06-0.097,0.119-0.153,0.18-0.249
		c0.986-1.709,1.993-3.438,3-5.126c1.107-1.863,2.252-3.684,3.359-5.547c2.698-4.53,5.376-9.08,8.072-13.609
		c1.189-2.016,2.396-4.012,3.583-6.027c0.121-0.192,0.26-0.403,0.305-0.636c0.044-0.232,0.009-0.465-0.005-0.68
		c-0.058-0.021-0.117-0.042-0.194-0.082c-0.158,0.191-0.316,0.344-0.456,0.555c-5.962,8.271-11.904,16.562-17.864,24.833
		c-4.802,6.664-9.584,13.346-14.384,20.009c-0.08,0.114-0.14,0.212-0.201,0.345c-0.406,0.849-1.149,1.026-2.061,0.988
		c-1.961-0.099-3.922-0.197-5.863-0.277c-1.787-0.075-3.612-0.112-5.397-0.188c-0.156-0.003-0.349-0.045-0.66-0.09
		c14.726-16.798,29.506-33.416,44.095-50.194c-0.242-0.491-0.428-0.886-0.651-1.394c-0.119,0.114-0.237,0.228-0.356,0.343
		c-2.524,2.649-5.027,5.315-7.548,7.964c-1.888,2.004-3.794,3.983-5.701,6.006c-2.76,2.915-5.521,5.831-8.283,8.747
		c-1.588,1.678-3.198,3.374-4.787,5.05c-3.139,3.316-6.277,6.634-9.415,9.911c-2.641,2.764-5.262,5.508-7.904,8.27
		c-1.171,1.238-2.344,2.479-3.457,3.737c-0.738,0.859-1.614,0.977-2.889,0.641c-1.953-0.525-3.929-0.722-5.952-0.688
		c-0.583,0.027-1.142-0.198-1.704-0.269c-0.91-0.115-1.821-0.231-2.752-0.328c-0.154-0.021-0.295-0.055-0.443-0.078
		c-0.004-0.011-0.008-0.021-0.021-0.048c0.417-0.438,0.797-0.916,1.232-1.335c3.907-3.825,7.793-7.631,11.681-11.476
		c3.372-3.314,6.725-6.604,10.077-9.936c1.784-1.751,3.55-3.521,5.334-5.273c3.374-3.35,6.784-6.699,10.157-10.049
		c1.746-1.712,3.492-3.426,5.217-5.158c3.351-3.293,6.683-6.565,10.016-9.877c1.845-1.809,3.67-3.598,5.475-5.445
		c2.839-2.915,5.774-5.73,8.65-8.605c0.217-0.208,0.437-0.418,0.693-0.666l2.797,2.916c-0.749,1.479-1.248,3.063-1.573,4.669
		c-0.109,0.6-0.122,1.222-0.098,1.844c0.063,1.73,0.163,3.461,0.283,5.175c0.044,0.682,0.245,1.366,0.385,2.028
		c0.089,0.371,0.237,0.724,0.366,1.097c1.023,3.169,3.234,5.273,6.159,6.615c0.809,0.365,1.719,0.563,2.61,0.657
		c3.023,0.373,5.702-0.446,7.999-2.497C607.739,791.283,608.596,790.233,609.454,789.182z"/>
</g>
</svg>
