<?xml version="1.0" encoding="utf-8"?>
<!-- Generator: Adobe Illustrator 16.0.3, SVG Export Plug-In . SVG Version: 6.00 Build 0)  -->
<!DOCTYPE svg PUBLIC "-//W3C//DTD SVG 1.1//EN" "http://www.w3.org/Graphics/SVG/1.1/DTD/svg11.dtd">
<svg version="1.1" id="Ebene_5" xmlns="http://www.w3.org/2000/svg" xmlns:xlink="http://www.w3.org/1999/xlink" x="0px" y="0px"
	 width="1417.32px" height="1417.32px" viewBox="0 0 1417.32 1417.32" enable-background="new 0 0 1417.32 1417.32"
	 xml:space="preserve">
<g>
	<path fill="none" d="M495.045,1068.247c-4.457,3.628-7.937,3.631-11.958-0.23c-8.523-8.188-59.19-57.441-59.19-57.441
		l-196.817,202.722c0,0,66.174,64.245,70.745,68.684c4.57,4.438,4.697,4.562,8.684,0.455
		c3.988-4.106,168.515-173.567,188.593-194.248c5.5-5.511,7.374-12.424,8.095-19.912c-2.621-0.406-4.538-0.705-6.941-1.08
		C496.155,1067.283,495.615,1067.785,495.045,1068.247z"/>
	<path d="M481.198,872.694c-0.387,0.363-0.324,1.198,0.108,1.583c0.432,0.387,1.284,0.339,1.72-0.11
		c0.353-0.364,0.322-1.232-0.042-1.618C482.621,872.163,481.65,872.228,481.198,872.694z"/>
	<path d="M1272.569,150.819c-0.205,0.223-0.405,0.451-0.617,0.67c-12.534,12.909-33.159,13.214-46.068,0.681
		c-12.909-12.533-13.214-33.158-0.68-46.068c0.214-0.219,0.435-0.426,0.652-0.637l-23.86-23.165L586.758,715.985l-26.028-25.381
		c0,0-4.641-2.408-7.304-0.679c-7.053-6.847-16.463-15.984-21.014-20.402c-4.217-4.123-7.705-0.531-7.705-0.531l-44.467,45.856
		l8.918,8.658l-12.402,12.773l-8.946-8.686l-12.361,12.731l8.945,8.686l-9.747,10.04l-8.945-8.685l-12.402,12.772l8.945,8.687
		l-12.362,12.731l-8.945-8.686l-22.113,22.776l18.844,18.295l-8.304,8.676c0,0-11.561-2.458-15.808-3.645
		c-5.615,5.781-24.038,24.756-24.038,24.756l3.708,15.382c0,0-4.689,8.49-2.373,13.757c0.77,1.751,1.786,2.957,2.985,4.145
		c5.311,5.257,16.453,16.019,16.453,16.019l-5.41,5.571l-8.744-8.49l-22.598,23.276l8.745,8.489l-8.086,8.328l0.284,7.74
		l10.623,10.316c0,0-233.817,240.793-242.54,249.692c-2.833,2.889-13.005,1.459-17.444,1.845c-1.807,0.157-3.759-0.664-5.471-0.274
		c-2.039,0.463-3.811,2.145-5.849,2.564c-1.976,0.408-3.728,0.408-5.448,2.014c-1.236,1.153-3.654,0.977-5.477,1.595
		c-0.653,0.221-1.207,0.957-1.636,1.578c-3.825,5.521-10.388,7.855-14.743,12.829c-4.405,5.03-9.271,9.657-13.917,14.442
		c0.33,1.118,0.643,2.186,0.957,3.251c-3.396,0.849-3.848,4.464-5.866,6.608c-1.968,2.091-2.533,5.563-3.528,8.491
		c-1.153,3.392-3.811,6.321-3.216,10.288c0.044,0.291-0.748,0.982-1.19,1.02c-1.688,0.144-2.227,1.136-1.954,2.561
		c0.678,3.534,0.145,7.335,2.362,11.203c2.422-2.231,4.591-4.227,7.119-6.555c-0.462,6.242-0.895,12.076-1.327,17.911
		c0.219,0.099,0.438,0.194,0.658,0.292c0.54-1.155,1.082-2.31,1.924-4.111c0.59,1.323,1.657,2.54,1.501,3.574
		c-0.575,3.828-0.823,7.668,0.327,11.33c2.161,6.883,4.02,14.049,10.956,18.629c0.093-1.066,0.15-1.734,0.206-2.377
		c2.124,1.402,2.124,1.402,2.744,5.203c0.417-0.237,1.113-0.393,1.208-0.723c1.447-5.062,4.276-9.792,5.334-14.736
		c1.101-5.146,3.911-7.121,7.925-8.822c1.754-0.744,3.803-1.149,5.194-2.326c4.892-4.144,9.653-2.383,14.455-0.088
		c1.922,0.92,19.917,6.646,19.226,7.858c2.929,3.742,7.885,3.412,11.584,5.738c2.562,1.61,6.331,1.531,8.555,3.401
		c4.584,3.858,9.273,2.086,13.369,0.507c8.512-3.275,9.845-2.99,16.735-0.035c4.127,1.771,8.162,3.927,12.477,5.346
		c5.433,1.787,11.231,3.033,16.058,5.891c2.996,1.771,6.093,2.841,9.182,4.11c1.25,0.515,2.761,0.396,4.746,0.638
		c-0.254-4.113,0.974-7.395,0.096-11.12c-0.809-3.431-0.012-7.206-0.392-10.781c-0.381-3.601-1.338-7.143-2.034-10.659
		c-3.478-0.896-6.235-2.764-9.148-4.213c-3.131-1.559-5.964-3.865-9.581-4.897c-3.107-0.886-5.594-3.949-8.204-5.937
		c0.69-2.355,1.578-3.455,3.193-1.615c1.402,1.597,3.028,2.55,5.092,2.701c1.291,0.094,2.597-0.032,3.954-0.059
		c-0.26,0.55-0.647,1.375-1.27,2.698c5.158,1.058,10.205,2.091,15.954,3.268c-0.604-1.64-0.813-3.324-1.731-4.416
		c-1.182-1.409-1.813-2.701-2.191-4.569c-0.456-2.245-1.917-4.368-3.262-6.326c-1.672-2.437-4.339-4.396-5.351-7.033
		c-1.159-3.021-2.621-4.537-5.771-4.877c-0.809-0.089-1.488-1.344-2.229-2.061c-4.66-4.488-7.542-5.332-0.145-11.854
		c2.371-2.092,3.78-5.024,7.541-6.046c1.887-0.515,90.249,87.618,100.655,97.725c10.407,10.103,17.75-1.627,17.75-1.627
		s234.759-240.17,234.732-241.807c-0.071-4.258,1.002-9.472,1.026-13.305c0.019-2.849,0.642-5.63,0.444-8.521
		c-0.196-2.851,0.492-5.764,0.876-9.452c0.858-0.883,2.032-2.768,3.728-3.701c3.773-2.079,2.842-6.122,4.38-9.091
		c-2.36-3.174-2.756-39.488-2.713-42.836c0.073-5.695,2.767-9.291,7.891-12.193c6.47-3.668,13.077-6.043,20.404-6.909
		c4.437-0.526,10.857-0.659,14.378,0.313c0.925,0.255,13.93,4.676,16.448,5.083c2.518,0.405,4.835-1.982,4.835-1.982
		s3.369-3.488,4.856-5.047c7.449-7.82,22.482-23.227,22.482-23.227l-61.953-60.147l711.587-732.923l-0.103-0.098L1272.569,150.819z
		 M495.102,1088.188c-20.078,20.681-184.605,190.142-188.593,194.248c-3.987,4.106-4.114,3.983-8.684-0.455
		c-4.571-4.438-70.745-68.684-70.745-68.684l196.817-202.722c0,0,50.667,49.254,59.19,57.441c4.021,3.861,7.502,3.858,11.958,0.23
		c0.569-0.462,1.109-0.964,1.21-1.052c2.404,0.375,4.32,0.674,6.941,1.08C502.475,1075.764,500.601,1082.677,495.102,1088.188z
		 M511.516,846.275c0.76-0.471,1.555-0.909,2.333-1.364c0.659-0.367,1.051-0.287,1.52,0.303c0.104,0.134,0.175,0.27,0.245,0.404
		c0.689,1.643,0.886,3.413,1.288,5.281c-1.114-0.377-1.973-0.873-2.798-1.408c-0.464-0.316-0.464-0.316-0.919,0.05
		c-1.162,0.919-2.342,1.857-3.588,2.863c-0.037-0.239-0.055-0.39-0.059-0.526c0.082-1.33,0.199-2.662,0.249-3.959
		c0.03-0.341,0.145-0.599,0.431-0.789C510.655,846.851,511.077,846.555,511.516,846.275z M496.286,854.732
		c0.299-0.517,9.417-8.559,11.018-9.757c0.571,0.485,1.156,0.952,1.709,1.49c0.069,0.066,0.09,0.322,0.023,0.46
		c-0.113,0.291-0.333,0.517-0.48,0.809c-0.514,0.978-0.602,2.002-0.482,3.091c0.099,0.936,0.35,1.817,0.719,2.682
		c0.496,1.152,0.369,1.87-0.466,2.973c-0.706-0.484-1.429-0.95-2.101-1.47c-0.586-0.469-1.256-0.78-2.008-0.872
		c-0.853-0.09-1.707-0.18-2.559-0.167c-1.107-0.001-2.142,0.27-3.035,0.982c-0.337,0.276-0.726,0.471-1.081,0.697
		c-0.287,0.157-0.509,0.11-0.718-0.159C496.635,855.237,496.46,854.968,496.286,854.732z M499.289,864.128
		c0.391-2.341,0.782-4.681,1.173-7.021c0.079-0.495,0.124-0.991,0.199-1.588c0.289-0.055,0.595-0.161,0.9-0.2
		c1.669-0.128,3.189,0.242,4.568,1.176c0.533,0.352,0.779,0.858,0.807,1.488c0.052,1.261,0.104,2.521,0.174,3.798
		c0.111,1.788,0.207,3.559,0.318,5.347c0.001,0.171,0.004,0.34-0.007,0.595c-0.19-0.046-0.361-0.079-0.48-0.128
		c-2.295-0.818-4.574-1.652-6.87-2.471c-0.085-0.051-0.206-0.101-0.308-0.133C499.212,864.76,499.195,864.709,499.289,864.128z
		 M497.277,866.408c0.435,0.555,3.657,7.579,3.874,8.497c-0.492,0.093-9.295-0.563-10.406-0.767
		c-1.083-1.824-1.433-4.75-0.798-6.788c0.305-0.038,0.646-0.146,1.019-0.219c2.06-0.253,4.134-0.488,6.192-0.74
		C497.192,866.392,497.243,866.408,497.277,866.408z M478.636,876.959c-0.355-0.949-0.693-1.916-1.048-2.864
		c-0.123-0.322-0.076-0.544,0.176-0.769c0.976-0.867,1.917-1.734,2.859-2.602c1.867-1.68,3.683-3.375,5.549-5.056
		c0.724-0.642,1.463-1.266,2.187-1.908c0.861,0.534,1.036,0.871,0.588,1.645c-1.461,2.578-0.98,5.161-0.056,7.772
		c0.107,0.304,0.23,0.593,0.354,0.88c0.035,0.035,0.019,0.086-0.048,0.189c-3.478,1.022-6.923,2.011-10.384,3.016
		C478.757,877.144,478.672,877.061,478.636,876.959z M480.207,878.349c0.066-0.204,0.112-0.425,0.384-0.497
		c1.273-0.378,2.526-0.806,3.901-1.253c-0.08,0.325-0.145,0.533-0.211,0.738c-0.358,1.061-0.702,2.139-1.093,3.201
		c-0.394,1.061-0.278,1.913,0.669,2.632c0.344,0.268,0.622,0.605,0.985,0.957c-0.153,0.018-0.271,0.038-0.375,0.04
		c-1.517-0.029-3.052-0.073-4.585-0.121c-0.119,0.02-0.239,0.005-0.341,0.006c-1.006-0.036-1.198-0.322-0.905-1.316
		C479.159,881.263,479.684,879.822,480.207,878.349z M499.993,906.091c0.436,0.693,0.907,1.351,1.359,2.026
		c0.333,0.489,0.475,1.032,0.381,1.613c-0.481,3.125-0.963,6.25-1.445,9.377c-0.017,0.051-0.033,0.103-0.083,0.188
		c-0.104-0.169-0.208-0.304-0.297-0.456c-3.07-5.937-6.139-11.873-9.208-17.809c-0.141-0.27-0.315-0.542-0.472-0.795
		c-0.934,0.203-1.183,0.631-0.899,1.446c0.231,0.661,0.496,1.287,0.762,1.947c2.371,5.793,4.756,11.569,7.125,17.362
		c0.194,0.423,0.371,0.831,0.564,1.32c-0.301,0.278-0.604,0.59-0.923,0.85c-1.972,1.547-3.977,3.059-5.965,4.588
		c-0.036-0.001-0.086,0.018-0.153,0.053c-0.31-0.234-0.351-0.607-0.44-0.93c-0.845-2.971-1.673-5.958-2.501-8.945
		c-1.259-4.55-2.537-9.079-3.832-13.628c-0.073-0.306-0.213-0.576-0.336-0.864c-0.474,0.246-0.35,0.568-0.312,0.874
		c0.288,2.126,0.592,4.269,0.896,6.379c0.875,6.155,1.767,12.294,2.642,18.45c0,0.035,0.018,0.085,0.018,0.118
		c0.113,0.715,0.096,0.731-0.617,0.911c-2.717,0.655-5.45,1.292-8.253,1.965c-0.004-0.238-0.041-0.478-0.045-0.717
		c-0.169-4.563-0.322-9.146-0.475-13.694c-0.156-4.718-0.294-9.453-0.448-14.171c-0.02-0.188-0.04-0.375-0.061-0.596
		c-0.238-0.029-0.478-0.062-0.769-0.108c-0.502,5.121-0.973,10.206-1.495,15.274c-0.538,5.086-0.854,10.186-1.514,15.225
		c-3.726,0.344-7.351,0.686-11.061,1.047c-0.042-0.544,0.121-0.988,0.251-1.433c0.503-1.73,1.04-3.459,1.525-5.202
		c2.286-7.994,4.535-15.986,6.82-23.978c0.227-0.821,0.505-1.627,0.713-2.466c0.161-0.683,0.057-0.818-0.564-1.285
		c-0.101,0.206-0.198,0.412-0.282,0.601c-4.642,11.01-9.251,22.019-13.895,33.028c-0.132,0.307-0.28,0.6-0.395,0.925
		c-0.213,0.634-0.668,0.896-1.333,0.888c-0.308,0.005-0.614,0.01-0.904,0.033c-3.269,0.216-6.554,0.451-9.807,0.688
		c-0.152,0.021-0.34,0.073-0.645,0.146c0.216-0.43,0.331-0.688,0.447-0.909c0.512-1.046,1.146-2.046,1.589-3.126
		c0.33-0.789,0.796-1.511,1.194-2.267c0.149-0.293,0.263-0.617,0.43-0.892c0.383-0.637,0.798-1.239,1.165-1.895
		c0.499-0.857,0.946-1.733,1.444-2.595c0.316-0.532,0.649-1.081,0.965-1.614c0.05-0.085,0.101-0.138,0.151-0.225
		c0.812-1.529,1.624-3.056,2.47-4.586c0.914-1.666,1.861-3.3,2.773-4.966c2.225-4.055,4.431-8.126,6.653-12.18
		c0.979-1.806,1.977-3.592,2.955-5.396c0.083-0.189,0.216-0.361,0.248-0.566c0.031-0.172-0.023-0.393-0.027-0.597
		c-0.069-0.032-0.12-0.049-0.171-0.064c-0.134,0.17-0.268,0.309-0.384,0.499c-4.969,7.436-9.92,14.889-14.889,22.324
		c-4.001,5.988-7.986,11.994-11.987,17.984c-0.067,0.104-0.133,0.206-0.166,0.31c-0.364,0.756-0.992,0.953-1.775,0.929
		c-1.722-0.025-3.444-0.05-5.147-0.061c-1.568-0.01-3.154-0.003-4.739,0.001c-0.153-0.014-0.308-0.028-0.581-0.058
		c12.387-15.18,24.828-30.207,37.112-45.351c-0.21-0.44-0.404-0.795-0.614-1.2c-0.101,0.103-0.201,0.207-0.302,0.311
		c-2.129,2.399-4.24,4.816-6.369,7.216c-1.609,1.83-3.218,3.628-4.811,5.438c-2.33,2.645-4.659,5.285-6.99,7.929
		c-1.34,1.518-2.698,3.054-4.039,4.573c-2.649,2.97-5.298,5.977-7.946,8.979c-2.229,2.507-4.442,4.992-6.671,7.495
		c-0.99,1.123-1.961,2.228-2.916,3.384c-0.653,0.775-1.418,0.906-2.512,0.65c-1.71-0.384-3.467-0.51-5.238-0.415
		c-0.494,0.022-1.008-0.14-1.503-0.184c-0.801-0.073-1.621-0.129-2.423-0.201c-0.153-0.015-0.29-0.049-0.443-0.063
		c-0.019-0.086-0.036-0.102-0.072-0.169c0.352-0.396,0.67-0.826,1.04-1.208c3.288-3.492,6.594-6.966,9.882-10.422
		c2.853-3.007,5.689-5.997,8.543-9.006c1.51-1.589,3.002-3.197,4.513-4.789c2.852-3.04,5.738-6.082,8.59-9.122
		c1.459-1.573,2.937-3.13,4.413-4.685c2.819-2.974,5.638-5.979,8.44-8.935c1.542-1.659,3.104-3.268,4.63-4.94
		c2.398-2.646,4.9-5.188,7.315-7.814c0.185-0.188,0.369-0.38,0.588-0.604l2.593,2.519c-0.611,1.322-1,2.725-1.233,4.141
		c-0.078,0.532-0.07,1.077-0.028,1.621c0.108,1.516,0.231,3.014,0.408,4.527c0.06,0.596,0.238,1.173,0.4,1.767
		c0.091,0.321,0.232,0.626,0.355,0.949c0.995,2.745,2.999,4.488,5.605,5.608c0.72,0.295,1.522,0.438,2.307,0.496
		c2.662,0.231,4.985-0.57,6.936-2.438c0.872-0.83,1.591-1.779,2.311-2.728c1.604-2.103,2.592-4.536,3.629-6.921
		c0.678-1.527,1.625-4.234,2.302-5.76l1.178,0.136c1.431,0.014,6.439-0.13,6.955,0.171c0.223,0.149,0.38,0.37,0.521,0.673
		c3.065,6.771,6.146,13.526,9.229,20.279c0.089,0.219,0.177,0.44,0.302,0.73c-0.223,0.053-0.374,0.105-0.544,0.144
		c-2.224,0.562-4.466,1.105-6.708,1.65c-1.188,0.288-1.326,0.224-1.6-1.018c-0.53-2.428-1.026-4.858-1.539-7.305
		c-0.386-1.885-0.806-3.773-1.209-5.64c-0.109-0.51-0.252-0.986-0.414-1.443c-0.054-0.186-0.141-0.337-0.246-0.508
		c-0.139-0.2-0.346-0.369-0.603-0.417c-0.973-0.172-1.192,1.228-0.688,1.816c0.033,0.035,0.069,0.102,0.138,0.135
		c0.773,0.482,1.04,1.246,1.189,2.097c0.222,1.188,0.529,2.359,0.785,3.515c0.054,0.256,0.04,0.511,0.081,0.886
		c-0.259-0.15-0.363-0.216-0.499-0.282c-0.913-0.516-1.822-1.03-2.732-1.51c-0.429-0.249-0.701-0.212-0.852,0.01
		c-0.166,0.275-0.112,0.566,0.251,0.885c0.933,0.839,1.848,1.658,2.782,2.498c0.31,0.268,0.604,0.586,0.933,0.872
		c0.812,0.756,1.001,6.615,1.15,8.64c0,0.069-0.016,0.121-0.063,0.309c-2.496-2.757-4.937-5.432-7.38-8.14
		c-0.421,0.332-0.468,0.654-0.274,1.01c0.315,0.54,0.627,1.047,1.01,1.552C496.786,901.229,498.389,903.659,499.993,906.091z
		 M531.478,914.727c0.002,0.173-0.046,0.325-0.062,0.479c-0.278,1.913-0.558,3.825-0.852,5.755c-0.031,0.238-0.095,0.48-0.159,0.854
		c-0.157-0.253-0.226-0.354-0.296-0.489c-0.633-1.251-1.265-2.504-1.896-3.756c-0.211-0.44-0.52-0.537-0.944-0.446
		c-0.357,0.092-0.696,0.131-1.088,0.186c0.2,0.799,0.398,1.598,0.581,2.379c0.362,1.459,0.742,2.938,1.105,4.398
		c0.289,1.119,0.738,1.487,1.913,1.521c0.648,0.024,1.278-0.036,1.91-0.063c0.271-0.006,0.563,0.042,0.955,0.054
		c-1.194,1.16-2.146,2.416-3.724,2.868c-0.544,0.144-1.086,0.287-1.649,0.313c-0.817,0.046-1.436-0.354-1.738-1.151
		c-0.123-0.322-0.248-0.645-0.338-0.967c-0.859-2.781-1.752-5.563-2.611-8.344c-0.037-0.137-0.09-0.289-0.178-0.51
		c-0.572,0.588-1.074,1.105-1.596,1.644c-0.235,0.241-0.213,0.53-0.124,0.819c0.306,1.035,0.593,2.087,0.898,3.122
		c0.054,0.152,0.107,0.306,0.059,0.527c-1.997-1.402-4.011-2.819-6.062-4.272c0.134-0.173,0.252-0.328,0.386-0.465
		c1.294-1.23,2.57-2.478,3.847-3.724c1.479-1.453,1.364-1.128,0.759-2.889c-0.926-2.646-1.917-5.255-2.894-7.883
		c-0.125-0.322-0.231-0.627-0.374-1.035c1.854-0.249,3.658-0.479,5.477-0.727c0.089,0.253,0.177,0.405,0.213,0.575
		c0.701,2.392,1.383,4.767,2.083,7.161c0.071,0.272,0.16,0.524,0.267,0.763c0.264,0.593,0.712,0.961,1.377,1.069
		c0.992,0.156,1.967,0.363,2.941,0.569c0.392,0.079,0.787,0.229,1.097,0.429C531.362,913.774,531.518,914.063,531.478,914.727z
		 M544.643,896.81c-0.206-0.066-0.413-0.132-0.634-0.212c-2.418-0.937-4.835-1.872-7.268-2.792
		c-0.378-0.163-0.739-0.347-1.161-0.186c-0.195,0.684-0.125,0.818,0.613,1.166c2.437,1.123,4.873,2.246,7.327,3.352
		c0.533,0.247,0.895,0.599,0.955,1.196c0.081,0.783,0.16,1.565,0.256,2.329c-0.405,0.28-0.698,0.063-0.989-0.086
		c-2.403-1.123-4.823-2.264-7.226-3.388c-0.498-0.249-1.012-0.444-1.544-0.658c-0.005,0.665,0.012,0.682,0.44,0.931
		c0.843,0.481,1.72,0.964,2.595,1.445c1.941,1.045,3.917,2.055,5.875,3.083c0.601,0.314,0.931,0.769,1.027,1.467
		c0.19,1.359,0.101,4.565,0.087,5.928l0.087,0.087c-0.018,0.016-0.051,0.016-0.084,0.016c-0.017,0.018-0.017,0.053-0.016,0.087
		l-0.088-0.086c-1.379,0.072-4.563,0.238-5.928,0.088c-0.684-0.058-1.164-0.391-1.497-0.981c-1.084-1.928-2.17-3.854-3.256-5.781
		c-0.472-0.863-0.997-1.707-1.52-2.55c-0.244-0.44-0.279-0.439-0.943-0.414c0.246,0.51,0.44,1.035,0.704,1.523
		c1.194,2.369,2.405,4.754,3.6,7.122c0.14,0.305,0.366,0.593,0.116,0.986c-0.767-0.073-1.552-0.129-2.336-0.187
		c-0.597-0.042-0.96-0.395-1.224-0.918c-1.178-2.421-2.372-4.822-3.566-7.226c-0.352-0.743-0.489-0.811-1.185-0.579
		c-0.131,0.411,0.08,0.783,0.221,1.156c1.006,2.387,1.998,4.794,3.004,7.182c0.07,0.203,0.143,0.405,0.231,0.627
		c-0.511,0.145-2.146,0.167-2.556,0.071c-0.273-0.064-0.498-0.213-0.604-0.485c-0.125-0.288-0.246-0.541-0.353-0.812
		c-1.099-2.848-2.164-5.696-3.262-8.542c-0.054-0.084-0.087-0.151-0.158-0.287c-0.154-0.016-0.323-0.012-0.496-0.01
		c-2.228,0.188-4.458,0.371-6.687,0.593c-1.327,0.124-1.465,0.055-2.012-1.146c-3.98-8.735-7.959-17.504-11.924-26.256
		c-0.969-2.15-1.938-4.266-2.906-6.415l0.047-0.155c0.018,0.019,0.053,0.018,0.071,0.033c2.176,0.906,4.32,1.812,6.497,2.715
		c8.85,3.722,17.731,7.442,26.596,11.145c1.201,0.493,1.289,0.648,1.207,1.979c-0.138,2.249-0.276,4.469-0.397,6.702
		c0.004,0.17,0.006,0.341,0.025,0.494c0.137,0.064,0.206,0.133,0.292,0.149c2.877,1.013,5.756,1.992,8.634,3.007
		c0.274,0.1,0.547,0.231,0.822,0.327c0.308,0.1,0.43,0.318,0.486,0.609C544.747,894.66,544.754,896.279,544.643,896.81z
		 M551.575,888.527c2.806,0.776,5.611,1.588,8.419,2.362c0.342,0.097,0.65,0.195,0.976,0.31c0.806,0.277,1.223,0.885,1.201,1.703
		c-0.008,0.563-0.136,1.111-0.264,1.658c-0.403,1.589-1.632,2.581-2.756,3.807c-0.04-0.376-0.079-0.681-0.082-0.952
		c-0.01-0.65,0.031-1.28,0.006-1.909c-0.051-1.192-0.451-1.613-1.579-1.868c-1.47-0.32-2.958-0.656-4.427-0.974
		c-0.805-0.176-1.591-0.335-2.394-0.512c-0.063,0.376-0.092,0.75-0.155,1.093c-0.061,0.444,0.062,0.732,0.474,0.93
		c1.287,0.58,2.539,1.191,3.81,1.785c0.137,0.066,0.258,0.151,0.499,0.282c-0.373,0.073-0.612,0.146-0.85,0.183
		c-1.904,0.335-3.824,0.688-5.729,1.022c-0.152,0.02-0.322,0.056-0.476,0.075c-0.664,0.062-0.973-0.104-1.254-0.68
		c-0.177-0.373-0.335-0.763-0.426-1.153c-0.236-0.969-0.455-1.952-0.656-2.921c-0.129-0.662-0.511-1.1-1.112-1.346
		c-0.24-0.101-0.496-0.182-0.77-0.246c-2.413-0.629-4.807-1.241-7.221-1.869c-0.187-0.049-0.342-0.133-0.583-0.197
		c0.196-1.824,0.374-3.636,0.566-5.495c0.413,0.13,0.72,0.228,1.046,0.343c2.655,0.898,5.293,1.814,7.964,2.66
		c1.78,0.553,1.459,0.678,2.867-0.845c1.189-1.329,2.398-2.643,3.605-3.953c0.135-0.14,0.287-0.261,0.454-0.399
		c1.513,2.004,2.991,3.978,4.451,5.932c-0.239,0.038-0.376,0.007-0.529-0.043c-1.044-0.273-2.104-0.531-3.148-0.806
		c-0.291-0.081-0.581-0.095-0.816,0.148c-0.52,0.536-1.023,1.054-1.626,1.711C551.283,888.445,551.421,888.478,551.575,888.527z
		 M565.603,775.097c0.02,0.132,0.048,0.255,0.066,0.39c0.08,0.816,0.177,1.615,0.273,2.415c0.059,0.493,0.254,0.983,0.227,1.497
		c-0.041,1.771,0.122,3.507,0.573,5.222c0.289,1.12,0.181,1.89-0.576,2.531c-1.111,0.971-2.205,1.993-3.297,3.015
		c-2.436,2.301-4.857,4.587-7.293,6.89c-2.891,2.735-5.816,5.471-8.741,8.207c-1.479,1.385-2.976,2.787-4.455,4.174
		c-2.571,2.405-5.143,4.813-7.714,7.219c-1.782,1.664-3.53,3.324-5.295,4.969c-2.336,2.199-4.689,4.381-7.027,6.581
		c-0.099,0.104-0.2,0.206-0.302,0.311c0.447,0.197,0.79,0.363,1.219,0.579c14.792-12.711,29.445-25.589,44.252-38.419
		c0.038,0.272,0.075,0.442,0.076,0.58c0.058,1.565,0.082,3.166,0.139,4.733c0.059,1.704,0.134,3.426,0.212,5.144
		c0.028,0.802-0.132,1.451-0.876,1.803c-0.12,0.054-0.203,0.106-0.305,0.175c-5.869,4.178-11.755,8.337-17.624,12.515
		c-7.286,5.186-14.589,10.355-21.874,15.54c-0.185,0.122-0.319,0.261-0.489,0.4c0.036,0.067,0.054,0.117,0.071,0.168
		c0.188,0.014,0.393,0.047,0.598,0.008c0.203-0.036,0.388-0.159,0.558-0.264c1.774-1.031,3.531-2.078,5.305-3.11
		c3.987-2.343,7.992-4.669,11.979-7.012c1.639-0.961,3.243-1.955,4.882-2.917c1.487-0.874,3.007-1.749,4.511-2.606
		c0.084-0.053,0.135-0.104,0.22-0.156c0.523-0.332,1.046-0.697,1.587-1.014c0.844-0.521,1.707-0.995,2.55-1.52
		c0.625-0.4,1.231-0.818,1.857-1.221c0.27-0.176,0.592-0.299,0.88-0.456c0.743-0.419,1.452-0.907,2.23-1.259
		c1.084-0.494,2.044-1.139,3.077-1.682c0.253-0.123,0.473-0.246,0.896-0.474c-0.064,0.308-0.129,0.479-0.127,0.65
		c-0.138,3.29-0.278,6.547-0.401,9.822c-0.013,0.29-0.006,0.596-0.004,0.901c0.027,0.666-0.222,1.128-0.848,1.359
		c-0.305,0.107-0.609,0.283-0.915,0.423c-10.867,4.966-21.734,9.897-32.603,14.864c-0.186,0.089-0.389,0.193-0.592,0.3
		c0.471,0.623,0.624,0.705,1.303,0.524c0.814-0.216,1.629-0.534,2.443-0.785c7.921-2.519,15.844-5.007,23.765-7.525
		c1.712-0.555,3.442-1.125,5.156-1.678c0.439-0.144,0.864-0.338,1.426-0.295c-0.235,3.702-0.488,7.354-0.722,11.088
		c-5.032,0.824-10.121,1.291-15.172,1.963c-5.052,0.672-10.12,1.291-15.224,1.945c0.054,0.291,0.092,0.527,0.13,0.764
		c0.239,0.033,0.427,0.048,0.598,0.044c4.737-0.001,9.458,0.014,14.178,0.029c4.585,0.018,9.136,0.036,13.704,0.071
		c0.237-0.005,0.46,0.009,0.715,0.022c-0.589,2.821-1.145,5.574-1.717,8.308c-0.16,0.718-0.195,0.718-0.894,0.644
		c-0.036,0.002-0.086-0.015-0.121-0.015c-6.179-0.693-12.342-1.402-18.521-2.095c-2.134-0.259-4.267-0.482-6.401-0.706
		c-0.308-0.031-0.633-0.146-0.864,0.336c0.308,0.098,0.583,0.23,0.874,0.312c4.566,1.142,9.167,2.283,13.735,3.425
		c3.009,0.742,6.021,1.48,9.014,2.237c0.326,0.08,0.701,0.109,0.944,0.411c-0.017,0.086-0.017,0.12-0.049,0.154
		c-1.471,2.033-2.94,4.065-4.408,6.098c-0.234,0.345-0.553,0.639-0.821,0.948c-0.499-0.213-0.926-0.358-1.337-0.521
		c-5.862-2.2-11.705-4.414-17.565-6.611c-0.634-0.245-1.303-0.491-1.971-0.703c-0.821-0.26-1.228,0.019-1.417,0.941
		c0.258,0.149,0.533,0.316,0.808,0.447c6.025,2.895,12.048,5.788,18.073,8.681c0.154,0.083,0.292,0.183,0.463,0.284
		c-0.118,0.053-0.151,0.087-0.186,0.085c-3.11,0.576-6.22,1.151-9.331,1.724c-0.594,0.095-1.124-0.016-1.624-0.333
		c-0.688-0.434-1.377-0.866-2.064-1.3c-2.476-1.53-4.969-3.045-7.446-4.577c-0.5-0.314-1.033-0.632-1.565-0.913
		c-0.36-0.183-0.699-0.108-1,0.305c2.777,2.362,5.54,4.741,8.353,7.136c-0.187,0.055-0.22,0.091-0.305,0.073
		c-2.047-0.104-7.908-0.122-8.67-0.896c-0.277-0.302-0.604-0.586-0.9-0.907c-0.866-0.907-1.714-1.796-2.58-2.704
		c-0.329-0.354-0.619-0.399-0.889-0.225c-0.22,0.157-0.232,0.445,0.013,0.852c0.524,0.912,1.048,1.791,1.59,2.685
		c0.086,0.118,0.157,0.255,0.296,0.491c-0.375-0.028-0.63-0.008-0.887-0.056c-1.196-0.221-2.341-0.493-3.538-0.681
		c-0.855-0.123-1.625-0.366-2.13-1.127c-0.017-0.05-0.086-0.086-0.138-0.135c-0.604-0.483-1.997-0.227-1.795,0.742
		c0.055,0.257,0.227,0.458,0.435,0.59c0.171,0.101,0.343,0.166,0.514,0.231c0.496,0.146,0.976,0.276,1.454,0.371
		c1.897,0.363,3.794,0.693,5.673,1.039c2.46,0.442,4.904,0.865,7.348,1.325c1.246,0.236,1.318,0.372,1.062,1.568
		c-0.478,2.258-0.973,4.497-1.451,6.753c-0.031,0.172-0.063,0.343-0.129,0.548c-0.272-0.099-0.512-0.197-0.736-0.28
		c-6.842-2.882-13.685-5.762-20.543-8.626c-0.309-0.131-0.55-0.297-0.69-0.501c-0.331-0.489-0.319-5.516-0.375-6.946l-0.17-1.175
		c1.505-0.721,4.167-1.766,5.69-2.47c2.353-1.107,4.739-2.182,6.812-3.832c0.925-0.746,1.851-1.493,2.656-2.391
		c1.811-2.003,2.543-4.35,2.231-7.003c-0.08-0.783-0.246-1.582-0.562-2.294c-1.163-2.571-2.999-4.521-5.773-5.435
		c-0.325-0.114-0.633-0.246-0.958-0.326c-0.582-0.129-1.181-0.308-1.777-0.351c-1.501-0.113-3.02-0.209-4.538-0.272
		c-0.546-0.026-1.091-0.019-1.617,0.074c-1.411,0.277-2.801,0.706-4.104,1.355l-2.542-2.469c0.218-0.224,0.402-0.413,0.587-0.604
		c2.537-2.509,5.021-5.068,7.591-7.542c1.629-1.574,3.209-3.167,4.805-4.775c2.922-2.904,5.811-5.812,8.715-8.734
		c1.529-1.505,3.04-3.027,4.55-4.549c2.958-2.94,5.912-5.916,8.867-8.855c1.545-1.557,3.107-3.098,4.653-4.653
		c2.939-2.924,5.843-5.847,8.766-8.786c3.392-3.393,6.75-6.78,10.126-10.188c0.368-0.38,0.789-0.712,1.176-1.075
		C565.584,775.089,565.593,775.092,565.603,775.097c-0.003-0.02-0.006-0.037-0.009-0.054
		C565.628,775.099,565.625,775.103,565.603,775.097z"/>
	<path d="M1201.996,82.3l23.86,23.165c12.583-12.269,32.726-12.363,45.414-0.043c12.69,12.321,13.19,32.456,1.299,45.397
		l23.962,23.265l0.103,0.098c25.372-26.132,24.652-67.986-1.481-93.358C1269.021,55.451,1227.37,56.167,1201.996,82.3z"/>
	<path d="M1284.373,245.275c13.157-10.85,18.331-34.648,9.072-54.841l-27.407,28.228
		C1266.036,218.663,1280.362,239.464,1284.373,245.275z"/>
	<path d="M1243.06,287.829c13.164-10.854,18.337-34.654,9.072-54.84l-27.403,28.224
		C1224.726,261.215,1239.049,282.018,1243.06,287.829z"/>
	<path d="M1201.84,330.286c13.16-10.854,18.337-34.651,9.072-54.839l-27.402,28.225
		C1183.51,303.672,1197.833,324.475,1201.84,330.286z"/>
	<path d="M1119.614,414.978c13.159-10.851,18.335-34.65,9.075-54.838l-27.407,28.227
		C1101.284,388.365,1115.606,409.166,1119.614,414.978z"/>
	<path d="M1160.681,372.682c13.158-10.855,18.336-34.652,9.07-54.84l-27.402,28.225
		C1142.349,346.066,1156.67,366.867,1160.681,372.682z"/>
	<path d="M1078.27,457.566c13.156-10.854,18.338-34.653,9.076-54.841l-27.408,28.229
		C1059.936,430.953,1074.261,451.75,1078.27,457.566z"/>
	<path d="M1037.051,500.023c13.162-10.853,18.335-34.652,9.076-54.838l-27.404,28.225
		C1018.719,473.409,1033.04,494.211,1037.051,500.023z"/>
	<path d="M954.82,584.719c13.167-10.856,18.339-34.654,9.08-54.844l-27.404,28.227C936.494,558.101,950.816,578.903,954.82,584.719z
		"/>
	<path d="M995.889,542.42c13.16-10.856,18.337-34.65,9.072-54.842l-27.403,28.226C977.557,515.804,991.883,536.604,995.889,542.42z"
		/>
	<path d="M913.143,627.653C926.3,616.8,931.477,593,922.215,572.812l-27.404,28.225C894.81,601.037,909.132,621.838,913.143,627.653
		z"/>
	<path d="M871.829,670.202c13.161-10.852,18.338-34.653,9.073-54.84l-27.403,28.226
		C853.499,643.589,867.821,664.389,871.829,670.202z"/>
	<path d="M830.609,712.663c13.159-10.854,18.337-34.654,9.074-54.842l-27.405,28.227
		C812.277,686.049,826.597,706.848,830.609,712.663z"/>
	<path d="M748.383,797.353c13.161-10.852,18.339-34.649,9.076-54.84l-27.406,28.229
		C730.052,770.741,744.372,791.539,748.383,797.353z"/>
	<path d="M789.448,755.058c13.162-10.853,18.337-34.655,9.075-54.842l-27.404,28.225
		C771.118,728.441,785.44,749.241,789.448,755.058z"/>
	<path d="M707.04,839.941c13.163-10.852,18.336-34.653,9.074-54.843l-27.405,28.229C688.708,813.327,703.031,834.128,707.04,839.941
		z"/>
	<path d="M665.818,882.397c13.159-10.852,18.336-34.651,9.076-54.84l-27.405,28.225
		C647.486,855.784,661.811,876.585,665.818,882.397z"/>
	<path d="M624.659,924.792c13.163-10.851,18.339-34.652,9.075-54.84l-27.405,28.228C606.327,898.18,620.652,918.98,624.659,924.792z
		"/>
	<path d="M593.398,650.546c-13.161,10.854-18.335,34.651-9.072,54.838l27.402-28.225
		C611.729,677.159,597.405,656.357,593.398,650.546z"/>
	<path d="M675.624,565.854c-13.159,10.852-18.335,34.651-9.075,54.839l27.406-28.227
		C693.953,592.467,679.632,571.666,675.624,565.854z"/>
	<path d="M634.558,608.15c-13.159,10.855-18.335,34.652-9.071,54.841l27.404-28.225C652.89,634.766,638.568,613.965,634.558,608.15z
		"/>
	<path d="M716.967,523.266c-13.154,10.853-18.336,34.654-9.074,54.84l27.407-28.228C735.303,549.88,720.978,529.082,716.967,523.266
		z"/>
	<path d="M758.188,480.809c-13.162,10.852-18.334,34.653-9.075,54.838l27.404-28.225
		C776.519,507.423,762.199,486.621,758.188,480.809z"/>
	<path d="M840.418,396.112c-13.167,10.856-18.341,34.653-9.081,54.844l27.406-28.227
		C858.745,422.731,844.421,401.928,840.418,396.112z"/>
	<path d="M799.35,438.412c-13.16,10.856-18.337,34.65-9.074,54.842l27.405-28.227C817.682,465.028,803.355,444.228,799.35,438.412z"
		/>
	<path d="M882.095,353.18c-13.157,10.853-18.334,34.652-9.07,54.84l27.402-28.225C900.428,379.794,886.106,358.994,882.095,353.18z"
		/>
	<path d="M923.409,310.629c-13.162,10.853-18.338,34.654-9.074,54.84l27.404-28.226
		C941.739,337.243,927.418,316.443,923.409,310.629z"/>
	<path d="M964.63,268.169c-13.161,10.854-18.337,34.653-9.075,54.842l27.406-28.227C982.962,294.782,968.639,273.985,964.63,268.169
		z"/>
	<path d="M1046.855,183.479c-13.161,10.851-18.34,34.649-9.075,54.839l27.404-28.226
		C1065.186,210.092,1050.866,189.292,1046.855,183.479z"/>
	<path d="M1005.789,225.774c-13.162,10.853-18.335,34.655-9.074,54.842l27.403-28.225
		C1024.119,252.389,1009.797,231.59,1005.789,225.774z"/>
	<path d="M1088.199,140.892c-13.165,10.851-18.339,34.653-9.075,54.841l27.404-28.228
		C1106.53,167.505,1092.208,146.704,1088.199,140.892z"/>
	<path d="M1129.42,98.434c-13.16,10.853-18.336,34.652-9.075,54.841l27.403-28.225
		C1147.751,125.047,1133.428,104.247,1129.42,98.434z"/>
	<path d="M1170.577,56.038c-13.161,10.854-18.338,34.653-9.072,54.841l27.403-28.227
		C1188.912,82.652,1174.586,61.851,1170.577,56.038z"/>
	<path d="M1333.547,194.438c8.538-14.767,5.068-38.871-10.665-54.553c0,0-1.598,18.871-15.81,36.024
		C1326.576,189.664,1327.758,190.394,1333.547,194.438z"/>
	<path d="M1323.06,120.404c6.773-1.213,24.858-4.454,31.809-5.706c-4.448-16.465-23.986-31.005-46.2-30.909
		C1308.668,83.789,1321.342,99.354,1323.06,120.404z"/>
	<path d="M1294.982,69.989c3.896-5.671,14.306-20.814,18.301-26.637c-14.841-8.408-38.915-4.732-54.459,11.135
		C1258.824,54.488,1278.803,56.414,1294.982,69.989z"/>
	<path d="M1233.274,22.644c-16.402,4.678-30.666,24.415-30.263,46.625c0,0,15.388-12.89,36.411-14.9
		C1238.113,47.614,1234.621,29.574,1233.274,22.644z"/>
	<path display="none" fill="#FFFFFF" d="M1225.884,152.17c12.909,12.533,33.534,12.228,46.068-0.681
		c0.212-0.219,0.412-0.447,0.617-0.67c11.892-12.941,11.392-33.077-1.299-45.397c-12.688-12.32-32.831-12.226-45.414,0.043
		c-0.218,0.211-0.438,0.418-0.652,0.637C1212.67,119.012,1212.975,139.637,1225.884,152.17z"/>
	<path display="none" d="M494.188,897.23c-0.194-0.355-0.147-0.678,0.274-1.01c2.443,2.708,4.884,5.383,7.38,8.14
		c0.047-0.188,0.063-0.239,0.063-0.309c-0.149-2.024-0.338-7.884-1.15-8.64c-0.329-0.286-0.623-0.604-0.933-0.872
		c-0.934-0.84-1.849-1.659-2.782-2.498c-0.363-0.318-0.417-0.609-0.251-0.885c0.15-0.222,0.422-0.259,0.852-0.01
		c0.911,0.479,1.82,0.994,2.732,1.51c0.136,0.066,0.239,0.132,0.499,0.282c-0.041-0.375-0.027-0.63-0.081-0.886
		c-0.255-1.155-0.563-2.326-0.785-3.515c-0.15-0.851-0.417-1.614-1.189-2.097c-0.069-0.033-0.105-0.1-0.138-0.135
		c-0.504-0.589-0.286-1.988,0.688-1.816c0.257,0.048,0.463,0.217,0.603,0.417c0.105,0.171,0.192,0.322,0.246,0.508
		c0.162,0.457,0.305,0.934,0.414,1.443c0.403,1.866,0.823,3.755,1.209,5.64c0.513,2.446,1.009,4.877,1.539,7.305
		c0.274,1.241,0.412,1.306,1.6,1.018c2.242-0.545,4.483-1.089,6.708-1.65c0.17-0.038,0.321-0.091,0.544-0.144
		c-0.125-0.29-0.212-0.512-0.302-0.73c-3.083-6.753-6.164-13.509-9.229-20.279c-0.141-0.303-0.297-0.523-0.521-0.673
		c-0.516-0.301-5.524-0.157-6.955-0.171l-1.178-0.136c-0.676,1.525-1.624,4.232-2.302,5.76c-1.037,2.385-2.024,4.818-3.629,6.921
		c-0.72,0.948-1.438,1.897-2.311,2.728c-1.951,1.868-4.274,2.67-6.936,2.438c-0.784-0.058-1.587-0.201-2.307-0.496
		c-2.606-1.12-4.61-2.863-5.605-5.608c-0.124-0.323-0.265-0.628-0.355-0.949c-0.162-0.594-0.341-1.171-0.4-1.767
		c-0.176-1.514-0.299-3.012-0.408-4.527c-0.042-0.544-0.05-1.089,0.028-1.621c0.234-1.416,0.623-2.818,1.233-4.141l-2.593-2.519
		c-0.219,0.225-0.403,0.416-0.588,0.604c-2.415,2.627-4.917,5.169-7.315,7.814c-1.526,1.673-3.087,3.281-4.63,4.94
		c-2.802,2.956-5.621,5.961-8.44,8.935c-1.476,1.555-2.954,3.111-4.413,4.685c-2.852,3.04-5.738,6.082-8.59,9.122
		c-1.511,1.592-3.002,3.2-4.513,4.789c-2.854,3.009-5.69,5.999-8.543,9.006c-3.288,3.456-6.594,6.93-9.882,10.422
		c-0.37,0.382-0.688,0.812-1.04,1.208c0.036,0.067,0.053,0.083,0.072,0.169c0.154,0.015,0.29,0.049,0.443,0.063
		c0.802,0.072,1.622,0.128,2.423,0.201c0.495,0.044,1.009,0.206,1.503,0.184c1.771-0.095,3.528,0.031,5.238,0.415
		c1.094,0.256,1.859,0.125,2.512-0.65c0.954-1.156,1.926-2.261,2.916-3.384c2.229-2.503,4.442-4.988,6.671-7.495
		c2.647-3.002,5.296-6.009,7.946-8.979c1.34-1.52,2.698-3.056,4.039-4.573c2.331-2.644,4.66-5.284,6.99-7.929
		c1.592-1.811,3.202-3.608,4.811-5.438c2.129-2.399,4.24-4.816,6.369-7.216c0.102-0.104,0.202-0.208,0.302-0.311
		c0.21,0.405,0.404,0.76,0.614,1.2c-12.285,15.144-24.725,30.171-37.112,45.351c0.273,0.029,0.428,0.044,0.581,0.058
		c1.585-0.004,3.17-0.011,4.739-0.001c1.703,0.011,3.425,0.035,5.147,0.061c0.784,0.024,1.411-0.173,1.775-0.929
		c0.033-0.104,0.099-0.206,0.166-0.31c4.001-5.99,7.986-11.996,11.987-17.984c4.969-7.436,9.92-14.889,14.889-22.324
		c0.116-0.19,0.25-0.329,0.384-0.499c0.051,0.016,0.103,0.032,0.171,0.064c0.003,0.204,0.058,0.425,0.027,0.597
		c-0.032,0.205-0.165,0.377-0.248,0.566c-0.979,1.804-1.976,3.59-2.955,5.396c-2.222,4.054-4.428,8.125-6.653,12.18
		c-0.913,1.666-1.86,3.3-2.773,4.966c-0.846,1.53-1.658,3.057-2.47,4.586c-0.05,0.087-0.101,0.14-0.151,0.225
		c-0.316,0.533-0.648,1.082-0.965,1.614c-0.498,0.861-0.945,1.737-1.444,2.595c-0.367,0.655-0.782,1.258-1.165,1.895
		c-0.167,0.274-0.281,0.599-0.43,0.892c-0.398,0.756-0.864,1.478-1.194,2.267c-0.443,1.08-1.077,2.08-1.589,3.126
		c-0.116,0.222-0.231,0.479-0.447,0.909c0.305-0.073,0.493-0.125,0.645-0.146c3.253-0.236,6.538-0.472,9.807-0.688
		c0.29-0.023,0.596-0.028,0.904-0.033c0.664,0.008,1.12-0.254,1.333-0.888c0.114-0.325,0.263-0.618,0.395-0.925
		c4.644-11.01,9.253-22.019,13.895-33.028c0.084-0.188,0.181-0.395,0.282-0.601c0.621,0.467,0.725,0.603,0.564,1.285
		c-0.208,0.839-0.487,1.645-0.713,2.466c-2.285,7.991-4.535,15.983-6.82,23.978c-0.485,1.743-1.022,3.472-1.525,5.202
		c-0.13,0.444-0.293,0.889-0.251,1.433c3.71-0.361,7.335-0.703,11.061-1.047c0.66-5.039,0.977-10.139,1.514-15.225
		c0.522-5.068,0.993-10.153,1.495-15.274c0.291,0.047,0.53,0.079,0.769,0.108c0.021,0.221,0.041,0.408,0.061,0.596
		c0.154,4.718,0.292,9.453,0.448,14.171c0.152,4.549,0.305,9.132,0.475,13.694c0.004,0.239,0.041,0.479,0.045,0.717
		c2.803-0.673,5.536-1.31,8.253-1.965c0.713-0.18,0.73-0.196,0.617-0.911c0-0.033-0.018-0.083-0.018-0.118
		c-0.875-6.156-1.768-12.295-2.642-18.45c-0.304-2.11-0.608-4.253-0.896-6.379c-0.038-0.306-0.162-0.628,0.312-0.874
		c0.123,0.288,0.263,0.559,0.336,0.864c1.294,4.549,2.572,9.078,3.832,13.628c0.828,2.987,1.656,5.975,2.501,8.945
		c0.089,0.322,0.13,0.695,0.44,0.93c0.066-0.035,0.117-0.054,0.153-0.053c1.988-1.529,3.993-3.041,5.965-4.588
		c0.319-0.26,0.622-0.571,0.923-0.85c-0.193-0.489-0.37-0.897-0.564-1.32c-2.369-5.793-4.754-11.569-7.125-17.362
		c-0.266-0.66-0.531-1.286-0.762-1.947c-0.284-0.815-0.034-1.243,0.899-1.446c0.157,0.253,0.332,0.525,0.472,0.795
		c3.069,5.936,6.139,11.872,9.208,17.809c0.089,0.152,0.193,0.287,0.297,0.456c0.05-0.086,0.066-0.138,0.083-0.188
		c0.482-3.127,0.964-6.252,1.445-9.377c0.094-0.581-0.049-1.124-0.381-1.613c-0.452-0.676-0.923-1.333-1.359-2.026
		c-1.604-2.432-3.207-4.862-4.795-7.309C494.816,898.277,494.503,897.771,494.188,897.23z"/>
	<path display="none" d="M529.664,913.064c-0.974-0.206-1.949-0.413-2.941-0.569c-0.665-0.108-1.113-0.477-1.377-1.069
		c-0.107-0.238-0.196-0.49-0.267-0.763c-0.701-2.395-1.383-4.77-2.083-7.161c-0.036-0.17-0.124-0.322-0.213-0.575
		c-1.819,0.247-3.623,0.478-5.477,0.727c0.143,0.408,0.25,0.713,0.374,1.035c0.977,2.628,1.968,5.237,2.894,7.883
		c0.605,1.761,0.72,1.436-0.759,2.889c-1.277,1.246-2.553,2.493-3.847,3.724c-0.134,0.137-0.251,0.292-0.386,0.465
		c2.05,1.453,4.065,2.87,6.062,4.272c0.049-0.222-0.005-0.375-0.059-0.527c-0.305-1.035-0.592-2.087-0.898-3.122
		c-0.089-0.289-0.111-0.578,0.124-0.819c0.521-0.538,1.023-1.056,1.596-1.644c0.088,0.221,0.141,0.373,0.178,0.51
		c0.859,2.781,1.752,5.563,2.611,8.344c0.09,0.322,0.215,0.645,0.338,0.967c0.302,0.798,0.921,1.197,1.738,1.151
		c0.563-0.026,1.105-0.17,1.649-0.313c1.577-0.452,2.53-1.708,3.724-2.868c-0.392-0.012-0.683-0.06-0.955-0.054
		c-0.632,0.026-1.262,0.087-1.91,0.063c-1.175-0.034-1.624-0.402-1.913-1.521c-0.363-1.46-0.743-2.939-1.105-4.398
		c-0.183-0.781-0.381-1.58-0.581-2.379c0.392-0.055,0.731-0.094,1.088-0.186c0.425-0.091,0.733,0.006,0.944,0.446
		c0.631,1.252,1.263,2.505,1.896,3.756c0.07,0.135,0.139,0.236,0.296,0.489c0.064-0.374,0.128-0.616,0.159-0.854
		c0.294-1.93,0.574-3.842,0.852-5.755c0.016-0.153,0.064-0.306,0.062-0.479c0.04-0.664-0.116-0.952-0.717-1.233
		C530.451,913.294,530.056,913.144,529.664,913.064z"/>
	<path display="none" d="M500.07,865.123c2.296,0.818,4.575,1.652,6.87,2.471c0.12,0.049,0.291,0.082,0.48,0.128
		c0.012-0.255,0.009-0.424,0.007-0.595c-0.111-1.788-0.207-3.559-0.318-5.347c-0.07-1.277-0.123-2.537-0.174-3.798
		c-0.028-0.63-0.273-1.137-0.807-1.488c-1.378-0.934-2.899-1.304-4.568-1.176c-0.306,0.039-0.612,0.146-0.9,0.2
		c-0.075,0.597-0.12,1.093-0.199,1.588c-0.391,2.341-0.782,4.681-1.173,7.021c-0.094,0.581-0.076,0.632,0.473,0.862
		C499.864,865.022,499.984,865.072,500.07,865.123z"/>
	<path display="none" d="M489.244,874.058c-0.124-0.287-0.246-0.576-0.354-0.88c-0.924-2.611-1.405-5.194,0.056-7.772
		c0.448-0.773,0.273-1.11-0.588-1.645c-0.724,0.643-1.463,1.267-2.187,1.908c-1.866,1.681-3.682,3.376-5.549,5.056
		c-0.941,0.867-1.883,1.734-2.859,2.602c-0.252,0.225-0.299,0.446-0.176,0.769c0.355,0.948,0.693,1.915,1.048,2.864
		c0.036,0.102,0.121,0.185,0.175,0.304c3.461-1.005,6.907-1.993,10.384-3.016C489.263,874.144,489.279,874.093,489.244,874.058z
		 M483.026,874.167c-0.437,0.449-1.288,0.497-1.72,0.11c-0.432-0.385-0.495-1.22-0.108-1.583c0.452-0.467,1.423-0.531,1.786-0.146
		C483.348,872.935,483.378,873.803,483.026,874.167z"/>
	<path display="none" d="M489.946,867.351c-0.635,2.038-0.284,4.964,0.798,6.788c1.111,0.204,9.915,0.859,10.406,0.767
		c-0.217-0.918-3.439-7.942-3.874-8.497c-0.034,0-0.085-0.017-0.12-0.017c-2.058,0.252-4.133,0.487-6.192,0.74
		C490.592,867.204,490.251,867.313,489.946,867.351z"/>
	<path display="none" d="M497.544,855.65c0.355-0.227,0.744-0.421,1.081-0.697c0.894-0.713,1.928-0.983,3.035-0.982
		c0.852-0.013,1.706,0.077,2.559,0.167c0.751,0.092,1.421,0.403,2.008,0.872c0.671,0.52,1.395,0.985,2.101,1.47
		c0.834-1.103,0.961-1.82,0.466-2.973c-0.369-0.864-0.62-1.746-0.719-2.682c-0.119-1.089-0.032-2.113,0.482-3.091
		c0.147-0.292,0.367-0.518,0.48-0.809c0.067-0.138,0.046-0.394-0.023-0.46c-0.554-0.538-1.139-1.005-1.709-1.49
		c-1.601,1.198-10.719,9.24-11.018,9.757c0.174,0.235,0.349,0.505,0.54,0.759C497.035,855.761,497.257,855.808,497.544,855.65z"/>
	<path display="none" d="M509.537,851.878c0.003,0.137,0.022,0.287,0.059,0.526c1.247-1.006,2.426-1.944,3.588-2.863
		c0.455-0.366,0.455-0.366,0.919-0.05c0.825,0.535,1.685,1.031,2.798,1.408c-0.402-1.868-0.599-3.639-1.288-5.281
		c-0.07-0.135-0.141-0.271-0.245-0.404c-0.469-0.59-0.861-0.67-1.52-0.303c-0.778,0.455-1.572,0.894-2.333,1.364
		c-0.439,0.279-0.861,0.575-1.299,0.854c-0.287,0.19-0.401,0.448-0.431,0.789C509.736,849.216,509.619,850.548,509.537,851.878z"/>
	<path display="none" d="M479.542,884.052c0.103-0.001,0.222,0.014,0.341-0.006c1.533,0.048,3.068,0.092,4.585,0.121
		c0.104-0.002,0.222-0.022,0.375-0.04c-0.363-0.352-0.641-0.689-0.985-0.957c-0.947-0.719-1.063-1.571-0.669-2.632
		c0.391-1.063,0.735-2.141,1.093-3.201c0.066-0.205,0.131-0.413,0.211-0.738c-1.375,0.447-2.628,0.875-3.901,1.253
		c-0.272,0.072-0.318,0.293-0.384,0.497c-0.523,1.474-1.048,2.914-1.571,4.387C478.344,883.729,478.536,884.016,479.542,884.052z"/>
	<path display="none" d="M544.152,893.645c-0.274-0.096-0.548-0.228-0.822-0.327c-2.878-1.015-5.757-1.994-8.634-3.007
		c-0.086-0.017-0.156-0.085-0.292-0.149c-0.02-0.153-0.021-0.324-0.025-0.494c0.121-2.233,0.259-4.453,0.397-6.702
		c0.082-1.33-0.005-1.485-1.207-1.979c-8.865-3.702-17.747-7.423-26.596-11.145c-2.177-0.903-4.321-1.809-6.497-2.715
		c-0.018-0.016-0.053-0.015-0.071-0.033l-0.047,0.155c0.968,2.149,1.938,4.265,2.906,6.415c3.965,8.752,7.944,17.521,11.924,26.256
		c0.546,1.2,0.685,1.27,2.012,1.146c2.229-0.222,4.459-0.405,6.687-0.593c0.172-0.002,0.341-0.006,0.496,0.01
		c0.07,0.136,0.104,0.203,0.158,0.287c1.098,2.846,2.163,5.694,3.262,8.542c0.106,0.271,0.228,0.523,0.353,0.812
		c0.105,0.272,0.331,0.421,0.604,0.485c0.41,0.096,2.045,0.073,2.556-0.071c-0.089-0.222-0.161-0.424-0.231-0.627
		c-1.006-2.388-1.998-4.795-3.004-7.182c-0.142-0.373-0.353-0.745-0.221-1.156c0.696-0.231,0.833-0.164,1.185,0.579
		c1.194,2.403,2.388,4.805,3.566,7.226c0.264,0.523,0.627,0.876,1.224,0.918c0.784,0.058,1.569,0.113,2.336,0.187
		c0.25-0.394,0.024-0.682-0.116-0.986c-1.194-2.368-2.405-4.753-3.6-7.122c-0.263-0.488-0.458-1.014-0.704-1.523
		c0.664-0.025,0.7-0.026,0.943,0.414c0.523,0.843,1.048,1.687,1.52,2.55c1.086,1.927,2.171,3.854,3.256,5.781
		c0.333,0.591,0.813,0.924,1.497,0.981c1.365,0.15,4.549-0.016,5.928-0.088l0.088,0.086c-0.001-0.034-0.001-0.069,0.016-0.087
		c0.034,0,0.066,0,0.084-0.016l-0.087-0.087c0.014-1.362,0.104-4.568-0.087-5.928c-0.096-0.698-0.426-1.152-1.027-1.467
		c-1.958-1.028-3.933-2.038-5.875-3.083c-0.875-0.481-1.752-0.964-2.595-1.445c-0.428-0.249-0.445-0.266-0.44-0.931
		c0.532,0.214,1.046,0.409,1.544,0.658c2.402,1.124,4.822,2.265,7.226,3.388c0.292,0.148,0.584,0.366,0.989,0.086
		c-0.096-0.764-0.175-1.546-0.256-2.329c-0.06-0.598-0.422-0.949-0.955-1.196c-2.454-1.105-4.891-2.229-7.327-3.352
		c-0.738-0.348-0.808-0.482-0.613-1.166c0.422-0.161,0.783,0.022,1.161,0.186c2.433,0.92,4.85,1.855,7.268,2.792
		c0.221,0.08,0.428,0.146,0.634,0.212c0.111-0.53,0.104-2.149-0.005-2.556C544.582,893.963,544.46,893.744,544.152,893.645z"/>
	<path display="none" d="M553.504,886.504c1.044,0.274,2.104,0.532,3.148,0.806c0.153,0.05,0.291,0.081,0.529,0.043
		c-1.46-1.954-2.938-3.928-4.451-5.932c-0.167,0.139-0.319,0.26-0.454,0.399c-1.207,1.311-2.416,2.624-3.605,3.953
		c-1.408,1.522-1.087,1.397-2.867,0.845c-2.671-0.846-5.309-1.762-7.964-2.66c-0.326-0.115-0.633-0.213-1.046-0.343
		c-0.193,1.859-0.37,3.671-0.566,5.495c0.241,0.064,0.396,0.148,0.583,0.197c2.414,0.628,4.808,1.24,7.221,1.869
		c0.273,0.064,0.53,0.146,0.77,0.246c0.601,0.246,0.983,0.684,1.112,1.346c0.201,0.969,0.42,1.952,0.656,2.921
		c0.091,0.391,0.25,0.78,0.426,1.153c0.281,0.575,0.59,0.741,1.254,0.68c0.153-0.02,0.323-0.056,0.476-0.075
		c1.905-0.334,3.824-0.688,5.729-1.022c0.238-0.037,0.477-0.109,0.85-0.183c-0.24-0.131-0.362-0.216-0.499-0.282
		c-1.271-0.594-2.523-1.205-3.81-1.785c-0.412-0.197-0.535-0.485-0.474-0.93c0.063-0.343,0.091-0.717,0.155-1.093
		c0.803,0.177,1.588,0.336,2.394,0.512c1.47,0.317,2.958,0.653,4.427,0.974c1.128,0.255,1.527,0.676,1.579,1.868
		c0.025,0.629-0.016,1.259-0.006,1.909c0.002,0.271,0.042,0.576,0.082,0.952c1.124-1.226,2.353-2.218,2.756-3.807
		c0.128-0.547,0.256-1.096,0.264-1.658c0.022-0.818-0.395-1.426-1.201-1.703c-0.325-0.114-0.633-0.213-0.976-0.31
		c-2.808-0.774-5.613-1.586-8.419-2.362c-0.154-0.05-0.292-0.082-0.514-0.164c0.603-0.657,1.106-1.175,1.626-1.711
		C552.923,886.409,553.213,886.423,553.504,886.504z"/>
	<path display="none" d="M565.594,775.043c0.003,0.017,0.006,0.034,0.009,0.054C565.625,775.103,565.628,775.099,565.594,775.043z"
		/>
	<path display="none" d="M564.384,776.152c-3.376,3.407-6.734,6.795-10.126,10.188c-2.922,2.939-5.827,5.862-8.766,8.786
		c-1.546,1.556-3.107,3.097-4.653,4.653c-2.955,2.939-5.91,5.915-8.867,8.855c-1.51,1.521-3.021,3.044-4.55,4.549
		c-2.904,2.923-5.793,5.83-8.715,8.734c-1.596,1.608-3.175,3.201-4.805,4.775c-2.57,2.474-5.054,5.033-7.591,7.542
		c-0.185,0.19-0.369,0.38-0.587,0.604l2.542,2.469c1.303-0.649,2.693-1.078,4.104-1.355c0.526-0.093,1.071-0.101,1.617-0.074
		c1.519,0.063,3.037,0.159,4.538,0.272c0.597,0.043,1.196,0.222,1.777,0.351c0.325,0.08,0.634,0.212,0.958,0.326
		c2.774,0.913,4.61,2.863,5.773,5.435c0.316,0.712,0.482,1.511,0.562,2.294c0.312,2.653-0.421,5-2.231,7.003
		c-0.805,0.897-1.731,1.645-2.656,2.391c-2.072,1.65-4.459,2.725-6.812,3.832c-1.523,0.704-4.185,1.749-5.69,2.47l0.17,1.175
		c0.056,1.431,0.044,6.457,0.375,6.946c0.14,0.204,0.381,0.37,0.69,0.501c6.858,2.864,13.701,5.744,20.543,8.626
		c0.224,0.083,0.463,0.182,0.736,0.28c0.066-0.205,0.098-0.376,0.129-0.548c0.479-2.256,0.974-4.495,1.451-6.753
		c0.256-1.196,0.184-1.332-1.062-1.568c-2.444-0.46-4.888-0.883-7.348-1.325c-1.879-0.346-3.776-0.676-5.673-1.039
		c-0.478-0.095-0.958-0.225-1.454-0.371c-0.171-0.065-0.343-0.131-0.514-0.231c-0.208-0.132-0.38-0.333-0.435-0.59
		c-0.202-0.969,1.191-1.226,1.795-0.742c0.052,0.049,0.121,0.085,0.138,0.135c0.505,0.761,1.275,1.004,2.13,1.127
		c1.196,0.188,2.342,0.46,3.538,0.681c0.257,0.048,0.512,0.027,0.887,0.056c-0.14-0.236-0.21-0.373-0.296-0.491
		c-0.542-0.894-1.066-1.772-1.59-2.685c-0.245-0.406-0.232-0.694-0.013-0.852c0.27-0.175,0.56-0.129,0.889,0.225
		c0.865,0.908,1.714,1.797,2.58,2.704c0.295,0.321,0.623,0.605,0.9,0.907c0.762,0.773,6.623,0.791,8.67,0.896
		c0.085,0.018,0.119-0.019,0.305-0.073c-2.813-2.395-5.575-4.773-8.353-7.136c0.3-0.413,0.64-0.487,1-0.305
		c0.533,0.281,1.065,0.599,1.565,0.913c2.477,1.532,4.97,3.047,7.446,4.577c0.688,0.434,1.377,0.866,2.064,1.3
		c0.5,0.317,1.029,0.428,1.624,0.333c3.11-0.572,6.22-1.147,9.331-1.724c0.035,0.002,0.068-0.032,0.186-0.085
		c-0.172-0.102-0.309-0.201-0.463-0.284c-6.025-2.893-12.048-5.786-18.073-8.681c-0.275-0.131-0.55-0.298-0.808-0.447
		c0.189-0.923,0.596-1.201,1.417-0.941c0.668,0.212,1.337,0.458,1.971,0.703c5.861,2.197,11.704,4.411,17.565,6.611
		c0.411,0.163,0.839,0.309,1.337,0.521c0.268-0.31,0.587-0.604,0.821-0.948c1.468-2.032,2.937-4.064,4.408-6.098
		c0.033-0.034,0.032-0.068,0.049-0.154c-0.244-0.302-0.619-0.331-0.944-0.411c-2.993-0.757-6.004-1.495-9.014-2.237
		c-4.568-1.142-9.169-2.283-13.735-3.425c-0.292-0.081-0.566-0.214-0.874-0.312c0.231-0.481,0.556-0.367,0.864-0.336
		c2.134,0.224,4.267,0.447,6.401,0.706c6.179,0.692,12.342,1.401,18.521,2.095c0.034,0,0.085,0.017,0.121,0.015
		c0.698,0.074,0.733,0.074,0.894-0.644c0.572-2.733,1.128-5.486,1.717-8.308c-0.255-0.014-0.479-0.027-0.715-0.022
		c-4.568-0.035-9.119-0.054-13.704-0.071c-4.72-0.016-9.441-0.03-14.178-0.029c-0.171,0.004-0.358-0.011-0.598-0.044
		c-0.038-0.236-0.076-0.473-0.13-0.764c5.104-0.654,10.171-1.273,15.224-1.945c5.051-0.672,10.14-1.139,15.172-1.963
		c0.234-3.734,0.487-7.386,0.722-11.088c-0.563-0.043-0.987,0.151-1.426,0.295c-1.714,0.553-3.444,1.123-5.156,1.678
		c-7.921,2.519-15.844,5.007-23.765,7.525c-0.814,0.251-1.628,0.569-2.443,0.785c-0.679,0.181-0.832,0.099-1.303-0.524
		c0.203-0.106,0.406-0.211,0.592-0.3c10.869-4.967,21.736-9.898,32.603-14.864c0.306-0.14,0.609-0.315,0.915-0.423
		c0.626-0.231,0.875-0.693,0.848-1.359c-0.002-0.306-0.009-0.611,0.004-0.901c0.123-3.275,0.263-6.532,0.401-9.822
		c-0.002-0.172,0.063-0.343,0.127-0.65c-0.423,0.228-0.643,0.351-0.896,0.474c-1.033,0.543-1.993,1.188-3.077,1.682
		c-0.778,0.352-1.487,0.84-2.23,1.259c-0.288,0.157-0.61,0.28-0.88,0.456c-0.625,0.402-1.232,0.82-1.857,1.221
		c-0.844,0.524-1.707,0.998-2.55,1.52c-0.542,0.316-1.064,0.682-1.587,1.014c-0.085,0.052-0.136,0.104-0.22,0.156
		c-1.503,0.857-3.024,1.732-4.511,2.606c-1.64,0.962-3.244,1.956-4.882,2.917c-3.988,2.343-7.992,4.669-11.979,7.012
		c-1.773,1.032-3.531,2.079-5.305,3.11c-0.169,0.104-0.355,0.228-0.558,0.264c-0.205,0.039-0.41,0.006-0.598-0.008
		c-0.017-0.051-0.035-0.101-0.071-0.168c0.169-0.14,0.304-0.278,0.489-0.4c7.285-5.185,14.588-10.354,21.874-15.54
		c5.868-4.178,11.755-8.337,17.624-12.515c0.102-0.068,0.185-0.121,0.305-0.175c0.745-0.352,0.905-1.001,0.876-1.803
		c-0.078-1.718-0.153-3.439-0.212-5.144c-0.057-1.567-0.081-3.168-0.139-4.733c-0.001-0.138-0.039-0.308-0.076-0.58
		c-14.807,12.83-29.461,25.708-44.252,38.419c-0.429-0.216-0.772-0.382-1.219-0.579c0.102-0.104,0.203-0.206,0.302-0.311
		c2.338-2.2,4.691-4.382,7.027-6.581c1.765-1.645,3.513-3.305,5.295-4.969c2.571-2.406,5.144-4.813,7.714-7.219
		c1.479-1.387,2.976-2.789,4.455-4.174c2.925-2.736,5.85-5.472,8.741-8.207c2.436-2.303,4.857-4.589,7.293-6.89
		c1.092-1.021,2.186-2.044,3.297-3.015c0.757-0.642,0.864-1.411,0.576-2.531c-0.451-1.715-0.614-3.45-0.573-5.222
		c0.028-0.514-0.168-1.004-0.227-1.497c-0.096-0.8-0.193-1.599-0.273-2.415c-0.018-0.135-0.046-0.258-0.066-0.39
		c-0.01-0.005-0.019-0.008-0.043-0.02C565.173,775.44,564.752,775.772,564.384,776.152z"/>
</g>
</svg>
