<?xml version="1.0" encoding="utf-8"?>
<!-- Generator: Adobe Illustrator 16.0.3, SVG Export Plug-In . SVG Version: 6.00 Build 0)  -->
<!DOCTYPE svg PUBLIC "-//W3C//DTD SVG 1.1//EN" "http://www.w3.org/Graphics/SVG/1.1/DTD/svg11.dtd">
<svg version="1.1" id="Ebene_1" xmlns="http://www.w3.org/2000/svg" xmlns:xlink="http://www.w3.org/1999/xlink" x="0px" y="0px"
	 width="1417.32px" height="1417.32px" viewBox="0 0 1417.32 1417.32" enable-background="new 0 0 1417.32 1417.32"
	 xml:space="preserve">
<g>
	<path fill-rule="evenodd" clip-rule="evenodd" d="M1341.334,1410.875c-421.328,0-842.658,0-1263.987,0
		c-37.119-9.697-60.583-33.046-70.221-70.222c0-421.328,0-842.658,0-1263.987c9.635-37.178,33.155-60.473,70.221-70.221
		c421.329,0,842.659,0,1263.987,0c37.103,9.713,60.588,33.04,70.222,70.221c0,421.329,0,842.659,0,1263.987
		C1401.916,1377.83,1378.473,1401.198,1341.334,1410.875z M1355.378,709.308c0-183.939,0-367.875,0-551.814
		c-0.003-61.165-33.492-94.867-94.28-94.867c-367.876-0.006-735.751-0.006-1103.626,0c-60.226,0-94.166,33.725-94.166,93.583
		c-0.005,367.875-0.003,735.754-0.001,1103.63c0,61.16,33.484,94.855,94.285,94.855c367.877,0.006,735.753,0.006,1103.632,0
		c60.242,0,94.146-33.687,94.15-93.571C1355.387,1077.187,1355.378,893.248,1355.378,709.308z"/>
	<path display="none" fill-rule="evenodd" clip-rule="evenodd" fill="#FFFFFF" d="M77.347,6.446
		C40.281,16.194,16.761,39.489,7.126,76.667c0-23.406,0-46.815,0-70.221C30.534,6.446,53.94,6.446,77.347,6.446z"/>
	<path display="none" fill-rule="evenodd" clip-rule="evenodd" fill="#FFFFFF" d="M1411.556,76.667
		c-9.634-37.181-33.119-60.508-70.222-70.221c23.408,0,46.813,0,70.222,0C1411.556,29.852,1411.556,53.261,1411.556,76.667z"/>
	<path display="none" fill-rule="evenodd" clip-rule="evenodd" fill="#FFFFFF" d="M7.126,1340.654
		c9.638,37.176,33.103,60.524,70.221,70.222c-23.407,0-46.813,0-70.221,0C7.126,1387.469,7.126,1364.061,7.126,1340.654z"/>
	<path display="none" fill-rule="evenodd" clip-rule="evenodd" fill="#FFFFFF" d="M1341.334,1410.875
		c37.139-9.678,60.582-33.046,70.222-70.222c0,23.407,0,46.815,0,70.222C1388.146,1410.875,1364.742,1410.875,1341.334,1410.875z"/>
	<path fill-rule="evenodd" clip-rule="evenodd" fill="#FFFFFF" d="M1355.378,709.308c0,183.939,0.009,367.879-0.006,551.815
		c-0.004,59.885-33.908,93.571-94.15,93.571c-367.879,0.006-735.755,0.006-1103.632,0c-60.801,0-94.285-33.695-94.285-94.855
		c-0.002-367.876-0.003-735.754,0.001-1103.63c0-59.858,33.94-93.583,94.166-93.583c367.875-0.006,735.75-0.006,1103.626,0
		c60.788,0,94.277,33.703,94.28,94.867C1355.378,341.433,1355.378,525.369,1355.378,709.308z M1247.462,672.93
		c-79.97,0-159.219,0-238.923,0c0,34.612,0,68.45,0,103.237c17.774,0,34.567,0,51.363,0c16.717,0,33.435,0,50.842,0
		c0,16.732,0,31.976,0,47.729c-28.335,18.151-58.492,31.271-92.527,33.275c-66.908,3.942-108.048-28.061-121.396-94.14
		c-1.662-8.234-3.148-16.585-3.695-24.948c-2.762-42.243-3.532-84.519,15.455-123.829c19.066-39.47,52.317-57.039,95.317-57.109
		c40.917-0.066,71.203,16.702,86.543,56.262c0.284,0.738,1.326,1.185,2.665,2.315c48.508-8.728,97.521-17.55,147.855-26.609
		c-19.021-65.377-55.548-112.6-122.087-130.283c-55.382-14.722-112.086-13.498-168.724-8.46
		c-96.103,8.554-171.47,67.764-199.961,159.645c-21.394,68.987-20.464,138.589,4.172,206.709
		c29.181,80.689,86.984,129.131,171.497,144.105c60.55,10.729,121.214,8.978,181.097-5.338
		c52.159-12.468,97.364-39.497,140.506-68.722C1247.462,814.714,1247.462,744.21,1247.462,672.93z M354.081,875.091
		c59.385,0,117.267,0,176.015,0c8.425,27.91,16.757,55.511,24.98,82.754c54.471,0,107.951,0,162.698,0
		c-62.986-168.128-125.519-335.049-187.906-501.587c-57.695,0-113.8,0-170.854,0C296.381,623.179,233.762,790.063,170.709,958.1
		c54.013,0,106.227,0,158.729,0C337.664,930.396,345.757,903.133,354.081,875.091z"/>
	<path fill-rule="evenodd" clip-rule="evenodd" d="M1247.462,672.93c0,71.281,0,141.785,0,213.838
		c-43.142,29.225-88.347,56.254-140.506,68.722c-59.883,14.315-120.547,16.067-181.097,5.338
		c-84.513-14.975-142.316-63.416-171.497-144.105c-24.636-68.12-25.565-137.722-4.172-206.709
		c28.491-91.881,103.858-151.091,199.961-159.645c56.638-5.038,113.342-6.262,168.724,8.46
		c66.539,17.684,103.065,64.906,122.087,130.283c-50.335,9.06-99.348,17.881-147.855,26.609c-1.339-1.13-2.381-1.577-2.665-2.315
		c-15.34-39.56-45.626-56.328-86.543-56.262c-43,0.07-76.251,17.64-95.317,57.109c-18.987,39.31-18.217,81.585-15.455,123.829
		c0.547,8.363,2.033,16.714,3.695,24.948c13.348,66.079,54.487,98.082,121.396,94.14c34.035-2.005,64.192-15.124,92.527-33.275
		c0-15.753,0-30.996,0-47.729c-17.407,0-34.125,0-50.842,0c-16.796,0-33.589,0-51.363,0c0-34.787,0-68.625,0-103.237
		C1088.243,672.93,1167.492,672.93,1247.462,672.93z"/>
	<path fill-rule="evenodd" clip-rule="evenodd" d="M354.081,875.091c-8.324,28.042-16.417,55.305-24.642,83.009
		c-52.503,0-104.716,0-158.729,0c63.053-168.037,125.672-334.921,188.305-501.842c57.054,0,113.159,0,170.854,0
		c62.387,166.538,124.92,333.459,187.906,501.587c-54.747,0-108.227,0-162.698,0c-8.223-27.243-16.555-54.844-24.98-82.754
		C471.348,875.091,413.466,875.091,354.081,875.091z M444.271,591.492c-1.169,0.008-2.338,0.02-3.509,0.03
		c-17.367,57.315-34.735,114.634-52.345,172.748c36.99,0,72.367,0,109.335,0C479.726,706.033,462,648.764,444.271,591.492z"/>
	<path fill-rule="evenodd" clip-rule="evenodd" fill="#FFFFFF" d="M444.271,591.492C462,648.764,479.726,706.033,497.752,764.27
		c-36.968,0-72.345,0-109.335,0c17.61-58.114,34.978-115.432,52.345-172.748C441.933,591.512,443.103,591.5,444.271,591.492z"/>
</g>
</svg>
