<?xml version="1.0" encoding="utf-8"?>
<!-- Generator: Adobe Illustrator 16.0.3, SVG Export Plug-In . SVG Version: 6.00 Build 0)  -->
<!DOCTYPE svg PUBLIC "-//W3C//DTD SVG 1.1//EN" "http://www.w3.org/Graphics/SVG/1.1/DTD/svg11.dtd">
<svg version="1.1" id="Ebene_1" xmlns="http://www.w3.org/2000/svg" xmlns:xlink="http://www.w3.org/1999/xlink" x="0px" y="0px"
	 width="1417.32px" height="1417.32px" viewBox="0 0 1417.32 1417.32" enable-background="new 0 0 1417.32 1417.32"
	 xml:space="preserve">
<g>
	<path fill-rule="evenodd" clip-rule="evenodd" d="M4,1341.871C4,919.169,4,496.47,4,73.77C13.667,36.47,37.263,13.1,74.45,3.32
		c422.701,0,845.4,0,1268.101,0c37.222,9.745,60.784,33.147,70.449,70.45c0,422.701,0,845.4,0,1268.101
		c-9.671,37.297-33.191,60.74-70.449,70.449c-422.701,0-845.4,0-1268.101,0C37.21,1402.591,13.669,1379.167,4,1341.871z
		 M1356.64,708.47c0-184.539,0-369.073,0-553.611c-0.003-61.363-33.601-95.176-94.587-95.176
		c-369.072-0.006-738.145-0.006-1107.218,0c-60.422,0-94.472,33.835-94.472,93.888c-0.006,369.073-0.004,738.148-0.001,1107.221
		c0,61.359,33.593,95.164,94.591,95.164c369.074,0.006,738.148,0.006,1107.224,0c60.438,0,94.453-33.796,94.457-93.877
		C1356.648,1077.544,1356.64,893.007,1356.64,708.47z"/>
	<path display="none" fill-rule="evenodd" clip-rule="evenodd" fill="#FFFFFF" d="M74.45,3.32C37.263,13.1,13.667,36.47,4,73.77
		C4,50.288,4,26.802,4,3.32C27.484,3.32,50.966,3.32,74.45,3.32z"/>
	<path display="none" fill-rule="evenodd" clip-rule="evenodd" fill="#FFFFFF" d="M1413,73.77
		c-9.665-37.302-33.228-60.705-70.449-70.45c23.484,0,46.964,0,70.449,0C1413,26.802,1413,50.288,1413,73.77z"/>
	<path display="none" fill-rule="evenodd" clip-rule="evenodd" fill="#FFFFFF" d="M4,1341.871
		c9.669,37.297,33.21,60.721,70.45,70.449c-23.484,0-46.966,0-70.45,0C4,1388.837,4,1365.353,4,1341.871z"/>
	<path display="none" fill-rule="evenodd" clip-rule="evenodd" fill="#FFFFFF" d="M1342.551,1412.32
		c37.258-9.709,60.778-33.152,70.449-70.449c0,23.482,0,46.967,0,70.449C1389.515,1412.32,1366.035,1412.32,1342.551,1412.32z"/>
	<path fill-rule="evenodd" clip-rule="evenodd" fill="#FFFFFF" d="M1356.64,708.47c0,184.538,0.009,369.075-0.006,553.61
		c-0.004,60.081-34.02,93.877-94.457,93.877c-369.075,0.006-738.15,0.006-1107.224,0c-60.999,0-94.591-33.805-94.591-95.164
		c-0.003-369.073-0.004-738.148,0.001-1107.221c0-60.053,34.05-93.888,94.472-93.888c369.073-0.006,738.146-0.006,1107.218,0
		c60.986,0,94.584,33.813,94.587,95.176C1356.64,339.396,1356.64,523.931,1356.64,708.47z M572.452,692.959
		c18.295-13.955,39.788-25.304,54.501-42.462c58.537-68.272,29.73-176.837-55.987-209.471c-25.24-9.606-53.834-13.933-80.987-14.354
		c-104.189-1.61-208.417-0.653-312.63-0.653c-5.043,0-10.087,0-15.739,0c0,188.446,0,375.422,0,563.695c5.95,0,11.011,0,16.073,0
		c77.457,0,154.93,0.998,232.361-0.378c45.865-0.814,91.844-3.721,137.455-8.636c74.935-8.076,125.015-57.097,134.096-131.279
		c7.849-64.101-15.991-124.209-90.294-150.215C584.313,696.762,577.246,694.544,572.452,692.959z M744.348,802.699
		c1.346,10.086,2.011,18.867,3.736,27.438c14.187,70.384,56.313,139.092,148.751,156.963c22.514,4.352,45.337,7.995,68.184,9.593
		c54.59,3.826,108.881,1.91,161.44-15.763c93.15-31.322,146.488-121.43,125.974-212.99
		c-13.444-59.995-54.778-95.286-109.154-115.479c-41.149-15.285-84.254-25.327-126.521-37.589
		c-22.896-6.641-46.78-10.879-68.558-20.122c-25.631-10.882-28.295-40.44-6.964-58.499c5.892-4.989,13.437-8.963,20.884-11.033
		c55.03-15.278,96.771,9.462,110.458,64.836c0.325,1.304,1.103,2.499,2.272,5.066c53.851-3.176,107.999-6.365,161.774-9.536
		c0.603-1.91,1.225-2.843,1.113-3.68c-11.47-87.036-55.638-130.038-120.93-149.926c-51.518-15.692-104.41-16.641-157.633-12.596
		c-44.513,3.385-87.639,11.88-125.055,37.842c-51.026,35.403-74.586,84.111-66.982,146.483
		c5.725,46.946,32.432,79.926,71.518,104.002c35.936,22.134,75.8,34.259,116.138,45.382c33.794,9.321,67.775,18.479,100.579,30.657
		c19.396,7.199,31.005,23.985,31.275,46.164c0.27,22.191-11.844,37.102-29.969,47.465c-52.378,29.952-122.134,2.389-139.659-55.012
		c-2.957-9.691-4.961-19.674-7.542-30.07C854.502,795.761,800.295,799.176,744.348,802.699z"/>
	<path fill-rule="evenodd" clip-rule="evenodd" d="M572.452,692.959c4.794,1.585,11.861,3.803,18.849,6.248
		c74.303,26.006,98.143,86.114,90.294,150.215c-9.081,74.183-59.161,123.203-134.096,131.279
		c-45.611,4.915-91.589,7.821-137.455,8.636c-77.432,1.376-154.904,0.378-232.361,0.378c-5.062,0-10.123,0-16.073,0
		c0-188.272,0-375.249,0-563.695c5.651,0,10.695,0,15.739,0c104.214,0,208.441-0.957,312.63,0.653
		c27.153,0.421,55.747,4.747,80.987,14.354c85.718,32.633,114.524,141.198,55.987,209.471
		C612.239,667.655,590.747,679.004,572.452,692.959z M337.653,869.847c41.372-1.52,82.144-1.173,122.501-5.097
		c30.559-2.973,48.253-26.202,47.83-54.833c-0.409-27.597-18.512-48.394-49.906-50.975c-36.833-3.03-73.981-2.281-110.994-3.061
		c-3.096-0.065-6.207,0.7-10.225,1.192c0,34.485-0.012,68.193,0.026,101.905C336.889,861.676,337.253,864.374,337.653,869.847z
		 M337.57,648.642c16.026,0,31.383,0.377,46.714-0.094c20.114-0.619,40.433-0.371,60.254-3.283
		c26.289-3.861,40.242-22.101,41.014-49.167c0.739-25.77-11.548-46.563-36.11-49.687c-36.806-4.682-74.223-4.561-111.873-6.509
		C337.57,578.128,337.57,612.625,337.57,648.642z"/>
	<path fill-rule="evenodd" clip-rule="evenodd" d="M744.348,802.699c55.947-3.522,110.154-6.938,165.131-10.402
		c2.581,10.396,4.585,20.379,7.542,30.07c17.525,57.4,87.281,84.964,139.659,55.012c18.125-10.363,30.238-25.273,29.969-47.465
		c-0.271-22.179-11.88-38.965-31.275-46.164c-32.804-12.178-66.785-21.336-100.579-30.657
		c-40.338-11.123-80.202-23.248-116.138-45.382c-39.086-24.077-65.793-57.056-71.518-104.002
		c-7.604-62.372,15.956-111.08,66.982-146.483c37.416-25.962,80.542-34.458,125.055-37.842
		c53.223-4.045,106.115-3.096,157.633,12.596c65.292,19.888,109.46,62.89,120.93,149.926c0.111,0.836-0.511,1.77-1.113,3.68
		c-53.775,3.17-107.924,6.36-161.774,9.536c-1.17-2.568-1.947-3.763-2.272-5.066c-13.688-55.375-55.428-80.115-110.458-64.836
		c-7.447,2.07-14.992,6.043-20.884,11.033c-21.331,18.059-18.667,47.617,6.964,58.499c21.777,9.243,45.661,13.481,68.558,20.122
		c42.267,12.262,85.371,22.304,126.521,37.589c54.376,20.193,95.71,55.484,109.154,115.479
		c20.515,91.561-32.823,181.668-125.974,212.99c-52.56,17.673-106.851,19.589-161.44,15.763c-22.847-1.598-45.67-5.241-68.184-9.593
		c-92.438-17.871-134.564-86.579-148.751-156.963C746.358,821.566,745.693,812.785,744.348,802.699z"/>
	<path fill-rule="evenodd" clip-rule="evenodd" fill="#FFFFFF" d="M337.653,869.847c-0.399-5.474-0.764-8.171-0.767-10.867
		c-0.038-33.712-0.026-67.42-0.026-101.905c4.018-0.492,7.129-1.258,10.225-1.192c37.013,0.779,74.16,0.03,110.994,3.061
		c31.394,2.581,49.498,23.378,49.906,50.975c0.423,28.631-17.271,51.86-47.83,54.833
		C419.797,868.674,379.024,868.328,337.653,869.847z"/>
	<path fill-rule="evenodd" clip-rule="evenodd" fill="#FFFFFF" d="M337.57,648.642c0-36.018,0-70.514,0-108.738
		c37.649,1.948,75.066,1.827,111.873,6.509c24.563,3.123,36.849,23.917,36.11,49.687c-0.772,27.065-14.725,45.306-41.014,49.167
		c-19.821,2.912-40.14,2.664-60.254,3.283C368.953,649.019,353.596,648.642,337.57,648.642z"/>
</g>
</svg>
