<?xml version="1.0" encoding="utf-8"?>
<!-- Generator: Adobe Illustrator 16.0.3, SVG Export Plug-In . SVG Version: 6.00 Build 0)  -->
<!DOCTYPE svg PUBLIC "-//W3C//DTD SVG 1.1//EN" "http://www.w3.org/Graphics/SVG/1.1/DTD/svg11.dtd">
<svg version="1.1" id="Ebene_1" xmlns="http://www.w3.org/2000/svg" xmlns:xlink="http://www.w3.org/1999/xlink" x="0px" y="0px"
	 width="1417.32px" height="1417.32px" viewBox="0 0 1417.32 1417.32" enable-background="new 0 0 1417.32 1417.32"
	 xml:space="preserve">
<g>
	<path fill-rule="evenodd" clip-rule="evenodd" d="M1412,73.719c0,422.401,0,844.801,0,1267.201
		c-9.664,37.27-33.168,60.696-70.399,70.399c-422.4,0-844.8,0-1267.201,0c-37.213-9.722-60.737-33.13-70.4-70.399
		c0-422.4,0-844.8,0-1267.201C13.66,36.446,37.239,13.093,74.4,3.32c422.4,0,844.8,0,1267.201,0
		C1378.796,13.058,1402.342,36.444,1412,73.719z M1355.68,707.98c0-184.407,0.003-368.813,0-553.217
		c0-61.331-33.571-95.12-94.508-95.12c-368.812-0.006-737.624-0.006-1106.435,0c-60.381,0-94.414,33.811-94.414,93.811
		c-0.006,368.813-0.004,737.624-0.001,1106.438c0,61.317,33.566,95.105,94.515,95.105c368.812,0.006,737.623,0.006,1106.436,0
		c60.396,0,94.397-33.772,94.401-93.799C1355.688,1076.791,1355.68,892.386,1355.68,707.98z"/>
	<path display="none" fill-rule="evenodd" clip-rule="evenodd" fill="#FFFFFF" d="M74.4,3.32C37.239,13.093,13.66,36.446,4,73.719
		C4,50.254,4,26.786,4,3.32C27.467,3.32,50.933,3.32,74.4,3.32z"/>
	<path display="none" fill-rule="evenodd" clip-rule="evenodd" fill="#FFFFFF" d="M1412,73.719
		c-9.658-37.275-33.204-60.662-70.399-70.399c23.468,0,46.931,0,70.399,0C1412,26.786,1412,50.254,1412,73.719z"/>
	<path display="none" fill-rule="evenodd" clip-rule="evenodd" fill="#FFFFFF" d="M4,1340.92c9.663,37.27,33.187,60.678,70.4,70.399
		c-23.467,0-46.933,0-70.4,0C4,1387.854,4,1364.386,4,1340.92z"/>
	<path display="none" fill-rule="evenodd" clip-rule="evenodd" fill="#FFFFFF" d="M1341.601,1411.32
		c37.231-9.703,60.735-33.13,70.399-70.399c0,23.466,0,46.934,0,70.399C1388.531,1411.32,1365.068,1411.32,1341.601,1411.32z"/>
	<path fill-rule="evenodd" clip-rule="evenodd" fill="#FFFFFF" d="M1355.68,707.98c0,184.406,0.009,368.811-0.006,553.218
		c-0.004,60.026-34.005,93.799-94.401,93.799c-368.813,0.006-737.624,0.006-1106.436,0c-60.949,0-94.515-33.788-94.515-95.105
		c-0.003-368.813-0.004-737.624,0.001-1106.438c0-60,34.033-93.811,94.414-93.811c368.811-0.006,737.623-0.006,1106.435,0
		c60.937,0,94.508,33.789,94.508,95.12C1355.683,339.167,1355.68,523.573,1355.68,707.98z M532.821,906.407
		c113.176,0,225.513,0,337.894,0c0-31.01,0-61.157,0-92.679c-71.635,0-142.197,0-212.746,0c0-26.537,0-51.669,0-78.628
		c64.606,0,128.497,0,192.34,0c0-27.898,0-53.952,0-81.743c-64.743,0-128.664,0-192.228,0c0-21.263,0-40.766,0-61.738
		c69.509,0,138.177,0,206.745,0c0-29.791,0-58.083,0-86.418c-111.147,0-221.221,0-332.006,0
		C532.821,639.291,532.821,772.749,532.821,906.407z M284.383,662.126c0-24.458,0-46.752,0-70.326c60.789,0,120.636,0,180.996,0
		c0-29.59,0-57.871,0-86.429c-102.484,0-204.05,0-305.833,0c0,134.197,0,267.591,0,401.024c41.584,0,82.17,0,124.537,0
		c0-54.458,0-108.075,0-162.812c52.754,0,103.729,0,155.087,0c0-27.579,0-53.996,0-81.458
		C387.192,662.126,336.195,662.126,284.383,662.126z M941.827,505.318c0,134.099,0,267.443,0,401.14c106.232,0,211.513,0,317.042,0
		c0-32.844,0-64.884,0-98.458c-64.928,0-128.89,0-193.85,0c0-101.762,0-201.971,0-302.682
		C1023.428,505.318,982.87,505.318,941.827,505.318z"/>
	<path fill-rule="evenodd" clip-rule="evenodd" d="M532.821,906.407c0-133.658,0-267.116,0-401.206c110.785,0,220.858,0,332.006,0
		c0,28.335,0,56.628,0,86.418c-68.568,0-137.236,0-206.745,0c0,20.972,0,40.475,0,61.738c63.563,0,127.484,0,192.228,0
		c0,27.791,0,53.845,0,81.743c-63.844,0-127.734,0-192.34,0c0,26.959,0,52.091,0,78.628c70.548,0,141.111,0,212.746,0
		c0,31.521,0,61.669,0,92.679C758.334,906.407,645.997,906.407,532.821,906.407z"/>
	<path fill-rule="evenodd" clip-rule="evenodd" d="M284.383,662.126c51.812,0,102.809,0,154.786,0c0,27.462,0,53.878,0,81.458
		c-51.359,0-102.333,0-155.087,0c0,54.736,0,108.354,0,162.812c-42.367,0-82.952,0-124.537,0c0-133.433,0-266.827,0-401.024
		c101.783,0,203.349,0,305.833,0c0,28.559,0,56.839,0,86.429c-60.36,0-120.207,0-180.996,0
		C284.383,615.374,284.383,637.668,284.383,662.126z"/>
	<path fill-rule="evenodd" clip-rule="evenodd" d="M941.827,505.318c41.043,0,81.601,0,123.192,0c0,100.711,0,200.92,0,302.682
		c64.96,0,128.922,0,193.85,0c0,33.574,0,65.614,0,98.458c-105.529,0-210.81,0-317.042,0
		C941.827,772.761,941.827,639.417,941.827,505.318z"/>
</g>
</svg>
