<?xml version="1.0" encoding="utf-8"?>
<!-- Generator: Adobe Illustrator 16.0.3, SVG Export Plug-In . SVG Version: 6.00 Build 0)  -->
<!DOCTYPE svg PUBLIC "-//W3C//DTD SVG 1.1//EN" "http://www.w3.org/Graphics/SVG/1.1/DTD/svg11.dtd">
<svg version="1.1" id="Ebene_1" xmlns="http://www.w3.org/2000/svg" xmlns:xlink="http://www.w3.org/1999/xlink" x="0px" y="0px"
	 width="1417.32px" height="1417.32px" viewBox="0 0 1417.32 1417.32" enable-background="new 0 0 1417.32 1417.32"
	 xml:space="preserve">
<g>
	<path fill-rule="evenodd" clip-rule="evenodd" d="M1342.551,1412.32c-422.701,0-845.4,0-1268.101,0
		c-37.239-9.729-60.78-33.152-70.45-70.449C4,919.169,4,496.47,4,73.77C13.667,36.47,37.263,13.1,74.45,3.32
		c422.701,0,845.4,0,1268.101,0c37.222,9.745,60.784,33.147,70.449,70.45c0,422.701,0,845.4,0,1268.101
		C1403.329,1379.167,1379.809,1402.611,1342.551,1412.32z M1356.64,708.47c0-184.539,0-369.073,0-553.611
		c-0.003-61.363-33.601-95.176-94.587-95.176c-369.072-0.006-738.145-0.006-1107.218,0c-60.422,0-94.472,33.835-94.472,93.888
		c-0.006,369.073-0.004,738.148-0.001,1107.221c0,61.359,33.593,95.164,94.591,95.164c369.074,0.006,738.148,0.006,1107.224,0
		c60.438,0,94.453-33.796,94.457-93.877C1356.648,1077.544,1356.64,893.007,1356.64,708.47z"/>
	<path display="none" fill-rule="evenodd" clip-rule="evenodd" fill="#FFFFFF" d="M74.45,3.32C37.263,13.1,13.667,36.47,4,73.77
		C4,50.288,4,26.802,4,3.32C27.484,3.32,50.966,3.32,74.45,3.32z"/>
	<path display="none" fill-rule="evenodd" clip-rule="evenodd" fill="#FFFFFF" d="M1413,73.77
		c-9.665-37.302-33.228-60.705-70.449-70.45c23.484,0,46.964,0,70.449,0C1413,26.802,1413,50.288,1413,73.77z"/>
	<path display="none" fill-rule="evenodd" clip-rule="evenodd" fill="#FFFFFF" d="M4,1341.871
		c9.669,37.297,33.21,60.721,70.45,70.449c-23.484,0-46.966,0-70.45,0C4,1388.837,4,1365.353,4,1341.871z"/>
	<path display="none" fill-rule="evenodd" clip-rule="evenodd" fill="#FFFFFF" d="M1342.551,1412.32
		c37.258-9.709,60.778-33.152,70.449-70.449c0,23.482,0,46.967,0,70.449C1389.515,1412.32,1366.035,1412.32,1342.551,1412.32z"/>
	<path fill-rule="evenodd" clip-rule="evenodd" fill="#FFFFFF" d="M1356.64,708.47c0,184.538,0.009,369.075-0.006,553.61
		c-0.004,60.081-34.02,93.877-94.457,93.877c-369.075,0.006-738.15,0.006-1107.224,0c-60.999,0-94.591-33.805-94.591-95.164
		c-0.003-369.073-0.004-738.148,0.001-1107.221c0-60.053,34.05-93.888,94.472-93.888c369.073-0.006,738.146-0.006,1107.218,0
		c60.986,0,94.584,33.813,94.587,95.176C1356.64,339.396,1356.64,523.931,1356.64,708.47z M823.103,927.266
		c0-148.009,0-294.674,0-441.268c-43.093,0-85.151,0-129.093,0c0,80.011,0,159.245,0,242.22
		C637.11,644.99,582.575,565.219,528.382,485.95c-43.118,0-85.191,0-127.746,0c0,147.449,0,294.147,0,440.7
		c43.074,0,85.11,0,128.721,0c0-79.402,0-157.841,0-236.28c0.851-0.211,1.701-0.424,2.55-0.635
		c54.281,79.279,108.562,158.556,162.637,237.532C737.66,927.266,779.858,927.266,823.103,927.266z M915.981,485.567
		c0,148.05,0,294.689,0,441.16c46.015,0,90.891,0,137.028,0c0-59.853,0-118.821,0-179.513c57.737,0,114.23,0,170.488,0
		c0-31.006,0-60.251,0-90.716c-57.287,0-113.419,0-169.975,0c0-25.442,0-49.629,0-75.535c67.088,0,133.437,0,199.875,0
		c0-32.85,0-63.961,0-95.396C1140.518,485.567,1028.803,485.567,915.981,485.567z M162.48,926.903c45.881,0,90.731,0,136.163,0
		c0-147.358,0-294,0-441.001c-45.786,0-90.641,0-136.163,0C162.48,632.929,162.48,779.252,162.48,926.903z"/>
	<path fill-rule="evenodd" clip-rule="evenodd" d="M823.103,927.266c-43.244,0-85.442,0-128.559,0
		c-54.075-78.976-108.356-158.253-162.637-237.532c-0.849,0.211-1.699,0.424-2.55,0.635c0,78.439,0,156.878,0,236.28
		c-43.61,0-85.646,0-128.721,0c0-146.553,0-293.251,0-440.7c42.555,0,84.627,0,127.746,0
		c54.193,79.27,108.728,159.04,165.627,242.269c0-82.975,0-162.209,0-242.22c43.941,0,86,0,129.093,0
		C823.103,632.592,823.103,779.257,823.103,927.266z"/>
	<path fill-rule="evenodd" clip-rule="evenodd" d="M915.981,485.567c112.821,0,224.536,0,337.417,0c0,31.436,0,62.546,0,95.396
		c-66.438,0-132.787,0-199.875,0c0,25.906,0,50.093,0,75.535c56.556,0,112.688,0,169.975,0c0,30.464,0,59.71,0,90.716
		c-56.258,0-112.751,0-170.488,0c0,60.691,0,119.66,0,179.513c-46.138,0-91.014,0-137.028,0
		C915.981,780.256,915.981,633.617,915.981,485.567z"/>
	<path fill-rule="evenodd" clip-rule="evenodd" d="M162.48,926.903c0-147.65,0-293.974,0-441.001c45.522,0,90.377,0,136.163,0
		c0,147.001,0,293.643,0,441.001C253.211,926.903,208.361,926.903,162.48,926.903z"/>
</g>
</svg>
