<?xml version="1.0" encoding="utf-8"?>
<!-- Generator: Adobe Illustrator 16.0.3, SVG Export Plug-In . SVG Version: 6.00 Build 0)  -->
<!DOCTYPE svg PUBLIC "-//W3C//DTD SVG 1.1//EN" "http://www.w3.org/Graphics/SVG/1.1/DTD/svg11.dtd">
<svg version="1.1" id="Ebene_1" xmlns="http://www.w3.org/2000/svg" xmlns:xlink="http://www.w3.org/1999/xlink" x="0px" y="0px"
	 width="1417.32px" height="1417.32px" viewBox="0 0 1417.32 1417.32" enable-background="new 0 0 1417.32 1417.32"
	 xml:space="preserve">
<g>
	<path fill-rule="evenodd" clip-rule="evenodd" d="M1411.556,75.717c0,421.629,0,843.258,0,1264.887
		c-9.646,37.202-33.106,60.588-70.271,70.271c-421.63,0-843.259,0-1264.888,0c-37.146-9.704-60.627-33.069-70.271-70.271
		c0-421.629,0-843.258,0-1264.887c9.642-37.206,33.179-60.515,70.271-70.271c421.629,0,843.258,0,1264.888,0
		C1378.413,15.166,1401.915,38.508,1411.556,75.717z M1355.338,708.828c0-184.07,0-368.141,0-552.211
		c-0.003-61.224-33.505-94.952-94.328-94.952c-368.141-0.006-736.276-0.006-1104.414,0c-60.273,0-94.25,33.75-94.25,93.631
		c-0.005,368.14-0.004,736.277-0.001,1104.418c0,61.211,33.504,94.94,94.334,94.94c368.139,0.006,736.279,0.006,1104.416,0
		c60.289,0,94.234-33.711,94.24-93.619C1355.347,1076.965,1355.338,892.895,1355.338,708.828z"/>
	<path display="none" fill-rule="evenodd" clip-rule="evenodd" fill="#FFFFFF" d="M76.397,5.445
		c-37.093,9.756-60.63,33.065-70.271,70.271c0-23.423,0-46.849,0-70.271C29.549,5.445,52.973,5.445,76.397,5.445z"/>
	<path display="none" fill-rule="evenodd" clip-rule="evenodd" fill="#FFFFFF" d="M1411.556,75.717
		c-9.641-37.208-33.143-60.551-70.271-70.271c23.424,0,46.845,0,70.271,0C1411.556,28.868,1411.556,52.293,1411.556,75.717z"/>
	<path display="none" fill-rule="evenodd" clip-rule="evenodd" fill="#FFFFFF" d="M6.125,1340.604
		c9.645,37.202,33.126,60.567,70.271,70.271c-23.424,0-46.848,0-70.271,0C6.125,1387.453,6.125,1364.026,6.125,1340.604z"/>
	<path display="none" fill-rule="evenodd" clip-rule="evenodd" fill="#FFFFFF" d="M1341.285,1410.875
		c37.164-9.684,60.624-33.069,70.271-70.271c0,23.422,0,46.849,0,70.271C1388.13,1410.875,1364.709,1410.875,1341.285,1410.875z"/>
	<path fill-rule="evenodd" clip-rule="evenodd" fill="#FFFFFF" d="M1355.338,708.828c0,184.067,0.009,368.138-0.004,552.208
		c-0.006,59.908-33.951,93.619-94.24,93.619c-368.137,0.006-736.276,0.006-1104.416,0c-60.831,0-94.334-33.729-94.334-94.94
		c-0.003-368.141-0.003-736.278,0.001-1104.418c0-59.881,33.977-93.631,94.25-93.631c368.138-0.006,736.273-0.006,1104.414,0
		c60.823,0,94.325,33.728,94.328,94.952C1355.338,340.687,1355.338,524.757,1355.338,708.828z M515.536,693.716
		c1.194-0.436,2.389-0.875,3.582-1.312c51.662,75.552,103.324,151.105,154.617,226.118c41.471,0,81.685,0,122.781,0
		c0-140.232,0-280.019,0-420.487c-40.62,0-80.643,0-122.45,0c0,76.074,0,151.484,0,226.893c-0.989,0.266-1.976,0.529-2.966,0.793
		c-52.107-76.283-104.216-152.566-155.461-227.584c-41.668,0-81.32,0-121.275,0c0,140.463,0,280.14,0,420.152
		c40.583,0,80.182,0,121.173,0C515.536,842.988,515.536,768.352,515.536,693.716z M1119.183,918.366c0-106.251,0-211.213,0-317.576
		c45.033,0,88.3,0,131.081,0c0-35.297,0-69.159,0-102.393c-132.471,0-263.769,0-394.979,0c0,34.586,0,68.116,0,103.014
		c44.013,0,87.307,0,132.215,0c0,106.362,0,211.363,0,316.955C1031.596,918.366,1074.05,918.366,1119.183,918.366z M166.966,917.767
		c44.358,0,87.467,0,130.401,0c0-140.48,0-279.75,0-419.214c-43.892,0-87.002,0-130.401,0
		C166.966,638.685,166.966,777.611,166.966,917.767z"/>
	<path fill-rule="evenodd" clip-rule="evenodd" d="M515.536,693.716c0,74.636,0,149.272,0,224.573c-40.991,0-80.59,0-121.173,0
		c0-140.013,0-279.689,0-420.152c39.956,0,79.607,0,121.275,0C566.884,573.154,618.992,649.437,671.1,725.72
		c0.99-0.264,1.978-0.527,2.966-0.793c0-75.408,0-150.818,0-226.893c41.807,0,81.83,0,122.45,0c0,140.469,0,280.255,0,420.487
		c-41.096,0-81.31,0-122.781,0c-51.292-75.013-102.955-150.565-154.617-226.118C517.925,692.84,516.73,693.28,515.536,693.716z"/>
	<path fill-rule="evenodd" clip-rule="evenodd" d="M1119.183,918.366c-45.133,0-87.587,0-131.683,0c0-105.592,0-210.592,0-316.955
		c-44.908,0-88.202,0-132.215,0c0-34.897,0-68.427,0-103.014c131.21,0,262.508,0,394.979,0c0,33.233,0,67.095,0,102.393
		c-42.781,0-86.048,0-131.081,0C1119.183,707.153,1119.183,812.115,1119.183,918.366z"/>
	<path fill-rule="evenodd" clip-rule="evenodd" d="M166.966,917.767c0-140.156,0-279.083,0-419.214c43.399,0,86.51,0,130.401,0
		c0,139.464,0,278.733,0,419.214C254.434,917.767,211.324,917.767,166.966,917.767z"/>
</g>
</svg>
