<?xml version="1.0" encoding="utf-8"?>
<!-- Generator: Adobe Illustrator 16.0.3, SVG Export Plug-In . SVG Version: 6.00 Build 0)  -->
<!DOCTYPE svg PUBLIC "-//W3C//DTD SVG 1.1//EN" "http://www.w3.org/Graphics/SVG/1.1/DTD/svg11.dtd">
<svg version="1.1" id="Ebene_1" xmlns="http://www.w3.org/2000/svg" xmlns:xlink="http://www.w3.org/1999/xlink" x="0px" y="0px"
	 width="1417.32px" height="1417.32px" viewBox="0 0 1417.32 1417.32" enable-background="new 0 0 1417.32 1417.32"
	 xml:space="preserve">
<g>
	<path fill-rule="evenodd" clip-rule="evenodd" d="M1341.65,1411.32c-422.101,0-844.2,0-1266.3,0
		c-37.187-9.715-60.694-33.105-70.35-70.35C5,918.87,5,496.77,5,74.67c9.653-37.247,33.215-60.583,70.35-70.35
		c422.1,0,844.2,0,1266.3,0c37.17,9.73,60.698,33.101,70.35,70.35c0,422.1,0,844.2,0,1266.3
		C1402.343,1378.214,1378.856,1401.625,1341.65,1411.32z M1355.72,708.469c0-184.276,0-368.549,0-552.825
		c-0.003-61.276-33.554-95.041-94.452-95.041c-368.549-0.006-737.098-0.006-1105.647,0c-60.336,0-94.338,33.787-94.338,93.754
		c-0.005,368.549-0.003,737.1,0,1105.65c0,61.273,33.545,95.029,94.457,95.029c368.55,0.006,737.101,0.006,1105.651,0
		c60.354,0,94.32-33.748,94.324-93.744C1355.729,1077.019,1355.72,892.744,1355.72,708.469z"/>
	<path display="none" fill-rule="evenodd" clip-rule="evenodd" fill="#FFFFFF" d="M75.35,4.32C38.215,14.086,14.653,37.423,5,74.67
		C5,51.221,5,27.769,5,4.32C28.451,4.32,51.899,4.32,75.35,4.32z"/>
	<path display="none" fill-rule="evenodd" clip-rule="evenodd" fill="#FFFFFF" d="M1412,74.67c-9.651-37.25-33.18-60.62-70.35-70.35
		c23.451,0,46.897,0,70.35,0C1412,27.769,1412,51.221,1412,74.67z"/>
	<path display="none" fill-rule="evenodd" clip-rule="evenodd" fill="#FFFFFF" d="M5,1340.97
		c9.656,37.244,33.164,60.635,70.35,70.35c-23.451,0-46.899,0-70.35,0C5,1387.871,5,1364.419,5,1340.97z"/>
	<path display="none" fill-rule="evenodd" clip-rule="evenodd" fill="#FFFFFF" d="M1341.65,1411.32
		c37.206-9.694,60.692-33.105,70.35-70.35c0,23.449,0,46.9,0,70.35C1388.548,1411.32,1365.102,1411.32,1341.65,1411.32z"/>
	<path fill-rule="evenodd" clip-rule="evenodd" fill="#FFFFFF" d="M1355.72,708.469c0,184.275,0.009,368.55-0.006,552.824
		c-0.004,59.996-33.971,93.744-94.324,93.744c-368.551,0.006-737.101,0.006-1105.651,0c-60.912,0-94.457-33.756-94.457-95.029
		c-0.003-368.55-0.004-737.101,0-1105.65c0-59.968,34.002-93.754,94.338-93.754c368.549-0.006,737.099-0.006,1105.647,0
		c60.898,0,94.449,33.765,94.452,95.041C1355.72,339.919,1355.72,524.193,1355.72,708.469z M1255.66,887.52
		c-15.757-30.319-30.473-58.44-45.004-86.654c-15.613-30.322-32.531-59.354-69.649-71.768c7.075-2.265,11.871-3.619,16.541-5.32
		c37.399-13.625,61.259-39.264,67.349-79.11c8.271-54.115-17.42-106.526-79.122-115.391c-16.642-2.391-33.542-4.034-50.338-4.172
		c-60.931-0.489-121.865-0.208-182.796-0.163c-4.072,0.003-8.142,0.47-12.23,0.726c0,121.092,0,241.227,0,361.404
		c37.354,0,73.678,0,111.749,0c0-48.79,0-96.762,0-144.819c19.14-1.812,34.48,2.02,45.14,16.902
		c5.436,7.582,10.096,15.766,14.596,23.961c19.106,34.814,38.023,69.736,56.892,104.403
		C1170.884,887.52,1212.047,887.52,1255.66,887.52z M644.226,732.81c58.657,0,115.989,0,172.866,0c0-25.24,0-48.838,0-73.474
		c-58.148,0-115.146,0-172.099,0c0-19.044,0-36.986,0-56.22c62.743,0,124.376,0,186.309,0c0-26.442,0-51.543,0-77.242
		c-100.166,0-199.635,0-298.916,0c0,121.114,0,241.262,0,361.033c102.073,0,203.061,0,304.343,0c0-27.981,0-54.95,0-83.758
		c-64.568,0-128.411,0-192.503,0C644.226,779.343,644.226,757.386,644.226,732.81z M166.389,527.345c0,119.487,0,239.651,0,359.419
		c37.72,0,74.438,0,112.222,0c0-45.021,0-88.899,0-133.827c17.399,0,33.729,0.383,50.033-0.106
		c16.362-0.492,32.884-0.63,49.01-3.073c44.872-6.804,78.051-29.409,90.188-75.021c4.249-15.975,4.887-33.396,4.335-50.066
		c-1.806-54.524-34.087-93.412-88.606-96.366C311.704,524.41,239.466,527.345,166.389,527.345z"/>
	<path fill-rule="evenodd" clip-rule="evenodd" d="M1255.66,887.52c-43.613,0-84.776,0-126.874,0
		c-18.868-34.667-37.785-69.589-56.892-104.403c-4.5-8.195-9.16-16.379-14.596-23.961c-10.659-14.883-26-18.714-45.14-16.902
		c0,48.058,0,96.029,0,144.819c-38.071,0-74.396,0-111.749,0c0-120.178,0-240.312,0-361.404c4.089-0.256,8.158-0.723,12.23-0.726
		c60.931-0.046,121.865-0.327,182.796,0.163c16.796,0.138,33.696,1.781,50.338,4.172c61.702,8.865,87.394,61.275,79.122,115.391
		c-6.09,39.847-29.949,65.485-67.349,79.11c-4.67,1.701-9.466,3.056-16.541,5.32c37.118,12.413,54.036,41.445,69.649,71.768
		C1225.188,829.08,1239.903,857.201,1255.66,887.52z M1012.17,676.47c26.811-2.789,52.284-4.391,77.363-8.433
		c15.411-2.484,24.194-16.97,24.048-33.557c-0.143-16.557-8.131-30.399-23.416-32.413c-25.611-3.372-51.63-3.646-77.995-5.254
		C1012.17,624.079,1012.17,647.899,1012.17,676.47z"/>
	<path fill-rule="evenodd" clip-rule="evenodd" d="M644.226,732.81c0,24.576,0,46.533,0,70.34c64.093,0,127.935,0,192.503,0
		c0,28.808,0,55.776,0,83.758c-101.282,0-202.27,0-304.343,0c0-119.771,0-239.919,0-361.033c99.281,0,198.75,0,298.916,0
		c0,25.699,0,50.8,0,77.242c-61.933,0-123.566,0-186.309,0c0,19.233,0,37.175,0,56.22c56.953,0,113.951,0,172.099,0
		c0,24.636,0,48.233,0,73.474C760.215,732.81,702.883,732.81,644.226,732.81z"/>
	<path fill-rule="evenodd" clip-rule="evenodd" d="M166.389,527.345c73.077,0,145.315-2.935,217.182,0.958
		c54.519,2.955,86.8,41.842,88.606,96.366c0.552,16.67-0.086,34.092-4.335,50.066c-12.138,45.612-45.317,68.218-90.188,75.021
		c-16.126,2.443-32.648,2.581-49.01,3.073c-16.304,0.489-32.633,0.106-50.033,0.106c0,44.928,0,88.807,0,133.827
		c-37.784,0-74.502,0-112.222,0C166.389,766.997,166.389,646.833,166.389,527.345z M278.513,679.254
		c14.149,0,26.764,0.286,39.355-0.129c5.556-0.184,11.173-1.385,16.579-2.82c18.577-4.933,29.83-19.536,29.528-37.805
		c-0.324-19.59-11.475-34.603-31.019-37.568c-17.731-2.693-35.9-2.506-54.443-3.622
		C278.513,625.978,278.513,652.012,278.513,679.254z"/>
	<path fill-rule="evenodd" clip-rule="evenodd" fill="#FFFFFF" d="M1012.17,676.47c0-28.571,0-52.391,0-79.657
		c26.365,1.608,52.384,1.882,77.995,5.254c15.285,2.014,23.273,15.856,23.416,32.413c0.146,16.587-8.637,31.072-24.048,33.557
		C1064.454,672.079,1038.98,673.681,1012.17,676.47z"/>
	<path fill-rule="evenodd" clip-rule="evenodd" fill="#FFFFFF" d="M278.513,679.254c0-27.242,0-53.276,0-81.944
		c18.543,1.115,36.711,0.929,54.443,3.622c19.544,2.965,30.695,17.978,31.019,37.568c0.302,18.27-10.951,32.873-29.528,37.805
		c-5.405,1.435-11.022,2.636-16.579,2.82C305.277,679.54,292.662,679.254,278.513,679.254z"/>
</g>
</svg>
