<?xml version="1.0" encoding="utf-8"?>
<!-- Generator: Adobe Illustrator 16.0.3, SVG Export Plug-In . SVG Version: 6.00 Build 0)  -->
<!DOCTYPE svg PUBLIC "-//W3C//DTD SVG 1.1//EN" "http://www.w3.org/Graphics/SVG/1.1/DTD/svg11.dtd">
<svg version="1.1" id="Ebene_1" xmlns="http://www.w3.org/2000/svg" xmlns:xlink="http://www.w3.org/1999/xlink" x="0px" y="0px"
	 width="1417.32px" height="1417.32px" viewBox="0 0 1417.32 1417.32" enable-background="new 0 0 1417.32 1417.32"
	 xml:space="preserve">
<g>
	<path fill-rule="evenodd" clip-rule="evenodd" d="M4,1341.871C4,919.169,4,496.47,4,73.77C13.667,36.47,37.263,13.1,74.45,3.32
		c422.701,0,845.4,0,1268.101,0c37.222,9.745,60.784,33.147,70.449,70.45c0,422.701,0,845.4,0,1268.101
		c-9.671,37.297-33.191,60.74-70.449,70.449c-422.701,0-845.4,0-1268.101,0C37.21,1402.591,13.669,1379.167,4,1341.871z
		 M706.998,1355.959c185.944,0,371.891,0.018,557.837-0.01c57.134-0.009,91.795-34.857,91.795-92.302
		c0.021-370.952,0.021-741.904,0-1112.856c-0.003-56.126-35.181-91.101-91.599-91.104c-370.953-0.017-741.905-0.017-1112.856,0
		c-57.103,0.003-91.809,34.911-91.81,92.317c-0.011,370.481-0.011,740.963,0,1111.447c0.001,58.099,34.591,92.497,93.021,92.501
		C337.923,1355.971,522.459,1355.959,706.998,1355.959z"/>
	<path display="none" fill-rule="evenodd" clip-rule="evenodd" fill="#FFFFFF" d="M74.45,3.32C37.263,13.1,13.667,36.47,4,73.77
		C4,50.288,4,26.802,4,3.32C27.484,3.32,50.966,3.32,74.45,3.32z"/>
	<path display="none" fill-rule="evenodd" clip-rule="evenodd" fill="#FFFFFF" d="M1413,73.77
		c-9.665-37.302-33.228-60.705-70.449-70.45c23.484,0,46.964,0,70.449,0C1413,26.802,1413,50.288,1413,73.77z"/>
	<path display="none" fill-rule="evenodd" clip-rule="evenodd" fill="#FFFFFF" d="M4,1341.871
		c9.669,37.297,33.21,60.721,70.45,70.449c-23.484,0-46.966,0-70.45,0C4,1388.837,4,1365.353,4,1341.871z"/>
	<path display="none" fill-rule="evenodd" clip-rule="evenodd" fill="#FFFFFF" d="M1342.551,1412.32
		c37.258-9.709,60.778-33.152,70.449-70.449c0,23.482,0,46.967,0,70.449C1389.515,1412.32,1366.035,1412.32,1342.551,1412.32z"/>
	<path fill-rule="evenodd" clip-rule="evenodd" fill="#FFFFFF" d="M706.998,1355.959c-184.538,0-369.074,0.012-553.612-0.006
		c-58.43-0.004-93.019-34.402-93.021-92.501c-0.011-370.484-0.011-740.966,0-1111.447c0.001-57.406,34.707-92.314,91.81-92.317
		c370.951-0.017,741.903-0.017,1112.856,0c56.418,0.003,91.596,34.978,91.599,91.104c0.021,370.952,0.021,741.904,0,1112.856
		c0,57.444-34.661,92.293-91.795,92.302C1078.889,1355.977,892.941,1355.959,706.998,1355.959z M340.523,843.989
		c3.618,20.117,5.64,38.354,10.267,55.906c25.618,97.169,78.004,172.157,178.98,201.064
		c110.813,31.724,223.471,34.337,335.319,5.891c84.218-21.418,148.509-70.573,185.657-151.087
		c44.763-97.018,24.616-208.728-49.037-274.285c-27.3-24.297-58.066-44.064-92.649-54.946
		c-65.187-20.505-131.321-38.005-197.033-56.844c-25.624-7.348-52.215-12.535-76.53-22.981c-39.6-17.016-43.807-61.787-9.694-88.376
		c7.213-5.619,16.151-11.291,24.839-12.314c22.125-2.606,44.799-5.16,66.818-3.099c44.605,4.177,73.785,29.569,87.294,72.459
		c2.939,9.332,5.399,18.812,8.325,29.085c77.847-4.604,155.425-9.188,234.137-13.842c-4.679-40.339-14.696-77.061-33.28-111.242
		c-35.377-65.065-93.646-98.02-162.963-114.262c-80.561-18.878-161.995-18.119-243.521-7.216
		c-51.356,6.869-99.535,22.85-142.325,52.959c-101.226,71.231-124.212,211.512-49.713,303.906
		c26.207,32.503,60.172,54.797,97.403,72.553c56.664,27.024,117.17,41.805,177.688,57.105c33.428,8.454,67.494,18.039,98.014,33.535
		c57.199,29.039,57.469,100.086,1.753,132.103c-14.563,8.368-32.253,12.97-49.075,15.463
		c-78.646,11.652-138.743-29.979-156.651-107.139c-2.202-9.483-3.975-19.069-6.125-29.471
		C499.632,833.906,421.559,838.854,340.523,843.989z"/>
	<path fill-rule="evenodd" clip-rule="evenodd" d="M340.523,843.989c81.036-5.135,159.109-10.083,237.897-15.074
		c2.15,10.401,3.923,19.987,6.125,29.471c17.908,77.159,78.005,118.791,156.651,107.139c16.822-2.493,34.512-7.095,49.075-15.463
		c55.716-32.017,55.446-103.063-1.753-132.103c-30.52-15.496-64.586-25.081-98.014-33.535
		c-60.518-15.301-121.024-30.081-177.688-57.105c-37.231-17.756-71.196-40.05-97.403-72.553
		c-74.499-92.395-51.513-232.675,49.713-303.906c42.79-30.109,90.969-46.09,142.325-52.959
		c81.526-10.903,162.961-11.663,243.521,7.216c69.316,16.242,127.586,49.196,162.963,114.262
		c18.584,34.181,28.602,70.903,33.28,111.242c-78.712,4.654-156.29,9.238-234.137,13.842c-2.926-10.273-5.386-19.753-8.325-29.085
		c-13.509-42.89-42.688-68.282-87.294-72.459c-22.019-2.061-44.693,0.493-66.818,3.099c-8.688,1.023-17.625,6.695-24.839,12.314
		c-34.113,26.59-29.906,71.361,9.694,88.376c24.315,10.446,50.906,15.634,76.53,22.981c65.712,18.839,131.847,36.339,197.033,56.844
		c34.583,10.881,65.35,30.649,92.649,54.946c73.653,65.557,93.8,177.267,49.037,274.285
		c-37.148,80.514-101.439,129.669-185.657,151.087c-111.849,28.446-224.506,25.833-335.319-5.891
		c-100.977-28.907-153.362-103.896-178.98-201.064C346.163,882.343,344.141,864.106,340.523,843.989z"/>
</g>
</svg>
