<?xml version="1.0" encoding="utf-8"?>
<!-- Generator: Adobe Illustrator 16.0.3, SVG Export Plug-In . SVG Version: 6.00 Build 0)  -->
<!DOCTYPE svg PUBLIC "-//W3C//DTD SVG 1.1//EN" "http://www.w3.org/Graphics/SVG/1.1/DTD/svg11.dtd">
<svg version="1.1" id="Ebene_1" xmlns="http://www.w3.org/2000/svg" xmlns:xlink="http://www.w3.org/1999/xlink" x="0px" y="0px"
	 width="1417.32px" height="1417.32px" viewBox="0 0 1417.32 1417.32" enable-background="new 0 0 1417.32 1417.32"
	 xml:space="preserve">
<g>
	<path fill-rule="evenodd" clip-rule="evenodd" d="M5,1341.919C5,919.52,5,497.12,5,74.72c9.66-37.273,33.239-60.626,70.4-70.4
		c422.4,0,844.8,0,1267.2,0c37.197,9.737,60.742,33.124,70.4,70.4c0,422.4,0,844.8,0,1267.2c-9.664,37.271-33.167,60.699-70.4,70.4
		c-422.399,0-844.8,0-1267.2,0C38.187,1402.598,14.663,1379.19,5,1341.919z M1356.68,708.974c0-184.404,0-368.81,0-553.217
		c-0.003-61.325-33.571-95.114-94.512-95.114c-368.811-0.006-737.623-0.006-1106.435,0c-60.38,0-94.411,33.811-94.411,93.815
		c-0.005,368.811-0.003,737.625,0,1106.436c0,61.316,33.567,95.103,94.519,95.103c368.812,0.006,737.625,0.006,1106.438,0
		c60.396,0,94.392-33.771,94.396-93.806C1356.688,1077.788,1356.68,893.381,1356.68,708.974z"/>
	<path display="none" fill-rule="evenodd" clip-rule="evenodd" fill="#FFFFFF" d="M75.4,4.32C38.239,14.093,14.66,37.447,5,74.72
		c0-23.466,0-46.934,0-70.4C28.467,4.32,51.933,4.32,75.4,4.32z"/>
	<path display="none" fill-rule="evenodd" clip-rule="evenodd" fill="#FFFFFF" d="M1413,74.72
		c-9.658-37.276-33.203-60.663-70.4-70.4c23.469,0,46.932,0,70.4,0C1413,27.786,1413,51.254,1413,74.72z"/>
	<path display="none" fill-rule="evenodd" clip-rule="evenodd" fill="#FFFFFF" d="M5,1341.919c9.663,37.271,33.187,60.679,70.4,70.4
		c-23.467,0-46.933,0-70.4,0C5,1388.854,5,1365.385,5,1341.919z"/>
	<path display="none" fill-rule="evenodd" clip-rule="evenodd" fill="#FFFFFF" d="M1342.6,1412.32
		c37.233-9.701,60.736-33.13,70.4-70.4c0,23.466,0,46.935,0,70.4C1389.531,1412.32,1366.068,1412.32,1342.6,1412.32z"/>
	<path fill-rule="evenodd" clip-rule="evenodd" fill="#FFFFFF" d="M1356.68,708.974c0,184.407,0.009,368.813-0.006,553.217
		c-0.004,60.034-34,93.806-94.396,93.806c-368.813,0.006-737.626,0.006-1106.438,0c-60.951,0-94.519-33.786-94.519-95.103
		c-0.003-368.811-0.004-737.625,0-1106.436c0-60.005,34.03-93.815,94.411-93.815c368.813-0.006,737.625-0.006,1106.435,0
		c60.94,0,94.509,33.789,94.512,95.114C1356.68,340.164,1356.68,524.57,1356.68,708.974z M586.401,505.282c0,203.011,0,404,0,604.55
		c84.15,0,166.455,0,249.918,0c0-201.837,0-402.499,0-604.688c84.87,0,168.584,0,252.351,0c0-67.053,0-132.575,0-198.509
		c-252.366,0-504.038,0-755.968,0c0,66.501,0,131.997,0,198.646C416.766,505.282,500.115,505.282,586.401,505.282z"/>
	<path fill-rule="evenodd" clip-rule="evenodd" d="M586.401,505.282c-86.286,0-169.636,0-253.699,0c0-66.649,0-132.145,0-198.646
		c251.93,0,503.602,0,755.968,0c0,65.934,0,131.456,0,198.509c-83.767,0-167.48,0-252.351,0c0,202.188,0,402.851,0,604.688
		c-83.463,0-165.768,0-249.918,0C586.401,909.282,586.401,708.292,586.401,505.282z"/>
</g>
</svg>
