<?xml version="1.0" encoding="utf-8"?>
<!-- Generator: Adobe Illustrator 16.0.3, SVG Export Plug-In . SVG Version: 6.00 Build 0)  -->
<!DOCTYPE svg PUBLIC "-//W3C//DTD SVG 1.1//EN" "http://www.w3.org/Graphics/SVG/1.1/DTD/svg11.dtd">
<svg version="1.1" id="Ebene_1" xmlns="http://www.w3.org/2000/svg" xmlns:xlink="http://www.w3.org/1999/xlink" x="0px" y="0px"
	 width="1417.32px" height="1417.32px" viewBox="0 0 1417.32 1417.32" enable-background="new 0 0 1417.32 1417.32"
	 xml:space="preserve">
<g>
	<path fill-rule="evenodd" clip-rule="evenodd" d="M1342.6,1412.32c-422.399,0-844.8,0-1267.2,0
		c-37.213-9.722-60.737-33.13-70.4-70.4C5,919.52,5,497.12,5,74.72c9.66-37.273,33.239-60.626,70.4-70.4c422.4,0,844.8,0,1267.2,0
		c37.197,9.737,60.742,33.124,70.4,70.4c0,422.4,0,844.8,0,1267.2C1403.336,1379.19,1379.833,1402.619,1342.6,1412.32z
		 M1356.68,708.969c0-184.407,0-368.811,0-553.218c-0.003-61.319-33.577-95.108-94.52-95.108
		c-368.811-0.006-737.622-0.006-1106.433,0c-60.379,0-94.405,33.811-94.405,93.821c-0.005,368.811-0.003,737.625,0,1106.436
		c0,61.316,33.569,95.097,94.523,95.097c368.813,0.006,737.625,0.006,1106.438,0c60.396,0,94.387-33.771,94.391-93.811
		C1356.688,1077.782,1356.68,893.375,1356.68,708.969z"/>
	<path display="none" fill-rule="evenodd" clip-rule="evenodd" fill="#FFFFFF" d="M75.4,4.32C38.239,14.093,14.66,37.447,5,74.72
		c0-23.466,0-46.934,0-70.4C28.467,4.32,51.933,4.32,75.4,4.32z"/>
	<path display="none" fill-rule="evenodd" clip-rule="evenodd" fill="#FFFFFF" d="M1413,74.72
		c-9.658-37.276-33.203-60.663-70.4-70.4c23.469,0,46.932,0,70.4,0C1413,27.786,1413,51.254,1413,74.72z"/>
	<path display="none" fill-rule="evenodd" clip-rule="evenodd" fill="#FFFFFF" d="M5,1341.919c9.663,37.271,33.187,60.679,70.4,70.4
		c-23.467,0-46.933,0-70.4,0C5,1388.854,5,1365.385,5,1341.919z"/>
	<path display="none" fill-rule="evenodd" clip-rule="evenodd" fill="#FFFFFF" d="M1342.6,1412.32
		c37.233-9.701,60.736-33.13,70.4-70.4c0,23.466,0,46.935,0,70.4C1389.531,1412.32,1366.068,1412.32,1342.6,1412.32z"/>
	<path fill-rule="evenodd" clip-rule="evenodd" fill="#FFFFFF" d="M1356.68,708.969c0,184.406,0.009,368.813-0.006,553.217
		c-0.004,60.039-33.995,93.811-94.391,93.811c-368.813,0.006-737.625,0.006-1106.438,0c-60.955,0-94.523-33.78-94.523-95.097
		c-0.003-368.812-0.004-737.625,0-1106.436c0-60.01,34.026-93.821,94.405-93.821c368.811-0.006,737.622-0.006,1106.433,0
		c60.942,0,94.517,33.789,94.52,95.108C1356.68,340.158,1356.68,524.562,1356.68,708.969z M487.87,653.567
		c1.123-0.126,2.246-0.253,3.369-0.379c26.527,95.315,53.056,190.63,79.493,285.623c47.692,0,93.611,0,140.787,0
		c33.957-154.421,67.885-308.704,101.927-463.528c-46.082,0-90.494,0-135.454,0C661.958,559.919,646.032,644,630.106,728.079
		c-0.862-0.069-1.724-0.138-2.586-0.206c-23.412-84.291-46.826-168.578-70.235-252.849c-45.69,0-90.2,0-135.565,0
		c-23.375,84.422-46.702,168.674-70.029,252.925c-0.89-0.205-1.779-0.412-2.669-0.621c-15.899-84.1-31.799-168.203-47.668-252.145
		c-46.113,0-90.577,0-136.124,0c34.333,154.795,68.488,308.795,102.722,463.149c47.402,0,94.059,0,141.043,0
		c13.324-48.108,26.439-95.47,39.559-142.83C461.657,748.192,474.763,700.878,487.87,653.567z M860.733,938.428
		c47.873,0,94.975,0,143.858,0c0-58.132,0-115.491,0-173.695c22.825,0,43.885,0.374,64.922-0.109
		c18.728-0.432,37.532-0.908,56.13-2.94c64.528-7.051,109.48-43.105,122.251-100.966c4.868-22.055,5.554-45.741,3.928-68.381
		c-4.145-57.739-40.464-98.906-96.64-111.501c-16.352-3.666-33.38-5.833-50.122-5.965c-77.401-0.618-154.814-0.286-232.221-0.245
		c-4.043,0.003-8.088,0.481-12.106,0.737C860.733,630.365,860.733,784.072,860.733,938.428z"/>
	<path fill-rule="evenodd" clip-rule="evenodd" d="M487.87,653.567c-13.106,47.311-26.213,94.625-39.316,141.935
		c-13.119,47.36-26.235,94.722-39.559,142.83c-46.984,0-93.641,0-141.043,0c-34.234-154.354-68.389-308.354-102.722-463.149
		c45.547,0,90.011,0,136.124,0c15.869,83.941,31.77,168.044,47.668,252.145c0.89,0.209,1.78,0.416,2.669,0.621
		c23.327-84.251,46.654-168.503,70.029-252.925c45.365,0,89.875,0,135.565,0c23.409,84.271,46.823,168.558,70.235,252.849
		c0.863,0.068,1.724,0.137,2.586,0.206c15.926-84.079,31.852-168.159,47.885-252.796c44.96,0,89.372,0,135.454,0
		c-34.042,154.824-67.97,309.107-101.927,463.528c-47.176,0-93.095,0-140.787,0c-26.437-94.993-52.965-190.308-79.493-285.623
		C490.115,653.314,488.993,653.441,487.87,653.567z"/>
	<path fill-rule="evenodd" clip-rule="evenodd" d="M860.733,938.428c0-154.356,0-308.063,0-463.066
		c4.019-0.256,8.063-0.734,12.106-0.737c77.406-0.041,154.819-0.374,232.221,0.245c16.742,0.132,33.771,2.299,50.122,5.965
		c56.176,12.595,92.495,53.762,96.64,111.501c1.626,22.641,0.94,46.326-3.928,68.381c-12.771,57.86-57.723,93.915-122.251,100.966
		c-18.598,2.032-37.402,2.509-56.13,2.94c-21.037,0.483-42.097,0.109-64.922,0.109c0,58.204,0,115.563,0,173.695
		C955.708,938.428,908.606,938.428,860.733,938.428z M1004.922,674.005c25.899-2.736,51.197-3.435,75.555-8.572
		c21.586-4.551,33.909-24.805,33.423-46.508c-0.517-22.987-13.453-42.894-35.173-46.709c-24.064-4.227-48.862-4.287-73.805-6.195
		C1004.922,603.102,1004.922,636.679,1004.922,674.005z"/>
	<path display="none" fill-rule="evenodd" clip-rule="evenodd" fill="#FFFFFF" d="M1004.922,674.005c0-37.326,0-70.903,0-107.984
		c24.942,1.908,49.74,1.969,73.805,6.195c21.72,3.815,34.656,23.722,35.173,46.709c0.486,21.704-11.837,41.957-33.423,46.508
		C1056.119,670.571,1030.821,671.269,1004.922,674.005z"/>
</g>
</svg>
