<?xml version="1.0" encoding="utf-8"?>
<!-- Generator: Adobe Illustrator 16.0.3, SVG Export Plug-In . SVG Version: 6.00 Build 0)  -->
<!DOCTYPE svg PUBLIC "-//W3C//DTD SVG 1.1//EN" "http://www.w3.org/Graphics/SVG/1.1/DTD/svg11.dtd">
<svg version="1.1" id="Ebene_1" xmlns="http://www.w3.org/2000/svg" xmlns:xlink="http://www.w3.org/1999/xlink" x="0px" y="0px"
	 width="1417.32px" height="1417.32px" viewBox="0 0 1417.32 1417.32" enable-background="new 0 0 1417.32 1417.32"
	 xml:space="preserve">
<g>
	<path fill-rule="evenodd" clip-rule="evenodd" d="M5,1340.97C5,918.87,5,496.77,5,74.67c9.653-37.247,33.215-60.583,70.35-70.35
		c422.1,0,844.2,0,1266.3,0c37.17,9.73,60.698,33.101,70.35,70.35c0,422.1,0,844.2,0,1266.3
		c-9.657,37.244-33.144,60.655-70.35,70.35c-422.101,0-844.2,0-1266.3,0C38.164,1401.605,14.656,1378.214,5,1340.97z
		 M1355.72,708.469c0-184.276,0-368.549,0-552.825c-0.003-61.276-33.554-95.041-94.452-95.041
		c-368.549-0.006-737.098-0.006-1105.647,0c-60.336,0-94.338,33.787-94.338,93.754c-0.005,368.549-0.003,737.1,0,1105.65
		c0,61.273,33.545,95.029,94.457,95.029c368.55,0.006,737.101,0.006,1105.651,0c60.354,0,94.32-33.748,94.324-93.744
		C1355.729,1077.019,1355.72,892.744,1355.72,708.469z"/>
	<path display="none" fill-rule="evenodd" clip-rule="evenodd" fill="#FFFFFF" d="M75.35,4.32C38.215,14.086,14.653,37.423,5,74.67
		C5,51.221,5,27.769,5,4.32C28.451,4.32,51.899,4.32,75.35,4.32z"/>
	<path display="none" fill-rule="evenodd" clip-rule="evenodd" fill="#FFFFFF" d="M1412,74.67c-9.651-37.25-33.18-60.62-70.35-70.35
		c23.451,0,46.897,0,70.35,0C1412,27.769,1412,51.221,1412,74.67z"/>
	<path display="none" fill-rule="evenodd" clip-rule="evenodd" fill="#FFFFFF" d="M5,1340.97
		c9.656,37.244,33.164,60.635,70.35,70.35c-23.451,0-46.899,0-70.35,0C5,1387.871,5,1364.419,5,1340.97z"/>
	<path display="none" fill-rule="evenodd" clip-rule="evenodd" fill="#FFFFFF" d="M1341.65,1411.32
		c37.206-9.694,60.692-33.105,70.35-70.35c0,23.449,0,46.9,0,70.35C1388.548,1411.32,1365.102,1411.32,1341.65,1411.32z"/>
	<path fill-rule="evenodd" clip-rule="evenodd" fill="#FFFFFF" d="M1355.72,708.469c0,184.275,0.009,368.55-0.006,552.824
		c-0.004,59.996-33.971,93.744-94.324,93.744c-368.551,0.006-737.101,0.006-1105.651,0c-60.912,0-94.457-33.756-94.457-95.029
		c-0.003-368.55-0.004-737.101,0-1105.65c0-59.968,34.002-93.754,94.338-93.754c368.549-0.006,737.099-0.006,1105.647,0
		c60.898,0,94.449,33.765,94.452,95.041C1355.72,339.919,1355.72,524.193,1355.72,708.469z M292.805,475.327
		c-45.977,0-90.593,0-136.039,0c34.397,155.037,68.526,308.875,102.622,462.555c47.709,0,93.947,0,140.771,0
		c26.498-95.515,52.84-190.462,79.181-285.407c1.083,0.217,2.164,0.438,3.247,0.654c26.436,95.044,52.874,190.088,79.248,284.909
		c47.659,0,93.979,0,140.776,0c33.967-154.483,67.826-308.468,101.852-463.232c-45.64,0-90.064,0-135.36,0
		c-16.011,84.552-31.963,168.777-47.913,253.002c-0.813-0.014-1.626-0.029-2.438-0.047
		c-23.393-84.219-46.785-168.438-70.181-252.677c-45.747,0-90.485,0-135.726,0c-23.417,84.651-46.662,168.67-69.905,252.689
		c-0.839-0.171-1.68-0.344-2.52-0.517C324.522,643.145,308.626,559.036,292.805,475.327z M1231.568,604.329
		c-9.936-75.068-45.292-114.432-116.272-131.032c-37.338-8.733-75.238-9.05-113.238-5.958c-28.635,2.328-56.659,7.274-82.673,20.347
		c-46.573,23.402-73.735,60.432-75.302,113.068c-1.561,52.418,24.854,90.028,70.652,112.013
		c30.124,14.464,62.886,23.534,94.695,34.358c24.293,8.27,50.195,12.867,73.128,23.815c33.622,16.054,33.241,57.423,1.231,76.638
		c-40.958,24.581-98.43,4.139-114.047-40.778c-3.18-9.148-5.196-18.698-7.939-28.75c-45.26,2.921-89.987,5.809-134.654,8.694
		c2.284,72.246,48.866,131.467,116.624,149.387c43.087,11.396,87.039,12.943,131.168,9.591
		c38.759-2.943,76.127-11.575,108.201-35.038c47.504-34.752,68.715-82.142,62.491-140.455
		c-5.65-52.917-38.306-86.198-85.217-106.264c-22.282-9.528-45.701-16.687-69.045-23.372c-30.116-8.624-60.905-14.909-90.952-23.749
		c-16.587-4.881-24.705-16.912-23.952-29.324c0.846-13.837,11.539-26.321,26.722-31.193c42.636-13.677,79.407,5.702,91.945,48.435
		c0.65,2.22,1.532,4.369,2.631,7.464C1142.035,609.61,1186.298,607,1231.568,604.329z"/>
	<path fill-rule="evenodd" clip-rule="evenodd" d="M292.805,475.327c15.821,83.709,31.717,167.818,47.613,251.928
		c0.84,0.173,1.681,0.346,2.52,0.517c23.243-84.019,46.487-168.038,69.905-252.689c45.241,0,89.979,0,135.726,0
		c23.396,84.239,46.788,168.458,70.181,252.677c0.812,0.018,1.625,0.033,2.438,0.047c15.95-84.225,31.901-168.45,47.913-253.002
		c45.296,0,89.721,0,135.36,0c-34.026,154.765-67.885,308.749-101.852,463.232c-46.797,0-93.117,0-140.776,0
		c-26.375-94.82-52.812-189.864-79.248-284.909c-1.083-0.216-2.164-0.437-3.247-0.654c-26.341,94.945-52.683,189.893-79.181,285.407
		c-46.824,0-93.062,0-140.771,0c-34.095-153.68-68.224-307.518-102.622-462.555C202.212,475.327,246.828,475.327,292.805,475.327z"
		/>
	<path fill-rule="evenodd" clip-rule="evenodd" d="M1231.568,604.329c-45.271,2.671-89.533,5.282-133.803,7.896
		c-1.099-3.095-1.98-5.244-2.631-7.464c-12.538-42.732-49.31-62.112-91.945-48.435c-15.183,4.872-25.876,17.356-26.722,31.193
		c-0.753,12.413,7.365,24.443,23.952,29.324c30.047,8.84,60.836,15.125,90.952,23.749c23.344,6.686,46.763,13.844,69.045,23.372
		c46.911,20.065,79.566,53.347,85.217,106.264c6.224,58.313-14.987,105.703-62.491,140.455
		c-32.074,23.463-69.442,32.095-108.201,35.038c-44.129,3.353-88.081,1.806-131.168-9.591
		c-67.758-17.92-114.34-77.141-116.624-149.387c44.667-2.886,89.395-5.773,134.654-8.694c2.743,10.052,4.76,19.602,7.939,28.75
		c15.617,44.917,73.089,65.359,114.047,40.778c32.01-19.215,32.391-60.584-1.231-76.638c-22.933-10.948-48.835-15.546-73.128-23.815
		c-31.81-10.824-64.571-19.895-94.695-34.358c-45.799-21.984-72.213-59.594-70.652-112.013
		c1.566-52.637,28.729-89.667,75.302-113.068c26.014-13.072,54.038-18.019,82.673-20.347c38-3.092,75.9-2.775,113.238,5.958
		C1186.276,489.897,1221.633,529.26,1231.568,604.329z"/>
</g>
</svg>
