<svg id="svg" version="1.1" xmlns="http://www.w3.org/2000/svg" xmlns:xlink="http://www.w3.org/1999/xlink" width="400" height="400" viewBox="0, 0, 400,400"><g id="svgg"><path id="path0" d="M16.100 0.288 C 15.385 0.378,14.800 0.619,14.800 0.825 C 14.800 1.031,14.440 1.200,14.000 1.200 C 13.560 1.200,13.200 1.380,13.200 1.600 C 13.200 1.820,12.840 2.000,12.400 2.000 C 11.960 2.000,11.600 2.180,11.600 2.400 C 11.600 2.620,11.280 2.800,10.888 2.800 C 10.497 2.800,9.917 3.160,9.600 3.600 C 9.283 4.040,8.807 4.400,8.543 4.400 C 7.918 4.400,4.400 7.918,4.400 8.543 C 4.400 8.807,4.040 9.283,3.600 9.600 C 3.160 9.917,2.800 10.497,2.800 10.888 C 2.800 11.280,2.620 11.600,2.400 11.600 C 2.180 11.600,2.000 11.960,2.000 12.400 C 2.000 12.840,1.820 13.200,1.600 13.200 C 1.380 13.200,1.200 13.545,1.200 13.967 C 1.200 14.388,0.975 14.808,0.700 14.900 C -0.036 15.145,-0.036 384.855,0.700 385.100 C 0.975 385.192,1.200 385.612,1.200 386.033 C 1.200 386.455,1.380 386.800,1.600 386.800 C 1.820 386.800,2.000 387.160,2.000 387.600 C 2.000 388.040,2.180 388.400,2.400 388.400 C 2.620 388.400,2.800 388.720,2.800 389.112 C 2.800 389.503,3.160 390.083,3.600 390.400 C 4.040 390.717,4.400 391.193,4.400 391.457 C 4.400 392.082,7.918 395.600,8.543 395.600 C 8.807 395.600,9.283 395.960,9.600 396.400 C 9.917 396.840,10.497 397.200,10.888 397.200 C 11.280 397.200,11.600 397.380,11.600 397.600 C 11.600 397.820,11.960 398.000,12.400 398.000 C 12.840 398.000,13.200 398.180,13.200 398.400 C 13.200 398.620,13.545 398.800,13.967 398.800 C 14.388 398.800,14.808 399.025,14.900 399.300 C 15.033 399.699,52.409 399.800,200.000 399.800 C 347.591 399.800,384.967 399.699,385.100 399.300 C 385.192 399.025,385.612 398.800,386.033 398.800 C 386.455 398.800,386.800 398.620,386.800 398.400 C 386.800 398.180,387.160 398.000,387.600 398.000 C 388.040 398.000,388.400 397.820,388.400 397.600 C 388.400 397.380,388.720 397.200,389.112 397.200 C 389.503 397.200,390.083 396.840,390.400 396.400 C 390.717 395.960,391.193 395.600,391.457 395.600 C 392.082 395.600,395.600 392.082,395.600 391.457 C 395.600 391.193,395.960 390.717,396.400 390.400 C 396.840 390.083,397.200 389.503,397.200 389.112 C 397.200 388.720,397.380 388.400,397.600 388.400 C 397.820 388.400,398.000 388.040,398.000 387.600 C 398.000 387.160,398.180 386.800,398.400 386.800 C 398.620 386.800,398.800 386.455,398.800 386.033 C 398.800 385.612,399.025 385.192,399.300 385.100 C 400.036 384.855,400.036 15.145,399.300 14.900 C 399.025 14.808,398.800 14.388,398.800 13.967 C 398.800 13.545,398.620 13.200,398.400 13.200 C 398.180 13.200,398.000 12.840,398.000 12.400 C 398.000 11.960,397.820 11.600,397.600 11.600 C 397.380 11.600,397.200 11.280,397.200 10.888 C 397.200 10.497,396.840 9.917,396.400 9.600 C 395.960 9.283,395.600 8.807,395.600 8.543 C 395.600 7.918,392.082 4.400,391.457 4.400 C 391.193 4.400,390.717 4.040,390.400 3.600 C 390.083 3.160,389.503 2.800,389.112 2.800 C 388.720 2.800,388.400 2.620,388.400 2.400 C 388.400 2.180,388.040 2.000,387.600 2.000 C 387.160 2.000,386.800 1.820,386.800 1.600 C 386.800 1.380,386.455 1.200,386.033 1.200 C 385.612 1.200,385.192 0.975,385.100 0.700 C 384.941 0.224,19.867 -0.183,16.100 0.288 M360.400 16.800 C 360.400 17.022,361.459 17.200,362.776 17.200 C 364.083 17.200,365.264 17.380,365.400 17.600 C 365.536 17.820,366.076 18.000,366.600 18.000 C 367.124 18.000,367.664 18.180,367.800 18.400 C 367.936 18.620,368.487 18.800,369.024 18.800 C 369.561 18.800,370.000 18.980,370.000 19.200 C 370.000 19.420,370.320 19.600,370.712 19.600 C 371.103 19.600,371.683 19.960,372.000 20.400 C 372.317 20.840,372.810 21.200,373.096 21.200 C 373.772 21.200,378.800 26.228,378.800 26.904 C 378.800 27.190,379.160 27.683,379.600 28.000 C 380.040 28.317,380.400 28.897,380.400 29.288 C 380.400 29.680,380.580 30.000,380.800 30.000 C 381.020 30.000,381.200 30.439,381.200 30.976 C 381.200 31.513,381.380 32.064,381.600 32.200 C 381.820 32.336,382.000 32.876,382.000 33.400 C 382.000 33.924,382.180 34.464,382.400 34.600 C 382.620 34.736,382.800 35.917,382.800 37.224 C 382.800 38.541,382.978 39.600,383.200 39.600 C 383.466 39.600,383.600 93.192,383.600 199.576 C 383.600 305.796,383.466 359.636,383.200 359.800 C 382.980 359.936,382.800 361.196,382.800 362.600 C 382.800 364.004,382.620 365.264,382.400 365.400 C 382.180 365.536,382.000 366.076,382.000 366.600 C 382.000 367.124,381.820 367.664,381.600 367.800 C 381.380 367.936,381.200 368.487,381.200 369.024 C 381.200 369.561,381.020 370.000,380.800 370.000 C 380.580 370.000,380.400 370.320,380.400 370.712 C 380.400 371.103,380.040 371.683,379.600 372.000 C 379.160 372.317,378.800 372.810,378.800 373.096 C 378.800 373.772,373.772 378.800,373.096 378.800 C 372.810 378.800,372.317 379.160,372.000 379.600 C 371.683 380.040,371.103 380.400,370.712 380.400 C 370.320 380.400,370.000 380.580,370.000 380.800 C 370.000 381.020,369.651 381.200,369.224 381.200 C 368.797 381.200,368.336 381.380,368.200 381.600 C 368.064 381.820,367.434 382.000,366.800 382.000 C 366.166 382.000,365.536 382.180,365.400 382.400 C 365.264 382.620,364.004 382.800,362.600 382.800 C 361.196 382.800,359.936 382.980,359.800 383.200 C 359.457 383.755,40.543 383.755,40.200 383.200 C 40.064 382.980,38.804 382.800,37.400 382.800 C 35.996 382.800,34.736 382.620,34.600 382.400 C 34.464 382.180,33.834 382.000,33.200 382.000 C 32.566 382.000,31.936 381.820,31.800 381.600 C 31.664 381.380,31.203 381.200,30.776 381.200 C 30.349 381.200,30.000 381.020,30.000 380.800 C 30.000 380.580,29.680 380.400,29.288 380.400 C 28.897 380.400,28.317 380.040,28.000 379.600 C 27.683 379.160,27.190 378.800,26.904 378.800 C 26.228 378.800,21.200 373.772,21.200 373.096 C 21.200 372.810,20.840 372.317,20.400 372.000 C 19.960 371.683,19.600 371.103,19.600 370.712 C 19.600 370.320,19.420 370.000,19.200 370.000 C 18.980 370.000,18.800 369.561,18.800 369.024 C 18.800 368.487,18.620 367.936,18.400 367.800 C 18.180 367.664,18.000 367.124,18.000 366.600 C 18.000 366.076,17.820 365.536,17.600 365.400 C 17.380 365.264,17.200 364.083,17.200 362.776 C 17.200 361.459,17.022 360.400,16.800 360.400 C 16.534 360.400,16.400 306.667,16.400 200.000 C 16.400 93.333,16.534 39.600,16.800 39.600 C 17.022 39.600,17.200 38.541,17.200 37.224 C 17.200 35.917,17.380 34.736,17.600 34.600 C 17.820 34.464,18.000 33.924,18.000 33.400 C 18.000 32.876,18.180 32.336,18.400 32.200 C 18.620 32.064,18.800 31.513,18.800 30.976 C 18.800 30.439,18.980 30.000,19.200 30.000 C 19.420 30.000,19.600 29.680,19.600 29.288 C 19.600 28.897,19.960 28.317,20.400 28.000 C 20.840 27.683,21.200 27.190,21.200 26.904 C 21.200 26.228,26.228 21.200,26.904 21.200 C 27.190 21.200,27.683 20.840,28.000 20.400 C 28.317 19.960,28.897 19.600,29.288 19.600 C 29.680 19.600,30.000 19.420,30.000 19.200 C 30.000 18.980,30.439 18.800,30.976 18.800 C 31.513 18.800,32.064 18.620,32.200 18.400 C 32.336 18.180,32.876 18.000,33.400 18.000 C 33.924 18.000,34.464 17.820,34.600 17.600 C 34.736 17.380,35.917 17.200,37.224 17.200 C 38.541 17.200,39.600 17.022,39.600 16.800 C 39.600 16.534,93.333 16.400,200.000 16.400 C 306.667 16.400,360.400 16.534,360.400 16.800 M195.400 76.000 C 195.264 76.220,194.713 76.400,194.176 76.400 C 193.639 76.400,193.200 76.580,193.200 76.800 C 193.200 77.020,192.840 77.200,192.400 77.200 C 191.960 77.200,191.600 77.380,191.600 77.600 C 191.600 77.820,191.322 78.000,190.983 78.000 C 190.644 78.000,189.980 78.360,189.508 78.800 C 189.036 79.240,188.413 79.600,188.125 79.600 C 187.836 79.600,187.600 79.741,187.600 79.914 C 187.600 80.086,187.047 80.554,186.370 80.954 C 185.694 81.353,184.389 82.430,183.470 83.345 C 182.552 84.261,181.170 85.453,180.400 85.994 C 179.630 86.535,178.157 87.838,177.126 88.889 C 176.095 89.940,175.076 90.800,174.861 90.800 C 174.646 90.800,173.373 91.880,172.032 93.200 C 170.692 94.520,169.434 95.600,169.238 95.600 C 169.042 95.600,167.962 96.500,166.839 97.600 C 165.715 98.700,164.599 99.600,164.358 99.600 C 164.118 99.600,163.417 100.140,162.800 100.800 C 162.183 101.460,161.508 102.000,161.299 102.000 C 161.090 102.000,160.354 102.540,159.663 103.200 C 158.972 103.860,158.175 104.400,157.892 104.400 C 157.609 104.400,157.117 104.760,156.800 105.200 C 156.483 105.640,156.038 106.000,155.812 106.001 C 155.585 106.001,154.770 106.541,154.000 107.200 C 153.230 107.859,152.461 108.399,152.291 108.399 C 151.715 108.401,147.600 112.779,147.600 113.391 C 147.600 113.726,147.420 114.000,147.200 114.000 C 146.978 114.000,146.800 115.067,146.800 116.400 C 146.800 117.733,146.978 118.800,147.200 118.800 C 147.420 118.800,147.600 119.160,147.600 119.600 C 147.600 120.356,147.867 120.400,152.400 120.400 C 155.333 120.400,157.200 120.244,157.200 120.000 C 157.200 119.780,158.089 119.600,159.176 119.600 C 160.263 119.600,161.264 119.420,161.400 119.200 C 162.519 117.390,170.800 119.312,170.800 121.382 C 170.800 121.722,170.980 122.000,171.200 122.000 C 171.466 122.000,171.600 152.933,171.600 214.000 C 171.600 275.067,171.734 306.000,172.000 306.000 C 172.220 306.000,172.400 306.799,172.400 307.776 C 172.400 308.753,172.580 309.664,172.800 309.800 C 173.020 309.936,173.200 310.397,173.200 310.824 C 173.200 311.251,173.380 311.600,173.600 311.600 C 173.820 311.600,174.000 311.960,174.000 312.400 C 174.000 312.840,174.180 313.200,174.400 313.200 C 174.620 313.200,174.800 313.560,174.800 314.000 C 174.800 314.440,174.980 314.800,175.200 314.800 C 175.420 314.800,175.600 315.120,175.600 315.512 C 175.600 315.903,175.960 316.483,176.400 316.800 C 176.840 317.117,177.200 317.572,177.200 317.810 C 177.200 318.448,179.628 320.916,180.900 321.569 C 181.505 321.881,182.000 322.285,182.000 322.468 C 182.000 322.650,182.360 322.800,182.800 322.800 C 183.240 322.800,183.600 322.980,183.600 323.200 C 183.600 323.420,183.949 323.600,184.376 323.600 C 184.803 323.600,185.264 323.780,185.400 324.000 C 185.733 324.538,199.867 324.538,200.200 324.000 C 200.336 323.780,201.157 323.600,202.024 323.600 C 202.891 323.600,203.600 323.420,203.600 323.200 C 203.600 322.980,204.219 322.800,204.976 322.800 C 205.733 322.800,206.464 322.620,206.600 322.400 C 206.736 322.180,207.276 322.000,207.800 322.000 C 208.324 322.000,208.864 321.820,209.000 321.600 C 209.136 321.380,209.597 321.200,210.024 321.200 C 210.451 321.200,210.800 321.020,210.800 320.800 C 210.800 320.580,211.340 320.400,212.000 320.400 C 212.660 320.400,213.200 320.220,213.200 320.000 C 213.200 319.780,213.560 319.600,214.000 319.600 C 214.440 319.600,214.800 319.420,214.800 319.200 C 214.800 318.980,215.160 318.800,215.600 318.800 C 216.040 318.800,216.400 318.620,216.400 318.400 C 216.400 318.180,216.760 318.000,217.200 318.000 C 217.640 318.000,218.000 317.820,218.000 317.600 C 218.000 317.380,218.360 317.200,218.800 317.200 C 219.240 317.200,219.600 317.020,219.600 316.800 C 219.600 316.580,219.960 316.400,220.400 316.400 C 220.840 316.400,221.200 316.220,221.200 316.000 C 221.200 315.780,221.560 315.600,222.000 315.600 C 222.440 315.600,222.800 315.420,222.800 315.200 C 222.800 314.980,223.078 314.800,223.417 314.800 C 223.756 314.800,224.420 314.440,224.892 314.000 C 225.364 313.560,225.987 313.200,226.275 313.200 C 226.564 313.200,226.800 313.020,226.800 312.800 C 226.800 312.580,227.078 312.400,227.417 312.400 C 227.756 312.400,228.420 312.040,228.892 311.600 C 229.364 311.160,229.987 310.800,230.275 310.800 C 230.564 310.800,230.800 310.620,230.800 310.400 C 230.800 310.180,231.036 310.000,231.325 310.000 C 231.613 310.000,232.236 309.640,232.708 309.200 C 233.180 308.760,233.709 308.400,233.883 308.399 C 234.057 308.399,234.830 307.859,235.600 307.200 C 236.370 306.541,237.185 306.001,237.412 306.001 C 237.638 306.000,238.083 305.640,238.400 305.200 C 238.717 304.760,239.225 304.400,239.528 304.400 C 239.831 304.400,240.583 303.860,241.200 303.200 C 241.817 302.540,242.533 302.000,242.792 302.000 C 243.051 302.000,243.954 301.280,244.800 300.400 C 245.646 299.520,246.486 298.796,246.669 298.791 C 247.201 298.776,249.742 296.323,250.803 294.800 C 251.339 294.030,252.098 293.051,252.489 292.625 C 252.880 292.198,253.200 291.433,253.200 290.925 C 253.200 290.416,253.380 290.000,253.600 290.000 C 253.820 290.000,254.000 289.280,254.000 288.400 C 254.000 287.520,253.820 286.800,253.600 286.800 C 253.380 286.800,253.200 286.260,253.200 285.600 L 253.200 284.400 248.888 284.400 C 245.035 284.400,244.515 284.485,244.000 285.200 C 243.683 285.640,243.143 286.000,242.800 286.000 C 242.457 286.000,241.917 286.360,241.600 286.800 C 241.283 287.240,240.743 287.600,240.400 287.600 C 240.057 287.600,239.517 287.960,239.200 288.400 C 238.883 288.840,238.303 289.200,237.912 289.200 C 237.520 289.200,237.200 289.380,237.200 289.600 C 237.200 289.820,236.840 290.000,236.400 290.000 C 235.960 290.000,235.600 290.180,235.600 290.400 C 235.600 290.620,235.240 290.800,234.800 290.800 C 234.360 290.800,234.000 290.980,234.000 291.200 C 234.000 291.420,233.561 291.600,233.024 291.600 C 232.487 291.600,231.936 291.780,231.800 292.000 C 231.366 292.702,229.406 292.441,228.800 291.600 C 228.483 291.160,227.980 290.800,227.683 290.800 C 227.075 290.800,226.437 290.186,225.700 288.890 C 225.304 288.193,225.200 268.159,225.200 192.429 C 225.200 129.139,225.065 96.764,224.800 96.600 C 224.580 96.464,224.400 95.924,224.400 95.400 C 224.400 94.876,224.220 94.336,224.000 94.200 C 223.780 94.064,223.600 93.603,223.600 93.176 C 223.600 92.749,223.420 92.400,223.200 92.400 C 222.980 92.400,222.800 92.164,222.800 91.875 C 222.800 91.587,222.440 90.964,222.000 90.492 C 221.560 90.020,221.200 89.396,221.200 89.105 C 221.200 88.814,220.840 88.317,220.400 88.000 C 219.960 87.683,219.600 87.210,219.600 86.948 C 219.600 86.402,213.028 79.600,212.500 79.600 C 212.308 79.600,211.802 79.285,211.375 78.900 C 210.381 78.003,207.295 76.400,206.562 76.400 C 206.253 76.400,206.000 76.220,206.000 76.000 C 206.000 75.754,204.008 75.600,200.824 75.600 C 197.804 75.600,195.544 75.767,195.400 76.000 " stroke="none" fill="#040404" fill-rule="evenodd"></path><path id="path1" d="" stroke="none" fill="#080404" fill-rule="evenodd"></path><path id="path2" d="" stroke="none" fill="#080404" fill-rule="evenodd"></path><path id="path3" d="" stroke="none" fill="#080404" fill-rule="evenodd"></path><path id="path4" d="" stroke="none" fill="#080404" fill-rule="evenodd"></path></g></svg>