<?xml version="1.0" standalone="no"?>
<!DOCTYPE svg PUBLIC "-//W3C//DTD SVG 20010904//EN"
 "http://www.w3.org/TR/2001/REC-SVG-20010904/DTD/svg10.dtd">
<svg version="1.0" xmlns="http://www.w3.org/2000/svg"
 width="500.000000pt" height="500.000000pt" viewBox="0 0 500.000000 500.000000"
 preserveAspectRatio="xMidYMid meet">

<g transform="translate(0.000000,500.000000) scale(0.100000,-0.100000)"
fill="#000000" stroke="none">
<path d="M214 4986 c-100 -31 -183 -121 -204 -219 -8 -37 -10 -685 -8 -2297
l3 -2245 21 -46 c28 -60 93 -125 153 -153 l46 -21 2275 0 2275 0 46 21 c60 28
125 93 153 153 l21 46 0 2275 0 2275 -21 46 c-28 60 -87 119 -150 150 l-49 24
-2260 2 c-1821 1 -2268 -1 -2301 -11z m4413 -214 c63 -33 106 -74 139 -134
l29 -53 0 -2085 0 -2085 -23 -42 c-33 -63 -74 -106 -134 -139 l-53 -29 -2085
0 -2085 0 -53 29 c-60 33 -101 76 -134 139 l-23 42 -3 2064 c-1 1383 1 2076 8
2101 23 87 118 184 204 209 18 6 876 9 2101 8 l2070 -2 42 -23z"/>
<path d="M2450 4045 c-98 -22 -230 -91 -416 -216 -132 -89 -195 -140 -302
-243 -246 -240 -333 -374 -276 -430 20 -21 78 -20 112 1 15 10 91 66 169 125
79 59 175 124 215 145 64 33 82 37 143 37 60 0 81 -5 149 -37 43 -20 116 -62
162 -92 98 -66 157 -144 206 -277 45 -122 50 -247 15 -360 -46 -144 -153 -332
-320 -558 -190 -257 -740 -963 -799 -1026 -66 -69 -68 -73 -68 -123 l0 -51 35
0 c20 0 55 10 78 23 l42 22 700 5 c782 6 716 -1 809 81 148 130 461 640 474
770 4 46 3 49 -23 59 -16 6 -33 9 -39 6 -6 -2 -73 -54 -149 -115 -202 -161
-270 -180 -668 -188 -324 -7 -399 7 -399 72 0 14 86 139 218 316 643 866 660
891 710 1042 95 285 57 535 -112 738 -100 121 -276 236 -408 268 -82 19 -188
22 -258 6z"/>
</g>
</svg>
