<?xml version="1.0" standalone="no"?>
<!DOCTYPE svg PUBLIC "-//W3C//DTD SVG 20010904//EN"
 "http://www.w3.org/TR/2001/REC-SVG-20010904/DTD/svg10.dtd">
<svg version="1.0" xmlns="http://www.w3.org/2000/svg"
 width="500.000000pt" height="500.000000pt" viewBox="0 0 500.000000 500.000000"
 preserveAspectRatio="xMidYMid meet">

<g transform="translate(0.000000,500.000000) scale(0.100000,-0.100000)"
fill="#000000" stroke="none">
<path d="M205 4982 c-99 -34 -174 -117 -195 -215 -8 -37 -10 -685 -8 -2297 l3
-2245 21 -46 c28 -60 93 -125 153 -153 l46 -21 2275 0 2275 0 46 21 c60 28
125 93 153 153 l21 46 0 2275 0 2275 -21 46 c-28 60 -93 125 -153 153 l-46 21
-2260 2 c-2123 2 -2263 1 -2310 -15z m4422 -210 c63 -33 106 -74 139 -134 l29
-53 0 -2085 0 -2085 -23 -42 c-33 -63 -74 -106 -134 -139 l-53 -29 -2085 0
-2085 0 -53 29 c-60 33 -101 76 -134 139 l-23 42 -3 2064 c-1 1383 1 2076 8
2101 23 87 118 184 204 209 18 6 876 9 2101 8 l2070 -2 42 -23z"/>
<path d="M2250 4026 c-20 -7 -58 -28 -85 -46 -74 -51 -310 -277 -472 -452
-222 -239 -245 -276 -203 -318 34 -34 92 -23 166 29 32 23 94 66 137 96 l78
55 352 0 c350 0 352 0 380 -23 l28 -22 -88 -130 c-93 -137 -131 -188 -279
-375 -220 -278 -219 -290 19 -315 313 -33 489 -149 577 -380 28 -75 38 -228
20 -306 -29 -122 -99 -220 -208 -292 -100 -66 -169 -89 -288 -95 -198 -9 -351
54 -430 179 -40 64 -34 83 65 214 115 151 146 236 99 269 -35 25 -99 20 -144
-10 -132 -88 -410 -428 -501 -611 -34 -69 -38 -85 -38 -153 1 -61 6 -84 27
-126 53 -102 187 -191 353 -235 114 -30 318 -30 430 0 110 29 263 107 367 186
195 147 502 455 642 644 252 339 318 639 196 900 -79 168 -180 249 -444 355
-205 82 -207 84 -161 171 41 76 103 151 267 321 252 262 321 371 289 457 l-11
27 -552 0 c-421 -1 -562 -4 -588 -14z"/>
</g>
</svg>
